<svg width="80" height="80" viewBox="0 0 80 80" fill="none" xmlns="http://www.w3.org/2000/svg">
<path d="M58.1692 10.8606C59.2922 11.7614 59.8975 12.8875 60.1145 14.303C60.2094 15.5222 60.1781 16.747 60.1566 17.9687C60.2436 17.9845 60.3306 18.0003 60.4203 18.0165C61.2916 18.1898 62.0277 18.4559 62.8128 18.8672C62.9214 18.9231 63.03 18.979 63.1419 19.0365C66.5464 20.8151 69.3912 23.8101 70.5747 27.5186C70.6881 27.8951 70.7948 28.273 70.8988 28.6523C70.9483 28.829 70.9483 28.829 70.9988 29.0095C71.4739 30.8469 71.4291 32.7567 71.4219 34.6417C71.4216 34.87 71.4214 35.0983 71.4212 35.3267C71.4206 35.9203 71.4191 36.5139 71.4173 37.1075C71.4156 37.7161 71.415 38.3247 71.4142 38.9334C71.4125 40.1223 71.4098 41.3111 71.4066 42.5C71.6034 42.4978 71.8003 42.4958 72.0033 42.4936C73.5678 42.4766 74.827 43.3034 75.9231 44.3458C76.6417 45.1008 77.0311 45.8856 77.3441 46.875C77.3741 46.9692 77.4041 47.0636 77.435 47.1606C77.7666 48.8836 77.5533 50.7095 76.6691 52.2297C75.7447 53.5505 74.5064 54.5609 72.9173 54.9278C72.5139 54.9976 72.1464 55.0189 71.7375 55.0178C71.5905 55.0176 71.4436 55.0176 71.2922 55.0176C71.1356 55.0169 70.9789 55.0161 70.8177 55.0153C70.5747 55.015 70.5747 55.015 70.327 55.0145C69.8113 55.0137 69.2955 55.0117 68.7797 55.0098C68.4294 55.009 68.0792 55.0083 67.7289 55.0076C66.8714 55.0059 66.0141 55.0033 65.1566 55C65.1577 55.1809 65.1589 55.362 65.16 55.5484C65.1609 55.789 65.1619 56.0295 65.1627 56.2701C65.1634 56.389 65.1644 56.508 65.1652 56.6305C65.1695 58.2722 64.9588 59.6206 63.9066 60.9375C62.7781 62.0451 61.5642 62.5733 59.9833 62.5631C59.8036 62.5647 59.8036 62.5647 59.6202 62.5664C59.2278 62.5692 58.8356 62.5686 58.4433 62.5678C58.1683 62.5684 57.8931 62.5694 57.618 62.5703C57.043 62.5715 56.4678 62.5712 55.8927 62.5697C55.1586 62.568 54.4245 62.5711 53.6905 62.5756C53.1228 62.5784 52.555 62.5784 51.9873 62.5775C51.7169 62.5775 51.4463 62.5784 51.1758 62.5805C48.485 62.597 48.485 62.597 47.3441 61.875C47.1922 61.7864 47.1922 61.7864 47.0372 61.6959C45.9723 61.0526 45.3039 59.9347 45.0003 58.75C44.9627 58.105 44.9709 57.4623 44.9808 56.8164C44.9822 56.6417 44.9836 56.4672 44.985 56.2872C44.9888 55.8581 44.9939 55.429 45.0003 55C44.9083 55.0014 44.8161 55.0028 44.7212 55.0042C43.7555 55.0181 42.7895 55.0275 41.8236 55.0344C41.4641 55.0375 41.1044 55.0417 40.7448 55.0472C40.2255 55.0548 39.7063 55.0583 39.1867 55.0611C39.0281 55.0642 38.8695 55.0675 38.7061 55.0708C36.9364 55.0714 35.5013 54.5051 34.2191 53.2812C32.8428 51.8395 32.4025 50.3359 32.4267 48.3805C32.5 46.5325 33.2111 45.1811 34.542 43.9105C35.575 43.0401 36.7109 42.4814 38.0763 42.4939C38.2025 42.4947 38.3289 42.4956 38.4591 42.4965C38.5552 42.4976 38.6513 42.4989 38.7503 42.5C38.7489 42.3555 38.7475 42.2111 38.7461 42.0622C38.7334 40.688 38.7241 39.3139 38.718 37.9397C38.7147 37.2334 38.7103 36.5273 38.7031 35.8212C38.6962 35.1373 38.6927 34.4536 38.6911 33.7697C38.6898 33.5112 38.6877 33.2526 38.6842 32.9942C38.6309 28.7976 39.9114 25.0544 42.8525 21.9976C42.9941 21.854 43.1356 21.7105 43.2816 21.5625C43.453 21.3881 43.453 21.3881 43.6277 21.2103C45.2631 19.6539 47.7641 18.3114 50.0003 17.9687C49.9955 17.7894 49.9955 17.7894 49.9905 17.6062C49.9773 17.0565 49.9692 16.5069 49.9613 15.957C49.9561 15.7689 49.9508 15.5808 49.9455 15.387C49.9273 13.7303 50.2439 12.4415 51.3962 11.2121C53.2822 9.60781 56.1209 9.50677 58.1692 10.8606ZM53.5941 12.9687C53.1892 13.3304 52.9003 13.7313 52.6566 14.2187C52.6434 14.4679 52.6398 14.7175 52.6413 14.967C52.6417 15.0995 52.642 15.2319 52.6425 15.3684C52.6439 15.5369 52.6453 15.7053 52.6469 15.8789C52.65 16.4139 52.6533 16.9489 52.6566 17.5C54.255 17.5 55.8534 17.5 57.5003 17.5C57.6286 15.4744 57.6286 15.4744 57.0316 13.5937C55.9936 12.5085 54.9122 12.2554 53.5941 12.9687ZM53.7503 30.7812C53.5517 31.0789 53.3641 31.3842 53.1864 31.695C53.1358 31.7825 53.0852 31.8701 53.033 31.9605C52.9241 32.1489 52.8158 32.3376 52.708 32.5269C52.4175 33.0359 52.123 33.5426 51.8289 34.0497C51.7686 34.154 51.7081 34.2586 51.6458 34.3661C51.063 35.3714 50.463 36.3658 49.858 37.3576C49.6891 37.6347 49.5206 37.9119 49.3523 38.1892C48.8925 38.9456 48.4312 39.7008 47.9587 40.4492C47.8573 40.6119 47.8573 40.6119 47.7539 40.7776C47.5861 41.0464 47.4161 41.3136 47.2458 41.5808C47.0036 42.0903 46.9661 42.4112 47.0316 42.9687C47.4044 43.4612 47.6869 43.6355 48.2816 43.75C48.7175 43.7664 49.1495 43.7745 49.5855 43.7751C49.7167 43.7759 49.8478 43.7767 49.983 43.7775C50.4164 43.7798 50.8498 43.7809 51.2833 43.7817C51.585 43.7826 51.8866 43.7836 52.1883 43.7844C52.8205 43.7861 53.4528 43.787 54.0852 43.7875C54.8945 43.7884 55.7041 43.7922 56.5134 43.7966C57.1366 43.7995 57.7595 43.8003 58.3827 43.8006C58.6811 43.8011 58.9794 43.8023 59.2778 43.8044C59.6956 43.807 60.1133 43.8067 60.5309 43.8056C60.7152 43.8078 60.7152 43.8078 60.903 43.81C61.6513 43.8044 62.1634 43.6934 62.8128 43.2812C63.0361 42.8347 63.0122 42.5286 62.9691 42.0312C62.7978 41.6623 62.6264 41.342 62.4131 40.9997C62.3544 40.902 62.2956 40.8042 62.2352 40.7034C62.0423 40.3831 61.8466 40.0647 61.6508 39.7461C61.5155 39.5228 61.3805 39.2994 61.2455 39.0759C60.9684 38.6176 60.69 38.16 60.4106 37.7031C60.027 37.0756 59.6464 36.4464 59.2667 35.8167C58.6295 34.7609 57.9877 33.7081 57.3441 32.6562C57.258 32.515 57.1717 32.3737 57.083 32.2281C56.8617 31.8658 56.6394 31.5041 56.4164 31.1426C56.3237 30.9908 56.3237 30.9908 56.2292 30.8359C55.9325 30.333 55.9325 30.333 55.4691 30C54.5819 29.8817 54.328 30.1314 53.7503 30.7812ZM47.6566 55C47.3533 58.014 47.3533 58.014 48.2816 59.2187C49.1692 59.9176 49.8794 60.0183 50.9847 60.0251C51.1803 60.0267 51.3759 60.0281 51.5775 60.0297C51.7898 60.0305 52.0023 60.0311 52.2147 60.0317C52.3764 60.0323 52.3764 60.0323 52.5416 60.0331C53.1125 60.0355 53.6834 60.0369 54.2545 60.0375C54.8409 60.0384 55.4273 60.0422 56.0137 60.0465C56.4677 60.0495 56.9216 60.0503 57.3755 60.0506C57.5916 60.0511 57.8075 60.0523 58.0236 60.0544C59.9498 60.1108 59.9498 60.1108 61.6527 59.3265C62.8042 58.0569 62.5003 56.6865 62.5003 55C57.6019 55 52.7034 55 47.6566 55Z" fill="#F1BD22"/>
<path d="M10.4817 22.325C10.6063 22.3248 10.7309 22.3247 10.8593 22.3245C11.2753 22.3244 11.6912 22.3252 12.1072 22.3261C12.406 22.3261 12.7048 22.3261 13.0036 22.3259C13.8138 22.3259 14.624 22.3269 15.4342 22.328C16.2813 22.3289 17.1283 22.3291 17.9754 22.3292C19.5791 22.3297 21.1827 22.3309 22.7863 22.3325C24.6123 22.3342 26.4382 22.3352 28.264 22.3359C32.0196 22.3375 35.7751 22.3403 39.5307 22.3437C39.2908 22.9673 38.996 23.495 38.6421 24.0625C38.0896 24.9927 37.7051 25.9478 37.3627 26.9727C37.318 27.1048 37.2735 27.2369 37.2274 27.3731C36.5323 29.5422 36.4999 31.6887 36.4643 33.9453C36.4583 34.2605 36.4523 34.5756 36.446 34.8908C36.4312 35.6562 36.4179 36.4219 36.4057 37.1875C35.7137 37.532 35.0671 37.5453 34.3102 37.543C34.1798 37.5437 34.0493 37.5445 33.9149 37.5453C33.4846 37.5475 33.0543 37.5473 32.624 37.547C32.3237 37.5477 32.0233 37.5483 31.723 37.5491C31.0937 37.5502 30.4643 37.5502 29.8349 37.5494C29.0308 37.5484 28.2269 37.5511 27.4229 37.5547C26.8026 37.557 26.1823 37.5572 25.5618 37.5567C25.2655 37.5567 24.9693 37.5575 24.673 37.5591C24.2573 37.5611 23.8416 37.56 23.4258 37.5581C23.2446 37.56 23.2446 37.56 23.0596 37.5619C21.5405 37.5473 20.2883 37.0197 19.2182 35.9375C18.7557 35.2984 18.3743 34.6556 18.1244 33.9062C11.7049 33.8289 11.7049 33.8289 5.1557 33.75C5.16531 38.9884 5.16531 38.9884 5.18073 44.2267C5.18831 46.3631 5.19527 48.4994 5.19805 50.6358C5.20008 52.1917 5.2043 53.7477 5.21111 55.3036C5.21464 56.1272 5.21709 56.9508 5.21694 57.7744C5.21683 58.5502 5.21962 59.3261 5.22464 60.102C5.22597 60.3861 5.22625 60.6702 5.22536 60.9542C5.22016 62.8964 5.32758 64.4948 6.7182 65.9753C7.59998 66.7503 8.57398 67.2061 9.74987 67.2081C9.88741 67.2086 10.0249 67.2092 10.1666 67.2098C10.3171 67.2097 10.4675 67.2095 10.6225 67.2095C10.7828 67.21 10.9431 67.2105 11.1083 67.2109C11.6473 67.2122 12.1862 67.2125 12.7251 67.2127C13.1108 67.2134 13.4966 67.2142 13.8823 67.215C14.9315 67.217 15.9807 67.2181 17.0299 67.2188C17.6854 67.2192 18.3408 67.2198 18.9962 67.2206C20.8115 67.2225 22.6268 67.2241 24.4421 67.2247C24.5582 67.2247 24.6743 67.2247 24.794 67.2247C24.9105 67.2248 25.0269 67.2248 25.1468 67.2248C25.3829 67.2248 25.6188 67.225 25.8548 67.225C25.9718 67.2252 26.0888 67.2252 26.2093 67.2252C28.1049 67.2258 30.0004 67.2284 31.8958 67.2322C33.8429 67.2358 35.7899 67.2378 37.7369 67.238C38.8298 67.2381 39.9226 67.2391 41.0152 67.2419C42.0435 67.2445 43.0716 67.2448 44.0997 67.2434C44.4769 67.2433 44.854 67.2439 45.231 67.2455C45.7465 67.2475 46.2618 67.2466 46.7773 67.245C46.9258 67.2463 47.0746 67.2475 47.2277 67.2487C48.4183 67.24 49.5558 67.0264 50.5171 66.2794C50.6612 66.1714 50.6612 66.1714 50.8082 66.0614C51.1291 65.7755 51.1291 65.7755 51.3465 65.285C51.7182 64.8437 51.7182 64.8437 52.0458 64.7683C52.4482 64.7514 52.8396 64.762 53.2416 64.7852C53.3804 64.7894 53.5191 64.7936 53.6623 64.798C54.0041 64.8091 54.3454 64.8244 54.6869 64.8437C54.129 66.6905 53.0029 68.1934 51.2849 69.1467C49.9121 69.7898 48.7693 70.0466 47.2633 70.0419C47.0999 70.0425 46.9365 70.0433 46.768 70.0439C46.2212 70.0459 45.6744 70.0456 45.1276 70.0455C44.7351 70.0464 44.3426 70.0473 43.9501 70.0486C42.9951 70.0511 42.0401 70.052 41.0851 70.0522C40.3082 70.0523 39.5312 70.053 38.7543 70.0541C36.549 70.0567 34.3435 70.0581 32.1382 70.058C32.0194 70.058 31.9005 70.058 31.7782 70.058C31.5998 70.058 31.5998 70.058 31.4177 70.0578C29.4918 70.0578 27.566 70.0608 25.6401 70.0652C23.6599 70.0697 21.6796 70.0719 19.6994 70.0716C18.5888 70.0714 17.4782 70.0723 16.3676 70.0756C15.3223 70.0788 14.2771 70.0788 13.2319 70.0764C12.8492 70.0761 12.4666 70.0769 12.084 70.0787C9.24278 70.0919 6.86675 69.967 4.64789 67.9639C3.12214 66.3687 2.44902 64.4477 2.45872 62.2755C2.45813 62.132 2.45753 61.9884 2.45691 61.8406C2.45531 61.3623 2.45592 60.8841 2.45655 60.4056C2.45586 60.0617 2.45505 59.7177 2.45413 59.3736C2.45203 58.4409 2.45194 57.5083 2.45233 56.5756C2.4525 55.7964 2.45173 55.017 2.45098 54.2378C2.44916 52.2937 2.4493 50.3498 2.4503 48.4059C2.45111 46.7202 2.44934 45.0345 2.44637 43.3487C2.44334 41.6153 2.44211 39.8817 2.44264 38.1481C2.44292 37.1759 2.44252 36.2037 2.44034 35.2316C2.43837 34.3172 2.43869 33.4027 2.44072 32.4883C2.44109 32.1533 2.44067 31.8184 2.43938 31.4834C2.43773 31.0248 2.43902 30.5664 2.44098 30.108C2.43983 29.9766 2.43869 29.8452 2.4375 29.7098C2.45495 27.7741 3.2398 25.9611 4.56977 24.5606C6.26703 22.9686 8.17913 22.3159 10.4817 22.325ZM6.13166 26.9025C5.14742 28.3136 5.1557 29.257 5.1557 31.0937C9.38383 31.0937 13.612 31.0937 17.9682 31.0937C17.9682 29.0828 17.9682 27.0719 17.9682 25C16.7757 24.9856 15.5835 24.9731 14.391 24.9656C13.9859 24.9625 13.5808 24.9583 13.1758 24.9528C12.5912 24.9452 12.0068 24.9417 11.4222 24.9389C11.2431 24.9358 11.064 24.9325 10.8794 24.9292C9.0488 24.9287 7.31677 25.4323 6.13166 26.9025Z" fill="#003C7C"/>
<path d="M58.1692 10.8606C59.2922 11.7614 59.8975 12.8875 60.1145 14.303C60.2094 15.5222 60.1781 16.747 60.1566 17.9687C60.2436 17.9845 60.3306 18.0003 60.4203 18.0165C61.2916 18.1898 62.0277 18.4559 62.8128 18.8672C62.9214 18.9231 63.03 18.979 63.1419 19.0365C66.5464 20.8151 69.3912 23.8101 70.5747 27.5186C70.6881 27.8951 70.7948 28.273 70.8988 28.6523C70.9483 28.829 70.9483 28.829 70.9988 29.0095C71.4739 30.8469 71.4291 32.7567 71.4219 34.6417C71.4216 34.87 71.4214 35.0983 71.4212 35.3267C71.4206 35.9203 71.4191 36.5139 71.4173 37.1075C71.4156 37.7161 71.415 38.3247 71.4142 38.9334C71.4125 40.1223 71.4098 41.3111 71.4066 42.5C71.6034 42.4978 71.8003 42.4958 72.0033 42.4936C73.5678 42.4766 74.827 43.3034 75.9231 44.3458C76.6417 45.1008 77.0311 45.8856 77.3441 46.875C77.3741 46.9692 77.4041 47.0636 77.435 47.1606C77.7666 48.8836 77.5533 50.7095 76.6691 52.2297C75.7447 53.5505 74.5064 54.5609 72.9173 54.9278C72.5139 54.9976 72.1464 55.0189 71.7375 55.0178C71.5905 55.0176 71.4436 55.0176 71.2922 55.0176C71.1356 55.0169 70.9789 55.0161 70.8177 55.0153C70.5747 55.015 70.5747 55.015 70.327 55.0145C69.8113 55.0137 69.2955 55.0117 68.7797 55.0098C68.4294 55.009 68.0792 55.0083 67.7289 55.0076C66.8714 55.0059 66.0141 55.0033 65.1566 55C65.1577 55.1809 65.1589 55.362 65.16 55.5484C65.1609 55.789 65.1619 56.0295 65.1627 56.2701C65.1634 56.389 65.1644 56.508 65.1652 56.6305C65.1695 58.2722 64.9588 59.6206 63.9066 60.9375C62.7781 62.0451 61.5642 62.5733 59.9833 62.5631C59.8036 62.5647 59.8036 62.5647 59.6202 62.5664C59.2278 62.5692 58.8356 62.5686 58.4433 62.5678C58.1683 62.5684 57.8931 62.5694 57.618 62.5703C57.043 62.5715 56.4678 62.5712 55.8927 62.5697C55.1586 62.568 54.4245 62.5711 53.6905 62.5756C53.1228 62.5784 52.555 62.5784 51.9873 62.5775C51.7169 62.5775 51.4463 62.5784 51.1758 62.5805C48.485 62.597 48.485 62.597 47.3441 61.875C47.1922 61.7864 47.1922 61.7864 47.0372 61.6959C45.9723 61.0526 45.3039 59.9347 45.0003 58.75C44.9627 58.105 44.9709 57.4623 44.9808 56.8164C44.9822 56.6417 44.9836 56.4672 44.985 56.2872C44.9888 55.8581 44.9939 55.429 45.0003 55C44.9083 55.0014 44.8161 55.0028 44.7212 55.0042C43.7555 55.0181 42.7895 55.0275 41.8236 55.0344C41.4641 55.0375 41.1044 55.0417 40.7448 55.0472C40.2255 55.0548 39.7063 55.0583 39.1867 55.0611C39.0281 55.0642 38.8695 55.0675 38.7061 55.0708C36.9364 55.0714 35.5013 54.5051 34.2191 53.2812C32.8428 51.8395 32.4025 50.3359 32.4267 48.3805C32.5 46.5325 33.2111 45.1811 34.542 43.9105C35.575 43.0401 36.7109 42.4814 38.0763 42.4939C38.2025 42.4947 38.3289 42.4956 38.4591 42.4965C38.5552 42.4976 38.6513 42.4989 38.7503 42.5C38.7489 42.3555 38.7475 42.2111 38.7461 42.0622C38.7334 40.688 38.7241 39.3139 38.718 37.9397C38.7147 37.2334 38.7103 36.5273 38.7031 35.8212C38.6962 35.1373 38.6927 34.4536 38.6911 33.7697C38.6898 33.5112 38.6877 33.2526 38.6842 32.9942C38.6309 28.7976 39.9114 25.0544 42.8525 21.9976C42.9941 21.854 43.1356 21.7105 43.2816 21.5625C43.453 21.3881 43.453 21.3881 43.6277 21.2103C45.2631 19.6539 47.7641 18.3114 50.0003 17.9687C49.9955 17.7894 49.9955 17.7894 49.9905 17.6062C49.9773 17.0565 49.9692 16.5069 49.9613 15.957C49.9561 15.7689 49.9508 15.5808 49.9455 15.387C49.9273 13.7303 50.2439 12.4415 51.3962 11.2121C53.2822 9.60781 56.1209 9.50677 58.1692 10.8606ZM53.5941 12.9687C53.1892 13.3304 52.9003 13.7313 52.6566 14.2187C52.6434 14.4679 52.6398 14.7175 52.6413 14.967C52.6417 15.0995 52.642 15.2319 52.6425 15.3684C52.6439 15.5369 52.6453 15.7053 52.6469 15.8789C52.65 16.4139 52.6533 16.9489 52.6566 17.5C54.255 17.5 55.8534 17.5 57.5003 17.5C57.6286 15.4744 57.6286 15.4744 57.0316 13.5937C55.9936 12.5085 54.9122 12.2554 53.5941 12.9687ZM48.7211 20.9669C48.565 21.037 48.565 21.037 48.4058 21.1087C47.4406 21.5601 46.6053 22.1373 45.7816 22.8125C45.6716 22.897 45.5616 22.9817 45.4483 23.0689C44.1416 24.1245 43.2203 25.5159 42.4516 26.9922C42.4025 27.0831 42.3536 27.174 42.3031 27.2676C41.2488 29.3972 41.1594 31.6267 41.1661 33.9484C41.1645 34.245 41.1627 34.5416 41.1605 34.8381C41.1555 35.6103 41.1539 36.3825 41.1533 37.1547C41.1519 38.3975 41.1463 39.6401 41.1388 40.883C41.1369 41.3156 41.137 41.7483 41.1373 42.1809C41.1363 42.4445 41.1352 42.7081 41.1341 42.9717C41.1347 43.0917 41.1353 43.2117 41.1359 43.3355C41.1314 43.9234 41.1163 44.1856 40.7816 44.6875C40.3191 44.8417 39.9297 44.8661 39.4461 44.8811C38.0894 44.9275 37.1806 45.1055 36.1331 45.9864C35.198 47.1033 35.0541 47.8103 35.0961 49.2805C35.2169 50.4055 35.6866 51.1581 36.5628 51.875C37.453 52.4398 38.1975 52.5906 39.2398 52.5783C39.3783 52.5792 39.5167 52.58 39.6594 52.5809C40.1205 52.5831 40.5814 52.5808 41.0425 52.5784C41.3741 52.579 41.7058 52.5798 42.0375 52.5809C42.9366 52.5831 43.8356 52.5814 44.7348 52.5787C45.6769 52.5767 46.6189 52.5776 47.5609 52.5783C49.1431 52.5786 50.7253 52.5765 52.3077 52.573C54.135 52.5687 55.9622 52.5684 57.7895 52.5703C59.5494 52.572 61.3092 52.5711 63.0689 52.5687C63.8169 52.568 64.5648 52.568 65.3128 52.5686C66.1944 52.5694 67.0759 52.5678 67.9575 52.5645C68.2805 52.5636 68.6033 52.5634 68.9261 52.5642C69.3683 52.5651 69.8103 52.5633 70.2523 52.5606C70.4422 52.562 70.4422 52.562 70.6358 52.5634C71.7386 52.5514 72.7961 52.3367 73.7375 51.7444C74.515 50.9362 75.0533 49.84 75.0883 48.7109C75.0166 47.694 74.7083 46.7562 74.0012 45.9973C72.9198 45.0659 71.8167 44.909 70.4381 44.8869C69.8442 44.8764 69.5698 44.8692 69.0628 44.5312C68.8698 43.9522 68.8841 43.4159 68.8844 42.813C68.8839 42.6856 68.8833 42.5583 68.8828 42.427C68.8816 42.15 68.8808 41.873 68.8802 41.5959C68.8791 41.1556 68.8767 40.7151 68.8738 40.2747C68.8656 39.0222 68.8581 37.7697 68.8556 36.5172C68.8541 35.7506 68.8495 34.9842 68.843 34.2178C68.8411 33.9275 68.8402 33.6373 68.8406 33.347C68.8427 31.0778 68.6172 29.0131 67.5297 26.9726C67.4759 26.8686 67.4222 26.7647 67.3667 26.6575C66.9231 25.8219 66.403 25.0887 65.7816 24.375C65.6773 24.2375 65.6773 24.2375 65.5709 24.0973C64.365 22.5467 62.5675 21.5248 60.7816 20.7812C60.5966 20.7017 60.4114 20.6222 60.2206 20.5401C58.5402 19.913 56.8094 19.9256 55.0394 19.9219C54.9153 19.9211 54.7911 19.9205 54.6631 19.9197C52.6008 19.915 50.6219 20.0906 48.7211 20.9669ZM47.6566 55C47.3533 58.014 47.3533 58.014 48.2816 59.2187C49.1692 59.9176 49.8794 60.0183 50.9847 60.0251C51.1803 60.0267 51.3759 60.0281 51.5775 60.0297C51.7898 60.0305 52.0023 60.0311 52.2147 60.0317C52.3764 60.0323 52.3764 60.0323 52.5416 60.0331C53.1125 60.0355 53.6834 60.0369 54.2545 60.0375C54.8409 60.0384 55.4273 60.0422 56.0137 60.0465C56.4677 60.0495 56.9216 60.0503 57.3755 60.0506C57.5916 60.0511 57.8075 60.0523 58.0236 60.0544C59.9498 60.1108 59.9498 60.1108 61.6527 59.3265C62.8042 58.0569 62.5003 56.6865 62.5003 55C57.6019 55 52.7034 55 47.6566 55Z" fill="#003C7C"/>
<path d="M13.379 48.5484C13.5965 48.5467 13.5965 48.5467 13.8184 48.5452C14.2947 48.5422 14.7709 48.5416 15.2472 48.5413C15.5807 48.5403 15.9143 48.5392 16.2477 48.5381C16.946 48.5363 17.6441 48.5356 18.3424 48.5358C19.233 48.5359 20.1235 48.5316 21.0143 48.5263C21.703 48.5228 22.3918 48.5222 23.0805 48.5224C23.4087 48.5219 23.7368 48.5206 24.0649 48.5181C26.4257 48.5024 28.3652 48.5109 30.1471 50.2558C31.2952 51.5714 31.4554 53.1483 31.4538 54.8328C31.4545 54.9938 31.4552 55.1547 31.4559 55.3206C31.4568 55.6597 31.4568 55.9988 31.4562 56.3378C31.4557 56.8528 31.4593 57.3677 31.4634 57.8827C31.4637 58.2138 31.4638 58.5447 31.4637 58.8758C31.4651 59.0278 31.4665 59.1799 31.468 59.3366C31.4573 60.9547 31.0563 62.347 30.0005 63.5938C28.782 64.7713 27.3987 65.0714 25.7465 65.0631C25.5934 65.0642 25.4402 65.0653 25.2824 65.0664C24.7801 65.0692 24.2779 65.0686 23.7757 65.0678C23.424 65.0684 23.0724 65.0694 22.7209 65.0703C21.9855 65.0716 21.2502 65.0713 20.5149 65.0697C19.5752 65.068 18.6359 65.0711 17.6963 65.0756C16.9707 65.0784 16.2451 65.0784 15.5195 65.0775C15.1732 65.0775 14.8269 65.0784 14.4806 65.0805C13.9953 65.0828 13.5102 65.0811 13.0249 65.0784C12.8837 65.0799 12.7425 65.0814 12.597 65.083C11.0692 65.0655 9.85378 64.5269 8.74755 63.4833C7.96298 62.5749 7.48545 61.472 7.47295 60.2739C7.47094 60.1066 7.46894 59.9391 7.46688 59.7664C7.46572 59.5853 7.46456 59.4042 7.46338 59.2175C7.46211 59.0308 7.46084 58.8441 7.45955 58.6516C7.45739 58.2558 7.45572 57.8599 7.45448 57.4641C7.4518 56.8611 7.44494 56.2584 7.43805 55.6555C7.43645 55.2706 7.43513 54.8856 7.43408 54.5008C7.43134 54.3216 7.42861 54.1422 7.42578 53.9575C7.42873 52.8603 7.58402 52.0517 8.12561 51.0938C8.23014 50.9067 8.23014 50.9067 8.33678 50.7159C9.57241 48.9989 11.3629 48.5463 13.379 48.5484ZM11.5631 52.9688C11.3412 53.4127 11.3577 53.7274 11.4069 54.2188C11.7238 54.6258 11.9116 54.8197 12.4231 54.922C12.5698 54.922 12.7164 54.9222 12.8674 54.9222C13.0343 54.9236 13.2011 54.9252 13.3731 54.9266C13.5524 54.9249 13.7318 54.9231 13.9166 54.9213C14.1015 54.9216 14.2864 54.9217 14.477 54.922C14.8678 54.9217 15.2587 54.9199 15.6496 54.9167C16.2484 54.9122 16.847 54.9134 17.4457 54.9155C17.8252 54.9145 18.2049 54.9131 18.5846 54.9116C18.764 54.912 18.9434 54.9125 19.1282 54.913C19.3784 54.91 19.3784 54.91 19.6338 54.9069C19.8537 54.9056 19.8537 54.9056 20.078 54.9044C20.5416 54.8325 20.7552 54.6942 21.0943 54.375C21.2643 54.0067 21.2643 54.0067 21.2505 53.5938C20.9973 53.0491 20.8187 52.837 20.313 52.5C19.9495 52.4516 19.9495 52.4516 19.5407 52.457C19.3838 52.4556 19.2268 52.4541 19.0651 52.4525C18.8957 52.4527 18.7262 52.4528 18.5516 52.453C18.3773 52.4524 18.2029 52.4517 18.0232 52.4509C17.6541 52.4502 17.2851 52.45 16.916 52.4506C16.3516 52.4513 15.7873 52.4475 15.2228 52.4436C14.8643 52.4431 14.5058 52.4431 14.1473 52.4433C13.9785 52.4419 13.8097 52.4403 13.6358 52.4389C12.5165 52.4292 12.5165 52.4292 11.5631 52.9688ZM11.5631 57.9688C11.3412 58.4127 11.3577 58.7274 11.4069 59.2188C11.6396 59.5803 11.6396 59.5803 12.0319 59.8438C12.4469 59.9047 12.7971 59.9278 13.2117 59.9222C13.3296 59.923 13.4476 59.9239 13.5691 59.9247C13.9585 59.9267 14.3476 59.9241 14.7369 59.9213C15.0078 59.9213 15.2786 59.9216 15.5495 59.922C16.117 59.9222 16.6843 59.9202 17.2518 59.9167C17.979 59.9122 18.706 59.9127 19.4332 59.9147C19.9924 59.9158 20.5516 59.9145 21.1109 59.9125C21.379 59.9119 21.6471 59.9119 21.9152 59.9124C22.2901 59.9128 22.6648 59.9103 23.0396 59.9069C23.1502 59.9077 23.261 59.9083 23.3751 59.9091C24.0102 59.8994 24.3932 59.8366 24.8443 59.375C25.0143 59.0067 25.0143 59.0067 25.0005 58.5938C24.7473 58.0491 24.5687 57.837 24.063 57.5C23.547 57.4511 23.547 57.4511 22.9465 57.457C22.8334 57.4563 22.7204 57.4555 22.6038 57.4547C22.2296 57.4525 21.8555 57.4527 21.4813 57.453C21.2212 57.4524 20.9609 57.4517 20.7007 57.4509C20.1551 57.4499 19.6095 57.4499 19.0638 57.4506C18.3652 57.4516 17.6666 57.4489 16.968 57.4453C16.4305 57.443 15.893 57.4428 15.3555 57.4434C15.098 57.4433 14.8404 57.4425 14.5829 57.4409C14.2223 57.4389 13.8619 57.44 13.5014 57.4419C13.2963 57.4417 13.0913 57.4416 12.88 57.4416C12.3106 57.5038 12.0152 57.6239 11.5631 57.9688Z" fill="#003C7C"/>
<path d="M56.8189 27.7558C57.6386 28.2294 58.1367 28.9575 58.6328 29.7448C58.6928 29.8398 58.7528 29.935 58.8147 30.0328C59.4909 31.1098 60.1367 32.2047 60.7812 33.3008C61.0398 33.7397 61.2989 34.1783 61.5583 34.6167C61.6233 34.7266 61.6883 34.8366 61.7552 34.9497C62.1984 35.6973 62.6491 36.4402 63.1048 37.1802C63.1655 37.2789 63.2261 37.3775 63.2886 37.4792C63.5747 37.9448 63.862 38.4097 64.1512 38.8734C65.8205 41.5856 65.8205 41.5856 65.625 43.125C65.2569 44.3161 64.6202 45.3383 63.5155 45.948C62.76 46.3173 62.0884 46.3394 61.2586 46.3333C61.1083 46.3347 60.958 46.3361 60.8031 46.3375C60.3092 46.3409 59.8156 46.34 59.3219 46.3384C58.9767 46.3394 58.6316 46.3403 58.2864 46.3414C57.5642 46.3431 56.842 46.3423 56.1197 46.34C55.1964 46.3373 54.2733 46.3411 53.35 46.3466C52.6375 46.35 51.925 46.3497 51.2127 46.3484C50.8723 46.3483 50.532 46.3494 50.1917 46.3517C49.7148 46.3544 49.2384 46.3522 48.7616 46.3486C48.6225 46.3505 48.4834 46.3523 48.3402 46.3542C47.2072 46.3372 46.3291 45.9738 45.4914 45.2016C44.7578 44.4283 44.3792 43.5384 44.2773 42.4805C44.363 40.7806 45.8116 38.9194 46.6797 37.5195C46.9133 37.1398 47.1462 36.7597 47.3792 36.3794C47.4392 36.2814 47.4994 36.1834 47.5612 36.0825C48.0211 35.3309 48.472 34.5747 48.9197 33.8159C48.9856 33.7042 49.0516 33.5927 49.1194 33.4777C49.3781 33.0391 49.6367 32.6005 49.8941 32.1613C53.2952 26.3567 53.2952 26.3567 56.8189 27.7558ZM53.75 30.7813C53.5514 31.0789 53.3637 31.3842 53.1861 31.695C53.1353 31.7825 53.0847 31.8702 53.0325 31.9605C52.9237 32.1489 52.8155 32.3377 52.7077 32.5269C52.4172 33.0359 52.1227 33.5427 51.8286 34.0497C51.7681 34.1541 51.7078 34.2586 51.6455 34.3661C51.0627 35.3714 50.4627 36.3658 49.8577 37.3577C49.6887 37.6347 49.5203 37.9119 49.352 38.1892C48.8922 38.9456 48.4309 39.7008 47.9584 40.4492C47.857 40.6119 47.857 40.6119 47.7536 40.7777C47.5858 41.0464 47.4158 41.3136 47.2455 41.5808C47.0031 42.0903 46.9658 42.4113 47.0312 42.9688C47.4039 43.4613 47.6864 43.6355 48.2812 43.75C48.7172 43.7664 49.1492 43.7745 49.5852 43.7752C49.7164 43.7759 49.8475 43.7767 49.9827 43.7775C50.4161 43.7798 50.8495 43.7809 51.283 43.7817C51.5845 43.7827 51.8863 43.7836 52.1878 43.7844C52.8202 43.7861 53.4525 43.787 54.0848 43.7875C54.8942 43.7884 55.7037 43.7922 56.5131 43.7966C57.1362 43.7995 57.7592 43.8003 58.3823 43.8006C58.6806 43.8011 58.9791 43.8023 59.2775 43.8044C59.6952 43.807 60.1128 43.8067 60.5306 43.8056C60.7147 43.8078 60.7147 43.8078 60.9027 43.81C61.6509 43.8044 62.1631 43.6934 62.8125 43.2813C63.0358 42.8347 63.0119 42.5286 62.9688 42.0313C62.7975 41.6623 62.6261 41.342 62.4127 40.9997C62.3541 40.902 62.2953 40.8042 62.2348 40.7034C62.042 40.3831 61.8463 40.0647 61.6503 39.7461C61.5152 39.5228 61.38 39.2994 61.2452 39.0759C60.968 38.6177 60.6897 38.16 60.4103 37.7031C60.0267 37.0756 59.6461 36.4464 59.2664 35.8167C58.6292 34.7609 57.9873 33.7081 57.3438 32.6563C57.2577 32.515 57.1714 32.3738 57.0827 32.2281C56.8614 31.8658 56.6389 31.5041 56.4159 31.1427C56.3234 30.9908 56.3234 30.9908 56.2289 30.8359C55.9322 30.333 55.9322 30.333 55.4688 30C54.5814 29.8817 54.3277 30.1314 53.75 30.7813Z" fill="#003C7C"/>
<path d="M55.3287 31.1884C55.787 31.2834 55.9844 31.5019 56.2509 31.875C56.4362 32.4309 56.4355 32.9398 56.4389 33.5187C56.4398 33.6337 56.4408 33.7487 56.4416 33.8672C56.4431 34.1106 56.4441 34.3541 56.4447 34.5973C56.4462 34.9678 56.4511 35.338 56.4561 35.7083C56.457 35.9453 56.4578 36.1822 56.4584 36.4191C56.4605 36.5289 56.4623 36.6389 56.4644 36.752C56.4611 37.4797 56.3241 37.9769 55.9384 38.5937C55.4495 38.8383 54.9055 38.8589 54.3759 38.75C54.0055 38.4912 53.783 38.2845 53.692 37.8311C53.6681 37.4589 53.6644 37.0917 53.668 36.7187C53.6673 36.5823 53.6667 36.4461 53.6661 36.3056C53.6658 36.0177 53.6669 35.7298 53.6695 35.4419C53.6728 35.0016 53.6695 34.5616 53.6655 34.1211C53.6659 33.8411 53.6667 33.5612 53.668 33.2812C53.6667 33.1497 53.6655 33.0183 53.6641 32.8827C53.6787 31.9708 53.6787 31.9708 54.0491 31.4798C54.503 31.1608 54.7897 31.1612 55.3287 31.1884Z" fill="#003C7C"/>
<path d="M10.7793 45C11.1886 45.2592 11.2398 45.4423 11.3848 45.9081C11.4087 46.5186 11.2574 46.8311 10.9355 47.3437C10.4327 47.5951 9.91687 47.5934 9.37305 47.5C8.85744 47.0747 8.76106 46.8247 8.67969 46.162C8.75045 45.6061 8.81797 45.3841 9.2168 45C9.80595 44.8036 10.1759 44.8706 10.7793 45Z" fill="#003C7C"/>
<path d="M10.7793 40C11.1886 40.2592 11.2398 40.4423 11.3848 40.9081C11.4087 41.5186 11.2574 41.8311 10.9355 42.3437C10.4327 42.5951 9.91687 42.5934 9.37305 42.5C8.85744 42.0747 8.76106 41.8247 8.67969 41.162C8.75045 40.6061 8.81797 40.3841 9.2168 40C9.80595 39.8036 10.1759 39.8706 10.7793 40Z" fill="#003C7C"/>
<path d="M10.7793 35C11.1886 35.2592 11.2398 35.4423 11.3848 35.9081C11.4087 36.5186 11.2574 36.8311 10.9355 37.3437C10.4327 37.5951 9.91687 37.5934 9.37305 37.5C8.85744 37.0747 8.76106 36.8247 8.67969 36.162C8.75045 35.6061 8.81797 35.3841 9.2168 35C9.80595 34.8036 10.1759 34.8706 10.7793 35Z" fill="#003C7C"/>
<path d="M55.6266 40C56.0172 40.2344 56.0172 40.2344 56.2516 40.625C56.3751 41.2533 56.3487 41.7131 56.0172 42.2656C55.4648 42.5972 55.0048 42.6236 54.3766 42.5C53.9859 42.2656 53.9859 42.2656 53.7516 41.875C53.628 41.2467 53.6545 40.7869 53.9859 40.2344C54.5384 39.9028 54.9983 39.8764 55.6266 40Z" fill="#003C7C"/>
</svg>
