<svg width="154" height="46" viewBox="0 0 154 46" fill="none" xmlns="http://www.w3.org/2000/svg">
<path d="M95.3014 35.8C86.5014 42.3 73.6013 45.7 62.6013 45.7C47.1013 45.7 33.2013 40 22.6013 30.6C21.8013 29.9 22.5013 28.8 23.5013 29.4C34.9013 36 49.0014 39.9 63.5014 39.9C73.3014 39.9 84.1014 37.9 94.0014 33.7C95.5014 33.1 96.8014 34.7 95.3014 35.8Z" fill="#45586B"/>
<path d="M99.0014 31.6C97.9014 30.2 91.5014 30.9 88.7014 31.3C87.8014 31.4 87.7014 30.7 88.5014 30.1C93.6014 26.6 101.901 27.6 102.801 28.8C103.801 30 102.501 38.2 97.8014 42.2C97.1014 42.8 96.4014 42.5 96.7014 41.7C97.7014 39 100.101 33.1 99.0014 31.6Z" fill="#45586B"/>
<path d="M88.9 5.19999V1.79999C88.9 1.29999 89.3 0.899994 89.8 0.899994H105.3C105.8 0.899994 106.2 1.29999 106.2 1.79999V4.69999C106.2 5.19999 105.8 5.79999 105 6.89999L97 18.3C100 18.2 103.1 18.7 105.8 20.2C106.4 20.5 106.6 21 106.6 21.5V25.2C106.6 25.7 106 26.3 105.5 26C100.7 23.5 94.4 23.3 89.1 26C88.6 26.3 88 25.7 88 25.2V21.7C88 21.1 88 20.2 88.6 19.3L97.9 6.09999H89.8C89.3 6.09999 88.9 5.69999 88.9 5.19999Z" fill="#45586B"/>
<path d="M32.4004 26.6H27.7004C27.2004 26.6 26.9004 26.2 26.9004 25.8V1.79999C26.9004 1.29999 27.3004 0.899994 27.8004 0.899994H32.2004C32.7004 0.899994 33.0004 1.29999 33.1004 1.69999V4.79999H33.0004C34.1004 1.79999 36.3004 0.399994 39.2004 0.399994C42.1004 0.399994 44.0004 1.79999 45.3004 4.79999C46.4004 1.79999 49.0004 0.399994 51.8004 0.399994C53.8004 0.399994 55.9004 1.19999 57.3004 2.99999C58.8004 4.99999 58.5004 7.89999 58.5004 10.5V25.6C58.5004 26.1 58.1004 26.5 57.6004 26.5H52.9004C52.4004 26.5 52.1004 26.1 52.1004 25.6V13C52.1004 12 52.2004 9.49999 52.0004 8.49999C51.6004 6.89999 50.6004 6.39999 49.2004 6.39999C48.1004 6.39999 46.9004 7.19999 46.4004 8.39999C45.9004 9.59999 46.0004 11.6 46.0004 13V25.7C46.0004 26.2 45.6004 26.6 45.1004 26.6H40.4004C39.9004 26.6 39.6004 26.2 39.6004 25.7V13C39.6004 10.3 40.0004 6.39999 36.7004 6.39999C33.3004 6.39999 33.4004 10.2 33.4004 13V25.7C33.3004 26.2 32.9004 26.6 32.4004 26.6Z" fill="#45586B"/>
<path d="M119.5 0.5C126.5 0.5 130.3 6.4 130.3 14C130.3 21.3 126.1 27.1 119.5 27.1C112.6 27.1 108.9 21.2 108.9 13.7C108.8 6.3 112.6 0.5 119.5 0.5ZM119.5 5.4C116 5.4 115.8 10.1 115.8 13C115.8 15.9 115.8 22.2 119.5 22.2C123.2 22.2 123.3 17.2 123.3 14.1C123.3 12.1 123.2 9.7 122.6 7.7C122 6 121 5.4 119.5 5.4Z" fill="#45586B"/>
<path d="M139.301 26.6H134.601C134.101 26.6 133.801 26.2 133.801 25.7V1.7C133.801 1.3 134.201 0.9 134.701 0.9H139.101C139.501 0.9 139.801 1.2 139.901 1.6V5.3H140.001C141.301 2 143.201 0.5 146.401 0.5C148.501 0.5 150.601 1.3 151.901 3.3C153.101 5.2 153.101 8.4 153.101 10.8V25.9C153.001 26.3 152.701 26.7 152.201 26.7H147.501C147.101 26.7 146.701 26.4 146.701 25.9V12.9C146.701 10.3 147.001 6.4 143.801 6.4C142.701 6.4 141.601 7.2 141.101 8.3C140.401 9.8 140.401 11.2 140.401 12.8V25.7C140.201 26.2 139.801 26.6 139.301 26.6Z" fill="#45586B"/>
<path d="M14.7008 15.1V14.1C11.3008 14.1 7.70078 14.8 7.70078 18.8C7.70078 20.8 8.80078 22.2 10.6008 22.2C11.9008 22.2 13.1008 21.4 13.9008 20.1C14.8008 18.5 14.7008 17 14.7008 15.1ZM19.5008 26.5C19.2008 26.8 18.7008 26.8 18.4008 26.6C16.8008 25.3 16.6008 24.7 15.7008 23.5C13.1008 26.1 11.3008 26.9 7.90078 26.9C3.90078 26.9 0.800781 24.5 0.800781 19.6C0.800781 15.8 2.90078 13.2 5.80078 12C8.40078 10.9 11.9008 10.7 14.7008 10.4V9.8C14.7008 8.7 14.8008 7.4 14.1008 6.4C13.5008 5.5 12.4008 5.2 11.5008 5.2C9.70078 5.2 8.10078 6.1 7.70078 8C7.60078 8.4 7.30078 8.8 6.90078 8.9L2.30078 8.4C1.90078 8.3 1.50078 8 1.60078 7.4C2.70078 1.9 7.70078 0.300003 12.1008 0.300003C14.4008 0.300003 17.4008 0.900003 19.2008 2.6C21.5008 4.7 21.3008 7.6 21.3008 10.6V17.9C21.3008 20.1 22.2008 21 23.1008 22.2C23.4008 22.6 23.5008 23.1 23.1008 23.4C22.1008 24.2 20.4008 25.7 19.5008 26.5Z" fill="#45586B"/>
<path d="M76.1016 15.1V14.1C72.7016 14.1 69.1016 14.8 69.1016 18.8C69.1016 20.8 70.2016 22.2 72.0016 22.2C73.3016 22.2 74.5016 21.4 75.3016 20.1C76.1016 18.5 76.1016 17 76.1016 15.1ZM80.8016 26.5C80.5016 26.8 80.0016 26.8 79.7016 26.6C78.1016 25.3 77.9016 24.7 77.0016 23.5C74.4016 26.1 72.6016 26.9 69.2016 26.9C65.2016 26.9 62.1016 24.5 62.1016 19.6C62.1016 15.8 64.2016 13.2 67.1016 12C69.7016 10.9 73.2016 10.7 76.0016 10.4V9.8C76.0016 8.7 76.1016 7.4 75.4016 6.4C74.8016 5.5 73.7016 5.2 72.8016 5.2C71.0016 5.2 69.4016 6.1 69.0016 8C68.9016 8.4 68.6016 8.8 68.2016 8.9L63.6016 8.4C63.2016 8.3 62.8016 8 62.9016 7.4C64.0016 1.9 69.0016 0.199997 73.5016 0.199997C75.8016 0.199997 78.8016 0.799997 80.6016 2.5C82.9016 4.6 82.7016 7.5 82.7016 10.5V17.8C82.7016 20 83.6016 20.9 84.5016 22.1C84.8016 22.5 84.9016 23 84.5016 23.3C83.5016 24.2 81.8016 25.7 80.8016 26.5Z" fill="#45586B"/>
</svg>
