<svg width="150" height="150" viewBox="0 0 150 150" fill="none" xmlns="http://www.w3.org/2000/svg">
<path d="M63.7213 13.9744C64.6785 14.7548 65.5944 15.573 66.5057 16.4063C66.8569 16.7213 66.8569 16.7213 67.2152 17.0426C70.5337 20.1728 72.8691 23.9861 74.7088 28.125C74.9207 28.5935 74.9207 28.5935 75.1368 29.0715C78.5985 37.3479 78.2987 47.1613 75.0933 55.4444C73.3605 59.6587 71.0369 63.1506 67.9705 66.5039C67.7606 66.7381 67.5506 66.9722 67.3342 67.2135C64.2026 70.5335 60.3904 72.8631 56.2518 74.7071C55.9429 74.8483 55.6339 74.9896 55.3157 75.1351C47.0622 78.618 37.1807 78.3057 28.9141 75.0916C24.7106 73.3548 21.22 71.0295 17.8729 67.9688C17.6387 67.7588 17.4046 67.5488 17.1633 67.3325C13.8449 64.2023 11.5095 60.389 9.66976 56.25C9.52851 55.9377 9.38727 55.6254 9.24175 55.3036C5.78012 47.0272 6.07988 37.2137 9.28523 28.9307C11.0181 24.7163 13.3416 21.2244 16.408 17.8711C16.618 17.637 16.828 17.4028 17.0443 17.1616C20.176 13.8415 23.9882 11.512 28.1268 9.66801C28.4357 9.52677 28.7446 9.38552 29.0629 9.24C40.1926 4.54335 54.2532 6.51188 63.7213 13.9744Z" fill="#F6C845"/>
<path d="M49.6818 37.3182L48.8864 40.125H33.9886L34.7841 37.3182H49.6818ZM42.4318 55L34.2955 45.125L34.2727 42.9091H38.3068C39.3144 42.9091 40.1667 42.7538 40.8636 42.4432C41.5606 42.1326 42.0909 41.6818 42.4545 41.0909C42.8182 40.4924 43 39.7652 43 38.9091C43 37.6364 42.6212 36.625 41.8636 35.875C41.1061 35.125 39.9205 34.75 38.3068 34.75H33.9886L34.8182 31.7273H38.3068C40.1856 31.7273 41.7348 32.0265 42.9545 32.625C44.1742 33.2235 45.0833 34.053 45.6818 35.1136C46.2803 36.1742 46.5795 37.3977 46.5795 38.7841C46.5795 40.0189 46.3333 41.1364 45.8409 42.1364C45.3485 43.1364 44.5644 43.9508 43.4886 44.5795C42.4129 45.2083 41 45.5758 39.25 45.6818L39.1477 45.7045L46.5795 54.8068V55H42.4318ZM49.6932 31.7273L48.8864 34.5568L36.9773 34.4886L37.7841 31.7273H49.6932Z" fill="black"/>
<path d="M85.1714 72.5779C85.3723 72.5766 85.5732 72.5752 85.7802 72.5739C86.455 72.5702 87.1296 72.5706 87.8044 72.5711C88.2875 72.5694 88.7707 72.5674 89.2538 72.5652C90.5673 72.56 91.8808 72.5586 93.1943 72.5582C94.2901 72.5577 95.3858 72.5555 96.4816 72.5535C99.0662 72.5487 101.651 72.5473 104.236 72.5477C106.904 72.548 109.572 72.5418 112.24 72.5326C114.529 72.5249 116.819 72.5218 119.108 72.5222C120.476 72.5223 121.844 72.5206 123.212 72.5144C124.498 72.5088 125.784 72.5087 127.07 72.513C127.543 72.5136 128.015 72.5122 128.488 72.5087C129.132 72.5042 129.776 72.5069 130.42 72.5114C130.781 72.5111 131.142 72.5107 131.513 72.5104C132.605 72.6853 132.927 72.9657 133.596 73.8281C133.975 74.5192 134.317 75.1953 134.645 75.9098C134.791 76.2194 134.791 76.2194 134.939 76.5352C135.257 77.2124 135.571 77.8914 135.885 78.5706C136.104 79.0422 136.323 79.5138 136.543 79.9853C136.996 80.9599 137.448 81.9353 137.898 82.9112C138.447 84.099 139.003 85.2833 139.562 86.4663C139.975 87.3416 140.384 88.2186 140.793 89.0961C140.986 89.51 141.181 89.9232 141.377 90.3357C141.65 90.9119 141.918 91.4905 142.184 92.07C142.337 92.3956 142.489 92.7213 142.646 93.0568C143.089 94.4019 143.263 95.673 142.708 97.0263C142.585 97.1891 142.462 97.3519 142.336 97.5197C142.197 97.7096 142.058 97.8996 141.914 98.0952C141.762 98.2928 141.609 98.4903 141.451 98.6938C141.293 98.9074 141.135 99.121 140.972 99.3411C140.638 99.7921 140.302 100.242 139.964 100.69C139.31 101.561 138.674 102.445 138.039 103.331C137.564 103.992 137.087 104.652 136.609 105.312C135.652 106.633 134.697 107.955 133.742 109.277C133.425 109.717 133.107 110.156 132.79 110.596C132.633 110.813 132.476 111.031 132.314 111.255C119.46 129.053 119.46 129.053 118.984 129.712C118.667 130.151 118.35 130.589 118.034 131.028C117.23 132.141 116.425 133.254 115.62 134.367C115.459 134.591 115.297 134.815 115.13 135.046C114.809 135.49 114.488 135.933 114.166 136.376C113.419 137.408 112.679 138.444 111.956 139.493C111.825 139.682 111.694 139.87 111.559 140.065C111.318 140.413 111.078 140.764 110.842 141.116C110.147 142.115 109.508 142.746 108.4 143.262C107.251 143.262 106.79 143.104 105.939 142.323C103.579 139.783 101.636 136.854 99.6502 134.019C98.7271 132.703 97.7889 131.399 96.8464 130.096C96.6883 129.878 96.5301 129.659 96.3671 129.434C96.0464 128.991 95.7255 128.548 95.4046 128.105C94.6084 127.006 93.8141 125.905 93.0195 124.805C92.7022 124.365 92.3848 123.926 92.0674 123.486C88.8935 119.092 85.7197 114.697 82.5459 110.303C82.3887 110.085 82.2315 109.867 82.0696 109.643C81.7529 109.205 81.4363 108.766 81.1196 108.328C80.3155 107.214 79.5112 106.101 78.7064 104.988C77.1999 102.904 75.6945 100.82 74.1963 98.7305C74.0737 98.56 73.951 98.3896 73.8247 98.214C72.7975 96.7783 72.4529 95.8235 72.6582 94.043C72.9331 93.1516 73.323 92.3327 73.7317 91.4955C73.8442 91.2557 73.9568 91.0159 74.0727 90.7689C74.4393 89.9905 74.812 89.2152 75.1851 88.4399C75.4395 87.9034 75.6936 87.3666 75.9472 86.8297C76.4589 85.7476 76.9727 84.6665 77.4879 83.5861C78.1635 82.1652 78.8234 80.7377 79.4766 79.3064C79.6644 78.8965 79.8522 78.4867 80.0401 78.0769C80.3026 77.5041 80.5645 76.9311 80.8244 76.357C81.0602 75.8369 81.2994 75.3183 81.5388 74.7997C81.6706 74.511 81.8024 74.2223 81.9382 73.9249C82.7388 72.516 83.6838 72.5819 85.1714 72.5779Z" fill="#2B5582"/>
<path d="M10.6847 86.5671C10.9344 86.5651 11.1842 86.563 11.4415 86.5609C12.2666 86.5557 13.0914 86.5592 13.9165 86.5631C14.4901 86.5623 15.0636 86.5612 15.6371 86.5597C16.839 86.558 18.0407 86.5605 19.2426 86.566C20.7835 86.5727 22.3241 86.5688 23.865 86.5618C25.0492 86.5576 26.2335 86.5589 27.4178 86.5619C27.9859 86.5627 28.5541 86.5618 29.1222 86.559C29.9162 86.5561 30.7098 86.5606 31.5038 86.5671C31.7388 86.5648 31.9738 86.5624 32.216 86.5599C33.2708 86.576 33.8657 86.6277 34.7161 87.2776C35.1935 87.9418 35.3159 88.2538 35.3032 89.0625C35.3078 89.3525 35.3078 89.3525 35.3124 89.6484C35.0741 90.5457 34.7415 90.8685 33.9849 91.4063C33.1369 91.4914 32.4088 91.5181 31.5679 91.4795C31.2405 91.4716 31.2405 91.4716 30.9064 91.4635C30.3699 91.4497 29.8336 91.4287 29.2974 91.4063C34.1759 102.742 42.6281 111.353 54.0292 116.106C55.9871 116.868 58.0316 117.399 60.0637 117.925C60.3541 118.003 60.6445 118.081 60.9437 118.161C61.2039 118.228 61.464 118.295 61.732 118.364C62.5806 118.729 62.8179 119.025 63.2817 119.824C63.3953 120.769 63.3953 120.769 63.4001 121.902C63.4021 122.109 63.4041 122.316 63.4062 122.529C63.4116 123.211 63.4104 123.893 63.4088 124.576C63.4101 125.051 63.4117 125.526 63.4134 126.001C63.416 126.996 63.4153 127.991 63.4124 128.986C63.4091 130.261 63.415 131.535 63.4235 132.81C63.4289 133.791 63.4288 134.771 63.4272 135.752C63.4271 136.222 63.4289 136.692 63.4325 137.162C63.4369 137.819 63.4338 138.476 63.4287 139.133C63.4287 139.507 63.4286 139.881 63.4286 140.266C63.2568 141.372 62.9929 141.718 62.1099 142.383C60.1716 142.785 58.0216 142.242 56.1223 141.815C55.8341 141.751 55.5459 141.686 55.249 141.62C47.1444 139.719 39.4039 136.54 32.52 131.836C32.3464 131.719 32.1727 131.602 31.9937 131.482C23.7687 125.919 17.3793 118.73 12.0122 110.449C12.0047 110.668 11.9971 110.887 11.9893 111.113C11.8554 113.438 11.8554 113.438 11.2615 114.459C10.2644 114.996 9.30777 115.137 8.20362 114.844C7.59054 114.403 7.59054 114.403 7.03175 113.672C6.91615 112.808 6.8714 112.054 6.88011 111.191C6.87806 110.941 6.87601 110.691 6.87389 110.434C6.86873 109.609 6.87215 108.784 6.87611 107.959C6.87532 107.385 6.87418 106.812 6.87271 106.238C6.87098 105.037 6.87349 103.835 6.87897 102.633C6.88565 101.092 6.8818 99.5514 6.87478 98.0105C6.87055 96.8263 6.87189 95.642 6.87493 94.4578C6.87571 93.8896 6.87475 93.3214 6.87203 92.7533C6.86905 91.9593 6.87358 91.1657 6.88011 90.3717C6.87774 90.1367 6.87537 89.9017 6.87292 89.6595C6.88782 88.6818 6.96366 88.0037 7.47209 87.1591C8.51933 86.5287 9.49777 86.5551 10.6847 86.5671Z" fill="#2B5582"/>
<path d="M91.5628 7.71655C92.341 7.85139 93.1086 8.01161 93.8792 8.18476C94.3115 8.28159 94.3115 8.28159 94.7525 8.38038C102.857 10.2805 110.598 13.4595 117.482 18.164C117.655 18.2809 117.829 18.3978 118.008 18.5182C126.075 23.9736 132.979 31.1998 137.989 39.5507C137.997 39.3317 138.004 39.1126 138.012 38.887C138.146 36.5623 138.146 36.5623 138.74 35.5407C139.737 35.0038 140.694 34.8629 141.798 35.1562C142.411 35.5968 142.411 35.5968 142.97 36.3281C143.085 37.1917 143.13 37.9458 143.121 38.8092C143.123 39.0589 143.126 39.3086 143.128 39.566C143.133 40.3911 143.129 41.2159 143.125 42.041C143.126 42.6145 143.127 43.188 143.129 43.7616C143.131 44.9634 143.128 46.1652 143.123 47.367C143.116 48.9079 143.12 50.4486 143.127 51.9894C143.131 53.1737 143.13 54.3579 143.127 55.5422C143.126 56.1104 143.127 56.6785 143.13 57.2467C143.132 58.0407 143.128 58.8343 143.121 59.6282C143.124 59.8633 143.126 60.0983 143.129 60.3404C143.114 61.3181 143.038 61.9962 142.529 62.8409C141.482 63.4712 140.504 63.4448 139.317 63.4328C138.942 63.4359 138.942 63.4359 138.56 63.4391C137.735 63.4442 136.91 63.4408 136.085 63.4368C135.511 63.4376 134.938 63.4388 134.364 63.4402C133.163 63.442 131.961 63.4395 130.759 63.434C129.218 63.4273 127.677 63.4311 126.137 63.4382C124.952 63.4424 123.768 63.4411 122.584 63.438C122.016 63.4372 121.447 63.4382 120.879 63.4409C120.085 63.4439 119.292 63.4394 118.498 63.4328C118.263 63.4352 118.028 63.4376 117.786 63.44C116.731 63.4239 116.136 63.3722 115.285 62.7224C114.808 62.0581 114.686 61.7461 114.698 60.9374C114.694 60.6474 114.694 60.6474 114.689 60.3515C114.927 59.4542 115.26 59.1314 116.017 58.5937C116.865 58.5086 117.593 58.4818 118.434 58.5205C118.652 58.5257 118.87 58.531 119.095 58.5365C119.632 58.5502 120.168 58.5713 120.704 58.5937C118.225 53.1003 115.194 48.3514 111.036 43.9453C110.74 43.6212 110.74 43.6212 110.439 43.2907C107.445 40.1291 103.741 37.7506 99.9034 35.7421C99.5642 35.5646 99.2251 35.3871 98.8757 35.2043C96.3408 33.9297 93.7327 33.0983 91.0056 32.3318C87.4816 31.3184 87.4816 31.3184 86.7198 30.1757C86.6414 29.266 86.6414 29.266 86.6347 28.1313C86.6327 27.9245 86.6307 27.7176 86.6287 27.5045C86.6231 26.8206 86.622 26.1367 86.6214 25.4528C86.6195 24.9773 86.6175 24.5019 86.6155 24.0265C86.6119 23.0298 86.6109 22.0331 86.6112 21.0364C86.6113 19.7592 86.6033 18.4823 86.5932 17.2052C86.5867 16.2232 86.5855 15.2413 86.5858 14.2593C86.5851 13.7885 86.5825 13.3176 86.578 12.8468C86.5722 12.1882 86.5739 11.53 86.5774 10.8713C86.5762 10.3093 86.5762 10.3093 86.5749 9.73594C86.9974 6.97416 89.4021 7.42683 91.5628 7.71655Z" fill="#2B5582"/>
<path d="M63.7213 13.9744C64.6785 14.7548 65.5944 15.573 66.5057 16.4063C66.8569 16.7213 66.8569 16.7213 67.2152 17.0426C70.5337 20.1728 72.8691 23.9861 74.7088 28.125C74.9207 28.5935 74.9207 28.5935 75.1368 29.0715C78.5985 37.3479 78.2987 47.1613 75.0933 55.4444C73.3605 59.6587 71.0369 63.1506 67.9705 66.5039C67.7606 66.7381 67.5506 66.9722 67.3342 67.2135C64.2026 70.5335 60.3904 72.8631 56.2518 74.7071C55.9429 74.8483 55.6339 74.9896 55.3157 75.1351C47.0622 78.618 37.1807 78.3057 28.9141 75.0916C24.7106 73.3548 21.22 71.0295 17.8729 67.9688C17.6387 67.7588 17.4046 67.5488 17.1633 67.3325C13.8449 64.2023 11.5095 60.389 9.66976 56.25C9.52851 55.9377 9.38727 55.6254 9.24175 55.3036C5.78012 47.0272 6.07988 37.2137 9.28523 28.9307C11.0181 24.7163 13.3416 21.2244 16.408 17.8711C16.618 17.637 16.828 17.4028 17.0443 17.1616C20.176 13.8415 23.9882 11.512 28.1268 9.66801C28.4357 9.52677 28.7446 9.38552 29.0629 9.24C40.1926 4.54335 54.2532 6.51188 63.7213 13.9744ZM18.8725 22.382C15.8928 25.7645 13.8043 29.9545 12.5994 34.2774C12.5118 34.5791 12.4242 34.8809 12.3339 35.1918C10.3337 43.0539 12.2352 51.3478 16.1151 58.3008C16.9652 59.6755 17.9624 60.91 19.0448 62.1094C19.1898 62.2702 19.3349 62.431 19.4844 62.5966C23.5474 67.0183 28.4708 70.1544 34.2791 71.7774C34.5741 71.865 34.869 71.9526 35.1729 72.0429C39.9312 73.2738 45.0724 72.9581 49.8065 71.7774C50.058 71.7207 50.3095 71.6641 50.5687 71.6057C57.2674 69.8806 63.7408 65.1699 67.5071 59.3823C72.0449 51.6623 74.0897 43.2404 71.8373 34.3763C71.2559 32.2643 70.4715 30.3521 69.4354 28.418C69.2326 28.0056 69.2326 28.0056 69.0257 27.5849C65.5811 20.8099 59.0745 15.7885 52.0541 13.1264C50.36 12.6162 48.6176 12.3154 46.8768 12.0118C46.4735 11.9302 46.4735 11.9302 46.062 11.847C35.5143 10.4133 25.9972 14.6902 18.8725 22.382Z" fill="#2B5582"/>
<path d="M91.4062 12.8906C94.0483 13.2209 94.0483 13.2209 95.1599 13.5349C95.4058 13.6042 95.6517 13.6734 95.9051 13.7447C96.1607 13.8194 96.4163 13.894 96.6797 13.9709C96.95 14.0496 97.2204 14.1282 97.4989 14.2092C105.425 16.556 112.85 20.2034 119.238 25.4883C119.406 25.6261 119.573 25.764 119.746 25.906C123.239 28.7946 126.408 31.8618 129.199 35.4492C129.413 35.7196 129.626 35.99 129.846 36.2686C132.682 39.944 135.071 43.9295 137.13 48.0881C137.377 48.5821 137.644 49.066 137.913 49.5483C138.594 51.1767 138.371 53.0388 138.336 54.7668C138.318 56.0297 138.3 57.2926 138.281 58.5938C134.221 58.5938 130.16 58.5938 125.977 58.5938C125.406 57.2886 125.406 57.2886 124.823 55.957C119.314 43.6464 110.037 34.1971 97.3675 29.2843C95.3954 28.5626 93.3985 27.9102 91.4062 27.2461C91.4062 22.5088 91.4062 17.7715 91.4062 12.8906Z" fill="#B3E7F2"/>
<path d="M11.7187 91.4062C15.7793 91.4062 19.8398 91.4062 24.0234 91.4062C24.7485 93.0015 24.7485 93.0015 25.4883 94.6289C30.9946 106.106 39.2631 115.155 51.1413 120.209C51.3482 120.297 51.555 120.385 51.7681 120.476C54.0075 121.39 56.2643 122.026 58.5937 122.754C58.5937 127.491 58.5937 132.229 58.5937 137.109C48.3196 135.825 38.3469 130.819 30.4687 124.219C30.295 124.075 30.1213 123.931 29.9423 123.782C26.5596 120.973 23.5303 118.011 20.8008 114.551C20.5791 114.286 20.3574 114.021 20.129 113.747C17.8092 110.894 15.9946 107.743 14.222 104.528C13.9489 104.035 13.6717 103.544 13.3869 103.057C11.1908 99.2909 11.5627 95.687 11.7187 91.4062Z" fill="#A9CE36"/>
<path d="M40.86 16.3605C48.2084 16.1398 54.9216 18.6052 60.2932 23.6464C65.0829 28.3392 67.911 34.6805 68.0533 41.3875C68.1088 48.7867 65.506 55.3458 60.3241 60.6972C55.201 65.7774 48.3655 68.0621 41.2713 68.081C34.908 67.9812 29.378 65.3054 24.6083 61.2305C24.4108 61.0628 24.2132 60.8952 24.0097 60.7224C19.5191 56.5709 16.6329 49.9597 16.2541 43.9076C16.1201 39.6368 16.5051 35.3804 18.7489 31.6407C19.3348 31.0547 19.3348 31.0547 20.3053 30.9266C21.3856 31.0547 21.3856 31.0547 22.2645 31.6407C22.9027 32.598 22.9631 33.0282 22.752 34.1435C22.6087 34.674 22.4454 35.1992 22.2714 35.7205C20.5276 41.0584 21.0609 46.6372 23.5096 51.6724C26.2158 56.7342 30.5661 60.5123 36.0524 62.2376C36.6295 62.3999 37.2093 62.5535 37.7919 62.6954C38.0215 62.7516 38.2511 62.8079 38.4877 62.8659C44.019 63.7466 49.9603 62.3118 54.5803 59.2003C59.1984 55.6531 62.2017 50.6125 62.9872 44.8243C63.4467 39.1379 62.378 33.6931 58.6956 29.1905C55.0566 24.9869 50.1412 21.8919 44.5127 21.3261C41.5008 21.1305 37.6122 21.1837 34.8622 22.5587C32.7863 22.7261 32.7863 22.7261 31.786 22.1009C31.1626 21.0879 31.1416 20.5042 31.3466 19.336C32.9273 17.2762 36.2049 16.8738 38.6525 16.4796C39.3874 16.4161 40.123 16.3937 40.86 16.3605Z" fill="#8F5F00"/>
<path d="M96.9727 97.5586C104.127 97.5586 111.281 97.5586 118.652 97.5586C118.256 99.1424 117.84 100.689 117.345 102.24C117.278 102.456 117.21 102.671 117.14 102.893C116.924 103.575 116.708 104.256 116.492 104.938C116.208 105.833 115.925 106.728 115.643 107.624C115.573 107.842 115.504 108.061 115.433 108.286C114.933 109.869 114.442 111.454 113.956 113.041C113.651 114.032 113.342 115.021 113.032 116.01C111.997 119.318 110.965 122.623 110.063 125.97C109.497 128.053 108.812 130.09 108.105 132.129C107.912 132.129 107.719 132.129 107.52 132.129C106.697 129.76 105.942 127.384 105.267 124.969C104.236 121.294 103.082 117.658 101.936 114.018C101.501 112.637 101.071 111.255 100.644 109.871C100.557 109.59 100.557 109.59 100.469 109.304C100.298 108.752 100.128 108.2 99.9573 107.648C99.1814 105.136 98.3904 102.632 97.522 100.151C97.2656 99.3164 97.2656 99.3164 96.9727 97.5586Z" fill="#F0F1F1"/>
<path d="M99.6094 77.3438C105.023 77.3438 110.437 77.3438 116.016 77.3438C117.033 81.4114 117.033 81.4114 117.429 83.3839C117.473 83.6024 117.518 83.8208 117.563 84.0459C117.655 84.5002 117.746 84.9545 117.837 85.409C117.976 86.1015 118.118 86.7935 118.259 87.4855C118.349 87.931 118.438 88.3766 118.528 88.8222C118.57 89.0264 118.612 89.2306 118.655 89.4409C118.891 90.6367 118.945 91.6286 118.945 92.8711C111.598 92.8711 104.25 92.8711 96.6797 92.8711C97.0283 90.6052 97.3786 88.3687 97.8355 86.1271C97.881 85.9006 97.9265 85.674 97.9734 85.4406C98.1393 84.6153 98.3068 83.7902 98.4741 82.9651C98.8488 81.11 99.2234 79.255 99.6094 77.3438Z" fill="#EFF0F0"/>
<path d="M79.6875 97.5586C83.748 97.5586 87.8086 97.5586 91.9922 97.5586C93.3073 100.846 93.3073 100.846 93.7408 102.31C93.8859 102.793 93.8859 102.793 94.0338 103.286C94.1335 103.62 94.2332 103.953 94.3359 104.297C94.5518 104.996 94.7685 105.695 94.986 106.393C95.0959 106.747 95.2058 107.101 95.319 107.466C95.4296 107.822 95.5403 108.178 95.6543 108.545C96.2842 110.572 96.9138 112.6 97.5346 114.63C98.0032 116.156 98.4867 117.676 98.9742 119.196C99.1916 119.876 99.4088 120.557 99.6259 121.238C99.7755 121.705 99.9258 122.172 100.077 122.64C100.297 123.322 100.515 124.005 100.732 124.689C100.8 124.898 100.869 125.108 100.939 125.323C101.401 126.789 101.401 126.789 101.074 127.441C88.6963 110.303 88.6963 110.303 88.2199 109.643C87.9037 109.205 87.5875 108.767 87.2713 108.33C86.4594 107.206 85.6477 106.082 84.8362 104.957C84.6712 104.729 84.5063 104.5 84.3363 104.265C84.0124 103.816 83.6886 103.367 83.3648 102.919C82.6701 101.956 81.9741 100.994 81.2714 100.037C81.0569 99.7451 80.8423 99.4528 80.6213 99.1516C80.4382 98.9035 80.255 98.6554 80.0663 98.3997C79.6875 97.8516 79.6875 97.8516 79.6875 97.5586Z" fill="#EDEEEE"/>
<path d="M124.796 97.5254C125.315 97.5254 125.834 97.5271 126.353 97.53C126.626 97.5305 126.898 97.5309 127.179 97.5313C128.054 97.5329 128.929 97.5366 129.803 97.5403C130.395 97.5418 130.986 97.5431 131.578 97.5443C133.031 97.5476 134.484 97.5526 135.938 97.5587C134.768 99.437 133.573 101.264 132.22 103.015C130.992 104.63 129.796 106.261 128.632 107.922C126.952 110.317 125.244 112.69 123.528 115.059C122.89 115.939 122.254 116.821 121.617 117.702C121.303 118.138 120.988 118.574 120.672 119.01C119.843 120.157 119.016 121.306 118.193 122.459C118.022 122.698 117.851 122.938 117.674 123.184C117.346 123.642 117.019 124.101 116.693 124.56C116.545 124.767 116.396 124.974 116.243 125.187C116.05 125.459 116.05 125.459 115.852 125.736C115.363 126.354 114.823 126.894 114.258 127.441C114.927 124.89 115.698 122.375 116.492 119.861C116.753 119.029 117.014 118.197 117.276 117.365C117.342 117.155 117.407 116.945 117.475 116.729C117.918 115.32 118.357 113.909 118.793 112.497C118.879 112.217 118.879 112.217 118.968 111.932C119.024 111.748 119.081 111.564 119.14 111.375C120.015 108.54 120.902 105.713 121.858 102.904C122.319 101.489 122.715 100.058 123.106 98.623C123.471 97.4184 123.437 97.5643 124.796 97.5254Z" fill="#EDEEEE"/>
<path d="M120.703 77.3438C123.7 77.3438 126.697 77.3438 129.785 77.3438C131.33 80.41 132.843 83.4874 134.308 86.5924C134.626 87.2633 134.945 87.9332 135.265 88.603C135.468 89.0327 135.671 89.4624 135.873 89.8922C135.969 90.0908 136.064 90.2895 136.162 90.4941C136.559 91.3424 136.816 91.9222 136.816 92.8711C132.466 92.8711 128.115 92.8711 123.633 92.8711C122.666 87.7471 121.699 82.623 120.703 77.3438Z" fill="#EFF0F0"/>
<path d="M85.8398 77.3438C88.8369 77.3438 91.834 77.3438 94.9219 77.3438C93.9676 82.5241 92.9922 87.6994 91.9922 92.8711C87.6416 92.8711 83.291 92.8711 78.8086 92.8711C79.7974 89.9047 79.7974 89.9047 80.289 88.8779C80.3984 88.6473 80.5079 88.4166 80.6207 88.179C80.7938 87.8204 80.7938 87.8204 80.9704 87.4546C81.0913 87.201 81.2122 86.9474 81.3368 86.6861C81.7194 85.8845 82.1042 85.084 82.489 84.2834C82.7484 83.7409 83.0076 83.1982 83.2666 82.6555C85.0514 78.9207 85.0514 78.9207 85.8398 77.3438Z" fill="#EFF0F0"/>
<path d="M26.6606 23.4375C27.393 23.8953 27.393 23.8953 27.8324 24.6094C27.9973 25.7637 28.0094 26.3842 27.3747 27.3743C26.3845 28.009 25.7641 27.997 24.6098 27.8321C23.8957 27.3926 23.8957 27.3926 23.4379 26.6602C23.2555 25.6298 23.2525 24.6872 23.7309 23.7305C24.6876 23.2521 25.6302 23.2551 26.6606 23.4375Z" fill="#8F5F00"/>
</svg>
