<svg width="80" height="80" viewBox="0 0 80 80" fill="none" xmlns="http://www.w3.org/2000/svg">
<g clip-path="url(#clip0_7017_5633)">
<path d="M32.0052 -0.0947266C32.682 0.0347835 33.1307 0.343219 33.691 0.7323C33.9286 0.891663 34.1663 1.05096 34.4039 1.21021C34.5274 1.29397 34.6509 1.37773 34.7781 1.46404C35.3998 1.88297 36.0302 2.28822 36.6598 2.69519C36.9239 2.8668 37.188 3.03852 37.452 3.21033C37.5868 3.29804 37.7216 3.38576 37.8605 3.47614C38.4477 3.85852 39.0347 4.24122 39.6214 4.62444C39.9259 4.82279 40.2308 5.02039 40.5362 5.21724C41.259 5.68419 41.9706 6.15796 42.665 6.66614C44.3401 7.86947 45.7763 8.39583 47.8066 8.73096C49.2654 8.97752 50.6436 9.49843 52.0309 9.99988C52.1008 9.92522 52.1708 9.85055 52.2428 9.77363C52.5894 9.44638 52.8064 9.40436 53.2809 9.37488C56.66 10.3627 59.7439 12.8665 62.3434 15.1561C62.4218 15.2247 62.5002 15.2932 62.581 15.3639C63.512 16.1802 64.3658 17.0164 65.1559 17.9686C65.2707 18.0991 65.3855 18.2297 65.5038 18.3641C68.5171 21.8462 71.092 26.2471 72.0309 30.7811C72.1633 30.7785 72.1633 30.7785 72.2985 30.7759C73.2186 30.7586 74.1386 30.7468 75.0588 30.7382C75.4021 30.7343 75.7454 30.729 76.0886 30.7222C76.5824 30.7127 77.076 30.7083 77.5698 30.7048C77.7996 30.6988 77.7996 30.6988 78.034 30.6926C78.7671 30.6923 79.1057 30.6962 79.7062 31.1487C79.9996 31.5624 79.9996 31.5624 80.093 32.0073C79.969 32.6614 79.6597 33.1252 79.2867 33.662C79.1282 33.8984 78.9697 34.1348 78.8113 34.3712C78.7256 34.4976 78.6399 34.6239 78.5517 34.7541C78.0685 35.4715 77.5998 36.1984 77.1285 36.9237C76.9278 37.2314 76.727 37.539 76.5261 37.8466C76.1505 38.4222 75.7757 38.9983 75.4019 39.5751C75.2745 39.7712 75.2745 39.7712 75.1446 39.9713C74.9765 40.2309 74.8093 40.4911 74.6429 40.7518C74.2493 41.3648 73.848 41.9597 73.4011 42.5353C72.082 44.2743 71.6347 45.9824 71.1862 48.1035C70.9727 49.1059 70.6893 50.0619 70.3414 51.0253C70.296 51.1515 70.2507 51.2778 70.2039 51.4079C70.0057 51.9455 69.793 52.4585 69.5309 52.9686C69.6082 53.046 69.6856 53.1233 69.7653 53.203C70.0908 53.7455 70.0858 54.2328 69.9996 54.8436C69.8286 55.3144 69.5908 55.732 69.3356 56.162C69.2658 56.2831 69.196 56.4042 69.124 56.5289C67.8966 58.6179 66.4536 60.5368 64.8434 62.3436C64.7702 62.4264 64.6971 62.5092 64.6217 62.5946C63.7599 63.567 62.8839 64.4903 61.8746 65.3124C61.71 65.4513 61.5454 65.5903 61.3809 65.7292C59.8658 66.9914 58.2571 68.0573 56.5621 69.0624C56.4124 69.1518 56.4124 69.1518 56.2597 69.243C55.0114 69.9779 53.7089 70.5412 52.3629 71.0741C52.2124 71.1338 52.0619 71.1934 51.9068 71.2549C51.7613 71.3108 51.6157 71.3668 51.4657 71.4244C51.2733 71.4984 51.2733 71.4984 51.077 71.5739C50.4663 71.7693 49.8456 71.9002 49.2184 72.0311C49.2201 72.1194 49.2219 72.2077 49.2236 72.2987C49.2409 73.2188 49.2527 74.1388 49.2613 75.059C49.2652 75.4023 49.2706 75.7456 49.2773 76.0889C49.2868 76.5826 49.2912 77.0762 49.2947 77.5701C49.2987 77.7233 49.3027 77.8764 49.3069 78.0343C49.3072 78.7674 49.3033 79.1059 48.8508 79.7065C48.4371 79.9999 48.4371 79.9999 47.9922 80.0933C47.3382 79.9693 46.8744 79.66 46.3375 79.287C46.1005 79.128 45.8635 78.9691 45.6265 78.8103C45.5001 78.7246 45.3736 78.6388 45.2434 78.5505C44.5364 78.0744 43.82 77.6126 43.1051 77.1483C42.7982 76.9482 42.4914 76.748 42.1847 76.5477C42.0307 76.4472 41.8767 76.3467 41.7181 76.2432C41.4058 76.0393 41.0935 75.8354 40.7812 75.6316C40.6272 75.5311 40.4732 75.4306 40.3146 75.327C40.162 75.2273 40.0094 75.1276 39.8522 75.0249C39.5482 74.8268 39.2437 74.6293 38.9389 74.4325C38.2653 73.9969 37.5989 73.5578 36.9497 73.0864C35.7052 72.1971 34.6672 71.718 33.1516 71.4836C31.9366 71.2903 30.8019 70.9324 29.6383 70.537C29.4585 70.4762 29.2786 70.4155 29.0933 70.3529C28.234 70.0577 27.3903 69.7489 26.5621 69.3749C26.5621 69.478 26.5621 69.5811 26.5621 69.6874C26.0835 70.0128 25.7251 70.0233 25.1615 69.9311C24.5286 69.7571 23.986 69.4086 23.4274 69.0721C23.297 68.9949 23.1667 68.9177 23.0324 68.8381C21.0955 67.6748 19.3522 66.3314 17.6559 64.8436C17.5121 64.7192 17.3683 64.5947 17.2201 64.4664C16.41 63.7543 15.6912 63.0133 14.9996 62.1874C14.8731 62.0452 14.7467 61.903 14.6163 61.7565C13.4005 60.3799 12.3836 58.8964 11.4059 57.3436C11.3461 57.2492 11.2862 57.1548 11.2246 57.0575C9.95674 55.0306 7.96838 51.6747 7.96838 49.2186C7.88007 49.2204 7.79176 49.2221 7.70078 49.2239C6.7807 49.2412 5.86067 49.253 4.94047 49.2615C4.59718 49.2655 4.2539 49.2708 3.91065 49.2776C3.41688 49.2871 2.92329 49.2915 2.42944 49.2949C2.27626 49.299 2.12307 49.303 1.96524 49.3071C1.23216 49.3074 0.893582 49.3035 0.29306 48.851C-0.000366211 48.4374 -0.000366211 48.4374 -0.09375 47.9924C0.0302488 47.3384 0.339534 46.8746 0.712524 46.3378C0.871486 46.1008 1.03038 45.8638 1.18921 45.6267C1.27494 45.5003 1.36066 45.3739 1.44899 45.2436C1.92515 44.5366 2.38694 43.8202 2.8512 43.1053C3.05131 42.7985 3.2515 42.4917 3.45178 42.1849C3.55229 42.031 3.6528 41.877 3.75635 41.7183C3.96021 41.406 4.16406 41.0937 4.36792 40.7814C4.46843 40.6275 4.56893 40.4735 4.67249 40.3148C4.77217 40.1622 4.87186 40.0096 4.97457 39.8524C5.1727 39.5484 5.37018 39.244 5.56699 38.9391C6.00257 38.2655 6.44175 37.5991 6.91309 36.95C8.00697 35.4177 8.40443 34.079 8.68639 32.2276C8.82442 31.4578 9.09604 30.729 9.37463 29.9999C9.27473 29.9548 9.17483 29.9096 9.0719 29.8632C8.74963 29.6874 8.74963 29.6874 8.59338 29.3749C8.54628 28.6881 8.63971 28.2126 8.91443 27.5847C8.98393 27.4251 9.05343 27.2654 9.12504 27.1009C9.20096 26.9329 9.27688 26.7648 9.3551 26.5917C9.43294 26.4177 9.51077 26.2437 9.59097 26.0644C11.1766 22.5834 13.3549 19.5604 15.9469 16.7577C16.0353 16.6617 16.1236 16.5658 16.2147 16.4669C19.416 13.0495 23.5746 10.5988 27.8805 8.84753C28.0081 8.79533 28.1356 8.74313 28.2671 8.68934C28.3907 8.64043 28.5143 8.59153 28.6416 8.54114C28.7492 8.49836 28.8569 8.45559 28.9678 8.41151C29.5625 8.22091 30.1701 8.09695 30.7809 7.96863C30.7791 7.88032 30.7774 7.79201 30.7756 7.70102C30.7583 6.78094 30.7466 5.86091 30.738 4.94071C30.734 4.59742 30.7287 4.25414 30.7219 3.9109C30.7125 3.41713 30.708 2.92353 30.7046 2.42969C30.7006 2.2765 30.6965 2.12332 30.6924 1.96549C30.6921 1.23234 30.6959 0.893857 31.1486 0.293381C31.5621 -0.00012207 31.5621 -0.00012207 32.0052 -0.0947266ZM42.3629 16.6306C41.776 17.0624 41.1599 17.4489 40.5465 17.8417C40.2801 18.0142 40.0138 18.187 39.7476 18.3599C39.5425 18.4928 39.5425 18.4928 39.3334 18.6285C38.735 19.0171 38.1375 19.407 37.5401 19.7971C37.2349 19.9962 36.9296 20.1952 36.6242 20.3941C35.9214 20.8515 35.2199 21.3104 34.5217 21.7748C34.4005 21.8548 34.2793 21.9349 34.1544 22.0173C33.931 22.1649 33.7082 22.3134 33.4862 22.463C32.9567 22.8111 32.5142 23.0785 31.8746 23.1249C31.4449 22.9979 31.4449 22.9979 31.0934 22.8124C30.8711 22.3678 30.9028 21.9745 30.8877 21.4781C30.8811 21.2747 30.8746 21.0713 30.8679 20.8617C30.8616 20.646 30.8554 20.4304 30.8492 20.2147C30.8425 19.9978 30.8357 19.781 30.8288 19.5641C30.8122 19.0323 30.7962 18.5005 30.7809 17.9686C30.017 18.1009 29.4373 18.3773 28.7594 18.7401C28.6426 18.8026 28.5257 18.865 28.4053 18.9294C26.3798 20.0367 24.6592 21.4341 23.0288 23.0645C22.8231 23.2702 22.6155 23.4743 22.4008 23.6705C19.8014 26.0794 18.3534 29.4431 17.0588 32.6628C16.8794 33.0975 16.742 33.4138 16.4059 33.7499C15.9957 33.8475 15.9957 33.8475 15.6246 33.9061C15.3792 34.4906 15.2818 34.9898 15.3121 35.6249C15.6611 36.3515 16.1326 36.966 16.6142 37.6098C17.1102 38.2931 17.5597 39.0073 18.0172 39.7167C18.2191 40.027 18.4211 40.3373 18.6233 40.6475C18.8217 40.9524 19.02 41.2574 19.2184 41.5624C19.4854 41.9727 19.7524 42.383 20.0194 42.7933C20.187 43.0511 20.3544 43.3091 20.5215 43.5673C20.9275 44.1943 21.3366 44.8189 21.7526 45.4393C21.8324 45.5595 21.9122 45.6797 21.9944 45.8035C22.144 46.0285 22.2947 46.2527 22.447 46.4759C22.8428 47.0748 23.0815 47.5451 23.1246 48.2811C23.0074 48.6425 23.0074 48.6425 22.8121 48.9061C22.2962 49.0781 21.8839 49.0946 21.3406 49.1118C21.0468 49.1216 21.0468 49.1216 20.747 49.1317C20.5423 49.1378 20.3375 49.1439 20.1266 49.1503C19.9179 49.157 19.7093 49.1638 19.5007 49.1707C18.9899 49.1873 18.4792 49.2033 17.9684 49.2186C18.1007 49.9825 18.377 50.5622 18.7399 51.2401C18.8337 51.4156 18.8337 51.4156 18.9295 51.5945C19.9811 53.5169 21.2947 55.1476 22.8121 56.7186C23.0143 56.9356 23.0143 56.9356 23.2205 57.1569C25.5763 59.6209 28.459 61.2308 31.5888 62.5128C31.7901 62.5955 31.7901 62.5955 31.9955 62.6799C32.1154 62.7283 32.2353 62.7766 32.3589 62.8264C32.6559 62.9686 32.6559 62.9686 32.9684 63.2811C32.9974 63.5083 32.9974 63.5083 33.027 63.7401C33.2325 64.2503 33.2325 64.2503 33.6959 64.3895C34.9532 64.7235 34.9532 64.7235 36.1435 64.3285C36.277 64.2425 36.4105 64.1565 36.5481 64.0679C36.7007 63.97 36.8533 63.8721 37.0105 63.7713C37.1751 63.6643 37.3398 63.5574 37.5094 63.4471C37.681 63.3365 37.8526 63.2259 38.0294 63.112C39.4139 62.2177 40.7849 61.3034 42.1539 60.3857C43.3942 59.5543 44.6428 58.7407 45.9158 57.9601C46.2518 57.7517 46.583 57.5351 46.9094 57.3119C47.3908 57.0004 47.7101 56.8997 48.2809 56.8749C48.7105 57.0258 48.8575 57.0905 49.0621 57.4999C49.0863 57.8514 49.1012 58.2036 49.1116 58.5558C49.1148 58.6594 49.1181 58.763 49.1214 58.8697C49.1316 59.2009 49.1408 59.532 49.15 59.8632C49.1568 60.0876 49.1636 60.312 49.1705 60.5364C49.1872 61.0867 49.203 61.637 49.2184 62.1874C55.6118 59.3858 60.0157 54.5199 62.6559 48.1249C62.7113 47.9754 62.7667 47.826 62.8237 47.672C63.0752 47.0161 63.0752 47.0161 63.2809 46.7186C63.4678 46.651 63.6547 46.5833 63.8473 46.5135C64.3891 46.3058 64.3891 46.3058 64.5693 45.8892C64.7881 45.101 64.7886 44.5834 64.4271 43.8402C64.1005 43.3288 63.7351 42.8467 63.3689 42.3632C62.9371 41.7763 62.5506 41.1602 62.1578 40.5468C61.9853 40.2803 61.8125 40.014 61.6396 39.7478C61.551 39.6111 61.4624 39.4744 61.371 39.3336C60.9824 38.7353 60.5925 38.1378 60.2025 37.5404C60.0032 37.2351 59.8042 36.9297 59.6055 36.6241C59.1491 35.9225 58.6908 35.2226 58.2247 34.5275C58.1447 34.407 58.0647 34.2864 57.9822 34.1623C57.8349 33.9407 57.6864 33.7199 57.5365 33.5001C57.079 32.8078 56.7858 32.2011 56.943 31.3475C56.972 31.2637 57.001 31.18 57.0309 31.0936C57.58 30.9281 58.1022 30.9061 58.674 30.8879C58.8693 30.8814 59.0647 30.8748 59.266 30.8681C59.4694 30.862 59.6729 30.8558 59.8824 30.8495C60.1912 30.8394 60.1912 30.8394 60.5062 30.829C61.0144 30.8125 61.5226 30.7965 62.0309 30.7811C61.8986 30.0173 61.6223 29.4376 61.2594 28.7596C61.1968 28.6427 61.1343 28.5257 61.0698 28.4052C60.0182 26.4829 58.7046 24.8521 57.1871 23.2811C57.0524 23.1365 56.9176 22.9919 56.7788 22.8429C54.2687 20.2176 51.0571 18.4305 47.6718 17.1758C47.0159 16.9243 47.0159 16.9243 46.7184 16.7186C46.6507 16.5317 46.583 16.3448 46.5133 16.1522C46.3056 15.6104 46.3056 15.6104 45.8889 15.4302C44.3845 15.0126 43.5008 15.769 42.3629 16.6306Z" fill="#BFFFD1"/>
<path d="M51.3066 27.5879C54.7186 30.715 56.476 34.9914 56.7454 39.5477C56.8482 44.0275 55.1647 48.303 52.1421 51.6009C48.8979 54.904 44.5952 56.6523 39.998 56.7578C35.4007 56.6523 31.098 54.904 27.8538 51.6009C24.8312 48.303 23.1478 44.0275 23.2505 39.5477C23.5199 34.9914 25.2773 30.715 28.6894 27.5879C35.3874 21.9421 44.6086 21.9421 51.3066 27.5879Z" fill="#050400"/>
<path d="M11.6012 30.8203C12.361 30.9723 12.5209 31.2218 12.9556 31.839C13.4663 32.6315 13.9697 33.4285 14.4678 34.229C14.8547 34.8483 15.2381 35.4507 15.7028 36.0156C16.3483 36.8041 16.865 37.6752 17.4035 38.5381C17.8958 39.3267 18.3966 40.1076 18.9156 40.8789C19.5371 41.8035 20.1479 42.7345 20.75 43.6718C21.1253 44.2558 21.5045 44.8367 21.8911 45.4132C21.9701 45.5321 22.049 45.6509 22.1304 45.7734C22.2814 46.0004 22.4336 46.2267 22.5872 46.452C22.987 47.0568 23.2484 47.536 23.2809 48.2812C23.0856 48.7207 23.0856 48.7207 22.8121 49.0625C22.2875 49.2374 21.8931 49.2365 21.3406 49.234C21.0468 49.2333 21.0468 49.2333 20.747 49.2325C20.5423 49.2312 20.3375 49.2299 20.1266 49.2285C19.9179 49.2277 19.7093 49.227 19.5007 49.2264C18.9899 49.2245 18.4791 49.222 17.9684 49.2188C20.6794 55.4056 25.3369 59.8215 31.575 62.3429C31.7087 62.3976 31.8425 62.4522 31.9802 62.5085C32.0993 62.5561 32.2184 62.6036 32.3411 62.6525C32.6785 62.824 32.8847 62.9897 33.1246 63.2812C33.2321 63.7012 33.2321 63.7012 33.2809 64.0625C33.5799 64.1457 33.8795 64.2267 34.1793 64.3066C34.3461 64.352 34.5129 64.3973 34.6847 64.444C35.4677 64.589 35.8927 64.334 36.5481 63.9117C36.7007 63.8139 36.8533 63.716 37.0105 63.6152C37.2574 63.4547 37.2574 63.4547 37.5094 63.291C37.681 63.1804 37.8526 63.0698 38.0294 62.9559C39.4139 62.0616 40.7849 61.1472 42.1539 60.2295C43.3942 59.3981 44.6428 58.5845 45.9158 57.804C46.2519 57.5955 46.5832 57.3791 46.91 57.1564C47.3961 56.8408 47.7023 56.7311 48.2809 56.7188C48.9942 57.0516 48.9942 57.0516 49.2184 57.5C49.2426 57.8401 49.2574 58.1809 49.2678 58.5217C49.2744 58.7252 49.2809 58.9286 49.2877 59.1382C49.2939 59.3538 49.3001 59.5695 49.3063 59.7852C49.313 60.002 49.3198 60.2189 49.3267 60.4358C49.3433 60.9676 49.3593 61.4994 49.3746 62.0312C52.1426 60.65 54.4937 59.1783 56.7184 57.0312C56.8515 56.908 56.9847 56.7847 57.1218 56.6577C59.6194 54.2821 61.1863 51.2681 62.4996 48.125C63.0797 46.7637 63.0797 46.7637 63.4371 46.4062C64.0073 46.3302 64.3148 46.377 64.8336 46.6309C65.1559 47.0312 65.1559 47.0312 65.1724 47.3285C65.0654 48.2386 64.8229 49.0078 64.4528 49.8438C64.3693 50.0357 64.3693 50.0357 64.2842 50.2315C63.039 53.0481 61.5256 55.5117 59.4045 57.7551C59.0554 58.1229 59.0554 58.1229 58.738 58.5327C58.2817 59.0992 57.7463 59.5374 57.1871 60C57.1101 60.0642 57.0331 60.1283 56.9538 60.1944C54.5101 62.2168 51.1384 64.6184 47.9489 65.069C47.4996 65 47.4996 65 47.1629 64.6654C46.8247 64.1413 46.8014 63.8713 46.8136 63.2538C46.8166 62.9826 46.8166 62.9826 46.8197 62.706C46.8276 62.4252 46.8276 62.4252 46.8356 62.1387C46.8384 61.9484 46.8412 61.7582 46.8441 61.5622C46.8515 61.0934 46.8617 60.6249 46.8746 60.1562C44.7879 61.4346 42.7458 62.7802 40.7012 64.1243C39.7627 64.7411 38.8217 65.3541 37.8805 65.9668C35.9576 67.0895 35.9576 67.0895 34.2184 68.4375C34.3146 68.4985 34.4109 68.5595 34.51 68.6224C36.4618 69.8613 38.4018 71.1147 40.3219 72.4023C41.6214 73.2738 42.9261 74.1321 44.2617 74.9475C45.0958 75.4619 45.905 76.0162 46.7184 76.5625C46.719 76.3915 46.7197 76.2204 46.7203 76.0442C46.7237 75.4079 46.7322 74.7717 46.7422 74.1354C46.7458 73.8603 46.7481 73.5853 46.7489 73.3102C46.7504 72.9141 46.7568 72.5183 46.7642 72.1222C46.7635 71.9998 46.7629 71.8773 46.7623 71.7512C46.7792 71.1161 46.8234 70.8491 47.2176 70.327C47.6618 69.9956 47.9995 69.8316 48.5287 69.6765C48.7828 69.5985 48.7828 69.5985 49.042 69.5189C49.2227 69.4649 49.4033 69.411 49.5895 69.3555C54.1368 67.9128 58.4202 65.5287 61.7184 62.0312C61.9788 61.7708 62.2392 61.5104 62.4996 61.25C64.4049 59.3117 65.9103 57.1541 67.1969 54.7638C67.8901 53.5158 67.8901 53.5158 68.2809 53.125C68.5928 53.0933 68.5928 53.0933 68.9742 53.0859C69.1625 53.0799 69.1625 53.0799 69.3545 53.0737C69.5191 53.0991 69.5191 53.0991 69.6871 53.125C70.0774 53.7104 70.1014 54.1661 69.9996 54.8438C69.828 55.3144 69.5909 55.7321 69.3356 56.1621C69.2658 56.2832 69.196 56.4043 69.124 56.529C67.8966 58.618 66.4536 60.537 64.8434 62.3438C64.7702 62.4266 64.6971 62.5094 64.6217 62.5947C63.7599 63.5672 62.8839 64.4905 61.8746 65.3125C61.71 65.4514 61.5454 65.5904 61.3809 65.7294C59.8658 66.9915 58.2571 68.0575 56.5621 69.0625C56.4124 69.1519 56.4124 69.1519 56.2597 69.2431C55.0114 69.978 53.7089 70.5413 52.3629 71.0742C52.2124 71.1339 52.0619 71.1935 51.9068 71.255C51.7613 71.311 51.6157 71.3669 51.4657 71.4246C51.2733 71.4985 51.2733 71.4985 51.077 71.574C50.4663 71.7694 49.8456 71.9004 49.2184 72.0312C49.2201 72.1196 49.2219 72.2079 49.2236 72.2989C49.2409 73.2189 49.2527 74.139 49.2613 75.0592C49.2652 75.4025 49.2706 75.7457 49.2773 76.089C49.2868 76.5828 49.2912 77.0763 49.2947 77.5702C49.2987 77.7234 49.3027 77.8766 49.3069 78.0344C49.3072 78.7675 49.3033 79.1061 48.8508 79.7066C48.4371 80 48.4371 80 47.9922 80.0934C47.3382 79.9694 46.8744 79.6601 46.3375 79.2871C46.1005 79.1281 45.8635 78.9693 45.6265 78.8104C45.5001 78.7247 45.3736 78.639 45.2434 78.5506C44.5364 78.0745 43.82 77.6127 43.1051 77.1484C42.7982 76.9483 42.4914 76.7481 42.1847 76.5479C42.0307 76.4473 41.8767 76.3468 41.7181 76.2433C41.4058 76.0394 41.0935 75.8356 40.7812 75.6317C40.6272 75.5312 40.4732 75.4307 40.3146 75.3271C40.162 75.2275 40.0094 75.1278 39.8522 75.0251C39.5482 74.8269 39.2437 74.6295 38.9389 74.4326C38.2653 73.9971 37.5989 73.5579 36.9497 73.0865C35.7052 72.1972 34.6672 71.7181 33.1516 71.4837C31.9366 71.2905 30.8019 70.9325 29.6383 70.5371C29.4585 70.4764 29.2786 70.4156 29.0933 70.353C28.234 70.0578 27.3903 69.7491 26.5621 69.375C26.5621 69.4781 26.5621 69.5812 26.5621 69.6875C26.0835 70.0129 25.7251 70.0235 25.1615 69.9312C24.5286 69.7572 23.986 69.4087 23.4274 69.0723C23.297 68.995 23.1667 68.9178 23.0324 68.8382C21.0955 67.6749 19.3522 66.3315 17.6559 64.8438C17.5121 64.7193 17.3683 64.5948 17.2201 64.4666C16.41 63.7544 15.6912 63.0134 14.9996 62.1875C14.8731 62.0453 14.7467 61.9031 14.6163 61.7566C13.4005 60.38 12.3836 58.8965 11.4059 57.3438C11.3461 57.2493 11.2862 57.1549 11.2246 57.0576C9.95674 55.0307 7.96838 51.6748 7.96838 49.2188C7.88007 49.2205 7.79176 49.2222 7.70078 49.224C6.7807 49.2413 5.86067 49.2531 4.94047 49.2617C4.59718 49.2656 4.2539 49.2709 3.91065 49.2777C3.41688 49.2872 2.92329 49.2916 2.42944 49.295C2.27626 49.2991 2.12307 49.3031 1.96524 49.3073C1.23216 49.3076 0.893582 49.3037 0.29306 48.8512C-0.000366211 48.4375 -0.000366211 48.4375 -0.09375 47.9926C0.0302488 47.3385 0.339534 46.8747 0.712524 46.3379C0.871486 46.1009 1.03038 45.8639 1.18921 45.6268C1.27494 45.5004 1.36066 45.374 1.44899 45.2438C1.92515 44.5367 2.38694 43.8203 2.8512 43.1055C3.05131 42.7986 3.2515 42.4918 3.45178 42.1851C3.55229 42.0311 3.6528 41.8771 3.75635 41.7184C3.96021 41.4061 4.16406 41.0939 4.36792 40.7816C4.57019 40.4717 4.77244 40.1617 4.97465 39.8518C5.17173 39.5498 5.36895 39.2479 5.56631 38.9461C6.02317 38.2468 6.47723 37.546 6.92407 36.8402C7.00358 36.7152 7.08309 36.5902 7.16501 36.4614C7.31274 36.2287 7.45958 35.9954 7.60538 35.7615C7.77028 35.5023 7.94632 35.2502 8.12463 35C8.22776 35 8.33088 35 8.43713 35C8.47995 34.885 8.52276 34.77 8.56687 34.6516C8.73846 34.2452 8.92956 33.9096 9.17383 33.5437C9.2553 33.4214 9.33677 33.2992 9.42072 33.1732C9.50541 33.0477 9.59011 32.9223 9.67737 32.793C9.76146 32.6663 9.84555 32.5396 9.93219 32.4091C10.8865 30.9852 10.8865 30.9852 11.6012 30.8203Z" fill="#B7D7F9"/>
<path d="M54.9085 10.0139C55.2863 10.2057 55.6563 10.4072 56.0254 10.6152C56.1597 10.6902 56.2941 10.7652 56.4325 10.8426C58.5717 12.0603 60.5059 13.5247 62.3438 15.1562C62.4984 15.2918 62.6531 15.4273 62.8125 15.567C63.6606 16.3217 64.432 17.0958 65.1562 17.9687C65.3285 18.1645 65.3285 18.1645 65.5042 18.3642C68.5175 21.8463 71.0923 26.2472 72.0312 30.7812C72.1196 30.7795 72.2079 30.7777 72.2989 30.776C73.2189 30.7587 74.139 30.7469 75.0592 30.7383C75.4025 30.7344 75.7457 30.729 76.089 30.7223C76.5828 30.7128 77.0763 30.7084 77.5702 30.7049C77.8 30.6989 77.8 30.6989 78.0344 30.6927C78.7675 30.6924 79.1061 30.6963 79.7066 31.1488C80 31.5625 80 31.5625 80.0934 32.0074C79.9694 32.6614 79.6601 33.1252 79.2871 33.6621C79.1286 33.8984 78.9701 34.1348 78.8116 34.3713C78.726 34.4976 78.6403 34.624 78.552 34.7541C78.0689 35.4716 77.6001 36.1985 77.1289 36.9238C76.9282 37.2314 76.7274 37.5391 76.5265 37.8466C76.1509 38.4223 75.7761 38.9984 75.4022 39.5752C75.2749 39.7713 75.2749 39.7713 75.145 39.9714C74.9769 40.231 74.8097 40.4912 74.6432 40.7518C74.2497 41.3649 73.8484 41.9597 73.4015 42.5354C72.0822 44.2745 71.6352 45.9831 71.1859 48.1042C70.9734 49.1019 70.695 50.0556 70.3516 51.0156C70.3075 51.1405 70.2634 51.2655 70.218 51.3942C69.9938 52.0068 69.7722 52.6012 69.375 53.125C69.201 53.1411 69.027 53.1572 68.8477 53.1738C68.3004 53.221 68.3004 53.221 68.0804 53.4899C67.8692 53.8293 67.6841 54.1763 67.5 54.5312C66.212 56.8722 64.7184 58.9216 62.9688 60.9375C62.8027 61.1392 62.6366 61.341 62.4707 61.5429C62.0564 62.0247 61.5941 62.4341 61.1096 62.8442C60.8963 63.0266 60.6868 63.2136 60.4822 63.4057C58.631 65.1354 56.4586 66.4912 54.2188 67.6562C54.0477 67.7468 53.8767 67.8375 53.7006 67.9309C52.1477 68.7046 50.5103 69.2374 48.8634 69.7713C48.6719 69.8347 48.4804 69.8981 48.2831 69.9633C48.1098 70.0194 47.9365 70.0754 47.758 70.1332C47.2993 70.2872 47.2993 70.2872 47.0312 70.7812C46.9936 71.2338 46.973 71.6727 46.9666 72.1258C46.9635 72.2569 46.9605 72.3881 46.9574 72.5232C46.948 72.9418 46.9408 73.3605 46.9336 73.7793C46.9276 74.0632 46.9215 74.3471 46.9153 74.631C46.9003 75.3269 46.8871 76.0228 46.875 76.7187C45.8667 76.1386 44.8682 75.5567 43.9062 74.9023C43.7068 74.7677 43.5072 74.6332 43.3075 74.4989C43.1505 74.3932 43.1505 74.3932 42.9903 74.2855C42.3781 73.8768 41.7602 73.4767 41.1426 73.0761C41.0113 72.9909 40.8801 72.9058 40.7448 72.818C40.3404 72.5556 39.9358 72.2934 39.5312 72.0312C37.7005 70.8448 35.8739 69.6533 34.0625 68.4375C34.6084 67.9898 35.1679 67.583 35.755 67.1911C35.8408 67.1338 35.9266 67.0765 36.015 67.0174C36.2916 66.8328 36.5686 66.6488 36.8457 66.4648C36.9404 66.4018 37.0351 66.3387 37.1326 66.2738C38.3185 65.4846 39.5102 64.7069 40.7232 63.9598C41.4 63.5423 42.0644 63.1092 42.7246 62.666C43.6004 62.0785 44.4785 61.4948 45.3613 60.9179C45.5338 60.804 45.5338 60.804 45.7098 60.6879C46.5265 60.1562 46.5265 60.1562 46.875 60.1562C46.8773 60.276 46.8796 60.3958 46.8819 60.5192C46.8935 61.0624 46.9086 61.6053 46.9238 62.1484C46.9274 62.3369 46.9309 62.5254 46.9345 62.7197C46.94 62.901 46.9456 63.0822 46.9513 63.269C46.9554 63.4359 46.9595 63.6028 46.9637 63.7748C47.0389 64.2687 47.1508 64.4908 47.5 64.8437C48.3542 64.9931 49.0953 64.6441 49.873 64.3261C50.0774 64.2432 50.0774 64.2432 50.2859 64.1586C53.0189 63.0117 55.4481 61.3961 57.6166 59.3817C57.8606 59.1605 58.1131 58.9485 58.3716 58.7445C58.937 58.2858 59.3784 57.7449 59.8438 57.1875C59.9888 57.0162 59.9888 57.0162 60.1367 56.8414C62.2792 54.2454 64.5255 50.8155 65.0879 47.4414C65.0359 46.9892 65.0359 46.9892 64.5898 46.6992C64.4674 46.5509 64.3449 46.4027 64.2188 46.25C64.2914 45.8667 64.2914 45.8667 64.4238 45.4101C64.5864 44.642 64.5308 44.2301 64.0994 43.5656C63.81 43.1601 63.5138 42.7604 63.213 42.3632C62.7812 41.7763 62.3947 41.1602 62.002 40.5468C61.8294 40.2804 61.6567 40.0141 61.4838 39.7479C61.3508 39.5429 61.3508 39.5429 61.2151 39.3337C60.8265 38.7354 60.4366 38.1379 60.0466 37.5405C59.8473 37.2352 59.6483 36.9298 59.4496 36.6241C58.9932 35.9226 58.5349 35.2227 58.0688 34.5275C57.9888 34.407 57.9088 34.2865 57.8263 34.1624C57.679 33.9408 57.5306 33.72 57.3806 33.5002C56.99 32.9092 56.7643 32.4445 56.7188 31.7187C56.8417 31.3164 56.9415 31.1525 57.2929 30.9223C57.7695 30.7372 58.1635 30.7461 58.6743 30.7507C58.9674 30.7522 58.9674 30.7522 59.2664 30.7537C59.4698 30.7564 59.6732 30.759 59.8828 30.7617C60.0887 30.7631 60.2945 30.7645 60.5066 30.766C61.0148 30.7696 61.523 30.7748 62.0312 30.7812C59.1471 24.1992 54.2034 20.0171 47.6666 17.3101C47.5407 17.2568 47.4149 17.2034 47.2852 17.1484C47.1808 17.1057 47.0765 17.063 46.969 17.019C46.7188 16.875 46.7188 16.875 46.4062 16.4062C46.4292 15.8664 46.5145 15.5435 46.8066 15.0879C47.2745 14.788 47.5499 14.8425 48.086 14.923C48.6997 15.0574 49.26 15.2954 49.834 15.5468C50.027 15.6303 50.027 15.6303 50.2238 15.7154C52.9841 16.9292 55.4265 18.4019 57.6331 20.473C57.9721 20.7919 57.9721 20.7919 58.371 21.0992C58.9372 21.5579 59.3742 22.1015 59.8438 22.6562C59.9616 22.7879 60.0794 22.9197 60.2008 23.0554C62.2311 25.3785 64.5633 28.8344 65.0879 31.9238C64.9931 32.3766 64.8552 32.6413 64.52 32.9623C63.8135 33.3437 62.9175 33.201 62.1387 33.1738C61.9484 33.1703 61.7582 33.1667 61.5622 33.1631C61.0934 33.1539 60.6249 33.1411 60.1562 33.125C61.1082 34.6868 62.1065 36.2153 63.125 37.7343C63.944 38.9559 64.7543 40.1801 65.5243 41.4334C66.0878 42.3459 66.6804 43.2386 67.2754 44.1308C67.4209 44.3492 67.4209 44.3492 67.5694 44.572C67.9658 45.2063 67.9658 45.2063 68.4375 45.7812C68.5388 45.6221 68.5388 45.6221 68.6422 45.4598C70.919 41.8873 70.919 41.8873 71.952 40.3506C72.4836 39.5591 73.002 38.7596 73.5188 37.9584C74.1752 36.9408 74.8363 35.9262 75.498 34.9121C75.6557 34.6705 75.6557 34.6705 75.8165 34.4241C76.0651 34.0431 76.3138 33.6621 76.5625 33.2812C76.3906 33.2789 76.2188 33.2767 76.0417 33.2743C75.4034 33.2652 74.7651 33.2532 74.1268 33.2402C73.8507 33.235 73.5746 33.2306 73.2984 33.2271C72.9012 33.2218 72.5041 33.2137 72.1069 33.2049C71.9837 33.2039 71.8605 33.2029 71.7335 33.2019C71.2412 33.1887 70.8497 33.1589 70.4052 32.9382C70.0885 32.5795 69.9835 32.2728 69.848 31.8139C69.7955 31.6435 69.743 31.4731 69.6888 31.2976C69.6336 31.1143 69.5784 30.931 69.5215 30.7421C68.2308 26.6888 66.2923 23.0091 63.4375 19.8437C63.2616 19.6355 63.0858 19.4272 62.9102 19.2187C60.0976 16.0546 56.7689 13.7491 53.0026 11.8461C52.2034 11.4381 52.2034 11.4381 52.0312 11.0937C51.9592 10.1029 51.9592 10.1029 52.2363 9.70699C53.1096 9.12479 54.0348 9.61973 54.9085 10.0139Z" fill="#EE4423"/>
<path d="M39.7734 29.7949C39.926 29.7944 40.0785 29.7939 40.2357 29.7933C42.8828 29.8128 45.3449 30.8554 47.2832 32.666C49.5014 35.0154 50.2808 37.5367 50.2122 40.7214C50.084 43.351 48.8449 45.8457 46.9407 47.647C44.3025 49.8787 41.3312 50.4225 37.9667 50.1562C35.4309 49.7442 33.1935 48.0407 31.6679 46.0351C31.0981 45.2154 30.6819 44.3617 30.3105 43.4374C30.2553 43.3146 30.2001 43.1917 30.1433 43.0651C29.4111 41.0041 29.5876 38.1375 30.3819 36.1285C31.6951 33.3858 33.8678 31.2555 36.7368 30.1888C37.7628 29.844 38.6963 29.777 39.7734 29.7949Z" fill="#FBD201"/>
<path d="M43.2983 38.2642L42.9503 39.4922H36.4325L36.7805 38.2642H43.2983ZM40.1264 46L36.5668 41.6797L36.5568 40.7102H38.3217C38.7625 40.7102 39.1354 40.6423 39.4403 40.5064C39.7453 40.3705 39.9773 40.1733 40.1364 39.9148C40.2955 39.6529 40.375 39.3348 40.375 38.9602C40.375 38.4034 40.2093 37.9609 39.8778 37.6328C39.5464 37.3047 39.0277 37.1406 38.3217 37.1406H36.4325L36.7955 35.8182H38.3217C39.1437 35.8182 39.8215 35.9491 40.3551 36.2109C40.8887 36.4728 41.2865 36.8357 41.5483 37.2997C41.8101 37.7637 41.9411 38.299 41.9411 38.9055C41.9411 39.4458 41.8333 39.9347 41.6179 40.3722C41.4025 40.8097 41.0594 41.166 40.5888 41.4411C40.1181 41.7161 39.5 41.8769 38.7344 41.9233L38.6896 41.9332L41.9411 45.9155V46H40.1264ZM43.3033 35.8182L42.9503 37.0561L37.7401 37.0263L38.093 35.8182H43.3033Z" fill="#010100"/>
<path d="M33.125 3.28125C33.986 3.74663 34.8171 4.23301 35.625 4.78516C35.8306 4.92386 36.0363 5.06241 36.2421 5.20081C36.3469 5.27133 36.4517 5.34185 36.5597 5.41451C37.0681 5.75391 37.5818 6.08503 38.0957 6.41602C40.7232 8.11058 43.342 9.81932 45.9375 11.5625C45.3497 12.0475 44.7371 12.4812 44.1016 12.9004C43.9992 12.9682 43.8969 13.0361 43.7915 13.106C42.8295 13.7422 41.8609 14.3681 40.8917 14.9933C40.0556 15.5331 39.2222 16.0771 38.3887 16.6211C38.2381 16.7192 38.0875 16.8174 37.9323 16.9185C37.1702 17.4152 36.409 17.9132 35.6494 18.4137C35.5055 18.5082 35.3615 18.6027 35.2132 18.7C34.9396 18.8797 34.6663 19.0598 34.3934 19.2406C34.2719 19.3202 34.1504 19.3998 34.0253 19.4818C33.9189 19.552 33.8124 19.6222 33.7028 19.6945C33.4375 19.8438 33.4375 19.8438 33.125 19.8438C33.1235 19.7184 33.1221 19.5931 33.1206 19.4639C33.1122 18.8971 33.0991 18.3304 33.0859 17.7637C33.0837 17.5664 33.0815 17.3691 33.0792 17.1658C33.0742 16.977 33.0692 16.7882 33.064 16.5936C33.0607 16.4193 33.0574 16.2451 33.054 16.0655C33.0074 15.6122 33.0074 15.6122 32.6863 15.3291C32.052 15.009 31.4035 15.2142 30.7575 15.4192C30.3989 15.5525 30.0483 15.6976 29.6973 15.8496C29.569 15.9046 29.4406 15.9596 29.3084 16.0163C26.7292 17.1532 24.4477 18.7057 22.3804 20.6183C22.086 20.8874 21.7857 21.1377 21.4746 21.3867C20.7222 22.0281 20.1377 22.818 19.5312 23.5938C19.4203 23.7299 19.3093 23.8661 19.1949 24.0063C17.6425 25.9715 16.4133 28.1857 15.5078 30.5176C15.4554 30.6508 15.4031 30.784 15.3491 30.9213C15.0485 31.7398 14.9169 32.4087 15 33.2812C15.1063 33.3554 15.2127 33.4295 15.3223 33.5059C15.4222 33.5864 15.5221 33.667 15.625 33.75C15.651 34.233 15.5945 34.6896 15.4688 35.1562C15.3656 35.2594 15.2625 35.3625 15.1562 35.4688C14.9922 35.2226 14.8281 34.9765 14.664 34.7303C14.5227 34.5184 14.3814 34.3066 14.2402 34.0948C13.8986 33.5827 13.5573 33.0704 13.2172 32.5574C13.0507 32.3066 13.0507 32.3066 12.8809 32.0508C12.7808 31.8997 12.6807 31.7487 12.5775 31.593C12.2707 31.1162 12.2707 31.1162 11.6992 30.9961C11.0336 31.1035 10.9739 31.1438 10.5762 31.6406C9.9975 32.4618 9.47241 33.3234 8.95123 34.1821C8.78379 34.4571 8.61114 34.7289 8.4375 35C8.38594 35 8.33438 35 8.28125 35C8.32089 33.3962 8.64962 31.4508 9.375 30C9.78884 29.9073 10.2019 29.884 10.625 29.8438C10.6848 29.6502 10.7446 29.4566 10.8063 29.2572C12.294 24.8098 15.2924 20.176 18.9069 17.1393C19.1144 16.9634 19.3176 16.7822 19.516 16.5961C22.833 13.4955 27.2226 11.237 31.5747 10.022C31.7157 9.9825 31.8567 9.94302 32.002 9.90234C32.1222 9.87133 32.2424 9.84031 32.3663 9.80835C32.7139 9.69493 32.7139 9.69493 32.9688 9.21875C33.0064 8.76616 33.027 8.32729 33.0334 7.87415C33.0365 7.74302 33.0395 7.61189 33.0426 7.47679C33.052 7.05811 33.0592 6.63943 33.0664 6.2207C33.0724 5.93679 33.0785 5.65287 33.0847 5.36896C33.0997 4.67308 33.1129 3.97719 33.125 3.28125Z" fill="#FCD201"/>
<path d="M32.0079 -0.0947266C32.6847 0.0347835 33.1333 0.343219 33.6937 0.7323C33.9313 0.891663 34.1689 1.05096 34.4066 1.21021C34.5301 1.29397 34.6535 1.37773 34.7808 1.46404C35.4024 1.88297 36.0329 2.28821 36.6625 2.69519C36.9268 2.86701 37.1911 3.03893 37.4553 3.21094C37.8767 3.48518 38.2982 3.75936 38.7197 4.03331C40.3664 5.10335 42.0102 6.17732 43.6449 7.2655C43.7744 7.3516 43.9039 7.43769 44.0373 7.52639C44.8201 8.04891 45.5931 8.58385 46.363 9.12524C46.965 9.54493 47.5803 9.94337 48.1951 10.3441C49.0261 10.926 49.0261 10.926 49.182 11.6014C49.03 12.3612 48.7805 12.5211 48.1633 12.9558C47.3708 13.4666 46.5738 13.97 45.7733 14.4681C45.154 14.855 44.5516 15.2383 43.9867 15.703C43.2368 16.3143 42.4164 16.8053 41.5964 17.3155C40.4407 18.0377 39.3075 18.7914 38.1761 19.5507C36.8268 20.4557 35.4714 21.3465 34.0862 22.1959C33.7487 22.4052 33.4156 22.6215 33.0864 22.8435C32.6466 23.1328 32.4016 23.268 31.8773 23.2811C30.9963 22.9253 30.9963 22.9253 30.7836 22.4999C30.7702 22.1595 30.7668 21.8188 30.7683 21.4781C30.7688 21.2747 30.7693 21.0713 30.7698 20.8617C30.7711 20.646 30.7725 20.4304 30.7738 20.2147C30.7746 19.9978 30.7753 19.781 30.7759 19.5641C30.7778 19.0323 30.7804 18.5004 30.7836 17.9686C28.2047 19.0986 25.7 20.4906 23.7248 22.5402C23.4398 22.8124 23.4398 22.8124 23.1273 22.8124C23.0852 22.9064 23.0431 23.0005 22.9997 23.0974C22.8132 23.4404 22.6452 23.62 22.3558 23.8768C20.0636 26.1167 18.6573 29.0872 17.4785 32.0166C16.8051 33.6795 16.8051 33.6795 16.4086 33.9061C15.8809 33.8873 15.4783 33.8395 15.0121 33.5839C14.6496 32.9229 14.8152 32.1423 15.0072 31.4501C15.0811 31.2521 15.1577 31.0552 15.2367 30.8593C15.2786 30.7521 15.3206 30.6449 15.3638 30.5345C16.5583 27.5559 18.1763 24.8892 20.3148 22.4999C20.4843 22.302 20.4843 22.302 20.6572 22.1001C21.3239 21.3265 22.0244 20.6457 22.8148 19.9999C22.8909 19.9366 22.967 19.8734 23.0454 19.8082C25.2721 17.965 28.9011 15.147 31.8962 14.9816C32.2914 15.0194 32.5936 15.1106 32.9194 15.3391C33.2237 15.7574 33.1803 16.0811 33.1731 16.5935C33.1716 16.7823 33.1701 16.9712 33.1685 17.1657C33.1646 17.363 33.1607 17.5603 33.1566 17.7635C33.1545 17.9626 33.1524 18.1617 33.1502 18.3669C33.1447 18.8592 33.137 19.3514 33.1273 19.8436C35.2243 18.559 37.2761 17.2061 39.3308 15.8556C40.1711 15.3035 41.014 14.7556 41.8578 14.2089C42.7887 13.6049 43.7171 12.9974 44.641 12.3827C44.7396 12.3172 44.8381 12.2517 44.9397 12.1843C45.3831 11.9005 45.3831 11.9005 45.7836 11.5624C45.6775 11.4948 45.5714 11.4273 45.4622 11.3577C41.8909 9.08163 41.8909 9.08163 40.3869 8.07052C39.2089 7.27943 38.0162 6.51079 36.8255 5.73901C36.1002 5.26865 35.3755 4.79729 34.6508 4.32605C34.3863 4.15413 34.1218 3.98221 33.8573 3.8103C33.666 3.68599 33.4748 3.56169 33.2836 3.43738C33.2813 3.60924 33.279 3.78109 33.2767 3.95816C33.2676 4.59651 33.2555 5.23478 33.2426 5.87306C33.2374 6.14918 33.233 6.42532 33.2294 6.70146C33.2242 7.09869 33.216 7.49578 33.2073 7.89294C33.2063 8.01618 33.2053 8.13941 33.2042 8.26637C33.1911 8.75916 33.1613 9.15034 32.9399 9.59506C32.584 9.90953 32.2831 10.013 31.8273 10.1464C31.5739 10.224 31.5739 10.224 31.3155 10.3033C31.1335 10.3579 30.9515 10.4124 30.764 10.4686C29.2337 10.9525 27.7755 11.5074 26.3304 12.2069C26.1751 12.2816 26.0198 12.3564 25.8598 12.4333C23.0728 13.8139 20.4322 15.7177 18.2836 17.9686C17.5023 18.7499 17.5023 18.7499 17.2565 18.9871C16.6133 19.6144 16.0449 20.2649 15.5101 20.9862C15.4303 21.0938 15.3505 21.2014 15.2682 21.3123C13.5575 23.6558 12.2169 26.1745 11.0801 28.8414C11.0256 28.9689 10.971 29.0964 10.9148 29.2278C10.8668 29.3425 10.8189 29.4572 10.7695 29.5753C10.6273 29.8436 10.6273 29.8436 10.3148 29.9999C9.17605 30.0903 9.17605 30.0903 8.75231 29.746C8.50123 29.1496 8.53631 28.6274 8.72904 28.0145C8.82214 27.8018 8.82214 27.8018 8.91711 27.5847C8.98661 27.4251 9.05611 27.2654 9.12772 27.1009C9.20364 26.9329 9.27956 26.7648 9.35778 26.5917C9.43562 26.4177 9.51345 26.2437 9.59364 26.0644C11.1793 22.5834 13.3575 19.5604 15.9496 16.7577C16.0379 16.6617 16.1263 16.5658 16.2174 16.4669C19.4187 13.0495 23.5772 10.5988 27.8832 8.84753C28.0107 8.79533 28.1383 8.74313 28.2698 8.68934C28.3933 8.64043 28.5169 8.59153 28.6443 8.54114C28.7519 8.49836 28.8596 8.45559 28.9705 8.41151C29.5652 8.22091 30.1728 8.09695 30.7836 7.96863C30.7818 7.88032 30.7801 7.79201 30.7783 7.70102C30.761 6.78094 30.7492 5.86091 30.7406 4.94071C30.7367 4.59742 30.7314 4.25414 30.7246 3.9109C30.7151 3.41713 30.7107 2.92353 30.7073 2.42969C30.7032 2.2765 30.6992 2.12332 30.695 1.96549C30.6947 1.23234 30.6986 0.893857 31.1513 0.293381C31.5648 -0.00012207 31.5648 -0.00012207 32.0079 -0.0947266Z" fill="#010100"/>
<path d="M54.9085 10.0139C55.2863 10.2057 55.6563 10.4072 56.0254 10.6152C56.1597 10.6902 56.2941 10.7652 56.4325 10.8426C58.5717 12.0603 60.5059 13.5247 62.3438 15.1562C62.4984 15.2918 62.6531 15.4273 62.8125 15.567C63.6606 16.3217 64.432 17.0958 65.1562 17.9687C65.2711 18.0992 65.3859 18.2297 65.5042 18.3642C68.5175 21.8463 71.0923 26.2472 72.0312 30.7812C72.1196 30.7795 72.2079 30.7777 72.2989 30.776C73.2189 30.7587 74.139 30.7469 75.0592 30.7383C75.4025 30.7344 75.7457 30.729 76.089 30.7223C76.5828 30.7128 77.0763 30.7084 77.5702 30.7049C77.8 30.6989 77.8 30.6989 78.0344 30.6927C78.7675 30.6924 79.1061 30.6963 79.7066 31.1488C80 31.5625 80 31.5625 80.0934 32.0074C79.9694 32.6614 79.6601 33.1252 79.2871 33.6621C79.1286 33.8984 78.9701 34.1348 78.8116 34.3713C78.726 34.4976 78.6403 34.624 78.552 34.7541C78.0689 35.4716 77.6001 36.1985 77.1289 36.9238C76.9282 37.2314 76.7274 37.5391 76.5265 37.8466C76.0647 38.5543 75.6045 39.263 75.145 39.9721C73.8634 41.9485 72.5807 43.9259 71.217 45.8471C70.9872 46.1783 70.7629 46.5118 70.5408 46.8481C70.4708 46.954 70.4008 47.0599 70.3288 47.169C70.1907 47.3786 70.0531 47.5886 69.916 47.7988C69.1155 49.0142 69.1155 49.0142 68.3984 49.1796C67.6315 49.0263 67.4606 48.7509 67.0221 48.128C66.5916 47.4585 66.1703 46.7836 65.7544 46.1049C65.3563 45.4594 64.9379 44.8482 64.4727 44.248C63.8123 43.389 63.2402 42.4902 62.6686 41.5703C61.9521 40.4223 61.2032 39.2973 60.4492 38.1738C59.5442 36.8244 58.6534 35.469 57.804 34.0838C57.5955 33.7477 57.3789 33.4166 57.1558 33.0902C56.8443 32.6088 56.7436 32.2895 56.7188 31.7187C56.8417 31.3164 56.9415 31.1525 57.2929 30.9223C57.7695 30.7372 58.1635 30.7461 58.6743 30.7507C58.9674 30.7522 58.9674 30.7522 59.2664 30.7537C59.4698 30.7564 59.6732 30.759 59.8828 30.7617C60.0887 30.7631 60.2945 30.7645 60.5066 30.766C61.0148 30.7696 61.523 30.7748 62.0312 30.7812C59.1471 24.1992 54.2034 20.0171 47.6666 17.3101C47.5407 17.2568 47.4149 17.2034 47.2852 17.1484C47.1808 17.1057 47.0765 17.063 46.969 17.019C46.7188 16.875 46.7188 16.875 46.4062 16.4062C46.4292 15.8664 46.5145 15.5435 46.8066 15.0879C47.2745 14.788 47.5499 14.8425 48.086 14.923C48.6997 15.0574 49.26 15.2954 49.834 15.5468C49.9626 15.6025 50.0913 15.6581 50.2238 15.7154C52.9841 16.9292 55.4265 18.4019 57.6331 20.473C57.9721 20.7919 57.9721 20.7919 58.371 21.0992C58.9372 21.5579 59.3742 22.1015 59.8438 22.6562C60.0205 22.8538 60.0205 22.8538 60.2008 23.0554C62.2311 25.3785 64.5633 28.8344 65.0879 31.9238C64.9931 32.3766 64.8552 32.6413 64.52 32.9623C63.8135 33.3437 62.9175 33.201 62.1387 33.1738C61.9484 33.1703 61.7582 33.1667 61.5622 33.1631C61.0934 33.1539 60.6249 33.1411 60.1562 33.125C61.1082 34.6868 62.1065 36.2153 63.125 37.7343C63.944 38.9559 64.7543 40.1801 65.5243 41.4334C66.0878 42.3459 66.6804 43.2386 67.2754 44.1308C67.4209 44.3492 67.4209 44.3492 67.5694 44.572C67.9658 45.2063 67.9658 45.2063 68.4375 45.7812C68.5388 45.6221 68.5388 45.6221 68.6422 45.4598C70.919 41.8873 70.919 41.8873 71.952 40.3506C72.4836 39.5591 73.002 38.7596 73.5188 37.9584C74.1752 36.9408 74.8363 35.9262 75.498 34.9121C75.6557 34.6705 75.6557 34.6705 75.8165 34.4241C76.0651 34.0431 76.3138 33.6621 76.5625 33.2812C76.3906 33.2789 76.2188 33.2767 76.0417 33.2743C75.4034 33.2652 74.7651 33.2532 74.1268 33.2402C73.8507 33.235 73.5746 33.2306 73.2984 33.2271C72.9012 33.2218 72.5041 33.2137 72.1069 33.2049C71.9837 33.2039 71.8605 33.2029 71.7335 33.2019C71.2412 33.1887 70.8497 33.1589 70.4052 32.9382C70.0885 32.5795 69.9835 32.2728 69.848 31.8139C69.7955 31.6435 69.743 31.4731 69.6888 31.2976C69.6336 31.1143 69.5784 30.931 69.5215 30.7421C68.2308 26.6888 66.2923 23.0091 63.4375 19.8437C63.2616 19.6355 63.0858 19.4272 62.9102 19.2187C60.0976 16.0546 56.7689 13.7491 53.0026 11.8461C52.2034 11.4381 52.2034 11.4381 52.0312 11.0937C51.9592 10.1029 51.9592 10.1029 52.2363 9.70699C53.1096 9.12479 54.0348 9.61973 54.9085 10.0139Z" fill="#000101"/>
<path d="M63.877 46.3477C64.5134 46.4225 64.7526 46.5298 65.1562 47.0312C65.2119 48.0322 64.8508 48.9456 64.4531 49.8438C64.3975 49.9717 64.3419 50.0996 64.2846 50.2315C63.0393 53.0481 61.526 55.5117 59.4049 57.7551C59.0558 58.1229 59.0558 58.1229 58.7384 58.5327C58.2821 59.0992 57.7466 59.5374 57.1875 60C57.1105 60.0642 57.0335 60.1283 56.9541 60.1944C54.5105 62.2168 51.1388 64.6184 47.9492 65.069C47.5 65 47.5 65 47.1632 64.6654C46.825 64.1413 46.8018 63.8713 46.814 63.2538C46.816 63.073 46.818 62.8922 46.8201 62.706C46.8253 62.5188 46.8305 62.3316 46.8359 62.1387C46.8388 61.9484 46.8416 61.7582 46.8445 61.5622C46.8518 61.0934 46.8621 60.6249 46.875 60.1562C44.7883 61.4346 42.7461 62.7802 40.7016 64.1243C39.763 64.7411 38.8221 65.3541 37.8809 65.9668C35.958 67.0895 35.958 67.0895 34.2188 68.4375C34.315 68.4985 34.4112 68.5595 34.5104 68.6224C36.4622 69.8613 38.4022 71.1147 40.3223 72.4023C41.6218 73.2738 42.9264 74.1321 44.2621 74.9475C45.0962 75.4619 45.9054 76.0162 46.7188 76.5625C46.7194 76.3915 46.72 76.2204 46.7207 76.0442C46.7241 75.4079 46.7326 74.7717 46.7426 74.1354C46.7462 73.8603 46.7485 73.5853 46.7493 73.3102C46.7508 72.9141 46.7572 72.5183 46.7645 72.1222C46.7639 71.9998 46.7633 71.8773 46.7627 71.7512C46.7795 71.1161 46.8238 70.8491 47.218 70.327C47.6622 69.9956 47.9999 69.8316 48.5291 69.6765C48.6985 69.6245 48.8679 69.5725 49.0424 69.5189C49.3134 69.438 49.3134 69.438 49.5898 69.3555C54.1371 67.9128 58.4206 65.5287 61.7188 62.0312C61.9792 61.7708 62.2396 61.5104 62.5 61.25C64.4052 59.3117 65.9107 57.1541 67.1973 54.7638C67.8904 53.5158 67.8904 53.5158 68.2812 53.125C68.5931 53.0933 68.5931 53.0933 68.9746 53.0859C69.1001 53.0819 69.2256 53.0779 69.3549 53.0737C69.4646 53.0906 69.5744 53.1076 69.6875 53.125C70.0778 53.7104 70.1017 54.1661 70 54.8438C69.8284 55.3144 69.5912 55.7321 69.3359 56.1621C69.2312 56.3437 69.2312 56.3437 69.1244 56.529C67.8969 58.618 66.454 60.537 64.8438 62.3438C64.7706 62.4266 64.6974 62.5094 64.622 62.5947C63.7603 63.5672 62.8843 64.4905 61.875 65.3125C61.7104 65.4514 61.5458 65.5904 61.3812 65.7294C59.8661 66.9915 58.2575 68.0575 56.5625 69.0625C56.4128 69.1519 56.4128 69.1519 56.2601 69.2431C55.0118 69.978 53.7093 70.5413 52.3633 71.0742C52.2128 71.1339 52.0623 71.1935 51.9072 71.255C51.6888 71.3389 51.6888 71.3389 51.4661 71.4246C51.3378 71.4739 51.2095 71.5232 51.0773 71.574C50.4666 71.7694 49.846 71.9004 49.2188 72.0312C49.2205 72.1196 49.2222 72.2079 49.224 72.2989C49.2413 73.2189 49.2531 74.139 49.2617 75.0592C49.2656 75.4025 49.2709 75.7457 49.2777 76.089C49.2872 76.5828 49.2916 77.0763 49.295 77.5702C49.2991 77.7234 49.3031 77.8766 49.3073 78.0344C49.3076 78.7675 49.3037 79.1061 48.8512 79.7066C48.4375 80 48.4375 80 47.9926 80.0934C47.3385 79.9694 46.8747 79.6601 46.3379 79.2871C46.1009 79.1281 45.8639 78.9693 45.6268 78.8104C45.5004 78.7247 45.374 78.639 45.2438 78.5506C44.5367 78.0745 43.8203 77.6127 43.1055 77.1484C42.7986 76.9483 42.4918 76.7481 42.1851 76.5479C42.0311 76.4473 41.8771 76.3468 41.7184 76.2433C41.4061 76.0394 41.0939 75.8356 40.7816 75.6317C40.4717 75.4294 40.1617 75.2272 39.8518 75.025C39.5498 74.8279 39.2479 74.6307 38.9461 74.4333C38.2468 73.9765 37.546 73.5224 36.8402 73.0756C36.6527 72.9563 36.6527 72.9563 36.4614 72.8346C36.2287 72.6869 35.9954 72.5401 35.7615 72.3943C35.5023 72.2294 35.2502 72.0533 35 71.875C35 71.7719 35 71.6688 35 71.5625C34.885 71.5197 34.77 71.4769 34.6516 71.4328C34.2452 71.2612 33.9096 71.0701 33.5437 70.8258C33.3603 70.7036 33.3603 70.7036 33.1732 70.5789C33.0477 70.4942 32.9223 70.4095 32.793 70.3223C32.6029 70.1961 32.6029 70.1961 32.4091 70.0674C30.9852 69.1131 30.9852 69.1131 30.8203 68.3984C30.9723 67.6386 31.2218 67.4788 31.839 67.0441C32.6315 66.5333 33.4285 66.0299 34.229 65.5318C34.8483 65.1449 35.4507 64.7615 36.0156 64.2969C36.7655 63.6856 37.5859 63.1945 38.406 62.6844C39.5616 61.9622 40.6948 61.2085 41.8262 60.4492C43.1755 59.5442 44.531 58.6534 45.9161 57.804C46.2523 57.5955 46.5836 57.3791 46.9104 57.1564C47.3964 56.8408 47.7027 56.7311 48.2812 56.7188C48.9946 57.0516 48.9946 57.0516 49.2188 57.5C49.2429 57.8401 49.2578 58.1809 49.2682 58.5217C49.2747 58.7252 49.2813 58.9286 49.288 59.1382C49.2942 59.3538 49.3005 59.5695 49.3066 59.7852C49.3134 60.002 49.3202 60.2189 49.3271 60.4358C49.3437 60.9676 49.3596 61.4994 49.375 62.0312C52.143 60.65 54.4941 59.1783 56.7188 57.0312C56.8519 56.908 56.985 56.7847 57.1222 56.6577C59.6198 54.2821 61.1867 51.2681 62.5 48.125C63.22 46.4353 63.22 46.4352 63.877 46.3477Z" fill="#010000"/>
<path d="M11.6012 30.8203C12.361 30.9723 12.5209 31.2218 12.9556 31.839C13.4663 32.6315 13.9697 33.4285 14.4678 34.229C14.8547 34.8483 15.2381 35.4507 15.7028 36.0156C16.3483 36.8041 16.865 37.6752 17.4035 38.5381C17.8958 39.3267 18.3966 40.1076 18.9156 40.8789C19.5371 41.8035 20.1479 42.7345 20.75 43.6718C21.1253 44.2558 21.5045 44.8367 21.8911 45.4132C21.9701 45.5321 22.049 45.6509 22.1304 45.7734C22.2814 46.0004 22.4336 46.2267 22.5872 46.452C22.987 47.0568 23.2484 47.536 23.2809 48.2812C23.0856 48.7207 23.0856 48.7207 22.8121 49.0625C22.2875 49.2374 21.8931 49.2365 21.3406 49.234C21.0468 49.2333 21.0468 49.2333 20.747 49.2325C20.5423 49.2312 20.3375 49.2299 20.1266 49.2285C19.9179 49.2277 19.7093 49.227 19.5007 49.2264C18.9899 49.2245 18.4791 49.222 17.9684 49.2188C20.6794 55.4056 25.3369 59.8215 31.575 62.3429C31.7087 62.3976 31.8425 62.4522 31.9802 62.5085C32.0993 62.5561 32.2184 62.6036 32.3411 62.6525C32.6793 62.8244 32.8864 62.9869 33.1246 63.2812C33.2339 63.9093 33.1733 64.1473 32.8121 64.6777C32.2721 65.049 32.0502 65.0122 31.4216 64.913C27.5013 64.086 23.8111 61.0705 21.0934 58.2812C21.0082 58.2031 20.923 58.125 20.8352 58.0444C18.3243 55.6824 15.4024 51.4296 14.9313 47.9297C15.0201 47.3714 15.1828 47.2209 15.6246 46.875C16.0829 46.804 16.0829 46.804 16.6085 46.814C16.891 46.817 16.891 46.817 17.1792 46.8201C17.3752 46.8253 17.5712 46.8305 17.7731 46.8359C17.9715 46.8388 18.1699 46.8416 18.3743 46.8445C18.8641 46.8518 19.3537 46.8621 19.8434 46.875C18.6441 44.9244 17.3934 43.0083 16.137 41.0941C15.6503 40.3522 15.1658 39.6088 14.6818 38.8652C13.9133 37.6845 13.1433 36.5049 12.3629 35.332C12.2666 35.187 12.2666 35.187 12.1683 35.0389C11.8917 34.608 11.8917 34.608 11.5621 34.2188C11.4946 34.3248 11.427 34.4309 11.3574 34.5401C9.0806 38.1126 9.0806 38.1126 8.04762 39.6494C7.51608 40.4409 6.9976 41.2404 6.48088 42.0416C5.82439 43.0592 5.16336 44.0737 4.50159 45.0879C4.34397 45.3294 4.34397 45.3294 4.18317 45.5759C3.93453 45.9569 3.68585 46.3378 3.43713 46.7188C3.60817 46.7194 3.77921 46.72 3.95544 46.7207C4.59178 46.7241 5.22797 46.7326 5.86423 46.7426C6.13929 46.7462 6.41436 46.7485 6.68943 46.7493C7.08557 46.7508 7.48137 46.7572 7.87744 46.7645C8.06108 46.7636 8.06108 46.7636 8.24843 46.7627C8.88353 46.7795 9.15052 46.8238 9.6726 47.218C10.0041 47.6622 10.1681 47.9999 10.3231 48.5291C10.3751 48.6985 10.4272 48.8679 10.4808 49.0424C10.5617 49.3134 10.5617 49.3134 10.6442 49.5898C11.8487 53.3866 13.6379 56.8199 16.2496 59.8438C16.3544 59.9656 16.4591 60.0875 16.567 60.213C16.9232 60.6176 17.2872 61.013 17.6559 61.4062C17.7277 61.4834 17.7995 61.5605 17.8736 61.64C19.9213 63.8217 22.2633 65.4817 24.8331 66.9958C25.1718 67.1969 25.5084 67.4008 25.8438 67.6074C25.9442 67.6693 26.0447 67.7311 26.1483 67.7948C26.4059 67.9688 26.4059 67.9688 26.7184 68.2812C26.8047 69.2311 26.8047 69.2311 26.5426 69.668C26.1271 69.9173 25.7955 69.9614 25.3121 70C22.4307 69.0333 19.751 66.7148 17.5485 64.7015C17.2418 64.4244 16.9299 64.1591 16.611 63.8965C16.0074 63.3811 15.5107 62.7926 14.9996 62.1875C14.809 61.9733 14.809 61.9733 14.6145 61.7548C13.3995 60.3786 12.3831 58.8958 11.4059 57.3438C11.3461 57.2493 11.2862 57.1549 11.2246 57.0576C9.95674 55.0307 7.96838 51.6748 7.96838 49.2188C7.88007 49.2205 7.79176 49.2222 7.70078 49.224C6.7807 49.2413 5.86067 49.2531 4.94047 49.2617C4.59718 49.2656 4.2539 49.2709 3.91065 49.2777C3.41688 49.2872 2.92329 49.2916 2.42944 49.295C2.27626 49.2991 2.12307 49.3031 1.96524 49.3073C1.23216 49.3076 0.893582 49.3037 0.29306 48.8512C-0.000366211 48.4375 -0.000366211 48.4375 -0.09375 47.9926C0.0302488 47.3385 0.339534 46.8747 0.712524 46.3379C0.871486 46.1009 1.03038 45.8639 1.18921 45.6268C1.27494 45.5004 1.36066 45.374 1.44899 45.2438C1.92515 44.5367 2.38694 43.8203 2.8512 43.1055C3.05131 42.7986 3.2515 42.4918 3.45178 42.1851C3.55229 42.0311 3.6528 41.8771 3.75635 41.7184C3.96021 41.4061 4.16406 41.0939 4.36792 40.7816C4.57019 40.4717 4.77244 40.1617 4.97465 39.8518C5.17173 39.5498 5.36895 39.2479 5.56631 38.9461C6.02317 38.2468 6.47723 37.546 6.92407 36.8402C7.00358 36.7152 7.08309 36.5902 7.16501 36.4614C7.31274 36.2287 7.45958 35.9954 7.60538 35.7615C7.77028 35.5023 7.94632 35.2502 8.12463 35C8.22776 35 8.33088 35 8.43713 35C8.47995 34.885 8.52276 34.77 8.56687 34.6516C8.73846 34.2452 8.92956 33.9096 9.17383 33.5437C9.2553 33.4214 9.33677 33.2992 9.42072 33.1732C9.50541 33.0477 9.59011 32.9223 9.67737 32.793C9.76146 32.6663 9.84555 32.5396 9.93219 32.4091C10.8865 30.9852 10.8865 30.9852 11.6012 30.8203Z" fill="#000101"/>
<path d="M51.3066 27.5879C54.7186 30.715 56.476 34.9914 56.7454 39.5477C56.8482 44.0275 55.1647 48.303 52.1421 51.6009C48.8979 54.904 44.5952 56.6523 39.998 56.7578C35.4007 56.6523 31.098 54.904 27.8538 51.6009C24.8312 48.303 23.1478 44.0275 23.2505 39.5477C23.5199 34.9914 25.2773 30.715 28.6894 27.5879C35.3874 21.9421 44.6086 21.9421 51.3066 27.5879ZM33.4355 27.1875C33.2788 27.2676 33.1221 27.3478 32.9606 27.4304C31.6892 28.117 30.6999 28.9869 29.6855 30C29.558 30.1257 29.4305 30.2514 29.2991 30.3808C26.7789 33.0091 25.5041 36.7544 25.5389 40.3624C25.6948 44.4354 27.4966 48.0269 30.4301 50.8087C33.4018 53.4903 37.343 54.5697 41.2735 54.409C45.0782 54.1169 48.5136 52.1094 51.0324 49.3165C53.4918 46.4193 54.6407 42.5922 54.4085 38.8305C54.2341 36.9019 53.7368 35.1425 52.8105 33.4375C52.7303 33.2808 52.6501 33.1241 52.5676 32.9626C51.8809 31.6912 51.011 30.7019 49.998 29.6875C49.8723 29.56 49.7466 29.4325 49.6171 29.3011C46.9759 26.7685 43.2364 25.5114 39.6149 25.5512C37.4145 25.6295 35.3743 26.1341 33.4355 27.1875Z" fill="#010100"/>
<path d="M48.4875 28.3202C51.7022 30.8964 53.8666 34.2896 54.3761 38.4374C54.718 42.183 53.688 45.9815 51.3238 48.9318C48.7403 51.9043 45.3342 54.0531 41.3284 54.4098C38.673 54.5687 36.1482 54.1449 33.7511 52.9687C33.5327 52.8626 33.5327 52.8626 33.3099 52.7544C29.8927 50.9958 27.4965 47.9665 26.2511 44.3749C25.1203 40.8388 25.3966 37.0836 27.0324 33.7499C27.1031 33.6043 27.1738 33.4587 27.2466 33.3086C28.9333 30.0312 31.8938 27.5651 35.3429 26.3085C39.8607 24.9311 44.6121 25.5492 48.4875 28.3202ZM30.3527 32.0214C28.1138 34.5908 27.3378 37.7521 27.5011 41.0937C27.612 42.6756 28.1017 44.0399 28.7511 45.4687C28.8202 45.622 28.8893 45.7752 28.9605 45.9331C30.4245 48.8824 33.2404 50.9312 36.2823 51.9909C38.586 52.7631 41.1185 52.7547 43.4386 52.0312C43.6538 51.9659 43.6538 51.9659 43.8732 51.8993C45.9495 51.2072 47.5433 50.1293 49.0636 48.5937C49.2374 48.4251 49.2374 48.4251 49.4146 48.2531C51.6713 45.9216 52.5597 42.624 52.5597 39.4569C52.4783 36.2204 50.983 33.37 48.7511 31.0937C48.6377 30.9746 48.5243 30.8556 48.4075 30.733C46.0616 28.4348 42.8518 27.4366 39.6292 27.464C35.8573 27.545 32.8929 29.3113 30.3527 32.0214Z" fill="#F8A212"/>
<path d="M10.625 35.4688C10.7281 35.4688 10.8312 35.4688 10.9375 35.4688C10.9262 35.5948 10.9149 35.7209 10.9033 35.8508C10.2471 44.4368 12.0191 52.4023 17.6657 59.0788C18.0716 59.5492 18.4867 60.0106 18.9062 60.4688C19.0691 60.6485 19.0691 60.6485 19.2352 60.8319C20.0898 61.7302 21.0749 62.4769 22.0614 63.2232C22.2414 63.3598 22.4206 63.4975 22.5986 63.6366C24.813 65.3651 27.4026 66.7604 30.0926 67.5792C30.4181 67.6886 30.4181 67.6886 30.9375 67.9688C31.1218 68.5083 31.1218 68.5083 31.25 69.0625C31.5783 69.414 31.5783 69.414 32.002 69.6777C32.1538 69.7809 32.3057 69.884 32.4622 69.9902C33.1741 70.4431 33.8909 70.8863 34.6161 71.3177C34.8061 71.4389 34.8061 71.4389 35 71.5625C35 71.6141 35 71.6656 35 71.7188C32.8391 71.6653 28.2754 70.9316 26.7188 69.375C26.7059 69.2042 26.693 69.0334 26.6797 68.8574C26.5341 68.1415 26.3697 68.0651 25.7812 67.6562C25.3998 67.4301 25.01 67.2211 24.6191 67.0117C17.5083 63.0945 12.6683 56.4609 10.2127 48.8316C10.1509 48.6433 10.0892 48.4551 10.0256 48.2611C9.97158 48.0918 9.91752 47.9225 9.86183 47.7481C9.71138 47.2982 9.71138 47.2982 9.21875 47.0312C8.76616 46.9936 8.32729 46.973 7.87415 46.9666C7.74302 46.9635 7.61189 46.9605 7.47679 46.9574C7.05811 46.948 6.63943 46.9408 6.2207 46.9336C5.93679 46.9276 5.65287 46.9215 5.36896 46.9153C4.67308 46.9003 3.97719 46.8871 3.28125 46.875C3.74129 46.0247 4.21999 45.2023 4.76562 44.4043C4.90353 44.1999 5.04125 43.9955 5.17883 43.7909C5.25127 43.6832 5.3237 43.5755 5.39833 43.4646C5.80173 42.8602 6.19656 42.2503 6.5918 41.6406C6.7631 41.3765 6.93441 41.1125 7.10571 40.8484C7.23842 40.6438 7.23842 40.6438 7.37381 40.435C7.88685 39.6448 8.40142 38.8556 8.91602 38.0664C9.01465 37.915 9.11328 37.7637 9.2149 37.6077C9.39711 37.3283 9.57967 37.0491 9.76265 36.7702C9.90869 36.5462 10.0532 36.3213 10.1952 36.0948C10.3307 35.881 10.4765 35.6738 10.625 35.4688Z" fill="#2B5582"/>
<path d="M71.7188 44.8438C72.0109 45.428 71.7066 46.1317 71.5723 46.748C71.5378 46.9067 71.5032 47.0654 71.4677 47.2289C70.4279 51.7837 70.4279 51.7837 69.375 53.125C69.201 53.1411 69.027 53.1572 68.8477 53.1738C68.3004 53.221 68.3004 53.221 68.0804 53.49C67.8692 53.8294 67.6841 54.1763 67.5 54.5312C66.212 56.8723 64.7184 58.9217 62.9688 60.9375C62.8027 61.1393 62.6366 61.3411 62.4707 61.543C62.0564 62.0247 61.5941 62.4342 61.1096 62.8442C60.8963 63.0266 60.6868 63.2137 60.4822 63.4058C58.631 65.1354 56.4586 66.4912 54.2188 67.6562C54.0477 67.7469 53.8767 67.8375 53.7006 67.9309C52.1477 68.7046 50.5103 69.2375 48.8634 69.7714C48.6719 69.8347 48.4804 69.8981 48.2831 69.9634C48.1098 70.0194 47.9365 70.0755 47.758 70.1332C47.2993 70.2872 47.2993 70.2872 47.0313 70.7812C46.9936 71.2338 46.973 71.6727 46.9666 72.1259C46.9635 72.257 46.9605 72.3881 46.9574 72.5232C46.948 72.9419 46.9408 73.3606 46.9336 73.7793C46.9276 74.0632 46.9215 74.3471 46.9153 74.631C46.9003 75.3269 46.8871 76.0228 46.875 76.7188C45.8667 76.1386 44.8682 75.5568 43.9063 74.9023C43.7068 74.7677 43.5072 74.6332 43.3075 74.4989C43.1505 74.3933 43.1505 74.3933 42.9903 74.2855C42.3781 73.8768 41.7602 73.4767 41.1426 73.0762C40.9469 72.9492 40.9469 72.9492 40.7472 72.8197C40.4791 72.6459 40.2109 72.472 39.9427 72.2982C39.5218 72.0251 39.1014 71.7515 38.681 71.4777C38.5421 71.3872 38.4032 71.2967 38.26 71.2035C37.9961 71.0316 37.7323 70.8597 37.4685 70.6877C36.7029 70.1895 35.9327 69.6998 35.1562 69.2188C35.7821 69.037 36.2383 69.1152 36.8848 69.2188C39.8716 69.6254 42.9863 69.2888 45.9375 68.75C46.0479 68.731 46.1584 68.7119 46.2721 68.6923C53.4622 67.4136 59.9315 62.6536 64.1035 56.8035C65.5633 54.7041 66.7589 52.3717 67.5781 49.9512C67.7655 49.4464 67.7655 49.4464 67.9688 49.0625C68.4863 48.8867 68.4863 48.8867 69.0625 48.75C69.5518 48.2277 69.9255 47.6316 70.3125 47.0312C70.4431 46.8312 70.5737 46.6312 70.7043 46.4313C71.0466 45.9046 71.3837 45.375 71.7188 44.8438Z" fill="#D70D16"/>
<path d="M45.1562 8.28125C46.5971 8.35211 47.9399 8.7167 49.3198 9.11377C49.5554 9.18103 49.7915 9.24632 50.0284 9.30908C50.3331 9.39025 50.6354 9.48006 50.9375 9.57031C51.1083 9.61946 51.2791 9.6686 51.4551 9.71924C51.944 10.0461 51.943 10.1384 52.0795 10.683C52.2017 11.1215 52.2706 11.3466 52.6264 11.6369C52.9978 11.8318 53.3722 11.9979 53.7598 12.1582C55.9789 13.1692 57.9967 14.4984 59.8438 16.0938C59.9656 16.1985 60.0875 16.3032 60.213 16.4111C62.0496 18.0281 63.7155 19.7391 65.1562 21.7188C65.2208 21.8068 65.2854 21.8948 65.3519 21.9855C67.3831 24.7918 68.757 27.8831 69.8609 31.1517C70.1275 32.2152 70.1275 32.2152 70.7812 32.9688C71.2253 32.9933 71.6662 33.0091 72.1106 33.0182C72.2419 33.0214 72.3733 33.0247 72.5086 33.028C72.9289 33.0383 73.3492 33.0475 73.7695 33.0566C74.0542 33.0634 74.3388 33.0702 74.6234 33.0771C75.3218 33.0938 76.0203 33.1097 76.7188 33.125C76.2587 33.9753 75.78 34.7977 75.2344 35.5957C75.0965 35.8001 74.9587 36.0045 74.8212 36.2091C74.7487 36.3168 74.6763 36.4245 74.6017 36.5354C74.1983 37.1398 73.8034 37.7497 73.4082 38.3594C72.8468 39.2252 72.2849 40.0907 71.7206 40.9546C71.6162 41.1144 71.5118 41.2742 71.4042 41.4389C71.2025 41.7476 71.0007 42.0562 70.7988 42.3648C70.2627 43.1856 69.7352 44.0105 69.2188 44.8438C69.0477 44.3306 69.1016 43.9946 69.1764 43.4679C69.2444 42.9171 69.2471 42.3684 69.2505 41.814C69.2516 41.6924 69.2527 41.5708 69.2538 41.4455C69.2565 41.0548 69.2575 40.6641 69.2578 40.2734C69.2579 40.14 69.258 40.0065 69.2581 39.869C69.2557 37.8949 69.1839 35.9952 68.75 34.0625C68.711 33.8753 68.711 33.8753 68.6713 33.6842C67.1043 26.2296 62.5072 19.7495 56.2326 15.505C54.2809 14.232 52.1568 13.1684 49.9512 12.4219C49.4464 12.2345 49.4464 12.2345 49.0625 12.0312C48.8867 11.5137 48.8867 11.5137 48.75 10.9375C47.8346 10.0922 46.704 9.4656 45.6433 8.81958C45.3125 8.59375 45.3125 8.59375 45.1562 8.28125Z" fill="#13B440"/>
<path d="M33.125 3.28125C33.986 3.74663 34.8171 4.23301 35.625 4.78516C35.8306 4.92386 36.0363 5.06241 36.2421 5.20081C36.3469 5.27133 36.4517 5.34185 36.5597 5.41451C37.0681 5.75391 37.5818 6.08505 38.0957 6.41602C38.9187 6.94639 39.7399 7.47943 40.5591 8.01575C40.6938 8.10394 40.6938 8.10394 40.8312 8.19391C41.279 8.48712 41.7267 8.78053 42.1743 9.07413C43.0582 9.65319 43.9449 10.2256 44.8438 10.7812C44.3119 10.9807 43.8572 10.9034 43.3047 10.824C42.7638 10.7552 42.2245 10.7498 41.6797 10.744C41.4998 10.7417 41.4998 10.7417 41.3164 10.7394C37.4193 10.6999 33.8608 11.0603 30.1562 12.3438C30.0544 12.3787 29.9525 12.4137 29.8476 12.4497C22.4945 15.0339 16.751 20.656 13.3954 27.5968C12.9834 28.4629 12.617 29.306 12.334 30.2246C12.1942 30.6342 12.1942 30.6342 12.0312 30.9375C11.6688 31.049 11.3039 31.1523 10.9375 31.25C10.0225 32.2273 9.36495 33.4685 8.68225 34.6161C8.5611 34.8061 8.5611 34.8061 8.4375 35C8.38594 35 8.33438 35 8.28125 35C8.32089 33.3962 8.64962 31.4508 9.375 30C9.78884 29.9073 10.2019 29.884 10.625 29.8438C10.6848 29.6502 10.7446 29.4566 10.8063 29.2572C12.294 24.8098 15.2924 20.176 18.9069 17.1393C19.1144 16.9634 19.3176 16.7822 19.516 16.5961C22.833 13.4955 27.2226 11.237 31.5747 10.022C31.7157 9.9825 31.8567 9.94302 32.002 9.90234C32.1222 9.87133 32.2424 9.84031 32.3663 9.80835C32.7139 9.69493 32.7139 9.69493 32.9688 9.21875C33.0064 8.76616 33.027 8.32729 33.0334 7.87415C33.0365 7.74302 33.0395 7.61189 33.0426 7.47679C33.052 7.05811 33.0592 6.63943 33.0664 6.2207C33.0724 5.93679 33.0785 5.65287 33.0847 5.36896C33.0997 4.67308 33.1129 3.97719 33.125 3.28125Z" fill="#F7C400"/>
<path d="M34.531 31.25C34.6341 31.3016 34.7372 31.3531 34.8435 31.4062C34.7226 31.5162 34.6018 31.6262 34.4772 31.7395C32.1169 33.951 30.976 36.5717 30.7888 39.807C30.7445 41.7753 31.2555 43.7483 32.189 45.4694C32.3434 45.7812 32.3434 45.7812 32.3434 46.0938C32.4466 46.0938 32.5497 46.0938 32.6559 46.0938C32.8641 46.3684 32.8641 46.3684 33.0954 46.7383C33.4863 47.3462 33.9002 47.8932 34.3747 48.4375C32.3226 47.4932 31.1353 45.4375 30.3122 43.4375C30.227 43.2481 30.227 43.2481 30.1401 43.0548C29.3473 40.8041 29.6094 37.7456 30.6247 35.625C31.5605 33.8392 32.8975 32.4162 34.531 31.25Z" fill="#F3C100"/>
<path d="M26.4079 35.1562C26.511 35.2078 26.6142 35.2594 26.7204 35.3125C26.6358 35.9471 26.5314 36.5708 26.4055 37.1985C25.8364 40.3274 26.1768 44.3875 27.9259 47.1405C27.9921 47.2591 28.0584 47.3778 28.1267 47.5C28.0751 47.6547 28.0235 47.8094 27.9704 47.9688C27.0614 46.3988 26.4063 44.8782 25.9392 43.125C25.9007 42.9947 25.8622 42.8644 25.8226 42.7301C25.1947 40.2661 25.6171 37.5286 26.4079 35.1562Z" fill="#DB8E08"/>
<path d="M26.2503 42.6562C26.3018 42.6562 26.3534 42.6562 26.4065 42.6562C26.452 42.8488 26.4976 43.0414 26.5445 43.2397C26.8871 44.6388 27.2393 45.8937 27.9629 47.1484C28.1253 47.5 28.1253 47.5 27.969 47.9688C25.8353 44.1778 25.8353 44.1778 26.2503 42.6562Z" fill="#E59509"/>
</g>
<defs>
<clipPath id="clip0_7017_5633">
<rect width="80" height="80" fill="white"/>
</clipPath>
</defs>
</svg>
