<svg width="80" height="80" viewBox="0 0 80 80" fill="none" xmlns="http://www.w3.org/2000/svg"><g clip-path="url(#clip0_7017_5633)"><path d="M32 -0.1C32.7 0 33.1 0.3 33.7 0.7C33.9 0.9 34.2 1.1 34.4 1.2C34.5 1.3 34.7 1.4 34.8 1.5C35.4 1.9 36 2.3 36.7 2.7C36.9 2.9 37.2 3 37.5 3.2C37.6 3.3 37.7 3.4 37.9 3.5C38.4 3.9 39 4.2 39.6 4.6C39.9 4.8 40.2 5 40.5 5.2C41.3 5.7 42 6.2 42.7 6.7C44.3 7.9 45.8 8.4 47.8 8.7C49.3 9 50.6 9.5 52 10C52.1 9.9 52.2 9.9 52.2 9.8C52.6 9.4 52.8 9.4 53.3 9.4C56.7 10.4 59.7 12.9 62.3 15.2C62.4 15.2 62.5 15.3 62.6 15.4C63.5 16.2 64.4 17 65.2 18C65.3 18.1 65.4 18.2 65.5 18.4C68.5 21.8 71.1 26.2 72 30.8C72.2 30.8 72.2 30.8 72.3 30.8C73.2 30.8 74.1 30.7 75.1 30.7C75.4 30.7 75.7 30.7 76.1 30.7C76.6 30.7 77.1 30.7 77.6 30.7C77.8 30.7 77.8 30.7 78 30.7C78.8 30.7 79.1 30.7 79.7 31.1C80 31.6 80 31.6 80.1 32C80 32.7 79.7 33.1 79.3 33.7C79.1 33.9 79 34.1 78.8 34.4C78.7 34.5 78.6 34.6 78.6 34.8C78.1 35.5 77.6 36.2 77.1 36.9C76.9 37.2 76.7 37.5 76.5 37.8C76.2 38.4 75.8 39 75.4 39.6C75.3 39.8 75.3 39.8 75.1 40C75 40.2 74.8 40.5 74.6 40.8C74.2 41.4 73.8 42 73.4 42.5C72.1 44.3 71.6 46 71.2 48.1C71 49.1 70.7 50.1 70.3 51C70.3 51.2 70.3 51.3 70.2 51.4C70 51.9 69.8 52.5 69.5 53C69.6 53 69.7 53.1 69.8 53.2C70.1 53.7 70.1 54.2 70 54.8C69.8 55.3 69.6 55.7 69.3 56.2C69.3 56.3 69.2 56.4 69.1 56.5C67.9 58.6 66.5 60.5 64.8 62.3C64.8 62.4 64.7 62.5 64.6 62.6C63.8 63.6 62.9 64.5 61.9 65.3C61.7 65.5 61.5 65.6 61.4 65.7C59.9 67 58.3 68.1 56.6 69.1C56.4 69.2 56.4 69.2 56.3 69.2C55 70 53.7 70.5 52.4 71.1C52.2 71.1 52.1 71.2 51.9 71.3C51.8 71.3 51.6 71.4 51.5 71.4C51.3 71.5 51.3 71.5 51.1 71.6C50.5 71.8 49.8 71.9 49.2 72C49.2 72.1 49.2 72.2 49.2 72.3C49.2 73.2 49.3 74.1 49.3 75.1C49.3 75.4 49.3 75.7 49.3 76.1C49.3 76.6 49.3 77.1 49.3 77.6C49.3 77.7 49.3 77.9 49.3 78C49.3 78.8 49.3 79.1 48.9 79.7C48.4 80 48.4 80 48 80.1C47.3 80 46.9 79.7 46.3 79.3C46.1 79.1 45.9 79 45.6 78.8C45.5 78.7 45.4 78.6 45.2 78.6C44.5 78.1 43.8 77.6 43.1 77.1C42.8 76.9 42.5 76.7 42.2 76.5C42 76.4 41.9 76.3 41.7 76.2C41.4 76 41.1 75.8 40.8 75.6C40.6 75.5 40.5 75.4 40.3 75.3C40.2 75.2 40 75.1 39.9 75C39.5 74.8 39.2 74.6 38.9 74.4C38.3 74 37.6 73.6 36.9 73.1C35.7 72.2 34.7 71.7 33.2 71.5C31.9 71.3 30.8 70.9 29.6 70.5C29.5 70.5 29.3 70.4 29.1 70.4C28.2 70.1 27.4 69.7 26.6 69.4C26.6 69.5 26.6 69.6 26.6 69.7C26.1 70 25.7 70 25.2 69.9C24.5 69.8 24 69.4 23.4 69.1C23.3 69 23.2 68.9 23 68.8C21.1 67.7 19.4 66.3 17.7 64.8C17.5 64.7 17.4 64.6 17.2 64.5C16.4 63.8 15.7 63 15 62.2C14.9 62 14.7 61.9 14.6 61.8C13.4 60.4 12.4 58.9 11.4 57.3C11.3 57.2 11.3 57.2 11.2 57.1C10 55 8 51.7 8 49.2C7.9 49.2 7.8 49.2 7.7 49.2C6.8 49.2 5.9 49.3 4.9 49.3C4.6 49.3 4.3 49.3 3.9 49.3C3.4 49.3 2.9 49.3 2.4 49.3C2.3 49.3 2.1 49.3 2 49.3C1.2 49.3 0.9 49.3 0.3 48.9C-0 48.4 -0 48.4 -0.1 48C0 47.3 0.3 46.9 0.7 46.3C0.9 46.1 1 45.9 1.2 45.6C1.3 45.5 1.4 45.4 1.4 45.2C1.9 44.5 2.4 43.8 2.9 43.1C3.1 42.8 3.3 42.5 3.5 42.2C3.6 42 3.7 41.9 3.8 41.7C4 41.4 4.2 41.1 4.4 40.8C4.5 40.6 4.6 40.5 4.7 40.3C4.8 40.2 4.9 40 5 39.9C5.2 39.5 5.4 39.2 5.6 38.9C6 38.3 6.4 37.6 6.9 37C8 35.4 8.4 34.1 8.7 32.2C8.8 31.5 9.1 30.7 9.4 30C9.3 30 9.2 29.9 9.1 29.9C8.7 29.7 8.7 29.7 8.6 29.4C8.5 28.7 8.6 28.2 8.9 27.6C9 27.4 9.1 27.3 9.1 27.1C9.2 26.9 9.3 26.8 9.4 26.6C9.4 26.4 9.5 26.2 9.6 26.1C11.2 22.6 13.4 19.6 15.9 16.8C16 16.7 16.1 16.6 16.2 16.5C19.4 13 23.6 10.6 27.9 8.8C28 8.8 28.1 8.7 28.3 8.7C28.4 8.6 28.5 8.6 28.6 8.5C28.7 8.5 28.9 8.5 29 8.4C29.6 8.2 30.2 8.1 30.8 8C30.8 7.9 30.8 7.8 30.8 7.7C30.8 6.8 30.7 5.9 30.7 4.9C30.7 4.6 30.7 4.3 30.7 3.9C30.7 3.4 30.7 2.9 30.7 2.4C30.7 2.3 30.7 2.1 30.7 2C30.7 1.2 30.7 0.9 31.1 0.3C31.6 -0 31.6 -0 32 -0.1ZM42.4 16.6C41.8 17.1 41.2 17.4 40.5 17.8C40.3 18 40 18.2 39.7 18.4C39.5 18.5 39.5 18.5 39.3 18.6C38.7 19 38.1 19.4 37.5 19.8C37.2 20 36.9 20.2 36.6 20.4C35.9 20.9 35.2 21.3 34.5 21.8C34.4 21.9 34.3 21.9 34.2 22C33.9 22.2 33.7 22.3 33.5 22.5C33 22.8 32.5 23.1 31.9 23.1C31.4 23 31.4 23 31.1 22.8C30.9 22.4 30.9 22 30.9 21.5C30.9 21.3 30.9 21.1 30.9 20.9C30.9 20.6 30.9 20.4 30.8 20.2C30.8 20 30.8 19.8 30.8 19.6C30.8 19 30.8 18.5 30.8 18C30 18.1 29.4 18.4 28.8 18.7C28.6 18.8 28.5 18.9 28.4 18.9C26.4 20 24.7 21.4 23 23.1C22.8 23.3 22.6 23.5 22.4 23.7C19.8 26.1 18.4 29.4 17.1 32.7C16.9 33.1 16.7 33.4 16.4 33.7C16 33.8 16 33.8 15.6 33.9C15.4 34.5 15.3 35 15.3 35.6C15.7 36.4 16.1 37 16.6 37.6C17.1 38.3 17.6 39 18 39.7C18.2 40 18.4 40.3 18.6 40.6C18.8 41 19 41.3 19.2 41.6C19.5 42 19.8 42.4 20 42.8C20.2 43.1 20.4 43.3 20.5 43.6C20.9 44.2 21.3 44.8 21.8 45.4C21.8 45.6 21.9 45.7 22 45.8C22.1 46 22.3 46.3 22.4 46.5C22.8 47.1 23.1 47.5 23.1 48.3C23 48.6 23 48.6 22.8 48.9C22.3 49.1 21.9 49.1 21.3 49.1C21 49.1 21 49.1 20.7 49.1C20.5 49.1 20.3 49.1 20.1 49.2C19.9 49.2 19.7 49.2 19.5 49.2C19 49.2 18.5 49.2 18 49.2C18.1 50 18.4 50.6 18.7 51.2C18.8 51.4 18.8 51.4 18.9 51.6C20 53.5 21.3 55.1 22.8 56.7C23 56.9 23 56.9 23.2 57.2C25.6 59.6 28.5 61.2 31.6 62.5C31.8 62.6 31.8 62.6 32 62.7C32.1 62.7 32.2 62.8 32.4 62.8C32.7 63 32.7 63 33 63.3C33 63.5 33 63.5 33 63.7C33.2 64.3 33.2 64.3 33.7 64.4C35 64.7 35 64.7 36.1 64.3C36.3 64.2 36.4 64.2 36.5 64.1C36.7 64 36.9 63.9 37 63.8C37.2 63.7 37.3 63.6 37.5 63.4C37.7 63.3 37.9 63.2 38 63.1C39.4 62.2 40.8 61.3 42.2 60.4C43.4 59.6 44.6 58.7 45.9 58C46.3 57.8 46.6 57.5 46.9 57.3C47.4 57 47.7 56.9 48.3 56.9C48.7 57 48.9 57.1 49.1 57.5C49.1 57.9 49.1 58.2 49.1 58.6C49.1 58.7 49.1 58.8 49.1 58.9C49.1 59.2 49.1 59.5 49.1 59.9C49.2 60.1 49.2 60.3 49.2 60.5C49.2 61.1 49.2 61.6 49.2 62.2C55.6 59.4 60 54.5 62.7 48.1C62.7 48 62.8 47.8 62.8 47.7C63.1 47 63.1 47 63.3 46.7C63.5 46.7 63.7 46.6 63.8 46.5C64.4 46.3 64.4 46.3 64.6 45.9C64.8 45.1 64.8 44.6 64.4 43.8C64.1 43.3 63.7 42.8 63.4 42.4C62.9 41.8 62.6 41.2 62.2 40.5C62 40.3 61.8 40 61.6 39.7C61.6 39.6 61.5 39.5 61.4 39.3C61 38.7 60.6 38.1 60.2 37.5C60 37.2 59.8 36.9 59.6 36.6C59.1 35.9 58.7 35.2 58.2 34.5C58.1 34.4 58.1 34.3 58 34.2C57.8 33.9 57.7 33.7 57.5 33.5C57.1 32.8 56.8 32.2 56.9 31.3C57 31.3 57 31.2 57 31.1C57.6 30.9 58.1 30.9 58.7 30.9C58.9 30.9 59.1 30.9 59.3 30.9C59.5 30.9 59.7 30.9 59.9 30.8C60.2 30.8 60.2 30.8 60.5 30.8C61 30.8 61.5 30.8 62 30.8C61.9 30 61.6 29.4 61.3 28.8C61.2 28.6 61.1 28.5 61.1 28.4C60 26.5 58.7 24.9 57.2 23.3C57.1 23.1 56.9 23 56.8 22.8C54.3 20.2 51.1 18.4 47.7 17.2C47 16.9 47 16.9 46.7 16.7C46.7 16.5 46.6 16.3 46.5 16.2C46.3 15.6 46.3 15.6 45.9 15.4C44.4 15 43.5 15.8 42.4 16.6Z" fill="#BFFFD1"/><path d="M51.3 27.6C54.7 30.7 56.5 35 56.7 39.5C56.8 44 55.2 48.3 52.1 51.6C48.9 54.9 44.6 56.7 40 56.8C35.4 56.7 31.1 54.9 27.9 51.6C24.8 48.3 23.1 44 23.3 39.5C23.5 35 25.3 30.7 28.7 27.6C35.4 21.9 44.6 21.9 51.3 27.6Z" fill="#050400"/><path d="M11.6 30.8C12.4 31 12.5 31.2 13 31.8C13.5 32.6 14 33.4 14.5 34.2C14.9 34.8 15.2 35.5 15.7 36C16.3 36.8 16.9 37.7 17.4 38.5C17.9 39.3 18.4 40.1 18.9 40.9C19.5 41.8 20.1 42.7 20.8 43.7C21.1 44.3 21.5 44.8 21.9 45.4C22 45.5 22 45.7 22.1 45.8C22.3 46 22.4 46.2 22.6 46.5C23 47.1 23.2 47.5 23.3 48.3C23.1 48.7 23.1 48.7 22.8 49.1C22.3 49.2 21.9 49.2 21.3 49.2C21 49.2 21 49.2 20.7 49.2C20.5 49.2 20.3 49.2 20.1 49.2C19.9 49.2 19.7 49.2 19.5 49.2C19 49.2 18.5 49.2 18 49.2C20.7 55.4 25.3 59.8 31.6 62.3C31.7 62.4 31.8 62.5 32 62.5C32.1 62.6 32.2 62.6 32.3 62.7C32.7 62.8 32.9 63 33.1 63.3C33.2 63.7 33.2 63.7 33.3 64.1C33.6 64.1 33.9 64.2 34.2 64.3C34.3 64.4 34.5 64.4 34.7 64.4C35.5 64.6 35.9 64.3 36.5 63.9C36.7 63.8 36.9 63.7 37 63.6C37.3 63.5 37.3 63.5 37.5 63.3C37.7 63.2 37.9 63.1 38 63C39.4 62.1 40.8 61.1 42.2 60.2C43.4 59.4 44.6 58.6 45.9 57.8C46.3 57.6 46.6 57.4 46.9 57.2C47.4 56.8 47.7 56.7 48.3 56.7C49 57.1 49 57.1 49.2 57.5C49.2 57.8 49.3 58.2 49.3 58.5C49.3 58.7 49.3 58.9 49.3 59.1C49.3 59.4 49.3 59.6 49.3 59.8C49.3 60 49.3 60.2 49.3 60.4C49.3 61 49.4 61.5 49.4 62C52.1 60.6 54.5 59.2 56.7 57C56.9 56.9 57 56.8 57.1 56.7C59.6 54.3 61.2 51.3 62.5 48.1C63.1 46.8 63.1 46.8 63.4 46.4C64 46.3 64.3 46.4 64.8 46.6C65.2 47 65.2 47 65.2 47.3C65.1 48.2 64.8 49 64.5 49.8C64.4 50 64.4 50 64.3 50.2C63 53 61.5 55.5 59.4 57.8C59.1 58.1 59.1 58.1 58.7 58.5C58.3 59.1 57.7 59.5 57.2 60C57.1 60.1 57 60.1 57 60.2C54.5 62.2 51.1 64.6 47.9 65.1C47.5 65 47.5 65 47.2 64.7C46.8 64.1 46.8 63.9 46.8 63.3C46.8 63 46.8 63 46.8 62.7C46.8 62.4 46.8 62.4 46.8 62.1C46.8 61.9 46.8 61.8 46.8 61.6C46.9 61.1 46.9 60.6 46.9 60.2C44.8 61.4 42.7 62.8 40.7 64.1C39.8 64.7 38.8 65.4 37.9 66C36 67.1 36 67.1 34.2 68.4C34.3 68.5 34.4 68.6 34.5 68.6C36.5 69.9 38.4 71.1 40.3 72.4C41.6 73.3 42.9 74.1 44.3 74.9C45.1 75.5 45.9 76 46.7 76.6C46.7 76.4 46.7 76.2 46.7 76C46.7 75.4 46.7 74.8 46.7 74.1C46.7 73.9 46.7 73.6 46.7 73.3C46.8 72.9 46.8 72.5 46.8 72.1C46.8 72 46.8 71.9 46.8 71.8C46.8 71.1 46.8 70.8 47.2 70.3C47.7 70 48 69.8 48.5 69.7C48.8 69.6 48.8 69.6 49 69.5C49.2 69.5 49.4 69.4 49.6 69.4C54.1 67.9 58.4 65.5 61.7 62C62 61.8 62.2 61.5 62.5 61.2C64.4 59.3 65.9 57.2 67.2 54.8C67.9 53.5 67.9 53.5 68.3 53.1C68.6 53.1 68.6 53.1 69 53.1C69.2 53.1 69.2 53.1 69.4 53.1C69.5 53.1 69.5 53.1 69.7 53.1C70.1 53.7 70.1 54.2 70 54.8C69.8 55.3 69.6 55.7 69.3 56.2C69.3 56.3 69.2 56.4 69.1 56.5C67.9 58.6 66.5 60.5 64.8 62.3C64.8 62.4 64.7 62.5 64.6 62.6C63.8 63.6 62.9 64.5 61.9 65.3C61.7 65.5 61.5 65.6 61.4 65.7C59.9 67 58.3 68.1 56.6 69.1C56.4 69.2 56.4 69.2 56.3 69.2C55 70 53.7 70.5 52.4 71.1C52.2 71.1 52.1 71.2 51.9 71.3C51.8 71.3 51.6 71.4 51.5 71.4C51.3 71.5 51.3 71.5 51.1 71.6C50.5 71.8 49.8 71.9 49.2 72C49.2 72.1 49.2 72.2 49.2 72.3C49.2 73.2 49.3 74.1 49.3 75.1C49.3 75.4 49.3 75.7 49.3 76.1C49.3 76.6 49.3 77.1 49.3 77.6C49.3 77.7 49.3 77.9 49.3 78C49.3 78.8 49.3 79.1 48.9 79.7C48.4 80 48.4 80 48 80.1C47.3 80 46.9 79.7 46.3 79.3C46.1 79.1 45.9 79 45.6 78.8C45.5 78.7 45.4 78.6 45.2 78.6C44.5 78.1 43.8 77.6 43.1 77.1C42.8 76.9 42.5 76.7 42.2 76.5C42 76.4 41.9 76.3 41.7 76.2C41.4 76 41.1 75.8 40.8 75.6C40.6 75.5 40.5 75.4 40.3 75.3C40.2 75.2 40 75.1 39.9 75C39.5 74.8 39.2 74.6 38.9 74.4C38.3 74 37.6 73.6 36.9 73.1C35.7 72.2 34.7 71.7 33.2 71.5C31.9 71.3 30.8 70.9 29.6 70.5C29.5 70.5 29.3 70.4 29.1 70.4C28.2 70.1 27.4 69.7 26.6 69.4C26.6 69.5 26.6 69.6 26.6 69.7C26.1 70 25.7 70 25.2 69.9C24.5 69.8 24 69.4 23.4 69.1C23.3 69 23.2 68.9 23 68.8C21.1 67.7 19.4 66.3 17.7 64.8C17.5 64.7 17.4 64.6 17.2 64.5C16.4 63.8 15.7 63 15 62.2C14.9 62 14.7 61.9 14.6 61.8C13.4 60.4 12.4 58.9 11.4 57.3C11.3 57.2 11.3 57.2 11.2 57.1C10 55 8 51.7 8 49.2C7.9 49.2 7.8 49.2 7.7 49.2C6.8 49.2 5.9 49.3 4.9 49.3C4.6 49.3 4.3 49.3 3.9 49.3C3.4 49.3 2.9 49.3 2.4 49.3C2.3 49.3 2.1 49.3 2 49.3C1.2 49.3 0.9 49.3 0.3 48.9C-0 48.4 -0 48.4 -0.1 48C0 47.3 0.3 46.9 0.7 46.3C0.9 46.1 1 45.9 1.2 45.6C1.3 45.5 1.4 45.4 1.4 45.2C1.9 44.5 2.4 43.8 2.9 43.1C3.1 42.8 3.3 42.5 3.5 42.2C3.6 42 3.7 41.9 3.8 41.7C4 41.4 4.2 41.1 4.4 40.8C4.6 40.5 4.8 40.2 5 39.9C5.2 39.5 5.4 39.2 5.6 38.9C6 38.2 6.5 37.5 6.9 36.8C7 36.7 7.1 36.6 7.2 36.5C7.3 36.2 7.5 36 7.6 35.8C7.8 35.5 7.9 35.3 8.1 35C8.2 35 8.3 35 8.4 35C8.5 34.9 8.5 34.8 8.6 34.7C8.7 34.2 8.9 33.9 9.2 33.5C9.3 33.4 9.3 33.3 9.4 33.2C9.5 33 9.6 32.9 9.7 32.8C9.8 32.7 9.8 32.5 9.9 32.4C10.9 31 10.9 31 11.6 30.8Z" fill="#B7D7F9"/><path d="M54.9 10C55.3 10.2 55.7 10.4 56 10.6C56.2 10.7 56.3 10.8 56.4 10.8C58.6 12.1 60.5 13.5 62.3 15.2C62.5 15.3 62.7 15.4 62.8 15.6C63.7 16.3 64.4 17.1 65.2 18C65.3 18.2 65.3 18.2 65.5 18.4C68.5 21.8 71.1 26.2 72 30.8C72.1 30.8 72.2 30.8 72.3 30.8C73.2 30.8 74.1 30.7 75.1 30.7C75.4 30.7 75.7 30.7 76.1 30.7C76.6 30.7 77.1 30.7 77.6 30.7C77.8 30.7 77.8 30.7 78 30.7C78.8 30.7 79.1 30.7 79.7 31.1C80 31.6 80 31.6 80.1 32C80 32.7 79.7 33.1 79.3 33.7C79.1 33.9 79 34.1 78.8 34.4C78.7 34.5 78.6 34.6 78.6 34.8C78.1 35.5 77.6 36.2 77.1 36.9C76.9 37.2 76.7 37.5 76.5 37.8C76.2 38.4 75.8 39 75.4 39.6C75.3 39.8 75.3 39.8 75.1 40C75 40.2 74.8 40.5 74.6 40.8C74.2 41.4 73.8 42 73.4 42.5C72.1 44.3 71.6 46 71.2 48.1C71 49.1 70.7 50.1 70.4 51C70.3 51.1 70.3 51.3 70.2 51.4C70 52 69.8 52.6 69.4 53.1C69.2 53.1 69 53.2 68.8 53.2C68.3 53.2 68.3 53.2 68.1 53.5C67.9 53.8 67.7 54.2 67.5 54.5C66.2 56.9 64.7 58.9 63 60.9C62.8 61.1 62.6 61.3 62.5 61.5C62.1 62 61.6 62.4 61.1 62.8C60.9 63 60.7 63.2 60.5 63.4C58.6 65.1 56.5 66.5 54.2 67.7C54 67.7 53.9 67.8 53.7 67.9C52.1 68.7 50.5 69.2 48.9 69.8C48.7 69.8 48.5 69.9 48.3 70C48.1 70 47.9 70.1 47.8 70.1C47.3 70.3 47.3 70.3 47 70.8C47 71.2 47 71.7 47 72.1C47 72.3 47 72.4 47 72.5C46.9 72.9 46.9 73.4 46.9 73.8C46.9 74.1 46.9 74.3 46.9 74.6C46.9 75.3 46.9 76 46.9 76.7C45.9 76.1 44.9 75.6 43.9 74.9C43.7 74.8 43.5 74.6 43.3 74.5C43.2 74.4 43.2 74.4 43 74.3C42.4 73.9 41.8 73.5 41.1 73.1C41 73 40.9 72.9 40.7 72.8C40.3 72.6 39.9 72.3 39.5 72C37.7 70.8 35.9 69.7 34.1 68.4C34.6 68 35.2 67.6 35.8 67.2C35.8 67.1 35.9 67.1 36 67C36.3 66.8 36.6 66.6 36.8 66.5C36.9 66.4 37 66.3 37.1 66.3C38.3 65.5 39.5 64.7 40.7 64C41.4 63.5 42.1 63.1 42.7 62.7C43.6 62.1 44.5 61.5 45.4 60.9C45.5 60.8 45.5 60.8 45.7 60.7C46.5 60.2 46.5 60.2 46.9 60.2C46.9 60.3 46.9 60.4 46.9 60.5C46.9 61.1 46.9 61.6 46.9 62.1C46.9 62.3 46.9 62.5 46.9 62.7C46.9 62.9 46.9 63.1 47 63.3C47 63.4 47 63.6 47 63.8C47 64.3 47.2 64.5 47.5 64.8C48.4 65 49.1 64.6 49.9 64.3C50.1 64.2 50.1 64.2 50.3 64.2C53 63 55.4 61.4 57.6 59.4C57.9 59.2 58.1 58.9 58.4 58.7C58.9 58.3 59.4 57.7 59.8 57.2C60 57 60 57 60.1 56.8C62.3 54.2 64.5 50.8 65.1 47.4C65 47 65 47 64.6 46.7C64.5 46.6 64.3 46.4 64.2 46.2C64.3 45.9 64.3 45.9 64.4 45.4C64.6 44.6 64.5 44.2 64.1 43.6C63.8 43.2 63.5 42.8 63.2 42.4C62.8 41.8 62.4 41.2 62 40.5C61.8 40.3 61.7 40 61.5 39.7C61.4 39.5 61.4 39.5 61.2 39.3C60.8 38.7 60.4 38.1 60 37.5C59.8 37.2 59.6 36.9 59.4 36.6C59 35.9 58.5 35.2 58.1 34.5C58 34.4 57.9 34.3 57.8 34.2C57.7 33.9 57.5 33.7 57.4 33.5C57 32.9 56.8 32.4 56.7 31.7C56.8 31.3 56.9 31.2 57.3 30.9C57.8 30.7 58.2 30.7 58.7 30.8C59 30.8 59 30.8 59.3 30.8C59.5 30.8 59.7 30.8 59.9 30.8C60.1 30.8 60.3 30.8 60.5 30.8C61 30.8 61.5 30.8 62 30.8C59.1 24.2 54.2 20 47.7 17.3C47.5 17.3 47.4 17.2 47.3 17.1C47.2 17.1 47.1 17.1 47 17C46.7 16.9 46.7 16.9 46.4 16.4C46.4 15.9 46.5 15.5 46.8 15.1C47.3 14.8 47.5 14.8 48.1 14.9C48.7 15.1 49.3 15.3 49.8 15.5C50 15.6 50 15.6 50.2 15.7C53 16.9 55.4 18.4 57.6 20.5C58 20.8 58 20.8 58.4 21.1C58.9 21.6 59.4 22.1 59.8 22.7C60 22.8 60.1 22.9 60.2 23.1C62.2 25.4 64.6 28.8 65.1 31.9C65 32.4 64.9 32.6 64.5 33C63.8 33.3 62.9 33.2 62.1 33.2C61.9 33.2 61.8 33.2 61.6 33.2C61.1 33.2 60.6 33.1 60.2 33.1C61.1 34.7 62.1 36.2 63.1 37.7C63.9 39 64.8 40.2 65.5 41.4C66.1 42.3 66.7 43.2 67.3 44.1C67.4 44.3 67.4 44.3 67.6 44.6C68 45.2 68 45.2 68.4 45.8C68.5 45.6 68.5 45.6 68.6 45.5C70.9 41.9 70.9 41.9 72 40.4C72.5 39.6 73 38.8 73.5 38C74.2 36.9 74.8 35.9 75.5 34.9C75.7 34.7 75.7 34.7 75.8 34.4C76.1 34 76.3 33.7 76.6 33.3C76.4 33.3 76.2 33.3 76 33.3C75.4 33.3 74.8 33.3 74.1 33.2C73.9 33.2 73.6 33.2 73.3 33.2C72.9 33.2 72.5 33.2 72.1 33.2C72 33.2 71.9 33.2 71.7 33.2C71.2 33.2 70.8 33.2 70.4 32.9C70.1 32.6 70 32.3 69.8 31.8C69.8 31.6 69.7 31.5 69.7 31.3C69.6 31.1 69.6 30.9 69.5 30.7C68.2 26.7 66.3 23 63.4 19.8C63.3 19.6 63.1 19.4 62.9 19.2C60.1 16.1 56.8 13.7 53 11.8C52.2 11.4 52.2 11.4 52 11.1C52 10.1 52 10.1 52.2 9.7C53.1 9.1 54 9.6 54.9 10Z" fill="#EE4423"/><path d="M39.8 29.8C39.9 29.8 40.1 29.8 40.2 29.8C42.9 29.8 45.3 30.9 47.3 32.7C49.5 35 50.3 37.5 50.2 40.7C50.1 43.4 48.8 45.8 46.9 47.6C44.3 49.9 41.3 50.4 38 50.2C35.4 49.7 33.2 48 31.7 46C31.1 45.2 30.7 44.4 30.3 43.4C30.3 43.3 30.2 43.2 30.1 43.1C29.4 41 29.6 38.1 30.4 36.1C31.7 33.4 33.9 31.3 36.7 30.2C37.8 29.8 38.7 29.8 39.8 29.8Z" fill="#FBD201"/><path d="M43.3 38.3L43 39.5H36.4L36.8 38.3H43.3ZM40.1 46L36.6 41.7L36.6 40.7H38.3C38.8 40.7 39.1 40.6 39.4 40.5C39.7 40.4 40 40.2 40.1 39.9C40.3 39.7 40.4 39.3 40.4 39C40.4 38.4 40.2 38 39.9 37.6C39.5 37.3 39 37.1 38.3 37.1H36.4L36.8 35.8H38.3C39.1 35.8 39.8 35.9 40.4 36.2C40.9 36.5 41.3 36.8 41.5 37.3C41.8 37.8 41.9 38.3 41.9 38.9C41.9 39.4 41.8 39.9 41.6 40.4C41.4 40.8 41.1 41.2 40.6 41.4C40.1 41.7 39.5 41.9 38.7 41.9L38.7 41.9L41.9 45.9V46H40.1ZM43.3 35.8L43 37.1L37.7 37L38.1 35.8H43.3Z" fill="#010100"/><path d="M33.1 3.3C34 3.7 34.8 4.2 35.6 4.8C35.8 4.9 36 5.1 36.2 5.2C36.3 5.3 36.5 5.3 36.6 5.4C37.1 5.8 37.6 6.1 38.1 6.4C40.7 8.1 43.3 9.8 45.9 11.6C45.3 12 44.7 12.5 44.1 12.9C44 13 43.9 13 43.8 13.1C42.8 13.7 41.9 14.4 40.9 15C40.1 15.5 39.2 16.1 38.4 16.6C38.2 16.7 38.1 16.8 37.9 16.9C37.2 17.4 36.4 17.9 35.6 18.4C35.5 18.5 35.4 18.6 35.2 18.7C34.9 18.9 34.7 19.1 34.4 19.2C34.3 19.3 34.2 19.4 34 19.5C33.9 19.6 33.8 19.6 33.7 19.7C33.4 19.8 33.4 19.8 33.1 19.8C33.1 19.7 33.1 19.6 33.1 19.5C33.1 18.9 33.1 18.3 33.1 17.8C33.1 17.6 33.1 17.4 33.1 17.2C33.1 17 33.1 16.8 33.1 16.6C33.1 16.4 33.1 16.2 33.1 16.1C33 15.6 33 15.6 32.7 15.3C32.1 15 31.4 15.2 30.8 15.4C30.4 15.6 30 15.7 29.7 15.8C29.6 15.9 29.4 16 29.3 16C26.7 17.2 24.4 18.7 22.4 20.6C22.1 20.9 21.8 21.1 21.5 21.4C20.7 22 20.1 22.8 19.5 23.6C19.4 23.7 19.3 23.9 19.2 24C17.6 26 16.4 28.2 15.5 30.5C15.5 30.7 15.4 30.8 15.3 30.9C15 31.7 14.9 32.4 15 33.3C15.1 33.4 15.2 33.4 15.3 33.5C15.4 33.6 15.5 33.7 15.6 33.8C15.7 34.2 15.6 34.7 15.5 35.2C15.4 35.3 15.3 35.4 15.2 35.5C15 35.2 14.8 35 14.7 34.7C14.5 34.5 14.4 34.3 14.2 34.1C13.9 33.6 13.6 33.1 13.2 32.6C13.1 32.3 13.1 32.3 12.9 32.1C12.8 31.9 12.7 31.7 12.6 31.6C12.3 31.1 12.3 31.1 11.7 31C11 31.1 11 31.1 10.6 31.6C10 32.5 9.5 33.3 9 34.2C8.8 34.5 8.6 34.7 8.4 35C8.4 35 8.3 35 8.3 35C8.3 33.4 8.6 31.5 9.4 30C9.8 29.9 10.2 29.9 10.6 29.8C10.7 29.7 10.7 29.5 10.8 29.3C12.3 24.8 15.3 20.2 18.9 17.1C19.1 17 19.3 16.8 19.5 16.6C22.8 13.5 27.2 11.2 31.6 10C31.7 10 31.9 9.9 32 9.9C32.1 9.9 32.2 9.8 32.4 9.8C32.7 9.7 32.7 9.7 33 9.2C33 8.8 33 8.3 33 7.9C33 7.7 33 7.6 33 7.5C33.1 7.1 33.1 6.6 33.1 6.2C33.1 5.9 33.1 5.7 33.1 5.4C33.1 4.7 33.1 4 33.1 3.3Z" fill="#FCD201"/><path d="M32 -0.1C32.7 0 33.1 0.3 33.7 0.7C33.9 0.9 34.2 1.1 34.4 1.2C34.5 1.3 34.7 1.4 34.8 1.5C35.4 1.9 36 2.3 36.7 2.7C36.9 2.9 37.2 3 37.5 3.2C37.9 3.5 38.3 3.8 38.7 4C40.4 5.1 42 6.2 43.6 7.3C43.8 7.4 43.9 7.4 44 7.5C44.8 8 45.6 8.6 46.4 9.1C47 9.5 47.6 9.9 48.2 10.3C49 10.9 49 10.9 49.2 11.6C49 12.4 48.8 12.5 48.2 13C47.4 13.5 46.6 14 45.8 14.5C45.2 14.9 44.6 15.2 44 15.7C43.2 16.3 42.4 16.8 41.6 17.3C40.4 18 39.3 18.8 38.2 19.6C36.8 20.5 35.5 21.3 34.1 22.2C33.7 22.4 33.4 22.6 33.1 22.8C32.6 23.1 32.4 23.3 31.9 23.3C31 22.9 31 22.9 30.8 22.5C30.8 22.2 30.8 21.8 30.8 21.5C30.8 21.3 30.8 21.1 30.8 20.9C30.8 20.6 30.8 20.4 30.8 20.2C30.8 20 30.8 19.8 30.8 19.6C30.8 19 30.8 18.5 30.8 18C28.2 19.1 25.7 20.5 23.7 22.5C23.4 22.8 23.4 22.8 23.1 22.8C23.1 22.9 23 23 23 23.1C22.8 23.4 22.6 23.6 22.4 23.9C20.1 26.1 18.7 29.1 17.5 32C16.8 33.7 16.8 33.7 16.4 33.9C15.9 33.9 15.5 33.8 15 33.6C14.6 32.9 14.8 32.1 15 31.5C15.1 31.3 15.2 31.1 15.2 30.9C15.3 30.8 15.3 30.6 15.4 30.5C16.6 27.6 18.2 24.9 20.3 22.5C20.5 22.3 20.5 22.3 20.7 22.1C21.3 21.3 22 20.6 22.8 20C22.9 19.9 23 19.9 23 19.8C25.3 18 28.9 15.1 31.9 15C32.3 15 32.6 15.1 32.9 15.3C33.2 15.8 33.2 16.1 33.2 16.6C33.2 16.8 33.2 17 33.2 17.2C33.2 17.4 33.2 17.6 33.2 17.8C33.2 18 33.2 18.2 33.2 18.4C33.1 18.9 33.1 19.4 33.1 19.8C35.2 18.6 37.3 17.2 39.3 15.9C40.2 15.3 41 14.8 41.9 14.2C42.8 13.6 43.7 13 44.6 12.4C44.7 12.3 44.8 12.3 44.9 12.2C45.4 11.9 45.4 11.9 45.8 11.6C45.7 11.5 45.6 11.4 45.5 11.4C41.9 9.1 41.9 9.1 40.4 8.1C39.2 7.3 38 6.5 36.8 5.7C36.1 5.3 35.4 4.8 34.7 4.3C34.4 4.2 34.1 4 33.9 3.8C33.7 3.7 33.5 3.6 33.3 3.4C33.3 3.6 33.3 3.8 33.3 4C33.3 4.6 33.3 5.2 33.2 5.9C33.2 6.1 33.2 6.4 33.2 6.7C33.2 7.1 33.2 7.5 33.2 7.9C33.2 8 33.2 8.1 33.2 8.3C33.2 8.8 33.2 9.2 32.9 9.6C32.6 9.9 32.3 10 31.8 10.1C31.6 10.2 31.6 10.2 31.3 10.3C31.1 10.4 31 10.4 30.8 10.5C29.2 11 27.8 11.5 26.3 12.2C26.2 12.3 26 12.4 25.9 12.4C23.1 13.8 20.4 15.7 18.3 18C17.5 18.7 17.5 18.7 17.3 19C16.6 19.6 16 20.3 15.5 21C15.4 21.1 15.4 21.2 15.3 21.3C13.6 23.7 12.2 26.2 11.1 28.8C11 29 11 29.1 10.9 29.2C10.9 29.3 10.8 29.5 10.8 29.6C10.6 29.8 10.6 29.8 10.3 30C9.2 30.1 9.2 30.1 8.8 29.7C8.5 29.1 8.5 28.6 8.7 28C8.8 27.8 8.8 27.8 8.9 27.6C9 27.4 9.1 27.3 9.1 27.1C9.2 26.9 9.3 26.8 9.4 26.6C9.4 26.4 9.5 26.2 9.6 26.1C11.2 22.6 13.4 19.6 15.9 16.8C16 16.7 16.1 16.6 16.2 16.5C19.4 13 23.6 10.6 27.9 8.8C28 8.8 28.1 8.7 28.3 8.7C28.4 8.6 28.5 8.6 28.6 8.5C28.8 8.5 28.9 8.5 29 8.4C29.6 8.2 30.2 8.1 30.8 8C30.8 7.9 30.8 7.8 30.8 7.7C30.8 6.8 30.7 5.9 30.7 4.9C30.7 4.6 30.7 4.3 30.7 3.9C30.7 3.4 30.7 2.9 30.7 2.4C30.7 2.3 30.7 2.1 30.7 2C30.7 1.2 30.7 0.9 31.2 0.3C31.6 -0 31.6 -0 32 -0.1Z" fill="#010100"/><path d="M54.9 10C55.3 10.2 55.7 10.4 56 10.6C56.2 10.7 56.3 10.8 56.4 10.8C58.6 12.1 60.5 13.5 62.3 15.2C62.5 15.3 62.7 15.4 62.8 15.6C63.7 16.3 64.4 17.1 65.2 18C65.3 18.1 65.4 18.2 65.5 18.4C68.5 21.8 71.1 26.2 72 30.8C72.1 30.8 72.2 30.8 72.3 30.8C73.2 30.8 74.1 30.7 75.1 30.7C75.4 30.7 75.7 30.7 76.1 30.7C76.6 30.7 77.1 30.7 77.6 30.7C77.8 30.7 77.8 30.7 78 30.7C78.8 30.7 79.1 30.7 79.7 31.1C80 31.6 80 31.6 80.1 32C80 32.7 79.7 33.1 79.3 33.7C79.1 33.9 79 34.1 78.8 34.4C78.7 34.5 78.6 34.6 78.6 34.8C78.1 35.5 77.6 36.2 77.1 36.9C76.9 37.2 76.7 37.5 76.5 37.8C76.1 38.6 75.6 39.3 75.1 40C73.9 41.9 72.6 43.9 71.2 45.8C71 46.2 70.8 46.5 70.5 46.8C70.5 47 70.4 47.1 70.3 47.2C70.2 47.4 70.1 47.6 69.9 47.8C69.1 49 69.1 49 68.4 49.2C67.6 49 67.5 48.8 67 48.1C66.6 47.5 66.2 46.8 65.8 46.1C65.4 45.5 64.9 44.8 64.5 44.2C63.8 43.4 63.2 42.5 62.7 41.6C62 40.4 61.2 39.3 60.4 38.2C59.5 36.8 58.7 35.5 57.8 34.1C57.6 33.7 57.4 33.4 57.2 33.1C56.8 32.6 56.7 32.3 56.7 31.7C56.8 31.3 56.9 31.2 57.3 30.9C57.8 30.7 58.2 30.7 58.7 30.8C59 30.8 59 30.8 59.3 30.8C59.5 30.8 59.7 30.8 59.9 30.8C60.1 30.8 60.3 30.8 60.5 30.8C61 30.8 61.5 30.8 62 30.8C59.1 24.2 54.2 20 47.7 17.3C47.5 17.3 47.4 17.2 47.3 17.1C47.2 17.1 47.1 17.1 47 17C46.7 16.9 46.7 16.9 46.4 16.4C46.4 15.9 46.5 15.5 46.8 15.1C47.3 14.8 47.5 14.8 48.1 14.9C48.7 15.1 49.3 15.3 49.8 15.5C50 15.6 50.1 15.7 50.2 15.7C53 16.9 55.4 18.4 57.6 20.5C58 20.8 58 20.8 58.4 21.1C58.9 21.6 59.4 22.1 59.8 22.7C60 22.9 60 22.9 60.2 23.1C62.2 25.4 64.6 28.8 65.1 31.9C65 32.4 64.9 32.6 64.5 33C63.8 33.3 62.9 33.2 62.1 33.2C61.9 33.2 61.8 33.2 61.6 33.2C61.1 33.2 60.6 33.1 60.2 33.1C61.1 34.7 62.1 36.2 63.1 37.7C63.9 39 64.8 40.2 65.5 41.4C66.1 42.3 66.7 43.2 67.3 44.1C67.4 44.3 67.4 44.3 67.6 44.6C68 45.2 68 45.2 68.4 45.8C68.5 45.6 68.5 45.6 68.6 45.5C70.9 41.9 70.9 41.9 72 40.4C72.5 39.6 73 38.8 73.5 38C74.2 36.9 74.8 35.9 75.5 34.9C75.7 34.7 75.7 34.7 75.8 34.4C76.1 34 76.3 33.7 76.6 33.3C76.4 33.3 76.2 33.3 76 33.3C75.4 33.3 74.8 33.3 74.1 33.2C73.9 33.2 73.6 33.2 73.3 33.2C72.9 33.2 72.5 33.2 72.1 33.2C72 33.2 71.9 33.2 71.7 33.2C71.2 33.2 70.8 33.2 70.4 32.9C70.1 32.6 70 32.3 69.8 31.8C69.8 31.6 69.7 31.5 69.7 31.3C69.6 31.1 69.6 30.9 69.5 30.7C68.2 26.7 66.3 23 63.4 19.8C63.3 19.6 63.1 19.4 62.9 19.2C60.1 16.1 56.8 13.7 53 11.8C52.2 11.4 52.2 11.4 52 11.1C52 10.1 52 10.1 52.2 9.7C53.1 9.1 54 9.6 54.9 10Z" fill="#000101"/><path d="M63.9 46.3C64.5 46.4 64.8 46.5 65.2 47C65.2 48 64.9 48.9 64.5 49.8C64.4 50 64.3 50.1 64.3 50.2C63 53 61.5 55.5 59.4 57.8C59.1 58.1 59.1 58.1 58.7 58.5C58.3 59.1 57.7 59.5 57.2 60C57.1 60.1 57 60.1 57 60.2C54.5 62.2 51.1 64.6 47.9 65.1C47.5 65 47.5 65 47.2 64.7C46.8 64.1 46.8 63.9 46.8 63.3C46.8 63.1 46.8 62.9 46.8 62.7C46.8 62.5 46.8 62.3 46.8 62.1C46.8 61.9 46.8 61.8 46.8 61.6C46.9 61.1 46.9 60.6 46.9 60.2C44.8 61.4 42.7 62.8 40.7 64.1C39.8 64.7 38.8 65.4 37.9 66C36 67.1 36 67.1 34.2 68.4C34.3 68.5 34.4 68.6 34.5 68.6C36.5 69.9 38.4 71.1 40.3 72.4C41.6 73.3 42.9 74.1 44.3 74.9C45.1 75.5 45.9 76 46.7 76.6C46.7 76.4 46.7 76.2 46.7 76C46.7 75.4 46.7 74.8 46.7 74.1C46.7 73.9 46.7 73.6 46.7 73.3C46.8 72.9 46.8 72.5 46.8 72.1C46.8 72 46.8 71.9 46.8 71.8C46.8 71.1 46.8 70.8 47.2 70.3C47.7 70 48 69.8 48.5 69.7C48.7 69.6 48.9 69.6 49 69.5C49.3 69.4 49.3 69.4 49.6 69.4C54.1 67.9 58.4 65.5 61.7 62C62 61.8 62.2 61.5 62.5 61.2C64.4 59.3 65.9 57.2 67.2 54.8C67.9 53.5 67.9 53.5 68.3 53.1C68.6 53.1 68.6 53.1 69 53.1C69.1 53.1 69.2 53.1 69.4 53.1C69.5 53.1 69.6 53.1 69.7 53.1C70.1 53.7 70.1 54.2 70 54.8C69.8 55.3 69.6 55.7 69.3 56.2C69.2 56.3 69.2 56.3 69.1 56.5C67.9 58.6 66.5 60.5 64.8 62.3C64.8 62.4 64.7 62.5 64.6 62.6C63.8 63.6 62.9 64.5 61.9 65.3C61.7 65.5 61.5 65.6 61.4 65.7C59.9 67 58.3 68.1 56.6 69.1C56.4 69.2 56.4 69.2 56.3 69.2C55 70 53.7 70.5 52.4 71.1C52.2 71.1 52.1 71.2 51.9 71.3C51.7 71.3 51.7 71.3 51.5 71.4C51.3 71.5 51.2 71.5 51.1 71.6C50.5 71.8 49.8 71.9 49.2 72C49.2 72.1 49.2 72.2 49.2 72.3C49.2 73.2 49.3 74.1 49.3 75.1C49.3 75.4 49.3 75.7 49.3 76.1C49.3 76.6 49.3 77.1 49.3 77.6C49.3 77.7 49.3 77.9 49.3 78C49.3 78.8 49.3 79.1 48.9 79.7C48.4 80 48.4 80 48 80.1C47.3 80 46.9 79.7 46.3 79.3C46.1 79.1 45.9 79 45.6 78.8C45.5 78.7 45.4 78.6 45.2 78.6C44.5 78.1 43.8 77.6 43.1 77.1C42.8 76.9 42.5 76.7 42.2 76.5C42 76.4 41.9 76.3 41.7 76.2C41.4 76 41.1 75.8 40.8 75.6C40.5 75.4 40.2 75.2 39.9 75C39.5 74.8 39.2 74.6 38.9 74.4C38.2 74 37.5 73.5 36.8 73.1C36.7 73 36.7 73 36.5 72.8C36.2 72.7 36 72.5 35.8 72.4C35.5 72.2 35.3 72.1 35 71.9C35 71.8 35 71.7 35 71.6C34.9 71.5 34.8 71.5 34.7 71.4C34.2 71.3 33.9 71.1 33.5 70.8C33.4 70.7 33.4 70.7 33.2 70.6C33 70.5 32.9 70.4 32.8 70.3C32.6 70.2 32.6 70.2 32.4 70.1C31 69.1 31 69.1 30.8 68.4C31 67.6 31.2 67.5 31.8 67C32.6 66.5 33.4 66 34.2 65.5C34.8 65.1 35.5 64.8 36 64.3C36.8 63.7 37.6 63.2 38.4 62.7C39.6 62 40.7 61.2 41.8 60.4C43.2 59.5 44.5 58.7 45.9 57.8C46.3 57.6 46.6 57.4 46.9 57.2C47.4 56.8 47.7 56.7 48.3 56.7C49 57.1 49 57.1 49.2 57.5C49.2 57.8 49.3 58.2 49.3 58.5C49.3 58.7 49.3 58.9 49.3 59.1C49.3 59.4 49.3 59.6 49.3 59.8C49.3 60 49.3 60.2 49.3 60.4C49.3 61 49.4 61.5 49.4 62C52.1 60.6 54.5 59.2 56.7 57C56.9 56.9 57 56.8 57.1 56.7C59.6 54.3 61.2 51.3 62.5 48.1C63.2 46.4 63.2 46.4 63.9 46.3Z" fill="#010000"/><path d="M11.6 30.8C12.4 31 12.5 31.2 13 31.8C13.5 32.6 14 33.4 14.5 34.2C14.9 34.8 15.2 35.5 15.7 36C16.3 36.8 16.9 37.7 17.4 38.5C17.9 39.3 18.4 40.1 18.9 40.9C19.5 41.8 20.1 42.7 20.8 43.7C21.1 44.3 21.5 44.8 21.9 45.4C22 45.5 22 45.7 22.1 45.8C22.3 46 22.4 46.2 22.6 46.5C23 47.1 23.2 47.5 23.3 48.3C23.1 48.7 23.1 48.7 22.8 49.1C22.3 49.2 21.9 49.2 21.3 49.2C21 49.2 21 49.2 20.7 49.2C20.5 49.2 20.3 49.2 20.1 49.2C19.9 49.2 19.7 49.2 19.5 49.2C19 49.2 18.5 49.2 18 49.2C20.7 55.4 25.3 59.8 31.6 62.3C31.7 62.4 31.8 62.5 32 62.5C32.1 62.6 32.2 62.6 32.3 62.7C32.7 62.8 32.9 63 33.1 63.3C33.2 63.9 33.2 64.1 32.8 64.7C32.3 65 32.1 65 31.4 64.9C27.5 64.1 23.8 61.1 21.1 58.3C21 58.2 20.9 58.1 20.8 58C18.3 55.7 15.4 51.4 14.9 47.9C15 47.4 15.2 47.2 15.6 46.9C16.1 46.8 16.1 46.8 16.6 46.8C16.9 46.8 16.9 46.8 17.2 46.8C17.4 46.8 17.6 46.8 17.8 46.8C18 46.8 18.2 46.8 18.4 46.8C18.9 46.9 19.4 46.9 19.8 46.9C18.6 44.9 17.4 43 16.1 41.1C15.7 40.4 15.2 39.6 14.7 38.9C13.9 37.7 13.1 36.5 12.4 35.3C12.3 35.2 12.3 35.2 12.2 35C11.9 34.6 11.9 34.6 11.6 34.2C11.5 34.3 11.4 34.4 11.4 34.5C9.1 38.1 9.1 38.1 8 39.6C7.5 40.4 7 41.2 6.5 42C5.8 43.1 5.2 44.1 4.5 45.1C4.3 45.3 4.3 45.3 4.2 45.6C3.9 46 3.7 46.3 3.4 46.7C3.6 46.7 3.8 46.7 4 46.7C4.6 46.7 5.2 46.7 5.9 46.7C6.1 46.7 6.4 46.7 6.7 46.7C7.1 46.8 7.5 46.8 7.9 46.8C8.1 46.8 8.1 46.8 8.2 46.8C8.9 46.8 9.2 46.8 9.7 47.2C10 47.7 10.2 48 10.3 48.5C10.4 48.7 10.4 48.9 10.5 49C10.6 49.3 10.6 49.3 10.6 49.6C11.8 53.4 13.6 56.8 16.2 59.8C16.4 60 16.5 60.1 16.6 60.2C16.9 60.6 17.3 61 17.7 61.4C17.7 61.5 17.8 61.6 17.9 61.6C19.9 63.8 22.3 65.5 24.8 67C25.2 67.2 25.5 67.4 25.8 67.6C25.9 67.7 26 67.7 26.1 67.8C26.4 68 26.4 68 26.7 68.3C26.8 69.2 26.8 69.2 26.5 69.7C26.1 69.9 25.8 70 25.3 70C22.4 69 19.8 66.7 17.5 64.7C17.2 64.4 16.9 64.2 16.6 63.9C16 63.4 15.5 62.8 15 62.2C14.8 62 14.8 62 14.6 61.8C13.4 60.4 12.4 58.9 11.4 57.3C11.3 57.2 11.3 57.2 11.2 57.1C10 55 8 51.7 8 49.2C7.9 49.2 7.8 49.2 7.7 49.2C6.8 49.2 5.9 49.3 4.9 49.3C4.6 49.3 4.3 49.3 3.9 49.3C3.4 49.3 2.9 49.3 2.4 49.3C2.3 49.3 2.1 49.3 2 49.3C1.2 49.3 0.9 49.3 0.3 48.9C-0 48.4 -0 48.4 -0.1 48C0 47.3 0.3 46.9 0.7 46.3C0.9 46.1 1 45.9 1.2 45.6C1.3 45.5 1.4 45.4 1.4 45.2C1.9 44.5 2.4 43.8 2.9 43.1C3.1 42.8 3.3 42.5 3.5 42.2C3.6 42 3.7 41.9 3.8 41.7C4 41.4 4.2 41.1 4.4 40.8C4.6 40.5 4.8 40.2 5 39.9C5.2 39.5 5.4 39.2 5.6 38.9C6 38.2 6.5 37.5 6.9 36.8C7 36.7 7.1 36.6 7.2 36.5C7.3 36.2 7.5 36 7.6 35.8C7.8 35.5 7.9 35.3 8.1 35C8.2 35 8.3 35 8.4 35C8.5 34.9 8.5 34.8 8.6 34.7C8.7 34.2 8.9 33.9 9.2 33.5C9.3 33.4 9.3 33.3 9.4 33.2C9.5 33 9.6 32.9 9.7 32.8C9.8 32.7 9.8 32.5 9.9 32.4C10.9 31 10.9 31 11.6 30.8Z" fill="#000101"/><path d="M51.3 27.6C54.7 30.7 56.5 35 56.7 39.5C56.8 44 55.2 48.3 52.1 51.6C48.9 54.9 44.6 56.7 40 56.8C35.4 56.7 31.1 54.9 27.9 51.6C24.8 48.3 23.1 44 23.3 39.5C23.5 35 25.3 30.7 28.7 27.6C35.4 21.9 44.6 21.9 51.3 27.6ZM33.4 27.2C33.3 27.3 33.1 27.3 33 27.4C31.7 28.1 30.7 29 29.7 30C29.6 30.1 29.4 30.3 29.3 30.4C26.8 33 25.5 36.8 25.5 40.4C25.7 44.4 27.5 48 30.4 50.8C33.4 53.5 37.3 54.6 41.3 54.4C45.1 54.1 48.5 52.1 51 49.3C53.5 46.4 54.6 42.6 54.4 38.8C54.2 36.9 53.7 35.1 52.8 33.4C52.7 33.3 52.7 33.1 52.6 33C51.9 31.7 51 30.7 50 29.7C49.9 29.6 49.7 29.4 49.6 29.3C47 26.8 43.2 25.5 39.6 25.6C37.4 25.6 35.4 26.1 33.4 27.2Z" fill="#010100"/><path d="M48.5 28.3C51.7 30.9 53.9 34.3 54.4 38.4C54.7 42.2 53.7 46 51.3 48.9C48.7 51.9 45.3 54.1 41.3 54.4C38.7 54.6 36.1 54.1 33.8 53C33.5 52.9 33.5 52.9 33.3 52.8C29.9 51 27.5 48 26.3 44.4C25.1 40.8 25.4 37.1 27 33.7C27.1 33.6 27.2 33.5 27.2 33.3C28.9 30 31.9 27.6 35.3 26.3C39.9 24.9 44.6 25.5 48.5 28.3ZM30.4 32C28.1 34.6 27.3 37.8 27.5 41.1C27.6 42.7 28.1 44 28.8 45.5C28.8 45.6 28.9 45.8 29 45.9C30.4 48.9 33.2 50.9 36.3 52C38.6 52.8 41.1 52.8 43.4 52C43.7 52 43.7 52 43.9 51.9C45.9 51.2 47.5 50.1 49.1 48.6C49.2 48.4 49.2 48.4 49.4 48.3C51.7 45.9 52.6 42.6 52.6 39.5C52.5 36.2 51 33.4 48.8 31.1C48.6 31 48.5 30.9 48.4 30.7C46.1 28.4 42.9 27.4 39.6 27.5C35.9 27.5 32.9 29.3 30.4 32Z" fill="#F8A212"/><path d="M10.6 35.5C10.7 35.5 10.8 35.5 10.9 35.5C10.9 35.6 10.9 35.7 10.9 35.9C10.2 44.4 12 52.4 17.7 59.1C18.1 59.5 18.5 60 18.9 60.5C19.1 60.6 19.1 60.6 19.2 60.8C20.1 61.7 21.1 62.5 22.1 63.2C22.2 63.4 22.4 63.5 22.6 63.6C24.8 65.4 27.4 66.8 30.1 67.6C30.4 67.7 30.4 67.7 30.9 68C31.1 68.5 31.1 68.5 31.2 69.1C31.6 69.4 31.6 69.4 32 69.7C32.2 69.8 32.3 69.9 32.5 70C33.2 70.4 33.9 70.9 34.6 71.3C34.8 71.4 34.8 71.4 35 71.6C35 71.6 35 71.7 35 71.7C32.8 71.7 28.3 70.9 26.7 69.4C26.7 69.2 26.7 69 26.7 68.9C26.5 68.1 26.4 68.1 25.8 67.7C25.4 67.4 25 67.2 24.6 67C17.5 63.1 12.7 56.5 10.2 48.8C10.2 48.6 10.1 48.5 10 48.3C10 48.1 9.9 47.9 9.9 47.7C9.7 47.3 9.7 47.3 9.2 47C8.8 47 8.3 47 7.9 47C7.7 47 7.6 47 7.5 47C7.1 46.9 6.6 46.9 6.2 46.9C5.9 46.9 5.7 46.9 5.4 46.9C4.7 46.9 4 46.9 3.3 46.9C3.7 46 4.2 45.2 4.8 44.4C4.9 44.2 5 44 5.2 43.8C5.3 43.7 5.3 43.6 5.4 43.5C5.8 42.9 6.2 42.3 6.6 41.6C6.8 41.4 6.9 41.1 7.1 40.8C7.2 40.6 7.2 40.6 7.4 40.4C7.9 39.6 8.4 38.9 8.9 38.1C9 37.9 9.1 37.8 9.2 37.6C9.4 37.3 9.6 37 9.8 36.8C9.9 36.5 10.1 36.3 10.2 36.1C10.3 35.9 10.5 35.7 10.6 35.5Z" fill="#2B5582"/><path d="M71.7 44.8C72 45.4 71.7 46.1 71.6 46.7C71.5 46.9 71.5 47.1 71.5 47.2C70.4 51.8 70.4 51.8 69.4 53.1C69.2 53.1 69 53.2 68.8 53.2C68.3 53.2 68.3 53.2 68.1 53.5C67.9 53.8 67.7 54.2 67.5 54.5C66.2 56.9 64.7 58.9 63 60.9C62.8 61.1 62.6 61.3 62.5 61.5C62.1 62 61.6 62.4 61.1 62.8C60.9 63 60.7 63.2 60.5 63.4C58.6 65.1 56.5 66.5 54.2 67.7C54 67.7 53.9 67.8 53.7 67.9C52.1 68.7 50.5 69.2 48.9 69.8C48.7 69.8 48.5 69.9 48.3 70C48.1 70 47.9 70.1 47.8 70.1C47.3 70.3 47.3 70.3 47 70.8C47 71.2 47 71.7 47 72.1C47 72.3 47 72.4 47 72.5C46.9 72.9 46.9 73.4 46.9 73.8C46.9 74.1 46.9 74.3 46.9 74.6C46.9 75.3 46.9 76 46.9 76.7C45.9 76.1 44.9 75.6 43.9 74.9C43.7 74.8 43.5 74.6 43.3 74.5C43.2 74.4 43.2 74.4 43 74.3C42.4 73.9 41.8 73.5 41.1 73.1C40.9 72.9 40.9 72.9 40.7 72.8C40.5 72.6 40.2 72.5 39.9 72.3C39.5 72 39.1 71.8 38.7 71.5C38.5 71.4 38.4 71.3 38.3 71.2C38 71 37.7 70.9 37.5 70.7C36.7 70.2 35.9 69.7 35.2 69.2C35.8 69 36.2 69.1 36.9 69.2C39.9 69.6 43 69.3 45.9 68.8C46 68.7 46.2 68.7 46.3 68.7C53.5 67.4 59.9 62.7 64.1 56.8C65.6 54.7 66.8 52.4 67.6 50C67.8 49.4 67.8 49.4 68 49.1C68.5 48.9 68.5 48.9 69.1 48.8C69.6 48.2 69.9 47.6 70.3 47C70.4 46.8 70.6 46.6 70.7 46.4C71 45.9 71.4 45.4 71.7 44.8Z" fill="#D70D16"/><path d="M45.2 8.3C46.6 8.4 47.9 8.7 49.3 9.1C49.6 9.2 49.8 9.2 50 9.3C50.3 9.4 50.6 9.5 50.9 9.6C51.1 9.6 51.3 9.7 51.5 9.7C51.9 10 51.9 10.1 52.1 10.7C52.2 11.1 52.3 11.3 52.6 11.6C53 11.8 53.4 12 53.8 12.2C56 13.2 58 14.5 59.8 16.1C60 16.2 60.1 16.3 60.2 16.4C62 18 63.7 19.7 65.2 21.7C65.2 21.8 65.3 21.9 65.4 22C67.4 24.8 68.8 27.9 69.9 31.2C70.1 32.2 70.1 32.2 70.8 33C71.2 33 71.7 33 72.1 33C72.2 33 72.4 33 72.5 33C72.9 33 73.3 33 73.8 33.1C74.1 33.1 74.3 33.1 74.6 33.1C75.3 33.1 76 33.1 76.7 33.1C76.3 34 75.8 34.8 75.2 35.6C75.1 35.8 75 36 74.8 36.2C74.7 36.3 74.7 36.4 74.6 36.5C74.2 37.1 73.8 37.7 73.4 38.4C72.8 39.2 72.3 40.1 71.7 41C71.6 41.1 71.5 41.3 71.4 41.4C71.2 41.7 71 42.1 70.8 42.4C70.3 43.2 69.7 44 69.2 44.8C69 44.3 69.1 44 69.2 43.5C69.2 42.9 69.2 42.4 69.3 41.8C69.3 41.7 69.3 41.6 69.3 41.4C69.3 41.1 69.3 40.7 69.3 40.3C69.3 40.1 69.3 40 69.3 39.9C69.3 37.9 69.2 36 68.8 34.1C68.7 33.9 68.7 33.9 68.7 33.7C67.1 26.2 62.5 19.7 56.2 15.5C54.3 14.2 52.2 13.2 50 12.4C49.4 12.2 49.4 12.2 49.1 12C48.9 11.5 48.9 11.5 48.8 10.9C47.8 10.1 46.7 9.5 45.6 8.8C45.3 8.6 45.3 8.6 45.2 8.3Z" fill="#13B440"/><path d="M33.1 3.3C34 3.7 34.8 4.2 35.6 4.8C35.8 4.9 36 5.1 36.2 5.2C36.3 5.3 36.5 5.3 36.6 5.4C37.1 5.8 37.6 6.1 38.1 6.4C38.9 6.9 39.7 7.5 40.6 8C40.7 8.1 40.7 8.1 40.8 8.2C41.3 8.5 41.7 8.8 42.2 9.1C43.1 9.7 43.9 10.2 44.8 10.8C44.3 11 43.9 10.9 43.3 10.8C42.8 10.8 42.2 10.7 41.7 10.7C41.5 10.7 41.5 10.7 41.3 10.7C37.4 10.7 33.9 11.1 30.2 12.3C30.1 12.4 30 12.4 29.8 12.4C22.5 15 16.8 20.7 13.4 27.6C13 28.5 12.6 29.3 12.3 30.2C12.2 30.6 12.2 30.6 12 30.9C11.7 31 11.3 31.2 10.9 31.2C10 32.2 9.4 33.5 8.7 34.6C8.6 34.8 8.6 34.8 8.4 35C8.4 35 8.3 35 8.3 35C8.3 33.4 8.6 31.5 9.4 30C9.8 29.9 10.2 29.9 10.6 29.8C10.7 29.7 10.7 29.5 10.8 29.3C12.3 24.8 15.3 20.2 18.9 17.1C19.1 17 19.3 16.8 19.5 16.6C22.8 13.5 27.2 11.2 31.6 10C31.7 10 31.9 9.9 32 9.9C32.1 9.9 32.2 9.8 32.4 9.8C32.7 9.7 32.7 9.7 33 9.2C33 8.8 33 8.3 33 7.9C33 7.7 33 7.6 33 7.5C33.1 7.1 33.1 6.6 33.1 6.2C33.1 5.9 33.1 5.7 33.1 5.4C33.1 4.7 33.1 4 33.1 3.3Z" fill="#F7C400"/><path d="M34.5 31.2C34.6 31.3 34.7 31.4 34.8 31.4C34.7 31.5 34.6 31.6 34.5 31.7C32.1 34 31 36.6 30.8 39.8C30.7 41.8 31.3 43.7 32.2 45.5C32.3 45.8 32.3 45.8 32.3 46.1C32.4 46.1 32.5 46.1 32.7 46.1C32.9 46.4 32.9 46.4 33.1 46.7C33.5 47.3 33.9 47.9 34.4 48.4C32.3 47.5 31.1 45.4 30.3 43.4C30.2 43.2 30.2 43.2 30.1 43.1C29.3 40.8 29.6 37.7 30.6 35.6C31.6 33.8 32.9 32.4 34.5 31.2Z" fill="#F3C100"/><path d="M26.4 35.2C26.5 35.2 26.6 35.3 26.7 35.3C26.6 35.9 26.5 36.6 26.4 37.2C25.8 40.3 26.2 44.4 27.9 47.1C28 47.3 28.1 47.4 28.1 47.5C28.1 47.7 28 47.8 28 48C27.1 46.4 26.4 44.9 25.9 43.1C25.9 43 25.9 42.9 25.8 42.7C25.2 40.3 25.6 37.5 26.4 35.2Z" fill="#DB8E08"/><path d="M26.3 42.7C26.3 42.7 26.4 42.7 26.4 42.7C26.5 42.8 26.5 43 26.5 43.2C26.9 44.6 27.2 45.9 28 47.1C28.1 47.5 28.1 47.5 28 48C25.8 44.2 25.8 44.2 26.3 42.7Z" fill="#E59509"/></g><defs><clipPath id="clip0_7017_5633"><rect width="80" height="80" fill="white"/></clipPath></defs></svg> 