<svg width="80" height="80" viewBox="0 0 80 80" fill="none" xmlns="http://www.w3.org/2000/svg">
<g clip-path="url(#clip0_6649_5079)">
<mask id="mask0_6649_5079" style="mask-type:luminance" maskUnits="userSpaceOnUse" x="0" y="0" width="80" height="80">
<path d="M80 0H0V80H80V0Z" fill="white"/>
</mask>
<g mask="url(#mask0_6649_5079)">
<path d="M8.45563 4.66653C8.56619 4.66617 8.67675 4.6658 8.79067 4.66542C9.16211 4.66437 9.53353 4.66445 9.90496 4.66452C10.1736 4.664 10.4422 4.66342 10.7108 4.66278C11.4498 4.6612 12.1888 4.66062 12.9278 4.66022C13.7245 4.65961 14.5212 4.65811 15.318 4.65673C17.2425 4.65366 19.167 4.65208 21.0915 4.65069C21.9979 4.65 22.9043 4.64917 23.8108 4.64834C26.8243 4.64569 29.8378 4.64342 32.8512 4.6423C33.6331 4.642 34.4151 4.6417 35.197 4.64139C35.4886 4.64128 35.4886 4.64128 35.7859 4.64116C38.9339 4.63986 42.0818 4.63591 45.23 4.63083C48.4623 4.62566 51.6947 4.62284 54.9272 4.62234C56.7418 4.62202 58.5565 4.62064 60.3712 4.61666C61.9167 4.61327 63.4623 4.612 65.0078 4.61352C65.7961 4.61423 66.5842 4.61394 67.3725 4.61091C68.095 4.60814 68.8175 4.60831 69.54 4.61073C69.8004 4.61111 70.0609 4.61044 70.3214 4.60858C73.2104 4.58923 75.5676 5.34148 77.679 7.34864C79.5339 9.29886 80.074 11.5725 80.062 14.1847C80.0626 14.4166 80.0636 14.6485 80.0645 14.8805C80.0669 15.5144 80.0661 16.1483 80.065 16.7822C80.0642 17.467 80.0662 18.152 80.0678 18.837C80.0704 20.1778 80.0706 21.5185 80.0698 22.8591C80.0692 23.9492 80.0693 25.0392 80.0703 26.1294C80.0703 26.2847 80.0704 26.44 80.0706 26.6C80.0707 26.9156 80.0711 27.2311 80.0712 27.5467C80.0734 30.5042 80.0726 33.4619 80.0708 36.4194C80.0692 39.1227 80.0712 41.8261 80.075 44.5294C80.0789 47.3077 80.0803 50.0861 80.0793 52.8644C80.0787 54.4231 80.079 55.9819 80.0818 57.5408C80.0842 58.8678 80.0842 60.1949 80.0815 61.522C80.0801 62.1985 80.0798 62.875 80.0822 63.5516C80.0843 64.172 80.0836 64.7924 80.0806 65.4128C80.08 65.6361 80.0804 65.8594 80.0822 66.0828C80.1008 68.8183 79.2797 70.9292 77.4086 72.9188C75.8004 74.4695 73.7815 75.3303 71.5476 75.3335C71.3818 75.3341 71.3818 75.3341 71.2128 75.3345C70.8415 75.3356 70.4701 75.3356 70.0989 75.3355C69.8304 75.336 69.5618 75.3366 69.2934 75.3372C68.5547 75.3388 67.8161 75.3394 67.0773 75.3399C66.2809 75.3405 65.4845 75.3419 64.6881 75.3433C62.7643 75.3464 60.8404 75.348 58.9167 75.3494C58.0104 75.35 57.1042 75.3508 56.1981 75.3517C53.1853 75.3544 50.1725 75.3566 47.1598 75.3577C46.3779 75.358 45.5962 75.3583 44.8143 75.3586C44.6201 75.3588 44.4258 75.3588 44.2256 75.3589C41.0787 75.3602 37.9318 75.3641 34.785 75.3692C31.5534 75.3744 28.322 75.3772 25.0904 75.3777C23.2764 75.378 21.4623 75.3794 19.6483 75.3833C18.1031 75.3867 16.5579 75.388 15.0127 75.3864C14.2248 75.3858 13.4369 75.3861 12.649 75.3891C11.9265 75.3919 11.2042 75.3917 10.4817 75.3892C10.2215 75.3889 9.96121 75.3895 9.70096 75.3914C6.81825 75.4108 4.54191 74.7386 2.39521 72.7197C0.962561 71.2341 -0.0155119 69.2617 -0.0199963 67.1761C-0.0207891 66.9805 -0.0215819 66.7847 -0.0223989 66.583C-0.0224928 66.3653 -0.0225707 66.1478 -0.0226342 65.9302C-0.0232617 65.6992 -0.0239552 65.4684 -0.0247091 65.2375C-0.0265783 64.602 -0.0274614 63.9667 -0.0281752 63.3313C-0.029106 62.6463 -0.0309199 61.9613 -0.0325955 61.2763C-0.0364272 59.6213 -0.038713 57.9661 -0.0407297 56.3111C-0.0413097 55.8434 -0.0419307 55.3758 -0.0425661 54.9081C-0.04651 52.003 -0.049955 49.098 -0.0518985 46.1928C-0.0523561 45.5199 -0.0528192 44.8469 -0.0532902 44.1741C-0.0534067 44.0067 -0.0535235 43.8395 -0.0536436 43.6672C-0.0556192 40.9599 -0.060808 38.2527 -0.0673217 35.5455C-0.0739572 32.7647 -0.0776332 29.9839 -0.0784486 27.2031C-0.0789814 25.6425 -0.0808089 24.0817 -0.0859649 22.521C-0.0903505 21.1913 -0.0920541 19.8616 -0.0903094 18.5317C-0.0895016 17.8539 -0.0899328 17.1761 -0.0938196 16.4983C-0.0973564 15.8763 -0.0972011 15.2544 -0.0942564 14.6323C-0.0938221 14.4087 -0.0946764 14.1852 -0.09704 13.9616C-0.122892 11.3544 0.6635 9.05467 2.48188 7.13869C4.13922 5.58592 6.17281 4.66978 8.45563 4.66653Z" fill="#E9F3FF"/>
<path d="M9.39975 7.32365C9.50739 7.32338 9.61503 7.3231 9.72592 7.32282C10.0855 7.3221 10.4451 7.32248 10.8047 7.32285C11.0655 7.32257 11.3264 7.32221 11.5872 7.32179C12.3033 7.32084 13.0193 7.32085 13.7353 7.32104C14.5078 7.32107 15.2803 7.3202 16.0528 7.31946C17.5661 7.31817 19.0794 7.31773 20.5925 7.31765C21.8225 7.31757 23.0525 7.31726 24.2825 7.31676C27.77 7.31538 31.2575 7.31467 34.745 7.31477C35.0269 7.31479 35.0269 7.31479 35.3145 7.31479C35.5028 7.31481 35.6911 7.31481 35.885 7.31482C38.9358 7.31488 41.9866 7.31338 45.0373 7.31118C48.17 7.30893 51.3027 7.30785 54.4352 7.30799C56.1939 7.30804 57.9527 7.30762 59.7113 7.30593C61.2086 7.30451 62.7059 7.30417 64.2031 7.30523C64.967 7.30574 65.7308 7.30574 66.4945 7.3044C67.1942 7.30317 67.8937 7.30338 68.5934 7.30476C68.8461 7.30499 69.0987 7.30471 69.3514 7.30384C71.7637 7.29607 73.8127 7.51188 75.6531 9.21448C78.9306 12.8647 77.3438 19.3294 77.3438 23.2813C52.6969 23.2813 28.05 23.2813 2.65625 23.2813C2.65625 11.0995 2.65625 11.0995 4.25477 9.29382C5.76911 7.84207 7.32292 7.32485 9.39975 7.32365Z" fill="#F1BD22"/>
<path d="M8.45563 4.66653C8.56619 4.66617 8.67675 4.6658 8.79067 4.66542C9.16211 4.66437 9.53353 4.66445 9.90496 4.66452C10.1736 4.664 10.4422 4.66342 10.7108 4.66278C11.4498 4.6612 12.1888 4.66062 12.9278 4.66022C13.7245 4.65961 14.5212 4.65811 15.318 4.65673C17.2425 4.65366 19.167 4.65208 21.0915 4.65069C21.9979 4.65 22.9043 4.64917 23.8108 4.64834C26.8243 4.64569 29.8378 4.64342 32.8512 4.6423C33.6331 4.642 34.4151 4.6417 35.197 4.64139C35.4886 4.64128 35.4886 4.64128 35.7859 4.64116C38.9339 4.63986 42.0818 4.63591 45.23 4.63083C48.4623 4.62566 51.6947 4.62284 54.9272 4.62234C56.7418 4.62202 58.5565 4.62064 60.3712 4.61666C61.9167 4.61327 63.4623 4.612 65.0078 4.61352C65.7961 4.61423 66.5842 4.61394 67.3725 4.61091C68.095 4.60814 68.8175 4.60831 69.54 4.61073C69.8004 4.61111 70.0609 4.61044 70.3214 4.60858C73.2104 4.58923 75.5676 5.34148 77.679 7.34864C79.5339 9.29886 80.074 11.5725 80.062 14.1847C80.0626 14.4166 80.0636 14.6485 80.0645 14.8805C80.0669 15.5144 80.0661 16.1483 80.065 16.7822C80.0642 17.467 80.0662 18.152 80.0678 18.837C80.0704 20.1778 80.0706 21.5185 80.0698 22.8591C80.0692 23.9492 80.0693 25.0392 80.0703 26.1294C80.0703 26.2847 80.0704 26.44 80.0706 26.6C80.0707 26.9156 80.0711 27.2311 80.0712 27.5467C80.0734 30.5042 80.0726 33.4619 80.0708 36.4194C80.0692 39.1227 80.0712 41.8261 80.075 44.5294C80.0789 47.3077 80.0803 50.0861 80.0793 52.8644C80.0787 54.4231 80.079 55.9819 80.0818 57.5408C80.0842 58.8678 80.0842 60.1949 80.0815 61.522C80.0801 62.1985 80.0798 62.875 80.0822 63.5516C80.0843 64.172 80.0836 64.7924 80.0806 65.4128C80.08 65.6361 80.0804 65.8594 80.0822 66.0828C80.1008 68.8183 79.2797 70.9292 77.4086 72.9188C75.8004 74.4695 73.7815 75.3303 71.5476 75.3335C71.3818 75.3341 71.3818 75.3341 71.2128 75.3345C70.8415 75.3356 70.4701 75.3356 70.0989 75.3355C69.8304 75.336 69.5618 75.3366 69.2934 75.3372C68.5547 75.3388 67.8161 75.3394 67.0773 75.3399C66.2809 75.3405 65.4845 75.3419 64.6881 75.3433C62.7643 75.3464 60.8404 75.348 58.9167 75.3494C58.0104 75.35 57.1042 75.3508 56.1981 75.3517C53.1853 75.3544 50.1725 75.3566 47.1598 75.3577C46.3779 75.358 45.5962 75.3583 44.8143 75.3586C44.6201 75.3588 44.4258 75.3588 44.2256 75.3589C41.0787 75.3602 37.9318 75.3641 34.785 75.3692C31.5534 75.3744 28.322 75.3772 25.0904 75.3777C23.2764 75.378 21.4623 75.3794 19.6483 75.3833C18.1031 75.3867 16.5579 75.388 15.0127 75.3864C14.2248 75.3858 13.4369 75.3861 12.649 75.3891C11.9265 75.3919 11.2042 75.3917 10.4817 75.3892C10.2215 75.3889 9.96121 75.3895 9.70096 75.3914C6.81825 75.4108 4.54191 74.7386 2.39521 72.7197C0.962561 71.2341 -0.0155119 69.2617 -0.0199963 67.1761C-0.0207891 66.9805 -0.0215819 66.7847 -0.0223989 66.583C-0.0224928 66.3653 -0.0225707 66.1478 -0.0226342 65.9302C-0.0232617 65.6992 -0.0239552 65.4684 -0.0247091 65.2375C-0.0265783 64.602 -0.0274614 63.9667 -0.0281752 63.3313C-0.029106 62.6463 -0.0309199 61.9613 -0.0325955 61.2763C-0.0364272 59.6213 -0.038713 57.9661 -0.0407297 56.3111C-0.0413097 55.8434 -0.0419307 55.3758 -0.0425661 54.9081C-0.04651 52.003 -0.049955 49.098 -0.0518985 46.1928C-0.0523561 45.5199 -0.0528192 44.8469 -0.0532902 44.1741C-0.0534067 44.0067 -0.0535235 43.8395 -0.0536436 43.6672C-0.0556192 40.9599 -0.060808 38.2527 -0.0673217 35.5455C-0.0739572 32.7647 -0.0776332 29.9839 -0.0784486 27.2031C-0.0789814 25.6425 -0.0808089 24.0817 -0.0859649 22.521C-0.0903505 21.1913 -0.0920541 19.8616 -0.0903094 18.5317C-0.0895016 17.8539 -0.0899328 17.1761 -0.0938196 16.4983C-0.0973564 15.8763 -0.0972011 15.2544 -0.0942564 14.6323C-0.0938221 14.4087 -0.0946764 14.1852 -0.09704 13.9616C-0.122892 11.3544 0.6635 9.05467 2.48188 7.13869C4.13922 5.58592 6.17281 4.66978 8.45563 4.66653ZM4.24336 9.29567C1.12893 12.931 2.65766 19.5883 2.65766 23.2813C27.3045 23.2813 51.9514 23.2813 77.3451 23.2813C78.145 15.6991 78.145 15.6991 75.4739 9.03992C74.0317 7.71752 72.3582 7.32477 70.4454 7.32366C70.3378 7.32339 70.2301 7.32311 70.1192 7.32283C69.7597 7.32211 69.4001 7.32248 69.0404 7.32287C68.7797 7.32258 68.5187 7.32222 68.2579 7.3218C67.5418 7.32084 66.8259 7.32086 66.1098 7.32105C65.3373 7.32108 64.5648 7.32022 63.7923 7.31947C62.279 7.31817 60.7659 7.31775 59.2526 7.31766C58.0226 7.31758 56.7926 7.31727 55.5626 7.31677C52.0751 7.31539 48.5876 7.31467 45.1003 7.31478C44.8183 7.3148 44.8183 7.3148 44.5306 7.31481C44.3423 7.31481 44.1542 7.31481 43.9601 7.31483C40.9093 7.31489 37.8587 7.31339 34.8079 7.31119C31.6753 7.30895 28.5426 7.30787 25.41 7.308C23.6512 7.30805 21.8926 7.30762 20.1339 7.30594C18.6365 7.30452 17.1393 7.30419 15.642 7.30523C14.8782 7.30575 14.1144 7.30577 13.3506 7.30441C12.651 7.30317 11.9513 7.30341 11.2517 7.30477C10.999 7.305 10.7464 7.30472 10.4937 7.30384C7.99805 7.29581 6.13233 7.5525 4.24336 9.29567ZM2.65766 25.9375C2.63833 32.776 2.61899 39.6144 2.59906 46.6602C2.59053 48.8183 2.582 50.9764 2.5732 53.1999C2.57006 55.1369 2.57006 55.1369 2.56819 57.0738C2.56731 57.9356 2.56388 58.7974 2.55869 59.6591C2.55269 60.6542 2.55 61.6494 2.55131 62.6445C2.55188 63.1531 2.55049 63.6614 2.54589 64.17C2.5228 66.8578 2.60297 69.0324 4.58027 71.0633C6.01881 72.2349 7.56464 72.6742 9.40963 72.6777C9.51817 72.6781 9.62672 72.6784 9.73856 72.6789C10.1013 72.6802 10.464 72.6802 10.8267 72.6803C11.0898 72.6809 11.3528 72.6816 11.6159 72.6824C12.3382 72.6842 13.0604 72.6852 13.7827 72.6858C14.5619 72.6867 15.3412 72.6886 16.1204 72.6903C18.0017 72.6941 19.8829 72.6964 21.7643 72.6984C22.2958 72.6989 22.8273 72.6995 23.3587 72.7002C26.6606 72.7042 29.9625 72.7077 33.2643 72.7095C34.0286 72.71 34.7929 72.7105 35.5573 72.711C35.8423 72.7111 35.8423 72.7111 36.1329 72.7113C39.2108 72.7133 42.2884 72.7185 45.3662 72.725C48.5272 72.7316 51.6883 72.7353 54.8493 72.7361C56.6237 72.7366 58.3981 72.7384 60.1725 72.7436C61.6834 72.748 63.1943 72.7497 64.7053 72.748C65.4758 72.7472 66.2462 72.7477 67.0167 72.7514C67.7231 72.755 68.4293 72.7549 69.1356 72.7519C69.3903 72.7514 69.6448 72.7524 69.8993 72.7547C71.9947 72.7728 73.8808 72.4063 75.4701 70.9375C75.5529 70.863 75.6358 70.7884 75.7211 70.7117C77.6609 68.7269 77.4748 66.1508 77.4515 63.5783C77.4514 63.1603 77.4514 62.7424 77.452 62.3244C77.4525 61.3225 77.4481 60.321 77.4422 59.3191C77.4353 58.1588 77.4347 56.9985 77.4339 55.8381C77.4289 52.7788 77.4159 49.7195 77.4037 46.6602C77.3843 39.8217 77.3651 32.9831 77.3451 25.9375C52.6983 25.9375 28.0514 25.9375 2.65766 25.9375Z" fill="#003C7C"/>
<path d="M56.4027 41.4478C57.2809 41.766 57.7708 42.7102 58.2428 43.4669C58.3911 43.7005 58.5397 43.9341 58.6884 44.1675C58.7708 44.2974 58.8533 44.4272 58.9381 44.561C59.2609 45.065 59.5881 45.5663 59.9164 46.0669C59.9764 46.1586 60.0366 46.2502 60.0984 46.3447C60.3411 46.7145 60.5838 47.0844 60.8266 47.4541C60.9978 47.7149 61.1688 47.9758 61.3397 48.2367C61.4392 48.3885 61.5387 48.54 61.6412 48.6963C62.0145 49.2797 62.1005 49.6122 62.0319 50.3125C61.7506 50.7344 61.55 51.0222 61.0944 51.25C60.7883 51.2633 60.4816 51.2667 60.1752 51.2653C59.993 51.2649 59.8106 51.2642 59.6228 51.2638C59.4317 51.2625 59.2405 51.2611 59.0436 51.2599C58.8512 51.2591 58.6589 51.2585 58.4608 51.2577C57.9844 51.2558 57.5081 51.2533 57.0319 51.25C57.0053 51.557 57.0053 51.557 56.9781 51.8702C56.895 52.6094 56.7236 53.2813 56.485 53.9844C56.4442 54.1049 56.4033 54.2252 56.3613 54.3492C54.7673 58.8488 51.4595 62.5011 47.1716 64.5786C43.22 66.433 39.0155 66.945 34.8444 65.4688C34.6758 65.4106 34.5072 65.3524 34.3334 65.2924C32.2694 64.4994 30.4006 63.3378 28.7506 61.875C28.6309 61.7777 28.5114 61.6805 28.3881 61.5802C27.6666 60.9806 27.0588 60.3211 26.4753 59.5899C26.4061 59.5058 26.337 59.4216 26.2658 59.3349C25.9402 58.9114 25.7855 58.6246 25.7227 58.0902C25.8017 57.5103 25.9783 57.2699 26.4069 56.875C26.9386 56.6941 27.2031 56.6522 27.7148 56.8933C28.2089 57.2472 28.5542 57.6716 28.9264 58.1446C31.1659 60.8766 34.6072 62.931 38.1256 63.4375C39.9853 63.5713 41.9909 63.6442 43.7506 62.9688C43.9156 62.907 43.9156 62.907 44.0841 62.8441C47.9622 61.3745 51.3937 58.7625 53.1483 54.9049C53.2622 54.6441 53.3752 54.3828 53.4869 54.1211C53.5661 53.9366 53.5661 53.9366 53.6469 53.7483C53.9862 52.9252 54.2039 52.1238 54.3756 51.25C54.2803 51.2533 54.185 51.2566 54.0869 51.26C53.6525 51.273 53.2183 51.2811 52.7838 51.2891C52.6339 51.2944 52.4839 51.2995 52.3294 51.305C51.2103 51.3205 51.2103 51.3205 50.608 50.9546C50.2556 50.5606 50.1653 50.4047 50.117 49.8772C50.1636 49.2906 50.3159 49.0164 50.6378 48.5278C50.7411 48.3689 50.8444 48.21 50.9508 48.0463C51.0625 47.8789 51.1744 47.7116 51.2897 47.5391C51.4042 47.3647 51.5187 47.1902 51.633 47.0155C51.863 46.6647 52.0944 46.3147 52.3269 45.9655C52.6227 45.5202 52.9156 45.0733 53.2073 44.6253C53.3688 44.3791 53.5303 44.1328 53.692 43.8867C53.7637 43.777 53.8355 43.6674 53.9095 43.5542C55.318 41.4389 55.318 41.4389 56.4027 41.4478Z" fill="#003C7C"/>
<path d="M44.688 29.5313C44.7903 29.5647 44.8925 29.5983 44.998 29.6327C48.5058 30.7844 52.4314 33.2091 54.2192 36.5625C54.3114 37.09 54.2495 37.2902 54.063 37.8125C53.7153 38.2403 53.4694 38.2746 52.9301 38.3886C51.9465 38.2083 51.4581 37.4663 50.8378 36.7249C49.0644 34.6156 46.8264 33.203 44.2192 32.3438C44.0387 32.2822 43.8583 32.2205 43.6723 32.1571C40.0636 31.0819 36.5028 31.6538 33.2395 33.41C32.3561 33.91 31.5665 34.5131 30.7817 35.1563C30.6737 35.2369 30.5658 35.3174 30.4545 35.4003C27.9362 37.3821 26.2287 40.8147 25.6254 43.9063C25.7215 43.9047 25.8176 43.903 25.9167 43.9013C26.3534 43.8949 26.7903 43.8908 27.227 43.8867C27.3783 43.8841 27.5295 43.8814 27.6854 43.8788C27.8314 43.8778 27.9775 43.8767 28.128 43.8758C28.262 43.8741 28.3962 43.8725 28.5345 43.8708C28.9453 43.91 29.1864 43.995 29.5317 44.2188C29.8831 44.7458 29.9115 45.0344 29.8251 45.6547C29.5101 46.6624 28.8134 47.5214 28.2133 48.3789C28.0764 48.5783 27.9398 48.778 27.8034 48.9777C27.5304 49.3772 27.2558 49.7753 26.9798 50.1728C26.6915 50.5905 26.4101 51.0121 26.1331 51.4372C26.0634 51.5439 25.9937 51.6506 25.9219 51.7605C25.7892 51.9639 25.6576 52.168 25.527 52.3727C25.1964 52.8789 24.9028 53.2872 24.3754 53.5938C23.8481 53.6914 23.8481 53.6914 23.2817 53.5938C22.397 52.6925 21.7451 51.6249 21.0648 50.5664C20.8889 50.2936 20.7126 50.0208 20.5364 49.748C20.4195 49.5671 20.3028 49.3861 20.1861 49.2049C19.8419 48.6714 19.4908 48.1433 19.1325 47.6191C19.052 47.4997 18.9714 47.3805 18.8884 47.2577C18.7428 47.0424 18.5951 46.8283 18.4454 46.6156C18.0017 45.9525 17.8297 45.481 17.9692 44.6875C18.225 44.2316 18.225 44.2316 18.7504 43.9063C19.4723 43.8117 20.1822 43.833 20.9086 43.8574C21.1064 43.861 21.304 43.8646 21.5076 43.8681C21.995 43.8774 22.482 43.8902 22.9692 43.9063C22.9572 43.6764 22.9572 43.6764 22.9448 43.4417C22.9462 42.7446 23.1331 42.1485 23.3598 41.4941C23.4017 41.3719 23.4437 41.2496 23.4869 41.1235C25.1354 36.4742 28.3951 32.7153 32.813 30.4688C36.4995 28.7736 40.7903 28.1774 44.688 29.5313Z" fill="#003C7C"/>
<path d="M35.7263 39.1378C35.8289 39.1367 35.9316 39.1356 36.0375 39.1345C36.3761 39.1319 36.7145 39.1336 37.0531 39.1358C37.2889 39.1353 37.5247 39.1347 37.7606 39.1339C38.2544 39.133 38.7483 39.1344 39.2422 39.1374C39.8747 39.1408 40.5072 39.1388 41.1398 39.135C41.6267 39.1328 42.1136 39.1335 42.6005 39.1352C42.8336 39.1355 43.0669 39.135 43.3002 39.1336C43.6263 39.132 43.9522 39.1344 44.2784 39.1378C44.5567 39.1386 44.5567 39.1386 44.8405 39.1394C45.4084 39.2344 45.5919 39.3941 45.9398 39.8438C46.0536 40.272 46.0295 40.661 45.9398 41.0938C45.5948 41.5577 45.3952 41.692 44.8461 41.875C44.4719 41.886 44.0973 41.8883 43.723 41.8849C43.5242 41.8835 43.3255 41.8819 43.1206 41.8805C42.8919 41.8778 42.8919 41.8778 42.6586 41.875C42.6923 41.9616 42.7263 42.0483 42.7611 42.1375C42.8045 42.2506 42.8481 42.3639 42.893 42.4805C42.9364 42.5928 42.98 42.7053 43.0248 42.8211C43.1273 43.125 43.1273 43.125 43.1273 43.4375C43.3167 43.4294 43.3167 43.4294 43.51 43.4211C43.677 43.4167 43.8439 43.4125 44.0159 43.4083C44.1809 43.4028 44.3459 43.3974 44.5158 43.3917C45.1059 43.4472 45.518 43.6408 45.9398 44.0625C46.0117 44.7816 46.0323 45.148 45.6761 45.7813C44.867 46.2697 44.0492 46.1545 43.1273 46.0938C43.0952 46.2742 43.0628 46.4547 43.0297 46.6406C42.7027 47.9285 41.6958 48.9444 40.6273 49.6875C40.3045 49.8374 39.9775 49.9781 39.647 50.1105C39.3953 50.2122 39.3953 50.2122 39.1384 50.3161C38.9473 50.3916 38.9473 50.3916 38.7523 50.4688C38.8841 50.5997 39.0158 50.7305 39.1514 50.8655C39.6391 51.3502 40.1261 51.8353 40.613 52.3208C40.8239 52.531 41.035 52.7411 41.2462 52.951C41.5495 53.2524 41.8523 53.5542 42.155 53.8563C42.2498 53.9503 42.3448 54.0444 42.4425 54.1413C43.2614 54.96 43.2614 54.96 43.3422 55.6739C43.2836 56.25 43.2836 56.25 42.9516 56.7091C42.5023 57.0313 42.5023 57.0313 42.0628 57.1485C40.3952 56.7561 38.7358 54.4233 37.5502 53.2535C37.2569 52.965 36.9622 52.6778 36.6664 52.392C36.2373 51.977 35.8123 51.5583 35.3881 51.1383C35.2553 51.0114 35.1225 50.8847 34.9856 50.7539C33.9853 49.7502 33.9853 49.7502 33.9648 49.0008C34.0648 48.4375 34.0648 48.4375 34.34 47.9742C35.1009 47.4961 35.8108 47.5583 36.6917 47.5685C38.3766 47.6075 38.3766 47.6075 39.8461 46.875C40.1127 46.4755 40.1127 46.4755 40.3148 46.0938C40.1533 46.0978 39.9917 46.1019 39.8252 46.1061C39.2239 46.1203 38.6227 46.1292 38.0213 46.1367C37.7613 46.1406 37.5014 46.146 37.2416 46.1527C36.8672 46.1622 36.4931 46.1666 36.1186 46.17C36.0031 46.1741 35.8875 46.1781 35.7684 46.1824C35.1409 46.1827 34.8766 46.1183 34.3817 45.7192C34.0664 45.3147 33.9631 45.1678 33.9867 44.668C34.0648 44.0625 34.0648 44.0625 34.2698 43.7599C34.8877 43.3708 35.5086 43.4174 36.2102 43.4222C36.3861 43.4225 36.3861 43.4225 36.5655 43.423C36.9397 43.4238 37.3138 43.4258 37.6878 43.4278C37.9417 43.4286 38.1955 43.4292 38.4492 43.4299C39.0711 43.4316 39.693 43.4342 40.3148 43.4375C39.8491 42.7089 39.5914 42.3081 38.7523 42.0313C37.9558 41.9502 37.158 41.9556 36.3583 41.9489C36.1145 41.9438 36.1145 41.9438 35.8659 41.9385C35.7189 41.9374 35.5719 41.9363 35.4203 41.9352C34.9228 41.8636 34.6264 41.6988 34.2211 41.4063C33.9766 40.9174 33.9559 40.3733 34.0648 39.8438C34.5636 39.1949 34.9253 39.14 35.7263 39.1378Z" fill="#003C7C"/>
<path d="M24.1782 11.3807C25.2341 11.9251 25.9521 12.782 26.5524 13.7891C26.8986 15.011 26.8797 16.2003 26.2899 17.3389C25.5586 18.5199 24.7474 19.0946 23.4371 19.5313C22.1197 19.6716 21.0892 19.5286 19.9996 18.75C19.0471 17.9071 18.5252 17.0302 18.3828 15.7691C18.3171 14.3175 18.6602 13.4567 19.5992 12.3731C20.9292 11.2377 22.4732 10.8609 24.1782 11.3807Z" fill="#003C7C"/>
<path d="M37.2473 11.5625C38.2029 12.1126 39.0786 12.9803 39.4634 14.0357C39.7193 15.2945 39.7262 16.568 39.0033 17.6617C38.2612 18.5655 37.4247 19.3071 36.2512 19.5313C34.8028 19.6686 33.7783 19.4889 32.6281 18.5646C31.8448 17.8496 31.322 16.915 31.2084 15.8491C31.1626 14.4968 31.4045 13.5087 32.3242 12.4891C33.7067 11.2034 35.4745 10.7614 37.2473 11.5625Z" fill="#003C7C"/>
<path d="M11.3985 11.416C12.5962 12.1738 13.477 12.9882 13.9083 14.375C14.1203 15.6905 13.8647 16.7121 13.127 17.8125C12.3798 18.6939 11.3943 19.4313 10.2242 19.5838C8.71734 19.6058 7.62376 19.1675 6.52242 18.1299C5.67887 17.1397 5.51259 15.986 5.55745 14.7162C5.72287 13.5336 6.27825 12.6577 7.19869 11.9147C8.4079 11.1337 10.0104 10.8987 11.3985 11.416Z" fill="#003C7C"/>
<path d="M55.9375 45.3125C56.4639 45.488 56.5073 45.5577 56.7828 46.0089C56.8505 46.1185 56.918 46.2278 56.9877 46.3406C57.0567 46.4558 57.1259 46.5708 57.1972 46.6894C57.267 46.8028 57.3369 46.9161 57.4087 47.0328C57.7233 47.5466 58.0112 48.0538 58.2812 48.5938C56.8375 48.5938 55.3938 48.5938 53.9062 48.5938C54.3778 47.745 54.822 46.9572 55.3613 46.1622C55.4703 46.0008 55.5792 45.8394 55.6916 45.6733C55.7727 45.5542 55.8539 45.4352 55.9375 45.3125Z" fill="#F1BD22"/>
<path d="M21.7188 46.5625C23.1625 46.5625 24.6062 46.5625 26.0938 46.5625C25.7328 47.1297 25.3719 47.6969 25 48.2813C24.7491 48.7063 24.5033 49.1333 24.2597 49.5624C24.1945 49.6552 24.1295 49.7481 24.0625 49.8438C23.9594 49.8438 23.8563 49.8438 23.75 49.8438C23.5281 49.5594 23.5281 49.5594 23.2752 49.1656C23.1845 49.0253 23.0939 48.885 23.0005 48.7405C22.9063 48.5922 22.812 48.4439 22.7148 48.291C22.6194 48.1433 22.5239 47.9955 22.4255 47.8433C21.7187 46.743 21.7188 46.743 21.7188 46.5625Z" fill="#F1BD22"/>
<path d="M36.0966 13.9063C36.5871 14.223 36.8246 14.4458 36.9524 15.025C36.9936 15.6744 36.9277 16.0152 36.5752 16.5723C35.9321 16.9792 35.4319 17.0386 34.6903 16.875C34.2149 16.5645 33.9685 16.3563 33.8408 15.7911C33.8044 15.1911 33.873 14.9005 34.2021 14.3848C34.7685 13.8352 35.3313 13.7819 36.0966 13.9063Z" fill="#E9F3FF"/>
<path d="M10.1312 13.8318C10.7105 13.9596 10.9333 14.1972 11.25 14.6875C11.358 15.1304 11.3652 15.4956 11.25 15.9375C10.8691 16.3966 10.8691 16.3966 10.4688 16.7188C10.4172 16.7703 10.3656 16.8219 10.3125 16.875C9.66187 16.9377 9.32461 16.9441 8.76953 16.582C8.31452 16.127 8.28739 16 8.22266 15.3418C8.23314 14.8187 8.28447 14.6825 8.58398 14.2188C9.14192 13.8544 9.4758 13.7902 10.1312 13.8318Z" fill="#E9F3FF"/>
<path d="M22.9453 13.8312C23.5177 13.9585 23.7472 14.2071 24.0641 14.6875C24.1522 15.3042 24.1225 15.6563 23.8591 16.2208C23.5953 16.5625 23.5953 16.5625 23.1266 16.875C22.4217 16.9256 21.8736 16.8421 21.32 16.3966C21.0283 15.8003 20.9484 15.3381 21.0953 14.6875C21.5878 13.9249 22.0786 13.7777 22.9453 13.8312Z" fill="#E9F3FF"/>
</g>
</g>
<defs>
<clipPath id="clip0_6649_5079">
<rect width="80" height="80" fill="white"/>
</clipPath>
</defs>
</svg>
