<svg width="24" height="24" viewBox="0 0 24 24" fill="none" xmlns="http://www.w3.org/2000/svg">
<path d="M2 20V18H12V20H2ZM5 17C4.45 17 3.97917 16.8042 3.5875 16.4125C3.19583 16.0208 3 15.55 3 15V6C3 5.45 3.19583 4.97917 3.5875 4.5875C3.97917 4.19583 4.45 4 5 4H19C19.55 4 20.0208 4.19583 20.4125 4.5875C20.8042 4.97917 21 5.45 21 6H5V15H12V17H5ZM20 18V10H16V18H20ZM15.5 20C15.0833 20 14.7292 19.8542 14.4375 19.5625C14.1458 19.2708 14 18.9167 14 18.5V9.5C14 9.08333 14.1458 8.72917 14.4375 8.4375C14.7292 8.14583 15.0833 8 15.5 8H20.5C20.9167 8 21.2708 8.14583 21.5625 8.4375C21.8542 8.72917 22 9.08333 22 9.5V18.5C22 18.9167 21.8542 19.2708 21.5625 19.5625C21.2708 19.8542 20.9167 20 20.5 20H15.5ZM18 12.5C18.2167 12.5 18.3958 12.425 18.5375 12.275C18.6792 12.125 18.75 11.95 18.75 11.75C18.75 11.5333 18.6792 11.3542 18.5375 11.2125C18.3958 11.0708 18.2167 11 18 11C17.8 11 17.625 11.0708 17.475 11.2125C17.325 11.3542 17.25 11.5333 17.25 11.75C17.25 11.95 17.325 12.125 17.475 12.275C17.625 12.425 17.8 12.5 18 12.5Z" fill="#0A3254"/>
</svg>
