<svg width="101" height="100" viewBox="0 0 101 100" fill="none" xmlns="http://www.w3.org/2000/svg">
<g clip-path="url(#clip0_7001_5223)">
<path d="M47.0839 -0.103755C47.3582 -0.104283 47.6325 -0.105042 47.9068 -0.10602C48.4794 -0.107167 49.0519 -0.105515 49.6245 -0.101848C50.3548 -0.0973971 51.0849 -0.0999627 51.8151 -0.104639C52.3809 -0.107476 52.9465 -0.106557 53.5122 -0.104539C53.7813 -0.104022 54.0504 -0.104644 54.3195 -0.106476C56.042 -0.115633 57.3965 -0.0782086 58.7096 1.15128C58.7967 1.2749 58.8838 1.39852 58.9736 1.52588C59.0637 1.64799 59.1539 1.7701 59.2467 1.89591C59.8636 3.04917 59.9337 4.16786 59.9372 5.44739C59.9421 5.77851 59.9471 6.10962 59.9521 6.44074C59.9577 6.95807 59.9624 7.4754 59.966 7.99275C59.9702 8.49527 59.9779 8.99765 59.986 9.50013C59.986 9.73267 59.986 9.73267 59.9861 9.96992C59.9945 10.7803 59.9945 10.7803 60.3128 11.5076C60.7286 11.7618 61.1149 11.9038 61.5828 12.0422C61.863 12.1287 61.863 12.1287 62.1488 12.2169C62.3497 12.2781 62.5507 12.3393 62.7578 12.4023C65.3297 13.218 67.9132 14.2521 70.2233 15.6655C70.7828 15.8843 71.0316 15.8358 71.5957 15.625C72.0144 15.2658 72.3837 14.9143 72.7607 14.5157C72.9235 14.3491 72.9235 14.3491 73.0896 14.1792C73.4358 13.8247 73.7794 13.4678 74.1225 13.1104C74.4651 12.7545 74.8082 12.3992 75.1533 12.0457C75.3677 11.8261 75.5806 11.6051 75.7918 11.3825C76.826 10.3213 77.8768 9.8292 79.3471 9.70459C81.315 9.7479 82.5828 11.0374 83.8927 12.3627C84.0709 12.5399 84.2491 12.7172 84.4327 12.8998C84.8075 13.2732 85.1806 13.6483 85.5524 14.0247C86.0265 14.5044 86.5048 14.9795 86.9846 15.4535C87.4456 15.9101 87.9029 16.3704 88.3605 16.8304C88.5314 16.9994 88.7023 17.1683 88.8784 17.3423C90.007 18.4928 90.7033 19.4405 90.8095 21.0938C90.6724 23.9011 88.0915 25.7106 86.2159 27.5082C86.0464 27.6742 85.877 27.8403 85.7024 28.0113C85.5485 28.1599 85.3946 28.3085 85.236 28.4616C84.8352 28.9579 84.7208 29.25 84.6816 29.8828C84.885 30.3754 85.0965 30.8112 85.353 31.2744C86.6831 33.807 87.7665 36.4208 88.607 39.1559C88.7207 39.5187 88.8483 39.8771 88.9785 40.2344C89.6029 40.5466 90.2827 40.4646 90.969 40.4709C91.2979 40.4764 91.6269 40.482 91.9558 40.4877C92.4735 40.4957 92.9911 40.5029 93.5089 40.5081C94.0091 40.5135 94.5093 40.5225 95.0095 40.5319C95.1616 40.5326 95.3136 40.5332 95.4703 40.5339C96.8505 40.5642 98.0382 40.8738 99.1958 41.6382C100.203 42.6926 100.598 43.7227 100.599 45.1778C100.595 45.3391 100.591 45.5004 100.587 45.6665C100.589 45.8315 100.59 45.9966 100.592 46.1666C100.579 47.3543 100.579 47.3543 100.252 47.8048C99.916 48.0469 99.916 48.0469 99.1347 48.0469C99.1347 49.3359 99.1347 50.625 99.1347 51.9531C99.457 52.0176 99.7793 52.082 100.111 52.1484C100.731 52.7682 100.574 53.478 100.575 54.3213C100.58 54.4834 100.585 54.6456 100.59 54.8126C100.596 56.1658 100.287 57.2071 99.3506 58.2077C99.227 58.2948 99.1034 58.3819 98.976 58.4717C98.7929 58.6069 98.7929 58.6069 98.606 58.7448C97.4527 59.3617 96.3341 59.4318 95.0545 59.4353C94.7234 59.4402 94.3923 59.4451 94.0612 59.4502C93.5438 59.4558 93.0265 59.4605 92.5092 59.4641C92.0066 59.4683 91.5043 59.476 91.0018 59.4841C90.8468 59.4841 90.6917 59.4841 90.532 59.4842C89.7216 59.4926 89.7216 59.4926 88.9943 59.8109C88.7401 60.2267 88.5981 60.613 88.4597 61.0809C88.402 61.2677 88.3444 61.4544 88.2851 61.6468C88.2238 61.8478 88.1626 62.0488 88.0996 62.2559C87.2839 64.8278 86.2498 67.4113 84.8364 69.7214C84.6176 70.2809 84.6662 70.5297 84.8769 71.0938C85.2361 71.5125 85.5876 71.8818 85.9862 72.2588C86.0973 72.3673 86.2083 72.4759 86.3227 72.5877C86.6772 72.9339 87.0341 73.2775 87.3916 73.6206C87.7475 73.9632 88.1027 74.3063 88.4562 74.6514C88.6758 74.8657 88.8968 75.0787 89.1194 75.2899C90.1825 76.326 90.6866 77.3793 90.7851 78.8574C90.7374 80.8371 89.652 81.8931 88.3109 83.2191C88.127 83.4037 87.9433 83.5883 87.7598 83.7731C87.376 84.1583 86.9905 84.5417 86.6038 84.9239C86.1108 85.4113 85.6223 85.9031 85.1349 86.3962C84.7568 86.7779 84.3764 87.1571 83.9953 87.5358C83.727 87.8031 83.4607 88.0723 83.1944 88.3417C82.0289 89.4855 81.0832 90.1991 79.4082 90.3076C76.6008 90.1705 74.7914 87.5896 72.9937 85.714C72.8277 85.5445 72.6617 85.3751 72.4906 85.2005C72.2677 84.9696 72.2677 84.9696 72.0403 84.7341C71.544 84.3333 71.2519 84.2189 70.6191 84.1797C70.1265 84.3831 69.6907 84.5946 69.2275 84.8511C66.695 86.1812 64.0811 87.2646 61.346 88.1051C60.9832 88.2188 60.6248 88.3464 60.2675 88.4766C59.9553 89.101 60.0373 89.7808 60.031 90.4671C60.0255 90.796 60.0199 91.125 60.0142 91.4539C60.0062 91.9716 59.999 92.4892 59.9938 93.0069C59.9884 93.5072 59.9794 94.0074 59.97 94.5076C59.9694 94.6596 59.9687 94.8117 59.9681 94.9684C59.9377 96.3486 59.6281 97.5363 58.8637 98.6938C57.3647 100.126 55.8992 100.117 53.9199 100.104C53.6456 100.104 53.3713 100.105 53.097 100.106C52.5244 100.107 51.9519 100.106 51.3793 100.102C50.649 100.097 49.919 100.1 49.1887 100.105C48.623 100.107 48.0573 100.107 47.4916 100.105C47.2225 100.104 46.9534 100.105 46.6843 100.106C44.9619 100.116 43.6074 100.078 42.2942 98.8487C42.2071 98.7251 42.12 98.6015 42.0302 98.4741C41.895 98.291 41.895 98.291 41.7571 98.1041C41.1402 96.9508 41.0701 95.8321 41.0666 94.5526C41.0617 94.2215 41.0568 93.8904 41.0518 93.5593C41.0461 93.0419 41.0414 92.5246 41.0378 92.0073C41.0336 91.5047 41.0259 91.0024 41.0178 90.4999C41.0178 90.2673 41.0178 90.2673 41.0177 90.0301C41.0094 89.2197 41.0094 89.2197 40.691 88.4924C40.2752 88.2382 39.8889 88.0962 39.421 87.9578C39.1409 87.8713 39.1409 87.8713 38.8551 87.7831C38.6541 87.7219 38.4531 87.6607 38.2461 87.5977C35.6741 86.782 33.0906 85.7479 30.7805 84.3345C30.221 84.1157 29.9722 84.1643 29.4082 84.375C28.9894 84.7342 28.6202 85.0857 28.2432 85.4843C28.1346 85.5954 28.026 85.7064 27.9142 85.8208C27.568 86.1753 27.2244 86.5322 26.8813 86.8897C26.5387 87.2456 26.1956 87.6008 25.8505 87.9543C25.6362 88.1739 25.4232 88.3949 25.212 88.6175C24.1759 89.6806 23.1226 90.1847 21.6445 90.2832C19.6648 90.2354 18.6088 89.1501 17.2828 87.809C17.0982 87.6251 16.9136 87.4414 16.7288 87.2578C16.3436 86.8741 15.9602 86.4886 15.578 86.1019C15.0906 85.6088 14.5989 85.1203 14.1057 84.633C13.7241 84.2549 13.3448 83.8745 12.9662 83.4934C12.6988 83.2251 12.4296 82.9588 12.1603 82.6925C11.0164 81.527 10.3028 80.5813 10.1943 78.9063C10.3314 76.0989 12.9123 74.2895 14.788 72.4918C14.9574 72.3258 15.1268 72.1598 15.3014 71.9887C15.5323 71.7658 15.5323 71.7658 15.7679 71.5384C16.1686 71.0421 16.283 70.75 16.3222 70.1172C16.1188 69.6246 15.9074 69.1888 15.6508 68.7256C14.3207 66.193 13.2374 63.5792 12.3968 60.8441C12.2831 60.4813 12.1555 60.1229 12.0253 59.7656C11.4009 59.4534 10.7211 59.5354 10.0348 59.5291C9.70588 59.5236 9.37693 59.518 9.04798 59.5123C8.53031 59.5043 8.01267 59.4971 7.49497 59.4919C6.99468 59.4865 6.49454 59.4775 5.99431 59.4681C5.76624 59.4671 5.76624 59.4671 5.53357 59.4662C4.15331 59.4358 2.96561 59.1262 1.80806 58.3618C0.375704 56.8628 0.384675 55.3973 0.398152 53.418C0.397625 53.1437 0.396865 52.8694 0.395887 52.5951C0.39474 52.0225 0.396393 51.45 0.400059 50.8774C0.40451 50.1471 0.401946 49.417 0.39727 48.6868C0.394433 48.1211 0.39535 47.5554 0.397368 46.9897C0.397886 46.7206 0.397263 46.4515 0.395431 46.1824C0.386274 44.4599 0.423699 43.1054 1.65319 41.7923C1.77681 41.7052 1.90043 41.6181 2.02779 41.5283C2.1499 41.4382 2.27201 41.3481 2.39782 41.2552C3.55107 40.6383 4.66977 40.5682 5.9493 40.5647C6.28042 40.5598 6.61153 40.5549 6.94265 40.5499C7.45998 40.5442 7.9773 40.5395 8.49466 40.5359C8.99718 40.5317 9.49956 40.524 10.002 40.5159C10.2346 40.5159 10.2346 40.5159 10.4718 40.5158C11.2822 40.5074 11.2822 40.5074 12.0095 40.1891C12.2637 39.7733 12.4057 39.387 12.5441 38.9191C12.6018 38.7323 12.6594 38.5456 12.7188 38.3532C12.78 38.1522 12.8412 37.9512 12.9043 37.7441C13.7199 35.1722 14.754 32.5887 16.1674 30.2786C16.3862 29.7191 16.3377 29.4703 16.1269 28.9063C15.7677 28.4875 15.4162 28.1183 15.0176 27.7412C14.851 27.5784 14.851 27.5784 14.6811 27.4123C14.3266 27.0661 13.9697 26.7225 13.6123 26.3794C13.2564 26.0368 12.9011 25.6937 12.5476 25.3486C12.328 25.1343 12.107 24.9213 11.8844 24.7101C10.8213 23.674 10.3173 22.6207 10.2187 21.1426C10.2665 19.1629 11.3518 18.1069 12.6929 16.7809C12.8768 16.5963 13.0605 16.4117 13.2441 16.2269C13.6278 15.8417 14.0133 15.4583 14.4 15.0761C14.8931 14.5887 15.3816 14.097 15.8689 13.6038C16.247 13.2221 16.6274 12.8429 17.0085 12.4643C17.2768 12.1969 17.5432 11.9277 17.8094 11.6583C18.9749 10.5145 19.9206 9.80087 21.5957 9.69239C24.403 9.82947 26.2125 12.4104 28.0101 14.286C28.1761 14.4555 28.3422 14.6249 28.5132 14.7995C28.6618 14.9534 28.8104 15.1074 28.9635 15.2659C29.4598 15.6667 29.7519 15.7811 30.3847 15.8203C30.8773 15.6169 31.3132 15.4055 31.7763 15.1489C34.3089 13.8188 36.9227 12.7354 39.6578 11.8949C40.0206 11.7812 40.379 11.6536 40.7363 11.5234C41.0485 10.899 40.9665 10.2192 40.9728 9.53293C40.9783 9.20398 40.9839 8.87502 40.9896 8.54607C40.9976 8.0284 41.0048 7.51077 41.01 6.99306C41.0154 6.49277 41.0244 5.99263 41.0338 5.49241C41.0345 5.34036 41.0351 5.18831 41.0358 5.03166C41.0661 3.6514 41.3757 2.4637 42.1401 1.30616C43.6391 -0.126203 45.1046 -0.117232 47.0839 -0.103755ZM48.7441 24.0234C48.5507 24.4102 48.3574 24.7969 48.1582 25.1953C47.5878 25.5756 47.3162 25.6658 46.6628 25.7828C40.1151 27.032 34.2663 30.3431 30.4091 35.9131C26.7027 41.4664 25.0853 48.1778 26.393 54.7974C27.7955 61.1272 31.4803 66.8659 36.9269 70.4681C37.1543 70.6128 37.3824 70.7562 37.6113 70.8984C37.7229 70.9681 37.8344 71.0377 37.9494 71.1094C40.0398 72.3823 42.2974 73.159 44.6425 73.8281C44.8405 73.8852 44.8405 73.8852 45.0425 73.9435C50.8604 75.5358 57.5462 74.245 62.7219 71.302C64.4824 70.2622 66.0126 68.9798 67.4941 67.5781C67.655 67.4298 67.8159 67.2815 67.9816 67.1288C71.2462 64.0169 73.1067 60.147 74.33 55.8594C74.3681 55.7274 74.4062 55.5954 74.4454 55.4594C76.0161 49.7204 74.7701 43.1471 71.9252 38.0127C68.667 32.3955 63.4313 28.1 57.1425 26.3672C56.3164 26.1742 55.4864 26.0033 54.651 25.8555C53.1973 25.5875 53.1973 25.5875 52.6503 25C52.457 24.5166 52.457 24.5166 52.2597 24.0234C51.0996 24.0234 49.9394 24.0234 48.7441 24.0234Z" fill="#E9F3FF"/>
<path d="M47.0839 -0.103755C47.3582 -0.104283 47.6325 -0.105042 47.9068 -0.10602C48.4794 -0.107167 49.0519 -0.105515 49.6245 -0.101848C50.3548 -0.0973971 51.0849 -0.0999627 51.8151 -0.104639C52.3809 -0.107476 52.9465 -0.106557 53.5122 -0.104539C53.7813 -0.104022 54.0504 -0.104644 54.3195 -0.106476C56.042 -0.115633 57.3965 -0.0782086 58.7096 1.15128C58.7967 1.2749 58.8838 1.39852 58.9736 1.52588C59.0637 1.64799 59.1539 1.7701 59.2467 1.89591C59.8636 3.04917 59.9337 4.16786 59.9372 5.44739C59.9421 5.77851 59.9471 6.10962 59.9521 6.44074C59.9577 6.95807 59.9624 7.4754 59.966 7.99275C59.9702 8.49527 59.9779 8.99765 59.986 9.50013C59.986 9.73267 59.986 9.73267 59.9861 9.96992C59.9945 10.7803 59.9945 10.7803 60.3128 11.5076C60.7286 11.7618 61.1149 11.9038 61.5828 12.0422C61.863 12.1287 61.863 12.1287 62.1488 12.2169C62.3497 12.2781 62.5507 12.3393 62.7578 12.4023C65.3297 13.218 67.9132 14.2521 70.2233 15.6655C70.7828 15.8843 71.0316 15.8358 71.5957 15.625C72.0144 15.2658 72.3837 14.9143 72.7607 14.5157C72.9235 14.3491 72.9235 14.3491 73.0896 14.1792C73.4358 13.8247 73.7794 13.4678 74.1225 13.1104C74.4651 12.7545 74.8082 12.3992 75.1533 12.0457C75.3677 11.8261 75.5806 11.6051 75.7918 11.3825C76.826 10.3213 77.8768 9.8292 79.3471 9.70459C81.315 9.7479 82.5828 11.0374 83.8927 12.3627C84.0709 12.5399 84.2491 12.7172 84.4327 12.8998C84.8075 13.2732 85.1806 13.6483 85.5524 14.0247C86.0265 14.5044 86.5048 14.9795 86.9846 15.4535C87.4456 15.9101 87.9029 16.3704 88.3605 16.8304C88.5314 16.9994 88.7023 17.1683 88.8784 17.3423C90.007 18.4928 90.7033 19.4405 90.8095 21.0938C90.6724 23.9011 88.0915 25.7106 86.2159 27.5082C86.0464 27.6742 85.877 27.8403 85.7024 28.0113C85.5485 28.1599 85.3946 28.3085 85.236 28.4616C84.8352 28.9579 84.7208 29.25 84.6816 29.8828C84.885 30.3754 85.0965 30.8112 85.353 31.2744C86.6831 33.807 87.7665 36.4208 88.607 39.1559C88.7207 39.5187 88.8483 39.8771 88.9785 40.2344C89.6029 40.5466 90.2827 40.4646 90.969 40.4709C91.2979 40.4764 91.6269 40.482 91.9558 40.4877C92.4735 40.4957 92.9911 40.5029 93.5089 40.5081C94.0091 40.5135 94.5093 40.5225 95.0095 40.5319C95.1616 40.5326 95.3136 40.5332 95.4703 40.5339C96.8505 40.5642 98.0382 40.8738 99.1958 41.6382C100.203 42.6926 100.598 43.7227 100.599 45.1778C100.595 45.3391 100.591 45.5004 100.587 45.6665C100.589 45.8315 100.59 45.9966 100.592 46.1666C100.579 47.3593 100.579 47.3593 100.245 47.7987C99.6816 48.2238 99.2266 48.1404 98.5488 48.0469C97.9873 47.7173 97.9873 47.7173 97.5722 47.0703C97.4833 46.4123 97.4501 45.7734 97.4425 45.1096C97.4284 44.5402 97.4284 44.5402 97.1269 44.2065C96.5406 43.7507 95.8062 43.8717 95.0934 43.8797C94.7482 43.8773 94.403 43.8747 94.0577 43.8721C93.5156 43.8713 92.9736 43.8721 92.4315 43.8749C88.2802 43.8883 88.2802 43.8883 86.716 42.4986C85.7875 41.4917 85.4743 40.2869 85.1333 39.0015C84.4281 36.4689 83.2121 34.1131 82.0151 31.7818C81.4013 30.5416 81.3771 29.3234 81.7641 28.0029C82.4717 26.7704 83.4758 25.8002 84.4977 24.8222C84.6696 24.6572 84.8414 24.4922 85.0184 24.3221C85.3749 23.9816 85.7335 23.6434 86.0942 23.3074C86.2642 23.1426 86.4343 22.9779 86.6095 22.8081C86.7645 22.6615 86.9194 22.515 87.0791 22.364C87.4547 21.8822 87.4547 21.8822 87.5648 21.2429C87.3369 20.1173 86.6429 19.5391 85.8405 18.7508C85.679 18.588 85.5175 18.4252 85.3511 18.2574C85.0091 17.9145 84.6654 17.5733 84.3201 17.2337C83.7923 16.7133 83.2722 16.1859 82.7525 15.6574C82.4192 15.325 82.0854 14.993 81.7511 14.6614C81.5959 14.5034 81.4406 14.3453 81.2806 14.1825C80.6133 13.5345 80.1934 13.132 79.275 12.9198C78.4404 13.1338 78.001 13.5518 77.4375 14.1693C77.3304 14.2802 77.2233 14.391 77.113 14.5053C76.7719 14.8591 76.4357 15.2172 76.1001 15.5762C75.7646 15.9319 75.4282 16.2864 75.0892 16.6387C74.8789 16.8575 74.6707 17.0783 74.465 17.3013C73.5044 18.3061 72.3359 19.0499 70.9121 19.0918C69.5598 19.0444 68.5236 18.4571 67.3636 17.8299C66.4922 17.3598 65.5989 16.9605 64.6865 16.5772C64.5326 16.5124 64.3787 16.4476 64.2201 16.3809C62.9862 15.8728 61.7326 15.44 60.4553 15.0542C59.1392 14.6444 58.1242 14.0567 57.3378 12.8906C56.7735 11.7942 56.6681 10.9247 56.6726 9.70154C56.6704 9.53146 56.6683 9.36138 56.6661 9.18614C56.6572 8.46341 56.6549 7.74068 56.6521 7.0179C56.649 6.48825 56.6426 5.9587 56.6359 5.42908C56.6365 5.26551 56.6371 5.10193 56.6377 4.9334C56.6468 4.10939 56.6468 4.10939 56.3253 3.37509C55.838 3.03146 55.5032 3.05063 54.9094 3.04919C54.6924 3.04734 54.4753 3.04549 54.2517 3.04359C53.9001 3.04537 53.9001 3.04537 53.5415 3.04718C53.3009 3.04662 53.0604 3.04606 52.8125 3.04549C52.1731 3.04498 51.5338 3.04734 50.8944 3.05062C50.5023 3.05176 50.1103 3.05062 49.7182 3.04861C48.9662 3.045 48.2143 3.04543 47.4624 3.04718C47.228 3.046 46.9936 3.04481 46.7521 3.04359C46.5351 3.04544 46.318 3.04728 46.0944 3.04919C45.8076 3.04989 45.8076 3.04989 45.5149 3.0506C45.0279 3.0892 45.0279 3.0892 44.6782 3.37567C44.2652 3.97513 44.3737 4.7055 44.3816 5.40848C44.3792 5.75371 44.3766 6.09894 44.374 6.44417C44.3732 6.98628 44.374 7.52832 44.3768 8.07043C44.3905 12.317 44.3905 12.317 42.939 13.8263C41.938 14.6718 40.7912 15.0068 39.5522 15.3687C37.429 16.029 35.4713 16.8949 33.4845 17.8871C31.7611 18.7474 30.4365 19.304 28.5048 18.7378C27.2723 18.0302 26.3021 17.0261 25.3241 16.0042C25.1591 15.8324 24.9941 15.6605 24.824 15.4835C24.4835 15.1271 24.1453 14.7684 23.8093 14.4077C23.5622 14.1526 23.5622 14.1526 23.31 13.8924C23.1634 13.7374 23.0169 13.5825 22.8659 13.4228C22.3841 13.0472 22.3841 13.0472 21.7448 12.9371C20.6192 13.165 20.041 13.8591 19.2527 14.6614C19.0899 14.8229 18.9271 14.9844 18.7593 15.1508C18.4164 15.4928 18.0752 15.8365 17.7356 16.1818C17.2152 16.7096 16.6878 17.2297 16.1593 17.7494C15.8269 18.0828 15.4949 18.4165 15.1633 18.7508C14.9262 18.9837 14.9262 18.9837 14.6844 19.2213C14.0372 19.8879 13.6341 20.3086 13.4212 21.2256C13.6366 22.065 14.0602 22.514 14.6781 23.085C14.7894 23.1935 14.9007 23.302 15.0154 23.4137C15.3706 23.7587 15.7301 24.0987 16.0903 24.4385C16.4475 24.7805 16.8037 25.1234 17.1589 25.4674C17.3797 25.6808 17.6018 25.8928 17.8253 26.1033C18.9429 27.172 19.4613 28.0927 19.5083 29.6265C19.5192 29.8572 19.5192 29.8572 19.5304 30.0926C19.4064 30.9444 19.0392 31.6516 18.666 32.4219C18.5895 32.5808 18.5131 32.7396 18.4344 32.9033C18.2742 33.2345 18.1135 33.5654 17.9523 33.896C16.9345 35.9895 16.056 38.0524 15.4555 40.3076C15.0852 41.5654 14.4057 42.5698 13.2705 43.2495C12.201 43.7446 11.2774 43.7808 10.1081 43.7912C9.76616 43.7967 9.42423 43.8023 9.08231 43.808C8.54439 43.8161 8.00651 43.8233 7.46855 43.8284C6.94858 43.8338 6.42877 43.8427 5.90886 43.8522C5.74772 43.8529 5.58658 43.8535 5.42056 43.8542C4.60407 43.8539 4.60407 43.8539 3.87753 44.177C3.53302 44.664 3.55254 44.9985 3.55109 45.5925C3.54925 45.8095 3.5474 46.0266 3.5455 46.2502C3.54728 46.6018 3.54728 46.6018 3.54909 46.9605C3.54853 47.201 3.54797 47.4416 3.54739 47.6894C3.54689 48.3288 3.54925 48.9681 3.55253 49.6075C3.55367 49.9996 3.55253 50.3916 3.55052 50.7837C3.54691 51.5357 3.54734 52.2876 3.54909 53.0396C3.54791 53.2739 3.54672 53.5083 3.5455 53.7498C3.54734 53.9668 3.54919 54.1839 3.55109 54.4075C3.55156 54.5987 3.55203 54.79 3.55251 54.987C3.59096 55.4742 3.59096 55.4742 3.8787 55.8235C4.46802 56.2312 5.17574 56.1325 5.86766 56.1272C6.20399 56.1306 6.54032 56.134 6.87665 56.1375C7.4046 56.1394 7.93252 56.1401 8.46047 56.1398C12.6784 56.1456 12.6784 56.1456 14.1291 57.3086C14.7388 57.933 15.047 58.5739 15.3335 59.3925C15.4005 59.5825 15.4676 59.7724 15.5367 59.9681C15.7203 60.5006 15.9032 61.0333 16.0857 61.5662C16.8924 63.9034 17.8561 66.0641 19.0752 68.2157C19.432 68.9002 19.4898 69.4912 19.5083 70.2515C19.5156 70.4456 19.5229 70.6397 19.5304 70.8397C19.3426 72.2958 18.5282 73.2945 17.4788 74.2622C17.2499 74.4823 17.021 74.7024 16.7922 74.9226C16.4342 75.2624 16.0751 75.6009 15.7145 75.9381C15.3638 76.2676 15.0174 76.6012 14.6712 76.9356C14.5626 77.0347 14.454 77.1338 14.3421 77.2359C13.8387 77.726 13.5968 78.09 13.4217 78.7731C13.6772 79.8788 14.369 80.4688 15.1633 81.2492C15.3248 81.412 15.4863 81.5748 15.6527 81.7426C15.9947 82.0855 16.3384 82.4267 16.6837 82.7663C17.2115 83.2868 17.7316 83.8141 18.2513 84.3426C18.5847 84.675 18.9184 85.007 19.2527 85.3386C19.408 85.4966 19.5633 85.6547 19.7232 85.8176C20.3898 86.4648 20.8105 86.8678 21.7275 87.0807C22.5669 86.8653 23.0159 86.4417 23.5869 85.8238C23.6954 85.7125 23.8039 85.6012 23.9156 85.4865C24.2606 85.1313 24.6006 84.7718 24.9404 84.4116C25.2824 84.0544 25.6253 83.6983 25.9693 83.343C26.1827 83.1222 26.3947 82.9001 26.6052 82.6766C27.674 81.559 28.5946 81.0406 30.1284 80.9937C30.2822 80.9864 30.436 80.9791 30.5945 80.9715C31.906 81.1624 33.1044 81.9233 34.2791 82.5098C36.2639 83.4927 38.2691 84.2632 40.3857 84.918C41.7646 85.3614 42.9333 85.8044 43.6952 87.1008C44.2122 88.2083 44.3625 89.1218 44.3503 90.3366C44.3531 90.5909 44.3531 90.5909 44.3559 90.8503C44.3615 91.3856 44.3621 91.9207 44.3618 92.4561C44.3625 92.9955 44.3643 93.5349 44.3697 94.0743C44.373 94.4084 44.3736 94.7425 44.3711 95.0766C44.359 95.8952 44.359 95.8952 44.6784 96.6245C45.1657 96.9686 45.5003 96.9494 46.0944 96.9508C46.3115 96.9527 46.5285 96.9545 46.7521 96.9564C46.9865 96.9552 47.2209 96.954 47.4624 96.9528C47.8232 96.9537 47.8232 96.9537 48.1913 96.9545C48.8307 96.955 49.47 96.9527 50.1095 96.9494C50.5015 96.9482 50.8936 96.9494 51.2856 96.9514C52.0376 96.955 52.7895 96.9546 53.5415 96.9528C53.893 96.9546 53.893 96.9546 54.2517 96.9564C54.4688 96.9546 54.6858 96.9527 54.9094 96.9508C55.1006 96.9504 55.2919 96.9499 55.4889 96.9494C55.9759 96.9108 55.9759 96.9108 56.3256 96.6243C56.7386 96.0249 56.6301 95.2945 56.6222 94.5915C56.6247 94.2463 56.6272 93.9011 56.6298 93.5558C56.6306 93.0137 56.6299 92.4717 56.627 91.9296C56.6135 87.7446 56.6135 87.7446 58.2412 85.9619C58.8076 85.6052 59.2644 85.3951 59.8876 85.1746C60.174 85.0726 60.174 85.0726 60.4662 84.9687C60.9996 84.7828 61.5336 84.599 62.0681 84.4162C64.4053 83.6096 66.5661 82.6458 68.7176 81.4267C69.4021 81.0699 69.9931 81.0121 70.7534 80.9937C70.9475 80.9864 71.1416 80.9791 71.3416 80.9715C72.7977 81.1594 73.7964 81.9737 74.7641 83.0231C74.9842 83.252 75.2043 83.4809 75.4245 83.7097C75.7643 84.0678 76.1029 84.4268 76.44 84.7874C76.7695 85.1381 77.1032 85.4845 77.4375 85.8307C77.5366 85.9393 77.6357 86.0479 77.7379 86.1599C78.2279 86.6632 78.5919 86.9051 79.275 87.0802C80.3807 86.8247 80.9707 86.1329 81.7511 85.3386C81.9139 85.1771 82.0768 85.0156 82.2445 84.8492C82.5874 84.5072 82.9286 84.1635 83.2682 83.8182C83.7887 83.2904 84.316 82.7703 84.8445 82.2506C85.1769 81.9172 85.5089 81.5835 85.8405 81.2492C85.9986 81.094 86.1566 80.9387 86.3195 80.7787C86.9674 80.1114 87.3699 79.6914 87.5821 78.7731C87.3681 77.9385 86.9501 77.4991 86.3326 76.9356C86.2217 76.8285 86.1109 76.7214 85.9967 76.6111C85.6428 76.27 85.2847 75.9338 84.9257 75.5981C84.57 75.2627 84.2155 74.9263 83.8632 74.5873C83.6444 74.377 83.4237 74.1688 83.2006 73.9631C82.1958 73.0025 81.452 71.834 81.4101 70.4102C81.4575 69.0579 82.0448 68.0217 82.672 66.8617C83.1421 65.9903 83.5414 65.097 83.9248 64.1846C83.9895 64.0307 84.0543 63.8768 84.121 63.7182C84.6292 62.4843 85.0619 61.2307 85.4477 59.9534C85.8575 58.6373 86.4453 57.6223 87.6113 56.8359C88.7077 56.2716 89.5772 56.1662 90.8004 56.1707C90.9705 56.1685 91.1405 56.1664 91.3158 56.1642C92.0385 56.1553 92.7612 56.153 93.484 56.1502C94.0137 56.1471 94.5432 56.1407 95.0728 56.134C95.2364 56.1346 95.4 56.1352 95.5685 56.1358C96.4035 56.1496 96.4035 56.1496 97.1275 55.7932C97.5099 55.2958 97.4431 54.8407 97.4502 54.2236C97.4992 53.377 97.5221 53.0078 97.9873 52.2827C98.6937 51.8681 99.1095 51.8336 99.916 51.9531C100.315 52.2541 100.479 52.4283 100.581 52.9214C100.587 53.3923 100.591 53.8625 100.587 54.3335C100.591 54.4948 100.595 54.656 100.599 54.8222C100.598 56.1672 100.281 57.2136 99.3506 58.2077C99.227 58.2948 99.1034 58.3819 98.976 58.4717C98.7929 58.6069 98.7929 58.6069 98.606 58.7448C97.4527 59.3617 96.3341 59.4318 95.0545 59.4353C94.7234 59.4402 94.3923 59.4451 94.0612 59.4502C93.5438 59.4558 93.0265 59.4605 92.5092 59.4641C92.0066 59.4683 91.5043 59.476 91.0018 59.4841C90.8468 59.4841 90.6917 59.4841 90.532 59.4842C89.7216 59.4926 89.7216 59.4926 88.9943 59.8109C88.7401 60.2267 88.5981 60.613 88.4597 61.0809C88.402 61.2677 88.3444 61.4544 88.2851 61.6468C88.2238 61.8478 88.1626 62.0488 88.0996 62.2559C87.2839 64.8278 86.2498 67.4113 84.8364 69.7214C84.6176 70.2809 84.6662 70.5297 84.8769 71.0938C85.2361 71.5125 85.5876 71.8818 85.9862 72.2588C86.0973 72.3673 86.2083 72.4759 86.3227 72.5877C86.6772 72.9339 87.0341 73.2775 87.3916 73.6206C87.7475 73.9632 88.1027 74.3063 88.4562 74.6514C88.6758 74.8657 88.8968 75.0787 89.1194 75.2899C90.1825 76.326 90.6866 77.3793 90.7851 78.8574C90.7374 80.8371 89.652 81.8931 88.3109 83.2191C88.127 83.4037 87.9433 83.5883 87.7598 83.7731C87.376 84.1583 86.9905 84.5417 86.6038 84.9239C86.1108 85.4113 85.6223 85.9031 85.1349 86.3962C84.7568 86.7779 84.3764 87.1571 83.9953 87.5358C83.727 87.8031 83.4607 88.0723 83.1944 88.3417C82.0289 89.4855 81.0832 90.1991 79.4082 90.3076C76.6008 90.1705 74.7914 87.5896 72.9937 85.714C72.8277 85.5445 72.6617 85.3751 72.4906 85.2005C72.2677 84.9696 72.2677 84.9696 72.0403 84.7341C71.544 84.3333 71.2519 84.2189 70.6191 84.1797C70.1265 84.3831 69.6907 84.5946 69.2275 84.8511C66.695 86.1812 64.0811 87.2646 61.346 88.1051C60.9832 88.2188 60.6248 88.3464 60.2675 88.4766C59.9553 89.101 60.0373 89.7808 60.031 90.4671C60.0255 90.796 60.0199 91.125 60.0142 91.4539C60.0062 91.9716 59.999 92.4892 59.9938 93.0069C59.9884 93.5072 59.9794 94.0074 59.97 94.5076C59.9694 94.6596 59.9687 94.8117 59.9681 94.9684C59.9377 96.3486 59.6281 97.5363 58.8637 98.6938C57.3647 100.126 55.8992 100.117 53.9199 100.104C53.6456 100.104 53.3713 100.105 53.097 100.106C52.5244 100.107 51.9519 100.106 51.3793 100.102C50.649 100.097 49.919 100.1 49.1887 100.105C48.623 100.107 48.0573 100.107 47.4916 100.105C47.2225 100.104 46.9534 100.105 46.6843 100.106C44.9619 100.116 43.6074 100.078 42.2942 98.8487C42.2071 98.7251 42.12 98.6015 42.0302 98.4741C41.895 98.291 41.895 98.291 41.7571 98.1041C41.1402 96.9508 41.0701 95.8321 41.0666 94.5526C41.0617 94.2215 41.0568 93.8904 41.0518 93.5593C41.0461 93.0419 41.0414 92.5246 41.0378 92.0073C41.0336 91.5047 41.0259 91.0024 41.0178 90.4999C41.0178 90.2673 41.0178 90.2673 41.0177 90.0301C41.0094 89.2197 41.0094 89.2197 40.691 88.4924C40.2752 88.2382 39.8889 88.0962 39.421 87.9578C39.1409 87.8713 39.1409 87.8713 38.8551 87.7831C38.6541 87.7219 38.4531 87.6607 38.2461 87.5977C35.6741 86.782 33.0906 85.7479 30.7805 84.3345C30.221 84.1157 29.9722 84.1643 29.4082 84.375C28.9894 84.7342 28.6202 85.0857 28.2432 85.4843C28.1346 85.5954 28.026 85.7064 27.9142 85.8208C27.568 86.1753 27.2244 86.5322 26.8813 86.8897C26.5387 87.2456 26.1956 87.6008 25.8505 87.9543C25.6362 88.1739 25.4232 88.3949 25.212 88.6175C24.1759 89.6806 23.1226 90.1847 21.6445 90.2832C19.6648 90.2354 18.6088 89.1501 17.2828 87.809C17.0982 87.6251 16.9136 87.4414 16.7288 87.2578C16.3436 86.8741 15.9602 86.4886 15.578 86.1019C15.0906 85.6088 14.5989 85.1203 14.1057 84.633C13.7241 84.2549 13.3448 83.8745 12.9662 83.4934C12.6988 83.2251 12.4296 82.9588 12.1603 82.6925C11.0164 81.527 10.3028 80.5813 10.1943 78.9063C10.3314 76.0989 12.9123 74.2895 14.788 72.4918C14.9574 72.3258 15.1268 72.1598 15.3014 71.9887C15.5323 71.7658 15.5323 71.7658 15.7679 71.5384C16.1686 71.0421 16.283 70.75 16.3222 70.1172C16.1188 69.6246 15.9074 69.1888 15.6508 68.7256C14.3207 66.193 13.2374 63.5792 12.3968 60.8441C12.2831 60.4813 12.1555 60.1229 12.0253 59.7656C11.4009 59.4534 10.7211 59.5354 10.0348 59.5291C9.70588 59.5236 9.37693 59.518 9.04798 59.5123C8.53031 59.5043 8.01267 59.4971 7.49497 59.4919C6.99468 59.4865 6.49454 59.4775 5.99431 59.4681C5.76624 59.4671 5.76624 59.4671 5.53357 59.4662C4.15331 59.4358 2.96561 59.1262 1.80806 58.3618C0.375704 56.8628 0.384675 55.3973 0.398152 53.418C0.397625 53.1437 0.396865 52.8694 0.395887 52.5951C0.39474 52.0225 0.396393 51.45 0.400059 50.8774C0.40451 50.1471 0.401946 49.417 0.39727 48.6868C0.394433 48.1211 0.39535 47.5554 0.397368 46.9897C0.397886 46.7206 0.397263 46.4515 0.395431 46.1824C0.386274 44.4599 0.423699 43.1054 1.65319 41.7923C1.77681 41.7052 1.90043 41.6181 2.02779 41.5283C2.1499 41.4382 2.27201 41.3481 2.39782 41.2552C3.55107 40.6383 4.66977 40.5682 5.9493 40.5647C6.28042 40.5598 6.61153 40.5549 6.94265 40.5499C7.45998 40.5442 7.9773 40.5395 8.49466 40.5359C8.99718 40.5317 9.49956 40.524 10.002 40.5159C10.2346 40.5159 10.2346 40.5159 10.4718 40.5158C11.2822 40.5074 11.2822 40.5074 12.0095 40.1891C12.2637 39.7733 12.4057 39.387 12.5441 38.9191C12.6018 38.7323 12.6594 38.5456 12.7188 38.3532C12.78 38.1522 12.8412 37.9512 12.9043 37.7441C13.7199 35.1722 14.754 32.5887 16.1674 30.2786C16.3862 29.7191 16.3377 29.4703 16.1269 28.9063C15.7677 28.4875 15.4162 28.1183 15.0176 27.7412C14.851 27.5784 14.851 27.5784 14.6811 27.4123C14.3266 27.0661 13.9697 26.7225 13.6123 26.3794C13.2564 26.0368 12.9011 25.6937 12.5476 25.3486C12.328 25.1343 12.107 24.9213 11.8844 24.7101C10.8213 23.674 10.3173 22.6207 10.2187 21.1426C10.2665 19.1629 11.3518 18.1069 12.6929 16.7809C12.8768 16.5963 13.0605 16.4117 13.2441 16.2269C13.6278 15.8417 14.0133 15.4583 14.4 15.0761C14.8931 14.5887 15.3816 14.097 15.8689 13.6038C16.247 13.2221 16.6274 12.8429 17.0085 12.4643C17.2768 12.1969 17.5432 11.9277 17.8094 11.6583C18.9749 10.5145 19.9206 9.80087 21.5957 9.69239C24.403 9.82947 26.2125 12.4104 28.0101 14.286C28.1761 14.4555 28.3422 14.6249 28.5132 14.7995C28.6618 14.9534 28.8104 15.1074 28.9635 15.2659C29.4598 15.6667 29.7519 15.7811 30.3847 15.8203C30.8773 15.6169 31.3132 15.4055 31.7763 15.1489C34.3089 13.8188 36.9227 12.7354 39.6578 11.8949C40.0206 11.7812 40.379 11.6536 40.7363 11.5234C41.0485 10.899 40.9665 10.2192 40.9728 9.53293C40.9783 9.20398 40.9839 8.87502 40.9896 8.54607C40.9976 8.0284 41.0048 7.51077 41.01 6.99306C41.0154 6.49277 41.0244 5.99263 41.0338 5.49241C41.0345 5.34036 41.0351 5.18831 41.0358 5.03166C41.0661 3.6514 41.3757 2.4637 42.1401 1.30616C43.6391 -0.126203 45.1046 -0.117232 47.0839 -0.103755Z" fill="#2B5582"/>
<path d="M21.7274 12.7213C22.5636 12.9402 23.0144 13.3643 23.5842 13.9809C23.7469 14.1478 23.7469 14.1478 23.9129 14.3182C24.2579 14.6734 24.5979 15.0329 24.9377 15.3931C25.2796 15.7502 25.6226 16.1064 25.9666 16.4616C26.18 16.6825 26.392 16.9046 26.6025 17.1281C27.6712 18.2457 28.5919 18.7641 30.1256 18.811C31.2109 18.7999 31.9704 18.4573 32.9211 17.9687C33.2498 17.8204 33.5794 17.6739 33.9098 17.5293C34.0571 17.4638 34.2044 17.3984 34.3561 17.3309C34.4626 17.2836 34.5691 17.2363 34.6789 17.1875C34.6789 17.5781 34.6789 17.5781 34.26 18.0069C34.1705 18.0931 34.0809 18.1792 33.9887 18.268C27.6529 24.6102 23.8936 34.2863 22.5695 42.9687C22.5474 43.1123 22.5254 43.2559 22.5026 43.4038C20.7327 55.6534 24.1855 68.5018 31.4928 78.418C31.7711 78.778 32.0518 79.1361 32.3351 79.4922C32.4884 79.6853 32.6418 79.8784 32.7997 80.0774C33.5198 80.9706 34.2481 81.8145 35.0695 82.6172C35.005 82.7461 34.9406 82.875 34.8742 83.0078C34.6554 82.8973 34.4366 82.7868 34.2112 82.6729C33.9236 82.5282 33.6359 82.3835 33.3483 82.2388C33.1321 82.1294 33.1321 82.1294 32.9115 82.0179C32.7029 81.9131 32.7029 81.9131 32.49 81.8062C32.3621 81.7417 32.2343 81.6773 32.1026 81.6109C30.938 81.0652 29.7193 81.1007 28.5021 81.4575C27.2696 82.1651 26.2994 83.1692 25.3214 84.1911C25.1564 84.363 24.9913 84.5348 24.8213 84.7118C24.4808 85.0683 24.1426 85.4269 23.8066 85.7876C23.6418 85.9576 23.477 86.1277 23.3073 86.3029C23.1607 86.4579 23.0142 86.6128 22.8632 86.7725C22.3742 87.1094 22.3742 87.1094 21.7448 87.2609C20.603 87.0264 20.0074 86.3053 19.2072 85.4912C18.9565 85.2424 18.9565 85.2424 18.7007 84.9887C18.3486 84.6375 17.9982 84.2846 17.6494 83.9301C17.1148 83.3881 16.5733 82.8539 16.0307 82.32C15.6894 81.9778 15.3484 81.6351 15.008 81.292C14.8457 81.1324 14.6833 80.9728 14.5161 80.8084C13.4382 79.6992 13.4382 79.6992 13.221 78.7704C13.4385 77.939 13.8569 77.4979 14.4732 76.9356C14.6395 76.775 14.6395 76.775 14.8091 76.6111C15.163 76.27 15.521 75.9338 15.88 75.5981C16.2357 75.2627 16.5903 74.9263 16.9426 74.5873C17.1614 74.377 17.3821 74.1688 17.6052 73.9631C18.61 73.0025 19.3538 71.834 19.3957 70.4102C19.3483 69.0579 18.761 68.0217 18.1338 66.8617C17.6637 65.9903 17.2644 65.097 16.881 64.1846C16.8162 64.0307 16.7515 63.8768 16.6847 63.7182C16.1766 62.4843 15.7439 61.2307 15.3581 59.9534C14.9856 58.7571 14.5131 57.7239 13.3898 57.0679C13.2609 56.9901 13.132 56.9123 12.9992 56.8321C12.0703 56.3767 11.1276 56.4161 10.1122 56.411C9.77118 56.4064 9.43014 56.4017 9.08911 56.3969C8.55291 56.39 8.01679 56.3843 7.48055 56.3817C6.96199 56.3786 6.44369 56.3708 5.9252 56.3621C5.76507 56.3625 5.60494 56.3629 5.43995 56.3633C5.29003 56.3601 5.14011 56.3568 4.98564 56.3535C4.85442 56.3524 4.72319 56.3512 4.58798 56.35C4.01912 56.1994 3.78465 55.9299 3.42886 55.4687C3.32966 54.9648 3.32966 54.9648 3.32778 54.3884C3.32531 54.172 3.32285 53.9556 3.32031 53.7327C3.32189 53.4999 3.32348 53.2672 3.3251 53.0273C3.32436 52.7875 3.32361 52.5477 3.32284 52.3006C3.32231 51.7937 3.32375 51.2867 3.32701 50.7797C3.33119 50.0029 3.32705 49.2265 3.32205 48.4497C3.32257 47.9574 3.32357 47.465 3.3251 46.9727C3.32352 46.7399 3.32194 46.5071 3.32031 46.2673C3.32278 46.0509 3.32524 45.8345 3.32778 45.6116C3.3284 45.4214 3.32902 45.2311 3.32966 45.0352C3.45826 44.3819 3.68558 44.1498 4.21011 43.75C4.7918 43.6776 5.30316 43.6502 5.884 43.6584C6.129 43.6564 6.129 43.6564 6.37895 43.6543C7.07549 43.6485 7.77192 43.6517 8.46846 43.6542C11.5101 43.7677 11.5101 43.7677 14.1306 42.45C14.9747 41.4473 15.3107 40.2893 15.6725 39.0503C16.3329 36.9271 17.1988 34.9694 18.191 32.9826C19.0512 31.2592 19.6078 29.9346 19.0417 28.0029C18.3341 26.7704 17.33 25.8002 16.308 24.8222C16.1362 24.6572 15.9644 24.4922 15.7873 24.3221C15.4309 23.9816 15.0723 23.6434 14.7116 23.3074C14.5415 23.1426 14.3715 22.9778 14.1962 22.8081C14.0413 22.6615 13.8863 22.515 13.7267 22.364C13.3898 21.875 13.3898 21.875 13.2383 21.2456C13.4728 20.1038 14.1939 19.5083 15.008 18.708C15.1738 18.5409 15.3397 18.3738 15.5105 18.2016C15.8617 17.8494 16.2146 17.499 16.5691 17.1503C17.111 16.6157 17.6453 16.0742 18.1792 15.5315C18.5214 15.1902 18.8641 14.8493 19.2072 14.5088C19.3668 14.3465 19.5263 14.1842 19.6907 14.0169C20.7997 12.9393 20.7997 12.9393 21.7274 12.7213Z" fill="#B3E7F2"/>
<path d="M47.5691 22.6562C48.2857 23.1703 48.5144 23.4548 48.6677 24.3286C48.5456 25 48.5456 25 48.1794 25.4051C47.3233 25.9327 46.4748 26.0464 45.4939 26.2207C41.2877 27.0569 37.4703 28.9481 34.2878 31.8359C34.1877 31.9265 34.0875 32.017 33.9844 32.1103C29.6472 36.0841 26.5886 41.9475 26.2448 47.872C25.9695 54.7812 27.7666 61.1571 32.4485 66.359C35.8634 70.0533 39.8236 72.2588 44.6394 73.6328C44.7714 73.6709 44.9034 73.709 45.0393 73.7482C50.8572 75.3404 57.543 74.0497 62.7188 71.1067C64.4795 70.0667 66.0081 68.7835 67.4909 67.3828C67.6375 67.2489 67.784 67.1149 67.935 66.9769C71.1346 63.9457 72.9394 60.0379 74.1316 55.8594C74.1696 55.7274 74.2077 55.5954 74.247 55.4594C75.8177 49.7202 74.5715 43.1473 71.7268 38.0127C68.5119 32.4658 63.3511 28.2655 57.1394 26.5625C56.319 26.3749 55.4949 26.2076 54.665 26.0679C53.7391 25.9005 53.1241 25.7078 52.4519 25C52.2967 24.1464 52.3587 23.7772 52.8303 23.0469C53.5133 22.6008 53.8688 22.5972 54.6606 22.7394C54.8341 22.7764 55.0075 22.8134 55.1863 22.8516C55.3859 22.8866 55.5856 22.9216 55.7913 22.9576C62.8695 24.2985 69.284 28.5749 73.3451 34.5151C75.9801 38.5009 77.8899 43.2201 78.0378 48.0469C78.0439 48.1906 78.05 48.3344 78.0562 48.4825C78.3292 55.5609 76.1258 62.6768 71.3362 67.9932C70.869 68.4888 70.393 68.9729 69.911 69.4542C69.6514 69.7142 69.3939 69.9766 69.1458 70.2476C64.7683 74.9646 57.7277 77.304 51.4646 77.5955C44.3643 77.7864 37.6796 75.3668 32.3347 70.7031C32.1927 70.5848 32.0507 70.4665 31.9044 70.3445C30.9743 69.56 30.1744 68.715 29.405 67.7734C29.2562 67.5952 29.1074 67.4169 28.9541 67.2333C26.8024 64.5612 25.3403 61.6391 24.2595 58.3916C24.1567 58.0832 24.0485 57.7766 23.9385 57.4707C22.5305 53.3116 22.4743 48.3705 23.5456 44.1406C23.6 43.9019 23.6544 43.6633 23.7104 43.4174C25.3491 36.6649 29.6858 30.4797 35.5936 26.7886C35.9378 26.5797 36.284 26.375 36.6316 26.1719C36.8056 26.0692 36.8056 26.0692 36.9831 25.9644C39.9299 24.2472 44.0834 22.3543 47.5691 22.6562Z" fill="#010101"/>
<path d="M64.5443 39.7354C65.6769 40.5796 66.4395 41.6701 66.8438 43.0298C67.0286 44.6192 67.0288 46.1636 65.9995 47.4782C64.5679 49.04 63.0814 50.5461 61.5886 52.0493C61.4481 52.1909 61.3075 52.3325 61.1627 52.4784C60.4204 53.2258 59.6775 53.9725 58.9341 54.7188C58.322 55.3334 57.7114 55.9495 57.1021 56.5668C56.3614 57.3171 55.6183 58.065 54.8735 58.8113C54.5917 59.0943 54.3108 59.3782 54.0307 59.663C53.6387 60.0612 53.2438 60.4561 52.848 60.8504C52.7347 60.9669 52.6214 61.0834 52.5047 61.2034C51.5035 62.1899 50.4081 62.7894 49.0093 62.9944C45.4607 62.9615 43.7653 60.8722 41.3639 58.4831C41.1912 58.3116 41.0185 58.14 40.8406 57.9633C40.4791 57.6036 40.1179 57.2437 39.757 56.8835C39.2064 56.3348 38.6538 55.7883 38.1012 55.2418C37.7482 54.8901 37.3953 54.5382 37.0426 54.1862C36.8786 54.0247 36.7146 53.8631 36.5456 53.6966C34.9976 52.1427 34.0779 50.9239 34.0312 48.6938C34.0433 47.0435 34.4692 45.7169 35.6548 44.5312C37.1963 43.351 38.5924 43.1003 40.4941 43.2075C42.6978 43.7391 44.1057 45.4688 45.6279 47.0337C45.8738 47.2835 46.1198 47.5331 46.3661 47.7825C46.9644 48.3894 47.5603 48.9987 48.1548 49.6094C49.2862 48.6721 50.3161 47.6599 51.3454 46.6125C51.6978 46.2567 52.0503 45.9009 52.4028 45.5452C52.9529 44.9891 53.5025 44.4327 54.051 43.875C54.5841 43.3335 55.1192 42.794 55.6545 42.2546C55.8163 42.0892 55.9781 41.9238 56.1448 41.7533C58.4513 39.4369 61.3731 37.8707 64.5443 39.7354Z" fill="#010100"/>
<path d="M62.0239 41.9922C62.8165 42.297 63.4112 42.5771 63.7817 43.3594C63.9323 44.474 63.8324 45.1549 63.1958 46.0938C62.7844 46.5602 62.3457 46.9972 61.9046 47.4355C61.7092 47.632 61.7092 47.632 61.5098 47.8324C61.0802 48.2637 60.6492 48.6936 60.218 49.1234C59.9186 49.4231 59.6191 49.723 59.3197 50.0228C58.6927 50.6505 58.0649 51.2774 57.4367 51.9038C56.6313 52.707 55.8276 53.512 55.0244 54.3175C54.4067 54.9366 53.788 55.5548 53.1691 56.1727C52.8723 56.4692 52.5759 56.766 52.2797 57.0631C51.866 57.4778 51.451 57.8912 51.0357 58.3044C50.9135 58.4274 50.7912 58.5505 50.6652 58.6773C50.5516 58.7898 50.4379 58.9024 50.3209 59.0183C50.223 59.116 50.1251 59.2138 50.0242 59.3145C49.4354 59.8084 48.9007 60.0358 48.1323 59.9976C47.292 59.8681 46.8742 59.5622 46.2589 58.9845C46.0884 58.8254 45.918 58.6663 45.7424 58.5024C45.5723 58.3392 45.4023 58.176 45.2271 58.0078C45.0744 57.8613 44.9218 57.7149 44.7645 57.564C44.3035 57.116 43.8464 56.6644 43.3907 56.2111C43.2257 56.0473 43.0608 55.8835 42.8909 55.7147C42.5462 55.3718 42.2017 55.0286 41.8575 54.6852C41.3309 54.1605 40.8023 53.638 40.2737 53.1155C39.9372 52.7803 39.6009 52.445 39.2647 52.1095C39.1072 51.9545 38.9497 51.7994 38.7875 51.6397C37.8431 50.6914 37.1368 49.9085 36.9141 48.5474C37.0619 47.6111 37.5084 47.1148 38.1958 46.4844C38.9151 46.1247 39.5638 46.1247 40.3442 46.2891C40.7742 46.5928 40.7742 46.5928 41.217 47.0108C41.3867 47.1703 41.5564 47.3299 41.7313 47.4942C42.8124 48.5438 43.8749 49.6119 44.9341 50.6836C45.3872 51.1419 45.841 51.5996 46.2952 52.0569C46.3981 52.1614 46.501 52.266 46.6071 52.3737C47.338 53.1228 47.338 53.1228 48.3196 53.3788C49.0834 53.3066 49.3033 53.1088 49.8486 52.5799C50.0172 52.4185 50.1858 52.2572 50.3595 52.091C50.5349 51.9166 50.7104 51.7422 50.8911 51.5625C51.0664 51.391 51.2417 51.2195 51.4224 51.0428C51.8917 50.58 52.3578 50.1144 52.8219 49.6464C53.1269 49.3389 53.4325 49.032 53.7383 48.7253C54.3848 48.0765 55.0306 47.427 55.6763 46.7773C56.4307 46.0183 57.1854 45.2597 57.9409 44.5018C58.2419 44.1996 58.5422 43.8967 58.8426 43.5939C59.0239 43.4119 59.2053 43.2299 59.3922 43.0424C59.552 42.8816 59.7117 42.7208 59.8764 42.5551C60.5721 41.8989 61.0812 41.9293 62.0239 41.9922Z" fill="#13B440"/>
<path d="M40.3442 46.2891C41.2764 46.9348 42.0589 47.6892 42.688 48.6328C42.7122 48.9893 42.7122 48.9893 42.7368 49.353C42.9151 51.0104 44.4956 52.2527 45.6223 53.363C45.768 53.5082 45.9137 53.6534 46.0639 53.803C46.5246 54.2615 46.9866 54.7187 47.4487 55.1758C47.7634 55.4885 48.078 55.8013 48.3925 56.1142C49.1592 56.8767 49.9271 57.638 50.6958 58.3984C49.49 59.8804 49.49 59.8804 48.5458 60.0182C47.5325 59.9677 46.9972 59.6776 46.2589 58.9845C46.0884 58.8254 45.918 58.6663 45.7424 58.5024C45.4873 58.2576 45.4873 58.2576 45.2271 58.0078C45.0744 57.8613 44.9218 57.7149 44.7645 57.564C44.3035 57.116 43.8464 56.6644 43.3907 56.2111C43.2257 56.0473 43.0608 55.8835 42.8909 55.7147C42.5462 55.3718 42.2017 55.0286 41.8575 54.6852C41.3309 54.1605 40.8023 53.638 40.2737 53.1155C39.9372 52.7803 39.6009 52.445 39.2647 52.1095C39.1072 51.9545 38.9497 51.7994 38.7875 51.6397C37.8431 50.6914 37.1368 49.9085 36.9141 48.5474C37.0619 47.6111 37.5084 47.1148 38.1958 46.4844C38.9074 46.1286 39.5739 46.1043 40.3442 46.2891Z" fill="#0C9E35"/>
<path d="M44.2501 90.625C45.3546 91.1708 46.4503 91.729 47.5354 92.3124C50.393 93.8445 53.2894 95.0565 56.3595 96.0938C56.3595 96.3516 56.3595 96.6094 56.3595 96.875C55.8581 97.1257 55.4942 97.0992 54.9329 97.1049C54.7164 97.1074 54.5 97.1099 54.277 97.1125C54.0423 97.1139 53.8075 97.1154 53.5656 97.1169C53.3252 97.1184 53.0849 97.12 52.8372 97.1216C52.3279 97.1243 51.8186 97.1264 51.3093 97.128C50.7868 97.1297 50.2643 97.1338 49.7418 97.14C48.99 97.1483 48.2383 97.1515 47.4865 97.1535C47.1355 97.1586 47.1355 97.1586 46.7774 97.1638C46.5598 97.1633 46.3421 97.1627 46.1179 97.1621C45.9265 97.1632 45.7351 97.1644 45.5379 97.1656C44.8842 97.0426 44.6533 96.8086 44.2501 96.2891C44.1614 95.6804 44.1614 95.6804 44.1738 94.9738C44.1763 94.7207 44.1788 94.4677 44.1814 94.207C44.188 93.9407 44.1946 93.6745 44.2013 93.4082C44.2052 93.1389 44.2087 92.8696 44.2119 92.6003C44.2212 91.9417 44.234 91.2834 44.2501 90.625Z" fill="#B3E7F2"/>
<path d="M46.1135 2.83169C46.4391 2.82895 46.4391 2.82895 46.7712 2.82614C47.1212 2.82943 47.1212 2.82943 47.4784 2.83279C47.7186 2.83251 47.9589 2.83222 48.2065 2.83193C48.7143 2.83225 49.2221 2.83451 49.7299 2.83856C50.2512 2.84235 50.772 2.84436 51.2933 2.84257C52.044 2.84011 52.7946 2.8418 53.5453 2.845C53.779 2.84442 54.0128 2.84385 54.2537 2.84326C54.4701 2.84574 54.6865 2.84821 54.9094 2.85077C55.1001 2.85182 55.2907 2.85288 55.4872 2.85396C56.04 2.94109 56.2128 3.08294 56.5535 3.51562C56.3282 3.60022 56.1029 3.68481 55.8707 3.77197C55.7272 3.82585 55.5837 3.87973 55.4359 3.93524C55.1592 4.0387 54.8822 4.14155 54.6049 4.24347C51.2239 5.4869 47.8855 6.94297 44.8607 8.91342C44.4442 9.17968 44.4442 9.17968 44.2488 9.17968C44.2262 8.28454 44.2123 7.38948 44.2 6.49414C44.1935 6.23985 44.1869 5.98556 44.1802 5.72357C44.1777 5.47935 44.1751 5.23513 44.1726 4.98352C44.1685 4.7585 44.1644 4.53348 44.1602 4.30164C44.3334 3.14807 45.0177 2.83188 46.1135 2.83169Z" fill="#B3E7F2"/>
</g>
<defs>
<clipPath id="clip0_7001_5223">
<rect width="100" height="100" fill="white" transform="translate(0.5)"/>
</clipPath>
</defs>
</svg>
