<svg width="150" height="150" viewBox="0 0 150 150" fill="none" xmlns="http://www.w3.org/2000/svg">
<path d="M83.7872 8.20315C84.2319 8.30689 84.2319 8.30689 84.6856 8.41272C94.5679 10.7869 103.637 15.3182 111.326 21.9727C111.675 22.2724 111.675 22.2724 112.03 22.5781C122.805 32.0609 131.058 45.3467 133.006 59.7656C133.109 61.6492 133.109 61.6492 132.475 62.677C131.834 63.2813 131.834 63.2813 130.955 63.2813C131.052 63.5713 131.149 63.8614 131.248 64.1602C131.284 64.9949 131.303 65.8223 131.308 66.6573C131.31 66.9062 131.312 67.155 131.314 67.4115C131.319 68.2198 131.321 69.0281 131.321 69.8365C131.322 70.1103 131.322 70.3841 131.322 70.6663C131.318 75.9501 130.819 80.7908 129.447 85.8925C129.04 87.7193 128.958 89.538 128.904 91.4063C129.128 91.4671 129.351 91.5279 129.581 91.5905C132.94 92.5929 135.223 94.2972 137.108 97.2657C138.346 99.7515 138.459 102.126 138.426 104.865C138.43 105.245 138.435 105.626 138.44 106.019C138.438 106.384 138.437 106.749 138.435 107.125C138.434 107.454 138.432 107.783 138.431 108.123C138.246 109.177 137.968 109.534 137.108 110.156C136.721 110.156 136.334 110.156 135.936 110.156C135.936 111.703 135.936 113.25 135.936 114.844C136.516 114.94 137.096 115.037 137.693 115.137C138.412 116.214 138.486 117.108 138.279 118.359C137.767 119.092 137.767 119.092 137.108 119.531C136.721 119.531 136.334 119.531 135.936 119.531C135.936 121.078 135.936 122.625 135.936 124.219C136.516 124.315 137.096 124.412 137.693 124.512C138.403 125.576 138.341 126.089 138.316 127.35C138.311 127.695 138.305 128.041 138.3 128.397C138.29 128.794 138.29 128.794 138.279 129.199C138.547 129.277 138.815 129.354 139.091 129.434C140.759 130.053 141.72 131.255 142.656 132.733C143.367 134.699 143.37 137.371 142.527 139.288C141.484 141.014 139.897 142.34 137.986 142.969C137.017 143.044 137.017 143.044 135.891 143.047C135.683 143.048 135.475 143.05 135.261 143.051C134.567 143.055 133.872 143.054 133.178 143.054C132.679 143.056 132.181 143.058 131.682 143.06C130.328 143.065 128.975 143.066 127.621 143.067C126.775 143.067 125.929 143.068 125.083 143.07C122.131 143.075 119.178 143.078 116.225 143.077C113.475 143.077 110.724 143.083 107.974 143.092C105.611 143.1 103.248 143.103 100.885 143.103C99.4746 143.103 98.0641 143.104 96.6536 143.111C95.3264 143.116 93.9993 143.116 92.6722 143.112C92.1861 143.111 91.7 143.113 91.2139 143.116C86.2108 143.151 86.2108 143.151 84.0092 141.221C83.8514 141.031 83.6935 140.84 83.5309 140.643C83.3685 140.453 83.2061 140.263 83.0388 140.068C81.7287 138.166 81.8249 136.118 82.0294 133.887C82.5059 132.228 83.439 131.269 84.6661 130.078C84.4074 130.117 84.1487 130.156 83.8822 130.196C81.7051 130.516 79.536 130.787 77.3419 130.957C77.3721 131.175 77.4023 131.392 77.4335 131.616C77.3419 132.422 77.3419 132.422 76.7568 133.048C75.6382 133.742 74.7044 133.763 73.428 133.749C73.1897 133.751 72.9514 133.753 72.7059 133.754C71.9317 133.757 71.1581 133.749 70.3839 133.74C70.12 133.739 69.8562 133.737 69.5844 133.736C65.2388 133.706 61.0833 133.388 56.8341 132.422C56.5906 132.369 56.3471 132.315 56.0962 132.26C45.5358 129.898 35.853 124.835 27.9057 117.501C27.3132 116.958 26.7067 116.44 26.0907 115.924C23.283 113.467 20.932 110.531 18.7482 107.52C18.6324 107.362 18.5167 107.204 18.3974 107.041C13.1484 99.8057 9.70465 91.3454 7.90831 82.6172C7.86077 82.4024 7.81324 82.1876 7.76426 81.9663C6.06266 74.0255 6.38548 64.7198 8.20128 56.836C8.25458 56.5933 8.30787 56.3507 8.36278 56.1007C11.4223 42.4189 19.2188 29.8424 30.1739 21.0938C30.4058 20.9008 30.6377 20.7078 30.8766 20.509C38.664 14.0799 48.1524 9.93814 58.006 7.91018C58.2208 7.86265 58.4356 7.81511 58.6569 7.76613C66.5545 6.07377 75.9637 6.33957 83.7872 8.20315Z" fill="#B3E7F2"/>
<path d="M66.4421 21.3822C66.729 21.3829 67.0159 21.3836 67.3114 21.3842C67.5283 21.3851 67.7453 21.3859 67.9688 21.3868C67.9746 21.6025 67.9804 21.8183 67.9863 22.0406C68.0143 23.019 68.0464 23.9973 68.0786 24.9757C68.0922 25.4849 68.0922 25.4849 68.1061 26.0045C68.1174 26.3312 68.1287 26.6578 68.1404 26.9944C68.1496 27.2951 68.1588 27.5958 68.1683 27.9057C68.2617 28.7111 68.409 29.206 68.8477 29.8829C69.6595 30.2888 70.293 30.2309 71.1914 30.1759C72.1431 29.6713 72.1431 29.6713 72.3633 28.711C72.4071 28.1492 72.436 27.5862 72.456 27.023C72.4683 26.6954 72.4805 26.3678 72.4932 26.0303C72.5047 25.6883 72.5162 25.3463 72.5281 24.994C72.5471 24.4759 72.5471 24.4759 72.5664 23.9474C72.5975 23.0939 72.6274 22.2404 72.6562 21.3868C83.9239 20.8422 95.3449 26.4626 103.556 33.8685C103.704 34.0034 103.852 34.1384 104.004 34.2774C104.15 34.4105 104.297 34.5436 104.447 34.6807C111.195 40.9038 115.797 49.1579 118.066 58.0079C118.265 58.7595 118.466 59.5103 118.671 60.2601C118.803 60.7603 118.803 60.7603 118.937 61.2706C119.232 62.092 119.425 62.4745 120.117 62.9884C120.881 63.1999 120.881 63.1999 121.582 63.2813C121.948 65.5228 121.902 67.7563 121.875 70.0196C120.404 70.8952 118.847 70.7803 117.188 70.6056C115.956 70.2146 115.051 69.6113 114.075 68.7745C113.406 68.2096 113.406 68.2096 112.555 68.0787C111.388 68.3076 110.767 68.8193 109.871 69.5779C108.246 70.7864 106.542 70.8207 104.59 70.6056C103.105 70.1821 101.773 69.496 100.415 68.7745C99.4196 68.2688 98.6886 68.0564 97.5586 68.2618C96.8203 68.6827 96.8203 68.6827 96.3867 69.4337C96.1812 70.7185 96.4086 71.6256 96.904 72.7948C97.6095 74.514 98.2133 76.2598 98.8037 78.0213C98.9635 78.4861 98.9635 78.4861 99.1264 78.9603C99.2771 79.4093 99.2771 79.4093 99.4308 79.8673C99.5216 80.1355 99.6123 80.4038 99.7058 80.6802C99.9078 81.4667 99.9739 82.1022 99.9023 82.9102C99.4308 83.4195 99.4308 83.4195 98.8037 83.8807C97.5842 84.8948 96.7646 85.7353 96.3867 87.3048C96.2969 88.7777 96.3177 90.2262 96.3867 91.6993C96.1847 91.7635 95.9826 91.8277 95.7745 91.8939C92.6153 92.9599 89.922 94.4529 88.3472 97.4957C87.543 99.2347 86.9785 100.646 86.9516 102.575C86.9457 102.945 86.9399 103.314 86.9339 103.695C86.9289 104.098 86.9239 104.501 86.919 104.905C86.913 105.317 86.9068 105.73 86.9006 106.142C86.8844 107.227 86.8699 108.313 86.8558 109.398C86.8411 110.505 86.8248 111.613 86.8086 112.72C86.7771 114.893 86.7474 117.066 86.7188 119.238C86.1649 119.444 85.6091 119.645 85.0525 119.843C84.7432 119.955 84.4339 120.067 84.1152 120.183C83.1651 120.42 82.6585 120.428 81.7383 120.117C81.563 119.918 81.3878 119.718 81.2073 119.513C80.2858 118.697 79.3896 118.876 78.2227 118.945C77.6378 119.01 77.0528 119.075 76.4696 119.154C67.0361 120.422 57.0912 119.049 48.6328 114.551C48.5361 114.358 48.4395 114.164 48.3398 113.965C48.6024 113.42 48.6024 113.42 49.0162 112.762C49.2357 112.402 49.2357 112.402 49.4596 112.035C49.7722 111.532 50.0865 111.03 50.4026 110.529C51.2987 109.052 51.8016 108.085 51.5625 106.348C51.2939 105.737 51.2939 105.737 50.6836 105.469C49.6706 105.298 49.6706 105.298 48.6328 105.469C47.3887 106.44 46.7195 107.834 45.9595 109.186C45.7038 109.639 45.4467 110.092 45.1881 110.544C45.0198 110.844 45.0198 110.844 44.8481 111.149C44.5312 111.621 44.5312 111.621 43.9453 111.914C38.0964 107.896 33.2878 103.448 29.2969 97.5587C30.4688 96.5704 31.7013 95.7769 33.0139 94.9952C33.212 94.8747 33.4101 94.7543 33.6142 94.6301C35.0833 93.7501 35.0833 93.7501 35.7422 93.7501C35.8074 93.3296 35.8675 92.9083 35.9253 92.4867C35.9593 92.2521 35.9933 92.0176 36.0283 91.776C36.0982 91.0292 36.0982 91.0292 35.4492 90.2345C34.2673 89.8887 33.5577 89.7594 32.4067 90.2229C31.6612 90.6336 30.9458 91.0729 30.2307 91.5345C29.7415 91.8409 29.2514 92.1457 28.7601 92.4489C28.5465 92.5858 28.3328 92.7227 28.1126 92.8637C27.5391 93.1642 27.5391 93.1642 26.6602 93.1642C25.9605 91.7064 25.2777 90.242 24.6094 88.7696C24.4738 88.4717 24.3382 88.1737 24.1985 87.8667C22.3102 83.3601 21.285 78.1236 21.3867 73.2423C21.6009 73.2411 21.8151 73.2399 22.0358 73.2386C23.0099 73.229 23.9834 73.2083 24.9573 73.1873C25.2943 73.1856 25.6314 73.1839 25.9787 73.1822C27.9866 73.1989 27.9866 73.1989 29.6677 72.2592C30.2881 71.3132 30.3928 70.8358 30.1758 69.7267C29.2378 68.7852 28.4564 68.7284 27.1591 68.6978C26.806 68.6874 26.4529 68.6771 26.0891 68.6664C25.5379 68.6564 25.5379 68.6564 24.9756 68.6463C24.6036 68.6363 24.2316 68.6263 23.8483 68.616C22.9302 68.5918 22.0121 68.5716 21.0938 68.5548C21.2122 65.447 21.5654 62.5132 22.2656 59.4727C22.3434 59.1026 22.4212 58.7325 22.5014 58.3512C23.271 54.8465 24.4138 50.895 26.6602 48.047C26.8373 48.1535 27.0145 48.26 27.197 48.3697C28.0045 48.8521 28.8154 49.3284 29.6265 49.8048C30.0445 50.0563 30.0445 50.0563 30.471 50.3129C30.743 50.4715 31.0149 50.6301 31.295 50.7935C31.6678 51.0145 31.6678 51.0145 32.0482 51.2399C32.9531 51.6219 33.5968 51.6541 34.5703 51.5626C35.3027 51.1231 35.3027 51.1231 35.7422 50.3907C35.8461 49.3727 35.7731 48.7255 35.4492 47.754C34.9663 47.5458 34.4761 47.3545 33.9844 47.1681C33.1096 46.6916 32.2572 46.1781 31.4026 45.6666C31.0562 45.461 31.0562 45.461 30.7028 45.2512C30.1359 44.9145 29.5697 44.5769 29.0039 44.2384C30.3437 38.1613 38.6738 32.3301 43.3594 29.004C44.0742 29.6592 44.5285 30.3197 44.9982 31.1658C45.2061 31.5343 45.2061 31.5343 45.4182 31.9102C45.7063 32.4272 45.9939 32.9445 46.2811 33.462C46.4197 33.7073 46.5583 33.9526 46.701 34.2053C46.8259 34.4299 46.9507 34.6544 47.0793 34.8858C47.4653 35.5322 47.4653 35.5322 48.3398 36.0352C49.7823 35.9867 49.7823 35.9867 50.9583 35.2296C51.3333 34.4354 51.346 33.9786 51.2695 33.1056C50.9512 32.3965 50.9512 32.3965 50.4902 31.7117C50.3303 31.456 50.1703 31.2003 50.0055 30.9369C49.752 30.5421 49.752 30.5421 49.4934 30.1393C49.1577 29.6153 48.8245 29.0897 48.4943 28.5623C48.3455 28.3307 48.1967 28.0992 48.0434 27.8606C47.7539 27.2462 47.7539 27.2462 48.0469 26.3673C48.6923 25.9942 49.3098 25.6805 49.9878 25.3785C50.1852 25.2891 50.3825 25.1996 50.5859 25.1075C55.5496 22.9074 60.9893 21.3659 66.4421 21.3822Z" fill="#F1F1F1"/>
<path d="M99.6601 96.0132C99.9595 96.0117 100.259 96.0102 100.567 96.0086C101.556 96.0046 102.545 96.0049 103.534 96.0055C104.223 96.0044 104.911 96.0031 105.6 96.0017C107.043 95.9995 108.487 95.9996 109.93 96.0012C111.777 96.0029 113.624 95.9979 115.471 95.9911C116.894 95.9868 118.316 95.9865 119.738 95.9874C120.419 95.9873 121.1 95.9858 121.781 95.9828C122.734 95.9792 123.688 95.9812 124.641 95.9846C124.921 95.9823 125.201 95.9801 125.489 95.9778C127.701 95.9951 129.613 96.3932 131.324 97.9064C131.598 98.1392 131.598 98.1392 131.878 98.3767C133.599 100.42 133.765 102.343 133.777 104.956C133.785 105.58 133.795 106.204 133.807 106.828C133.809 107.102 133.811 107.375 133.813 107.657C133.894 108.463 133.998 108.913 134.473 109.57C134.957 109.764 135.44 109.957 135.938 110.156C135.938 111.703 135.938 113.25 135.938 114.844C136.808 114.989 136.808 114.989 137.696 115.137C138.414 116.214 138.488 117.107 138.282 118.359C137.769 119.092 137.769 119.092 137.11 119.531C136.723 119.531 136.337 119.531 135.938 119.531C135.938 121.078 135.938 122.625 135.938 124.219C135.068 124.654 135.068 124.654 134.18 125.098C133.632 126.194 133.833 127.517 133.832 128.723C133.829 129.004 133.825 129.285 133.822 129.574C133.821 129.846 133.82 130.117 133.82 130.396C133.819 130.644 133.817 130.892 133.816 131.147C133.894 131.903 134.063 132.371 134.473 133.008C135.147 133.296 135.147 133.296 135.92 133.447C136.831 133.651 137.283 133.759 137.928 134.445C138.416 135.292 138.402 135.854 138.282 136.816C137.76 137.735 137.543 137.942 136.524 138.281C135.881 138.311 135.237 138.323 134.593 138.326C134.396 138.328 134.199 138.329 133.996 138.33C133.334 138.334 132.672 138.336 132.01 138.338C131.536 138.34 131.062 138.342 130.588 138.345C129.031 138.353 127.473 138.357 125.915 138.361C125.379 138.363 124.843 138.364 124.307 138.366C122.078 138.372 119.849 138.378 117.62 138.381C114.423 138.386 111.228 138.396 108.032 138.412C105.785 138.424 103.538 138.429 101.291 138.431C99.949 138.432 98.6068 138.435 97.2646 138.445C96.0021 138.454 94.7398 138.456 93.4772 138.452C93.0139 138.452 92.5506 138.455 92.0873 138.46C91.4545 138.466 90.8224 138.464 90.1896 138.459C89.8356 138.46 89.4816 138.461 89.1169 138.462C87.9112 138.228 87.475 137.765 86.7194 136.816C86.5363 135.937 86.5363 135.937 86.7194 135.058C87.6865 133.717 88.7254 133.334 90.267 132.941C90.4498 132.867 90.6326 132.792 90.8209 132.715C91.091 131.904 91.151 131.425 91.1524 130.589C91.1535 130.335 91.1547 130.081 91.1559 129.819C91.1558 129.541 91.1556 129.263 91.1554 128.976C91.1565 128.683 91.1575 128.389 91.1585 128.087C91.1607 127.448 91.1623 126.81 91.1633 126.172C91.1654 125.161 91.17 124.15 91.1754 123.139C91.1908 120.264 91.2048 117.388 91.2094 114.513C91.2123 112.755 91.2209 110.997 91.2332 109.239C91.2368 108.57 91.2383 107.9 91.2377 107.231C91.237 106.292 91.2435 105.354 91.2516 104.416C91.2496 104.141 91.2477 103.866 91.2457 103.583C91.2758 101.453 91.7962 99.9053 93.2185 98.3024C93.4364 98.1173 93.6543 97.9323 93.8788 97.7416C94.0959 97.552 94.3131 97.3624 94.5368 97.1671C96.1882 95.9808 97.6939 96.0081 99.6601 96.0132Z" fill="#FEC842"/>
<path d="M99.3172 67.9688C100.048 68.2804 100.713 68.5958 101.405 68.9758C103.601 70.1535 105.304 70.5662 107.813 70.3125C109.035 69.9155 109.955 69.3141 110.926 68.4814C111.622 67.9688 111.622 67.9688 112.446 67.7856C113.613 68.0145 114.233 68.5262 115.129 69.2848C116.532 70.3281 117.943 70.5005 119.651 70.4899C121.209 70.2274 122.513 69.5437 123.886 68.7768C125.419 67.9544 126.323 67.8636 128.028 68.2617C128.632 68.7195 128.632 68.7195 128.907 69.4336C128.779 71.0817 128.43 72.5172 127.88 74.0696C127.809 74.2774 127.738 74.4852 127.665 74.6993C127.44 75.3557 127.213 76.0111 126.984 76.6663C126.682 77.5332 126.383 78.4012 126.086 79.2698C126.016 79.4664 125.947 79.6629 125.875 79.8654C125.519 80.9074 125.263 81.8068 125.391 82.9102C125.858 83.4461 125.858 83.4461 126.49 83.8806C127.706 84.89 128.521 85.7444 128.907 87.3047C128.996 88.6782 128.976 90.0322 128.907 91.4062C129.13 91.4671 129.353 91.5279 129.583 91.5905C132.943 92.5928 135.226 94.2971 137.11 97.2656C138.349 99.7515 138.462 102.126 138.429 104.865C138.435 105.436 138.435 105.436 138.442 106.019C138.441 106.384 138.439 106.749 138.438 107.125C138.436 107.454 138.435 107.783 138.434 108.123C138.249 109.174 137.958 109.523 137.11 110.156C136.01 110.294 135.341 110.312 134.364 109.772C133.521 108.896 133.557 108.012 133.543 106.857C133.536 106.553 133.529 106.249 133.522 105.936C133.509 105.301 133.5 104.665 133.494 104.03C133.433 101.735 133.068 100.134 131.575 98.3665C131.389 98.2087 131.204 98.0508 131.013 97.8882C130.83 97.7258 130.646 97.5634 130.458 97.3961C128.663 96.265 126.742 96.2997 124.689 96.3016C124.389 96.2996 124.09 96.2977 123.781 96.2956C122.796 96.2901 121.81 96.2889 120.824 96.2883C120.136 96.2864 119.449 96.2844 118.761 96.2824C117.321 96.2789 115.881 96.2778 114.441 96.2781C112.599 96.2782 110.756 96.2702 108.914 96.2601C107.494 96.2536 106.074 96.2524 104.654 96.2527C103.975 96.252 103.296 96.2494 102.617 96.2449C101.666 96.2392 100.716 96.2409 99.7647 96.2444C99.486 96.2411 99.2072 96.2378 98.9201 96.2344C96.8237 96.2541 95.2698 96.741 93.6798 98.1342C93.522 98.3249 93.3641 98.5157 93.2015 98.7122C93.0391 98.9021 92.8767 99.0921 92.7094 99.2878C91.5911 100.911 91.6154 102.399 91.6205 104.307C91.6182 104.75 91.6182 104.75 91.6159 105.201C91.6129 105.841 91.6112 106.48 91.6106 107.12C91.6096 108.132 91.6047 109.144 91.5987 110.156C91.5825 113.034 91.5735 115.911 91.5663 118.788C91.5617 120.549 91.5528 122.31 91.5415 124.07C91.5381 124.741 91.5363 125.412 91.5363 126.083C91.5362 127.021 91.5309 127.958 91.5244 128.896C91.5257 129.173 91.5271 129.451 91.5285 129.736C91.5128 131.153 91.4796 132.167 90.5281 133.301C89.822 133.605 89.822 133.605 89.045 133.777C87.7954 134.033 87.7954 134.033 87.0125 135.059C86.8808 136.09 86.8539 136.603 87.4823 137.449C88.4158 138.166 88.9819 138.134 90.1526 138.133C90.3501 138.135 90.5477 138.136 90.7513 138.137C91.4131 138.141 92.0745 138.136 92.7363 138.131C93.2108 138.131 93.6853 138.132 94.1598 138.134C95.4485 138.137 96.7371 138.132 98.0258 138.126C99.3738 138.121 100.722 138.122 102.07 138.123C104.334 138.122 106.598 138.117 108.861 138.109C111.479 138.1 114.098 138.097 116.716 138.097C119.233 138.097 121.751 138.094 124.268 138.09C125.34 138.087 126.412 138.086 127.484 138.086C128.746 138.085 130.008 138.082 131.27 138.076C131.733 138.074 132.197 138.074 132.66 138.074C133.292 138.074 133.924 138.071 134.556 138.067C134.91 138.066 135.264 138.065 135.628 138.064C136.492 137.991 136.984 137.883 137.696 137.402C138.102 136.591 138.044 135.957 137.989 135.059C137.203 133.88 136.512 133.899 135.18 133.605C134.188 133.178 133.995 132.843 133.595 131.836C133.456 130.808 133.445 129.796 133.448 128.76C133.44 128.485 133.431 128.211 133.423 127.928C133.419 126.561 133.439 125.894 134.271 124.769C135.304 124.048 135.876 124.017 137.11 124.219C137.754 124.691 137.754 124.691 138.282 125.391C138.396 126.338 138.396 126.338 138.355 127.368C138.345 127.711 138.334 128.054 138.323 128.407C138.31 128.669 138.296 128.93 138.282 129.199C138.684 129.315 138.684 129.315 139.093 129.434C140.762 130.053 141.723 131.255 142.658 132.733C143.37 134.699 143.373 137.371 142.53 139.288C141.487 141.014 139.899 142.34 137.989 142.969C137.019 143.044 137.019 143.044 135.893 143.047C135.686 143.048 135.478 143.05 135.264 143.051C134.569 143.055 133.875 143.054 133.18 143.054C132.682 143.056 132.183 143.058 131.685 143.06C130.331 143.065 128.978 143.066 127.624 143.067C126.778 143.067 125.932 143.068 125.086 143.07C122.133 143.075 119.181 143.078 116.228 143.077C113.477 143.077 110.727 143.083 107.977 143.092C105.614 143.1 103.251 143.103 100.888 143.103C99.4772 143.103 98.0667 143.104 96.6562 143.111C95.329 143.116 94.0019 143.116 92.6748 143.112C92.1887 143.111 91.7026 143.113 91.2165 143.116C86.2134 143.15 86.2134 143.15 84.0119 141.221C83.7751 140.935 83.7751 140.935 83.5335 140.643C83.3711 140.453 83.2087 140.263 83.0414 140.068C81.7291 138.163 81.8344 136.122 82.032 133.887C82.5214 131.948 83.9202 130.589 85.5476 129.492C85.9359 129.385 86.3264 129.286 86.7195 129.199C86.7163 128.851 86.713 128.503 86.7097 128.144C86.6799 124.851 86.658 121.559 86.6436 118.266C86.636 116.573 86.6257 114.88 86.609 113.188C86.593 111.552 86.5843 109.917 86.5805 108.281C86.5779 107.659 86.5726 107.038 86.5646 106.416C86.5105 102.001 86.7286 98.2957 89.9422 94.9219C91.7571 93.251 93.8478 91.6992 96.3875 91.6992C96.3392 91.5179 96.2908 91.3367 96.241 91.1499C95.9182 89.1323 95.8411 87.3351 96.8487 85.5068C97.4884 84.6708 98.2989 84.0914 99.1673 83.5052C99.7263 82.8893 99.7263 82.8893 99.5325 81.8349C99.3578 80.6541 99.0396 79.5575 98.658 78.4252C98.5941 78.2341 98.5302 78.0431 98.4643 77.8462C98.3304 77.4473 98.1954 77.0488 98.0595 76.6506C97.8507 76.0388 97.6453 75.426 97.4403 74.8129C96.9849 73.0148 96.9849 73.0148 96.0945 71.4844C95.9473 70.2087 95.9534 69.6287 96.7171 68.573C97.7353 67.8425 98.0873 67.8393 99.3172 67.9688Z" fill="#2B5582"/>
<path d="M105.467 29.2968C113.559 36.2791 119.712 45.5766 122.459 55.9569C122.546 56.2636 122.633 56.5702 122.723 56.8862C123.177 58.5602 123.581 60.0851 123.338 61.8163C122.616 62.836 122.211 63.2192 120.976 63.4459C119.904 63.2406 119.632 62.9447 118.944 62.1093C118.625 61.2727 118.625 61.2727 118.376 60.2965C118.278 59.9313 118.181 59.5661 118.08 59.1899C117.977 58.7958 117.875 58.4018 117.772 58.0077C115.458 49.2318 111.111 41.998 104.881 35.4491C104.708 35.2603 104.535 35.0714 104.356 34.8769C100.099 30.378 94.3673 27.3613 88.7681 24.9022C88.4335 24.7542 88.0989 24.6061 87.7541 24.4536C85.3253 23.4503 82.8299 22.9005 80.263 22.3834C79.7882 22.2864 79.3151 22.1809 78.8426 22.0732C76.8001 21.6156 74.7413 21.5008 72.6548 21.3866C72.6617 21.7079 72.6617 21.7079 72.6687 22.0357C72.6871 23.0095 72.6985 23.9833 72.7097 24.9572C72.7171 25.2942 72.7245 25.6313 72.732 25.9785C72.7363 26.4671 72.7363 26.4671 72.7406 26.9656C72.7475 27.4144 72.7475 27.4144 72.7546 27.8722C72.6387 28.8458 72.3524 29.3898 71.7759 30.1757C70.9529 30.5872 70.3438 30.5416 69.4321 30.4686C68.5134 29.9472 68.3068 29.7294 67.9673 28.7108C67.9431 28.1486 67.9358 27.5856 67.9387 27.0228C67.9396 26.6952 67.9406 26.3676 67.9415 26.03C67.944 25.6881 67.9465 25.3461 67.949 24.9938C67.9503 24.6484 67.9516 24.303 67.953 23.9472C67.9564 23.0937 67.9613 22.2401 67.9673 21.3866C60.8209 21.9044 54.4865 23.4898 48.0454 26.66C48.3718 27.6147 48.8056 28.4355 49.3397 29.2853C49.4714 29.496 49.603 29.7068 49.7386 29.9239C50.0136 30.3602 50.2921 30.7944 50.574 31.2262C51.2578 32.3346 51.5644 32.909 51.5416 34.2429C51.2681 35.1561 51.2681 35.1561 50.6455 35.8886C49.8032 36.328 49.8032 36.328 48.7962 36.4196C47.2284 35.842 46.788 34.8169 45.9946 33.3983C45.7849 33.0357 45.5747 32.6733 45.3641 32.3111C44.785 31.3107 44.216 30.3051 43.6509 29.2968C41.6482 30.4809 39.8826 31.7548 38.1829 33.3445C37.5727 33.9149 36.9477 34.4543 36.3084 34.9913C34.1807 36.8594 32.428 39.0264 30.742 41.2902C30.5985 41.4809 30.4551 41.6716 30.3073 41.8681C29.4929 42.9397 29.4929 42.9397 29.2954 44.2382C29.4475 44.3192 29.5996 44.4003 29.7563 44.4839C30.4525 44.857 31.1465 45.2342 31.8406 45.6115C32.0798 45.7389 32.3191 45.8664 32.5656 45.9977C33.9259 46.7412 35.038 47.4343 36.0337 48.6327C36.2168 49.5116 36.2168 49.5116 36.0337 50.3905C35.4111 51.2328 35.4111 51.2328 34.5689 51.8553C33.2276 51.9948 32.4428 51.7673 31.2936 51.0863C31.0216 50.9277 30.7497 50.7691 30.4696 50.6057C30.1909 50.438 29.9122 50.2703 29.625 50.0975C29.1967 49.846 29.1967 49.846 28.7598 49.5894C28.0574 49.1762 27.3572 48.7596 26.6587 48.3397C23.2199 54.7713 21.9188 61.372 21.0923 68.5546C21.3242 68.5484 21.5562 68.5423 21.7952 68.536C22.8487 68.5116 23.9021 68.4964 24.9558 68.4813C25.3208 68.4715 25.6858 68.4617 26.0619 68.4516C26.4141 68.4478 26.7662 68.444 27.1291 68.4401C27.4528 68.434 27.7765 68.4279 28.11 68.4215C29.2107 68.5856 29.6913 68.9419 30.4673 69.7264C30.6885 70.8816 30.572 71.3272 29.918 72.3082C29.2122 73.0348 28.9751 73.2301 27.9706 73.2753C27.6668 73.2738 27.3631 73.2723 27.0501 73.2707C26.7215 73.2697 26.393 73.2688 26.0545 73.2678C25.71 73.2654 25.3656 73.2629 25.0108 73.2604C24.6641 73.2591 24.3174 73.2577 23.9602 73.2564C23.1019 73.2529 22.2436 73.2481 21.3853 73.2421C22.112 79.5575 23.2878 84.8863 25.7961 90.7371C26.1255 91.5337 26.4047 92.3404 26.6587 93.1639C28.4036 92.3185 30.0963 91.474 31.7124 90.3991C32.6577 89.8191 33.2877 89.5243 34.4041 89.6117C35.4478 89.9413 35.4478 89.9413 36.0337 90.4357C36.4264 91.3438 36.4868 91.89 36.3267 92.871C35.0242 94.4303 33.3422 95.2589 31.5802 96.2184C31.3621 96.3411 31.144 96.4639 30.9193 96.5903C30.72 96.6991 30.5207 96.8079 30.3153 96.92C30.1721 97.034 30.0289 97.1481 29.8814 97.2655C29.8814 98.4878 30.5368 99.101 31.273 100.012C31.4899 100.283 31.4899 100.283 31.7113 100.56C35.2871 104.976 39.2955 108.37 43.9439 111.621C44.6162 110.997 45.0702 110.386 45.5186 109.587C45.7066 109.259 45.7066 109.259 45.8985 108.923C46.1584 108.462 46.4178 108.002 46.6767 107.541C46.8021 107.322 46.9275 107.103 47.0567 106.877C47.1692 106.677 47.2817 106.477 47.3977 106.271C47.7525 105.762 47.7525 105.762 48.6314 105.176C49.7661 105.052 50.4232 105.01 51.3963 105.633C52.0477 106.65 51.9879 107.194 51.854 108.398C51.4019 109.422 50.8311 110.359 50.2427 111.31C50.089 111.566 49.9353 111.822 49.7769 112.086C49.399 112.715 49.0171 113.341 48.6314 113.965C55.3831 119.314 66.9731 119.924 75.1617 119.027C75.5974 118.975 76.0329 118.919 76.4679 118.861C80.1583 118.364 80.1583 118.364 81.4439 119.275C82.0298 120.117 82.0298 120.117 82.2129 120.996C81.9602 122.209 81.5354 122.571 80.565 123.34C79.6393 123.65 78.713 123.763 77.7451 123.871C77.4645 123.905 77.1839 123.939 76.8948 123.974C66.5422 125.1 56.215 123.62 46.8735 118.945C46.5566 118.79 46.5566 118.79 46.2332 118.632C39.991 115.558 34.0133 111.156 29.5884 105.762C29.4639 105.615 29.3393 105.467 29.211 105.316C19.4864 93.8226 15.3261 79.3317 16.5307 64.4004C17.1542 58.279 18.9291 52.3681 21.6782 46.8749C21.7817 46.6636 21.8852 46.4523 21.9918 46.2346C25.0659 39.9924 29.4673 34.0147 34.8618 29.5897C35.0089 29.4652 35.156 29.3407 35.3076 29.2124C41.3697 24.0832 48.3385 20.4008 55.9556 18.1639C56.2434 18.0748 56.5311 17.9857 56.8276 17.8939C73.739 13.1177 92.2539 18.2023 105.467 29.2968Z" fill="#2B5582"/>
<path d="M83.7872 8.20315C84.2319 8.30689 84.2319 8.30689 84.6856 8.41272C94.5679 10.7869 103.637 15.3182 111.326 21.9727C111.675 22.2724 111.675 22.2724 112.03 22.5781C122.8 32.0567 131.067 45.3494 133.006 59.7656C133.099 61.6345 133.099 61.6345 132.567 62.677C131.677 63.4108 131.194 63.445 130.076 63.4472C129.231 63.2077 128.884 62.7751 128.318 62.1094C128.057 61.3432 128.057 61.3432 127.892 60.4706C127.827 60.1476 127.762 59.8245 127.695 59.4917C127.629 59.147 127.563 58.8024 127.494 58.4473C124.297 43.1033 115.185 30.1461 102.244 21.3867C100.898 20.5339 99.5106 19.7656 98.0969 19.0308C97.5784 18.7613 97.0639 18.484 96.5497 18.2064C85.4098 12.3657 71.7869 10.338 59.4708 12.8907C59.2266 12.9394 58.9823 12.9881 58.7307 13.0383C50.8199 14.6485 43.1394 17.7398 36.6192 22.5586C36.3118 22.7833 36.0044 23.008 35.6877 23.2395C33.4224 24.9235 31.3355 26.7632 29.295 28.711C29.045 28.9455 28.795 29.18 28.5374 29.4216C26.5203 31.3656 24.7984 33.4895 23.1427 35.7422C23.0204 35.9086 22.8981 36.0749 22.772 36.2463C13.1968 49.4792 10.4467 65.2397 12.8888 81.1524C12.9249 81.3891 12.961 81.6259 12.9982 81.8698C14.2762 89.7003 17.8784 97.621 22.5567 104.004C22.7818 104.312 23.0069 104.62 23.2388 104.938C24.9228 107.201 26.7617 109.289 28.7091 111.328C29.0439 111.681 29.0439 111.681 29.3854 112.041C36.8055 119.673 46.7502 124.699 56.9989 127.222C57.2895 127.294 57.5802 127.366 57.8797 127.441C62.4832 128.525 67.0035 128.714 71.7078 128.725C72.4218 128.728 73.1353 128.738 73.8492 128.748C74.0655 128.747 74.2819 128.745 74.5048 128.744C75.5266 128.764 76.0724 128.831 76.8907 129.465C77.3773 130.126 77.5083 130.439 77.5067 131.25C77.5163 131.54 77.5163 131.54 77.5262 131.836C77.2303 132.777 76.6979 133.069 75.8771 133.594C75.0222 133.709 74.2814 133.758 73.428 133.749C73.1897 133.751 72.9514 133.753 72.7059 133.754C71.9317 133.757 71.1581 133.749 70.3839 133.74C70.12 133.739 69.8562 133.737 69.5844 133.736C65.2388 133.706 61.0833 133.388 56.8341 132.422C56.5906 132.369 56.3471 132.315 56.0962 132.26C45.5358 129.898 35.853 124.835 27.9057 117.501C27.3132 116.958 26.7067 116.44 26.0907 115.924C23.283 113.467 20.932 110.531 18.7482 107.52C18.6324 107.362 18.5167 107.204 18.3974 107.041C13.1484 99.8057 9.70465 91.3454 7.90831 82.6172C7.86077 82.4024 7.81324 82.1876 7.76426 81.9663C6.06266 74.0255 6.38548 64.7198 8.20128 56.836C8.25458 56.5933 8.30787 56.3507 8.36278 56.1007C11.4223 42.4189 19.2188 29.8424 30.1739 21.0938C30.4058 20.9008 30.6377 20.7078 30.8766 20.509C38.664 14.0799 48.1524 9.93814 58.006 7.91018C58.2208 7.86265 58.4356 7.81511 58.6569 7.76613C66.5545 6.07377 75.9637 6.33957 83.7872 8.20315Z" fill="#2B5582"/>
<path d="M70.3139 39.6606C71.5103 39.9099 71.8991 40.3594 72.6576 41.3086C72.7955 42.117 72.8445 42.7411 72.8239 43.5457C72.8241 43.7659 72.8243 43.9862 72.8246 44.2131C72.8235 44.9377 72.8122 45.6618 72.8007 46.3863C72.7979 46.89 72.7958 47.3937 72.7944 47.8974C72.7888 49.2205 72.7744 50.5434 72.7582 51.8665C72.7432 53.2176 72.7365 54.5687 72.7291 55.9198C72.7134 58.5691 72.6885 61.2181 72.6576 63.8672C72.934 63.9519 73.2103 64.0365 73.495 64.1237C74.5356 64.4961 74.9496 64.8839 75.6605 65.7166C75.8554 65.939 76.0503 66.1614 76.2511 66.3906C77.4769 68.0776 77.6061 69.749 77.3451 71.7773C76.6263 74.0173 75.3627 75.6684 73.2699 76.7555C72.4556 77.0955 71.7625 77.3613 70.8708 77.3047C70.073 77.259 69.5878 77.3181 68.849 77.6367C67.8888 78.8273 67.2454 80.1696 66.5785 81.5369C66.3009 82.0887 66.0205 82.6389 65.7365 83.1875C65.4796 83.6863 65.2307 84.1892 64.9823 84.6924C64.4145 85.6115 63.8849 86.1219 62.9896 86.7188C62.1107 86.9019 62.1107 86.9019 61.2318 86.7188C60.432 85.9711 59.853 85.4142 59.6445 84.3155C59.8288 83.0822 60.4521 82.1821 61.1037 81.134C61.2351 80.9141 61.3666 80.6941 61.5021 80.4675C62.1072 79.4576 62.7254 78.4627 63.389 77.4902C64.4623 76.0188 64.4623 76.0188 64.6216 74.3053C64.3278 73.6804 64.3278 73.6804 63.9326 73.1598C63.006 71.853 63.1234 70.0847 63.2826 68.5547C63.8248 66.6242 65.1606 65.2636 66.7982 64.1602C67.1865 64.0534 67.577 63.9544 67.9701 63.8672C67.9669 63.5878 67.9636 63.3085 67.9603 63.0206C67.9305 60.3869 67.9086 57.7531 67.8942 55.1193C67.8866 53.7652 67.8762 52.4112 67.8596 51.0572C67.8437 49.7502 67.8349 48.4435 67.8311 47.1364C67.8284 46.638 67.8231 46.1396 67.8152 45.6412C67.8046 44.9426 67.8031 44.2444 67.8038 43.5457C67.7985 43.34 67.7933 43.1344 67.7879 42.9224C67.7997 41.7985 67.9472 41.3372 68.658 40.4478C69.435 39.8438 69.435 39.8438 70.3139 39.6606Z" fill="#2B5582"/>
<path d="M113.672 73.8282C113.855 73.9219 114.039 74.0155 114.228 74.112C116.84 75.3951 119.623 75.1075 122.461 75.0001C120.815 81.3332 120.815 81.3332 120.117 82.0314C119.641 82.0587 119.163 82.0658 118.685 82.0646C118.38 82.0646 118.075 82.0646 117.761 82.0645C117.43 82.063 117.098 82.0615 116.756 82.06C116.418 82.0595 116.081 82.0591 115.733 82.0587C114.649 82.0571 113.565 82.0534 112.482 82.0497C111.749 82.0482 111.016 82.0469 110.284 82.0457C108.483 82.0424 106.683 82.0375 104.883 82.0314C104.695 81.5647 104.507 81.098 104.32 80.6312C104.216 80.3713 104.111 80.1113 104.003 79.8436C103.659 78.9698 103.347 78.0889 103.052 77.1974C102.954 76.9043 102.855 76.6112 102.754 76.3093C102.539 75.586 102.539 75.586 102.539 75.0001C102.893 75.0069 103.246 75.0137 103.61 75.0207C104.083 75.0262 104.556 75.0315 105.029 75.0367C105.377 75.0441 105.377 75.0441 105.732 75.0516C107.667 75.0675 109.34 74.855 111.072 73.9198C112.144 73.4304 112.543 73.5026 113.672 73.8282Z" fill="#FDC742"/>
<path d="M104.245 86.5385C104.44 86.5369 104.635 86.5353 104.836 86.5336C105.478 86.5302 106.119 86.5373 106.76 86.5448C107.208 86.5453 107.655 86.5453 108.103 86.5448C109.04 86.5453 109.977 86.5507 110.913 86.56C112.112 86.5716 113.311 86.5729 114.51 86.5707C115.434 86.5698 116.358 86.5734 117.282 86.5784C117.724 86.5804 118.166 86.5813 118.608 86.5811C119.226 86.5816 119.844 86.5879 120.463 86.5958C120.99 86.5995 120.99 86.5995 121.528 86.6032C122.55 86.7297 123.107 86.9843 123.926 87.5977C124.338 88.4207 124.292 89.0297 124.219 89.9414C123.698 90.8602 123.48 91.0667 122.462 91.4063C121.818 91.4399 121.174 91.4559 120.529 91.4628C120.334 91.4652 120.139 91.4676 119.939 91.47C119.294 91.4773 118.65 91.4822 118.005 91.4864C117.785 91.4879 117.564 91.4895 117.337 91.4911C116.171 91.4989 115.005 91.5046 113.839 91.5088C112.874 91.5128 111.91 91.5209 110.946 91.5329C109.78 91.5473 108.615 91.5546 107.449 91.5567C107.006 91.5586 106.562 91.5631 106.118 91.5701C105.497 91.5794 104.876 91.5794 104.255 91.5772C103.725 91.5808 103.725 91.5808 103.184 91.5844C101.973 91.3543 101.54 90.8934 100.782 89.9414C100.599 89.0625 100.599 89.0625 100.782 88.1836C101.859 86.8329 102.534 86.5356 104.245 86.5385Z" fill="#13B440"/>
<path d="M110.155 110.156C110.155 111.703 110.155 113.25 110.155 114.844C107.199 115.022 107.199 115.022 105.998 114.221C105.366 113.218 105.225 112.783 105.467 111.621C106.662 109.725 108.122 110.034 110.155 110.156Z" fill="#F9C441"/>
<path d="M136.102 114.679C137.109 114.844 137.109 114.844 137.823 115.283C138.468 116.315 138.516 117.174 138.281 118.359C137.823 119.092 137.823 119.092 137.109 119.531C136.102 119.696 136.102 119.696 135.058 119.531C134.068 118.815 133.661 118.391 133.41 117.188C133.739 115.607 134.525 114.928 136.102 114.679Z" fill="#2B5582"/>
<path d="M70.3131 67.7856C71.5068 68.0343 71.9373 68.4601 72.6569 69.4336C72.84 70.3125 72.84 70.3125 72.6569 71.1914C71.9373 72.1649 71.5068 72.5907 70.3131 72.8394C69.1195 72.5907 68.6889 72.1649 67.9694 71.1914C67.7863 70.3125 67.7863 70.3125 67.9694 69.4336C68.6889 68.4601 69.1195 68.0343 70.3131 67.7856Z" fill="#B3E7F2"/>
<path d="M120.682 113.318L119.886 116.125H104.989L105.784 113.318H120.682ZM113.432 131L105.295 121.125L105.273 118.909H109.307C110.314 118.909 111.167 118.754 111.864 118.443C112.561 118.133 113.091 117.682 113.455 117.091C113.818 116.492 114 115.765 114 114.909C114 113.636 113.621 112.625 112.864 111.875C112.106 111.125 110.92 110.75 109.307 110.75H104.989L105.818 107.727H109.307C111.186 107.727 112.735 108.027 113.955 108.625C115.174 109.223 116.083 110.053 116.682 111.114C117.28 112.174 117.58 113.398 117.58 114.784C117.58 116.019 117.333 117.136 116.841 118.136C116.348 119.136 115.564 119.951 114.489 120.58C113.413 121.208 112 121.576 110.25 121.682L110.148 121.705L117.58 130.807V131H113.432ZM120.693 107.727L119.886 110.557L107.977 110.489L108.784 107.727H120.693Z" fill="black"/>
</svg>
