<svg width="80" height="80" viewBox="0 0 80 80" fill="none" xmlns="http://www.w3.org/2000/svg">
<path d="M54.6972 2.31874C59.4696 2.19185 63.8544 3.98626 67.3002 7.23696C70.3541 10.2174 72.1855 14.4233 72.2555 18.6825C72.2633 23.5688 70.8879 27.7652 67.4421 31.3074C67.3068 31.4431 67.1713 31.5789 67.0319 31.7188C66.9255 31.8288 66.8193 31.9388 66.7096 32.052C63.2649 35.3756 58.7393 36.3317 54.1243 36.297C52.926 36.2672 51.8252 36.0819 50.6738 35.7617C50.1454 35.5984 50.1454 35.5984 49.5319 35.625C49.1946 35.9928 49.1946 35.9928 48.8679 36.4844C46.6741 39.4936 43.5626 42.0664 40.0007 43.2813C39.846 43.2813 39.6913 43.2813 39.5319 43.2813C39.5319 43.3844 39.5319 43.4875 39.5319 43.5938C39.6176 43.6131 39.7032 43.6325 39.7913 43.6524C42.5627 44.3734 44.8276 46.1991 46.8757 48.125C46.9679 48.2072 47.0602 48.2894 47.1552 48.3741C50.1793 51.1831 51.9977 55.4933 52.5007 59.5313C52.5136 59.9216 52.5191 60.312 52.5183 60.7025C52.5185 60.8139 52.5185 60.9253 52.5185 61.0402C52.5183 61.4045 52.5171 61.7688 52.516 62.1331C52.5157 62.3874 52.5154 62.6416 52.5152 62.8956C52.5146 63.5617 52.5132 64.2278 52.5115 64.8939C52.5097 65.5747 52.5091 66.2555 52.5083 66.9364C52.5066 68.27 52.504 69.6038 52.5007 70.9375C52.5972 70.9366 52.6938 70.9355 52.7933 70.9344C52.92 70.9336 53.0468 70.9328 53.1772 70.932C53.3029 70.9311 53.4285 70.93 53.5579 70.9291C54.8344 70.9602 55.8036 71.7525 56.6883 72.5983C57.718 73.7084 58.1055 74.8519 58.3044 76.3336C58.2744 76.8452 58.1233 77.0945 57.8132 77.5C57.4368 77.5974 57.4368 77.5974 56.9804 77.597C56.8066 77.5988 56.6327 77.6005 56.4536 77.6024C56.2619 77.6003 56.07 77.5981 55.8725 77.5961C55.6694 77.5969 55.4665 77.5978 55.2572 77.5988C54.6922 77.6011 54.1275 77.5986 53.5625 77.5953C52.954 77.5925 52.3452 77.5944 51.7365 77.5955C50.5436 77.5972 49.3507 77.5947 48.1579 77.5908C46.7699 77.5864 45.3818 77.5863 43.9938 77.5863C41.5179 77.5861 39.0421 77.5822 36.5661 77.5761C34.1616 77.5703 31.7569 77.567 29.3522 77.5666C29.2041 77.5664 29.056 77.5664 28.9035 77.5664C28.7555 77.5664 28.6077 77.5664 28.4554 77.5663C28.1577 77.5663 27.8601 77.5663 27.5624 77.5661C27.3422 77.5661 27.3422 77.5661 27.1176 77.5661C24.829 77.5655 22.5404 77.5627 20.2518 77.5595C19.4211 77.5584 18.5905 77.5577 17.7599 77.5572C16.4426 77.5564 15.1252 77.5545 13.8079 77.5508C13.2057 77.5489 12.6034 77.5477 12.0012 77.5478C11.3496 77.5478 10.698 77.5455 10.0464 77.5428C9.85432 77.5433 9.66221 77.5436 9.46429 77.5441C9.29088 77.5428 9.11746 77.5417 8.93879 77.5406C8.71294 77.5402 8.71294 77.5402 8.48254 77.5397C8.12566 77.5 8.12566 77.5 7.81316 77.1875C7.62449 75.6781 7.83649 74.4 8.74883 73.1775C9.65074 72.1214 10.6479 71.2483 12.0319 70.9375C12.2762 70.9303 12.5206 70.9283 12.7649 70.9308C12.8911 70.9317 13.0173 70.9327 13.1474 70.9338C13.2433 70.935 13.3393 70.9363 13.4382 70.9375C13.4368 70.8013 13.4354 70.6649 13.434 70.5245C13.4213 69.2263 13.4119 67.928 13.4058 66.6297C13.4026 65.9627 13.3982 65.2956 13.391 64.6284C13.3316 58.9449 13.3316 58.9449 14.0632 56.5625C14.1065 56.4108 14.1498 56.2589 14.1945 56.1025C14.3038 55.7444 14.4257 55.3978 14.5612 55.0489C14.6074 54.9277 14.6536 54.8064 14.7011 54.6816C16.709 49.5961 20.6702 45.9306 25.628 43.7691C25.8872 43.6577 26.1471 43.5474 26.4069 43.4375C26.2988 43.3956 26.1905 43.3538 26.0791 43.3106C23.8821 42.4306 21.976 41.3549 20.1569 39.8438C20.0283 39.7392 19.8999 39.6347 19.7676 39.527C18.8371 38.7399 18.0838 37.8409 17.3444 36.875C17.2513 36.755 17.1583 36.6349 17.0624 36.5113C15.8797 34.9091 14.9533 33.1155 14.3171 31.2305C14.264 31.0742 14.264 31.0742 14.2099 30.915C13.5594 28.8631 13.3702 26.9109 13.3924 24.7759C13.3933 24.5236 13.3939 24.2713 13.3944 24.0189C13.3962 23.3631 13.4007 22.7074 13.406 22.0516C13.4108 21.3791 13.4129 20.7064 13.4153 20.0339C13.4203 18.7205 13.4282 17.4072 13.4382 16.0938C13.3314 16.0845 13.2246 16.0753 13.1146 16.0658C12.9743 16.0528 12.8339 16.04 12.6893 16.0267C12.5503 16.0142 12.4113 16.0017 12.2681 15.9889C11.0053 15.8234 9.86219 15.0141 9.01433 14.0973C8.22902 13.063 7.7911 11.9884 7.78387 10.6934C7.78165 10.5127 7.77943 10.332 7.77715 10.1459C7.81316 9.68751 7.81316 9.68751 8.12566 9.37501C8.56243 9.34766 8.98337 9.3401 9.42004 9.34623C9.55552 9.34687 9.69102 9.34751 9.83062 9.34816C10.2874 9.35063 10.7441 9.3553 11.2008 9.35991C11.5273 9.36204 11.8537 9.36399 12.1801 9.3658C12.8847 9.36983 13.5893 9.37465 14.2939 9.3799C15.4089 9.38779 16.524 9.39133 17.639 9.39377C17.8271 9.39419 18.0151 9.39462 18.209 9.39505C18.5936 9.39591 18.9783 9.39674 19.3632 9.39755C21.9597 9.40315 24.5563 9.41107 27.1529 9.43338C28.9032 9.44838 30.6533 9.45563 32.4036 9.45391C33.3299 9.4533 34.2558 9.45663 35.1819 9.46943C36.0544 9.48143 36.9265 9.48312 37.799 9.4771C38.1182 9.47669 38.4375 9.48001 38.7566 9.48741C40.5907 9.56797 40.5907 9.56797 42.1499 8.74369C42.5624 8.2928 42.9047 7.80754 43.2421 7.29924C45.2472 4.55891 49.4363 3.00832 52.6569 2.50002C53.3372 2.39654 54.0107 2.35469 54.6972 2.31874Z" fill="#003C7C"/>
<path d="M64.6904 7.58303C65.1743 8.00889 65.6359 8.4536 66.0948 8.90628C66.2207 9.03015 66.3467 9.15401 66.4764 9.28164C69.3528 12.2882 70.3957 16.1602 70.3465 20.2314C70.2534 23.6266 68.6546 27.0403 66.4073 29.5313C66.2982 29.6533 66.189 29.7753 66.0765 29.9011C63.4846 32.6449 59.6814 34.2708 55.9331 34.4099C54.3621 34.4461 52.9187 34.3788 51.4073 33.9063C51.2546 33.8628 51.102 33.8192 50.9448 33.7744C47.1207 32.6102 43.9804 30.0355 42.0323 26.5625C40.1021 22.8744 39.7417 18.598 40.9581 14.6289C41.6079 12.717 42.5837 11.0541 43.9073 9.53128C43.9767 9.43964 44.0459 9.34798 44.1173 9.25356C46.0439 6.75738 49.5753 4.93724 52.6532 4.48607C56.976 3.98107 61.2792 4.71598 64.6904 7.58303Z" fill="#E9F3FF"/>
<path d="M43.4332 47.6745C45.1011 48.9886 46.7043 50.5228 47.8114 52.3438C47.8653 52.4288 47.919 52.5138 47.9746 52.6013C49.8912 55.6439 50.6795 58.8714 50.6543 62.4384C50.6537 62.6847 50.6534 62.9309 50.6531 63.1772C50.6518 63.8195 50.6487 64.462 50.6453 65.1044C50.6421 65.7622 50.6407 66.4202 50.639 67.078C50.6357 68.3645 50.6304 69.6509 50.6239 70.9375C49.3559 71.3089 48.1306 71.3852 46.8739 70.9375C45.0423 69.8267 43.5807 67.9795 42.1442 66.4198C41.3836 65.598 40.6073 64.7908 39.8326 63.9822C39.4214 63.5528 39.015 63.1198 38.6118 62.6831C37.6543 61.6563 36.8189 60.7991 35.4676 60.3125C35.3342 60.2573 35.2009 60.2022 35.0636 60.1455C33.5171 59.5492 31.7764 59.7639 30.2326 60.2252C28.6212 60.9436 27.4267 62.0163 26.2098 63.2716C26.0614 63.4217 25.9129 63.5717 25.7642 63.7216C25.0732 64.4238 24.4015 65.1356 23.757 65.8805C23.0318 66.7163 22.2981 67.5409 21.54 68.347C21.3401 68.5627 21.1437 68.7816 20.9507 69.0034C20.0478 70.0381 19.2557 70.9456 17.8267 71.0784C16.9818 71.1014 16.149 71.0466 15.3113 70.9375C15.3041 69.5616 15.2985 68.1855 15.2951 66.8095C15.2935 66.1703 15.2913 65.5313 15.2878 64.8922C15.2844 64.2742 15.2825 63.6563 15.2817 63.0381C15.2811 62.8036 15.28 62.5691 15.2783 62.3347C15.269 61.0042 15.3227 59.7386 15.6238 58.4375C15.6664 58.2419 15.7089 58.0464 15.7526 57.8448C16.6025 54.503 18.2232 51.8314 20.6239 49.375C20.7217 49.2692 20.8196 49.1636 20.9204 49.0545C21.9579 47.9563 23.2279 47.1991 24.5301 46.4552C24.6801 46.3688 24.6801 46.3688 24.8331 46.2806C30.6584 43.023 38.0906 43.8794 43.4332 47.6745Z" fill="#E0D0F8"/>
<path d="M15.3112 15.9375C23.0456 15.9375 30.78 15.9375 38.7487 15.9375C38.6972 16.4016 38.6456 16.8656 38.5925 17.3438C38.377 21.1503 38.9754 24.4058 40.764 27.7722C40.9362 28.125 40.9362 28.125 40.9362 28.4375C32.5831 28.4375 24.23 28.4375 15.6237 28.4375C14.7196 24.3687 15.3112 20.1055 15.3112 15.9375Z" fill="#E0D0F8"/>
<path d="M16.25 30.3125C19.6375 30.265 23.0248 30.2292 26.4125 30.2072C27.9856 30.1967 29.5586 30.1825 31.1316 30.1592C32.5033 30.1389 33.8748 30.126 35.2467 30.1214C35.9727 30.1188 36.6981 30.1127 37.4239 30.0977C38.1084 30.0839 38.7925 30.0797 39.4772 30.0828C39.727 30.0822 39.977 30.0783 40.2267 30.0703C41.303 30.0383 42.2244 30.0261 43.0769 30.7524C43.5158 31.1735 43.9048 31.6289 44.2967 32.0931C45.2056 33.0646 46.4916 33.7521 47.6562 34.375C47.5055 35.2158 46.9391 35.7658 46.4062 36.4063C46.3027 36.533 46.1992 36.6597 46.0925 36.7902C43.673 39.6249 40.1802 41.4336 36.5625 42.1875C36.4519 42.2138 36.3414 42.2399 36.2273 42.2669C31.8273 43.2533 27.2269 42.1581 23.4375 39.8438C22.7875 39.4033 22.1712 38.9331 21.5625 38.4375C21.4195 38.3224 21.2766 38.2071 21.1292 38.0885C19.4628 36.6655 18.2048 34.8994 17.168 32.9785C17.1108 32.8733 17.0534 32.7683 16.9945 32.6599C16.7098 32.1064 16.5172 31.5866 16.3892 30.9763C16.3627 30.8514 16.3361 30.7266 16.3087 30.598C16.2894 30.5038 16.27 30.4096 16.25 30.3125Z" fill="#E9F3FF"/>
<path d="M32.7638 61.6503C32.9641 61.6442 33.1645 61.638 33.3709 61.6314C35.3466 61.7814 36.6294 63.0394 37.9322 64.3823C38.1148 64.5667 38.2978 64.7509 38.4811 64.9348C38.9583 65.4153 39.432 65.8989 39.9052 66.3834C40.2941 66.7805 40.6853 67.1752 41.0767 67.5697C41.883 68.3827 42.6878 69.197 43.4883 70.0158C43.7005 70.2323 43.7005 70.2323 43.917 70.4533C44.2188 70.7813 44.2188 70.7813 44.2188 70.9375C36.6906 70.9375 29.1625 70.9375 21.4062 70.9375C22.0383 70.2002 22.6652 69.5023 23.3539 68.8239C23.447 68.7312 23.5403 68.6386 23.6363 68.5433C24.0297 68.1523 24.4242 67.7623 24.8186 67.3722C26.253 65.962 26.253 65.962 27.6 64.4694C29.0094 62.808 30.5194 61.6883 32.7638 61.6503Z" fill="#E9F3FF"/>
<path d="M14.1891 72.7332C14.439 72.7318 14.439 72.7318 14.6939 72.7302C15.2504 72.7277 15.8067 72.7297 16.3631 72.7316C16.7628 72.7308 17.1625 72.7297 17.5622 72.7283C18.5341 72.7258 19.5059 72.7261 20.4777 72.728C21.2678 72.7294 22.058 72.7296 22.8481 72.7289C22.9608 72.7288 23.0733 72.7288 23.1894 72.7286C23.4181 72.7285 23.6469 72.7282 23.8758 72.728C26.0195 72.7263 28.1633 72.7283 30.307 72.7316C32.1447 72.7344 33.9825 72.7339 35.8202 72.7311C37.9562 72.7277 40.0922 72.7264 42.2283 72.7283C42.4562 72.7285 42.6842 72.7288 42.9122 72.7289C43.0244 72.7289 43.1366 72.7291 43.252 72.7293C44.0408 72.7297 44.8295 72.7288 45.6183 72.7274C46.6808 72.7253 47.7433 72.7268 48.8059 72.7303C49.1956 72.7313 49.5853 72.731 49.975 72.7296C50.5075 72.7278 51.0398 72.73 51.5723 72.7332C51.803 72.7311 51.803 72.7311 52.0381 72.7289C53.2208 72.7424 54.1773 73.008 55.0928 73.7788C55.1911 73.8949 55.2894 74.0111 55.3906 74.131C55.4922 74.2468 55.5936 74.3625 55.6983 74.4819C55.9375 74.8438 55.9375 74.8438 56.0938 75.625C40.8312 75.625 25.5687 75.625 9.84375 75.625C9.99616 74.863 10.0702 74.6783 10.5566 74.131C10.6567 74.0147 10.7568 73.8985 10.86 73.7788C11.8894 72.8782 12.8506 72.7211 14.1891 72.7332Z" fill="#F1BD22"/>
<path d="M49.8544 8.84313C49.983 8.84207 50.1116 8.84099 50.2441 8.83988C50.6697 8.83702 51.0953 8.83763 51.5209 8.83852C51.8166 8.8378 52.1122 8.83697 52.4078 8.83604C53.0277 8.83465 53.6473 8.83502 54.2673 8.83658C55.0619 8.83837 55.8564 8.83521 56.6511 8.83065C57.2617 8.82779 57.8722 8.82783 58.4828 8.82872C58.7758 8.82874 59.0687 8.8278 59.3617 8.82587C59.7714 8.82354 60.1808 8.82519 60.5905 8.82788C60.7116 8.82637 60.8328 8.82487 60.9577 8.8233C61.5059 8.83083 61.818 8.86602 62.2664 9.19315C62.4981 9.53127 62.4981 9.53127 62.4884 10.0196C62.3419 10.4688 62.3419 10.4688 61.8731 10.7813C61.4039 10.8311 61.4039 10.8311 60.8361 10.846C60.6333 10.852 60.4303 10.8581 60.2212 10.8643C60.0069 10.8692 59.7925 10.8741 59.5781 10.8789C59.362 10.8849 59.1459 10.891 58.9297 10.8972C58.4005 10.912 57.8712 10.9254 57.3419 10.9375C57.4061 11.0212 57.4705 11.1048 57.5367 11.1911C57.6211 11.3019 57.7053 11.4128 57.7923 11.5271C57.8759 11.6366 57.9595 11.746 58.0456 11.8588C58.5889 12.623 58.7719 13.2762 58.7481 14.2188C58.8395 14.2155 58.9309 14.2122 59.025 14.2088C59.4405 14.1958 59.8559 14.1877 60.2716 14.1797C60.4873 14.1718 60.4873 14.1718 60.7073 14.1638C61.7709 14.1484 61.7709 14.1484 62.2864 14.5032C62.4981 14.8438 62.4981 14.8438 62.4884 15.3321C62.3419 15.7813 62.3419 15.7813 61.8731 16.0938C61.533 16.1292 61.533 16.1292 61.1437 16.1242C60.9345 16.1228 60.9345 16.1228 60.7211 16.1213C60.5759 16.1186 60.4308 16.116 60.2812 16.1133C60.1344 16.1119 59.9875 16.1105 59.8361 16.1091C59.4734 16.1053 59.1108 16.1002 58.7481 16.0938C58.758 16.2277 58.7678 16.3616 58.778 16.4997C58.7078 17.7491 57.8039 19.09 56.8859 19.9231C55.2877 21.0686 53.6412 21.4425 51.7169 21.5625C53.3137 23.1963 53.3137 23.1963 55.0055 24.7291C55.4892 25.1586 55.9377 25.6238 56.3917 26.0842C56.822 26.518 57.2609 26.9341 57.7228 27.3341C57.8208 27.4189 57.9189 27.5039 58.02 27.5916C58.235 27.7747 58.4522 27.955 58.67 28.1347C58.9044 28.4375 58.9044 28.4375 58.9728 28.916C58.9044 29.375 58.9044 29.375 58.7286 29.668C58.2575 29.9506 58.0425 29.9567 57.4981 29.8438C57.1581 29.565 56.8683 29.2608 56.5698 28.938C56.2777 28.6255 55.9792 28.3514 55.6525 28.0763C55.1228 27.6214 54.6286 27.1372 54.1387 26.6406C53.5622 26.0563 52.9708 25.5028 52.3461 24.9702C51.8241 24.5044 51.3408 24.0002 50.8495 23.5022C50.5141 23.1716 50.1717 22.8628 49.8125 22.5586C48.1872 21.155 48.1872 21.155 48.0547 20.3821C48.1231 20 48.1231 20 48.373 19.7453C48.8748 19.4589 49.2431 19.4736 49.8192 19.4733C50.0316 19.4706 50.2439 19.4678 50.4562 19.465C50.7877 19.4635 51.1192 19.4628 51.4506 19.4631C53.1905 19.4602 54.5345 19.2863 55.8569 18.0805C56.3648 17.5011 56.6322 16.8167 56.8731 16.0938C56.7705 16.0952 56.6677 16.0966 56.5619 16.098C55.4948 16.1117 54.4278 16.1213 53.3608 16.1281C52.9623 16.1313 52.5637 16.1355 52.1653 16.141C51.5933 16.1485 51.0212 16.1521 50.4492 16.1549C50.2705 16.158 50.0917 16.1613 49.9077 16.1646C49.7419 16.1646 49.5761 16.1647 49.4053 16.1647C49.1861 16.1667 49.1861 16.1667 48.9627 16.1689C48.5919 16.0938 48.5919 16.0938 48.3103 15.8019C48.0783 15.389 48.0512 15.1543 48.1231 14.6875C48.3103 14.4327 48.3103 14.4327 48.5919 14.2188C48.9627 14.1624 48.9627 14.1624 49.4053 14.1656C49.6539 14.1656 49.6539 14.1656 49.9077 14.1657C50.1756 14.1693 50.1756 14.1693 50.4492 14.173C50.7239 14.174 50.7239 14.174 51.0042 14.175C51.5902 14.1776 52.1759 14.1835 52.7619 14.1895C53.1586 14.1918 53.5555 14.194 53.9523 14.1959C54.9259 14.2011 55.8995 14.2089 56.8731 14.2188C56.7764 13.9666 56.6787 13.7148 56.5806 13.4631C56.5262 13.3229 56.472 13.1826 56.4161 13.0381C56.2125 12.5752 55.9791 12.2892 55.5938 11.9629C55.4853 11.8664 55.3767 11.77 55.2648 11.6706C53.8264 10.7718 52.2586 10.8681 50.6195 10.8694C50.2955 10.8689 49.9717 10.8646 49.6478 10.86C49.3605 10.8596 49.3605 10.8596 49.0673 10.8591C48.5919 10.7813 48.5919 10.7813 48.2952 10.4889C48.0819 10.0766 48.0527 9.83316 48.1231 9.37502C48.525 8.73299 49.1758 8.83921 49.8544 8.84313Z" fill="#003C7C"/>
<path d="M9.84375 11.25C19.95 11.25 30.0563 11.25 40.4688 11.25C39.375 13.9062 39.375 13.9062 39.2188 14.0625C38.8775 14.079 38.5356 14.0843 38.1941 14.0855C38.0316 14.0864 38.0316 14.0864 37.8656 14.0872C37.4998 14.089 37.1341 14.0896 36.7681 14.0902C36.5069 14.0911 36.2456 14.0922 35.9845 14.0933C35.2725 14.096 34.5606 14.0976 33.8488 14.0989C33.4041 14.0997 32.9594 14.1007 32.5147 14.1017C31.1234 14.1046 29.7322 14.1069 28.3409 14.1082C26.7347 14.1097 25.1286 14.1138 23.5225 14.1201C22.2814 14.1248 21.0405 14.1271 19.7995 14.1277C19.0581 14.128 18.3169 14.1294 17.5756 14.1334C16.8775 14.137 16.1795 14.1377 15.4814 14.136C15.2257 14.136 14.97 14.137 14.7143 14.1391C13.2258 14.1509 12.0771 14.1493 10.8997 13.136C10.7734 12.9855 10.7734 12.9855 10.6445 12.832C10.5579 12.7325 10.4713 12.633 10.3821 12.5305C10.1562 12.1875 10.1562 12.1875 9.84375 11.25Z" fill="#F1BD22"/>
</svg>
