<svg width="151" height="150" viewBox="0 0 151 150" fill="none" xmlns="http://www.w3.org/2000/svg">
<g clip-path="url(#clip0_6986_7264)">
<path d="M22.7625 39.8438C57.5672 39.8438 92.3719 39.8438 128.231 39.8438C128.231 56.376 128.231 72.9082 128.231 89.9414C132.485 89.8447 136.739 89.748 141.122 89.6484C139.672 88.1982 139.672 88.1982 138.192 86.7188C137.738 85.8104 137.814 85.0843 137.899 84.082C138.357 83.2397 138.357 83.2397 139.071 82.6172C140.144 82.3052 140.782 82.1588 141.802 82.656C143.381 83.7571 144.708 85.1576 146.077 86.5042C146.448 86.8667 146.821 87.2264 147.198 87.5831C147.744 88.1011 148.282 88.6274 148.818 89.1563C148.986 89.313 149.155 89.4697 149.328 89.6311C150.234 90.5461 150.608 91.177 150.654 92.4829C150.581 93.5222 150.434 94.1395 149.669 94.8864C149.482 95.0768 149.295 95.2672 149.101 95.4633C148.885 95.6714 148.669 95.8794 148.446 96.0938C147.938 96.6152 147.429 97.1366 146.921 97.6582C146.374 98.2056 145.827 98.7522 145.278 99.2981C144.996 99.5813 144.714 99.8645 144.432 100.148C144.032 100.547 144.032 100.547 143.625 100.954C143.262 101.316 143.262 101.316 142.893 101.685C141.876 102.638 141.067 102.658 139.715 102.639C139.071 102.539 139.071 102.539 138.32 101.935C137.771 100.812 137.668 100.263 137.899 99.0234C138.498 98.1524 139.199 97.4202 139.95 96.6797C140.337 96.293 140.723 95.9063 141.122 95.5078C134.741 95.3628 134.741 95.3628 128.231 95.2148C128.236 96.5886 128.24 97.9623 128.245 99.3777C128.26 103.914 128.27 108.45 128.277 112.985C128.281 115.736 128.288 118.486 128.298 121.237C128.306 123.634 128.312 126.032 128.314 128.429C128.315 129.699 128.318 130.968 128.324 132.237C128.33 133.432 128.332 134.628 128.331 135.823C128.331 136.261 128.333 136.699 128.336 137.137C128.37 141.794 128.37 141.794 126.638 143.793C125.427 144.827 124.634 145.093 123.04 145.095C122.696 145.097 122.352 145.099 121.998 145.101C121.619 145.1 121.241 145.099 120.851 145.098C120.446 145.099 120.04 145.1 119.635 145.102C118.519 145.105 117.403 145.105 116.287 145.105C115.085 145.105 113.882 145.108 112.679 145.111C110.322 145.115 107.965 145.117 105.608 145.117C103.692 145.118 101.776 145.119 99.8601 145.121C94.4302 145.126 89.0002 145.129 83.5702 145.128C83.2774 145.128 82.9845 145.128 82.6828 145.128C82.3897 145.128 82.0965 145.128 81.7944 145.128C77.0426 145.128 72.2908 145.133 67.5389 145.142C62.6614 145.15 57.7839 145.154 52.9064 145.154C50.1673 145.153 47.4284 145.155 44.6894 145.161C42.3573 145.167 40.0253 145.168 37.6932 145.164C36.5033 145.162 35.3134 145.162 34.1235 145.167C33.0339 145.172 31.9444 145.171 30.8549 145.166C30.2745 145.164 29.6941 145.169 29.1138 145.174C27.1309 145.158 25.8278 145.061 24.2273 143.848C23.0378 142.429 22.7258 140.879 22.7273 139.077C22.7267 138.499 22.7267 138.499 22.7261 137.908C22.7271 137.48 22.7282 137.051 22.7292 136.623C22.7293 136.172 22.7293 135.722 22.7291 135.272C22.729 134.048 22.7308 132.824 22.7328 131.6C22.7346 130.321 22.7348 129.043 22.7351 127.764C22.7361 125.343 22.7385 122.921 22.7414 120.499C22.7447 117.743 22.7463 114.986 22.7478 112.229C22.7508 106.558 22.7562 100.886 22.7625 95.2148C18.5086 95.3115 14.2547 95.4082 9.87188 95.5078C10.9354 96.5713 11.9988 97.6348 13.0945 98.7305C13.3875 100.012 13.3875 100.012 13.0945 101.074C12.5086 101.953 12.5086 101.953 11.6297 102.539C10.634 102.735 10.2182 102.809 9.28594 102.539C7.22813 101.119 5.49456 99.0846 3.73784 97.3206C3.45465 97.0384 3.17141 96.7563 2.88812 96.4743C2.62206 96.2078 2.356 95.9414 2.08188 95.6669C1.84058 95.4253 1.59929 95.1836 1.35068 94.9347C0.414254 93.935 0.358816 93.1427 0.377713 91.8107C0.592012 90.5565 1.38173 89.863 2.273 89.0076C2.45602 88.8234 2.63904 88.6393 2.82761 88.4495C3.21458 88.0633 3.60481 87.6804 3.99805 87.3005C4.59683 86.7203 5.18209 86.1286 5.76688 85.5343C6.1457 85.1593 6.52524 84.7851 6.90557 84.4116C7.07931 84.2356 7.25306 84.0595 7.43207 83.8781C8.70063 82.6719 9.57402 82.3261 11.3367 82.3242C12.1746 82.8412 12.6544 83.2019 13.0945 84.082C13.2638 85.14 13.2918 85.8417 12.678 86.7474C12.1526 87.348 11.612 87.9164 11.0438 88.4766C10.4637 89.0566 10.4637 89.0566 9.87188 89.6484C14.1258 89.7451 18.3797 89.8418 22.7625 89.9414C22.7625 73.4092 22.7625 56.877 22.7625 39.8438ZM45.9585 65.5025C41.8369 70.083 39.0751 75.4707 37.0413 81.2571C35.7656 84.8509 34.1171 87.0038 30.6727 88.7695C28.9866 89.5383 27.3832 89.8332 25.5457 89.9963C25.3048 90.0203 25.0638 90.0443 24.8156 90.069C24.2291 90.127 23.6423 90.1811 23.0555 90.2344C23.0555 91.7813 23.0555 93.3281 23.0555 94.9219C28.9717 95.1908 33.5929 93.4145 37.9683 89.4344C40.3397 86.9984 41.6228 83.5763 42.6844 80.4016C44.046 76.3518 46.1124 72.9983 48.8367 69.7266C49.0441 69.4709 49.2514 69.2152 49.465 68.9518C54.7171 62.7642 62.9912 58.6804 71.0179 57.7678C81.1855 56.964 90.4743 59.3122 98.3484 65.918C98.7206 66.2131 98.7206 66.2131 99.1003 66.5142C103.666 70.3177 106.79 75.6395 108.606 81.2342C109.123 82.8234 109.53 84.0171 110.946 84.9609C112.01 85.0967 112.505 85.1064 113.381 84.4666C113.948 83.6899 114.073 83.2771 114.169 82.3242C113.089 77.398 110.482 72.5187 107.43 68.5547C107.109 68.1361 107.109 68.1361 106.782 67.709C101.366 60.8853 94.4314 56.5042 86.1536 53.9795C85.8707 53.8921 85.8707 53.8921 85.582 53.8029C82.2669 52.8418 78.915 52.6198 75.4786 52.6245C75.182 52.6248 75.182 52.6248 74.8794 52.625C63.743 52.666 53.6626 57.545 45.9585 65.5025ZM57.9188 75C57.7386 75.1582 57.5585 75.3165 57.3729 75.4795C53.0288 79.4441 50.8501 85.6782 50.5476 91.4177C50.369 98.3 52.8201 104.386 57.3328 109.57C57.4812 109.747 57.6297 109.923 57.7826 110.105C62.0003 114.732 68.4799 117.12 74.5938 117.459C81.4918 117.697 87.7616 115.097 92.782 110.449C97.7379 105.623 100.306 99.2676 100.509 92.4133C100.307 85.627 97.7385 79.8819 93.075 75C92.9168 74.8199 92.7585 74.6397 92.5955 74.4541C88.6906 70.1755 82.4282 67.8709 76.7637 67.5934C69.39 67.3802 63.2317 69.9248 57.9188 75ZM119.149 91.4062C118.762 91.5603 118.762 91.5603 118.366 91.7175C116.351 92.6188 114.842 93.9583 113.29 95.5078C113.099 95.6951 112.908 95.8824 112.712 96.0754C110.562 98.3436 109.537 101.162 108.511 104.059C105.291 113.058 99.1234 120.068 90.4383 124.219C86.2207 126.076 81.8725 127.221 77.2547 127.441C76.9813 127.457 76.7078 127.472 76.4261 127.488C67.0416 127.765 58.1624 124.237 51.3178 117.89C46.5925 113.299 43.4909 107.88 41.6006 101.589C41.1383 100.609 40.7378 100.331 39.7547 99.9023C38.7154 99.9231 38.2082 99.984 37.4659 100.726C36.8585 101.845 36.7851 102.378 37.0985 103.642C37.2409 104.082 37.3881 104.52 37.5391 104.956C37.6191 105.19 37.6991 105.423 37.7814 105.664C39.7777 111.303 42.9111 116.146 47.0789 120.41C47.4307 120.789 47.4307 120.789 47.7896 121.176C53.5743 127.263 61.7278 130.827 69.9305 132.129C70.1707 132.167 70.4109 132.206 70.6583 132.246C80.9843 133.563 91.1525 130.514 99.4974 124.479C103.274 121.512 106.632 118.034 109.188 113.965C109.302 113.785 109.416 113.605 109.533 113.42C111.062 110.963 112.177 108.475 113.137 105.748C114.699 101.331 116.302 98.2869 120.622 96.1579C122.324 95.3526 123.801 95.1508 125.668 95.05C126.792 94.9866 126.792 94.9866 127.938 94.9219C127.938 93.375 127.938 91.8281 127.938 90.2344C124.72 90.1297 122.172 90.1777 119.149 91.4062Z" fill="#B3E7F2"/>
<path d="M35.4915 -0.128174C35.7146 -0.133839 35.9378 -0.139503 36.1678 -0.14534C37.0867 0.0569141 37.4097 0.448561 38 1.17188C38.1409 1.92452 38.1409 1.92452 38.133 2.78406C38.1329 3.10657 38.1329 3.42908 38.1328 3.76137C38.1267 4.10778 38.1207 4.45419 38.1144 4.8111C38.1128 5.16709 38.1111 5.52308 38.1094 5.88986C38.1029 7.02728 38.0881 8.16442 38.0732 9.30176C38.0674 10.0727 38.062 10.8437 38.0572 11.6146C38.0453 13.505 38.0224 15.3948 38 17.2852C42.9307 17.2852 47.8613 17.2852 52.9414 17.2852C52.9278 16.1601 52.9142 15.0351 52.9002 13.876C52.8911 12.7861 52.884 11.6963 52.877 10.6065C52.8711 9.84912 52.8631 9.0918 52.853 8.33452C52.8388 7.24584 52.8321 6.15734 52.827 5.06859C52.8179 4.56085 52.8179 4.56085 52.8086 4.04286C52.808 1.69335 52.808 1.69335 53.4939 0.518703C54.4009 -0.240846 54.9885 -0.18885 56.1274 -0.127029C57.018 0.0546794 57.4055 0.440381 57.9219 1.17188C58.2921 1.91234 58.2501 2.42104 58.2481 3.24969C58.2481 3.71593 58.2481 3.71593 58.248 4.19159C58.2465 4.5282 58.245 4.86482 58.2435 5.21164C58.243 5.55546 58.2426 5.89927 58.2422 6.25351C58.2406 7.35505 58.2369 8.45657 58.2332 9.55811C58.2317 10.3035 58.2303 11.0489 58.2291 11.7943C58.2262 13.6246 58.2204 15.4549 58.2148 17.2852C63.0488 17.2852 67.8828 17.2852 72.8633 17.2852C72.8378 15.5976 72.8378 15.5976 72.8118 13.876C72.8004 12.7861 72.7915 11.6963 72.7828 10.6065C72.7754 9.84911 72.7655 9.09179 72.7528 8.33452C72.735 7.24582 72.7267 6.1574 72.7202 5.06859C72.7089 4.56085 72.7089 4.56085 72.6973 4.04286C72.6964 1.42353 72.6964 1.42353 73.5669 0.519347C74.2961 0.0218221 74.6319 -0.200607 75.5 -0.183105C75.6873 -0.186882 75.8746 -0.190659 76.0676 -0.19455C77.0361 0.117278 77.6328 0.597676 78.1367 1.46484C78.3443 2.66631 78.3069 3.85254 78.2798 5.06859C78.2767 5.5922 78.2767 5.5922 78.2735 6.12639C78.2653 7.23997 78.2469 8.35311 78.2283 9.46655C78.2209 10.222 78.2142 10.9775 78.2082 11.7331C78.1934 13.5841 78.1647 15.4341 78.1367 17.2852C82.9707 17.2852 87.8047 17.2852 92.7852 17.2852C92.775 16.1813 92.7648 15.0774 92.7543 13.94C92.7474 12.8706 92.7421 11.8011 92.7369 10.7316C92.7325 9.98851 92.7265 9.2454 92.7189 8.50232C92.7082 7.43402 92.7032 6.36581 92.6993 5.29747C92.6948 4.96539 92.6903 4.63331 92.6856 4.29116C92.6855 3.82503 92.6855 3.82503 92.6854 3.34947C92.6825 2.94059 92.6825 2.94059 92.6795 2.52344C92.8073 1.59765 93.1203 1.04663 93.6641 0.292969C94.3342 -0.0420794 94.7857 -0.0776424 95.5317 -0.109863C95.7576 -0.124214 95.9834 -0.138565 96.2161 -0.153351C96.8867 0 96.8867 0 97.5074 0.516772C98.3612 1.98541 98.2028 3.40069 98.173 5.06859C98.1714 5.41766 98.1697 5.76674 98.168 6.12639C98.1615 7.2399 98.1468 8.35313 98.1318 9.46655C98.126 10.222 98.1206 10.9776 98.1158 11.7331C98.1039 13.5839 98.081 15.4342 98.0586 17.2852C102.989 17.2852 107.92 17.2852 113 17.2852C112.986 16.1356 112.973 14.986 112.959 13.8016C112.95 12.6895 112.943 11.5773 112.936 10.4652C112.93 9.69165 112.922 8.91812 112.912 8.14462C112.897 7.03341 112.891 5.92238 112.886 4.8111C112.88 4.46469 112.873 4.11828 112.867 3.76137C112.867 3.43886 112.867 3.11635 112.867 2.78406C112.864 2.50041 112.862 2.21676 112.859 1.92452C113.041 0.954046 113.411 0.60874 114.172 0C115.07 -0.214972 115.903 -0.166508 116.809 0C117.773 0.674889 118.06 1.21667 118.273 2.34375C118.298 2.84479 118.308 3.3467 118.307 3.84836C118.307 4.14741 118.307 4.44646 118.307 4.75457C118.305 5.07535 118.304 5.39613 118.302 5.72662C118.301 6.2216 118.301 6.2216 118.301 6.72657C118.299 7.78029 118.295 8.83398 118.292 9.8877C118.29 10.6022 118.289 11.3167 118.288 12.0312C118.285 13.7825 118.28 15.5338 118.273 17.2852C118.648 17.275 119.023 17.2648 119.409 17.2543C119.909 17.246 120.41 17.238 120.91 17.2302C121.279 17.2192 121.279 17.2192 121.655 17.2079C123.445 17.1871 125.208 17.326 126.631 18.5482C130.357 22.6976 128.234 31.5225 128.234 35.1562C93.4297 35.1562 58.625 35.1562 22.7656 35.1562C22.7656 20.2344 22.7656 20.2344 24.4685 18.4937C26.3059 17.2687 27.9148 17.2067 30.0532 17.2485C30.3108 17.2512 30.5683 17.2538 30.8337 17.2565C31.4647 17.2634 32.0956 17.2739 32.7266 17.2852C32.7246 17.0093 32.7246 17.0093 32.7226 16.7278C32.7097 14.8125 32.7008 12.8973 32.6944 10.982C32.6914 10.2673 32.6874 9.55259 32.6824 8.83791C32.6752 7.81035 32.6719 6.78282 32.6693 5.75523C32.6663 5.43597 32.6633 5.1167 32.6602 4.78777C32.6601 4.33922 32.6601 4.33922 32.66 3.88162C32.6587 3.61944 32.6574 3.35726 32.6561 3.08714C32.7559 2.03401 33.0703 1.19979 33.7073 0.355911C34.3313 -0.102825 34.7218 -0.126876 35.4915 -0.128174ZM33.0195 17.5781C33.0061 18.97 32.9944 20.3616 32.9873 21.7534C32.9844 22.2266 32.9804 22.6997 32.9753 23.1728C32.9682 23.8542 32.9649 24.5356 32.9623 25.2171C32.9593 25.4274 32.9563 25.6377 32.9531 25.8544C32.9528 27.3268 33.0978 28.4398 34.0999 29.5532C35.1088 30.044 35.7642 29.88 36.8281 29.5898C37.7473 28.6707 37.9908 27.8205 38.0333 26.5249C38.0332 26.108 38.0316 25.6911 38.0286 25.2743C38.0282 25.0544 38.0278 24.8346 38.0274 24.6081C38.0257 23.9066 38.022 23.2051 38.0183 22.5037C38.0168 22.0278 38.0155 21.5519 38.0143 21.076C38.0113 19.91 38.0056 18.7441 38 17.5781C36.3564 17.5781 34.7129 17.5781 33.0195 17.5781ZM53.2344 17.5781C53.2142 19.1006 53.1967 20.6226 53.1861 22.145C53.1817 22.6628 53.1757 23.1806 53.1681 23.6983C53.1574 24.443 53.1524 25.1875 53.1485 25.9323C53.144 26.1634 53.1395 26.3944 53.1348 26.6325C53.1345 27.5857 53.1667 28.2903 53.6174 29.1409C54.4223 29.8696 55.1014 29.8828 56.1641 29.8828C57.1682 29.2716 57.5483 28.9528 57.9219 27.832C57.9468 27.053 57.9558 26.282 57.9505 25.5032C57.9501 25.2768 57.9497 25.0505 57.9492 24.8172C57.9476 24.0949 57.9439 23.3725 57.9402 22.6501C57.9387 22.1601 57.9374 21.6702 57.9362 21.1802C57.9332 19.9795 57.9275 18.7788 57.9219 17.5781C56.375 17.5781 54.8281 17.5781 53.2344 17.5781ZM73.1562 17.5781C73.1293 19.0536 73.106 20.5282 73.0919 22.0038C73.086 22.5053 73.078 23.0069 73.0678 23.5084C73.0536 24.2306 73.047 24.9525 73.0418 25.6748C73.0358 25.898 73.0297 26.1211 73.0235 26.351C73.023 27.4349 73.1174 28.0627 73.6956 28.9911C74.5099 29.7619 74.9673 29.9056 76.0859 29.8828C76.8908 29.3641 77.4135 28.9855 77.8438 28.125C77.8692 27.3343 77.8776 26.5513 77.8724 25.7607C77.8719 25.5274 77.8715 25.2941 77.8711 25.0538C77.8695 24.3075 77.8658 23.5612 77.8621 22.8149C77.8606 22.3095 77.8593 21.804 77.8581 21.2986C77.8551 20.0584 77.8493 18.8183 77.8438 17.5781C76.2969 17.5781 74.75 17.5781 73.1562 17.5781ZM93.0781 17.5781C93.0579 19.0118 93.0404 20.4449 93.0298 21.8786C93.0254 22.3659 93.0194 22.8533 93.0118 23.3406C93.0011 24.0424 92.9962 24.7441 92.9923 25.4459C92.9878 25.6627 92.9832 25.8794 92.9785 26.1027C92.9781 27.42 93.1356 28.2555 93.957 29.2969C94.7795 29.9699 94.7795 29.9699 95.6965 29.8462C96.7664 29.5405 97.1048 29.3104 97.7656 28.418C97.8679 27.551 97.9027 26.7965 97.8801 25.9323C97.8784 25.6934 97.8767 25.4544 97.875 25.2082C97.8685 24.4469 97.8538 23.686 97.8389 22.9248C97.833 22.4079 97.8276 21.891 97.8228 21.3741C97.8109 20.1085 97.788 18.8438 97.7656 17.5781C96.2187 17.5781 94.6719 17.5781 93.0781 17.5781ZM113 17.5781C112.98 18.9647 112.962 20.3507 112.952 21.7373C112.947 22.2085 112.941 22.6796 112.934 23.1507C112.923 23.83 112.918 24.5091 112.914 25.1884C112.91 25.3973 112.905 25.6061 112.9 25.8212C112.9 27.1986 113.139 28.134 113.879 29.2969C114.724 29.984 114.724 29.984 115.783 29.8462C116.81 29.683 116.81 29.683 117.358 29.0405C118.024 27.782 118.019 26.6609 118.009 25.2743C118.009 25.0544 118.008 24.8346 118.008 24.6081C118.006 23.9066 118.003 23.2051 117.999 22.5037C117.997 22.0278 117.996 21.5519 117.995 21.076C117.992 19.91 117.986 18.7441 117.98 17.5781C116.337 17.5781 114.693 17.5781 113 17.5781Z" fill="#FCB036"/>
<circle cx="76.25" cy="92.25" r="20.25" fill="#13B440"/>
<path d="M83.2273 85.5L82.3977 88.6591H67.1591L67.9773 85.5H83.2273ZM75.3068 103L67.5341 93.75L67.5455 90.9091H71.3864C72.2424 90.9091 72.9583 90.75 73.5341 90.4318C74.1098 90.1136 74.5417 89.6818 74.8295 89.1364C75.1174 88.5909 75.2652 87.9697 75.2727 87.2727C75.2652 86.2273 74.9583 85.375 74.3523 84.7159C73.7538 84.0492 72.7652 83.7159 71.3864 83.7159H67.1591L68.0909 79.7273H71.3864C73.3182 79.7273 74.928 80.0189 76.2159 80.6023C77.5114 81.178 78.4811 82 79.125 83.0682C79.7765 84.1364 80.1061 85.4091 80.1136 86.8864C80.1061 88.197 79.8864 89.3409 79.4545 90.3182C79.0303 91.2955 78.3598 92.1098 77.4432 92.7614C76.5341 93.4129 75.3485 93.8977 73.8864 94.2159L73.7045 94.2841L80.6591 102.795V103H75.3068ZM83.25 79.7273L82.3977 82.9318H69.8523L70.7045 79.7273H83.25Z" fill="white"/>
</g>
<defs>
<clipPath id="clip0_6986_7264">
<rect width="150" height="150" fill="white" transform="translate(0.5)"/>
</clipPath>
</defs>
</svg>
