<svg width="152" height="42" viewBox="0 0 152 42" fill="none" xmlns="http://www.w3.org/2000/svg">
<path fill-rule="evenodd" clip-rule="evenodd" d="M42.5015 0.8C43.8015 0.6 45.2015 0.5 46.3015 1.3C47.0015 1.8 47.2015 2.7 47.2015 3.5C47.3015 4.8 46.6015 6.3 45.4015 7C44.4015 7.6 43.1015 7.6 41.9015 7.5C41.1015 7.4 40.3015 7 39.9015 6.3C39.0015 4.2 40.2015 1.2 42.5015 0.8Z" fill="#45586B"/>
<path fill-rule="evenodd" clip-rule="evenodd" d="M4.70077 2.3C4.80077 1.6 5.40077 0.9 6.20077 1C11.7008 1 17.2008 1 22.6008 1C23.2008 0.9 23.8008 1.2 24.1008 1.7C24.5008 2.4 24.2008 3.2 24.1008 3.9C23.9008 4.9 24.0008 6.2 22.8008 6.6C18.8008 6.7 14.8008 6.6 10.8008 6.7C10.4008 9.2 10.1008 11.7 9.70077 14.2C9.70077 14.3 9.70077 14.5 9.70077 14.6C12.6008 14.6 15.6008 14.6 18.5008 14.6C19.3008 14.5 20.2008 15.3 20.1008 16.1C20.0008 17 19.8008 17.8 19.7008 18.7C19.6008 19.3 19.1008 19.8 18.5008 20C15.2008 20.1 11.9008 19.9 8.70077 20.1C8.20077 23.7 7.60077 27.3 7.00077 30.9C6.90077 31.6 6.30077 32.2 5.60077 32.3C4.20077 32.3 2.90077 32.3 1.50077 32.3C0.600768 32.3 -0.099232 31.3 0.100768 30.5C1.70077 21.1 3.20077 11.7 4.70077 2.3Z" fill="#45586B"/>
<path fill-rule="evenodd" clip-rule="evenodd" d="M28.9005 1C30.1005 0.9 31.4005 1 32.6005 0.9C33.4005 0.8 34.1005 1.5 34.2005 2.2C34.2005 2.8 34.0005 3.4 33.9005 4C32.9005 10.4 31.9005 16.8 30.9005 23.1C30.7005 24.1 30.5005 25.2 30.8005 26.3C31.2005 27.3 32.7005 26.9 33.1005 28C33.4005 28.9 33.1005 29.8 33.0005 30.7C32.9005 31.9 31.6005 32.2 30.7005 32.4C28.7005 32.8 26.2005 32.5 24.8005 30.8C23.7005 29.6 23.7005 27.9 23.9005 26.3C25.2005 18.2 26.4005 10.1 27.7005 2C27.9005 1.7 28.3005 1.1 28.9005 1Z" fill="#45586B"/>
<path fill-rule="evenodd" clip-rule="evenodd" d="M76.2006 2.3C76.3006 1.6 76.9006 1 77.6006 1H81.2006C82.1006 1 82.8006 2 82.6006 2.8C81.9006 8 81.0006 13.3 80.2006 18.6C81.5006 18.4 82.9006 18.2 83.8006 17.2C85.3006 15.5 86.5006 13.6 87.4006 11.6C87.7006 10.8 87.9006 9.7 88.9006 9.5C90.3006 9.4 91.7006 9.5 93.0006 9.5C93.9006 9.5 94.6006 10.5 94.3006 11.4C93.9006 12.7 93.3006 13.8 92.7006 14.9C91.3006 17.1 89.8006 19.4 87.8006 21.1C88.7006 23.7 89.8006 26.3 90.8006 28.9C91.1006 29.8 91.8006 30.8 91.1006 31.6C90.4006 32.6 89.0006 32.1 87.9006 32.2C86.8006 32.1 85.3006 32.6 84.7006 31.4C83.6006 28.8 82.7006 26.1 81.5006 23.5C80.8006 23.5 80.1006 23.6 79.5006 23.5C79.4006 23.6 79.3006 23.8 79.3006 23.9C78.9006 26.3 78.6006 28.7 78.2006 31C78.1006 31.6 77.6006 32.1 77.0006 32.1C75.7006 32.2 74.4006 32.1 73.2006 32.1C72.6006 32.1 72.1006 31.7 71.9006 31.3C71.6006 30.8 71.8006 30.3 71.9006 29.8C73.3006 20.7 74.7006 11.5 76.2006 2.3Z" fill="#45586B"/>
<path fill-rule="evenodd" clip-rule="evenodd" d="M142.401 4.9C142.601 4.2 143.201 3.8 143.901 3.8C144.801 3.8 145.801 3.8 146.801 3.8C147.601 3.8 148.201 4.6 148.101 5.4C147.901 6.8 147.601 8.1 147.501 9.5C148.401 9.5 149.401 9.5 150.301 9.5C151.101 9.5 151.801 10.4 151.701 11.2C151.601 12 151.401 12.7 151.301 13.4C151.201 14 150.601 14.5 150.101 14.6C149.001 14.7 147.901 14.5 146.701 14.7C146.201 17.9 145.701 21.1 145.201 24.3C145.101 25 145.101 25.9 145.501 26.5C146.201 27.3 147.301 27 148.201 27.1C148.901 27.3 149.401 28.1 149.301 28.8C149.201 29.6 149.101 30.4 148.901 31.2C148.601 32.1 147.601 32.2 146.801 32.5C144.601 33.1 142.101 33.1 140.201 31.8C138.401 30.6 138.101 28.2 138.301 26.2C138.801 22.3 139.601 18.5 140.001 14.6C139.301 14.6 138.501 14.7 138.001 14.1C137.401 13.5 137.701 12.6 137.801 11.9C137.901 11.1 137.901 10.1 138.801 9.7C139.501 9.4 140.301 9.6 141.001 9.5C141.501 7.9 141.901 6.4 142.401 4.9Z" fill="#45586B"/>
<path fill-rule="evenodd" clip-rule="evenodd" d="M128.9 12.6C130.4 11.1 132.2 9.8 134.3 9.2C135.2 8.8 136.4 9.6 136.3 10.6C136.1 11.9 135.8 13.2 135.6 14.5C135.5 15.1 135 15.7 134.3 15.8C132 16.2 129.9 17.6 128.3 19.3C127.9 19.8 127.3 20.3 127.2 21C126.7 24.3 126.2 27.7 125.7 31C125.6 31.7 125 32.4 124.3 32.4H120.7C119.9 32.5 119.1 31.6 119.2 30.8C120.3 24.2 121.3 17.6 122.3 11C122.4 10.3 122.8 9.7 123.5 9.6C124.4 9.5 125.3 9.6 126.2 9.6C126.9 9.6 127.6 10.2 127.6 11C127.6 12 127.5 13.1 127.5 14.1C128.1 13.6 128.4 13.1 128.9 12.6Z" fill="#45586B"/>
<path fill-rule="evenodd" clip-rule="evenodd" d="M39.9005 9.6C41.2005 9.3 42.5005 9.5 43.8005 9.5C44.5005 9.4 45.3005 9.9 45.4005 10.6C45.5005 11.3 45.3005 11.9 45.2005 12.5C44.2005 18.6 43.3005 24.7 42.3005 30.9C42.2005 31.6 41.6005 32.3 40.9005 32.3C39.6005 32.3 38.3005 32.3 37.0005 32.3C36.2005 32.2 35.6005 31.3 35.8005 30.5C36.8005 24.1 37.8005 17.8 38.8005 11.4C39.0005 10.7 39.2005 9.9 39.9005 9.6Z" fill="#45586B"/>
<path fill-rule="evenodd" clip-rule="evenodd" d="M117 9.9C113.4 9.2 109.8 8.8 106.2 9.1C103 9.5 99.8004 11 97.8004 13.6C95.0004 17.1 94.1004 21.8 94.7004 26.1C95.1004 28.2 95.9004 30.3 97.6004 31.6C99.2004 32.8 101.3 33 103.2 32.7C105.9 32.2 108.1 30.5 110 28.6C110.1 29.4 109.9 30.2 110 31C110 31.7 110.7 32.4 111.4 32.4H113.8C114.5 32.4 115.1 31.7 115.2 31C116.2 24.5 117.2 18.1 118.2 11.7C118.4 10.8 117.8 10 117 9.9ZM110.3 21.1C109.4 22.9 108 24.5 106.5 25.9C105.6 26.6 104.5 27.3 103.4 27.1C102.2 26.8 101.7 25.7 101.5 24.7C100.9 22 101.4 19.1 102.9 16.8C103.6 15.7 104.6 14.9 105.9 14.6C107.6 14.2 109.5 14.4 111.2 14.9L111.3 15C111 17 110.6 19.1 110.3 21.1Z" fill="#45586B"/>
<path fill-rule="evenodd" clip-rule="evenodd" d="M70.2013 17.6C70.2013 15.2 69.5013 12.7 67.9013 10.9C66.7013 9.6 65.0013 9 63.4013 9C60.6013 8.9 58.0013 10.3 56.0013 12.1C55.6013 12.5 55.2013 13 54.7013 13.3C54.7013 12.5 54.8013 11.7 54.8013 10.9C54.8013 10.1 54.1013 9.5 53.4013 9.5H51.0013C50.2013 9.5 49.6013 10.2 49.6013 10.9C48.1013 20.4 46.6013 29.9 45.1013 39.5C44.9013 40.4 45.7013 41.3 46.6013 41.3C47.9013 41.3 49.3013 41.4 50.6013 41.2C51.6013 40.9 51.6013 39.7 51.8013 38.8C52.2013 36.7 52.4013 34.6 52.7013 32.5C57.4013 33.4 62.8013 32.8 66.3013 29.2C69.0013 26.1 70.4013 21.8 70.2013 17.6ZM63.6013 20C63.4013 22.2 62.7013 24.4 61.2013 26C59.2013 27.9 56.2013 27.6 53.8013 27C53.7013 26.9 53.7013 26.8 53.6013 26.7C54.0013 24.6 54.2013 22.5 54.6013 20.5C55.9013 18.3 57.6013 16.1 59.9013 14.9C60.8013 14.5 61.9013 14.6 62.6013 15.4C63.6013 16.6 63.7013 18.4 63.6013 20Z" fill="#45586B"/>
</svg>
