<svg width="80" height="80" viewBox="0 0 80 80" fill="none" xmlns="http://www.w3.org/2000/svg">
<g clip-path="url(#clip0_7017_5840)">
<path d="M34.9218 -0.025178C35.1059 -0.0263416 35.1059 -0.0263416 35.2937 -0.0275288C35.7015 -0.0298193 36.1093 -0.0308772 36.5171 -0.0317392C36.7995 -0.0326374 37.0819 -0.0335371 37.3643 -0.0344381C37.9572 -0.036082 38.5502 -0.0369938 39.1431 -0.0375376C39.9038 -0.0383948 40.6644 -0.0421488 41.4251 -0.0465957C42.0087 -0.0495023 42.5923 -0.0503192 43.1759 -0.0505588C43.4564 -0.0510327 43.7369 -0.0522903 44.0173 -0.0543377C44.4094 -0.0569955 44.8014 -0.0567116 45.1935 -0.0556955C45.3099 -0.0571353 45.4263 -0.0585752 45.5462 -0.0600586C46.3316 -0.0536663 46.3316 -0.0536663 46.7096 0.218932C47.3939 1.25397 47.2982 2.91892 47.4111 4.12418C47.4411 4.4424 47.4728 4.7604 47.5046 5.07843C47.619 6.253 47.6867 7.41335 47.656 8.59375C47.8723 8.63967 47.8723 8.63967 48.093 8.68652C50.8647 9.30871 53.8305 10.3885 56.1918 11.9989C56.5515 12.2189 56.5515 12.2189 56.9559 12.1783C57.4364 11.996 57.7061 11.7528 58.0759 11.3965C58.71 10.8026 59.3604 10.2534 60.0431 9.7168C60.6416 9.23594 61.223 8.7354 61.802 8.23128C62.8506 7.33039 62.8506 7.33039 63.6376 7.36874C64.3337 7.52603 64.5844 7.75044 65.0836 8.25367C65.1625 8.33194 65.2414 8.4102 65.3227 8.49084C65.5813 8.74856 65.8365 9.00947 66.0917 9.27063C66.2713 9.45125 66.4512 9.6317 66.6312 9.81196C67.0073 10.1895 67.3819 10.5685 67.7552 10.9488C68.2335 11.4359 68.7144 11.9203 69.1964 12.4037C69.5675 12.776 69.9376 13.1492 70.3075 13.5228C70.4845 13.7017 70.6618 13.8804 70.8392 14.059C71.0868 14.3087 71.3333 14.5595 71.5795 14.8107C71.79 15.0244 71.79 15.0244 72.0048 15.2424C72.4793 15.7784 72.6596 16.055 72.6462 16.7749C72.4751 17.4396 72.1739 17.8296 71.7185 18.3203C71.5605 18.4984 71.4026 18.6766 71.2449 18.855C71.1661 18.9427 71.0874 19.0304 71.0062 19.1208C70.6854 19.4829 70.3817 19.8579 70.0779 20.2344C69.2842 21.2095 68.4705 22.1673 67.656 23.125C67.7335 23.267 67.8111 23.409 67.891 23.5553C68.9284 25.4679 69.8702 27.3793 70.5954 29.4336C70.6408 29.5617 70.6861 29.6899 70.7328 29.8219C71.0183 30.6542 71.2289 31.4818 71.406 32.3437C71.5031 32.3508 71.6001 32.3578 71.7001 32.365C73.6518 32.5082 75.602 32.6699 77.5486 32.8711C77.7217 32.887 77.8948 32.9028 78.0731 32.9192C78.2346 32.9368 78.396 32.9543 78.5624 32.9724C78.7044 32.9868 78.8465 33.0012 78.9929 33.016C79.5004 33.1609 79.677 33.3311 79.9998 33.75C80.0614 34.174 80.0853 34.5348 80.0806 34.9585C80.0823 35.14 80.0823 35.14 80.0839 35.3252C80.0867 35.7247 80.0849 36.124 80.0828 36.5234C80.0832 36.8013 80.0838 37.0792 80.0846 37.357C80.0855 37.9392 80.0842 38.5213 80.0812 39.1034C80.0777 39.8495 80.0797 40.5955 80.0835 41.3417C80.0857 41.9154 80.085 42.489 80.0834 43.0628C80.083 43.3379 80.0835 43.613 80.0849 43.8881C80.0865 44.2726 80.0841 44.657 80.0806 45.0415C80.0819 45.1552 80.0832 45.2688 80.0845 45.3859C80.0755 45.9194 80.0364 46.2022 79.7075 46.6309C79.2982 46.9311 79.0171 46.9839 78.5141 47.0386C78.347 47.0577 78.1798 47.0768 78.0076 47.0966C77.8335 47.1137 77.6595 47.1308 77.4802 47.1484C77.3098 47.168 77.1394 47.1875 76.9639 47.2076C75.9409 47.319 74.9346 47.3698 73.906 47.3437C73.9739 47.4187 74.0417 47.4937 74.1116 47.5709C77.2959 51.1127 79.291 55.1704 79.531 60C79.5407 60.1752 79.5407 60.1752 79.5505 60.354C79.6768 64.9952 77.9604 69.686 74.8435 73.125C74.6365 73.354 74.6365 73.354 74.4254 73.5876C72.0143 76.1657 68.868 77.8742 65.4685 78.75C65.1863 78.8249 65.1863 78.8249 64.8984 78.9014C59.9885 80.0131 54.8493 78.8971 50.6247 76.25C49.5495 75.5084 48.5749 74.6782 47.656 73.75C47.6325 73.9924 47.6325 73.9924 47.6085 74.2396C47.5495 74.8412 47.4869 75.4424 47.4233 76.0436C47.3963 76.3034 47.3702 76.5633 47.3452 76.8233C47.3089 77.1979 47.2692 77.572 47.2287 77.9462C47.2183 78.0618 47.2079 78.1773 47.1971 78.2964C47.1111 79.051 46.9593 79.4777 46.406 80C45.966 80.0773 45.6202 80.104 45.1807 80.0961C45.0579 80.097 44.9351 80.0979 44.8086 80.0987C44.4033 80.1006 43.9982 80.0968 43.5929 80.0928C43.3111 80.0925 43.0294 80.0925 42.7477 80.0928C42.1575 80.0925 41.5674 80.0896 40.9773 80.0847C40.2203 80.0785 39.4634 80.0778 38.7064 80.079C38.1248 80.0794 37.5432 80.0776 36.9616 80.0749C36.6824 80.0738 36.4032 80.0733 36.1241 80.0734C35.7343 80.0732 35.3446 80.0698 34.9548 80.0656C34.8392 80.0661 34.7235 80.0665 34.6043 80.067C33.8265 80.054 33.8265 80.054 33.4466 79.7867C33.2053 79.4145 33.1694 79.0794 33.1113 78.6407C33.087 78.4592 33.0627 78.2776 33.0376 78.0906C32.9306 77.1765 32.8313 76.2621 32.7446 75.346C32.7144 75.0268 32.6828 74.7078 32.6511 74.3887C32.5542 73.3919 32.4715 72.4083 32.4997 71.4062C32.2834 71.3603 32.2834 71.3603 32.0627 71.3135C29.42 70.7209 27.0118 69.6734 24.6563 68.3465C24.5263 68.2748 24.3964 68.2031 24.2624 68.1293C24.1481 68.0644 24.0338 67.9995 23.9161 67.9327C23.5247 67.7869 23.3534 67.8188 22.9685 67.9687C22.5882 68.2344 22.5882 68.2344 22.197 68.5742C22.0453 68.7013 21.8937 68.8284 21.7374 68.9593C21.5747 69.0977 21.4122 69.2363 21.2497 69.375C20.5752 69.951 19.8996 70.5255 19.2185 71.0937C19.1284 71.1692 19.0384 71.2446 18.9456 71.3223C18.6773 71.5451 18.4064 71.7642 18.1345 71.9824C17.9752 72.1119 17.8159 72.2414 17.6517 72.3749C17.0961 72.7115 16.8856 72.8003 16.2497 72.6562C15.1581 71.8591 14.2296 70.8153 13.2767 69.8602C13.1143 69.6979 12.9518 69.5355 12.7893 69.3732C12.4514 69.0356 12.1138 68.6977 11.7764 68.3596C11.3437 67.9259 10.9102 67.493 10.4766 67.0603C10.1421 66.7264 9.80807 66.3921 9.47411 66.0578C9.3143 65.8979 9.15438 65.7381 8.99434 65.5784C8.77186 65.3563 8.54993 65.1337 8.32803 64.911C8.20169 64.7845 8.07534 64.6581 7.94517 64.5278C7.57512 64.1323 7.50779 63.9611 7.42833 63.4192C7.52823 62.5705 7.93029 62.1669 8.48607 61.543C8.58507 61.4275 8.68407 61.312 8.78606 61.193C8.98802 60.9577 9.19109 60.7234 9.39527 60.49C10.0766 59.7112 10.7398 58.9167 11.406 58.125C11.567 57.9392 11.567 57.9392 11.7313 57.7496C11.8205 57.6415 11.9098 57.5333 12.0017 57.4219C12.1144 57.2889 12.1144 57.2889 12.2294 57.1533C12.3806 56.8654 12.3806 56.8654 12.2434 56.5131C11.999 56.0306 11.7393 55.5594 11.4744 55.0879C10.3325 52.9936 8.74975 50.0903 8.74975 47.6562C8.60539 47.6457 8.60539 47.6457 8.45811 47.635C7.25254 47.5459 6.04799 47.4463 4.8435 47.3437C4.64913 47.3278 4.45476 47.3119 4.25451 47.2955C3.67893 47.2471 3.10404 47.1936 2.52904 47.1387C2.25824 47.1168 2.25824 47.1168 1.98198 47.0945C1.81345 47.0775 1.64493 47.0604 1.4713 47.0428C1.3227 47.0293 1.17409 47.0157 1.02098 47.0018C0.467032 46.8245 0.311762 46.5812 -0.000254529 46.0937C-0.0607331 45.6736 -0.0859507 45.3179 -0.0811261 44.8987C-0.0822213 44.7809 -0.0833165 44.6632 -0.0844449 44.5419C-0.0871874 44.1542 -0.0853774 43.7666 -0.0832623 43.3789C-0.0836836 43.1086 -0.0842903 42.8384 -0.0850743 42.5681C-0.0859948 42.0023 -0.0846594 41.4365 -0.0817365 40.8707C-0.0781756 40.1461 -0.0802252 39.4217 -0.0839681 38.6971C-0.0862287 38.1392 -0.0855079 37.5813 -0.0838894 37.0234C-0.0834731 36.7563 -0.083982 36.4892 -0.0854391 36.222C-0.0870302 35.8484 -0.0846019 35.475 -0.0811261 35.1013C-0.0823913 34.9914 -0.0836564 34.8815 -0.0849599 34.7682C-0.0721991 34.0261 0.0940857 33.6423 0.624745 33.125C1.02098 32.9982 1.02098 32.9982 1.4713 32.9572C1.63983 32.9401 1.80835 32.923 1.98198 32.9055C2.16251 32.8909 2.34304 32.8763 2.52904 32.8613C2.71431 32.8436 2.89957 32.826 3.09045 32.8077C3.67452 32.7532 4.25884 32.7041 4.8435 32.6562C5.03504 32.6399 5.22659 32.6236 5.42394 32.6068C6.53208 32.5126 7.64055 32.4246 8.74975 32.3437C8.77373 32.2035 8.77373 32.2035 8.79819 32.0603C8.98545 31.0412 9.26973 30.0921 9.62865 29.1211C9.6833 28.9721 9.73794 28.8231 9.79425 28.6696C10.4425 26.9423 11.2335 25.279 12.2471 23.7335C12.3735 23.4302 12.3735 23.4302 12.2654 23.0798C11.9412 22.494 11.5208 22.0289 11.074 21.5332C10.8888 21.3238 10.7039 21.1143 10.5192 20.9045C10.4296 20.8031 10.34 20.7016 10.2478 20.5971C9.82845 20.116 9.4318 19.6183 9.03966 19.115C8.83179 18.8533 8.61638 18.5975 8.39635 18.3459C7.54276 17.3538 7.54276 17.3538 7.35326 16.6211C7.7407 15.2263 9.28862 14.1256 10.2958 13.1207C10.4581 12.9583 10.6205 12.7958 10.7828 12.6333C11.1204 12.2954 11.4583 11.9578 11.7964 11.6204C12.2301 11.1877 12.663 10.7542 13.0957 10.3206C13.4296 9.98614 13.7639 9.65207 14.0982 9.31811C14.2581 9.15831 14.4179 8.99839 14.5776 8.83835C14.7997 8.61586 15.0223 8.39394 15.245 8.17203C15.3715 8.04569 15.4979 7.91935 15.6282 7.78917C16.0118 7.43027 16.1677 7.35153 16.6935 7.30163C17.2773 7.35143 17.4625 7.48156 17.9001 7.86133C18.0343 7.97533 18.1684 8.08933 18.3066 8.20679C18.4529 8.33448 18.5991 8.46218 18.7497 8.59375C18.9983 8.80494 19.2477 9.01509 19.4971 9.22527C19.7559 9.44363 20.014 9.66287 20.272 9.8822C21.0061 10.5046 21.7487 11.1169 22.4997 11.7187C22.6027 11.8122 22.7056 11.9057 22.8116 12.002C23.1203 12.2245 23.1203 12.2245 23.5154 12.1631C23.91 12.0299 24.1879 11.8746 24.531 11.6406C26.8179 10.2249 29.8225 8.96245 32.4997 8.59375C32.5056 8.44692 32.5114 8.30008 32.5174 8.1488C32.5866 6.61643 32.7033 5.08785 32.8415 3.5603C32.861 3.34245 32.8798 3.12453 32.8979 2.90656C32.924 2.5957 32.9529 2.28509 32.9819 1.97449C33.0062 1.70308 33.0062 1.70308 33.031 1.4262C33.2771 0.143585 33.7415 -0.0234165 34.9218 -0.025178ZM34.9997 17.5C34.8106 17.5471 34.6215 17.5943 34.4266 17.6428C28.2137 19.3095 23.1388 23.281 19.9119 28.8281C16.8534 34.272 16.326 40.6532 17.9994 46.6187C19.0535 50.0883 20.874 53.155 23.3298 55.8105C23.4215 55.9099 23.5132 56.0093 23.6076 56.1117C23.6958 56.2047 23.784 56.2976 23.8749 56.3934C23.9525 56.4752 24.0301 56.5571 24.11 56.6413C24.4332 56.9266 24.782 57.1312 25.156 57.3437C25.1566 57.2445 25.1571 57.1453 25.1577 57.043C25.1643 56.001 25.1752 54.9591 25.1884 53.9172C25.1928 53.5294 25.1961 53.1417 25.1983 52.7539C25.2017 52.1933 25.209 51.6329 25.217 51.0724C25.2173 50.8164 25.2173 50.8164 25.2176 50.5552C25.2546 48.5686 25.8396 46.9002 27.031 45.3125C27.1055 45.2116 27.18 45.1107 27.2568 45.0067C28.268 43.8341 30.2064 42.8967 31.7331 42.6849C31.883 42.6755 32.0329 42.666 32.1872 42.6562C32.3 42.649 32.4128 42.6418 32.529 42.6344C32.9262 42.6123 33.3228 42.5987 33.7204 42.5879C33.8494 42.5825 33.9784 42.577 34.1113 42.5714C34.7435 42.5673 35.0608 42.5876 35.5845 42.9651C36.0272 43.558 36.4032 44.171 36.7673 44.8145C36.8383 44.9376 36.9093 45.0608 36.9825 45.1877C37.156 45.4891 37.3284 45.7911 37.4997 46.0937C37.9149 46.0001 38.2312 45.8874 38.6228 45.7031C39.7483 45.2159 40.8791 45.2214 42.031 45.625C42.236 45.7331 42.4382 45.8468 42.6365 45.9668C42.7976 46.0603 42.9587 46.1537 43.1247 46.25C43.6645 46.0701 43.6975 45.9933 43.9646 45.5194C44.0315 45.4029 44.0983 45.2864 44.1672 45.1663C44.2357 45.0438 44.3042 44.9212 44.3747 44.7949C44.5111 44.5545 44.6478 44.3142 44.7849 44.0741C44.8449 43.9671 44.9049 43.8601 44.9668 43.7498C45.5118 42.8501 45.5118 42.8501 46.0935 42.6562C48.4088 42.5329 50.5296 42.749 52.4997 44.0625C53.2656 44.0095 53.916 43.8105 54.6287 43.5352C56.2833 42.9248 57.9971 42.5095 59.7641 42.4506C60.0451 42.4407 60.0451 42.4407 60.3318 42.4307C60.5251 42.4246 60.7185 42.4184 60.9177 42.4121C61.2132 42.402 61.2132 42.402 61.5146 42.3917C61.9992 42.3751 62.4839 42.3592 62.9685 42.3437C64.0308 37.4856 62.1859 31.7557 59.6256 27.663C59.2968 27.1775 58.9548 26.7117 58.5935 26.25C58.4851 26.1074 58.3768 25.9648 58.2651 25.8179C54.5114 21.0404 49.1201 17.9221 43.0963 17.095C42.0997 16.9885 41.1086 16.9782 40.1072 16.9824C40.0015 16.9827 39.8958 16.9829 39.787 16.9831C38.143 16.9896 36.5962 17.0917 34.9997 17.5Z" fill="#093963"/>
<path d="M35.4688 2.1875C38.5625 2.1875 41.6563 2.1875 44.8438 2.1875C45.1465 5.47852 45.1465 5.47852 45.2411 6.51127C45.2663 6.78409 45.2915 7.0569 45.3168 7.32971C45.3295 7.46919 45.3422 7.60866 45.3552 7.75236C45.4648 9.13027 45.4648 9.13027 45.7812 10.4688C46.1229 10.6142 46.1229 10.6142 46.543 10.7031C46.7795 10.7626 46.7795 10.7626 47.0209 10.8234C47.3092 10.892 47.5976 10.9602 47.8864 11.0272C50.6076 11.7043 53.3539 12.942 55.7129 14.4531C56.1519 14.7176 56.4479 14.8542 56.9531 14.9805C57.8315 14.7609 58.3925 14.1821 59.0625 13.5938C59.3385 13.3682 59.6152 13.1436 59.8926 12.9199C60.372 12.5285 60.8465 12.1327 61.3141 11.7273C61.4042 11.6496 61.4942 11.5719 61.587 11.4919C61.7618 11.3408 61.9358 11.1888 62.109 11.0359C62.5851 10.6248 63.0072 10.3734 63.5938 10.1562C64.1528 10.7114 64.7113 11.2671 65.2694 11.8233C65.4588 12.0119 65.6483 12.2004 65.8381 12.3888C67.708 14.2456 67.708 14.2456 68.5413 15.2249C68.8019 15.5294 69.079 15.8134 69.3652 16.0938C69.4569 16.184 69.5485 16.2742 69.6429 16.3672C69.7092 16.4316 69.7755 16.4961 69.8438 16.5625C69.6352 17.0127 69.3995 17.3771 69.0826 17.7582C68.9937 17.8657 68.9047 17.9732 68.8131 18.084C68.6707 18.2541 68.6707 18.2541 68.5254 18.4277C68.3795 18.6035 68.3795 18.6035 68.2307 18.7828C67.548 19.6039 66.8604 20.4209 66.1664 21.2326C65.9847 21.4456 65.8048 21.6603 65.625 21.875C65.5321 21.9739 65.4393 22.0728 65.3436 22.1747C65.0458 22.6918 65.0746 23.0011 65.1562 23.5938C65.4056 24.1728 65.7176 24.7099 66.0352 25.2539C66.2087 25.5619 66.3819 25.8701 66.5546 26.1786C66.6376 26.3261 66.7207 26.4736 66.8063 26.6256C67.7713 28.3655 68.4254 30.2141 68.9502 32.1289C68.9837 32.2493 69.0172 32.3697 69.0518 32.4937C69.1161 32.7272 69.1784 32.9613 69.2383 33.196C69.3568 33.6273 69.4607 33.9848 69.7651 34.3198C70.3596 34.6412 70.9532 34.656 71.6199 34.7083C71.7624 34.7211 71.905 34.7339 72.0519 34.7472C72.5071 34.7878 72.9625 34.8256 73.418 34.8633C73.8723 34.9026 74.3265 34.9426 74.7807 34.9828C75.0631 35.0075 75.3455 35.0317 75.628 35.0553C75.7573 35.0663 75.8866 35.0773 76.0198 35.0886C76.1887 35.1026 76.1887 35.1026 76.3611 35.1169C76.7951 35.1647 77.2256 35.2407 77.6562 35.3125C77.6562 38.4062 77.6562 41.5 77.6562 44.6875C73.75 45.1562 73.75 45.1562 72.1875 45.3125C71.9684 45.3415 71.7492 45.3705 71.5234 45.4004C70.7322 45.3921 70.1904 44.9981 69.5356 44.5868C68.2347 43.7991 66.7596 43.4062 65.3125 42.9688C65.3133 42.8477 65.3141 42.7266 65.315 42.6019C65.3625 34.5098 63.4936 27.8492 57.8125 21.875C55.4592 19.5538 52.5502 17.8558 49.5312 16.5625C49.3053 16.4619 49.3053 16.4619 49.0747 16.3593C44.479 14.4364 38.7073 14.2097 33.9062 15.4688C33.7928 15.498 33.6793 15.5273 33.5624 15.5574C29.3609 16.6761 25.6456 18.9045 22.5 21.875C22.3753 21.9896 22.2506 22.1042 22.1222 22.2223C18.915 25.2765 16.7939 29.358 15.625 33.5938C15.5734 33.7571 15.5219 33.9204 15.4688 34.0887C13.8338 40.3541 15.0561 47.3352 18.2999 52.8794C19.3047 54.5237 20.4155 56.1551 21.8469 57.4579C22.0312 57.6562 22.0312 57.6562 22.0312 57.9688C22.1702 58.0304 22.1702 58.0304 22.3119 58.0933C22.6713 58.2895 22.8874 58.4896 23.1653 58.7878C27.0466 62.7722 33.2157 65.0857 38.7305 65.2057C38.857 65.2089 38.9836 65.2122 39.114 65.2155C39.5135 65.2256 39.913 65.2349 40.3125 65.2441C40.5853 65.2509 40.8582 65.2577 41.131 65.2646C41.7956 65.2812 42.4603 65.2971 43.125 65.3125C43.1836 65.4897 43.2422 65.667 43.3026 65.8496C43.8389 67.4657 43.8389 67.4657 44.6611 68.9479C45.745 70.5549 45.5001 72.0991 45.234 73.9371C45.0656 75.2244 44.9612 76.5197 44.8438 77.8125C43.6241 77.8161 42.4045 77.8189 41.1848 77.8206C40.6185 77.8214 40.0522 77.8225 39.486 77.8243C38.9399 77.826 38.3938 77.8269 37.8478 77.8273C37.5371 77.8278 37.2265 77.829 36.9158 77.8302C36.6343 77.8302 36.6343 77.8302 36.3471 77.8302C36.1809 77.8306 36.0147 77.8309 35.8435 77.8313C35.4688 77.8125 35.4688 77.8125 35.3125 77.6562C35.2557 77.1739 35.208 76.6935 35.166 76.2097C35.1461 75.9902 35.1461 75.9902 35.1258 75.7663C35.0832 75.2961 35.0415 74.8258 35 74.3555C34.9583 73.8885 34.9164 73.4216 34.8742 72.9546C34.848 72.6637 34.8221 72.3728 34.7965 72.0818C34.7673 70.7384 34.7673 70.7384 34.2932 69.563C33.7343 69.2915 33.1619 69.1636 32.5586 69.0234C29.5738 68.2802 26.7578 67.0283 24.1791 65.3516C23.6265 65.1 23.2578 65.0827 22.6562 65.1562C22.2298 65.395 22.2298 65.395 21.8555 65.752C21.708 65.8805 21.5606 66.009 21.4087 66.1414C21.2934 66.2446 21.2934 66.2446 21.1758 66.3499C20.7706 66.7113 20.3557 67.0612 19.9414 67.4121C19.8162 67.5188 19.8162 67.5188 19.6885 67.6276C18.7769 68.4004 17.8288 69.1241 16.875 69.8438C16.3569 69.6178 16.0169 69.3362 15.6197 68.9364C15.4977 68.8144 15.3758 68.6924 15.2501 68.5668C15.12 68.4351 14.99 68.3034 14.856 68.1677C14.7216 68.0329 14.5872 67.8981 14.4488 67.7592C14.0198 67.3285 13.5919 66.8967 13.1641 66.4648C12.8734 66.1726 12.5827 65.8805 12.2919 65.5884C11.5792 64.8722 10.8674 64.1552 10.1562 63.4375C10.3054 63.238 10.4546 63.0386 10.6038 62.8392C10.7285 62.6726 10.7285 62.6726 10.8556 62.5026C11.5896 61.5314 12.382 60.605 13.1723 59.6794C14.3762 58.4376 14.3762 58.4376 15.0659 56.9287C14.9725 56.1879 14.6227 55.6919 14.2285 55.0684C13.2753 53.4951 12.5531 51.8632 11.875 50.1562C11.8077 49.9891 11.7405 49.8219 11.6711 49.6497C11.289 48.6513 11.0272 47.628 10.7703 46.5918C10.6467 46.0756 10.6467 46.0756 10.3125 45.625C9.9323 45.5092 9.9323 45.5092 9.47083 45.4602C9.19669 45.4237 9.19669 45.4237 8.91701 45.3865C8.70514 45.3614 8.49322 45.3367 8.28125 45.3125C8.1648 45.2991 8.04836 45.2857 7.92838 45.2719C7.01473 45.1684 6.10028 45.0739 5.18555 44.9805C4.24775 44.8838 3.30996 44.7871 2.34375 44.6875C2.34375 41.5938 2.34375 38.5 2.34375 35.3125C6.05469 34.9414 6.05469 34.9414 7.22397 34.8264C7.53002 34.7953 7.83606 34.764 8.14209 34.7327C8.30083 34.7174 8.45957 34.7021 8.62312 34.6864C8.77532 34.6706 8.92751 34.6547 9.08432 34.6384C9.21617 34.6253 9.34802 34.6121 9.48386 34.5985C9.87131 34.5261 10.1396 34.4361 10.4688 34.2188C10.7304 33.5703 10.9088 32.9191 11.0907 32.2443C11.9319 29.1868 13.2379 26.2369 15 23.5938C15.061 23.0605 15.0616 22.7609 14.787 22.2943C14.6865 22.1785 14.586 22.0627 14.4824 21.9434C14.3686 21.8094 14.2548 21.6755 14.1376 21.5375C13.9457 21.3178 13.9457 21.3178 13.75 21.0938C13.5362 20.8426 13.3234 20.5906 13.1106 20.3385C12.9638 20.1647 12.8167 19.9911 12.6694 19.8177C11.7762 18.7656 10.9227 17.7121 10.1562 16.5625C12.2703 14.4484 14.3844 12.3344 16.5625 10.1562C17.4409 10.5076 17.4409 10.5076 17.8381 10.86C17.9255 10.9364 18.0129 11.0128 18.1029 11.0915C18.2395 11.2135 18.2395 11.2135 18.3789 11.3379C18.5735 11.5081 18.7682 11.6782 18.963 11.8481C19.059 11.9322 19.155 12.0163 19.2539 12.103C19.7776 12.5577 20.3148 12.9954 20.8551 13.4302C21.117 13.6423 21.3755 13.8588 21.6302 14.0796C21.7497 14.1803 21.8691 14.281 21.9922 14.3848C22.0945 14.4736 22.1968 14.5624 22.3022 14.6539C22.8347 14.9394 23.1494 14.9262 23.75 14.8438C24.2853 14.6012 24.7751 14.2945 25.2734 13.9844C27.9773 12.3732 30.8374 11.3021 33.9001 10.5896C34.275 10.4827 34.275 10.4827 34.5312 10C34.8499 8.4611 34.946 6.86654 35.0879 5.30273C35.1173 4.97994 35.147 4.65717 35.1771 4.33443C35.204 4.04545 35.2304 3.75641 35.2567 3.46737C35.3125 2.96875 35.3125 2.96875 35.4688 2.1875Z" fill="#B3E7F2"/>
<path d="M65.7807 45.3126C65.9557 45.3711 66.1307 45.4295 66.3111 45.4896C70.6275 47.036 73.7012 50.0198 75.7807 54.0626C76.7335 56.1411 77.1144 58.2472 77.1004 60.5207C77.099 60.8491 77.1036 61.1772 77.1085 61.5056C77.1299 65.5828 75.1488 69.4617 72.3432 72.3439C69.0454 75.5475 64.8053 77.01 60.2731 76.9566C58.8138 76.9108 57.4731 76.7279 56.0932 76.2501C55.9834 76.2124 55.8736 76.1747 55.7605 76.1359C53.2442 75.2426 51.2725 73.887 49.3744 72.0314C49.2685 71.9333 49.1625 71.8352 49.0534 71.7342C46.3865 69.2155 44.9242 65.3515 44.7852 61.7427C44.7125 57.492 45.6335 53.7682 48.4369 50.4689C48.5439 50.3368 48.6508 50.2046 48.761 50.0685C52.7653 45.3315 59.889 43.2569 65.7807 45.3126Z" fill="#00ABE9"/>
<path d="M42.1635 18.2539C43.3613 18.9106 43.9415 19.796 44.3736 21.0939C44.5079 22.2047 44.4546 23.1686 44.0611 24.2189C44.1757 24.2564 44.2903 24.2938 44.4084 24.3324C45.8008 24.9708 46.6526 26.601 47.1861 27.9689C47.4853 28.9665 47.5487 29.8773 47.5511 30.9157C47.5527 31.1561 47.5527 31.1561 47.5543 31.4013C47.5558 31.739 47.5566 32.0768 47.5565 32.4145C47.5572 32.9262 47.5629 33.4375 47.5688 33.9491C47.5833 36.6166 47.255 38.7728 45.3697 40.8107C43.7047 42.3744 41.6982 43.0877 39.4298 43.0226C37.1775 42.7921 35.3668 41.8366 33.9061 40.1167C32.7289 38.5066 32.2935 36.889 32.2954 34.9287C32.2947 34.775 32.294 34.6214 32.2933 34.463C32.2925 34.1393 32.2924 33.8156 32.293 33.4919C32.2935 33.0013 32.2899 32.5108 32.2859 32.0201C32.2856 31.7038 32.2855 31.3876 32.2856 31.0713C32.2842 30.9269 32.2827 30.7825 32.2812 30.6337C32.2963 28.4688 33.0551 26.5678 34.5293 24.9873C34.9214 24.612 35.3101 24.3328 35.7799 24.0626C35.7551 23.9827 35.7303 23.9027 35.7048 23.8203C35.4069 22.4162 35.4708 20.9125 36.2486 19.6876C36.3517 19.5233 36.4549 19.3589 36.5611 19.1896C38.0199 17.6019 40.278 17.3675 42.1635 18.2539Z" fill="#083963"/>
<path d="M33.4738 44.8414C33.6138 44.8418 33.7538 44.8422 33.898 44.8425C34.0575 44.8432 34.0575 44.8432 34.2202 44.8439C34.2793 44.9503 34.3384 45.0567 34.3993 45.1663C34.6675 45.6485 34.937 46.13 35.2066 46.6115C35.2995 46.7789 35.3925 46.9464 35.4882 47.119C35.5784 47.2796 35.6685 47.4402 35.7614 47.6057C35.844 47.7538 35.9267 47.9019 36.0118 48.0545C36.2263 48.3973 36.4038 48.6565 36.7202 48.9064C37.5522 48.9418 38.0342 48.6317 38.7319 48.1935C39.9322 47.4784 39.9322 47.4784 40.6967 47.5343C41.3737 47.7417 41.9821 48.1008 42.581 48.4752C42.676 48.5323 42.771 48.5894 42.8689 48.6482C42.9524 48.7014 43.0359 48.7546 43.122 48.8094C43.6421 48.9686 44.0135 48.8915 44.5327 48.7501C44.8646 48.3758 44.8646 48.3758 45.0863 47.8804C45.1801 47.7047 45.2738 47.5289 45.3704 47.3479C45.5144 47.0679 45.6558 46.7872 45.7938 46.5042C46.0974 45.8903 46.3982 45.3374 46.8765 44.8439C48.0292 44.5209 49.2227 44.907 50.314 45.3126C50.314 45.4673 50.314 45.622 50.314 45.7814C50.0081 46.07 49.7045 46.3308 49.3765 46.5919C49.188 46.7474 48.9998 46.9033 48.8119 47.0595C48.7203 47.1353 48.6288 47.2112 48.5344 47.2894C45.1659 50.1096 43.19 54.4841 42.6937 58.7826C42.5792 60.1728 42.6229 61.5758 42.6577 62.9689C37.7737 63.5763 32.8747 62.6228 28.5952 60.1564C28.5028 60.1171 28.4103 60.0778 28.315 60.0373C27.9569 59.8503 27.7494 59.6967 27.5015 59.3751C27.3418 58.6499 27.3665 57.9278 27.3837 57.1895C27.3849 56.9729 27.3857 56.7563 27.3861 56.5397C27.388 56.0861 27.3935 55.6327 27.4018 55.1792C27.4124 54.6007 27.4169 54.0225 27.4191 53.444C27.4215 52.8891 27.4269 52.3342 27.4325 51.7793C27.4337 51.6226 27.4337 51.6226 27.435 51.4627C27.4539 49.5283 27.6298 47.8258 29.0762 46.3985C30.424 45.298 31.7372 44.8358 33.4738 44.8414Z" fill="#093963"/>
<path d="M37.814 31.25C38.488 31.4632 39.123 31.7213 39.7671 32.0117C41.5066 32.772 43.2757 33.1999 45.1578 33.4375C45.1762 33.929 45.1871 34.4204 45.1968 34.9121C45.2021 35.0494 45.2073 35.1866 45.2127 35.3281C45.2352 36.8503 44.644 38.119 43.5953 39.2188C43.1497 39.5781 42.686 39.8734 42.189 40.1562C42.0247 40.2529 41.8603 40.3496 41.691 40.4492C40.2151 40.8847 38.8219 40.7316 37.4423 40.0739C36.0848 39.3111 35.3367 38.2273 34.7867 36.7773C34.7459 36.5508 34.7151 36.3224 34.689 36.0938C34.6616 35.8974 34.6342 35.701 34.606 35.4987C34.5396 34.822 34.5361 34.2612 34.689 33.5938C35.2484 33.0539 35.8586 32.805 36.564 32.5C36.7245 32.3481 36.8823 32.1931 37.0328 32.0312C37.1359 32.0312 37.239 32.0312 37.3453 32.0312C37.3936 31.9313 37.4419 31.8314 37.4918 31.7285C37.6578 31.4062 37.6578 31.4062 37.814 31.25Z" fill="#B3E7F2"/>
<path d="M61.3004 50.5762C61.8766 50.625 61.8766 50.625 62.2202 50.8786C62.5852 51.3603 62.5799 51.64 62.58 52.2409C62.5814 52.4416 62.5829 52.6424 62.5844 52.8493C62.5828 53.0679 62.581 53.2866 62.5791 53.5052C62.5791 53.7302 62.5793 53.9551 62.5798 54.1801C62.58 54.6512 62.578 55.1223 62.5745 55.5935C62.57 56.1963 62.5704 56.799 62.5724 57.4018C62.5735 57.8663 62.5723 58.3308 62.5704 58.7952C62.5697 59.0174 62.5696 59.2397 62.5702 59.4619C62.5707 59.773 62.5678 60.0841 62.5647 60.3952C62.5638 60.572 62.563 60.7488 62.5621 60.9309C62.4649 61.694 62.0758 62.1807 61.5523 62.7208C61.4589 62.8177 61.3655 62.9147 61.2692 63.0145C61.1691 63.1164 61.069 63.2184 60.9659 63.3234C60.8617 63.4298 60.7574 63.5362 60.65 63.6458C60.4298 63.8696 60.2091 64.093 59.9881 64.3159C59.6508 64.6574 59.3175 65.0024 58.9841 65.3476C58.7693 65.565 58.5542 65.7822 58.339 65.9991C58.2401 66.1026 58.1413 66.2061 58.0395 66.3128C57.539 66.8083 57.3116 67.0147 56.5941 67.1116C56.0953 67.0312 56.0953 67.0312 55.7144 66.7773C55.3922 66.2875 55.3801 66.0471 55.4703 65.4688C55.7967 65.1738 56.092 64.9537 56.456 64.7156C58.2118 63.4244 59.8772 62.0842 60.224 59.8195C60.4484 57.5486 60.3597 55.2371 60.1966 52.9646C60.1852 52.7914 60.1739 52.6183 60.1622 52.4399C60.1502 52.2887 60.1383 52.1376 60.126 51.9819C60.1863 51.1869 60.5121 50.6505 61.3004 50.5762Z" fill="#073A66"/>
<path d="M42.2754 25.7029C43.6779 26.5225 44.6268 27.5682 45.1172 29.1209C45.1798 29.7779 45.1678 30.4342 45.1562 31.0936C42.6635 31.293 39.6176 29.9728 37.7276 28.3918C37.2222 27.9517 36.7332 27.4955 36.25 27.0311C36.4655 26.5117 36.6764 26.2815 37.1582 25.9959C37.3144 25.901 37.3144 25.901 37.4738 25.8043C38.9271 25.0344 40.7809 25.0014 42.2754 25.7029Z" fill="black"/>
<path d="M40.6251 20.1561C41.2698 20.4283 41.6771 20.8026 42.0313 21.4061C42.1052 21.998 42.1458 22.5834 41.8751 23.1248C41.2533 23.1293 40.6316 23.1321 40.0098 23.1346C39.7435 23.1365 39.7435 23.1365 39.4718 23.1386C39.3031 23.1391 39.1345 23.1396 38.9607 23.1401C38.7262 23.1413 38.7262 23.1413 38.4871 23.1426C38.1251 23.1248 38.1251 23.1248 37.9688 22.9686C37.8674 22.2986 37.8191 21.6636 38.1672 21.0649C38.9189 20.1852 39.482 20.0469 40.6251 20.1561Z" fill="#D1DEF2"/>
<path d="M34.8421 28.9062C35.4351 29.1392 35.7188 29.4933 36.0921 30C35.8875 30.1828 35.6823 30.3649 35.4769 30.5469C35.3627 30.6484 35.2485 30.7499 35.1308 30.8545C34.8421 31.0938 34.8421 31.0938 34.6859 31.0938C34.6571 29.6234 34.6571 29.6234 34.8421 28.9062Z" fill="black"/>
</g>
<defs>
<clipPath id="clip0_7017_5840">
<rect width="80" height="80" fill="white"/>
</clipPath>
</defs>
</svg>
