<svg width="101" height="100" viewBox="0 0 101 100" fill="none" xmlns="http://www.w3.org/2000/svg">
<path d="M50.3668 3.05176C50.5553 3.0518 50.7438 3.05184 50.9379 3.05188C54.0447 3.05866 57.0243 3.25657 60.0714 3.90625C60.3303 3.95955 60.3303 3.95955 60.5944 4.01392C68.6461 5.7139 76.1276 9.63199 82.1417 15.2344C82.4135 15.4714 82.6861 15.7074 82.9596 15.9424C84.2279 17.0534 85.3205 18.2402 86.3768 19.5557C86.6681 19.9172 86.9633 20.2756 87.2634 20.6299C89.3549 23.1087 90.9881 25.8468 92.4933 28.7109C92.5612 28.838 92.6291 28.9651 92.6991 29.096C94.8805 33.2269 96.264 37.9789 96.9855 42.5781C97.0211 42.8038 97.0568 43.0295 97.0935 43.2621C97.4061 45.4632 97.4541 47.6447 97.4494 49.8657C97.4492 50.1487 97.4492 50.1487 97.449 50.4374C97.4369 55.1393 96.7845 59.5543 95.423 64.0625C95.374 64.2256 95.325 64.3887 95.2745 64.5568C93.3126 70.9269 89.8001 76.774 85.2667 81.6406C85.0298 81.9124 84.7937 82.185 84.5587 82.4585C83.4477 83.7268 82.2609 84.8194 80.9455 85.8757C80.5839 86.167 80.2255 86.4622 79.8712 86.7622C77.3924 88.8538 74.6543 90.487 71.7902 91.9922C71.6631 92.0601 71.536 92.128 71.4051 92.198C67.2742 94.3794 62.5222 95.7629 57.923 96.4844C57.6973 96.52 57.4716 96.5557 57.2391 96.5924C55.0379 96.905 52.8564 96.953 50.6354 96.9482C50.4467 96.9481 50.2581 96.948 50.0637 96.9479C46.9588 96.9399 43.9739 96.7593 40.9308 96.0938C40.7382 96.0519 40.5456 96.01 40.3472 95.9669C32.3114 94.1581 24.8937 90.3858 18.8605 84.7656C18.5887 84.5286 18.3161 84.2926 18.0426 84.0576C16.7732 82.9456 15.6793 81.7581 14.6231 80.4405C14.3407 80.0907 14.0535 79.7446 13.7595 79.4045C7.5787 72.1935 3.66634 61.9376 3.57957 52.4307C3.57766 52.2567 3.57575 52.0827 3.57378 51.9034C3.52551 46.3703 3.971 41.2628 5.57924 35.9375C5.65274 35.6928 5.65274 35.6928 5.72772 35.4432C8.33896 26.9647 13.8202 18.9509 20.8136 13.4766C21.006 13.3222 21.1983 13.1679 21.3965 13.0089C29.654 6.44216 39.858 3.03043 50.3668 3.05176Z" fill="#FED44A"/>
<path d="M50.3668 3.05176C50.5553 3.0518 50.7438 3.05184 50.9379 3.05188C54.0447 3.05866 57.0243 3.25657 60.0714 3.90625C60.3303 3.95955 60.3303 3.95955 60.5944 4.01392C68.6461 5.7139 76.1276 9.63199 82.1417 15.2344C82.4135 15.4714 82.6861 15.7074 82.9596 15.9424C84.2279 17.0534 85.3205 18.2402 86.3768 19.5557C86.6681 19.9172 86.9633 20.2756 87.2634 20.6299C89.3549 23.1087 90.9881 25.8468 92.4933 28.7109C92.5612 28.838 92.6291 28.9651 92.6991 29.096C94.8805 33.2269 96.264 37.9789 96.9855 42.5781C97.0211 42.8038 97.0568 43.0295 97.0935 43.2621C97.4061 45.4632 97.4541 47.6447 97.4494 49.8657C97.4492 50.1487 97.4492 50.1487 97.449 50.4374C97.4369 55.1393 96.7845 59.5543 95.423 64.0625C95.374 64.2256 95.325 64.3887 95.2745 64.5568C93.3126 70.9269 89.8001 76.774 85.2667 81.6406C85.0298 81.9124 84.7937 82.185 84.5587 82.4585C83.4477 83.7268 82.2609 84.8194 80.9455 85.8757C80.5839 86.167 80.2255 86.4622 79.8712 86.7622C77.3924 88.8538 74.6543 90.487 71.7902 91.9922C71.6631 92.0601 71.536 92.128 71.4051 92.198C67.2742 94.3794 62.5222 95.7629 57.923 96.4844C57.6973 96.52 57.4716 96.5557 57.2391 96.5924C55.0379 96.905 52.8564 96.953 50.6354 96.9482C50.4467 96.9481 50.2581 96.948 50.0637 96.9479C46.9588 96.9399 43.9739 96.7593 40.9308 96.0938C40.7382 96.0519 40.5456 96.01 40.3472 95.9669C32.3114 94.1581 24.8937 90.3858 18.8605 84.7656C18.5887 84.5286 18.3161 84.2926 18.0426 84.0576C16.7732 82.9456 15.6793 81.7581 14.6231 80.4405C14.3407 80.0907 14.0535 79.7446 13.7595 79.4045C7.5787 72.1935 3.66634 61.9376 3.57957 52.4307C3.57766 52.2567 3.57575 52.0827 3.57378 51.9034C3.52551 46.3703 3.971 41.2628 5.57924 35.9375C5.65274 35.6928 5.65274 35.6928 5.72772 35.4432C8.33896 26.9647 13.8202 18.9509 20.8136 13.4766C21.006 13.3222 21.1983 13.1679 21.3965 13.0089C29.654 6.44216 39.858 3.03043 50.3668 3.05176ZM40.7355 12.3047C40.5919 12.3339 40.4484 12.3631 40.3005 12.3933C31.8547 14.1349 24.4884 18.975 19.3006 25.8478C19.083 26.1359 18.8624 26.4219 18.6415 26.7075C16.7246 29.2454 15.2482 32.054 13.9777 34.9609C13.8429 35.2653 13.8429 35.2653 13.7053 35.5759C13.1524 36.9133 12.7636 38.289 12.3908 39.6851C12.3199 39.9474 12.3199 39.9474 12.2476 40.215C11.4446 43.334 11.1407 46.3455 11.1701 49.5605C11.171 49.7407 11.172 49.9208 11.173 50.1064C11.2355 59.9716 14.6585 68.9753 21.2042 76.3672C21.3596 76.5464 21.5149 76.7257 21.675 76.9104C22.5645 77.9235 23.4822 78.8339 24.5246 79.6875C24.6237 79.7705 24.7228 79.8535 24.8249 79.9391C33.1377 86.8939 43.4448 90.2448 54.2826 89.3628C59.148 88.879 63.7885 87.4886 68.0792 85.1563C68.2764 85.0528 68.4735 84.9493 68.6766 84.8427C71.5071 83.2873 73.9695 81.1394 76.2824 78.9063C76.4093 78.7894 76.5361 78.6726 76.6669 78.5522C77.8536 77.4328 78.8118 76.0983 79.798 74.8047C79.9355 74.6272 80.0729 74.4497 80.2146 74.2668C85.0314 67.8801 87.7577 59.7081 87.6761 51.7154C87.6715 51.2309 87.6721 50.7466 87.6734 50.2621C87.6688 47.422 87.3764 44.6962 86.695 41.9312C86.6184 41.6186 86.6184 41.6186 86.5403 41.2997C84.42 32.9175 79.4451 25.1994 72.5714 19.9219C72.3738 19.7698 72.1761 19.6177 71.9725 19.4611C69.0505 17.2693 65.8366 15.5328 62.4324 14.22C62.0677 14.0792 61.7053 13.9324 61.3432 13.7848C59.2356 12.967 57.0169 12.5165 54.798 12.1094C54.5955 12.0722 54.393 12.0349 54.1844 11.9966C52.3577 11.6974 50.5586 11.6524 48.7126 11.6571C48.2095 11.6577 47.7067 11.6531 47.2037 11.6482C44.9935 11.6398 42.8997 11.8618 40.7355 12.3047Z" fill="#FABD3D"/>
<path d="M38.9908 26.247C39.3768 26.2454 39.3768 26.2454 39.7707 26.2437C40.4745 26.241 41.1782 26.2443 41.882 26.2489C42.6196 26.2528 43.3573 26.2516 44.0949 26.2512C45.3336 26.2512 46.5721 26.2551 47.8107 26.2613C49.2413 26.2685 50.6718 26.2702 52.1023 26.2689C53.4803 26.2677 54.8583 26.2698 56.2364 26.2736C56.822 26.2752 57.4075 26.2757 57.9931 26.2754C58.8114 26.2752 59.6295 26.2799 60.4477 26.2852C60.69 26.2846 60.9323 26.284 61.182 26.2834C63.2475 26.3039 63.2475 26.3039 64.1724 26.9531C65.0846 27.964 65.2188 28.593 65.2031 29.9293C65.1267 30.6903 64.8843 31.0832 64.3677 31.6406C63.4199 32.3563 62.7484 32.6428 61.57 32.6363C61.3692 32.6356 61.1684 32.635 60.9615 32.6344C60.7522 32.6327 60.5428 32.6311 60.3271 32.6294C60.1155 32.6285 59.9039 32.6276 59.6859 32.6267C59.1631 32.6244 58.6404 32.6212 58.1177 32.6172C58.2282 32.8032 58.3387 32.9893 58.4526 33.181C58.5974 33.4284 58.7421 33.6758 58.8867 33.9233C58.996 34.1067 58.996 34.1067 59.1076 34.2937C59.5004 34.9696 59.7803 35.5381 59.8755 36.3281C60.0875 36.3213 60.2995 36.3145 60.5179 36.3075C60.8002 36.302 61.0825 36.2967 61.3647 36.2915C61.504 36.2866 61.6432 36.2817 61.7867 36.2766C62.7295 36.2636 63.3528 36.3986 64.1724 36.9141C65.0846 37.9249 65.2188 38.5539 65.2031 39.8903C65.1267 40.6512 64.8843 41.0442 64.3677 41.6016C63.4304 42.3093 62.7642 42.6055 61.5967 42.5903C61.3327 42.5877 61.3327 42.5877 61.0634 42.585C60.9292 42.5827 60.795 42.5805 60.6567 42.5781C60.6421 42.7111 60.6275 42.844 60.6125 42.981C60.0294 47.2798 57.8156 50.7764 54.3816 53.3958C51.5261 55.2721 48.586 55.8532 45.2271 56.0547C46.3208 57.2996 47.4562 58.4861 48.6343 59.6512C49.1612 60.1845 49.6483 60.7397 50.1343 61.3098C50.5949 61.8242 51.0834 62.3083 51.5747 62.793C52.3011 63.5096 52.9888 64.2443 53.6499 65.0215C54.1091 65.5333 54.5992 66.011 55.0903 66.4917C57.654 69.0306 57.654 69.0306 57.7881 70.6665C57.7755 71.5241 57.5023 71.9944 56.9458 72.6563C56.122 73.382 55.6457 73.6655 54.5532 73.6938C54.3709 73.7012 54.1887 73.7085 54.0009 73.716C52.5611 73.5062 51.6628 72.2714 50.7324 71.2524C50.4549 70.9527 50.1772 70.6531 49.8993 70.3537C49.767 70.2109 49.6347 70.0681 49.4984 69.9209C49.0576 69.4504 48.6043 68.9943 48.1445 68.5425C47.6449 68.0503 47.1723 67.5495 46.7163 67.0166C46.1524 66.3583 45.5508 65.7451 44.9341 65.1367C44.3296 64.5404 43.7389 63.9408 43.1885 63.2935C42.5994 62.6022 41.9664 61.9658 41.3208 61.3281C40.5593 60.5759 39.8348 59.8117 39.1411 58.9958C38.6831 58.4834 38.1964 58.0021 37.7075 57.5195C34.6762 54.5109 34.6762 54.5109 34.375 52.6367C34.5647 51.4566 35.056 50.6887 36.0171 49.9822C37.0312 49.4195 38.0916 49.5102 39.2227 49.5247C39.6962 49.5228 40.1698 49.5209 40.6433 49.519C41.3838 49.5206 42.1243 49.5239 42.8648 49.5283C43.5836 49.5311 44.3022 49.5281 45.0211 49.5247C45.2386 49.5279 45.4562 49.5311 45.6804 49.5344C48.1843 49.5188 50.2247 48.6162 52.0363 46.9261C53.2097 45.7125 53.8194 44.2042 54.2114 42.5781C53.9996 42.5803 53.7877 42.5825 53.5694 42.5847C51.5695 42.6045 49.5695 42.6191 47.5695 42.6287C46.5413 42.6338 45.5132 42.6407 44.4851 42.6518C43.4922 42.6624 42.4995 42.6682 41.5065 42.6708C41.1284 42.6726 40.7503 42.6761 40.3722 42.6814C39.8411 42.6885 39.3102 42.6894 38.7791 42.689C38.624 42.6925 38.4689 42.696 38.3091 42.6996C37.1428 42.689 36.3697 42.3281 35.4614 41.6016C34.8578 40.9376 34.6321 40.4441 34.5947 39.563C34.6467 38.5969 34.8257 37.7348 35.5444 37.033C36.4614 36.3322 37.1376 36.19 38.2766 36.2173C38.4349 36.2171 38.5933 36.217 38.7564 36.2168C39.2754 36.2175 39.794 36.2251 40.313 36.2328C40.6745 36.2346 41.036 36.236 41.3975 36.2369C42.3457 36.2407 43.2938 36.2502 44.242 36.2611C45.2108 36.2711 46.1796 36.2755 47.1485 36.2804C49.0472 36.2909 50.9457 36.3075 52.8442 36.3281C52.6509 36.0985 52.6509 36.0985 52.4536 35.8643C52.063 35.3516 52.063 35.3516 52.063 34.9609C51.9623 34.9166 51.8616 34.8723 51.7578 34.8267C51.2817 34.5703 51.2817 34.5703 50.6836 34.1064C49.0152 32.91 47.2509 32.6995 45.2477 32.7141C44.8987 32.7113 44.8987 32.7113 44.5428 32.7085C43.8065 32.7029 43.0703 32.7023 42.334 32.7026C41.5942 32.7019 40.8545 32.7001 40.1148 32.6947C39.6563 32.6914 39.1978 32.6908 38.7394 32.6933C37.4406 32.6849 36.4769 32.6194 35.4881 31.6887C35.3947 31.5721 35.3013 31.4555 35.2051 31.3354C35.1092 31.2184 35.0132 31.1013 34.9144 30.9807C34.3461 30.2124 34.3739 29.4407 34.4849 28.5156C35.5425 26.4003 36.8005 26.2236 38.9908 26.247Z" fill="#8F5F00"/>
<path d="M50.3657 3.05176C50.5542 3.0518 50.7427 3.05184 50.9368 3.05188C54.0436 3.05866 57.0232 3.25658 60.0703 3.90625C60.2429 3.94178 60.4155 3.97731 60.5933 4.01392C68.645 5.7139 76.1265 9.63199 82.1406 15.2344C82.4124 15.4714 82.685 15.7074 82.9585 15.9424C84.2268 17.0534 85.3194 18.2402 86.3757 19.5557C86.667 19.9172 86.9622 20.2756 87.2622 20.6299C89.3538 23.1087 90.987 25.8468 92.4922 28.7109C92.5601 28.838 92.628 28.9651 92.698 29.096C94.8794 33.2269 96.2629 37.9789 96.9844 42.5781C97.02 42.8038 97.0557 43.0295 97.0924 43.2621C97.405 45.4632 97.453 47.6447 97.4482 49.8657C97.4481 50.1487 97.4481 50.1487 97.4479 50.4374C97.4358 55.1393 96.7834 59.5543 95.4219 64.0625C95.3729 64.2256 95.3239 64.3887 95.2734 64.5568C93.3115 70.9269 89.799 76.774 85.2656 81.6406C85.0286 81.9124 84.7926 82.185 84.5576 82.4585C81.7881 85.6201 78.6421 87.4231 74.7188 88.8672C74.5721 88.9216 74.4255 88.976 74.2744 89.032C70.2191 90.5148 65.2219 92.1441 60.8516 91.9922C61.4109 91.6193 61.9287 91.4176 62.5602 91.2004C74.1383 87.1999 83.5045 79.3315 89.0033 68.3807C93.911 58.2006 94.318 46.385 90.71 35.7422C89.4236 32.1387 87.6768 28.7037 85.4609 25.5859C85.3149 25.379 85.1689 25.172 85.0184 24.9588C82.7817 21.8934 80.2415 19.1458 77.2578 16.7969C77.072 16.6446 76.8862 16.4922 76.6948 16.3353C68.4761 9.74562 57.3477 6.49993 46.8799 7.5325C45.7384 7.66285 44.6035 7.82914 43.4688 8.00781C43.3258 8.02868 43.1829 8.04955 43.0356 8.07104C38.7788 8.69631 34.8396 10.291 30.9688 12.1094C30.8164 12.1802 30.6641 12.2509 30.5072 12.3239C27.4762 13.7417 24.5916 15.4774 21.9844 17.5781C21.8324 17.7003 21.8324 17.7003 21.6774 17.825C20.0502 19.1427 18.5577 20.567 17.1016 22.0703C17.1016 21.2364 17.5542 20.74 18.0171 20.0806C18.113 19.9428 18.2089 19.805 18.3078 19.663C20.0035 17.2611 21.8996 15.0088 23.9375 12.8906C24.0456 12.7783 24.1536 12.6659 24.265 12.5502C25.526 11.2474 26.7885 9.99431 28.2367 8.89664C28.6213 8.61452 28.6213 8.61452 28.8875 8.30383C32.1088 5.35596 38.9064 4.17006 43.0781 3.51563C43.3038 3.47997 43.5295 3.44431 43.7621 3.40758C45.9633 3.09501 48.1447 3.04725 50.3657 3.05176Z" fill="#FED44A"/>
<path d="M28.4308 8.39844C28.6242 8.49512 28.6242 8.49512 28.8214 8.59375C28.6485 8.73852 28.4755 8.88329 28.2973 9.03244C25.5833 11.3296 22.9769 13.7698 20.8136 16.6016C20.6563 16.8015 20.4989 17.0014 20.3368 17.2073C19.091 18.7955 17.8249 20.4216 16.8189 22.1741C16.4574 22.7509 16.0313 23.2235 15.5768 23.7305C10.727 29.3371 7.69046 36.3596 6.28725 43.5913C6.25686 43.7475 6.22647 43.9036 6.19517 44.0645C5.79538 46.2836 5.74086 48.5195 5.75014 50.769C5.75108 51.0107 5.75202 51.2523 5.753 51.5012C5.77989 55.5727 6.25069 59.593 7.53236 63.4766C7.57526 63.6133 7.61815 63.7501 7.66235 63.891C9.51352 69.7742 12.5147 75.1031 16.6976 79.6364C17.0639 80.0358 17.4133 80.4446 17.7619 80.8594C22.6264 86.4157 29.8524 90.1158 36.8292 92.1875C36.9573 92.2257 37.0853 92.264 37.2172 92.3034C43.0985 94.0022 50.1287 94.198 56.1163 92.9932C56.2833 92.9617 56.4502 92.9302 56.6222 92.8978C57.4557 92.7351 58.2594 92.5409 59.0682 92.2813C60.1958 91.9318 61.3327 91.7899 62.5006 91.6382C68.1041 90.8476 73.4121 89.4241 78.5452 87.0178C79.0492 86.7918 79.4637 86.6433 79.9933 86.5234C79.2596 87.3034 78.4863 87.9137 77.6007 88.5132C77.4639 88.6061 77.3271 88.699 77.1862 88.7947C71.3559 92.7086 64.8786 95.3932 57.923 96.4844C57.6973 96.52 57.4716 96.5557 57.2391 96.5924C55.0379 96.905 52.8564 96.953 50.6354 96.9482C50.4467 96.9481 50.2581 96.948 50.0637 96.9479C46.9588 96.9399 43.9739 96.7593 40.9308 96.0938C40.7382 96.0519 40.5456 96.01 40.3472 95.9669C32.3114 94.1581 24.8937 90.3858 18.8605 84.7656C18.5887 84.5286 18.3161 84.2926 18.0426 84.0576C16.7732 82.9456 15.6793 81.7581 14.6231 80.4405C14.3407 80.0907 14.0535 79.7446 13.7595 79.4044C7.5787 72.1935 3.66634 61.9376 3.57957 52.4307C3.57766 52.2567 3.57575 52.0827 3.57378 51.9034C3.52551 46.3703 3.971 41.2628 5.57924 35.9375C5.65274 35.6928 5.65274 35.6928 5.72772 35.4432C8.33896 26.9647 13.8202 18.9509 20.8136 13.4766C21.006 13.3222 21.1983 13.1679 21.3965 13.0089C23.5722 11.2801 25.933 9.62544 28.4308 8.39844Z" fill="#FAC432"/>
<path d="M38.9908 26.247C39.3768 26.2454 39.3768 26.2454 39.7707 26.2437C40.4745 26.241 41.1782 26.2443 41.882 26.2489C42.6196 26.2528 43.3573 26.2516 44.0949 26.2512C45.3336 26.2512 46.5721 26.2551 47.8107 26.2613C49.2413 26.2685 50.6718 26.2702 52.1023 26.2689C53.4803 26.2677 54.8583 26.2698 56.2364 26.2736C56.822 26.2752 57.4075 26.2757 57.9931 26.2754C58.8114 26.2752 59.6295 26.2799 60.4477 26.2852C60.69 26.2846 60.9323 26.284 61.182 26.2834C63.2475 26.3039 63.2475 26.3039 64.1724 26.9531C65.0846 27.964 65.2188 28.593 65.2031 29.9293C65.1267 30.6903 64.8843 31.0832 64.3677 31.6406C63.4199 32.3563 62.7484 32.6428 61.57 32.6363C61.3692 32.6356 61.1684 32.635 60.9615 32.6344C60.7522 32.6327 60.5428 32.6311 60.3271 32.6294C60.1155 32.6285 59.9039 32.6276 59.6859 32.6267C59.1631 32.6244 58.6404 32.6212 58.1177 32.6172C58.2282 32.8032 58.3387 32.9893 58.4526 33.181C58.5974 33.4284 58.7421 33.6758 58.8867 33.9233C58.996 34.1067 58.996 34.1067 59.1076 34.2937C59.5004 34.9696 59.7803 35.5381 59.8755 36.3281C60.0875 36.3213 60.2995 36.3145 60.5179 36.3075C60.8002 36.302 61.0825 36.2967 61.3647 36.2915C61.504 36.2866 61.6432 36.2817 61.7867 36.2766C62.7295 36.2636 63.3528 36.3986 64.1724 36.9141C65.0846 37.9249 65.2188 38.5539 65.2031 39.8903C65.1267 40.6512 64.8843 41.0442 64.3677 41.6016C63.4304 42.3093 62.7642 42.6055 61.5967 42.5903C61.3327 42.5877 61.3327 42.5877 61.0634 42.585C60.9292 42.5827 60.795 42.5805 60.6567 42.5781C60.6421 42.7111 60.6275 42.844 60.6125 42.981C60.0294 47.2798 57.8156 50.7764 54.3816 53.3958C51.5261 55.2721 48.586 55.8532 45.2271 56.0547C46.3208 57.2996 47.4562 58.4861 48.6343 59.6512C49.1612 60.1845 49.6483 60.7397 50.1343 61.3098C50.5949 61.8242 51.0834 62.3083 51.5747 62.793C52.3011 63.5096 52.9888 64.2443 53.6499 65.0215C54.1091 65.5333 54.5992 66.011 55.0903 66.4917C57.654 69.0306 57.654 69.0306 57.7881 70.6665C57.7755 71.5241 57.5023 71.9944 56.9458 72.6563C56.122 73.382 55.6457 73.6655 54.5532 73.6938C54.3709 73.7012 54.1887 73.7085 54.0009 73.716C52.5611 73.5062 51.6628 72.2714 50.7324 71.2524C50.4549 70.9527 50.1772 70.6531 49.8993 70.3537C49.767 70.2109 49.6347 70.0681 49.4984 69.9209C49.0576 69.4504 48.6043 68.9943 48.1445 68.5425C47.6449 68.0503 47.1723 67.5495 46.7163 67.0166C46.1524 66.3583 45.5508 65.7451 44.9341 65.1367C44.3296 64.5404 43.7389 63.9408 43.1885 63.2935C42.5994 62.6022 41.9664 61.9658 41.3208 61.3281C40.5593 60.5759 39.8348 59.8117 39.1411 58.9958C38.6831 58.4834 38.1964 58.0021 37.7075 57.5195C34.6762 54.5109 34.6762 54.5109 34.375 52.6367C34.5647 51.4566 35.056 50.6887 36.0171 49.9822C37.0312 49.4195 38.0916 49.5102 39.2227 49.5247C39.6962 49.5228 40.1698 49.5209 40.6433 49.519C41.3838 49.5206 42.1243 49.5239 42.8648 49.5283C43.5836 49.5311 44.3022 49.5281 45.0211 49.5247C45.2386 49.5279 45.4562 49.5311 45.6804 49.5344C48.1843 49.5188 50.2247 48.6162 52.0363 46.9261C53.2097 45.7125 53.8194 44.2042 54.2114 42.5781C53.9996 42.5803 53.7877 42.5825 53.5694 42.5847C51.5695 42.6045 49.5695 42.6191 47.5695 42.6287C46.5413 42.6338 45.5132 42.6407 44.4851 42.6518C43.4922 42.6624 42.4995 42.6682 41.5065 42.6708C41.1284 42.6726 40.7503 42.6761 40.3722 42.6814C39.8411 42.6885 39.3102 42.6894 38.7791 42.689C38.624 42.6925 38.4689 42.696 38.3091 42.6996C37.1428 42.689 36.3697 42.3281 35.4614 41.6016C34.8578 40.9376 34.6321 40.4441 34.5947 39.563C34.6467 38.5969 34.8257 37.7348 35.5444 37.033C36.4614 36.3322 37.1376 36.19 38.2766 36.2173C38.4349 36.2171 38.5933 36.217 38.7564 36.2168C39.2754 36.2175 39.794 36.2251 40.313 36.2328C40.6745 36.2346 41.036 36.236 41.3975 36.2369C42.3457 36.2407 43.2938 36.2502 44.242 36.2611C45.2108 36.2711 46.1796 36.2755 47.1485 36.2804C49.0472 36.2909 50.9457 36.3075 52.8442 36.3281C52.6509 36.0985 52.6509 36.0985 52.4536 35.8643C52.063 35.3516 52.063 35.3516 52.063 34.9609C51.9623 34.9166 51.8616 34.8723 51.7578 34.8267C51.2817 34.5703 51.2817 34.5703 50.6836 34.1064C49.0152 32.91 47.2509 32.6995 45.2477 32.7141C44.8987 32.7113 44.8987 32.7113 44.5428 32.7085C43.8065 32.7029 43.0703 32.7023 42.334 32.7026C41.5942 32.7019 40.8545 32.7001 40.1148 32.6947C39.6563 32.6914 39.1978 32.6908 38.7394 32.6933C37.4406 32.6849 36.4769 32.6194 35.4881 31.6887C35.3947 31.5721 35.3013 31.4555 35.2051 31.3354C35.1092 31.2184 35.0132 31.1013 34.9144 30.9807C34.3461 30.2124 34.3739 29.4407 34.4849 28.5156C35.5425 26.4003 36.8005 26.2236 38.9908 26.247ZM35.8521 28.125C35.5144 28.8003 35.5611 29.5351 35.6567 30.2734C36.0071 30.834 36.2393 31.1506 36.8286 31.4453C37.1363 31.4665 37.4448 31.4758 37.7532 31.4792C37.9457 31.4818 38.1382 31.4845 38.3365 31.4872C38.6502 31.4903 38.6502 31.4903 38.9702 31.4934C39.4131 31.4998 39.856 31.5063 40.2988 31.5128C40.9969 31.522 41.695 31.5307 42.3932 31.5384C43.067 31.5463 43.7407 31.5563 44.4145 31.5666C44.6201 31.5683 44.8257 31.5699 45.0375 31.5716C48.0495 31.621 50.5709 32.355 52.8016 34.4861C53.2889 35.0202 53.6724 35.5801 54.0672 36.1855C54.2049 36.3954 54.3425 36.6053 54.4843 36.8216C54.6393 37.0607 54.6393 37.0607 54.7974 37.3047C54.5769 37.3029 54.3564 37.3012 54.1292 37.2994C52.0514 37.2836 49.9737 37.2719 47.8959 37.2642C46.8276 37.2601 45.7594 37.2546 44.6912 37.2457C43.6604 37.2373 42.6296 37.2326 41.5987 37.2306C41.2054 37.2291 40.8121 37.2263 40.4187 37.2221C39.8679 37.2164 39.3172 37.2156 38.7663 37.216C38.6037 37.2132 38.441 37.2104 38.2734 37.2075C37.5035 37.213 37.118 37.2456 36.4512 37.6642C35.9199 38.219 35.6731 38.5483 35.5713 39.3188C35.684 40.2685 35.9656 40.5432 36.6333 41.2109C37.2941 41.5413 38.0448 41.4314 38.7715 41.4284C39.0431 41.4285 39.0431 41.4285 39.3201 41.4285C39.9204 41.4284 40.5206 41.4268 41.1209 41.4253C41.5364 41.425 41.9518 41.4247 42.3672 41.4245C43.4622 41.4237 44.5571 41.4218 45.652 41.4197C46.7687 41.4177 47.8854 41.4168 49.0021 41.4158C51.1943 41.4137 53.3864 41.4104 55.5786 41.4062C55.4611 41.8687 55.3422 42.3307 55.2223 42.7925C55.1897 42.9217 55.157 43.0509 55.1234 43.184C54.4932 45.5959 53.3242 47.5557 51.2573 48.9746C48.3709 50.6399 45.5463 50.502 42.2974 50.5005C41.5861 50.5012 40.8748 50.503 40.1636 50.5084C39.7234 50.5117 39.2832 50.5123 38.843 50.5098C37.5756 50.5184 36.8525 50.6251 35.8887 51.4893C35.5079 52.2507 35.4341 52.8838 35.6567 53.7109C36.1616 54.4466 36.7728 55.0473 37.4146 55.6641C37.6834 55.9324 37.9519 56.2009 38.2202 56.4697C38.3486 56.5961 38.477 56.7225 38.6093 56.8527C38.9606 57.2098 39.2871 57.5778 39.6118 57.959C40.2145 58.6612 40.8583 59.3112 41.5161 59.9609C42.2776 60.7131 43.0021 61.4774 43.6958 62.2932C44.1538 62.8057 44.6404 63.2871 45.1294 63.7695C45.7339 64.3659 46.3246 64.9655 46.875 65.6128C47.4641 66.3041 48.0971 66.9404 48.7427 67.5781C49.3883 68.2158 50.0213 68.8522 50.6104 69.5435C51.1839 70.2164 51.7933 70.8461 52.417 71.4722C52.5109 71.567 52.6048 71.6618 52.7016 71.7595C53.3591 72.4142 53.6219 72.6399 54.5654 72.7173C55.2138 72.7114 55.3814 72.6574 55.957 72.29C56.4801 71.7511 56.6017 71.4129 56.6528 70.6787C56.6261 69.4741 56.0102 68.9771 55.188 68.1641C54.8541 67.8078 54.5236 67.4484 54.1929 67.0892C53.2254 66.0407 52.2427 65.0124 51.2253 64.0121C50.8819 63.6625 50.5627 63.2996 50.2441 62.9272C49.6758 62.2652 49.0705 61.6476 48.4497 61.0352C47.7242 60.3194 47.0375 59.5855 46.3768 58.8097C45.7363 58.095 45.0441 57.4309 44.3581 56.7604C43.8599 56.25 43.8599 56.25 43.4288 55.6969C43.3132 55.5571 43.1977 55.4174 43.0786 55.2734C42.9497 55.2734 42.8208 55.2734 42.688 55.2734C42.688 55.1445 42.688 55.0156 42.688 54.8828C42.8856 54.8859 42.8856 54.8859 43.0873 54.889C43.6947 54.8972 44.3022 54.9022 44.9097 54.9072C45.2205 54.9121 45.2205 54.9121 45.5376 54.9171C49.1854 54.9395 52.6519 53.7755 55.3169 51.2367C55.4677 51.0864 55.6185 50.9361 55.7739 50.7812C55.9106 50.6491 56.0473 50.5169 56.1882 50.3807C58.2636 48.2325 59.6932 45.1082 59.6985 42.0952C59.6924 41.8678 59.6864 41.6405 59.6802 41.4062C59.9085 41.4153 60.1369 41.4244 60.3722 41.4337C60.6745 41.441 60.9769 41.4482 61.2793 41.4551C61.4295 41.4616 61.5797 41.4682 61.7344 41.4749C62.5205 41.4884 62.9025 41.4683 63.5841 41.037C64.2343 40.3553 64.2484 39.8307 64.2426 38.9183C64.1312 38.2177 63.7422 37.9163 63.1958 37.5C62.7371 37.2706 62.4658 37.2822 61.9553 37.2856C61.7891 37.2862 61.6229 37.2869 61.4517 37.2875C61.278 37.2892 61.1043 37.2908 60.9253 37.2925C60.6624 37.2938 60.6624 37.2938 60.3943 37.2951C59.9609 37.2975 59.5276 37.3007 59.0942 37.3047C59.0769 37.141 59.0595 36.9774 59.0416 36.8088C58.8761 36.0246 58.5612 35.3875 58.1787 34.6924C58.1149 34.571 58.0511 34.4497 57.9853 34.3246C57.4648 33.3613 56.8391 32.5017 56.1646 31.6406C56.4675 31.6379 56.4675 31.6379 56.7766 31.6351C57.5283 31.6273 58.2799 31.6144 59.0315 31.6001C59.3564 31.5946 59.6813 31.5904 60.0062 31.5877C60.4742 31.5835 60.9419 31.5744 61.4098 31.5643C61.6265 31.564 61.6265 31.564 61.8476 31.5636C62.8045 31.5367 63.3051 31.3469 63.9771 30.6641C64.3162 29.9858 64.2899 29.2555 64.1724 28.5156C63.7463 27.9774 63.4162 27.6492 62.8052 27.3437C62.4634 27.3239 62.1209 27.3165 61.7786 27.315C61.4521 27.3129 61.4521 27.3129 61.1189 27.3108C60.879 27.3102 60.639 27.3097 60.3918 27.3092C60.1399 27.3079 59.8881 27.3066 59.6286 27.3053C58.9365 27.3019 58.2444 27.2998 57.5523 27.2982C57.12 27.2972 56.6876 27.296 56.2553 27.2948C54.9029 27.2911 53.5504 27.2883 52.1979 27.2867C50.6364 27.2848 49.0749 27.2796 47.5133 27.2717C46.3066 27.2658 45.0999 27.2629 43.8932 27.2623C43.1723 27.2618 42.4515 27.2601 41.7307 27.2552C40.9264 27.2498 40.1222 27.2506 39.3178 27.252C39.0791 27.2495 38.8403 27.247 38.5943 27.2444C37.0481 27.2233 37.0481 27.2233 35.8521 28.125Z" fill="#B58539"/>
<path d="M27.8436 13.4766C28.037 13.5732 28.037 13.5732 28.2343 13.6719C27.9714 13.8392 27.9714 13.8392 27.7033 14.0099C24.2737 16.2253 20.8445 18.8717 18.2733 22.0703C18.1114 22.2685 17.9495 22.4666 17.7828 22.6707C13.5019 27.9703 10.5107 33.9855 8.94715 40.625C8.90831 40.7869 8.86948 40.9487 8.82947 41.1155C8.16436 44.0957 8.04279 47.1162 8.05604 50.1587C8.05639 50.3296 8.05675 50.5005 8.05711 50.6765C8.06604 53.2255 8.15365 55.705 8.70301 58.2031C8.73653 58.3616 8.77004 58.5202 8.80457 58.6835C10.2015 65.1488 13.0127 71.17 17.1014 76.3672C17.2236 76.5293 17.3457 76.6915 17.4715 76.8585C19.8395 79.9038 22.7218 82.5764 25.8905 84.7656C26.0292 84.8623 26.1678 84.959 26.3107 85.0587C33.6255 90.0927 41.971 92.4764 50.7929 92.4561C50.9827 92.4558 51.1725 92.4556 51.368 92.4553C55.5982 92.4411 59.3113 91.8769 63.3353 90.538C63.5381 90.4708 63.7408 90.4036 63.9497 90.3343C64.1296 90.2728 64.3094 90.2113 64.4947 90.1479C64.953 90.0391 64.953 90.0391 65.5389 90.2344C62.465 91.5032 59.4237 92.5031 56.1639 93.1641C55.9645 93.2064 55.7651 93.2487 55.5597 93.2922C46.891 95.026 37.2423 93.4295 29.4061 89.4531C29.2033 89.3511 29.2033 89.3511 28.9964 89.247C25.587 87.5217 22.5015 85.4199 19.6909 82.8262C19.2958 82.464 18.8915 82.1191 18.4808 81.7749C12.1608 76.2102 7.92204 67.7607 6.35926 59.5703C6.33109 59.428 6.30293 59.2857 6.2739 59.1392C5.72221 56.3397 5.5631 53.6204 5.55359 50.769C5.55267 50.5402 5.55174 50.3114 5.55078 50.0757C5.57201 38.8537 10.5371 28.4704 18.3344 20.5811C20.6503 18.2741 23.141 16.404 25.8905 14.6484C26.0902 14.52 26.2898 14.3916 26.4955 14.2593C27.4726 13.6492 27.4726 13.6492 27.8436 13.4766Z" fill="#EF9D35"/>
<path d="M75.4458 19.3474C76.2619 20.043 77.0614 20.7509 77.8438 21.4844C77.9402 21.5742 78.0366 21.664 78.136 21.7565C80.8526 24.3063 83.0032 27.2568 84.875 30.4688C84.9441 30.5859 85.0133 30.703 85.0845 30.8236C86.238 32.7976 87.0655 34.8728 87.8299 37.0241C87.9752 37.4306 88.1268 37.8338 88.2808 38.237C90.6602 44.9738 90.5975 52.921 88.7812 59.7656C88.74 59.9224 88.6987 60.0793 88.6561 60.2408C88.0051 62.6638 87.1492 64.9348 86.0469 67.1875C85.9786 67.3277 85.9104 67.4679 85.8401 67.6124C82.4474 74.4989 76.6022 81.1121 69.6406 84.5703C69.5117 84.5059 69.3828 84.4414 69.25 84.375C69.4247 84.2521 69.5995 84.1293 69.7795 84.0027C78.8806 77.5742 85.104 68.649 87.0571 57.559C87.3844 55.601 87.5 53.6989 87.4797 51.7154C87.4751 51.2309 87.4757 50.7466 87.477 50.2621C87.4724 47.422 87.1799 44.6962 86.4985 41.9312C86.422 41.6186 86.422 41.6186 86.3439 41.2997C83.8613 31.4854 77.5356 22.842 68.88 17.5743C66.7997 16.3396 64.6883 15.2857 62.4313 14.4154C62.0666 14.2745 61.7042 14.1277 61.3421 13.9801C59.2345 13.1623 57.0157 12.7118 54.7969 12.3047C54.5944 12.2675 54.3919 12.2303 54.1833 12.1919C52.3566 11.8927 50.5575 11.8477 48.7115 11.8524C48.2084 11.853 47.7056 11.8484 47.2026 11.8435C43.2415 11.8284 39.2385 12.5463 35.5235 13.9381C35.0703 14.0625 35.0703 14.0625 34.4844 13.8672C48.3386 8.41753 63.6712 9.6495 75.4458 19.3474Z" fill="#EF9D35"/>
<path d="M41.5156 55.4688C42.2338 55.3275 42.5818 55.2736 43.2734 55.4688C43.986 56.0834 44.5656 56.7809 45.1621 57.5061C45.533 57.9436 45.9383 58.3408 46.3496 58.7402C46.8696 59.2528 47.3647 59.772 47.8389 60.3272C48.4028 60.9855 49.0044 61.5986 49.6211 62.207C50.3474 62.9235 51.0345 63.6585 51.6963 64.4348C52.1569 64.9492 52.6454 65.4332 53.1367 65.918C53.8845 66.6567 54.6079 67.4061 55.2844 68.2114C55.5699 68.5551 55.5699 68.5551 55.878 68.8492C56.4314 69.4134 56.6264 69.8468 56.6646 70.6177C56.6215 71.4393 56.3724 71.8807 55.7734 72.4609C55.4834 72.3643 55.4834 72.3643 55.1875 72.2656C55.2152 72.1569 55.2429 72.0481 55.2714 71.936C55.3944 71.2976 55.4835 70.7523 55.231 70.1393C54.364 68.9244 53.187 67.9035 52.1258 66.8594C51.5409 66.2808 50.9991 65.6779 50.468 65.0497C49.8825 64.3946 49.2507 63.7859 48.6258 63.1687C47.9705 62.5183 47.356 61.8478 46.7578 61.1443C46.2119 60.5335 45.6249 59.9646 45.0421 59.3896C44.3962 58.7491 43.7919 58.0859 43.2025 57.3936C42.7487 56.8792 42.2601 56.4034 41.7666 55.9273C41.5156 55.6641 41.5156 55.6641 41.5156 55.4688Z" fill="#7B4917"/>
<path d="M37.8782 27.2693C38.2051 27.2669 38.2051 27.2669 38.5387 27.2643C38.8976 27.2661 38.8976 27.2661 39.2637 27.2679C39.5156 27.2669 39.7675 27.2659 40.027 27.2648C40.7183 27.2621 41.4095 27.2632 42.1008 27.265C42.8242 27.2665 43.5476 27.2651 44.2711 27.2642C45.4864 27.2632 46.7017 27.2646 47.9171 27.2674C49.3215 27.2705 50.7259 27.2695 52.1304 27.2663C53.3363 27.2636 54.5422 27.2633 55.7481 27.2648C56.4683 27.2657 57.1884 27.2658 57.9086 27.2639C58.7119 27.2619 59.5152 27.2647 60.3186 27.2679C60.6763 27.2662 60.6763 27.2662 61.0412 27.2643C61.3698 27.2668 61.3698 27.2668 61.705 27.2693C61.8949 27.2696 62.0848 27.2698 62.2805 27.27C62.9091 27.3584 63.2712 27.5564 63.7813 27.9297C64.3057 28.7163 64.3048 29.3492 64.1719 30.2734C63.8189 30.8786 63.6118 31.1701 62.9512 31.4087C62.8384 31.4208 62.7256 31.4329 62.6094 31.4453C62.6779 31.3164 62.7463 31.1875 62.8169 31.0547C63.0711 30.2412 62.98 29.7422 62.8047 28.9062C62.4383 28.3899 62.2466 28.3296 61.6328 28.125C61.2884 28.1051 60.9434 28.0964 60.5984 28.0941C60.2768 28.0912 60.2768 28.0912 59.9486 28.0883C59.7133 28.0872 59.478 28.0861 59.2355 28.0849C58.8639 28.082 58.8639 28.082 58.4848 28.079C57.8053 28.0738 57.1258 28.0697 56.4463 28.0658C55.7362 28.0615 55.0262 28.0561 54.3161 28.0509C52.9714 28.0411 51.6268 28.0324 50.2821 28.0239C48.7512 28.0143 47.2204 28.0036 45.6896 27.9928C42.5404 27.9705 39.3913 27.9497 36.2422 27.9297C36.7383 27.3005 37.0942 27.2703 37.8782 27.2693Z" fill="#7A4817"/>
<path d="M54.9922 32.0312C55.5903 31.9214 55.5903 31.9214 56.3594 32.0312C57.7132 33.156 58.4602 35.1128 59.0938 36.7188C59.0938 36.9121 59.0938 37.1055 59.0938 37.3047C59.3503 37.2979 59.6069 37.2911 59.8712 37.2841C60.2102 37.2786 60.5492 37.2733 60.8882 37.2681C61.1414 37.2607 61.1414 37.2607 61.3997 37.2532C62.3536 37.2422 63.0156 37.2528 63.7812 37.8906C64.3057 38.6773 64.3048 39.3102 64.1719 40.2344C63.8189 40.8396 63.6118 41.1311 62.9512 41.3696C62.8384 41.3817 62.7256 41.3938 62.6094 41.4062C62.6779 41.2773 62.7463 41.1484 62.8169 41.0156C63.0711 40.2022 62.98 39.7031 62.8047 38.8672C62.4383 38.3508 62.2466 38.2905 61.6328 38.0859C61.3581 38.0576 61.0824 38.0378 60.8065 38.0241C60.6498 38.016 60.4931 38.0078 60.3316 37.9993C60.1688 37.9917 60.0061 37.984 59.8384 37.9761C59.6733 37.9676 59.5083 37.9592 59.3383 37.9505C58.9313 37.9298 58.5242 37.9101 58.1172 37.8906C58.0225 37.6759 57.9279 37.4611 57.8303 37.2398C57.1077 35.6349 56.3779 34.1973 55.2791 32.8133C54.9922 32.4219 54.9922 32.4219 54.9922 32.0312Z" fill="#7B4A17"/>
<path d="M38.1499 37.2318C38.3796 37.2349 38.3796 37.2349 38.6139 37.2382C38.8569 37.238 38.8569 37.238 39.1049 37.2379C39.6407 37.2383 40.1764 37.2429 40.7122 37.2475C41.0836 37.2486 41.455 37.2494 41.8264 37.25C42.8041 37.2522 43.7818 37.258 44.7595 37.2645C45.7571 37.2705 46.7547 37.2731 47.7523 37.2761C49.7099 37.2824 51.6674 37.2924 53.625 37.3047C53.7217 37.5947 53.7217 37.5947 53.8203 37.8906C48.084 37.8906 42.3477 37.8906 36.4375 37.8906C37.0861 37.242 37.2746 37.2368 38.1499 37.2318Z" fill="#7A4817"/>
<path d="M49.1328 50.3906C48.7997 50.5181 48.4659 50.6439 48.1318 50.769C47.946 50.8393 47.7602 50.9095 47.5688 50.9819C46.2527 51.4097 44.9741 51.3931 43.6046 51.3863C43.3938 51.386 43.183 51.3857 42.9659 51.3854C42.2953 51.3843 41.6247 51.3819 40.9541 51.3794C40.4984 51.3784 40.0426 51.3775 39.5869 51.3767C38.472 51.3746 37.3571 51.3713 36.2422 51.3672C36.6328 50.7813 36.6328 50.7813 37.2188 50.5859C37.5531 50.5644 37.8881 50.5535 38.2231 50.5489C38.4278 50.5457 38.6325 50.5424 38.8434 50.539C39.0643 50.5364 39.2853 50.5337 39.5129 50.531C39.74 50.5274 39.9671 50.5238 40.201 50.5201C40.9281 50.5086 41.6552 50.4983 42.3823 50.4883C43.3383 50.4751 44.2943 50.4607 45.2502 50.4456C45.4708 50.4429 45.6913 50.4403 45.9186 50.4375C46.1239 50.4343 46.3292 50.431 46.5407 50.4276C46.8113 50.424 46.8113 50.424 47.0873 50.4202C48.8827 50.3102 48.8827 50.3102 49.1328 50.3906Z" fill="#814F16"/>
<path d="M58.7031 41.9922C58.9609 41.9922 59.2187 41.9922 59.4844 41.9922C59.6822 44.7838 58.624 47.4017 56.8911 49.5834C56.4651 50.0612 56.0295 50.5227 55.5781 50.9766C55.4696 51.0878 55.3611 51.1991 55.2493 51.3138C55.0363 51.5298 54.8196 51.7422 54.6016 51.9531C54.4727 51.8887 54.3438 51.8242 54.2109 51.7578C54.3242 51.6395 54.4375 51.5211 54.5543 51.3992C56.7694 49.0232 58.3662 46.044 58.4872 42.7246C58.5078 42.3828 58.5078 42.3828 58.7031 41.9922Z" fill="#7C4B16"/>
<path d="M49.1328 50.3906C48.7836 50.5267 48.4335 50.6606 48.083 50.7935C47.8881 50.8682 47.6933 50.943 47.4925 51.02C46.9844 51.1719 46.9844 51.1719 46.5938 50.9766C46.5293 50.8477 46.4648 50.7187 46.3984 50.5859C46.7072 50.5146 47.0166 50.446 47.3262 50.3784C47.4984 50.3399 47.6706 50.3014 47.848 50.2617C48.349 50.1956 48.6584 50.2321 49.1328 50.3906Z" fill="#825016"/>
</svg>
