<svg width="24" height="24" viewBox="0 0 24 24" fill="none" xmlns="http://www.w3.org/2000/svg">
<mask id="mask0_7378_5825" style="mask-type:alpha" maskUnits="userSpaceOnUse" x="0" y="0" width="24" height="24">
<rect width="24" height="24" fill="#D9D9D9"/>
</mask>
<g mask="url(#mask0_7378_5825)">
<path d="M12.0192 17.5673C12.3051 17.5673 12.5464 17.4688 12.7433 17.272C12.9401 17.0753 13.0385 16.834 13.0385 16.548C13.0385 16.2622 12.9401 16.0208 12.7433 15.824C12.5464 15.6272 12.3051 15.5288 12.0192 15.5288C11.7334 15.5288 11.4921 15.6272 11.2952 15.824C11.0984 16.0208 11 16.2622 11 16.548C11 16.834 11.0984 17.0753 11.2952 17.272C11.4921 17.4688 11.7334 17.5673 12.0192 17.5673ZM11.3115 13.9865H12.7192C12.7321 13.4635 12.8067 13.0651 12.9432 12.7913C13.0798 12.5176 13.3551 12.1737 13.7693 11.7595C14.3013 11.2275 14.6817 10.7753 14.9105 10.403C15.1393 10.0305 15.2538 9.60708 15.2538 9.13275C15.2538 8.30075 14.9698 7.62992 14.402 7.12025C13.834 6.61058 13.1026 6.35575 12.2078 6.35575C11.3936 6.35575 10.6978 6.56317 10.1203 6.978C9.54258 7.39267 9.132 7.93267 8.8885 8.598L10.173 9.1135C10.3153 8.68917 10.5519 8.34267 10.8828 8.074C11.2134 7.8055 11.6282 7.67125 12.127 7.67125C12.6667 7.67125 13.0881 7.81767 13.3913 8.1105C13.6946 8.4035 13.8462 8.75958 13.8462 9.17875C13.8462 9.48775 13.7546 9.791 13.5712 10.0885C13.3879 10.386 13.1052 10.7072 12.723 11.052C12.1795 11.5417 11.8084 11.9962 11.6098 12.4155C11.4109 12.8347 11.3115 13.3583 11.3115 13.9865ZM5.30775 20.5C4.80258 20.5 4.375 20.325 4.025 19.975C3.675 19.625 3.5 19.1974 3.5 18.6923V5.30775C3.5 4.80258 3.675 4.375 4.025 4.025C4.375 3.675 4.80258 3.5 5.30775 3.5H18.6923C19.1974 3.5 19.625 3.675 19.975 4.025C20.325 4.375 20.5 4.80258 20.5 5.30775V18.6923C20.5 19.1974 20.325 19.625 19.975 19.975C19.625 20.325 19.1974 20.5 18.6923 20.5H5.30775ZM5.30775 19H18.6923C18.7692 19 18.8398 18.9679 18.9038 18.9038C18.9679 18.8398 19 18.7692 19 18.6923V5.30775C19 5.23075 18.9679 5.16025 18.9038 5.09625C18.8398 5.03208 18.7692 5 18.6923 5H5.30775C5.23075 5 5.16025 5.03208 5.09625 5.09625C5.03208 5.16025 5 5.23075 5 5.30775V18.6923C5 18.7692 5.03208 18.8398 5.09625 18.9038C5.16025 18.9679 5.23075 19 5.30775 19Z" fill="#DC2626"/>
</g>
</svg>
