<svg width="36" height="36" viewBox="0 0 36 36" fill="none" xmlns="http://www.w3.org/2000/svg">
<path fill-rule="evenodd" clip-rule="evenodd" d="M6.21429 3H29.7857C31.5603 3 33 4.43973 33 6.21429V29.7857C33 31.5603 31.5603 33 29.7857 33H6.21429C4.43973 33 3 31.5603 3 29.7857V6.21429C3 4.43973 4.43973 3 6.21429 3ZM29 8.5C29 9.32843 28.3284 10 27.5 10C26.6716 10 26 9.32843 26 8.5C26 7.67157 26.6716 7 27.5 7C28.3284 7 29 7.67157 29 8.5ZM18 27C22.9706 27 27 22.9706 27 18C27 13.0294 22.9706 9 18 9C13.0294 9 9 13.0294 9 18C9 22.9706 13.0294 27 18 27ZM18 24C21.3137 24 24 21.3137 24 18C24 14.6863 21.3137 12 18 12C14.6863 12 12 14.6863 12 18C12 21.3137 14.6863 24 18 24Z" fill="white"/>
</svg>
