<svg width="36" height="36" viewBox="0 0 36 36" fill="none" xmlns="http://www.w3.org/2000/svg">
<path fill-rule="evenodd" clip-rule="evenodd" d="M3 5.50637C3 4.84164 3.26406 4.20413 3.7341 3.7341C4.20413 3.26407 4.84163 3 5.50636 3H30.4909C30.8203 2.99947 31.1466 3.06391 31.4511 3.18964C31.7556 3.31537 32.0323 3.49993 32.2653 3.73273C32.4984 3.96554 32.6833 4.24204 32.8093 4.54638C32.9354 4.85073 33.0002 5.17695 33 5.50637V30.4909C33.0004 30.8204 32.9357 31.1467 32.8099 31.4512C32.684 31.7557 32.4993 32.0324 32.2664 32.2654C32.0335 32.4985 31.7569 32.6833 31.4525 32.8093C31.148 32.9354 30.8218 33.0002 30.4923 33H5.50636C5.17711 33 4.85108 32.9351 4.5469 32.8091C4.24273 32.683 3.96637 32.4983 3.73361 32.2654C3.50086 32.0325 3.31627 31.7561 3.19039 31.4518C3.06452 31.1476 2.99982 30.8215 3 30.4923V5.50637ZM14.8745 14.4382H18.9368V16.4782C19.5232 15.3055 21.0232 14.25 23.2773 14.25C27.5986 14.25 28.6227 16.5859 28.6227 20.8718V28.8109H24.2495V21.8482C24.2495 19.4073 23.6632 18.03 22.1741 18.03C20.1082 18.03 19.2491 19.515 19.2491 21.8482V28.8109H14.8745V14.4382ZM7.37455 28.6241H11.7491V14.25H7.37455V28.6227V28.6241ZM12.375 9.56182C12.3832 9.93637 12.3166 10.3088 12.179 10.6572C12.0413 11.0057 11.8355 11.3231 11.5735 11.591C11.3115 11.8588 10.9987 12.0716 10.6533 12.2168C10.308 12.3621 9.93714 12.4369 9.5625 12.4369C9.18786 12.4369 8.81698 12.3621 8.47165 12.2168C8.12632 12.0716 7.81348 11.8588 7.5515 11.591C7.28952 11.3231 7.08367 11.0057 6.94604 10.6572C6.8084 10.3088 6.74175 9.93637 6.75 9.56182C6.76619 8.82662 7.06962 8.12699 7.5953 7.61276C8.12098 7.09852 8.82712 6.81057 9.5625 6.81057C10.2979 6.81057 11.004 7.09852 11.5297 7.61276C12.0554 8.12699 12.3588 8.82662 12.375 9.56182Z" fill="white"/>
</svg>
