<svg width="24" height="24" viewBox="0 0 24 24" fill="none" xmlns="http://www.w3.org/2000/svg">
<mask id="mask0_7674_5109" style="mask-type:alpha" maskUnits="userSpaceOnUse" x="0" y="0" width="24" height="24">
<rect width="24" height="24" fill="#D9D9D9"/>
</mask>
<g mask="url(#mask0_7674_5109)">
<path d="M8.8125 15.8625C7.90417 15.1042 7.33333 14.15 7.1 13H2V11H7.1C7.33333 9.85 7.90417 8.89583 8.8125 8.1375C9.72083 7.37917 10.7833 7 12 7C13.2167 7 14.2792 7.37917 15.1875 8.1375C16.0958 8.89583 16.6667 9.85 16.9 11H22V13H16.9C16.6667 14.15 16.0958 15.1042 15.1875 15.8625C14.2792 16.6208 13.2167 17 12 17C10.7833 17 9.72083 16.6208 8.8125 15.8625ZM12 15C12.8333 15 13.5417 14.7083 14.125 14.125C14.7083 13.5417 15 12.8333 15 12C15 11.1667 14.7083 10.4583 14.125 9.875C13.5417 9.29167 12.8333 9 12 9C11.1667 9 10.4583 9.29167 9.875 9.875C9.29167 10.4583 9 11.1667 9 12C9 12.8333 9.29167 13.5417 9.875 14.125C10.4583 14.7083 11.1667 15 12 15Z" fill="#2B5582"/>
</g>
</svg>
