<svg width="150" height="36" viewBox="0 0 150 36" fill="none" xmlns="http://www.w3.org/2000/svg">
<g clip-path="url(#clip0_372_5463)">
<path fill-rule="evenodd" clip-rule="evenodd" d="M84.1628 10.3447V23.224H89.4424V25.5228H81.9297V10.3447H84.1628Z" fill="white"/>
<path fill-rule="evenodd" clip-rule="evenodd" d="M93.1544 14.205C92.6558 14.6978 92.2624 15.2861 91.9981 15.9344C91.7337 16.5828 91.6039 17.2777 91.6164 17.9774C91.6057 18.6673 91.7315 19.3525 91.9866 19.994C92.2417 20.6354 92.6211 21.2205 93.1031 21.7159C93.5851 22.2112 94.1603 22.6071 94.7959 22.8809C95.4315 23.1548 96.1149 23.3012 96.8073 23.3119C97.4997 23.3225 98.1873 23.1972 98.8311 22.943C99.4748 22.6888 100.062 22.3108 100.559 21.8305C101.056 21.3502 101.454 20.777 101.728 20.1437C102.003 19.5104 102.15 18.8294 102.161 18.1395V17.9774C102.189 16.5908 101.665 15.2494 100.704 14.2469C99.7419 13.2443 98.4206 12.6623 97.0291 12.6283C96.31 12.6174 95.596 12.7514 94.9302 13.0224C94.2643 13.2933 93.6603 13.6956 93.1544 14.205ZM91.572 23.3708C90.6779 22.5111 90.0102 21.4451 89.6281 20.267C89.246 19.089 89.1612 17.8352 89.3812 16.6167C89.6012 15.3982 90.1192 14.2525 90.8894 13.281C91.6597 12.3096 92.6583 11.5422 93.7971 11.047C94.9359 10.5517 96.1796 10.3437 97.4182 10.4415C98.6568 10.5393 99.8522 10.9398 100.898 11.6075C101.945 12.2753 102.81 13.1897 103.417 14.2699C104.024 15.3501 104.354 16.5628 104.379 17.8006V17.9922C104.415 19.4861 103.999 20.9562 103.185 22.2112C102.371 23.4661 101.196 24.4476 99.8142 25.028C98.4322 25.6084 96.9069 25.7607 95.4368 25.4652C93.9667 25.1696 92.62 24.4398 91.572 23.3708Z" fill="white"/>
<path fill-rule="evenodd" clip-rule="evenodd" d="M109.511 19.761H113.12V13.8666L109.511 19.761ZM115.338 10.3447V25.6554H113.105V22.0893H108.092L105.932 25.6554H103.285L112.587 10.3447H115.338Z" fill="white"/>
<path fill-rule="evenodd" clip-rule="evenodd" d="M128.575 10.3447V25.6554H126.238L119.938 14.7066V25.6554H117.705V10.3447H120.042L126.342 21.2936V10.3447H128.575Z" fill="white"/>
<path fill-rule="evenodd" clip-rule="evenodd" d="M134.92 25.7586C133.948 25.7298 133 25.4506 132.169 24.9481C131.269 24.453 130.576 23.6532 130.217 22.6935L132.361 21.8977C132.564 22.3985 132.95 22.804 133.441 23.0324C133.928 23.279 134.462 23.4196 135.008 23.445C135.794 23.5162 136.578 23.2842 137.197 22.7966C137.416 22.6364 137.599 22.4312 137.731 22.1947C137.864 21.9583 137.944 21.6962 137.966 21.4262C138.011 20.4536 137.005 19.6726 134.949 19.0832C131.74 18.1695 130.172 16.6075 130.276 14.4119C130.335 12.8793 130.986 11.7299 132.228 10.9636C133.25 10.363 134.432 10.0903 135.615 10.1826C137.212 10.2563 138.499 10.8163 139.46 11.8773L137.789 13.454C137.242 12.8498 136.487 12.5404 135.511 12.4814C134.912 12.4369 134.311 12.5276 133.751 12.7467C133.397 12.8821 133.093 13.1232 132.882 13.4371C132.67 13.7509 132.56 14.1222 132.568 14.5003C132.524 15.4581 133.53 16.2244 135.585 16.8138C137.434 17.3443 138.735 18.1106 139.504 19.1421C140.024 19.8155 140.286 20.6514 140.244 21.4999C140.212 22.0984 140.052 22.6832 139.774 23.2146C139.496 23.746 139.106 24.2116 138.632 24.5797C137.664 25.3634 136.447 25.7763 135.201 25.7438L134.92 25.7586Z" fill="white"/>
<path fill-rule="evenodd" clip-rule="evenodd" d="M20.6595 7.42676V10.6245H13.058V16.3715H18.9292V19.5692H13.058V28.5729H9.83398V7.42676H20.6595Z" fill="white"/>
<path fill-rule="evenodd" clip-rule="evenodd" d="M25.9095 7.42676V28.5729H15.084V25.3752H22.7003V7.42676H25.9095Z" fill="white"/>
<path d="M35.7448 17.7863V17.7126C35.7478 17.4667 35.7379 17.2208 35.7152 16.9758C35.651 15.806 35.4677 14.6458 35.168 13.5129C34.7125 11.7418 33.9948 10.0482 33.0384 8.48792C31.0448 5.23364 28.0604 2.69873 24.52 1.25256C23.1343 0.697481 21.6831 0.321121 20.2016 0.132624C19.8171 0.0736798 19.4326 0.058944 19.0185 0.0294721L17.2734 0C17.1847 0 17.096 0.014736 17.0072 0.014736C16.8993 0.0273369 16.7906 0.0322614 16.6819 0.0294721C16.3565 0.0442081 16.0312 0.088416 15.7206 0.117888L15.484 0.14736C14.6755 0.263316 13.8752 0.430665 13.0882 0.648383C12.7924 0.722063 12.4966 0.825215 12.2008 0.928367L11.3135 1.25256C11.1213 1.32624 10.9142 1.41465 10.722 1.50307C7.54912 2.92562 4.85391 5.22754 2.95778 8.13426C1.99373 9.61753 1.24677 11.2301 0.739446 12.9235C0.487272 13.7727 0.299418 14.6397 0.177467 15.517C0.0589939 16.3913 -0.000295221 17.2725 1.10525e-06 18.1547L0.0147898 18.8178C0.0147898 19.0242 0.0295782 19.2157 0.0443671 19.422V19.4957C0.0739449 19.9525 0.133101 20.4093 0.192256 20.8219C0.329305 21.7051 0.531977 22.5769 0.798601 23.4302C1.06227 24.2687 1.38853 25.0864 1.77467 25.8764C2.16189 26.6584 2.5965 27.4163 3.07609 28.1457C4.99677 30.968 7.68488 33.1865 10.8255 34.5411C11.0177 34.6296 11.21 34.718 11.4022 34.7916L11.979 35.0127C12.1121 35.0569 12.2452 35.1011 12.3635 35.1306C12.6149 35.219 12.8811 35.2927 13.1325 35.3664C13.9079 35.5877 14.6989 35.7502 15.4988 35.8526L15.7502 35.8821C16.0608 35.9263 16.3713 35.9558 16.6819 35.9705L16.8741 35.9853C17.0118 35.9975 17.15 36.0025 17.2882 36H18.2199C18.4861 36 18.7523 35.9853 19.0185 35.9705L19.3735 35.9411C19.6397 35.9263 19.9059 35.8968 20.1573 35.8674C22.9743 35.5068 25.6628 34.4757 27.9954 32.8612C29.9437 31.5002 31.6065 29.7733 32.8905 27.7773C33.4269 26.9561 33.8872 26.088 34.2659 25.1838C34.6034 24.4207 34.8804 23.6323 35.0941 22.826C35.4094 21.7049 35.6076 20.5543 35.6856 19.3926C35.7152 19.0831 35.73 18.7736 35.73 18.4642L35.7448 17.7863ZM35.2272 18.1989V18.6852C35.2304 18.9214 35.2205 19.1575 35.1976 19.3926C35.1245 20.5247 34.9312 21.646 34.6208 22.7376C34.1497 24.4371 33.4055 26.0495 32.4173 27.5121C31.143 29.4036 29.4918 31.0137 27.5665 32.2423C26.4693 32.9375 25.2989 33.5108 24.0763 33.9517C22.7744 34.4241 21.4179 34.7311 20.039 34.8653C19.6908 34.9113 19.3401 34.936 18.989 34.939H18.6192C18.3826 34.939 18.146 34.9537 17.8946 34.939L17.3326 34.9243C17.2138 34.9218 17.0952 34.9119 16.9777 34.8948L16.7854 34.8801C16.5129 34.8644 16.2415 34.8349 15.972 34.7916L15.691 34.7474C14.9458 34.6313 14.2095 34.4638 13.4875 34.2464C13.232 34.1813 12.9803 34.1026 12.7332 34.0106C12.6149 33.9664 12.5114 33.937 12.4079 33.8928L11.8607 33.6717L11.3283 33.4507C8.43263 32.1379 5.97084 30.0324 4.22963 27.3795C3.79161 26.7049 3.40122 26.0008 3.0613 25.2722C2.38112 23.8 1.92266 22.2359 1.70072 20.6304C1.59453 19.8291 1.54019 19.0219 1.53805 18.2137C1.55498 17.3996 1.62413 16.5875 1.74509 15.7822C1.87491 14.9851 2.05771 14.1975 2.29228 13.4245C2.53391 12.6556 2.83554 11.9066 3.1944 11.1846C4.92745 7.64418 7.86844 4.83386 11.491 3.25665C11.6537 3.18297 11.8311 3.10929 12.0086 3.03561L12.8072 2.74089C13.0734 2.65248 13.3396 2.56406 13.6058 2.49038C14.3104 2.28639 15.0264 2.12401 15.7502 2.00409L16.0164 1.97462C16.2826 1.94515 16.5636 1.90094 16.8298 1.88621L17.0072 1.87147C17.1248 1.85434 17.2434 1.8445 17.3622 1.842L18.9594 1.82726C19.0822 1.83924 19.2057 1.84416 19.3291 1.842C19.5509 1.85673 19.7728 1.87147 19.9798 1.88621L20.1425 1.90094C20.4303 1.92475 20.7167 1.9641 21.0002 2.01883L21.1777 2.0483C21.2873 2.0608 21.396 2.08049 21.5031 2.10725L22.0059 2.2104C22.336 2.26803 22.662 2.34678 22.982 2.44617L23.2186 2.51985L23.9284 2.74089C25.1334 3.15952 26.2888 3.70801 27.3743 4.37659C29.2886 5.56301 30.9434 7.12167 32.2398 8.95948C33.9095 11.3245 34.9107 14.0932 35.1384 16.9758C35.1651 17.1959 35.1799 17.4173 35.1828 17.639V17.8895H35.168L35.2272 18.1989Z" fill="white"/>
<path d="M39.2051 25.7733V10.3447H47.4573V11.6415H40.403V17.3148H46.0967V18.5969H40.403V25.7733H39.2051Z" fill="white"/>
<path d="M56.4191 25.7733H48.1816V10.3447H49.3795V24.5355H56.4191V25.7733Z" fill="white"/>
<path d="M65.2642 25.7733H57.0859V10.3447H65.3382V11.6415H58.3134V17.3591H63.8888V18.6264H58.3134V24.4765H65.2494V25.7733H65.2642Z" fill="white"/>
<path d="M71.2091 18.1548L75.6458 25.7733H74.226L70.514 19.4221H70.4549L66.7133 25.7733H65.3083L69.7598 18.199L65.1309 10.3447H66.5358L70.4253 16.9759H70.4844L74.4331 10.3447H75.8528L71.2091 18.1548Z" fill="white"/>
<path d="M76.207 25.7731V10.374H77.4493V25.7731H76.207Z" fill="white"/>
<path d="M140.273 5.29455C140.272 4.85934 140.33 4.42594 140.446 4.00634C140.558 3.60039 140.723 3.2106 140.936 2.84661C141.145 2.4877 141.402 2.15796 141.698 1.86593C141.994 1.57331 142.325 1.31853 142.684 1.10747C143.427 0.671993 144.274 0.442383 145.137 0.442383C146 0.442383 146.847 0.671993 147.591 1.10747C147.949 1.31902 148.28 1.57376 148.576 1.86593C148.872 2.15847 149.128 2.48814 149.338 2.84661C149.665 3.40481 149.876 4.02228 149.96 4.66288C150.044 5.30348 149.999 5.95432 149.827 6.57732C149.605 7.38547 149.174 8.12114 148.576 8.71035C148.28 9.00253 147.949 9.25727 147.591 9.46882C146.847 9.90516 146 10.1353 145.137 10.1353C144.274 10.1353 143.427 9.90516 142.684 9.46882C142.325 9.25776 141.994 9.00298 141.698 8.71035C141.402 8.41925 141.146 8.09079 140.936 7.73336C140.723 7.37156 140.559 6.98394 140.446 6.58012C140.33 6.16146 140.272 5.72891 140.273 5.29455ZM140.939 5.29455C140.938 5.67719 140.987 6.05832 141.086 6.42805C141.275 7.13477 141.644 7.78079 142.157 8.3032C142.751 8.89478 143.508 9.29653 144.331 9.45702C145.155 9.61752 146.008 9.52948 146.782 9.20416C147.282 8.99138 147.737 8.68414 148.121 8.29937C148.504 7.91227 148.809 7.45556 149.019 6.95397C149.241 6.42887 149.354 5.86418 149.349 5.29441C149.351 4.53596 149.154 3.79026 148.776 3.13146C148.594 2.81654 148.373 2.52605 148.117 2.26705C147.865 2.0089 147.58 1.78508 147.269 1.60142C146.953 1.4155 146.613 1.27182 146.26 1.17408C145.892 1.0711 145.511 1.01967 145.129 1.02127C144.563 1.01693 144.003 1.13089 143.484 1.35577C142.987 1.57077 142.536 1.87995 142.157 2.26616C141.371 3.07782 140.933 4.16301 140.938 5.29087L140.939 5.29455ZM144.176 5.89092V8.23483H143.139V2.32805H145.052C145.816 2.32805 146.382 2.46618 146.748 2.74243C147.114 3.01868 147.298 3.42495 147.301 3.96124C147.312 4.34525 147.186 4.72062 146.945 5.02076C146.669 5.33491 146.295 5.54765 145.883 5.62494C145.957 5.66839 146.024 5.72422 146.079 5.78998C146.139 5.86227 146.191 5.94014 146.235 6.02251L147.754 8.23527H146.769C146.704 8.23915 146.64 8.22581 146.583 8.19664C146.525 8.16747 146.476 8.12352 146.442 8.06934L145.104 6.06849C145.067 6.0138 145.018 5.96839 144.961 5.93586C144.88 5.8998 144.792 5.88372 144.704 5.889L144.176 5.89092ZM144.176 5.14086H144.947C145.157 5.14495 145.366 5.12132 145.57 5.07057C145.721 5.03472 145.862 4.96586 145.983 4.86898C146.086 4.78269 146.164 4.67086 146.21 4.54479C146.259 4.40175 146.282 4.2514 146.28 4.10035C146.282 3.95447 146.26 3.80918 146.216 3.67006C146.177 3.55127 146.105 3.44574 146.009 3.36532C145.899 3.27829 145.77 3.2171 145.632 3.18628C145.442 3.14283 145.248 3.12268 145.053 3.1263H144.175L144.176 5.14086Z" fill="white"/>
</g>
<defs>
<clipPath id="clip0_372_5463">
<rect width="150" height="36" fill="white"/>
</clipPath>
</defs>
</svg>
