<svg width="146" height="47" viewBox="0 0 146 47" fill="none" xmlns="http://www.w3.org/2000/svg">
<path fill-rule="evenodd" clip-rule="evenodd" d="M18.5 34.9H15.2V22.3C15.2 20.5 14.7 19 13.5 17.7C12.4 16.5 11 15.8 9.3 15.8C7.6 15.8 6.2 16.4 5.1 17.7C4 18.9 3.4 20.5 3.4 22.3V34.9H0V13H3.4V15.2C4.5 14.3 5.5 13.7 6.3 13.3C7.3 12.8 8.4 12.6 9.6 12.6C11.1 12.6 12.6 13 13.9 13.8C15.2 14.6 16.1 15.6 16.9 16.9C17.8 15.6 19.2 14.6 20.6 13.8C22 13 23.4 12.6 24.9 12.6C27 12.6 28.8 13.2 30.3 14.5V2.89999L33.8 0.899994V44.9L30.3 46.9V22.2C30.3 20.9 29.6 18.5 28.9 17.7C27.8 16.5 26.4 15.8 24.7 15.8C23 15.8 21.5 16.4 20.4 17.6C19.3 18.8 18.7 20.3 18.7 22.1L18.5 34.9Z" fill="#45586B"/>
<path fill-rule="evenodd" clip-rule="evenodd" d="M140.699 35V29.5H141.799L143.099 33.4C143.199 33.8 143.299 34 143.399 34.2C143.499 34 143.599 33.7 143.699 33.3L144.999 29.5H145.999V35H145.299V30.4L143.699 35H142.999L141.399 30.4V35H140.699ZM136.999 35V30.2H135.199V29.6H139.499V30.2H137.699V35H136.999Z" fill="#45586B"/>
<path d="M94.3 16.2H99.3C103.5 16.3 106.7 19.7 106.7 23.9C106.7 28.1 103.4 31.4 99.3 31.6H94.3V16.2ZM99.3 13H99.2H91V42.1H94.2V34.9H99.2C102.1 34.8 104.8 33.7 106.8 31.6C108.8 29.5 109.9 26.8 109.9 23.9C109.9 21 108.8 18.3 106.8 16.2C104.8 14.3 102.2 13.1 99.3 13Z" fill="#45586B"/>
<path d="M133.9 22.3V22.2C133 16.6 128.6 12.7 123.2 12.7C117 12.7 111.9 17.8 111.9 24C111.9 30.2 117 35.3 123.2 35.3C124.2 35.3 125.1 35.2 125.7 35C128.9 34.3 131.7 32.1 133.2 29.2V29.1L130.7 26.5L130.6 26.7C129.5 29.8 126.5 32 123.1 32C118.7 32 115.1 28.4 115.1 24C115.1 19.6 118.7 16 123.1 16C126.6 16 129.3 18.2 130.3 21.9H119V25.2H133.8V25.1V24.8C133.8 24.5 133.8 24.2 133.8 24C134 23.4 134 22.9 133.9 22.3Z" fill="#45586B"/>
<path d="M80.4008 13H80.3008V13.1V25.3C80.3008 27.4 80.2008 28.9 79.9008 29.7C79.4008 31.1 78.1008 32 76.5008 32C75.4008 32 74.3008 31.5 73.6008 30.7C72.9008 29.9 72.5008 28.8 72.5008 27.7V13.1V13H72.4008H69.4008H69.3008V13.1V27.7C69.3008 28.8 68.9008 29.9 68.2008 30.7C67.5008 31.5 66.4008 32 65.3008 32C64.2008 32 63.1008 31.5 62.5008 30.7C61.9008 30 61.5008 29.1 61.5008 26.4V13.1V13H61.4008H58.4008H58.3008V13.1V27.5C58.3008 29.6 59.0008 31.5 60.4008 33C61.8008 34.5 63.5008 35.3 65.5008 35.3C67.8008 35.3 69.6008 34.4 71.0008 32.6C72.4008 34.4 74.3008 35.3 76.5008 35.3C78.5008 35.3 80.3008 34.5 81.6008 33.1C82.9008 31.6 83.6008 29.8 83.6008 27.7V13.1V13H83.5008H80.4008Z" fill="#45586B"/>
<path d="M85.5996 13V34.8V34.9H85.7996H88.6996H88.8996V34.8V13H85.5996Z" fill="#45586B"/>
<path d="M87.3 7.69998C86.3 7.69998 85.5 8.49998 85.5 9.49998C85.5 10.5 86.3 11.3 87.3 11.3C88.3 11.3 89.1 10.5 89.1 9.49998C89.1 8.49998 88.2 7.69998 87.3 7.69998Z" fill="#45586B"/>
<path d="M50.2992 22.4H48.2992H41.6992C40.7992 22.4 39.9992 22.1 39.4992 21.6C38.9992 21.1 38.7992 20.4 38.7992 19.5C38.7992 18.5 38.9992 17.7 39.4992 17.3C40.0992 16.7 41.0992 16.3 41.7992 16.3H55.9992V13H53.3992H42.1992C40.2992 13 38.7992 13.6 37.4992 14.9C36.1992 16.2 35.6992 17.4 35.6992 19.3C35.6992 20.4 35.7992 21.2 36.3992 22.3C37.5992 24.5 39.3992 25.5 42.0992 25.5H45.3992H50.6992C51.5992 25.5 52.3992 25.8 52.8992 26.3C53.3992 26.8 53.5992 27.5 53.5992 28.4C53.5992 29.4 53.3992 30.2 52.8992 30.6C52.2992 31.2 51.2992 31.6 50.5992 31.6H35.8992V34.8H50.1992C52.0992 34.8 53.5992 34.2 54.8992 32.9C56.1992 31.6 56.6992 30.4 56.6992 28.5C56.6992 27.4 56.5992 26.6 55.9992 25.5C54.8992 23.4 52.9992 22.4 50.2992 22.4Z" fill="#45586B"/>
</svg>
