<svg width="80" height="80" viewBox="0 0 80 80" fill="none" xmlns="http://www.w3.org/2000/svg">
<g clip-path="url(#clip0_7017_5834)">
<path d="M37.3629 2.46077C37.4792 2.46066 37.5955 2.46056 37.7154 2.46045C45.7819 2.47197 53.592 5.0496 60.0484 9.88814C60.486 10.2157 60.9291 10.512 61.4058 10.7811C61.4574 10.6264 61.5089 10.4717 61.5621 10.3123C63.8873 8.23973 66.7274 7.18693 69.8378 7.28499C72.6551 7.50514 75.0561 8.5975 77.0308 10.6248C77.1394 10.7284 77.248 10.8319 77.3598 10.9386C79.4194 13.034 80.0815 15.8004 80.0652 18.6491C79.9916 21.5412 78.8704 23.9961 76.8746 26.0936C76.0117 26.8991 74.5235 28.2811 73.2808 28.2811C73.306 28.3656 73.3311 28.4501 73.357 28.5371C74.0288 30.8237 74.5225 33.1065 74.8433 35.4686C74.8597 35.5864 74.876 35.7042 74.8928 35.8255C75.3089 39.3043 75.1996 43.1298 74.5308 46.5623C74.5006 46.7207 74.4704 46.8791 74.4393 47.0422C72.6798 55.9888 67.7173 64.4157 60.3121 69.8436C60.1786 69.9431 60.1786 69.9431 60.0425 70.0447C54.6254 74.0827 48.1401 76.674 41.4058 77.3436C41.2364 77.3609 41.067 77.3782 40.8925 77.3961C31.4732 78.2113 21.7866 75.4243 14.3746 69.5311C14.2237 69.412 14.0729 69.293 13.9174 69.1704C13.1717 68.572 12.4665 67.9607 11.8032 67.2722C11.535 66.9957 11.535 66.9957 11.0933 66.6502C10.6299 66.2544 10.2499 65.847 9.85736 65.3831C9.61675 65.1007 9.37051 64.823 9.12128 64.5482C3.4921 58.2871 0.20394 49.6376 -0.000423994 41.2498C-0.00666789 41.0468 -0.0129118 40.8438 -0.0193449 40.6346C-0.152518 34.3074 1.37992 27.9126 4.37458 22.3436C4.42788 22.2424 4.48118 22.1413 4.53609 22.037C6.22876 18.8346 8.45235 16.0582 10.9371 13.4373C11.1038 13.2606 11.1038 13.2606 11.274 13.0803C12.0136 12.3179 12.8125 11.6431 13.6466 10.9862C13.8276 10.843 14.0077 10.6986 14.187 10.5533C20.7342 5.25576 28.9656 2.46766 37.3629 2.46077Z" fill="#F9BC00"/>
<path d="M37.3629 2.46077C37.4792 2.46066 37.5955 2.46056 37.7154 2.46045C45.7819 2.47197 53.592 5.0496 60.0484 9.88814C60.486 10.2157 60.9291 10.512 61.4058 10.7811C61.4574 10.6264 61.5089 10.4717 61.5621 10.3123C63.8873 8.23973 66.7274 7.18693 69.8378 7.28499C72.6551 7.50514 75.0561 8.5975 77.0308 10.6248C77.1394 10.7284 77.248 10.8319 77.3598 10.9386C79.4194 13.034 80.0815 15.8004 80.0652 18.6491C79.9916 21.5412 78.8704 23.9961 76.8746 26.0936C76.0117 26.8991 74.5235 28.2811 73.2808 28.2811C73.306 28.3656 73.3311 28.4501 73.357 28.5371C74.0288 30.8237 74.5225 33.1065 74.8433 35.4686C74.8597 35.5864 74.876 35.7042 74.8928 35.8255C75.3089 39.3043 75.1996 43.1298 74.5308 46.5623C74.5006 46.7207 74.4704 46.8791 74.4393 47.0422C72.6798 55.9888 67.7173 64.4157 60.3121 69.8436C60.1786 69.9431 60.1786 69.9431 60.0425 70.0447C54.6254 74.0827 48.1401 76.674 41.4058 77.3436C41.2364 77.3609 41.067 77.3782 40.8925 77.3961C31.4732 78.2113 21.7866 75.4243 14.3746 69.5311C14.2237 69.412 14.0729 69.293 13.9174 69.1704C13.1717 68.572 12.4665 67.9607 11.8032 67.2722C11.535 66.9957 11.535 66.9957 11.0933 66.6502C10.6299 66.2544 10.2499 65.847 9.85736 65.3831C9.61675 65.1007 9.37051 64.823 9.12128 64.5482C3.4921 58.2871 0.20394 49.6376 -0.000423994 41.2498C-0.00666789 41.0468 -0.0129118 40.8438 -0.0193449 40.6346C-0.152518 34.3074 1.37992 27.9126 4.37458 22.3436C4.42788 22.2424 4.48118 22.1413 4.53609 22.037C6.22876 18.8346 8.45235 16.0582 10.9371 13.4373C11.1038 13.2606 11.1038 13.2606 11.274 13.0803C12.0136 12.3179 12.8125 11.6431 13.6466 10.9862C13.8276 10.843 14.0077 10.6986 14.187 10.5533C20.7342 5.25576 28.9656 2.46766 37.3629 2.46077ZM27.9683 5.93733C27.69 6.02129 27.4117 6.1051 27.1334 6.1888C17.8276 9.06262 10.479 15.5243 5.93708 24.0623C1.77959 32.067 1.00783 41.5729 3.59043 50.1996C5.75051 56.9306 9.71634 63.1179 15.3121 67.4998C15.4678 67.6251 15.6235 67.7504 15.7839 67.8795C22.8176 73.4861 32.0815 76.1555 41.0159 75.1755C41.7736 75.0808 42.5272 74.966 43.2808 74.8436C43.4921 74.811 43.4921 74.811 43.7077 74.7777C50.2279 73.7536 56.548 70.5952 61.3021 66.0228C61.6341 65.7054 61.9689 65.4078 62.3238 65.117C62.9184 64.6137 63.4049 64.0318 63.9058 63.4373C64.0384 63.2855 64.1709 63.1336 64.3074 62.9771C70.2375 56.1529 73.329 46.9857 72.8121 37.9686C72.598 35.4433 72.3067 32.8979 71.5621 30.4686C71.4775 30.1866 71.3931 29.9046 71.3088 29.6226C71.237 29.3838 71.1652 29.1449 71.0933 28.9061C71.0062 28.9094 70.9191 28.9126 70.8293 28.916C67.3579 29.0287 64.3466 28.3726 61.7183 25.9373C61.6096 25.837 61.5008 25.7367 61.3887 25.6334C59.3079 23.5122 58.4932 20.4683 58.5074 17.5707C58.5593 16.1015 58.9323 14.6943 59.6547 13.4068C59.8919 12.9927 59.8919 12.9927 59.732 12.6562C59.5164 12.3211 59.3206 12.1389 59.0004 11.9041C58.837 11.7841 58.837 11.7841 58.6702 11.6616C58.5514 11.5773 58.4326 11.493 58.3101 11.4061C58.1858 11.3174 58.0616 11.2288 57.9335 11.1374C53.4175 7.97611 48.2452 5.90335 42.8121 4.99983C42.6362 4.96939 42.6362 4.96939 42.4568 4.93834C37.8324 4.17118 32.421 4.48376 27.9683 5.93733Z" fill="#2B5582"/>
<path d="M18.7856 22.6154C18.9211 22.6143 19.0567 22.6132 19.1963 22.612C19.3453 22.6124 19.4943 22.6128 19.6478 22.6132C19.806 22.6124 19.9642 22.6115 20.1272 22.6107C20.6598 22.6083 21.1923 22.6082 21.7249 22.6081C22.1058 22.6069 22.4866 22.6056 22.8674 22.6042C23.9037 22.6008 24.9399 22.5994 25.9762 22.5986C26.623 22.5981 27.2699 22.5971 27.9167 22.5959C29.707 22.5929 31.4974 22.5903 33.2877 22.5899C33.4596 22.5898 33.4596 22.5898 33.635 22.5898C33.8673 22.5897 34.0996 22.5897 34.3319 22.5896C34.4472 22.5896 34.5625 22.5896 34.6813 22.5895C34.7968 22.5895 34.9122 22.5895 35.0312 22.5894C36.903 22.5889 38.7748 22.5847 40.6466 22.5788C42.5677 22.5729 44.4887 22.5698 46.4097 22.5698C47.4886 22.5697 48.5675 22.5684 49.6464 22.5639C50.6607 22.5596 51.675 22.5594 52.6893 22.5619C53.0622 22.5622 53.4351 22.5612 53.808 22.5587C54.3159 22.5555 54.8235 22.5571 55.3314 22.56C55.48 22.5579 55.6287 22.5558 55.7818 22.5537C56.7745 22.5665 56.7745 22.5665 57.2835 23.0221C57.4995 23.4373 57.4995 23.4373 57.4995 23.9255C57.3104 24.4692 57.2241 24.5752 56.7183 24.8435C56.217 24.9154 55.7187 24.9119 55.213 24.9111C55.0605 24.9127 54.908 24.9143 54.7509 24.9159C54.247 24.9206 53.7432 24.9221 53.2393 24.9235C52.8898 24.9261 52.5404 24.9289 52.191 24.932C51.2714 24.9394 50.3518 24.9441 49.4322 24.9481C48.4938 24.9528 47.5554 24.9601 46.6169 24.9671C44.7757 24.9806 42.9345 24.9911 41.0933 24.9998C41.2523 25.1389 41.2523 25.1389 41.4145 25.2809C41.5542 25.4047 41.6939 25.5284 41.8379 25.6559C41.9761 25.7777 42.1143 25.8995 42.2567 26.025C43.7353 27.4369 44.8196 29.5481 45.1558 31.5623C45.1585 31.9268 45.1588 32.2914 45.1558 32.656C45.2989 32.6543 45.442 32.6525 45.5895 32.6508C46.939 32.6351 48.2884 32.6232 49.638 32.6155C50.3318 32.6115 51.0255 32.6059 51.7193 32.5971C52.389 32.5886 53.0586 32.5839 53.7283 32.5819C53.9836 32.5804 54.239 32.5776 54.4943 32.5734C54.8524 32.5677 55.2101 32.567 55.5682 32.5673C55.8737 32.5647 55.8737 32.5647 56.1854 32.5621C56.856 32.6803 57.0898 32.9031 57.4995 33.4373C57.4995 33.9308 57.4448 34.2232 57.1697 34.6339C56.7232 34.951 56.2728 34.905 55.7456 34.8967C55.6312 34.8968 55.5168 34.8969 55.399 34.8969C55.021 34.8966 54.6432 34.893 54.2653 34.8893C54.0032 34.8884 53.7411 34.8877 53.4791 34.8873C52.7893 34.8855 52.0997 34.8809 51.41 34.8757C50.7062 34.8709 50.0023 34.8688 49.2985 34.8664C47.9176 34.8614 46.5367 34.8534 45.1558 34.8435C45.159 35.1372 45.159 35.1372 45.1622 35.4369C45.1892 37.901 43.5384 40.1658 41.9233 41.8845C40.6115 43.1509 39.0854 44.0093 37.3433 44.531C37.1512 44.5887 37.1512 44.5887 36.9553 44.6476C35.3415 45.078 33.7661 45.0744 32.1058 45.0797C31.8349 45.0821 31.5639 45.0848 31.2929 45.0876C30.6922 45.0934 30.0914 45.0975 29.4906 45.1006C28.0496 45.1082 26.6086 45.1192 25.1676 45.1299C24.4133 45.1354 23.659 45.1409 22.9047 45.1463C22.6435 45.1482 22.3824 45.1501 22.1212 45.152C21.8444 45.154 21.8444 45.154 21.562 45.156C21.7116 45.3043 21.7116 45.3043 21.8642 45.4555C24.2896 47.8603 26.7125 50.2676 29.1325 52.6779C30.3028 53.8434 31.474 55.008 32.6473 56.1706C33.6699 57.1838 34.6908 58.1987 35.7098 59.2156C36.2494 59.754 36.7899 60.2916 37.3323 60.8272C37.8429 61.3314 38.3512 61.8377 38.8578 62.3458C39.0441 62.5318 39.2313 62.7171 39.4192 62.9015C39.6759 63.1535 39.9296 63.4083 40.1827 63.6639C40.3254 63.8058 40.4681 63.9477 40.6152 64.0938C41.0016 64.6187 41.0728 64.9782 41.0933 65.6248C40.8589 66.0056 40.8589 66.0056 40.4683 66.2498C39.7786 66.3392 39.4751 66.3212 38.9012 65.9136C38.7379 65.7561 38.5775 65.5955 38.4195 65.4326C38.33 65.3447 38.2405 65.2568 38.1483 65.1662C37.8492 64.8711 37.5542 64.5723 37.2591 64.2734C37.0455 64.061 36.8316 63.8488 36.6175 63.6368C36.0368 63.0604 35.4596 62.4807 34.8831 61.9001C34.2795 61.2932 33.6731 60.6889 33.0672 60.0843C32.05 59.0683 31.035 58.0501 30.0213 57.0306C28.8493 55.8519 27.6737 54.6768 26.4962 53.5037C25.3636 52.3752 24.2338 51.2441 23.1051 50.1119C22.6246 49.63 22.1432 49.1491 21.6611 48.6689C21.0933 48.1032 20.528 47.5353 19.9643 46.9656C19.7571 46.7569 19.5491 46.549 19.3402 46.3419C19.0551 46.0591 18.7731 45.7735 18.4917 45.4871C18.4084 45.4057 18.3251 45.3244 18.2393 45.2406C17.686 44.6687 17.5201 44.2301 17.4995 43.4373C17.7009 43.0613 17.7009 43.0613 18.1245 42.8123C18.6653 42.7223 19.1988 42.7291 19.7459 42.7344C19.9934 42.7331 19.9934 42.7331 20.2459 42.7318C20.6043 42.7303 20.9627 42.7303 21.3211 42.7316C21.8894 42.7335 22.4576 42.7318 23.0259 42.7291C24.0288 42.7249 25.0318 42.724 26.0347 42.7242C27.6361 42.7246 29.2375 42.7224 30.8389 42.7156C31.3969 42.714 31.9548 42.7154 32.5128 42.7169C32.8582 42.7159 33.2036 42.7149 33.549 42.7137C33.7026 42.7149 33.8562 42.7161 34.0144 42.7173C36.3882 42.7001 38.774 41.7459 40.4878 40.0974C41.8884 38.5729 42.6898 36.8929 42.9683 34.8435C42.8408 34.8441 42.7133 34.8447 42.582 34.8453C39.4823 34.8591 36.3827 34.8694 33.283 34.8759C31.784 34.8791 30.285 34.8835 28.7861 34.8907C27.4797 34.8969 26.1734 34.9009 24.8671 34.9023C24.1752 34.9031 23.4834 34.9051 22.7916 34.9096C22.1406 34.9138 21.4896 34.9151 20.8386 34.9142C20.5995 34.9144 20.3604 34.9156 20.1213 34.918C19.7951 34.9211 19.4691 34.9204 19.1428 34.9187C18.8689 34.9195 18.8689 34.9195 18.5894 34.9204C18.0242 34.8269 17.8409 34.671 17.4995 34.2185C17.4116 33.7498 17.4116 33.7498 17.4995 33.281C17.9138 32.86 18.1747 32.6729 18.7624 32.5791C18.9438 32.5797 19.1251 32.5803 19.3119 32.5809C19.4134 32.5803 19.5149 32.5798 19.6195 32.5792C19.9583 32.5782 20.2969 32.5816 20.6357 32.5851C20.879 32.5852 21.1224 32.5851 21.3657 32.5848C22.0255 32.5846 22.6853 32.5883 23.3451 32.5926C24.0349 32.5965 24.7248 32.5969 25.4146 32.5977C26.7205 32.5996 28.0265 32.6047 29.3324 32.611C30.8193 32.618 32.3062 32.6214 33.7932 32.6246C36.8515 32.6311 39.9099 32.6421 42.9683 32.656C42.9223 32.4089 42.8753 32.1619 42.8279 31.915C42.8019 31.7775 42.7758 31.64 42.749 31.4983C42.6119 30.9031 42.3781 30.3842 42.0991 29.8435C42.0442 29.7364 41.9893 29.6292 41.9327 29.5188C40.7581 27.3172 38.893 26.0015 36.5546 25.1972C35.1791 24.7955 33.7188 24.8806 32.2994 24.8956C31.7246 24.9016 31.1501 24.9018 30.5752 24.9006C29.3579 24.8992 28.1407 24.9052 26.9233 24.9119C25.5058 24.9189 24.0883 24.9228 22.6707 24.9205C22.1048 24.921 21.5391 24.9263 20.9733 24.9318C20.6276 24.932 20.2819 24.9319 19.9362 24.9317C19.7793 24.9345 19.6224 24.9373 19.4608 24.9402C18.7325 24.935 18.3893 24.9226 17.7867 24.4834C17.4995 24.0623 17.4995 24.0623 17.4995 23.4861C17.7237 22.7433 18.0596 22.6173 18.7856 22.6154Z" fill="#040300"/>
<path d="M73.9924 11.0156C74.2256 11.1953 74.457 11.3773 74.6858 11.5625C74.8501 11.6818 75.0145 11.801 75.1838 11.9238C76.6114 13.288 77.7554 15.373 77.8633 17.3694C77.9191 20.1209 77.1523 22.46 75.2284 24.4867C73.395 26.181 71.0551 26.965 68.5902 26.919C67.641 26.852 66.8168 26.5983 65.9358 26.25C65.8012 26.1989 65.6667 26.1477 65.5281 26.095C63.315 25.1294 61.8414 23.1735 60.9455 20.9961C60.2035 18.7601 60.5314 16.3201 61.4924 14.1992C62.655 12.0315 64.5452 10.5827 66.8733 9.84377C69.2668 9.21568 71.9567 9.63329 73.9924 11.0156Z" fill="#F54253"/>
<path d="M65.8038 17.1242C66.0495 17.1212 66.0495 17.1212 66.3 17.1182C66.4768 17.1186 66.6536 17.1191 66.8357 17.1196C67.1082 17.1183 67.1082 17.1183 67.3862 17.1171C67.7706 17.1161 68.1551 17.1163 68.5395 17.1176C69.1284 17.119 69.717 17.1145 70.3058 17.1095C70.6791 17.1093 71.0523 17.1093 71.4255 17.1098C71.602 17.1081 71.7784 17.1063 71.9602 17.1045C72.1244 17.106 72.2887 17.1074 72.4579 17.1089C72.6022 17.109 72.7465 17.109 72.8952 17.109C73.405 17.2123 73.5945 17.4029 73.9066 17.8123C73.9066 18.369 73.9066 18.369 73.7503 18.9061C73.2913 19.3505 72.9626 19.4341 72.3328 19.438C72.1753 19.4399 72.0179 19.4419 71.8556 19.444C71.6865 19.4435 71.5174 19.443 71.3431 19.4426C71.1686 19.4434 70.9941 19.4442 70.8143 19.4451C70.4455 19.4461 70.0767 19.4459 69.7079 19.4445C69.1431 19.4432 68.5785 19.4477 68.0137 19.4526C67.6554 19.4529 67.2971 19.4528 66.9388 19.4523C66.7697 19.4541 66.6006 19.4559 66.4263 19.4577C66.2689 19.4562 66.1114 19.4547 65.9491 19.4532C65.8108 19.4532 65.6726 19.4532 65.5301 19.4531C65.03 19.3483 64.8425 19.1481 64.5316 18.7498C64.417 17.8166 64.417 17.8166 64.72 17.3921C65.0962 17.1173 65.3401 17.1269 65.8038 17.1242Z" fill="#060102"/>
</g>
<defs>
<clipPath id="clip0_7017_5834">
<rect width="80" height="80" fill="white"/>
</clipPath>
</defs>
</svg>
