<svg width="150" height="150" viewBox="0 0 150 150" fill="none" xmlns="http://www.w3.org/2000/svg">
<g clip-path="url(#clip0_7006_5561)">
<path d="M92.4506 -0.155653C92.8146 -0.157335 92.8146 -0.157335 93.1859 -0.159051C93.6981 -0.159847 94.2103 -0.157694 94.7225 -0.152792C95.5058 -0.146519 96.2884 -0.152735 97.0717 -0.160231C97.5699 -0.159457 98.0681 -0.157955 98.5663 -0.155653C98.917 -0.159212 98.917 -0.159212 99.2748 -0.162842C100.261 -0.146203 100.918 -0.11602 101.723 0.481192C102.401 1.37543 102.389 1.88423 102.38 2.9992C102.38 3.55335 102.38 3.55335 102.379 4.1187C102.374 4.52039 102.367 4.92209 102.361 5.32378C102.359 5.73591 102.357 6.14805 102.356 6.56019C102.352 7.64298 102.34 8.72559 102.327 9.80831C102.315 10.9139 102.31 12.0196 102.304 13.1252C102.291 15.2932 102.271 17.461 102.247 19.6289C103.6 19.6289 104.954 19.6289 106.348 19.6289C106.342 19.3422 106.336 19.0554 106.33 18.76C106.308 17.6943 106.295 16.6285 106.284 15.5627C106.278 15.1017 106.27 14.6408 106.26 14.1799C106.246 13.5166 106.239 12.8536 106.234 12.1902C106.228 11.9848 106.222 11.7794 106.216 11.5677C106.215 10.6408 106.299 10.042 106.785 9.24538C107.837 8.59243 108.827 8.62122 110.029 8.63341C110.393 8.63173 110.393 8.63173 110.764 8.63001C111.276 8.62922 111.788 8.63137 112.301 8.63627C113.084 8.64254 113.867 8.63633 114.65 8.62883C115.148 8.62961 115.646 8.63111 116.144 8.63341C116.378 8.63104 116.612 8.62866 116.853 8.62622C117.85 8.64303 118.534 8.71516 119.389 9.24538C119.984 10.2217 119.972 11.0821 119.939 12.1902C119.938 12.4032 119.936 12.6161 119.934 12.8355C119.928 13.5132 119.913 14.1905 119.898 14.8682C119.892 15.3286 119.887 15.789 119.882 16.2495C119.869 17.3761 119.849 18.5024 119.825 19.6289C120.095 19.6197 120.095 19.6197 120.371 19.6103C121.19 19.5859 122.009 19.5707 122.828 19.5557C123.111 19.5458 123.395 19.536 123.687 19.5259C124.098 19.5202 124.098 19.5202 124.517 19.5145C124.769 19.5083 125.02 19.5022 125.279 19.4959C126.245 19.6799 126.575 20.011 127.149 20.8008C127.282 21.633 127.282 21.633 127.264 22.5815C127.258 23.0913 127.258 23.0913 127.252 23.6114C127.237 24.1417 127.237 24.1417 127.222 24.6826C127.217 25.0406 127.212 25.3986 127.206 25.7675C127.192 26.6512 127.173 27.5345 127.149 28.418C127.315 28.4154 127.482 28.4128 127.653 28.4101C129.383 28.3841 131.112 28.3665 132.842 28.3536C133.488 28.3477 134.134 28.3397 134.779 28.3295C135.707 28.3153 136.635 28.3087 137.563 28.3035C137.996 28.2944 137.996 28.2944 138.438 28.2852C140.395 28.2845 140.395 28.2845 141.393 28.8629C141.96 29.8828 141.965 30.8225 141.953 31.9599C141.954 32.1889 141.955 32.4178 141.957 32.6537C141.957 33.1371 141.955 33.6205 141.95 34.1039C141.944 34.8416 141.95 35.5784 141.958 36.3161C141.957 36.7866 141.955 37.2572 141.953 37.7277C141.956 37.9472 141.958 38.1667 141.96 38.3928C141.932 40.0071 141.723 40.2297 140.626 41.6015C139.079 41.6015 137.532 41.6015 135.938 41.6015C135.938 73.0224 135.938 104.443 135.938 136.816C140.289 136.816 144.639 136.816 149.122 136.816C150.116 137.81 150.106 138.165 150.123 139.514C150.121 139.757 150.119 140 150.117 140.25C150.118 140.5 150.119 140.75 150.12 141.008C150.12 141.537 150.119 142.066 150.115 142.595C150.111 143.405 150.115 144.215 150.121 145.025C150.12 145.539 150.119 146.053 150.117 146.567C150.119 146.809 150.121 147.052 150.123 147.302C150.103 148.947 150.103 148.947 149.705 149.625C148.771 150.226 147.777 150.12 146.701 150.111C146.324 150.112 146.324 150.113 145.94 150.114C145.091 150.118 144.243 150.115 143.394 150.112C142.782 150.113 142.171 150.114 141.559 150.116C139.873 150.119 138.186 150.118 136.5 150.115C134.683 150.113 132.867 150.116 131.05 150.118C127.695 150.122 124.34 150.122 120.985 150.119C117.886 150.117 114.788 150.117 111.689 150.118C111.483 150.118 111.278 150.118 111.066 150.118C110.233 150.118 109.399 150.118 108.566 150.119C100.743 150.121 92.9203 150.119 85.0974 150.114C78.1427 150.11 71.1881 150.11 64.2334 150.115C56.4251 150.119 48.6168 150.121 40.8085 150.118C39.9766 150.118 39.1446 150.118 38.3127 150.118C38.1079 150.118 37.903 150.117 37.6919 150.117C34.5944 150.116 31.4969 150.118 28.3994 150.12C24.8785 150.122 21.3575 150.122 17.8366 150.117C16.0386 150.115 14.2407 150.114 12.4428 150.117C10.799 150.119 9.15537 150.118 7.51165 150.113C6.91488 150.112 6.31812 150.113 5.72135 150.115C4.91429 150.117 4.10742 150.115 3.30037 150.111C3.0651 150.113 2.82983 150.115 2.58743 150.117C1.0364 150.101 1.03639 150.101 0.295879 149.625C-0.248303 148.697 -0.123782 147.613 -0.116108 146.567C-0.116949 146.316 -0.11779 146.066 -0.118656 145.808C-0.119254 145.279 -0.117634 144.75 -0.113962 144.221C-0.109259 143.411 -0.113918 142.601 -0.119541 141.791C-0.11896 141.277 -0.117834 140.763 -0.116108 140.25C-0.117887 140.007 -0.119666 139.764 -0.121499 139.514C-0.101085 137.85 -0.10108 137.85 0.331696 137.191C1.13462 136.642 1.76062 136.711 2.72739 136.717C3.10858 136.717 3.48977 136.717 3.88251 136.717C4.29868 136.721 4.71484 136.726 5.13101 136.731C5.5567 136.732 5.98239 136.733 6.40808 136.734C7.52792 136.738 8.64767 136.746 9.76747 136.756C10.9104 136.765 12.0533 136.769 13.1962 136.773C15.4384 136.783 17.6804 136.798 19.9225 136.816C19.9801 131.71 20.0142 126.604 20.0204 121.498C20.0238 119.127 20.0349 116.756 20.0641 114.385C20.0896 112.317 20.1005 110.25 20.0943 108.182C20.0915 107.087 20.0957 105.994 20.1174 104.9C20.4709 100.194 20.4709 100.194 18.7515 96.1214C17.9177 95.45 17.0404 95.0126 16.0575 94.6011C15.114 94.1286 14.3943 93.398 13.642 92.6697C13.2437 92.2964 13.2437 92.2964 12.8375 91.9155C12.429 91.5184 12.429 91.5184 12.0123 91.1133C11.8477 90.9544 11.6831 90.7956 11.5134 90.6319C4.9075 84.1657 0.312808 74.3818 -0.0424902 65.0824C-0.046849 64.67 -0.0496868 64.2576 -0.0512342 63.8452C-0.054122 63.5047 -0.0541175 63.5047 -0.0570636 63.1573C-0.0627946 62.4132 -0.0662527 61.669 -0.0691872 60.9249C-0.0703812 60.6697 -0.071578 60.4144 -0.0728081 60.1515C-0.078895 58.8033 -0.0830946 57.4552 -0.0858526 56.107C-0.0891085 54.715 -0.0992109 53.323 -0.110806 51.931C-0.118454 50.8591 -0.12092 49.7872 -0.121973 48.7153C-0.123401 48.2019 -0.126809 47.6885 -0.132237 47.1752C-0.139352 46.4585 -0.139105 45.7421 -0.137065 45.0254C-0.140818 44.8137 -0.144571 44.602 -0.148438 44.3838C-0.138228 43.4009 -0.0717605 42.8685 0.531306 42.0767C1.42954 41.4111 2.40207 41.0343 3.44072 40.6471C3.66925 40.5589 3.89778 40.4707 4.13324 40.3799C4.8908 40.0882 5.64997 39.8011 6.40931 39.5141C7.21522 39.2066 8.0208 38.8982 8.82632 38.5896C9.39213 38.3729 9.95808 38.1565 10.5242 37.9405C12.6544 37.1252 14.7712 36.2792 16.8852 35.4229C17.7963 35.0565 18.7076 34.6906 19.619 34.3249C20.2091 34.0868 20.7984 33.8468 21.3869 33.6049C22.2151 33.2649 23.0459 32.9321 23.8776 32.6008C24.2422 32.4478 24.2422 32.4478 24.6142 32.2917C27.2724 31.2499 29.3304 31.8291 31.8884 32.8869C32.132 32.9844 32.3756 33.0818 32.6265 33.1823C33.4224 33.5016 34.2164 33.8253 35.0104 34.1492C35.8493 34.4876 36.6885 34.825 37.5279 35.1623C38.1057 35.3945 38.6834 35.6271 39.2609 35.8601C41.2849 36.6751 43.3168 37.4669 45.3547 38.2461C45.9078 38.4584 46.461 38.6707 47.0141 38.8829C47.81 39.1882 48.6062 39.4925 49.4036 39.7937C50.1394 40.072 50.8737 40.354 51.6078 40.6368C51.8245 40.7175 52.0412 40.7982 52.2645 40.8813C54.4197 41.7196 54.4197 41.7196 55.0787 42.7734C55.2548 43.8364 55.2561 44.8884 55.2573 45.964C55.2619 46.2393 55.2664 46.5146 55.2712 46.7982C55.2865 47.8247 55.2919 48.8513 55.2985 49.8779C55.3226 52.1741 55.3468 54.4702 55.3717 56.8359C60.9791 55.289 66.5866 53.7422 72.3639 52.1484C72.4606 48.668 72.5573 45.1875 72.6569 41.6015C71.11 41.6015 69.5631 41.6015 67.9694 41.6015C66.7761 40.4082 66.6619 40.2442 66.6347 38.6743C66.637 38.4469 66.6394 38.2195 66.6419 37.9852C66.6407 37.7491 66.6396 37.5129 66.6385 37.2696C66.6377 36.7712 66.6398 36.2727 66.6447 35.7744C66.651 35.0122 66.6448 34.2509 66.6373 33.4888C66.6381 33.004 66.6396 32.5191 66.6419 32.0343C66.6395 31.8069 66.6371 31.5795 66.6347 31.3452C66.6512 30.3939 66.7388 29.696 67.2018 28.8583C68.4319 28.1527 69.6399 28.2744 71.0318 28.3035C71.3293 28.3052 71.6267 28.3068 71.9332 28.3085C72.8826 28.3151 73.8316 28.3298 74.7809 28.3447C75.4248 28.3506 76.0687 28.3559 76.7127 28.3607C78.2905 28.3736 79.8682 28.3933 81.4459 28.418C81.4398 28.1933 81.4337 27.9687 81.4273 27.7373C81.403 26.7191 81.3877 25.701 81.3727 24.6826C81.3629 24.3291 81.3531 23.9756 81.3429 23.6114C81.3392 23.2715 81.3354 22.9317 81.3315 22.5815C81.3254 22.2685 81.3192 21.9555 81.3129 21.633C81.4459 20.8008 81.4459 20.8008 81.8422 20.1081C83.0863 19.3394 84.3382 19.5062 85.7672 19.5557C86.0554 19.5609 86.3435 19.5662 86.6404 19.5717C87.3506 19.5855 88.0602 19.6047 88.7702 19.6289C88.7676 19.4003 88.7649 19.1716 88.7623 18.9361C88.7388 16.7808 88.7209 14.6255 88.7094 12.4701C88.7033 11.362 88.695 10.254 88.6817 9.14596C88.669 8.07649 88.662 7.00712 88.659 5.93758C88.6568 5.52968 88.6526 5.12179 88.6463 4.71393C88.6377 4.14241 88.6373 3.57078 88.6371 2.9992C88.6345 2.67391 88.6319 2.34863 88.6292 2.01348C88.9895 -0.137949 90.5892 -0.17454 92.4506 -0.155653Z" fill="#2B5582"/>
<path d="M77.0508 41.6016C95.0332 41.6016 113.016 41.6016 131.543 41.6016C131.543 73.0225 131.543 104.443 131.543 136.816C127.096 136.816 122.648 136.816 118.066 136.816C118.066 131.499 118.066 126.182 118.066 120.703C119.033 120.606 120 120.51 120.996 120.41C121.383 120.313 121.77 120.217 122.168 120.117C122.168 119.054 122.168 117.99 122.168 116.895C121.206 116.654 120.549 116.565 119.582 116.564C119.298 116.564 119.014 116.563 118.722 116.562C118.413 116.562 118.103 116.563 117.784 116.564C117.457 116.563 117.129 116.563 116.792 116.562C115.709 116.561 114.626 116.562 113.543 116.563C112.791 116.562 112.039 116.562 111.288 116.562C109.712 116.561 108.137 116.562 106.561 116.563C104.74 116.565 102.918 116.564 101.097 116.563C99.344 116.561 97.5914 116.561 95.8388 116.562C95.093 116.563 94.3471 116.562 93.6013 116.562C92.5604 116.561 91.5195 116.562 90.4786 116.564C90.1686 116.563 89.8586 116.562 89.5391 116.562C89.2561 116.563 88.9731 116.564 88.6816 116.564C88.4354 116.564 88.1893 116.565 87.9357 116.565C87.2505 116.577 87.2505 116.577 86.4258 116.895C86.4258 117.958 86.4258 119.021 86.4258 120.117C87.6626 120.567 87.6626 120.567 90.5273 120.703C90.5273 126.021 90.5273 131.338 90.5273 136.816C86.0801 136.816 81.6328 136.816 77.0508 136.816C77.0508 105.396 77.0508 73.9746 77.0508 41.6016Z" fill="#E9F3FF"/>
<path d="M33.3119 38.4179C33.6046 38.534 33.8973 38.65 34.1989 38.7696C35.129 39.1388 36.0584 39.5096 36.9878 39.8805C37.5973 40.1224 38.2069 40.3643 38.8165 40.606C42.7831 42.1813 46.7373 43.7861 50.6841 45.4103C50.7047 47.7588 50.7201 50.1073 50.7296 52.456C50.7341 53.5472 50.7403 54.6383 50.7504 55.7295C50.8635 68.2882 48.5343 78.8108 39.5512 88.1837C37.241 90.5048 34.7219 92.3501 31.9341 94.0431C31.7512 94.1557 31.5684 94.2684 31.38 94.3844C28.5865 96.07 28.5865 96.07 27.1447 96.1156C26.4061 95.9127 25.8542 95.6096 25.1958 95.215C24.8646 95.0333 24.5334 94.8517 24.1921 94.6645C14.8188 89.3959 8.59416 81.3804 5.57716 71.108C4.61334 67.4685 4.30906 63.8958 4.33777 60.1445C4.33887 59.7165 4.3397 59.2884 4.34028 58.8603C4.34249 57.7473 4.34822 56.6343 4.35476 55.5213C4.36081 54.3801 4.36344 53.2389 4.36638 52.0976C4.37262 49.8685 4.38258 47.6394 4.39499 45.4103C6.34059 44.5091 8.2919 43.6522 10.2921 42.88C10.5338 42.7858 10.7754 42.6916 11.0244 42.5945C12.3356 42.0838 13.6485 41.5775 14.9614 41.0709C15.4989 40.8633 16.0363 40.6557 16.5738 40.4481C16.8374 40.3464 17.1011 40.2446 17.3727 40.1398C18.9272 39.5377 20.4706 38.9146 22.0074 38.2692C22.3509 38.1278 22.6944 37.9864 23.0482 37.8408C23.6652 37.5858 24.2795 37.3243 24.8903 37.0547C25.1629 36.9438 25.4356 36.8328 25.7165 36.7185C25.9438 36.621 26.1711 36.5235 26.4053 36.423C28.6951 36.165 31.2222 37.5817 33.3119 38.4179Z" fill="#13B440"/>
<path d="M72.6562 65.918C72.6562 78.6797 72.6562 91.4414 72.6562 104.59C69.8114 104.608 66.9665 104.625 64.0354 104.644C62.237 104.655 60.4385 104.667 58.6401 104.68C55.7833 104.699 52.9265 104.718 50.0697 104.736C47.9893 104.748 45.909 104.762 43.8286 104.776C42.7268 104.784 41.6249 104.791 40.523 104.798C39.294 104.804 38.0649 104.813 36.8359 104.823C36.4692 104.824 36.1025 104.826 35.7248 104.828C35.3908 104.831 35.0568 104.834 34.7127 104.836C34.4218 104.838 34.131 104.84 33.8313 104.842C33.0662 104.853 33.0662 104.853 32.2266 105.176C32.2266 106.239 32.2266 107.303 32.2266 108.398C33.9965 108.988 35.9309 108.868 37.793 108.984C37.793 118.169 37.793 127.354 37.793 136.816C33.3457 136.816 28.8984 136.816 24.3164 136.816C24.3164 124.538 24.3164 112.26 24.3164 99.6094C24.9932 99.8027 25.6699 99.9961 26.3672 100.195C28.2318 100.359 29.3562 100.039 30.9814 99.1516C31.2873 98.9903 31.2873 98.9903 31.5994 98.8257C32.011 98.6069 32.4213 98.3857 32.8302 98.162C33.323 97.8928 33.8204 97.6322 34.3185 97.3732C43.1497 92.5716 49.1377 84.2793 52.4929 75.0023C52.5833 74.7619 52.6738 74.5215 52.7669 74.2739C53.0404 73.532 53.0404 73.532 53.2334 72.7369C53.5755 71.5774 53.8139 70.823 54.8972 70.2114C55.8125 69.9096 56.7154 69.6985 57.6599 69.5068C58.3489 69.3451 59.0378 69.1834 59.7267 69.0216C60.0752 68.9446 60.4237 68.8675 60.7827 68.7881C62.3528 68.4335 63.9051 68.0168 65.4602 67.6025C65.9846 67.4664 66.5092 67.3306 67.0338 67.1951C68.3932 66.8433 69.7448 66.4664 71.0953 66.0819C71.7773 65.918 71.7773 65.918 72.6562 65.918Z" fill="#B3E7F2"/>
<path d="M41.8945 108.984C52.1426 108.984 62.3906 108.984 72.9492 108.984C72.9492 118.169 72.9492 127.354 72.9492 136.816C62.7012 136.816 52.4531 136.816 41.8945 136.816C41.8945 127.632 41.8945 118.447 41.8945 108.984Z" fill="#E6EAEE"/>
<path d="M4.39453 141.211C50.9941 141.211 97.5937 141.211 145.605 141.211C145.605 142.661 145.605 144.111 145.605 145.605C99.0059 145.605 52.4063 145.605 4.39453 145.605C4.39453 144.155 4.39453 142.705 4.39453 141.211Z" fill="#B3E7F2"/>
<path d="M71.1914 32.8125C93.041 32.8125 114.891 32.8125 137.402 32.8125C137.402 34.2627 137.402 35.7129 137.402 37.207C115.553 37.207 93.7031 37.207 71.1914 37.207C71.1914 35.7568 71.1914 34.3066 71.1914 32.8125Z" fill="#B3E7F2"/>
<path d="M112.236 95.6658C112.524 95.6661 112.812 95.6663 113.109 95.6666C113.718 95.6684 114.326 95.673 114.935 95.6802C115.867 95.6909 116.798 95.6923 117.73 95.6921C118.321 95.695 118.913 95.6984 119.505 95.7024C119.783 95.7031 120.062 95.7037 120.349 95.7044C120.609 95.7081 120.869 95.7119 121.137 95.7157C121.365 95.718 121.593 95.7202 121.828 95.7225C122.548 95.8114 123.02 96.0051 123.634 96.3868C123.981 97.082 123.968 97.5135 123.974 98.2893C123.977 98.5621 123.98 98.8349 123.983 99.1159C123.984 99.4113 123.985 99.7068 123.986 100.011C123.988 100.314 123.99 100.617 123.991 100.928C123.994 101.569 123.996 102.211 123.997 102.852C124 103.834 124.009 104.816 124.018 105.799C124.02 106.421 124.022 107.043 124.023 107.665C124.027 107.96 124.03 108.255 124.034 108.558C124.033 108.832 124.032 109.106 124.031 109.388C124.033 109.749 124.033 109.749 124.034 110.118C123.901 110.892 123.655 111.139 123.048 111.621C122.368 111.961 121.961 111.956 121.204 111.966C120.944 111.97 120.684 111.973 120.416 111.977C120.134 111.98 119.852 111.982 119.562 111.984C119.273 111.986 118.984 111.989 118.686 111.991C118.074 111.995 117.462 111.998 116.849 112.001C115.913 112.006 114.976 112.018 114.039 112.031C113.445 112.034 112.85 112.037 112.256 112.039C111.835 112.047 111.835 112.047 111.406 112.054C110.296 112.051 109.507 112.034 108.516 111.513C107.855 110.269 107.94 109.044 107.951 107.657C107.95 107.356 107.949 107.055 107.947 106.744C107.947 106.108 107.949 105.472 107.954 104.835C107.96 103.861 107.954 102.887 107.946 101.913C107.947 101.295 107.949 100.676 107.951 100.058C107.948 99.7666 107.946 99.4751 107.944 99.1748C107.959 98.0379 107.978 97.2143 108.517 96.2024C109.726 95.5647 110.89 95.6455 112.236 95.6658Z" fill="#2B5582"/>
<path d="M88.798 95.6658C89.0862 95.6661 89.3744 95.6663 89.6713 95.6666C90.2801 95.6684 90.8888 95.673 91.4975 95.6802C92.4292 95.6909 93.3606 95.6923 94.2923 95.6921C94.884 95.695 95.4756 95.6984 96.0673 95.7024C96.3459 95.7031 96.6246 95.7037 96.9117 95.7044C97.1718 95.7081 97.4318 95.7119 97.6998 95.7157C97.9279 95.718 98.1559 95.7202 98.3909 95.7225C99.11 95.8114 99.5826 96.0051 100.196 96.3868C100.544 97.082 100.53 97.5135 100.536 98.2893C100.539 98.5621 100.542 98.8349 100.545 99.1159C100.546 99.4113 100.548 99.7068 100.549 100.011C100.55 100.314 100.552 100.617 100.554 100.928C100.557 101.569 100.559 102.211 100.56 102.852C100.563 103.834 100.572 104.816 100.581 105.799C100.583 106.421 100.584 107.043 100.585 107.665C100.589 107.96 100.593 108.255 100.596 108.558C100.596 108.832 100.595 109.106 100.594 109.388C100.595 109.749 100.595 109.749 100.597 110.118C100.463 110.892 100.217 111.139 99.6104 111.621C98.9305 111.961 98.5235 111.956 97.7663 111.966C97.5062 111.97 97.2461 111.973 96.9781 111.977C96.6964 111.98 96.4147 111.982 96.1245 111.984C95.8355 111.986 95.5465 111.989 95.2487 111.991C94.6365 111.995 94.0242 111.998 93.412 112.001C92.4751 112.006 91.5384 112.018 90.6016 112.031C90.0073 112.034 89.4129 112.037 88.8186 112.039C88.3979 112.047 88.3979 112.047 87.9686 112.054C86.8588 112.051 86.0695 112.034 85.0785 111.513C84.4178 110.269 84.5021 109.044 84.5133 107.657C84.5122 107.356 84.5111 107.055 84.5099 106.744C84.5091 106.108 84.5113 105.472 84.5162 104.835C84.5225 103.861 84.5163 102.887 84.5088 101.913C84.5095 101.295 84.511 100.676 84.5133 100.058C84.511 99.7666 84.5086 99.4751 84.5061 99.1748C84.5216 98.0379 84.5402 97.2143 85.0798 96.2024C86.2884 95.5647 87.4524 95.6455 88.798 95.6658Z" fill="#2B5582"/>
<path d="M112.236 72.2283C112.524 72.2286 112.812 72.2288 113.109 72.2291C113.718 72.2309 114.326 72.2355 114.935 72.2427C115.867 72.2534 116.798 72.2548 117.73 72.2546C118.321 72.2575 118.913 72.2609 119.505 72.2649C119.783 72.2656 120.062 72.2662 120.349 72.2669C120.609 72.2706 120.869 72.2744 121.137 72.2782C121.365 72.2805 121.593 72.2827 121.828 72.285C122.548 72.3739 123.02 72.5676 123.634 72.9493C123.981 73.6445 123.968 74.076 123.974 74.8518C123.977 75.1246 123.98 75.3974 123.983 75.6784C123.984 75.9738 123.985 76.2693 123.986 76.5736C123.988 76.8763 123.99 77.179 123.991 77.4909C123.994 78.132 123.996 78.7731 123.997 79.4141C124 80.3966 124.009 81.379 124.018 82.3615C124.02 82.9835 124.022 83.6054 124.023 84.2274C124.027 84.5222 124.03 84.8171 124.034 85.1208C124.033 85.3945 124.032 85.6682 124.031 85.9503C124.033 86.3116 124.033 86.3116 124.034 86.6802C123.901 87.4543 123.655 87.7013 123.048 88.1836C122.368 88.5236 121.961 88.519 121.204 88.5285C120.944 88.5322 120.684 88.536 120.416 88.5399C120.134 88.542 119.852 88.5442 119.562 88.5464C119.273 88.5488 118.984 88.5512 118.686 88.5536C118.074 88.5576 117.462 88.5608 116.849 88.5631C115.913 88.5681 114.976 88.581 114.039 88.5939C113.445 88.5969 112.85 88.5994 112.256 88.6014C111.835 88.6091 111.835 88.6091 111.406 88.6169C110.296 88.6133 109.507 88.5968 108.516 88.0757C107.855 86.8319 107.94 85.6063 107.951 84.2194C107.95 83.9182 107.949 83.617 107.947 83.3067C107.947 82.6704 107.949 82.034 107.954 81.3977C107.96 80.4235 107.954 79.4499 107.946 78.4756C107.947 77.8573 107.949 77.2389 107.951 76.6205C107.948 76.3291 107.946 76.0376 107.944 75.7373C107.959 74.6004 107.978 73.7768 108.517 72.7649C109.726 72.1272 110.89 72.208 112.236 72.2283Z" fill="#2B5582"/>
<path d="M88.798 72.2283C89.0862 72.2286 89.3744 72.2288 89.6713 72.2291C90.2801 72.2309 90.8888 72.2355 91.4975 72.2427C92.4292 72.2534 93.3606 72.2548 94.2923 72.2546C94.884 72.2575 95.4756 72.2609 96.0673 72.2649C96.3459 72.2656 96.6246 72.2662 96.9117 72.2669C97.1718 72.2706 97.4318 72.2744 97.6998 72.2782C97.9279 72.2805 98.1559 72.2827 98.3909 72.285C99.11 72.3739 99.5826 72.5676 100.196 72.9493C100.544 73.6445 100.53 74.076 100.536 74.8518C100.539 75.1246 100.542 75.3974 100.545 75.6784C100.546 75.9738 100.548 76.2693 100.549 76.5736C100.55 76.8763 100.552 77.179 100.554 77.4909C100.557 78.132 100.559 78.7731 100.56 79.4141C100.563 80.3966 100.572 81.379 100.581 82.3615C100.583 82.9835 100.584 83.6054 100.585 84.2274C100.589 84.5222 100.593 84.8171 100.596 85.1208C100.596 85.3945 100.595 85.6682 100.594 85.9503C100.595 86.3116 100.595 86.3116 100.597 86.6802C100.463 87.4543 100.217 87.7013 99.6104 88.1836C98.9305 88.5236 98.5235 88.519 97.7663 88.5285C97.5062 88.5322 97.2461 88.536 96.9781 88.5399C96.6964 88.542 96.4147 88.5442 96.1245 88.5464C95.8355 88.5488 95.5465 88.5512 95.2487 88.5536C94.6365 88.5576 94.0242 88.5608 93.412 88.5631C92.4751 88.5681 91.5384 88.581 90.6016 88.5939C90.0073 88.5969 89.4129 88.5994 88.8186 88.6014C88.3979 88.6091 88.3979 88.6091 87.9686 88.6169C86.8588 88.6133 86.0695 88.5968 85.0785 88.0757C84.4178 86.8319 84.5021 85.6063 84.5133 84.2194C84.5122 83.9182 84.5111 83.617 84.5099 83.3067C84.5091 82.6704 84.5113 82.034 84.5162 81.3977C84.5225 80.4235 84.5163 79.4499 84.5088 78.4756C84.5095 77.8573 84.511 77.2389 84.5133 76.6205C84.511 76.3291 84.5086 76.0376 84.5061 75.7373C84.5216 74.6004 84.5402 73.7768 85.0798 72.7649C86.2884 72.1272 87.4524 72.208 88.798 72.2283Z" fill="#2B5582"/>
<path d="M112.236 48.7908C112.524 48.7911 112.812 48.7913 113.109 48.7916C113.718 48.7934 114.326 48.798 114.935 48.8052C115.867 48.8159 116.798 48.8173 117.73 48.8171C118.321 48.82 118.913 48.8234 119.505 48.8274C119.783 48.8281 120.062 48.8287 120.349 48.8294C120.609 48.8331 120.869 48.8369 121.137 48.8407C121.365 48.843 121.593 48.8452 121.828 48.8475C122.548 48.9364 123.02 49.1301 123.634 49.5118C123.981 50.207 123.968 50.6385 123.974 51.4143C123.977 51.6871 123.98 51.9599 123.983 52.2409C123.984 52.5363 123.985 52.8318 123.986 53.1361C123.988 53.4388 123.99 53.7415 123.991 54.0534C123.994 54.6945 123.996 55.3356 123.997 55.9766C124 56.9591 124.009 57.9415 124.018 58.924C124.02 59.546 124.022 60.1679 124.023 60.7899C124.027 61.0847 124.03 61.3796 124.034 61.6833C124.033 61.957 124.032 62.2307 124.031 62.5128C124.033 62.8741 124.033 62.8741 124.034 63.2427C123.901 64.0168 123.655 64.2638 123.048 64.7461C122.368 65.0861 121.961 65.0815 121.204 65.091C120.944 65.0947 120.684 65.0985 120.416 65.1024C120.134 65.1045 119.852 65.1067 119.562 65.1089C119.273 65.1113 118.984 65.1137 118.686 65.1161C118.074 65.1201 117.462 65.1233 116.849 65.1256C115.913 65.1306 114.976 65.1435 114.039 65.1564C113.445 65.1594 112.85 65.1619 112.256 65.1639C111.835 65.1716 111.835 65.1716 111.406 65.1794C110.296 65.1758 109.507 65.1593 108.516 64.6382C107.855 63.3944 107.94 62.1688 107.951 60.7819C107.95 60.4807 107.949 60.1795 107.947 59.8692C107.947 59.2329 107.949 58.5965 107.954 57.9602C107.96 56.986 107.954 56.0124 107.946 55.0381C107.947 54.4198 107.949 53.8014 107.951 53.183C107.948 52.8916 107.946 52.6001 107.944 52.2998C107.959 51.1629 107.978 50.3393 108.517 49.3274C109.726 48.6897 110.89 48.7705 112.236 48.7908Z" fill="#2B5582"/>
<path d="M88.798 48.7908C89.0862 48.7911 89.3744 48.7913 89.6713 48.7916C90.2801 48.7934 90.8888 48.798 91.4975 48.8052C92.4292 48.8159 93.3606 48.8173 94.2923 48.8171C94.884 48.82 95.4756 48.8234 96.0673 48.8274C96.3459 48.8281 96.6246 48.8287 96.9117 48.8294C97.1718 48.8331 97.4318 48.8369 97.6998 48.8407C97.9279 48.843 98.1559 48.8452 98.3909 48.8475C99.11 48.9364 99.5826 49.1301 100.196 49.5118C100.544 50.207 100.53 50.6385 100.536 51.4143C100.539 51.6871 100.542 51.9599 100.545 52.2409C100.546 52.5363 100.548 52.8318 100.549 53.1361C100.55 53.4388 100.552 53.7415 100.554 54.0534C100.557 54.6945 100.559 55.3356 100.56 55.9766C100.563 56.9591 100.572 57.9415 100.581 58.924C100.583 59.546 100.584 60.1679 100.585 60.7899C100.589 61.0847 100.593 61.3796 100.596 61.6833C100.596 61.957 100.595 62.2307 100.594 62.5128C100.595 62.8741 100.595 62.8741 100.597 63.2427C100.463 64.0168 100.217 64.2638 99.6104 64.7461C98.9305 65.0861 98.5235 65.0815 97.7663 65.091C97.5062 65.0947 97.2461 65.0985 96.9781 65.1024C96.6964 65.1045 96.4147 65.1067 96.1245 65.1089C95.8355 65.1113 95.5465 65.1137 95.2487 65.1161C94.6365 65.1201 94.0242 65.1233 93.412 65.1256C92.4751 65.1306 91.5384 65.1435 90.6016 65.1564C90.0073 65.1594 89.4129 65.1619 88.8186 65.1639C88.3979 65.1716 88.3979 65.1716 87.9686 65.1794C86.8588 65.1758 86.0695 65.1593 85.0785 64.6382C84.4178 63.3944 84.5021 62.1688 84.5133 60.7819C84.5122 60.4807 84.5111 60.1795 84.5099 59.8692C84.5091 59.2329 84.5113 58.5965 84.5162 57.9602C84.5225 56.986 84.5163 56.0124 84.5088 55.0381C84.5095 54.4198 84.511 53.8014 84.5133 53.183C84.511 52.8916 84.5086 52.6001 84.5061 52.2998C84.5216 51.1629 84.5402 50.3393 85.0798 49.3274C86.2884 48.6897 87.4524 48.7705 88.798 48.7908Z" fill="#2B5582"/>
<path d="M85.8398 24.0234C98.0215 24.0234 110.203 24.0234 122.754 24.0234C122.754 25.4736 122.754 26.9238 122.754 28.418C110.572 28.418 98.3906 28.418 85.8398 28.418C85.8398 26.9678 85.8398 25.5176 85.8398 24.0234Z" fill="#E9F3FF"/>
<path d="M106.348 120.703C108.861 120.703 111.375 120.703 113.965 120.703C113.965 126.021 113.965 131.338 113.965 136.816C111.451 136.816 108.938 136.816 106.348 136.816C106.348 131.499 106.348 126.182 106.348 120.703Z" fill="#99C2F4"/>
<path d="M94.6289 120.703C97.1426 120.703 99.6562 120.703 102.246 120.703C102.246 126.021 102.246 131.338 102.246 136.816C99.7324 136.816 97.2188 136.816 94.6289 136.816C94.6289 131.499 94.6289 126.182 94.6289 120.703Z" fill="#99C2F4"/>
<path d="M36.0352 59.1797C36.7119 59.7598 37.3887 60.3398 38.0859 60.9375C37.5599 61.9895 37.1617 62.5266 36.3587 63.3451C36.0066 63.7056 36.0066 63.7056 35.6473 64.0735C35.3931 64.3302 35.1389 64.5869 34.877 64.8514C34.6154 65.1163 34.3538 65.3813 34.0842 65.6543C33.5304 66.2136 32.9759 66.7721 32.4204 67.3297C31.7097 68.0437 31.0046 68.7628 30.3007 69.4834C29.6266 70.171 28.9464 70.8524 28.2669 71.5347C28.0151 71.7938 27.7632 72.0529 27.5038 72.3198C27.2653 72.5565 27.0269 72.7932 26.7812 73.0371C26.5735 73.2469 26.3657 73.4568 26.1517 73.673C25.2848 74.2585 24.7569 74.2515 23.7305 74.1211C23.0795 73.6239 22.5747 73.1717 22.0207 72.583C21.8671 72.4269 21.7136 72.2709 21.5553 72.1101C21.0676 71.6125 20.5863 71.1092 20.105 70.6055C19.7747 70.2663 19.4439 69.9276 19.1128 69.5892C18.3035 68.7606 17.5 67.9267 16.6992 67.0898C16.9707 66.7455 17.2461 66.4043 17.5232 66.0645C17.6761 65.8741 17.8291 65.6838 17.9867 65.4877C18.457 65.0391 18.457 65.0391 19.3359 65.0391C19.7797 65.4109 19.7797 65.4109 20.2469 65.926C20.4199 66.1097 20.5928 66.2934 20.771 66.4827C21.13 66.8724 21.4871 67.2637 21.8422 67.6569C22.6631 68.5231 23.3157 69.0856 24.4125 69.5812C26.0467 69.357 26.8605 68.3842 27.9904 67.2326C28.4436 66.7708 28.9039 66.3171 29.3658 65.864C30.3881 64.858 31.3992 63.8413 32.4097 62.8235C32.7632 62.4685 33.1168 62.1135 33.4705 61.7586C34.3262 60.8998 35.1809 60.04 36.0352 59.1797Z" fill="#85E986"/>
<path d="M72.6562 57.1289C72.6562 58.4824 72.6562 59.8359 72.6562 61.2305C70.3285 61.9396 67.9895 62.5996 65.6433 63.2446C65.2712 63.347 64.899 63.4493 64.5156 63.5548C62.3358 64.1533 60.1554 64.7495 57.9712 65.332C57.6336 65.4232 57.6336 65.4232 57.2892 65.5161C56.4283 65.7434 55.6799 65.918 54.7852 65.918C54.8818 64.5645 54.9785 63.2109 55.0781 61.8164C56.8351 61.1264 58.5973 60.5836 60.4191 60.0929C60.6984 60.0168 60.9777 59.9407 61.2655 59.8623C61.8521 59.7028 62.4388 59.5438 63.0257 59.3853C63.9228 59.1429 64.8194 58.8988 65.716 58.6544C66.288 58.499 66.86 58.3438 67.432 58.1886C67.8326 58.0797 67.8326 58.0797 68.2413 57.9685C71.3548 57.1289 71.3548 57.1289 72.6562 57.1289Z" fill="#B3E7F2"/>
<path d="M93.1641 4.39453C94.7109 4.39453 96.2578 4.39453 97.8516 4.39453C97.8516 9.42187 97.8516 14.4492 97.8516 19.6289C96.3047 19.6289 94.7578 19.6289 93.1641 19.6289C93.1641 14.6016 93.1641 9.57422 93.1641 4.39453Z" fill="#B3E7F2"/>
<path d="M53.4764 127.892C53.7776 127.893 54.0788 127.893 54.3891 127.893C55.0254 127.895 55.6618 127.899 56.2981 127.907C57.2722 127.917 58.246 127.919 59.2202 127.919C59.8386 127.921 60.4569 127.925 61.0753 127.929C61.3667 127.93 61.6582 127.93 61.9585 127.931C62.3662 127.936 62.3662 127.936 62.7822 127.942C63.1399 127.946 63.1399 127.946 63.5048 127.949C64.2363 128.036 64.7098 128.224 65.3325 128.613C65.7792 129.507 65.6945 130.266 65.6254 131.25C65.1735 131.866 64.84 132.082 64.1606 132.422C63.7241 132.454 63.2863 132.468 62.8487 132.474C62.4409 132.479 62.4409 132.479 62.0249 132.485C61.5832 132.488 61.5832 132.488 61.1325 132.492C60.8305 132.494 60.5285 132.496 60.2173 132.499C59.5775 132.503 58.9376 132.506 58.2978 132.508C57.3184 132.513 56.3394 132.526 55.3601 132.539C54.7391 132.542 54.118 132.545 53.497 132.547C53.2037 132.552 52.9104 132.557 52.6082 132.562C50.586 132.556 50.586 132.556 49.6202 131.892C49.0277 130.943 49.0629 130.293 49.2192 129.199C50.227 127.592 51.776 127.868 53.4764 127.892Z" fill="#2B5582"/>
<path d="M112.207 100.195C114.721 100.195 117.234 100.195 119.824 100.195C119.824 102.612 119.824 105.029 119.824 107.52C117.311 107.52 114.797 107.52 112.207 107.52C112.207 105.103 112.207 102.686 112.207 100.195Z" fill="#99C2F4"/>
<path d="M88.7695 100.195C91.2832 100.195 93.7969 100.195 96.3867 100.195C96.3867 102.612 96.3867 105.029 96.3867 107.52C93.873 107.52 91.3594 107.52 88.7695 107.52C88.7695 105.103 88.7695 102.686 88.7695 100.195Z" fill="#99C2F4"/>
<path d="M112.207 76.7578C114.721 76.7578 117.234 76.7578 119.824 76.7578C119.824 79.1748 119.824 81.5918 119.824 84.082C117.311 84.082 114.797 84.082 112.207 84.082C112.207 81.665 112.207 79.248 112.207 76.7578Z" fill="#99C2F4"/>
<path d="M88.7695 76.7578C91.2832 76.7578 93.7969 76.7578 96.3867 76.7578C96.3867 79.1748 96.3867 81.5918 96.3867 84.082C93.873 84.082 91.3594 84.082 88.7695 84.082C88.7695 81.665 88.7695 79.248 88.7695 76.7578Z" fill="#99C2F4"/>
<path d="M112.207 53.3203C114.721 53.3203 117.234 53.3203 119.824 53.3203C119.824 55.7373 119.824 58.1543 119.824 60.6445C117.311 60.6445 114.797 60.6445 112.207 60.6445C112.207 58.2275 112.207 55.8105 112.207 53.3203Z" fill="#99C2F4"/>
<path d="M88.7695 53.3203C91.2832 53.3203 93.7969 53.3203 96.3867 53.3203C96.3867 55.7373 96.3867 58.1543 96.3867 60.6445C93.873 60.6445 91.3594 60.6445 88.7695 60.6445C88.7695 58.2275 88.7695 55.8105 88.7695 53.3203Z" fill="#99C2F4"/>
<path d="M110.742 13.1836C112.289 13.1836 113.836 13.1836 115.43 13.1836C115.43 15.3105 115.43 17.4375 115.43 19.6289C113.883 19.6289 112.336 19.6289 110.742 19.6289C110.742 17.502 110.742 15.375 110.742 13.1836Z" fill="#B3E7F2"/>
</g>
<defs>
<clipPath id="clip0_7006_5561">
<rect width="150" height="150" fill="white"/>
</clipPath>
</defs>
</svg>
