<svg width="80" height="80" viewBox="0 0 80 80" fill="none" xmlns="http://www.w3.org/2000/svg">
<g clip-path="url(#clip0_7047_10755)">
<path d="M80 40C80 17.9086 62.0914 0 40 0C17.9086 0 0 17.9086 0 40C0 62.0914 17.9086 80 40 80C62.0914 80 80 62.0914 80 40Z" fill="#F5F5F5"/>
<g clip-path="url(#clip1_7047_10755)">
<mask id="mask0_7047_10755" style="mask-type:luminance" maskUnits="userSpaceOnUse" x="15" y="15" width="50" height="50">
<path d="M64.755 15H15.25V65H64.755V15Z" fill="white"/>
</mask>
<g mask="url(#mask0_7047_10755)">
<path d="M45.7638 14.9481C45.884 14.9475 45.884 14.9475 46.0066 14.9469C46.1756 14.9467 46.3446 14.9474 46.5137 14.949C46.7722 14.9511 47.0305 14.949 47.289 14.9465C47.4534 14.9468 47.6178 14.9473 47.7823 14.9481C47.898 14.9469 47.898 14.9469 48.0161 14.9457C48.3416 14.9512 48.5586 14.9613 48.8242 15.1604C49.0478 15.4584 49.0437 15.628 49.0408 15.9997C49.0408 16.1844 49.0408 16.1844 49.0407 16.3729C49.0388 16.5068 49.0367 16.6407 49.0347 16.7745C49.0339 16.9119 49.0334 17.0493 49.033 17.1867C49.0315 17.5476 49.0278 17.9085 49.0235 18.2694C49.0195 18.6379 49.0178 19.0065 49.0158 19.375C49.0117 20.0977 49.0048 20.8203 48.9969 21.5429C49.4436 21.5429 49.8903 21.5429 50.3506 21.5429C50.3486 21.4474 50.3465 21.3518 50.3444 21.2533C50.3374 20.8981 50.333 20.5428 50.3293 20.1875C50.3274 20.0339 50.3247 19.8802 50.3214 19.7266C50.3167 19.5055 50.3145 19.2845 50.3128 19.0634C50.3108 18.9949 50.3088 18.9264 50.3067 18.8559C50.3066 18.5469 50.3342 18.3473 50.4945 18.0818C50.8419 17.8641 51.1687 17.8737 51.5652 17.8778C51.6853 17.8772 51.6853 17.8772 51.8079 17.8766C51.977 17.8764 52.146 17.8771 52.315 17.8787C52.5736 17.8808 52.8318 17.8787 53.0903 17.8762C53.2548 17.8765 53.4192 17.877 53.5836 17.8778C53.6608 17.877 53.7379 17.8762 53.8174 17.8754C54.1464 17.881 54.3722 17.905 54.6543 18.0818C54.8507 18.4072 54.8468 18.694 54.836 19.0634C54.8355 19.1343 54.8349 19.2053 54.8344 19.2785C54.8322 19.5044 54.8274 19.7301 54.8225 19.956C54.8205 20.1095 54.8187 20.263 54.8172 20.4164C54.8129 20.792 54.8062 21.1674 54.7983 21.5429C54.8875 21.5399 54.8875 21.5399 54.9785 21.5367C55.2488 21.5286 55.519 21.5235 55.7893 21.5185C55.883 21.5152 55.9765 21.512 56.073 21.5086C56.2085 21.5067 56.2085 21.5067 56.3468 21.5048C56.4298 21.5027 56.5129 21.5007 56.5985 21.4986C56.9171 21.5599 57.026 21.6703 57.2155 21.9336C57.2594 22.211 57.2594 22.211 57.2533 22.5271C57.2514 22.6971 57.2514 22.6971 57.2495 22.8704C57.2446 23.0472 57.2446 23.0472 57.2397 23.2275C57.2379 23.3468 57.2362 23.4662 57.2344 23.5891C57.2298 23.8837 57.2235 24.1781 57.2155 24.4726C57.2704 24.4717 57.3252 24.4709 57.3818 24.47C57.9527 24.4613 58.5236 24.4555 59.0945 24.4512C59.3076 24.4492 59.5207 24.4465 59.7338 24.4431C60.04 24.4384 60.3462 24.4362 60.6525 24.4345C60.7954 24.4314 60.7954 24.4314 60.9413 24.4284C61.5873 24.4281 61.5873 24.4281 61.9166 24.6209C62.1037 24.9609 62.1054 25.2741 62.1013 25.6533C62.1017 25.7296 62.1021 25.8059 62.1025 25.8845C62.1027 26.0457 62.102 26.2068 62.1004 26.3679C62.0983 26.6138 62.1004 26.8594 62.1029 27.1053C62.1026 27.2622 62.1021 27.419 62.1013 27.5759C62.1021 27.649 62.1029 27.7222 62.1037 27.7976C62.0942 28.3356 62.0254 28.4099 61.6632 28.8671C61.1527 28.8671 60.6422 28.8671 60.1162 28.8671C60.1162 39.3408 60.1162 49.8144 60.1162 60.6054C61.552 60.6054 62.9879 60.6054 64.4672 60.6054C64.795 60.9367 64.7921 61.0551 64.7975 61.5048C64.797 61.5856 64.7965 61.6665 64.796 61.7498C64.796 61.8333 64.7965 61.9167 64.7965 62.0026C64.797 62.179 64.7965 62.3553 64.795 62.5316C64.7936 62.8017 64.795 63.0716 64.797 63.3417C64.7965 63.513 64.7965 63.6843 64.796 63.8556C64.7965 63.9364 64.797 64.0173 64.7975 64.1006C64.7911 64.6491 64.7911 64.6491 64.6599 64.8748C64.3515 65.075 64.0233 65.04 63.6683 65.037C63.5439 65.0375 63.5439 65.0375 63.4172 65.038C63.1371 65.039 62.857 65.038 62.5769 65.037C62.375 65.0375 62.1732 65.038 61.9714 65.0385C61.4147 65.04 60.8582 65.039 60.3015 65.0385C59.702 65.0375 59.1025 65.0385 58.503 65.0395C57.3957 65.0405 56.2886 65.0405 55.1813 65.04C54.1586 65.039 53.1358 65.039 52.113 65.039C52.0452 65.039 51.9775 65.039 51.9077 65.0395C51.6326 65.0395 51.3576 65.0395 51.0825 65.0395C48.5007 65.0405 45.9189 65.0395 43.3371 65.038C41.0418 65.0365 38.7465 65.037 36.4513 65.038C33.8743 65.0395 31.2973 65.0405 28.7203 65.0395C28.4457 65.0395 28.1711 65.0395 27.8966 65.039C27.8289 65.039 27.7614 65.039 27.6917 65.039C26.6694 65.039 25.6472 65.039 24.6249 65.04C23.4629 65.041 22.3008 65.0405 21.1388 65.039C20.5454 65.038 19.952 65.038 19.3586 65.039C18.8162 65.0395 18.2737 65.0395 17.7312 65.0375C17.5343 65.0375 17.3373 65.0375 17.1404 65.038C16.874 65.039 16.6077 65.038 16.3413 65.037C16.2637 65.0375 16.1861 65.038 16.1061 65.039C15.5942 65.0335 15.5942 65.0335 15.3498 64.8748C15.1702 64.5655 15.2113 64.2044 15.2138 63.8556C15.2135 63.7721 15.2132 63.6887 15.213 63.6027C15.2128 63.4264 15.2133 63.2501 15.2145 63.0738C15.2161 62.8037 15.2145 62.5338 15.2127 62.2637C15.2129 62.0924 15.2132 61.9211 15.2138 61.7498C15.2132 61.669 15.2126 61.5881 15.212 61.5048C15.2188 60.95 15.2188 60.95 15.3616 60.7304C15.6266 60.5473 15.8332 60.5703 16.1522 60.5722C16.278 60.5722 16.4039 60.5722 16.5335 60.5722C16.6708 60.5737 16.8082 60.5753 16.9455 60.5768C17.086 60.5774 17.2265 60.5778 17.367 60.5781C17.7366 60.5792 18.1061 60.5821 18.4757 60.5853C18.8529 60.5883 19.2301 60.5896 19.6073 60.5911C20.3473 60.5943 21.0872 60.5993 21.8272 60.6054C21.8462 58.9034 21.8575 57.2014 21.8595 55.4992C21.8606 54.7088 21.8643 53.9185 21.8739 53.1281C21.8824 52.4389 21.8859 51.7498 21.8839 51.0605C21.883 50.6958 21.8844 50.3313 21.8915 49.9666C22.0082 48.398 22.0082 48.398 21.4407 47.0404C21.1656 46.8166 20.876 46.6708 20.5516 46.5337C20.2402 46.3762 20.0027 46.1326 19.7544 45.8899C19.623 45.7654 19.623 45.7654 19.4889 45.6385C19.3541 45.5061 19.3541 45.5061 19.2166 45.3711C19.1622 45.3181 19.1079 45.2652 19.0519 45.2106C16.8718 43.0552 15.3554 39.7939 15.2381 36.6941C15.2367 36.5566 15.2357 36.4192 15.2352 36.2817C15.2343 36.1682 15.2343 36.1682 15.2333 36.0524C15.2314 35.8044 15.2302 35.5563 15.2293 35.3083C15.2289 35.2232 15.2285 35.1381 15.2281 35.0505C15.2261 34.6011 15.2247 34.1517 15.2238 33.7023C15.2227 33.2383 15.2194 32.7743 15.2155 32.3103C15.213 31.953 15.2122 31.5957 15.2119 31.2384C15.2114 31.0673 15.2103 30.8961 15.2085 30.725C15.2061 30.4861 15.2062 30.2473 15.2069 30.0084C15.2056 29.9379 15.2044 29.8673 15.2031 29.7946C15.2065 29.4669 15.2284 29.2895 15.4275 29.0255C15.7239 28.8037 16.0449 28.6781 16.3877 28.549C16.4631 28.5196 16.5385 28.4902 16.6162 28.4599C16.8662 28.3627 17.1168 28.267 17.3674 28.1713C17.6334 28.0688 17.8992 27.966 18.1651 27.8632C18.3518 27.7909 18.5386 27.7188 18.7254 27.6468C19.4285 27.375 20.1271 27.093 20.8248 26.8076C21.1255 26.6855 21.4262 26.5635 21.727 26.4416C21.9218 26.3622 22.1163 26.2822 22.3105 26.2016C22.5838 26.0883 22.858 25.9773 23.1325 25.8669C23.2529 25.8159 23.2529 25.8159 23.3756 25.7639C24.2529 25.4166 24.9321 25.6097 25.7764 25.9623C25.8567 25.9948 25.9371 26.0272 26.0199 26.0607C26.2826 26.1671 26.5446 26.2751 26.8067 26.383C27.0835 26.4958 27.3605 26.6083 27.6376 26.7207C27.8283 26.7981 28.0189 26.8757 28.2095 26.9533C28.8775 27.225 29.5481 27.4889 30.2207 27.7487C30.4032 27.8194 30.5858 27.8902 30.7683 27.9609C31.031 28.0627 31.2937 28.1641 31.5569 28.2645C31.7998 28.3573 32.0421 28.4513 32.2844 28.5456C32.3559 28.5725 32.4274 28.5994 32.5011 28.6271C33.2124 28.9065 33.2124 28.9065 33.4299 29.2578C33.488 29.6121 33.4885 29.9628 33.4888 30.3213C33.4903 30.4131 33.4919 30.5048 33.4934 30.5994C33.4985 30.9415 33.5003 31.2837 33.5025 31.6259C33.5104 32.3913 33.5184 33.1567 33.5266 33.9453C35.3773 33.4296 37.2279 32.914 39.1346 32.3828C39.1665 31.2226 39.1984 30.0625 39.2313 28.8671C38.7208 28.8671 38.2102 28.8671 37.6842 28.8671C37.2904 28.4694 37.2528 28.4147 37.2437 27.8914C37.2445 27.8156 37.2453 27.7398 37.2461 27.6617C37.2458 27.583 37.2454 27.5043 37.245 27.4232C37.2447 27.257 37.2454 27.0909 37.2471 26.9248C37.2491 26.6707 37.2471 26.4169 37.2446 26.1629C37.2449 26.0013 37.2454 25.8397 37.2461 25.6781C37.2453 25.6023 37.2445 25.5265 37.2437 25.4484C37.2492 25.1313 37.2782 24.8986 37.4309 24.6194C37.8369 24.3842 38.2356 24.4248 38.6949 24.4345C38.7932 24.435 38.8913 24.4356 38.9925 24.4361C39.3058 24.4383 39.619 24.4432 39.9323 24.4482C40.1448 24.4502 40.3573 24.4519 40.5698 24.4535C41.0906 24.4578 41.6113 24.4644 42.132 24.4726C42.1299 24.3977 42.1279 24.3229 42.1258 24.2457C42.1178 23.9063 42.1128 23.567 42.1078 23.2275C42.1045 23.1097 42.1013 22.9918 42.098 22.8704C42.0967 22.7571 42.0955 22.6439 42.0942 22.5271C42.0922 22.4228 42.0901 22.3185 42.0881 22.211C42.132 21.9336 42.132 21.9336 42.2628 21.7027C42.6734 21.4464 43.0865 21.502 43.5582 21.5185C43.6533 21.5203 43.7484 21.522 43.8463 21.5239C44.0807 21.5285 44.3149 21.5349 44.5492 21.5429C44.5484 21.4667 44.5475 21.3905 44.5466 21.312C44.5388 20.5936 44.533 19.8751 44.5291 19.1567C44.5272 18.7873 44.5244 18.418 44.52 18.0486C44.5158 17.6921 44.5135 17.3357 44.5125 16.9791C44.5118 16.8432 44.5104 16.7072 44.5083 16.5713C44.5055 16.3808 44.5053 16.1902 44.5053 15.9997C44.5044 15.8913 44.5036 15.7828 44.5027 15.6711C44.6216 14.954 45.1495 14.9418 45.7638 14.9481Z" fill="#2B5582"/>
<path d="M40.6797 28.8672C46.6145 28.8672 52.5492 28.8672 58.6639 28.8672C58.6639 39.3408 58.6639 49.8144 58.6639 60.6054C57.1962 60.6054 55.7284 60.6054 54.2162 60.6054C54.2162 58.833 54.2162 57.0605 54.2162 55.2344C54.5353 55.2021 54.8543 55.1699 55.1831 55.1367C55.3107 55.1045 55.4384 55.0722 55.5698 55.039C55.5698 54.6845 55.5698 54.3301 55.5698 53.9648C55.2525 53.8847 55.0355 53.8549 54.7164 53.8548C54.6227 53.8545 54.529 53.8542 54.4326 53.8539C54.3304 53.8541 54.2283 53.8543 54.1231 53.8545C54.015 53.8544 53.907 53.8542 53.7957 53.854C53.4382 53.8536 53.0807 53.8539 52.7232 53.8542C52.4751 53.8541 52.2271 53.854 51.979 53.8539C51.4591 53.8538 50.9391 53.854 50.4192 53.8544C49.818 53.855 49.2168 53.8548 48.6156 53.8543C48.0372 53.8538 47.4587 53.8538 46.8803 53.8541C46.6342 53.8542 46.3881 53.8541 46.1419 53.8539C45.7984 53.8536 45.4548 53.854 45.1113 53.8545C45.009 53.8543 44.9067 53.8541 44.8012 53.8539C44.7079 53.8542 44.6144 53.8545 44.5182 53.8548C44.437 53.8548 44.3558 53.8548 44.2721 53.8549C44.0459 53.8591 44.0459 53.8591 43.7737 53.9648C43.7737 54.3193 43.7737 54.6738 43.7737 55.039C44.1819 55.1889 44.1819 55.1889 45.1274 55.2344C45.1274 57.0068 45.1274 58.7793 45.1274 60.6054C43.6596 60.6054 42.1919 60.6054 40.6797 60.6054C40.6797 50.1318 40.6797 39.6582 40.6797 28.8672Z" fill="#E9F3FF"/>
<path d="M26.2427 27.8059C26.3393 27.8446 26.4359 27.8833 26.5355 27.9231C26.8424 28.0462 27.1491 28.1698 27.4559 28.2934C27.657 28.3741 27.8582 28.4547 28.0594 28.5353C29.3685 29.0604 30.6735 29.5953 31.9761 30.1367C31.9829 30.9195 31.988 31.7024 31.9911 32.4852C31.9926 32.849 31.9946 33.2127 31.998 33.5764C32.0353 37.7627 31.2666 41.2702 28.3019 44.3945C27.5394 45.1682 26.708 45.7833 25.788 46.3476C25.7276 46.3852 25.6673 46.4227 25.6051 46.4614C24.6832 47.0233 24.6832 47.0233 24.2073 47.0385C23.9636 46.9708 23.7815 46.8698 23.5641 46.7382C23.4548 46.6777 23.3455 46.6171 23.2329 46.5548C20.1394 44.7986 18.085 42.1267 17.0893 38.7026C16.7712 37.4894 16.6708 36.2985 16.6803 35.0481C16.6807 34.9054 16.6809 34.7627 16.6811 34.62C16.6818 34.249 16.6837 33.878 16.6859 33.507C16.6879 33.1266 16.6888 32.7462 16.6897 32.3658C16.6918 31.6228 16.6951 30.8797 16.6992 30.1367C17.3413 29.8363 17.9853 29.5507 18.6454 29.2933C18.7252 29.2618 18.8049 29.2304 18.8871 29.1981C19.3198 29.0279 19.7532 28.8591 20.1865 28.6902C20.3638 28.621 20.5412 28.5518 20.7186 28.4826C20.8056 28.4487 20.8926 28.4148 20.9822 28.3799C21.4953 28.1792 22.0046 27.9715 22.5119 27.7563C22.6252 27.7092 22.7386 27.6621 22.8554 27.6135C23.059 27.5285 23.2618 27.4414 23.4633 27.3515C23.5533 27.3145 23.6432 27.2775 23.736 27.2394C23.811 27.2069 23.886 27.1744 23.9633 27.1409C24.719 27.0549 25.553 27.5271 26.2427 27.8059Z" fill="#13B440"/>
<path d="M39.2272 36.9726C39.2272 41.2265 39.2272 45.4804 39.2272 49.8632C38.2883 49.8691 37.3494 49.875 36.3821 49.8811C35.7885 49.8851 35.195 49.8891 34.6014 49.8932C33.6586 49.8996 32.7157 49.906 31.7729 49.9118C31.0863 49.916 30.3997 49.9205 29.7131 49.9254C29.3495 49.928 28.9858 49.9304 28.6222 49.9325C28.2166 49.9347 27.8109 49.9377 27.4053 49.9408C27.2843 49.9414 27.1633 49.9419 27.0386 49.9425C26.9283 49.9435 26.8181 49.9444 26.7046 49.9454C26.6086 49.946 26.5126 49.9467 26.4137 49.9473C26.1612 49.951 26.1612 49.951 25.8841 50.0585C25.8841 50.413 25.8841 50.7675 25.8841 51.1327C26.4682 51.3294 27.1066 51.2893 27.7212 51.328C27.7212 54.3896 27.7212 57.4511 27.7212 60.6054C26.2534 60.6054 24.7857 60.6054 23.2734 60.6054C23.2734 56.5126 23.2734 52.4198 23.2734 48.203C23.4968 48.2675 23.7202 48.332 23.9503 48.3984C24.5657 48.453 24.9368 48.3464 25.4731 48.0505C25.5741 47.9967 25.5741 47.9967 25.6771 47.9418C25.8129 47.8689 25.9483 47.7952 26.0833 47.7206C26.2459 47.6309 26.4101 47.544 26.5745 47.4577C29.4891 45.8571 31.4653 43.093 32.5726 40.0007C32.6025 39.9206 32.6323 39.8404 32.663 39.7579C32.7533 39.5106 32.7533 39.5106 32.817 39.2456C32.9299 38.8591 33.0086 38.6076 33.3662 38.4037C33.6682 38.3031 33.9662 38.2328 34.2779 38.1689C34.5053 38.115 34.7326 38.061 34.96 38.0071C35.075 37.9814 35.1901 37.9558 35.3085 37.9293C35.8267 37.8111 36.339 37.6722 36.8522 37.5341C37.0254 37.4887 37.1984 37.4435 37.3716 37.3983C37.8202 37.281 38.2664 37.1554 38.7121 37.0272C38.9371 36.9726 38.9371 36.9726 39.2272 36.9726Z" fill="#B3E7F2"/>
<path d="M29.0781 51.3281C32.4603 51.3281 35.8425 51.3281 39.3272 51.3281C39.3272 54.3896 39.3272 57.4511 39.3272 60.6054C35.945 60.6054 32.5628 60.6054 29.0781 60.6054C29.0781 57.5439 29.0781 54.4824 29.0781 51.3281Z" fill="#E6EAEE"/>
<path d="M16.7031 62.0703C32.0825 62.0703 47.4619 62.0703 63.3074 62.0703C63.3074 62.5537 63.3074 63.037 63.3074 63.5351C47.928 63.5351 32.5486 63.5351 16.7031 63.5351C16.7031 63.0517 16.7031 62.5683 16.7031 62.0703Z" fill="#B3E7F2"/>
<path d="M38.75 25.9375C45.9611 25.9375 53.1722 25.9375 60.6018 25.9375C60.6018 26.4209 60.6018 26.9043 60.6018 27.4024C53.3907 27.4024 46.1796 27.4024 38.75 27.4024C38.75 26.919 38.75 26.4356 38.75 25.9375Z" fill="#B3E7F2"/>
<path d="M52.2922 46.8885C52.3873 46.8886 52.4824 46.8887 52.5804 46.8888C52.7813 46.8894 52.9822 46.8909 53.1831 46.8934C53.4906 46.8969 53.798 46.8974 54.1055 46.8973C54.3008 46.8983 54.496 46.8994 54.6913 46.9007C54.7833 46.901 54.8752 46.9012 54.97 46.9014C55.0558 46.9027 55.1417 46.9039 55.2301 46.9052C55.3053 46.9059 55.3806 46.9067 55.4582 46.9074C55.6955 46.9371 55.8515 47.0017 56.054 47.1289C56.1688 47.3606 56.1641 47.5045 56.1663 47.763C56.1672 47.854 56.1682 47.9449 56.1691 48.0386C56.1695 48.1371 56.1699 48.2355 56.1703 48.337C56.1709 48.4379 56.1715 48.5388 56.172 48.6428C56.173 48.8564 56.1736 49.0701 56.1739 49.2838C56.1749 49.6113 56.1779 49.9388 56.1809 50.2663C56.1816 50.4736 56.1821 50.6809 56.1824 50.8883C56.1837 50.9865 56.1848 51.0848 56.1861 51.186C56.1858 51.2773 56.1855 51.3685 56.1852 51.4625C56.1857 51.583 56.1857 51.583 56.1862 51.7059C56.1422 51.9639 56.061 52.0462 55.8606 52.207C55.6363 52.3203 55.502 52.3188 55.252 52.3219C55.1662 52.3232 55.0803 52.3244 54.9919 52.3257C54.8989 52.3265 54.806 52.3272 54.7102 52.3279C54.6148 52.3287 54.5194 52.3295 54.4211 52.3303C54.2191 52.3317 54.017 52.3327 53.815 52.3335C53.5057 52.3352 53.1966 52.3394 52.8875 52.3438C52.6913 52.3447 52.4951 52.3456 52.299 52.3462C52.1601 52.3488 52.1601 52.3488 52.0185 52.3514C51.6522 52.3502 51.3917 52.3447 51.0646 52.171C50.8466 51.7564 50.8744 51.3479 50.8781 50.8856C50.8778 50.7852 50.8774 50.6848 50.877 50.5813C50.8767 50.3692 50.8775 50.1571 50.879 49.945C50.8811 49.6203 50.8791 49.2957 50.8766 48.971C50.8769 48.7649 50.8774 48.5587 50.8781 48.3526C50.8773 48.2555 50.8766 48.1583 50.8757 48.0582C50.8808 47.6792 50.887 47.4047 51.0651 47.0674C51.464 46.8548 51.8481 46.8818 52.2922 46.8885Z" fill="#2B5582"/>
<path d="M44.5578 46.8885C44.6529 46.8886 44.748 46.8887 44.8461 46.8888C45.0469 46.8894 45.2478 46.8909 45.4487 46.8934C45.7563 46.8969 46.0636 46.8974 46.3711 46.8973C46.5664 46.8983 46.7617 46.8994 46.9569 46.9007C47.0489 46.901 47.1409 46.9012 47.2356 46.9014C47.3215 46.9027 47.4073 46.9039 47.4957 46.9052C47.571 46.9059 47.6463 46.9067 47.7238 46.9074C47.9612 46.9371 48.1171 47.0017 48.3196 47.1289C48.4344 47.3606 48.4298 47.5045 48.4319 47.763C48.4328 47.854 48.4338 47.9449 48.4347 48.0386C48.4351 48.1371 48.4356 48.2355 48.436 48.337C48.4365 48.4379 48.4371 48.5388 48.4376 48.6428C48.4386 48.8564 48.4392 49.0701 48.4396 49.2838C48.4405 49.6113 48.4435 49.9388 48.4466 50.2663C48.4472 50.4736 48.4477 50.6809 48.448 50.8883C48.4493 50.9865 48.4505 51.0848 48.4517 51.186C48.4514 51.2773 48.4511 51.3685 48.4508 51.4625C48.4513 51.583 48.4513 51.583 48.4518 51.7059C48.4078 51.9639 48.3266 52.0462 48.1263 52.207C47.9019 52.3203 47.7676 52.3188 47.5176 52.3219C47.4318 52.3232 47.346 52.3244 47.2575 52.3257C47.1646 52.3265 47.0716 52.3272 46.9758 52.3279C46.8804 52.3287 46.7851 52.3295 46.6868 52.3303C46.4847 52.3317 46.2826 52.3327 46.0806 52.3335C45.7714 52.3352 45.4622 52.3394 45.1531 52.3438C44.9569 52.3447 44.7608 52.3456 44.5646 52.3462C44.4258 52.3488 44.4258 52.3488 44.2841 52.3514C43.9178 52.3502 43.6573 52.3447 43.3303 52.171C43.1122 51.7564 43.14 51.3479 43.1437 50.8856C43.1434 50.7852 43.143 50.6848 43.1426 50.5813C43.1423 50.3692 43.1431 50.1571 43.1447 49.945C43.1468 49.6203 43.1447 49.2957 43.1422 48.971C43.1425 48.7649 43.143 48.5587 43.1437 48.3526C43.1429 48.2555 43.1422 48.1583 43.1414 48.0582C43.1465 47.6792 43.1526 47.4047 43.3307 47.0674C43.7296 46.8548 44.1137 46.8818 44.5578 46.8885Z" fill="#2B5582"/>
<path d="M52.2922 39.076C52.3873 39.0761 52.4824 39.0762 52.5804 39.0763C52.7813 39.0769 52.9822 39.0784 53.1831 39.0809C53.4906 39.0844 53.798 39.0849 54.1055 39.0848C54.3008 39.0858 54.496 39.0869 54.6913 39.0882C54.7833 39.0885 54.8752 39.0887 54.97 39.0889C55.0558 39.0902 55.1417 39.0914 55.2301 39.0927C55.3053 39.0934 55.3806 39.0942 55.4582 39.0949C55.6955 39.1246 55.8515 39.1892 56.054 39.3164C56.1688 39.5481 56.1641 39.692 56.1663 39.9505C56.1672 40.0415 56.1682 40.1324 56.1691 40.2261C56.1695 40.3246 56.1699 40.423 56.1703 40.5245C56.1709 40.6254 56.1715 40.7263 56.172 40.8303C56.173 41.0439 56.1736 41.2576 56.1739 41.4713C56.1749 41.7988 56.1779 42.1263 56.1809 42.4538C56.1816 42.6611 56.1821 42.8684 56.1824 43.0758C56.1837 43.174 56.1848 43.2723 56.1861 43.3735C56.1858 43.4648 56.1855 43.556 56.1852 43.65C56.1857 43.7705 56.1857 43.7705 56.1862 43.8934C56.1422 44.1514 56.061 44.2337 55.8606 44.3945C55.6363 44.5078 55.502 44.5063 55.252 44.5094C55.1662 44.5107 55.0803 44.5119 54.9919 44.5132C54.8989 44.514 54.806 44.5147 54.7102 44.5154C54.6148 44.5162 54.5194 44.517 54.4211 44.5178C54.2191 44.5192 54.017 44.5202 53.815 44.521C53.5057 44.5227 53.1966 44.5269 52.8875 44.5313C52.6913 44.5322 52.4951 44.5331 52.299 44.5337C52.1601 44.5363 52.1601 44.5363 52.0185 44.5389C51.6522 44.5377 51.3917 44.5322 51.0646 44.3585C50.8466 43.9439 50.8744 43.5354 50.8781 43.0731C50.8778 42.9727 50.8774 42.8723 50.877 42.7688C50.8767 42.5567 50.8775 42.3446 50.879 42.1325C50.8811 41.8078 50.8791 41.4832 50.8766 41.1585C50.8769 40.9524 50.8774 40.7462 50.8781 40.5401C50.8773 40.443 50.8766 40.3458 50.8757 40.2457C50.8808 39.8667 50.887 39.5922 51.0651 39.2549C51.464 39.0423 51.8481 39.0693 52.2922 39.076Z" fill="#2B5582"/>
<path d="M44.5578 39.076C44.6529 39.0761 44.748 39.0762 44.8461 39.0763C45.0469 39.0769 45.2478 39.0784 45.4487 39.0809C45.7563 39.0844 46.0636 39.0849 46.3711 39.0848C46.5664 39.0858 46.7617 39.0869 46.9569 39.0882C47.0489 39.0885 47.1409 39.0887 47.2356 39.0889C47.3215 39.0902 47.4073 39.0914 47.4957 39.0927C47.571 39.0934 47.6463 39.0942 47.7238 39.0949C47.9612 39.1246 48.1171 39.1892 48.3196 39.3164C48.4344 39.5481 48.4298 39.692 48.4319 39.9505C48.4328 40.0415 48.4338 40.1324 48.4347 40.2261C48.4351 40.3246 48.4356 40.423 48.436 40.5245C48.4365 40.6254 48.4371 40.7263 48.4376 40.8303C48.4386 41.0439 48.4392 41.2576 48.4396 41.4713C48.4405 41.7988 48.4435 42.1263 48.4466 42.4538C48.4472 42.6611 48.4477 42.8684 48.448 43.0758C48.4493 43.174 48.4505 43.2723 48.4517 43.3735C48.4514 43.4648 48.4511 43.556 48.4508 43.65C48.4513 43.7705 48.4513 43.7705 48.4518 43.8934C48.4078 44.1514 48.3266 44.2337 48.1263 44.3945C47.9019 44.5078 47.7676 44.5063 47.5176 44.5094C47.4318 44.5107 47.346 44.5119 47.2575 44.5132C47.1646 44.514 47.0716 44.5147 46.9758 44.5154C46.8804 44.5162 46.7851 44.517 46.6868 44.5178C46.4847 44.5192 46.2826 44.5202 46.0806 44.521C45.7714 44.5227 45.4622 44.5269 45.1531 44.5313C44.9569 44.5322 44.7608 44.5331 44.5646 44.5337C44.4258 44.5363 44.4258 44.5363 44.2841 44.5389C43.9178 44.5377 43.6573 44.5322 43.3303 44.3585C43.1122 43.9439 43.14 43.5354 43.1437 43.0731C43.1434 42.9727 43.143 42.8723 43.1426 42.7688C43.1423 42.5567 43.1431 42.3446 43.1447 42.1325C43.1468 41.8078 43.1447 41.4832 43.1422 41.1585C43.1425 40.9524 43.143 40.7462 43.1437 40.5401C43.1429 40.443 43.1422 40.3458 43.1414 40.2457C43.1465 39.8667 43.1526 39.5922 43.3307 39.2549C43.7296 39.0423 44.1137 39.0693 44.5578 39.076Z" fill="#2B5582"/>
<path d="M52.2922 31.2635C52.3873 31.2636 52.4824 31.2637 52.5804 31.2638C52.7813 31.2644 52.9822 31.2659 53.1831 31.2684C53.4906 31.2719 53.798 31.2724 54.1055 31.2723C54.3008 31.2733 54.496 31.2744 54.6913 31.2757C54.7833 31.276 54.8752 31.2762 54.97 31.2764C55.0558 31.2777 55.1417 31.2789 55.2301 31.2802C55.3053 31.2809 55.3806 31.2817 55.4582 31.2824C55.6955 31.3121 55.8515 31.3767 56.054 31.5039C56.1688 31.7356 56.1641 31.8795 56.1663 32.138C56.1672 32.229 56.1682 32.3199 56.1691 32.4136C56.1695 32.5121 56.1699 32.6105 56.1703 32.712C56.1709 32.8129 56.1715 32.9138 56.172 33.0178C56.173 33.2314 56.1736 33.4451 56.1739 33.6588C56.1749 33.9863 56.1779 34.3138 56.1809 34.6413C56.1816 34.8486 56.1821 35.0559 56.1824 35.2633C56.1837 35.3615 56.1848 35.4598 56.1861 35.561C56.1858 35.6523 56.1855 35.7435 56.1852 35.8375C56.1857 35.958 56.1857 35.958 56.1862 36.0809C56.1422 36.3389 56.061 36.4212 55.8606 36.582C55.6363 36.6953 55.502 36.6938 55.252 36.6969C55.1662 36.6982 55.0803 36.6994 54.9919 36.7007C54.8989 36.7015 54.806 36.7022 54.7102 36.7029C54.6148 36.7037 54.5194 36.7045 54.4211 36.7053C54.2191 36.7067 54.017 36.7077 53.815 36.7085C53.5057 36.7102 53.1966 36.7144 52.8875 36.7188C52.6913 36.7197 52.4951 36.7206 52.299 36.7212C52.1601 36.7238 52.1601 36.7238 52.0185 36.7264C51.6522 36.7252 51.3917 36.7197 51.0646 36.546C50.8466 36.1314 50.8744 35.7229 50.8781 35.2606C50.8778 35.1602 50.8774 35.0598 50.877 34.9563C50.8767 34.7442 50.8775 34.5321 50.879 34.32C50.8811 33.9953 50.8791 33.6707 50.8766 33.346C50.8769 33.1399 50.8774 32.9337 50.8781 32.7276C50.8773 32.6305 50.8766 32.5333 50.8757 32.4332C50.8808 32.0542 50.887 31.7797 51.0651 31.4424C51.464 31.2298 51.8481 31.2568 52.2922 31.2635Z" fill="#2B5582"/>
<path d="M44.5578 31.2635C44.6529 31.2636 44.748 31.2637 44.8461 31.2638C45.0469 31.2644 45.2478 31.2659 45.4487 31.2684C45.7563 31.2719 46.0636 31.2724 46.3711 31.2723C46.5664 31.2733 46.7617 31.2744 46.9569 31.2757C47.0489 31.276 47.1409 31.2762 47.2356 31.2764C47.3215 31.2777 47.4073 31.2789 47.4957 31.2802C47.571 31.2809 47.6463 31.2817 47.7238 31.2824C47.9612 31.3121 48.1171 31.3767 48.3196 31.5039C48.4344 31.7356 48.4298 31.8795 48.4319 32.138C48.4328 32.229 48.4338 32.3199 48.4347 32.4136C48.4351 32.5121 48.4356 32.6105 48.436 32.712C48.4365 32.8129 48.4371 32.9138 48.4376 33.0178C48.4386 33.2314 48.4392 33.4451 48.4396 33.6588C48.4405 33.9863 48.4435 34.3138 48.4466 34.6413C48.4472 34.8486 48.4477 35.0559 48.448 35.2633C48.4493 35.3615 48.4505 35.4598 48.4517 35.561C48.4514 35.6523 48.4511 35.7435 48.4508 35.8375C48.4513 35.958 48.4513 35.958 48.4518 36.0809C48.4078 36.3389 48.3266 36.4212 48.1263 36.582C47.9019 36.6953 47.7676 36.6938 47.5176 36.6969C47.4318 36.6982 47.346 36.6994 47.2575 36.7007C47.1646 36.7015 47.0716 36.7022 46.9758 36.7029C46.8804 36.7037 46.7851 36.7045 46.6868 36.7053C46.4847 36.7067 46.2826 36.7077 46.0806 36.7085C45.7714 36.7102 45.4622 36.7144 45.1531 36.7188C44.9569 36.7197 44.7608 36.7206 44.5646 36.7212C44.4258 36.7238 44.4258 36.7238 44.2841 36.7264C43.9178 36.7252 43.6573 36.7197 43.3303 36.546C43.1122 36.1314 43.14 35.7229 43.1437 35.2606C43.1434 35.1602 43.143 35.0598 43.1426 34.9563C43.1423 34.7442 43.1431 34.5321 43.1447 34.32C43.1468 33.9953 43.1447 33.6707 43.1422 33.346C43.1425 33.1399 43.143 32.9337 43.1437 32.7276C43.1429 32.6305 43.1422 32.5333 43.1414 32.4332C43.1465 32.0542 43.1526 31.7797 43.3307 31.4424C43.7296 31.2298 44.1137 31.2568 44.5578 31.2635Z" fill="#2B5582"/>
<path d="M43.5781 23.0078C47.5985 23.0078 51.6188 23.0078 55.7609 23.0078C55.7609 23.4912 55.7609 23.9746 55.7609 24.4726C51.7406 24.4726 47.7203 24.4726 43.5781 24.4726C43.5781 23.9892 43.5781 23.5058 43.5781 23.0078Z" fill="#E9F3FF"/>
<path d="M50.3516 55.2344C51.1812 55.2344 52.0108 55.2344 52.8655 55.2344C52.8655 57.0068 52.8655 58.7793 52.8655 60.6054C52.0359 60.6054 51.2063 60.6054 50.3516 60.6054C50.3516 58.833 50.3516 57.0605 50.3516 55.2344Z" fill="#99C2F4"/>
<path d="M46.4844 55.2344C47.314 55.2344 48.1436 55.2344 48.9983 55.2344C48.9983 57.0068 48.9983 58.7793 48.9983 60.6054C48.1687 60.6054 47.3391 60.6054 46.4844 60.6054C46.4844 58.833 46.4844 57.0605 46.4844 55.2344Z" fill="#99C2F4"/>
<path d="M27.1471 34.7265C27.3705 34.9199 27.5938 35.1133 27.8239 35.3125C27.6504 35.6631 27.5189 35.8422 27.2539 36.115C27.1377 36.2352 27.1377 36.2352 27.0191 36.3578C26.9352 36.4434 26.8513 36.5289 26.7649 36.6171C26.6785 36.7054 26.5922 36.7937 26.5032 36.8847C26.3205 37.0712 26.1375 37.2574 25.9541 37.4432C25.7196 37.6812 25.4869 37.9209 25.2546 38.1611C25.0321 38.3903 24.8076 38.6175 24.5833 38.8449C24.5002 38.9312 24.4171 39.0176 24.3315 39.1066C24.2528 39.1855 24.1741 39.2644 24.093 39.3457C24.0244 39.4156 23.9559 39.4856 23.8853 39.5576C23.5992 39.7528 23.4249 39.7505 23.0862 39.707C22.8713 39.5413 22.7047 39.3906 22.5219 39.1943C22.4712 39.1423 22.4205 39.0903 22.3683 39.0367C22.2074 38.8708 22.0485 38.703 21.8896 38.5351C21.7806 38.4221 21.6715 38.3092 21.5622 38.1964C21.2951 37.9202 21.0299 37.6422 20.7656 37.3633C20.8552 37.2485 20.9461 37.1347 21.0376 37.0215C21.0881 36.958 21.1385 36.8946 21.1905 36.8292C21.3458 36.6797 21.3458 36.6797 21.6358 36.6797C21.7823 36.8036 21.7823 36.8036 21.9365 36.9753C21.9935 37.0365 22.0506 37.0978 22.1095 37.1609C22.228 37.2908 22.3458 37.4212 22.463 37.5523C22.7339 37.841 22.9493 38.0285 23.3113 38.1937C23.8506 38.119 24.1192 37.7947 24.4921 37.4108C24.6417 37.2569 24.7936 37.1057 24.946 36.9547C25.2834 36.6193 25.6171 36.2804 25.9506 35.9411C26.0673 35.8228 26.184 35.7045 26.3007 35.5862C26.5831 35.2999 26.8652 35.0133 27.1471 34.7265Z" fill="#85E986"/>
<path d="M39.234 34.0429C39.234 34.4941 39.234 34.9453 39.234 35.4101C38.4658 35.6465 37.6939 35.8665 36.9195 36.0815C36.7967 36.1156 36.6739 36.1497 36.5473 36.1849C35.8279 36.3844 35.1083 36.5831 34.3875 36.7773C34.276 36.8077 34.276 36.8077 34.1624 36.8387C33.8783 36.9145 33.6312 36.9726 33.3359 36.9726C33.3679 36.5215 33.3997 36.0703 33.4327 35.6054C34.0125 35.3754 34.5941 35.1945 35.1953 35.031C35.2875 35.0056 35.3797 34.9802 35.4747 34.9541C35.6683 34.9009 35.8619 34.8479 36.0556 34.7951C36.3517 34.7143 36.6476 34.6329 36.9435 34.5514C37.1323 34.4997 37.321 34.4479 37.5098 34.3962C37.642 34.3599 37.642 34.3599 37.7769 34.3228C38.8045 34.0429 38.8045 34.0429 39.234 34.0429Z" fill="#B3E7F2"/>
<path d="M46 16.4648C46.5105 16.4648 47.021 16.4648 47.547 16.4648C47.547 18.1406 47.547 19.8164 47.547 21.5429C47.0365 21.5429 46.526 21.5429 46 21.5429C46 19.8672 46 18.1914 46 16.4648Z" fill="#B3E7F2"/>
<path d="M32.8983 57.6308C32.9977 57.6308 33.0971 57.6309 33.1995 57.631C33.4095 57.6316 33.6196 57.6332 33.8296 57.6356C34.1511 57.6391 34.4725 57.6396 34.794 57.6395C34.9981 57.6405 35.2021 57.6416 35.4062 57.643C35.5024 57.6432 35.5986 57.6434 35.6977 57.6436C35.8323 57.6455 35.8323 57.6455 35.9695 57.6474C36.0876 57.6485 36.0876 57.6485 36.208 57.6497C36.4494 57.6788 36.6057 57.7412 36.8112 57.8711C36.9587 58.1689 36.9307 58.4221 36.9079 58.75C36.7588 58.9554 36.6487 59.0274 36.4244 59.1406C36.2804 59.1513 36.1359 59.1561 35.9915 59.1579C35.8569 59.1598 35.8569 59.1598 35.7196 59.1617C35.5738 59.1628 35.5738 59.1628 35.4251 59.1639C35.3254 59.1647 35.2257 59.1655 35.1231 59.1663C34.9119 59.1676 34.7007 59.1687 34.4895 59.1694C34.1663 59.1711 33.8432 59.1754 33.52 59.1797C33.315 59.1807 33.1101 59.1815 32.9051 59.1822C32.8083 59.1839 32.7115 59.1856 32.6118 59.1874C31.9444 59.1853 31.9444 59.1853 31.6256 58.9641C31.4301 58.6478 31.4417 58.4311 31.4933 58.0664C31.8259 57.5306 32.3372 57.6226 32.8983 57.6308Z" fill="#2B5582"/>
<path d="M52.2812 48.3984C53.1109 48.3984 53.9404 48.3984 54.7952 48.3984C54.7952 49.2041 54.7952 50.0097 54.7952 50.8398C53.9656 50.8398 53.136 50.8398 52.2812 50.8398C52.2812 50.0342 52.2812 49.2285 52.2812 48.3984Z" fill="#99C2F4"/>
<path d="M44.5469 48.3984C45.3765 48.3984 46.206 48.3984 47.0608 48.3984C47.0608 49.2041 47.0608 50.0097 47.0608 50.8398C46.2312 50.8398 45.4016 50.8398 44.5469 50.8398C44.5469 50.0342 44.5469 49.2285 44.5469 48.3984Z" fill="#99C2F4"/>
<path d="M52.2812 40.5859C53.1109 40.5859 53.9404 40.5859 54.7952 40.5859C54.7952 41.3916 54.7952 42.1972 54.7952 43.0273C53.9656 43.0273 53.136 43.0273 52.2812 43.0273C52.2812 42.2217 52.2812 41.416 52.2812 40.5859Z" fill="#99C2F4"/>
<path d="M44.5469 40.5859C45.3765 40.5859 46.206 40.5859 47.0608 40.5859C47.0608 41.3916 47.0608 42.1972 47.0608 43.0273C46.2312 43.0273 45.4016 43.0273 44.5469 43.0273C44.5469 42.2217 44.5469 41.416 44.5469 40.5859Z" fill="#99C2F4"/>
<path d="M52.2812 32.7734C53.1109 32.7734 53.9404 32.7734 54.7952 32.7734C54.7952 33.5791 54.7952 34.3847 54.7952 35.2148C53.9656 35.2148 53.136 35.2148 52.2812 35.2148C52.2812 34.4092 52.2812 33.6035 52.2812 32.7734Z" fill="#99C2F4"/>
<path d="M44.5469 32.7734C45.3765 32.7734 46.206 32.7734 47.0608 32.7734C47.0608 33.5791 47.0608 34.3847 47.0608 35.2148C46.2312 35.2148 45.4016 35.2148 44.5469 35.2148C44.5469 34.4092 44.5469 33.6035 44.5469 32.7734Z" fill="#99C2F4"/>
<path d="M51.7969 19.3945C52.3074 19.3945 52.8179 19.3945 53.3439 19.3945C53.3439 20.1034 53.3439 20.8124 53.3439 21.5429C52.8334 21.5429 52.3229 21.5429 51.7969 21.5429C51.7969 20.8339 51.7969 20.1249 51.7969 19.3945Z" fill="#B3E7F2"/>
</g>
</g>
</g>
<defs>
<clipPath id="clip0_7047_10755">
<rect width="80" height="80" fill="white"/>
</clipPath>
<clipPath id="clip1_7047_10755">
<rect width="50" height="50" fill="white" transform="translate(15 15)"/>
</clipPath>
</defs>
</svg>
