<svg width="101" height="100" viewBox="0 0 101 100" fill="none" xmlns="http://www.w3.org/2000/svg">
<g clip-path="url(#clip0_7006_5592)">
<path d="M62.135 -0.103789C62.3777 -0.10491 62.3777 -0.10491 62.6253 -0.106054C62.9667 -0.106585 63.3082 -0.105149 63.6496 -0.101882C64.1719 -0.0976996 64.6936 -0.101844 65.2158 -0.106841C65.5479 -0.106325 65.88 -0.105324 66.2122 -0.103789C66.446 -0.106161 66.446 -0.106161 66.6845 -0.108582C67.3421 -0.0974891 67.7803 -0.0773671 68.317 0.320775C68.7686 0.916932 68.7604 1.25613 68.7545 1.99944C68.7544 2.36888 68.7544 2.36888 68.7543 2.74578C68.7503 3.01357 68.7462 3.28137 68.7421 3.54916C68.7406 3.82392 68.7395 4.09868 68.7387 4.37344C68.7357 5.0953 68.7281 5.81704 68.7194 6.53885C68.7114 7.27592 68.7079 8.01302 68.7039 8.75012C68.6956 10.1954 68.6818 11.6406 68.6658 13.0859C69.5681 13.0859 70.4705 13.0859 71.4002 13.0859C71.3961 12.8948 71.392 12.7036 71.3878 12.5066C71.3736 11.7962 71.3646 11.0857 71.3572 10.3751C71.3533 10.0678 71.348 9.76051 71.3412 9.45327C71.3317 9.01108 71.3273 8.56908 71.3239 8.1268C71.3198 7.98985 71.3158 7.8529 71.3116 7.7118C71.3114 7.09384 71.3672 6.69466 71.691 6.16357C72.3927 5.72826 73.0528 5.74746 73.8538 5.75559C74.0964 5.75446 74.0964 5.75446 74.344 5.75332C74.6855 5.75279 75.0269 5.75423 75.3684 5.75749C75.8906 5.76168 76.4123 5.75753 76.9345 5.75253C77.2667 5.75305 77.5988 5.75405 77.9309 5.75559C78.0868 5.754 78.2426 5.75242 78.4032 5.75079C79.0677 5.762 79.5239 5.81009 80.0937 6.16357C80.4905 6.81445 80.4826 7.38806 80.4608 8.1268C80.4597 8.26876 80.4586 8.41071 80.4575 8.55697C80.4531 9.0088 80.4433 9.46034 80.4334 9.91208C80.4294 10.219 80.4259 10.526 80.4227 10.8329C80.4141 11.5841 80.4006 12.3349 80.3845 13.0859C80.5648 13.0798 80.5648 13.0798 80.7486 13.0735C81.2946 13.0572 81.8404 13.0471 82.3865 13.0371C82.5756 13.0305 82.7646 13.024 82.9594 13.0172C83.2332 13.0135 83.2332 13.0135 83.5126 13.0096C83.6803 13.0055 83.8481 13.0014 84.0209 12.9972C84.6646 13.1199 84.8845 13.3406 85.2673 13.8672C85.356 14.422 85.356 14.422 85.3436 15.0543C85.3399 15.3942 85.3399 15.3942 85.336 15.7409C85.3262 16.0944 85.3262 16.0944 85.3162 16.455C85.3126 16.6937 85.3091 16.9324 85.3055 17.1783C85.2963 17.7675 85.2834 18.3563 85.2673 18.9453C85.3782 18.9435 85.489 18.9418 85.6032 18.94C86.7564 18.9227 87.9096 18.911 89.063 18.9024C89.4934 18.8984 89.9238 18.8931 90.3542 18.8863C90.9729 18.8769 91.5914 18.8724 92.2101 18.869C92.4988 18.8629 92.4988 18.8629 92.7934 18.8568C94.0983 18.8563 94.0983 18.8563 94.7635 19.2419C95.1416 19.9218 95.1449 20.5483 95.1367 21.3066C95.1375 21.4592 95.1382 21.6119 95.139 21.7691C95.1395 22.0914 95.1381 22.4137 95.1348 22.7359C95.1306 23.2277 95.1348 23.7189 95.1398 24.2107C95.1393 24.5244 95.1383 24.8381 95.1367 25.1518C95.1383 25.2981 95.1399 25.4444 95.1415 25.5952C95.1223 26.6713 94.9834 26.8198 94.2517 27.7343C93.2205 27.7343 92.1892 27.7343 91.1267 27.7343C91.1267 48.6816 91.1267 69.6289 91.1267 91.2109C94.0271 91.2109 96.9275 91.2109 99.9158 91.2109C100.578 91.8734 100.572 92.1102 100.583 93.0096C100.582 93.1713 100.581 93.3331 100.58 93.4997C100.58 93.6666 100.581 93.8334 100.581 94.0053C100.582 94.358 100.581 94.7106 100.578 95.0633C100.575 95.6034 100.578 96.1433 100.582 96.6835C100.581 97.026 100.581 97.3686 100.58 97.7112C100.581 97.8729 100.582 98.0347 100.583 98.2013C100.57 99.2982 100.57 99.2982 100.305 99.7497C99.682 100.15 99.0191 100.08 98.3019 100.074C98.0508 100.075 98.0508 100.075 97.7947 100.076C97.2289 100.078 96.6632 100.076 96.0974 100.074C95.6896 100.075 95.2819 100.076 94.8742 100.077C93.7498 100.08 92.6255 100.078 91.5011 100.077C90.2901 100.075 89.0791 100.077 87.868 100.079C85.6314 100.081 83.3949 100.081 81.1583 100.08C79.0923 100.078 77.0263 100.078 74.9603 100.078C74.8234 100.078 74.6866 100.078 74.5455 100.079C73.9899 100.079 73.4343 100.079 72.8787 100.079C67.6634 100.081 62.4482 100.079 57.2329 100.076C52.5965 100.073 47.96 100.074 43.3236 100.076C38.1181 100.079 32.9125 100.081 27.707 100.079C27.1524 100.079 26.5977 100.079 26.0431 100.078C25.9065 100.078 25.77 100.078 25.6293 100.078C23.5643 100.078 21.4993 100.078 19.4343 100.08C17.087 100.082 14.7397 100.081 12.3924 100.078C11.1937 100.076 9.99511 100.076 8.79648 100.078C7.70067 100.079 6.60488 100.079 5.50907 100.075C5.11122 100.075 4.71338 100.075 4.31554 100.076C3.7775 100.078 3.23958 100.076 2.70155 100.074C2.5447 100.075 2.38786 100.076 2.22626 100.078C1.19223 100.067 1.19223 100.067 0.698555 99.7497C0.335767 99.1311 0.418781 98.4089 0.423897 97.7112C0.423336 97.5443 0.422776 97.3774 0.422198 97.2055C0.421799 96.8529 0.42288 96.5002 0.425327 96.1476C0.428463 95.6074 0.425357 95.0676 0.421608 94.5274C0.421995 94.1848 0.422746 93.8423 0.423897 93.4997C0.422711 93.338 0.421525 93.1762 0.420303 93.0096C0.433912 91.9001 0.433915 91.9001 0.722433 91.4608C1.25772 91.0946 1.67505 91.1406 2.31956 91.1444C2.57369 91.1444 2.82782 91.1445 3.08964 91.1445C3.36709 91.1475 3.64453 91.1506 3.92197 91.1537C4.20577 91.1548 4.48956 91.1556 4.77336 91.1562C5.51992 91.1584 6.26642 91.1642 7.01295 91.1707C7.77489 91.1767 8.53684 91.1793 9.29879 91.1823C10.7935 91.1886 12.2882 91.1986 13.783 91.2109C13.8214 87.8068 13.8441 84.4029 13.8482 80.9985C13.8505 79.4177 13.8579 77.8371 13.8774 76.2563C13.8944 74.8779 13.9016 73.4997 13.8975 72.1211C13.8956 71.3916 13.8985 70.6627 13.9129 69.9333C14.1486 66.796 14.1486 66.796 13.0023 64.0809C12.4465 63.6333 11.8616 63.3417 11.2063 63.0674C10.5773 62.7524 10.0975 62.2653 9.59595 61.7798C9.33046 61.5309 9.33046 61.5309 9.05961 61.277C8.78732 61.0122 8.78732 61.0122 8.50953 60.7422C8.39977 60.6363 8.29002 60.5304 8.17694 60.4212C3.77297 56.1104 0.709841 49.5878 0.472975 43.3883C0.470069 43.1133 0.468178 42.8384 0.467146 42.5635C0.465221 42.3364 0.465224 42.3364 0.46326 42.1048C0.459439 41.6088 0.457134 41.1127 0.455177 40.6166C0.454381 40.4464 0.453583 40.2763 0.452763 40.101C0.448705 39.2022 0.445906 38.3034 0.444067 37.4047C0.441896 36.4766 0.435162 35.5487 0.427431 34.6207C0.422333 33.906 0.420689 33.1915 0.419987 32.4768C0.419035 32.1346 0.416763 31.7923 0.413144 31.4501C0.408401 30.9723 0.408566 30.4947 0.409925 30.0169C0.407423 29.8758 0.404922 29.7346 0.402344 29.5892C0.40915 28.9339 0.453462 28.579 0.855506 28.0511C1.45433 27.6074 2.10268 27.3562 2.79511 27.0981C2.94747 27.0393 3.09982 26.9805 3.25679 26.9199C3.76184 26.7255 4.26795 26.534 4.77418 26.3427C5.31145 26.1377 5.8485 25.9321 6.38552 25.7264C6.76272 25.5819 7.14002 25.4377 7.51741 25.2937C8.93759 24.7501 10.3487 24.1861 11.7581 23.6152C12.3655 23.371 12.973 23.127 13.5806 22.8833C13.974 22.7245 14.3669 22.5645 14.7592 22.4032C15.3114 22.1766 15.8652 21.9547 16.4197 21.7338C16.6628 21.6318 16.6628 21.6318 16.9107 21.5278C18.6829 20.8332 20.0549 21.2194 21.7603 21.9246C21.9226 21.9896 22.085 22.0545 22.2523 22.1215C22.7829 22.3343 23.3122 22.5502 23.8416 22.7661C24.4008 22.9917 24.9603 23.2166 25.5199 23.4415C25.9051 23.5963 26.2902 23.7514 26.6752 23.9067C28.0245 24.45 29.3791 24.9779 30.7378 25.4974C31.1065 25.6389 31.4753 25.7804 31.844 25.9219C32.3746 26.1254 32.9054 26.3283 33.437 26.5291C33.9276 26.7146 34.4171 26.9027 34.9065 27.0912C35.0509 27.145 35.1954 27.1988 35.3443 27.2542C36.7811 27.813 36.7811 27.813 37.2205 28.5156C37.3378 29.2242 37.3387 29.9256 37.3395 30.6427C37.3425 30.8262 37.3456 31.0097 37.3487 31.1988C37.359 31.8831 37.3626 32.5675 37.367 33.2519C37.3831 34.7827 37.3992 36.3134 37.4158 37.8906C41.1541 36.8593 44.8923 35.8281 48.7439 34.7656C48.8084 32.4453 48.8728 30.125 48.9392 27.7343C47.908 27.7343 46.8767 27.7343 45.8142 27.7343C45.0187 26.9388 44.9426 26.8295 44.9244 25.7828C44.926 25.6312 44.9276 25.4796 44.9292 25.3235C44.9285 25.166 44.9277 25.0086 44.9269 24.8464C44.9264 24.5141 44.9278 24.1818 44.9311 23.8496C44.9353 23.3415 44.9312 22.8339 44.9262 22.3259C44.9267 22.0026 44.9277 21.6794 44.9292 21.3562C44.9276 21.2046 44.926 21.053 44.9244 20.8968C44.9354 20.2626 44.9939 19.7973 45.3025 19.2388C46.1226 18.7684 46.9279 18.8496 47.8558 18.869C48.0542 18.8701 48.2525 18.8712 48.4568 18.8723C49.0897 18.8767 49.7224 18.8865 50.3552 18.8965C50.7845 18.9004 51.2138 18.9039 51.6431 18.9071C52.695 18.9157 53.7468 18.9288 54.7986 18.9453C54.7945 18.7955 54.7904 18.6458 54.7862 18.4915C54.7699 17.8127 54.7598 17.134 54.7498 16.455C54.7432 16.2194 54.7367 15.9837 54.7299 15.7409C54.7274 15.5143 54.7249 15.2878 54.7223 15.0543C54.7182 14.8456 54.7141 14.637 54.7099 14.422C54.7986 13.8672 54.7986 13.8672 55.0628 13.4054C55.8922 12.8929 56.7268 13.0041 57.6795 13.0371C57.8716 13.0406 58.0637 13.0441 58.2616 13.0478C58.735 13.057 59.2081 13.0698 59.6814 13.0859C59.6797 12.9335 59.6779 12.7811 59.6761 12.624C59.6605 11.1872 59.6486 9.75033 59.6409 8.31339C59.6369 7.57465 59.6313 6.83598 59.6225 6.09729C59.614 5.38431 59.6093 4.67139 59.6073 3.95836C59.6058 3.68643 59.603 3.4145 59.5988 3.1426C59.5931 2.76158 59.5928 2.3805 59.5927 1.99944C59.591 1.78259 59.5892 1.56573 59.5875 1.3423C59.8276 -0.091986 60.8941 -0.11638 62.135 -0.103789Z" fill="#2B5582"/>
<path d="M51.8672 27.7344C63.8555 27.7344 75.8437 27.7344 88.1953 27.7344C88.1953 48.6816 88.1953 69.6289 88.1953 91.2109C85.2305 91.2109 82.2656 91.2109 79.2109 91.2109C79.2109 87.666 79.2109 84.1211 79.2109 80.4688C79.8555 80.4043 80.5 80.3398 81.1641 80.2734C81.4219 80.209 81.6797 80.1445 81.9453 80.0781C81.9453 79.3691 81.9453 78.6602 81.9453 77.9297C81.3042 77.7694 80.866 77.7099 80.2214 77.7096C80.0321 77.709 79.8429 77.7085 79.648 77.7079C79.4417 77.7083 79.2354 77.7087 79.0228 77.7091C78.8046 77.7088 78.5863 77.7084 78.3615 77.7081C77.6393 77.7072 76.9172 77.7078 76.195 77.7084C75.694 77.7083 75.1929 77.7081 74.6919 77.7079C73.6416 77.7076 72.5913 77.708 71.541 77.7089C70.3266 77.71 69.1122 77.7096 67.8977 77.7086C66.7293 77.7076 65.5609 77.7077 64.3925 77.7082C63.8953 77.7084 63.3981 77.7082 62.9009 77.7078C62.2069 77.7073 61.513 77.708 60.8191 77.7091C60.6124 77.7087 60.4057 77.7083 60.1927 77.7079C60.0041 77.7085 59.8154 77.709 59.621 77.7096C59.457 77.7096 59.2929 77.7097 59.1238 77.7098C58.667 77.7182 58.667 77.7182 58.1172 77.9297C58.1172 78.6387 58.1172 79.3477 58.1172 80.0781C58.9417 80.3778 58.9417 80.3778 60.8516 80.4688C60.8516 84.0137 60.8516 87.5586 60.8516 91.2109C57.8867 91.2109 54.9219 91.2109 51.8672 91.2109C51.8672 70.2637 51.8672 49.3164 51.8672 27.7344Z" fill="#E9F3FF"/>
<path d="M22.7079 25.6119C22.9031 25.6892 23.0982 25.7666 23.2993 25.8463C23.9193 26.0924 24.5389 26.3397 25.1585 26.5869C25.5649 26.7482 25.9713 26.9094 26.3777 27.0706C29.0221 28.1208 31.6582 29.1906 34.2894 30.2734C34.3031 31.8391 34.3134 33.4048 34.3197 34.9705C34.3228 35.698 34.3268 36.4254 34.3336 37.1529C34.409 45.5254 32.8562 52.5404 26.8675 58.789C25.3273 60.3365 23.6479 61.5666 21.7894 62.6953C21.6675 62.7704 21.5456 62.8455 21.42 62.9228C19.5577 64.0466 19.5577 64.0466 18.5965 64.077C18.1041 63.9417 17.7362 63.7396 17.2972 63.4765C17.0764 63.3554 16.8556 63.2343 16.6281 63.1096C10.3792 59.5972 6.22944 54.2535 4.21811 47.4052C3.57556 44.9789 3.3727 42.5971 3.39185 40.0963C3.39258 39.8109 3.39313 39.5255 3.39352 39.2401C3.39499 38.4981 3.39882 37.7561 3.40317 37.0141C3.40721 36.2533 3.40896 35.4925 3.41092 34.7317C3.41508 33.2456 3.42172 31.7595 3.42999 30.2734C4.72706 29.6726 6.02794 29.1014 7.36142 28.5866C7.52251 28.5237 7.6836 28.4609 7.84958 28.3962C8.72375 28.0558 9.59903 27.7182 10.4743 27.3805C10.8326 27.2421 11.1909 27.1037 11.5492 26.9653C11.725 26.8975 11.9007 26.8297 12.0818 26.7598C13.1181 26.3584 14.147 25.943 15.1716 25.5127C15.4006 25.4184 15.6296 25.3242 15.8655 25.2271C16.2768 25.0571 16.6864 24.8828 17.0935 24.7031C17.2753 24.6291 17.457 24.5551 17.6443 24.4789C17.7959 24.4139 17.9474 24.3489 18.1036 24.2819C19.6301 24.1099 21.3148 25.0543 22.7079 25.6119Z" fill="#13B440"/>
<path d="M48.9375 43.9453C48.9375 52.4531 48.9375 60.9609 48.9375 69.7266C47.0409 69.7384 45.1443 69.7502 43.1903 69.7624C41.9913 69.7703 40.7924 69.7783 39.5934 69.7865C37.6889 69.7994 35.7843 69.8122 33.8798 69.8237C32.4929 69.8321 31.106 69.8411 29.7191 69.851C28.9845 69.8561 28.2499 69.861 27.5154 69.8651C26.696 69.8696 25.8766 69.8756 25.0573 69.8818C24.8128 69.8829 24.5684 69.884 24.3165 69.8852C24.0938 69.8871 23.8712 69.889 23.6418 69.891C23.4479 69.8922 23.254 69.8935 23.0542 69.8948C22.5442 69.9021 22.5442 69.9021 21.9844 70.1172C21.9844 70.8262 21.9844 71.5352 21.9844 72.2656C23.1644 72.659 24.4539 72.5787 25.6953 72.6562C25.6953 78.7793 25.6953 84.9023 25.6953 91.2109C22.7305 91.2109 19.7656 91.2109 16.7109 91.2109C16.7109 83.0254 16.7109 74.8398 16.7109 66.4062C17.1621 66.5352 17.6133 66.6641 18.0781 66.7969C19.3212 66.9062 20.0708 66.6929 21.1543 66.1011C21.3582 65.9935 21.3582 65.9935 21.5663 65.8838C21.8407 65.7379 22.1142 65.5905 22.3868 65.4413C22.7153 65.2619 23.0469 65.0881 23.379 64.9155C29.2665 61.7144 33.2585 56.1862 35.4953 50.0015C35.5556 49.8413 35.6158 49.681 35.6779 49.5159C35.8603 49.0213 35.8603 49.0213 35.9889 48.4913C36.217 47.7183 36.3759 47.2154 37.0982 46.8076C37.7084 46.6064 38.3103 46.4657 38.9399 46.3379C39.3992 46.2301 39.8585 46.1222 40.3178 46.0144C40.5501 45.963 40.7825 45.9117 41.0218 45.8588C42.0685 45.6224 43.1034 45.3446 44.1401 45.0684C44.4898 44.9776 44.8394 44.8871 45.1892 44.7968C46.0954 44.5622 46.9966 44.3109 47.8969 44.0546C48.3516 43.9453 48.3516 43.9453 48.9375 43.9453Z" fill="#B3E7F2"/>
<path d="M28.4297 72.6562C35.2617 72.6562 42.0937 72.6562 49.1328 72.6562C49.1328 78.7793 49.1328 84.9023 49.1328 91.2109C42.3008 91.2109 35.4688 91.2109 28.4297 91.2109C28.4297 85.0879 28.4297 78.9648 28.4297 72.6562Z" fill="#E6EAEE"/>
<path d="M3.42969 94.1406C34.4961 94.1406 65.5625 94.1406 97.5703 94.1406C97.5703 95.1074 97.5703 96.0742 97.5703 97.0703C66.5039 97.0703 35.4375 97.0703 3.42969 97.0703C3.42969 96.1035 3.42969 95.1367 3.42969 94.1406Z" fill="#B3E7F2"/>
<path d="M47.9609 21.875C62.5273 21.875 77.0938 21.875 92.1016 21.875C92.1016 22.8418 92.1016 23.8086 92.1016 24.8047C77.5352 24.8047 62.9687 24.8047 47.9609 24.8047C47.9609 23.8379 47.9609 22.8711 47.9609 21.875Z" fill="#B3E7F2"/>
<path d="M75.3237 63.7771C75.5158 63.7773 75.7079 63.7775 75.9059 63.7777C76.3117 63.7789 76.7175 63.7819 77.1233 63.7868C77.7445 63.7939 78.3654 63.7948 78.9865 63.7947C79.381 63.7966 79.7754 63.7989 80.1699 63.8015C80.3556 63.802 80.5414 63.8024 80.7328 63.8029C80.9062 63.8054 81.0796 63.8079 81.2582 63.8104C81.4102 63.8119 81.5623 63.8134 81.7189 63.8149C82.1984 63.8742 82.5134 64.0034 82.9225 64.2578C83.1543 64.7213 83.145 65.009 83.1493 65.5261C83.1512 65.708 83.1531 65.8899 83.155 66.0772C83.1558 66.2742 83.1567 66.4711 83.1575 66.674C83.1586 66.8758 83.1598 67.0776 83.1609 67.2856C83.1628 67.7129 83.164 68.1403 83.1648 68.5677C83.1667 69.2227 83.1727 69.8776 83.1789 70.5326C83.1802 70.9472 83.1812 71.3619 83.1819 71.7766C83.1844 71.9731 83.1868 72.1696 83.1893 72.3721C83.1887 72.5546 83.1881 72.7371 83.1875 72.9251C83.1885 73.166 83.1885 73.166 83.1896 73.4118C83.1007 73.9278 82.9366 74.0925 82.5319 74.414C82.0787 74.6407 81.8074 74.6376 81.3025 74.6439C81.1291 74.6464 80.9557 74.6489 80.777 74.6515C80.5893 74.653 80.4015 74.6544 80.208 74.6559C80.0153 74.6575 79.8227 74.659 79.6241 74.6607C79.216 74.6634 78.8078 74.6655 78.3997 74.667C77.775 74.6704 77.1506 74.6789 76.5261 74.6876C76.1298 74.6895 75.7336 74.6912 75.3374 74.6925C75.0569 74.6976 75.0569 74.6976 74.7708 74.7029C74.0308 74.7005 73.5046 74.6895 72.844 74.3421C72.4035 73.5129 72.4597 72.6958 72.4672 71.7712C72.4665 71.5704 72.4657 71.3696 72.465 71.1627C72.4644 70.7385 72.4659 70.3143 72.4691 69.8901C72.4733 69.2406 72.4692 68.5915 72.4642 67.942C72.4647 67.5298 72.4657 67.1175 72.4672 66.7053C72.4656 66.511 72.4641 66.3167 72.4624 66.1165C72.4727 65.3585 72.4851 64.8094 72.8449 64.1349C73.6506 63.7097 74.4266 63.7636 75.3237 63.7771Z" fill="#2B5582"/>
<path d="M59.6987 63.7771C59.8908 63.7773 60.0829 63.7775 60.2809 63.7777C60.6867 63.7789 61.0925 63.7819 61.4983 63.7868C62.1195 63.7939 62.7404 63.7948 63.3615 63.7947C63.756 63.7966 64.1504 63.7989 64.5449 63.8015C64.7306 63.802 64.9164 63.8024 65.1078 63.8029C65.2812 63.8054 65.4546 63.8079 65.6332 63.8104C65.7852 63.8119 65.9373 63.8134 66.0939 63.8149C66.5734 63.8742 66.8884 64.0034 67.2975 64.2578C67.5293 64.7213 67.52 65.009 67.5243 65.5261C67.5262 65.708 67.5281 65.8899 67.53 66.0772C67.5308 66.2742 67.5317 66.4711 67.5325 66.674C67.5336 66.8758 67.5348 67.0776 67.5359 67.2856C67.5378 67.7129 67.539 68.1403 67.5398 68.5677C67.5417 69.2227 67.5477 69.8776 67.5539 70.5326C67.5552 70.9472 67.5562 71.3619 67.5569 71.7766C67.5594 71.9731 67.5618 72.1696 67.5643 72.3721C67.5637 72.5546 67.5631 72.7371 67.5625 72.9251C67.5635 73.166 67.5635 73.166 67.5646 73.4118C67.4757 73.9278 67.3116 74.0925 66.9069 74.414C66.4537 74.6407 66.1824 74.6376 65.6775 74.6439C65.5041 74.6464 65.3307 74.6489 65.152 74.6515C64.9643 74.653 64.7765 74.6544 64.583 74.6559C64.3903 74.6575 64.1977 74.659 63.9991 74.6607C63.591 74.6634 63.1828 74.6655 62.7747 74.667C62.15 74.6704 61.5256 74.6789 60.9011 74.6876C60.5048 74.6895 60.1086 74.6912 59.7124 74.6925C59.4319 74.6976 59.4319 74.6976 59.1458 74.7029C58.4058 74.7005 57.8796 74.6895 57.219 74.3421C56.7785 73.5129 56.8347 72.6958 56.8422 71.7712C56.8415 71.5704 56.8407 71.3696 56.84 71.1627C56.8394 70.7385 56.8409 70.3143 56.8441 69.8901C56.8483 69.2406 56.8442 68.5915 56.8392 67.942C56.8397 67.5298 56.8407 67.1175 56.8422 66.7053C56.8406 66.511 56.8391 66.3167 56.8374 66.1165C56.8477 65.3585 56.8601 64.8094 57.2199 64.1349C58.0256 63.7097 58.8016 63.7636 59.6987 63.7771Z" fill="#2B5582"/>
<path d="M75.3237 48.1521C75.5158 48.1523 75.7079 48.1525 75.9059 48.1527C76.3117 48.1539 76.7175 48.1569 77.1233 48.1618C77.7445 48.1689 78.3654 48.1698 78.9865 48.1697C79.381 48.1716 79.7754 48.1739 80.1699 48.1765C80.3556 48.177 80.5414 48.1774 80.7328 48.1779C80.9062 48.1804 81.0796 48.1829 81.2582 48.1854C81.4102 48.1869 81.5623 48.1884 81.7189 48.1899C82.1984 48.2492 82.5134 48.3784 82.9225 48.6328C83.1543 49.0963 83.145 49.384 83.1493 49.9011C83.1512 50.083 83.1531 50.2649 83.155 50.4522C83.1558 50.6492 83.1567 50.8461 83.1575 51.049C83.1586 51.2508 83.1598 51.4526 83.1609 51.6606C83.1628 52.0879 83.164 52.5153 83.1648 52.9427C83.1667 53.5977 83.1727 54.2526 83.1789 54.9076C83.1802 55.3222 83.1812 55.7369 83.1819 56.1516C83.1844 56.3481 83.1868 56.5446 83.1893 56.7471C83.1887 56.9296 83.1881 57.1121 83.1875 57.3001C83.1885 57.541 83.1885 57.541 83.1896 57.7868C83.1007 58.3028 82.9366 58.4675 82.5319 58.789C82.0787 59.0157 81.8074 59.0126 81.3025 59.0189C81.1291 59.0214 80.9557 59.0239 80.777 59.0265C80.5893 59.028 80.4015 59.0294 80.208 59.0309C80.0153 59.0325 79.8227 59.034 79.6241 59.0357C79.216 59.0384 78.8078 59.0405 78.3997 59.042C77.775 59.0454 77.1506 59.0539 76.5261 59.0626C76.1298 59.0645 75.7336 59.0662 75.3374 59.0675C75.0569 59.0726 75.0569 59.0726 74.7708 59.0779C74.0308 59.0755 73.5046 59.0645 72.844 58.7171C72.4035 57.8879 72.4597 57.0708 72.4672 56.1462C72.4665 55.9454 72.4657 55.7446 72.465 55.5377C72.4644 55.1135 72.4659 54.6893 72.4691 54.2651C72.4733 53.6156 72.4692 52.9665 72.4642 52.317C72.4647 51.9048 72.4657 51.4925 72.4672 51.0803C72.4656 50.886 72.4641 50.6917 72.4624 50.4915C72.4727 49.7335 72.4851 49.1844 72.8449 48.5099C73.6506 48.0847 74.4266 48.1386 75.3237 48.1521Z" fill="#2B5582"/>
<path d="M59.6987 48.1521C59.8908 48.1523 60.0829 48.1525 60.2809 48.1527C60.6867 48.1539 61.0925 48.1569 61.4983 48.1618C62.1195 48.1689 62.7404 48.1698 63.3615 48.1697C63.756 48.1716 64.1504 48.1739 64.5449 48.1765C64.7306 48.177 64.9164 48.1774 65.1078 48.1779C65.2812 48.1804 65.4546 48.1829 65.6332 48.1854C65.7852 48.1869 65.9373 48.1884 66.0939 48.1899C66.5734 48.2492 66.8884 48.3784 67.2975 48.6328C67.5293 49.0963 67.52 49.384 67.5243 49.9011C67.5262 50.083 67.5281 50.2649 67.53 50.4522C67.5308 50.6492 67.5317 50.8461 67.5325 51.049C67.5336 51.2508 67.5348 51.4526 67.5359 51.6606C67.5378 52.0879 67.539 52.5153 67.5398 52.9427C67.5417 53.5977 67.5477 54.2526 67.5539 54.9076C67.5552 55.3222 67.5562 55.7369 67.5569 56.1516C67.5594 56.3481 67.5618 56.5446 67.5643 56.7471C67.5637 56.9296 67.5631 57.1121 67.5625 57.3001C67.5635 57.541 67.5635 57.541 67.5646 57.7868C67.4757 58.3028 67.3116 58.4675 66.9069 58.789C66.4537 59.0157 66.1824 59.0126 65.6775 59.0189C65.5041 59.0214 65.3307 59.0239 65.152 59.0265C64.9643 59.028 64.7765 59.0294 64.583 59.0309C64.3903 59.0325 64.1977 59.034 63.9991 59.0357C63.591 59.0384 63.1828 59.0405 62.7747 59.042C62.15 59.0454 61.5256 59.0539 60.9011 59.0626C60.5048 59.0645 60.1086 59.0662 59.7124 59.0675C59.4319 59.0726 59.4319 59.0726 59.1458 59.0779C58.4058 59.0755 57.8796 59.0645 57.219 58.7171C56.7785 57.8879 56.8347 57.0708 56.8422 56.1462C56.8415 55.9454 56.8407 55.7446 56.84 55.5377C56.8394 55.1135 56.8409 54.6893 56.8441 54.2651C56.8483 53.6156 56.8442 52.9665 56.8392 52.317C56.8397 51.9048 56.8407 51.4925 56.8422 51.0803C56.8406 50.886 56.8391 50.6917 56.8374 50.4915C56.8477 49.7335 56.8601 49.1844 57.2199 48.5099C58.0256 48.0847 58.8016 48.1386 59.6987 48.1521Z" fill="#2B5582"/>
<path d="M75.3237 32.5271C75.5158 32.5273 75.7079 32.5275 75.9059 32.5277C76.3117 32.5289 76.7175 32.5319 77.1233 32.5368C77.7445 32.5439 78.3654 32.5448 78.9865 32.5447C79.381 32.5466 79.7754 32.5489 80.1699 32.5515C80.3556 32.552 80.5414 32.5524 80.7328 32.5529C80.9062 32.5554 81.0796 32.5579 81.2582 32.5604C81.4102 32.5619 81.5623 32.5634 81.7189 32.5649C82.1984 32.6242 82.5134 32.7534 82.9225 33.0078C83.1543 33.4713 83.145 33.759 83.1493 34.2761C83.1512 34.458 83.1531 34.6399 83.155 34.8272C83.1558 35.0242 83.1567 35.2211 83.1575 35.424C83.1586 35.6258 83.1598 35.8276 83.1609 36.0356C83.1628 36.4629 83.164 36.8903 83.1648 37.3177C83.1667 37.9727 83.1727 38.6276 83.1789 39.2826C83.1802 39.6972 83.1812 40.1119 83.1819 40.5266C83.1844 40.7231 83.1868 40.9196 83.1893 41.1221C83.1887 41.3046 83.1881 41.4871 83.1875 41.6751C83.1885 41.916 83.1885 41.916 83.1896 42.1618C83.1007 42.6778 82.9366 42.8425 82.5319 43.164C82.0787 43.3907 81.8074 43.3876 81.3025 43.3939C81.1291 43.3964 80.9557 43.3989 80.777 43.4015C80.5893 43.403 80.4015 43.4044 80.208 43.4059C80.0153 43.4075 79.8227 43.409 79.6241 43.4107C79.216 43.4134 78.8078 43.4155 78.3997 43.417C77.775 43.4204 77.1506 43.4289 76.5261 43.4376C76.1298 43.4395 75.7336 43.4412 75.3374 43.4425C75.0569 43.4476 75.0569 43.4476 74.7708 43.4529C74.0308 43.4505 73.5046 43.4395 72.844 43.0921C72.4035 42.2629 72.4597 41.4458 72.4672 40.5212C72.4665 40.3204 72.4657 40.1196 72.465 39.9127C72.4644 39.4885 72.4659 39.0643 72.4691 38.6401C72.4733 37.9906 72.4692 37.3415 72.4642 36.692C72.4647 36.2798 72.4657 35.8675 72.4672 35.4553C72.4656 35.261 72.4641 35.0667 72.4624 34.8665C72.4727 34.1085 72.4851 33.5594 72.8449 32.8849C73.6506 32.4597 74.4266 32.5136 75.3237 32.5271Z" fill="#2B5582"/>
<path d="M59.6987 32.5271C59.8908 32.5273 60.0829 32.5275 60.2809 32.5277C60.6867 32.5289 61.0925 32.5319 61.4983 32.5368C62.1195 32.5439 62.7404 32.5448 63.3615 32.5447C63.756 32.5466 64.1504 32.5489 64.5449 32.5515C64.7306 32.552 64.9164 32.5524 65.1078 32.5529C65.2812 32.5554 65.4546 32.5579 65.6332 32.5604C65.7852 32.5619 65.9373 32.5634 66.0939 32.5649C66.5734 32.6242 66.8884 32.7534 67.2975 33.0078C67.5293 33.4713 67.52 33.759 67.5243 34.2761C67.5262 34.458 67.5281 34.6399 67.53 34.8272C67.5308 35.0242 67.5317 35.2211 67.5325 35.424C67.5336 35.6258 67.5348 35.8276 67.5359 36.0356C67.5378 36.4629 67.539 36.8903 67.5398 37.3177C67.5417 37.9727 67.5477 38.6276 67.5539 39.2826C67.5552 39.6972 67.5562 40.1119 67.5569 40.5266C67.5594 40.7231 67.5618 40.9196 67.5643 41.1221C67.5637 41.3046 67.5631 41.4871 67.5625 41.6751C67.5635 41.916 67.5635 41.916 67.5646 42.1618C67.4757 42.6778 67.3116 42.8425 66.9069 43.164C66.4537 43.3907 66.1824 43.3876 65.6775 43.3939C65.5041 43.3964 65.3307 43.3989 65.152 43.4015C64.9643 43.403 64.7765 43.4044 64.583 43.4059C64.3903 43.4075 64.1977 43.409 63.9991 43.4107C63.591 43.4134 63.1828 43.4155 62.7747 43.417C62.15 43.4204 61.5256 43.4289 60.9011 43.4376C60.5048 43.4395 60.1086 43.4412 59.7124 43.4425C59.4319 43.4476 59.4319 43.4476 59.1458 43.4529C58.4058 43.4505 57.8796 43.4395 57.219 43.0921C56.7785 42.2629 56.8347 41.4458 56.8422 40.5212C56.8415 40.3204 56.8407 40.1196 56.84 39.9127C56.8394 39.4885 56.8409 39.0643 56.8441 38.6401C56.8483 37.9906 56.8442 37.3415 56.8392 36.692C56.8397 36.2798 56.8407 35.8675 56.8422 35.4553C56.8406 35.261 56.8391 35.0667 56.8374 34.8665C56.8477 34.1085 56.8601 33.5594 57.2199 32.8849C58.0256 32.4597 58.8016 32.5136 59.6987 32.5271Z" fill="#2B5582"/>
<path d="M57.7266 16.0156C65.8477 16.0156 73.9687 16.0156 82.3359 16.0156C82.3359 16.9824 82.3359 17.9492 82.3359 18.9453C74.2148 18.9453 66.0938 18.9453 57.7266 18.9453C57.7266 17.9785 57.7266 17.0117 57.7266 16.0156Z" fill="#E9F3FF"/>
<path d="M71.3984 80.4688C73.0742 80.4688 74.75 80.4688 76.4766 80.4688C76.4766 84.0137 76.4766 87.5586 76.4766 91.2109C74.8008 91.2109 73.125 91.2109 71.3984 91.2109C71.3984 87.666 71.3984 84.1211 71.3984 80.4688Z" fill="#99C2F4"/>
<path d="M63.5859 80.4688C65.2617 80.4688 66.9375 80.4688 68.6641 80.4688C68.6641 84.0137 68.6641 87.5586 68.6641 91.2109C66.9883 91.2109 65.3125 91.2109 63.5859 91.2109C63.5859 87.666 63.5859 84.1211 63.5859 80.4688Z" fill="#99C2F4"/>
<path d="M24.5234 39.4531C24.9746 39.8398 25.4258 40.2266 25.8906 40.625C25.54 41.3263 25.2744 41.6844 24.7392 42.23C24.5044 42.4704 24.5044 42.4704 24.2649 42.7157C24.0954 42.8868 23.9259 43.0579 23.7513 43.2343C23.5769 43.4109 23.4025 43.5875 23.2228 43.7695C22.8536 44.1424 22.484 44.5148 22.1136 44.8865C21.6398 45.3624 21.1697 45.8419 20.7005 46.3223C20.2511 46.7807 19.7976 47.235 19.3446 47.6898C19.1767 47.8625 19.0088 48.0352 18.8359 48.2132C18.6769 48.371 18.5179 48.5288 18.3541 48.6914C18.2156 48.8313 18.0772 48.9712 17.9345 49.1153C17.3566 49.5057 17.0046 49.501 16.3203 49.4141C15.8863 49.0826 15.5498 48.7812 15.1805 48.3887C15.0781 48.2846 14.9757 48.1806 14.8702 48.0734C14.5451 47.7417 14.2242 47.4061 13.9033 47.0703C13.6831 46.8442 13.4626 46.6184 13.2419 46.3928C12.7023 45.8404 12.1666 45.2845 11.6328 44.7266C11.8138 44.497 11.9974 44.2695 12.1821 44.043C12.2841 43.9161 12.3861 43.7892 12.4911 43.6584C12.8047 43.3594 12.8047 43.3594 13.3906 43.3594C13.6865 43.6073 13.6865 43.6073 13.9979 43.9507C14.1132 44.0731 14.2285 44.1956 14.3474 44.3218C14.5867 44.5816 14.8247 44.8425 15.0615 45.1046C15.6087 45.6821 16.0438 46.057 16.775 46.3875C17.8645 46.238 18.407 45.5895 19.1602 44.8217C19.4624 44.5139 19.7693 44.2114 20.0772 43.9094C20.7587 43.2387 21.4328 42.5609 22.1064 41.8823C22.3421 41.6456 22.5779 41.409 22.8137 41.1724C23.3841 40.5998 23.954 40.0267 24.5234 39.4531Z" fill="#85E986"/>
<path d="M48.9375 38.0859C48.9375 38.9883 48.9375 39.8906 48.9375 40.8203C47.3857 41.293 45.8264 41.7331 44.2622 42.1631C44.0141 42.2313 43.766 42.2995 43.5104 42.3698C42.0572 42.7689 40.6036 43.1663 39.1475 43.5547C38.9224 43.6154 38.9224 43.6154 38.6928 43.6774C38.1189 43.829 37.6199 43.9453 37.0234 43.9453C37.0879 43.043 37.1523 42.1406 37.2188 41.2109C38.3901 40.7509 39.5648 40.3891 40.7794 40.062C40.9656 40.0112 41.1518 39.9605 41.3437 39.9082C41.7347 39.8019 42.1259 39.6958 42.5171 39.5902C43.1152 39.4286 43.7129 39.2659 44.3107 39.1029C44.692 38.9994 45.0733 38.8959 45.4547 38.7924C45.7217 38.7198 45.7217 38.7198 45.9942 38.6457C48.0699 38.0859 48.0699 38.0859 48.9375 38.0859Z" fill="#B3E7F2"/>
<path d="M62.6094 2.92969C63.6406 2.92969 64.6719 2.92969 65.7344 2.92969C65.7344 6.28125 65.7344 9.63281 65.7344 13.0859C64.7031 13.0859 63.6719 13.0859 62.6094 13.0859C62.6094 9.73438 62.6094 6.38281 62.6094 2.92969Z" fill="#B3E7F2"/>
<path d="M36.1496 85.2616C36.3504 85.2617 36.5512 85.2619 36.7581 85.2621C37.1823 85.2633 37.6066 85.2664 38.0308 85.2712C38.6802 85.2783 39.3294 85.2792 39.9788 85.2791C40.3911 85.281 40.8033 85.2833 41.2155 85.286C41.4099 85.2864 41.6042 85.2868 41.8044 85.2873C42.0762 85.291 42.0762 85.291 42.3535 85.2948C42.5919 85.2971 42.5919 85.2971 42.8352 85.2994C43.3229 85.3576 43.6385 85.4824 44.0537 85.7422C44.3515 86.3379 44.295 86.8442 44.249 87.5C43.9477 87.9109 43.7253 88.0548 43.2724 88.2813C42.9815 88.3027 42.6896 88.3123 42.3978 88.3158C42.126 88.3196 42.126 88.3196 41.8486 88.3234C41.5541 88.3256 41.5541 88.3256 41.2537 88.3278C41.0523 88.3294 40.851 88.331 40.6436 88.3326C40.217 88.3353 39.7904 88.3374 39.3639 88.3389C38.711 88.3423 38.0583 88.3509 37.4054 88.3595C36.9914 88.3614 36.5774 88.3631 36.1634 88.3644C35.9678 88.3679 35.7723 88.3713 35.5708 88.3748C34.2227 88.3706 34.2227 88.3706 33.5788 87.9282C33.1839 87.2956 33.2073 86.8622 33.3115 86.1328C33.9834 85.0612 35.0161 85.2452 36.1496 85.2616Z" fill="#2B5582"/>
<path d="M75.3047 66.7969C76.9805 66.7969 78.6562 66.7969 80.3828 66.7969C80.3828 68.4082 80.3828 70.0195 80.3828 71.6797C78.707 71.6797 77.0313 71.6797 75.3047 71.6797C75.3047 70.0684 75.3047 68.457 75.3047 66.7969Z" fill="#99C2F4"/>
<path d="M59.6797 66.7969C61.3555 66.7969 63.0312 66.7969 64.7578 66.7969C64.7578 68.4082 64.7578 70.0195 64.7578 71.6797C63.082 71.6797 61.4063 71.6797 59.6797 71.6797C59.6797 70.0684 59.6797 68.457 59.6797 66.7969Z" fill="#99C2F4"/>
<path d="M75.3047 51.1719C76.9805 51.1719 78.6562 51.1719 80.3828 51.1719C80.3828 52.7832 80.3828 54.3945 80.3828 56.0547C78.707 56.0547 77.0313 56.0547 75.3047 56.0547C75.3047 54.4434 75.3047 52.832 75.3047 51.1719Z" fill="#99C2F4"/>
<path d="M59.6797 51.1719C61.3555 51.1719 63.0312 51.1719 64.7578 51.1719C64.7578 52.7832 64.7578 54.3945 64.7578 56.0547C63.082 56.0547 61.4063 56.0547 59.6797 56.0547C59.6797 54.4434 59.6797 52.832 59.6797 51.1719Z" fill="#99C2F4"/>
<path d="M75.3047 35.5469C76.9805 35.5469 78.6562 35.5469 80.3828 35.5469C80.3828 37.1582 80.3828 38.7695 80.3828 40.4297C78.707 40.4297 77.0313 40.4297 75.3047 40.4297C75.3047 38.8184 75.3047 37.207 75.3047 35.5469Z" fill="#99C2F4"/>
<path d="M59.6797 35.5469C61.3555 35.5469 63.0312 35.5469 64.7578 35.5469C64.7578 37.1582 64.7578 38.7695 64.7578 40.4297C63.082 40.4297 61.4063 40.4297 59.6797 40.4297C59.6797 38.8184 59.6797 37.207 59.6797 35.5469Z" fill="#99C2F4"/>
<path d="M74.3281 8.78906C75.3594 8.78906 76.3906 8.78906 77.4531 8.78906C77.4531 10.207 77.4531 11.625 77.4531 13.0859C76.4219 13.0859 75.3906 13.0859 74.3281 13.0859C74.3281 11.668 74.3281 10.25 74.3281 8.78906Z" fill="#B3E7F2"/>
</g>
<defs>
<clipPath id="clip0_7006_5592">
<rect width="100" height="100" fill="white" transform="translate(0.5)"/>
</clipPath>
</defs>
</svg>
