<svg width="80" height="80" viewBox="0 0 80 80" fill="none" xmlns="http://www.w3.org/2000/svg">
<g clip-path="url(#clip0_7017_5715)">
<path d="M39.9325 2.60738C40.0617 2.60772 40.1909 2.60806 40.324 2.6084C48.7536 2.64347 57.1093 5.47763 63.5946 10.9375C63.6849 11.0121 63.7752 11.0868 63.8682 11.1637C65.7931 12.7555 67.5155 14.4415 69.0633 16.4062C69.2165 16.5905 69.2165 16.5905 69.3728 16.7785C70.9861 18.7299 72.2632 20.8889 73.4383 23.125C73.4926 23.2266 73.547 23.3283 73.603 23.433C76.246 28.4381 77.4192 34.2307 77.3934 39.8535C77.3931 39.9864 77.3927 40.1193 77.3924 40.2562C77.3599 48.2665 74.8923 56.3513 69.8446 62.6562C69.7443 62.7863 69.644 62.9164 69.5406 63.0505C68.7092 64.1175 67.8067 65.1139 66.8758 66.0937C66.7966 66.1774 66.7174 66.2611 66.6358 66.3473C65.4006 67.6434 64.0954 68.7789 62.6571 69.8437C62.5674 69.9108 62.4778 69.9778 62.3855 70.0469C57.698 73.54 52.3149 75.8427 46.5633 76.875C46.4204 76.9008 46.2774 76.9266 46.1301 76.9532C41.9989 77.6622 37.5599 77.616 33.4383 76.875C33.2914 76.849 33.1445 76.823 32.9931 76.7962C24.2207 75.1907 15.8967 70.2565 10.4696 63.125C10.3573 62.9786 10.3573 62.9786 10.2427 62.8293C6.61297 58.0669 4.2101 52.6098 3.12581 46.7187C3.08744 46.5127 3.08744 46.5127 3.0483 46.3025C1.37659 36.837 3.63536 26.6788 9.09558 18.7901C9.4847 18.2422 9.89434 17.7127 10.3133 17.1875C10.4253 17.0455 10.5373 16.9035 10.6527 16.7572C11.5343 15.6582 12.4726 14.6185 13.4383 13.5937C13.5461 13.4793 13.6538 13.3649 13.7648 13.247C14.5851 12.4016 15.4876 11.6717 16.4071 10.9375C16.5307 10.8345 16.6544 10.7316 16.7818 10.6256C18.7336 9.01422 20.8905 7.7372 23.1258 6.56246C23.2275 6.50813 23.3291 6.4538 23.4339 6.39782C28.4567 3.7454 34.2885 2.58068 39.9325 2.60738ZM22.1883 15.1562C22.0449 15.5274 22.0449 15.5274 22.0321 15.9375C22.2055 16.2572 22.2055 16.2572 22.4916 16.531C22.6442 16.6924 22.6442 16.6924 22.7999 16.857C22.9075 16.966 23.015 17.0751 23.1258 17.1875C23.2246 17.2914 23.3233 17.3953 23.425 17.5024C24.0855 18.1947 24.7612 18.8723 25.4352 19.5515C25.6808 19.7998 25.9257 20.0489 26.1697 20.2989C26.5241 20.6617 26.8809 21.022 27.2384 21.3818C27.3471 21.4941 27.4558 21.6064 27.5679 21.722C27.6706 21.8244 27.7734 21.9267 27.8793 22.0321C28.0133 22.168 28.0133 22.168 28.15 22.3067C28.5231 22.5568 28.7797 22.5361 29.2196 22.5C29.2227 22.3487 29.2258 22.1974 29.2289 22.0415C29.2409 21.4771 29.2547 20.9128 29.2692 20.3485C29.2751 20.1048 29.2806 19.8611 29.2855 19.6174C29.2927 19.266 29.3017 18.9146 29.3111 18.5632C29.3138 18.4013 29.3138 18.4013 29.3166 18.2361C29.3365 17.5743 29.3963 17.0047 29.6883 16.4062C30.2282 16.1318 30.6777 16.0537 31.2788 16.0488C31.4384 16.0468 31.5981 16.0447 31.7626 16.0427C32.0228 16.0418 32.0228 16.0418 32.2883 16.0409C32.4723 16.0391 32.6564 16.0373 32.846 16.0354C33.3496 16.031 33.8532 16.028 34.3569 16.026C34.672 16.0247 34.9871 16.0231 35.3022 16.0215C36.2895 16.0164 37.2768 16.0126 38.2641 16.0107C39.4013 16.0085 40.5384 16.0016 41.6756 15.9908C42.5563 15.9827 43.437 15.9788 44.3178 15.9781C44.8431 15.9776 45.3682 15.9753 45.8935 15.9685C46.48 15.962 47.0661 15.9625 47.6527 15.9646C47.9115 15.9594 47.9115 15.9594 48.1755 15.9542C49.2279 15.9669 49.7783 16.1467 50.522 16.902C50.6507 17.0433 50.6507 17.0433 50.7821 17.1875C50.9175 17.3163 51.0528 17.4451 51.1923 17.5779C51.3112 17.6966 51.4301 17.8154 51.5526 17.9378C51.6896 18.0743 51.8267 18.2109 51.9679 18.3516C52.1113 18.4953 52.2548 18.6391 52.4025 18.7872C52.5545 18.939 52.7065 19.0909 52.8585 19.2427C53.1743 19.5582 53.4898 19.8741 53.8051 20.1901C54.2095 20.5954 54.6145 20.9999 55.0198 21.4043C55.3326 21.7165 55.6449 22.029 55.9572 22.3416C56.179 22.5636 56.4011 22.7853 56.6232 23.0069C56.8236 23.208 56.8236 23.208 57.0281 23.4132C57.1461 23.5314 57.2641 23.6495 57.3857 23.7712C57.8925 24.3151 57.8233 24.6952 57.7991 25.4236C57.7942 25.5873 57.7942 25.5873 57.7891 25.7543C57.7818 25.9943 57.7742 26.2343 57.7662 26.4743C57.7443 27.1424 57.7254 27.8105 57.7065 28.4787C57.7025 28.6216 57.6984 28.7645 57.6942 28.9117C57.639 30.9137 57.6137 32.9163 57.5877 34.9189C57.5658 36.5454 57.5332 38.1705 57.4753 39.7962C56.817 47.6576 56.817 47.6576 59.6319 54.6455C60.9123 55.9983 62.7286 57.8197 64.6883 57.9687C69.413 51.6489 71.3419 43.478 70.2938 35.6836C69.3087 29.1589 66.2487 23.3385 61.7196 18.5937C61.5945 18.4604 61.4694 18.327 61.3405 18.1897C57.0179 13.7043 51.0706 10.946 45.0008 9.84371C44.8383 9.81327 44.8383 9.81327 44.6725 9.78222C37.6501 8.53153 27.5953 10.1111 22.1883 15.1562ZM15.1778 22.2662C11.1738 26.9522 9.49821 33.8702 9.493 39.8828C9.49289 39.9928 9.49279 40.1027 9.49268 40.216C9.50508 48.409 12.7541 55.8586 18.4774 61.6699C20.3597 63.5404 22.4034 65.1091 24.7191 66.4042C24.9934 66.5583 25.2648 66.7175 25.5361 66.8768C32.1758 70.6904 40.4919 71.5471 47.8393 69.5977C50.7982 68.7726 53.6022 67.5143 56.2118 65.8984C56.3161 65.834 56.4204 65.7696 56.5279 65.7032C57.3224 65.2025 57.3224 65.2025 57.9696 64.5312C57.9138 63.9596 57.6508 63.6858 57.253 63.2902C57.1347 63.1714 57.0163 63.0526 56.8944 62.9301C56.7015 62.7402 56.7015 62.7402 56.5047 62.5463C56.3735 62.4154 56.2423 62.2845 56.1072 62.1497C55.8298 61.8733 55.5518 61.5975 55.2733 61.3223C54.8452 60.899 54.4187 60.4741 53.9925 60.0488C53.7232 59.7809 53.4539 59.5132 53.1844 59.2456C53.0558 59.1177 52.9272 58.9897 52.7948 58.8579C52.6764 58.7411 52.5581 58.6242 52.4361 58.5038C52.3315 58.4002 52.2268 58.2966 52.119 58.1899C51.9113 57.9512 51.9113 57.9512 51.7196 57.9687C51.7173 58.0963 51.715 58.224 51.7127 58.3554C51.701 58.9362 51.6859 59.5169 51.6707 60.0976C51.6672 60.2984 51.6637 60.4992 51.6601 60.7061C51.6545 60.9005 51.649 61.0949 51.6433 61.2951C51.6392 61.4735 51.6351 61.6519 51.6309 61.8357C51.5528 62.4229 51.4232 62.7876 51.0946 63.2812C50.4037 63.7058 49.8827 63.8087 49.0778 63.8095C48.973 63.8102 48.8682 63.8109 48.7603 63.8117C48.4112 63.8136 48.0623 63.8121 47.7132 63.8106C47.4621 63.8112 47.2111 63.8121 46.96 63.8131C46.2795 63.8152 45.599 63.8144 44.9184 63.8129C44.2057 63.8117 43.493 63.8128 42.7802 63.8136C41.5833 63.8144 40.3865 63.8133 39.1897 63.8111C37.8066 63.8085 36.4237 63.8093 35.0407 63.8119C33.8525 63.8141 32.6643 63.8144 31.4761 63.8131C30.7668 63.8124 30.0575 63.8123 29.3482 63.8138C28.6813 63.8152 28.0144 63.8143 27.3475 63.8116C27.103 63.8109 26.8585 63.8111 26.6139 63.8121C26.2797 63.8134 25.9456 63.8118 25.6113 63.8095C25.4244 63.8093 25.2375 63.8091 25.045 63.8089C24.4501 63.7405 24.092 63.6154 23.5946 63.2812C23.0803 62.5505 23.0715 61.8776 23.1108 61.0148C23.1147 60.8831 23.1187 60.7513 23.1227 60.6156C23.1316 60.3275 23.1415 60.0394 23.1525 59.7514C23.1765 59.1177 23.195 58.4838 23.214 57.8498C23.2243 57.5081 23.2348 57.1663 23.2457 56.8246C23.3148 54.6154 23.3471 52.4056 23.3814 50.1957C23.415 48.0497 23.4597 45.9054 23.541 43.7607C24.3712 34.2808 24.3712 34.2808 20.9218 25.8893C19.5256 24.3868 17.7933 22.9146 15.9383 22.0312C15.468 21.9822 15.468 21.9822 15.1778 22.2662Z" fill="#B3E7F2"/>
<path d="M59.8457 14.6876C60.0052 14.8153 60.1647 14.943 60.3291 15.0746C66.2427 19.8974 70.4002 26.7151 71.6719 34.2677C71.705 34.4567 71.7381 34.6457 71.7723 34.8405C71.8627 35.362 71.9492 35.8838 72.0332 36.4064C72.0517 36.518 72.0702 36.6297 72.0893 36.7448C73.1368 43.8533 70.8657 51.4602 67.1309 57.4513C67.0547 57.5738 66.9785 57.6963 66.9 57.8225C66.3756 58.6338 65.7862 59.3557 64.8457 59.6876C63.9246 59.8321 63.4718 59.5622 62.7446 59.0588C61.9726 58.4613 61.2956 57.7649 60.6089 57.0738C60.4374 56.903 60.2658 56.7323 60.0942 56.5617C59.6254 56.0952 59.1581 55.6272 58.691 55.159C58.1861 54.6533 57.6798 54.1489 57.1736 53.6444C56.1834 52.6569 55.1945 51.6681 54.206 50.6788C53.4027 49.8748 52.5988 49.0712 51.7947 48.2679C51.6802 48.1535 51.5656 48.0391 51.4476 47.9212C51.2149 47.6887 50.9822 47.4562 50.7495 47.2237C48.5688 45.0452 46.3896 42.8652 44.211 40.6847C42.2179 38.6901 40.2231 36.6974 38.2274 34.7054C36.1773 32.6591 34.1284 30.6117 32.0807 28.563C30.9314 27.4132 29.7817 26.2638 28.6308 25.1156C27.6514 24.1385 26.6731 23.1603 25.6962 22.1807C25.1979 21.681 24.6991 21.1819 24.1989 20.6841C23.7408 20.2282 23.2842 19.7708 22.8287 19.3124C22.6639 19.1469 22.4986 18.9821 22.3326 18.8178C20.4812 16.9832 20.4812 16.9832 20.2266 15.6251C20.3937 14.7339 20.9034 13.9975 21.6377 13.4687C21.8456 13.3347 22.0557 13.204 22.2676 13.0763C22.3827 13.0047 22.4979 12.9331 22.6165 12.8594C26.0798 10.7437 29.6188 9.25438 33.5957 8.4376C33.7141 8.41285 33.8324 8.3881 33.9544 8.3626C42.9099 6.51007 52.7322 8.96164 59.8457 14.6876ZM22.1895 15.1563C22.046 15.5275 22.046 15.5275 22.0332 15.9376C22.2067 16.2574 22.2067 16.2574 22.4927 16.5312C22.6454 16.6925 22.6454 16.6925 22.8011 16.8571C22.9086 16.9662 23.0162 17.0752 23.127 17.1876C23.2257 17.2915 23.3244 17.3954 23.4262 17.5025C24.0867 18.1948 24.7624 18.8725 25.4363 19.5516C25.682 19.7999 25.9268 20.0491 26.1709 20.299C26.5252 20.6619 26.882 21.0222 27.2395 21.3819C27.3482 21.4942 27.457 21.6065 27.569 21.7222C27.6718 21.8245 27.7746 21.9268 27.8804 22.0323C28.0145 22.1682 28.0145 22.1682 28.1512 22.3068C28.5243 22.557 28.7808 22.5363 29.2207 22.5001C29.2238 22.3488 29.2269 22.1975 29.2301 22.0416C29.242 21.4773 29.2559 20.9129 29.2703 20.3486C29.2763 20.1049 29.2817 19.8613 29.2866 19.6176C29.2938 19.2661 29.3029 18.9147 29.3123 18.5633C29.315 18.4014 29.315 18.4014 29.3177 18.2362C29.3376 17.5744 29.3975 17.0048 29.6895 16.4063C30.2294 16.132 30.6789 16.0538 31.2799 16.0489C31.4396 16.0469 31.5993 16.0449 31.7638 16.0428C32.024 16.0419 32.024 16.0419 32.2894 16.041C32.4735 16.0392 32.6575 16.0374 32.8471 16.0356C33.3508 16.0311 33.8544 16.0281 34.358 16.0261C34.6731 16.0249 34.9883 16.0233 35.3034 16.0216C36.2906 16.0165 37.2779 16.0128 38.2652 16.0109C39.4024 16.0086 40.5395 16.0018 41.6767 15.9909C42.5575 15.9828 43.4382 15.979 44.3189 15.9782C44.8442 15.9777 45.3694 15.9754 45.8946 15.9687C46.4811 15.9622 47.0673 15.9626 47.6538 15.9647C47.9126 15.9596 47.9126 15.9596 48.1766 15.9543C49.229 15.9671 49.7794 16.1468 50.5231 16.9021C50.6519 17.0434 50.6519 17.0434 50.7832 17.1876C50.9186 17.3164 51.054 17.4453 51.1935 17.578C51.3124 17.6968 51.4312 17.8155 51.5537 17.9379C51.6908 18.0745 51.8278 18.211 51.969 18.3517C52.1125 18.4955 52.2559 18.6392 52.4037 18.7873C52.5556 18.9392 52.7076 19.091 52.8596 19.2428C53.1754 19.5584 53.4909 19.8742 53.8062 20.1903C54.2106 20.5955 54.6157 21.0001 55.021 21.4044C55.3337 21.7166 55.6461 22.0291 55.9583 22.3418C56.1801 22.5638 56.4022 22.7854 56.6244 23.007C56.8248 23.2082 56.8248 23.2082 57.0292 23.4134C57.1472 23.5315 57.2652 23.6497 57.3868 23.7714C57.8936 24.3152 57.8244 24.6953 57.8003 25.4237C57.7953 25.5874 57.7953 25.5874 57.7902 25.7544C57.7829 25.9944 57.7753 26.2344 57.7674 26.4745C57.7454 27.1425 57.7265 27.8107 57.7077 28.4788C57.7036 28.6217 57.6996 28.7646 57.6954 28.9119C57.6402 30.9139 57.6148 32.9164 57.5889 34.919C57.5669 36.5456 57.5343 38.1706 57.4764 39.7964C56.8181 47.6578 56.8181 47.6578 59.633 54.6456C60.9134 55.9984 62.7297 57.8199 64.6894 57.9689C69.4141 51.649 71.343 43.4781 70.2949 35.6837C69.3098 29.159 66.2498 23.3387 61.7207 18.5938C61.5956 18.4605 61.4705 18.3272 61.3417 18.1898C57.019 13.7044 51.0718 10.9461 45.002 9.84385C44.8394 9.81341 44.8394 9.81341 44.6737 9.78235C37.6513 8.53167 27.5965 10.1112 22.1895 15.1563Z" fill="#2B5582"/>
<path d="M24.6875 30.7812C25.4246 31.413 26.14 32.0463 26.8381 32.718C26.9386 32.8142 27.0391 32.9105 27.1426 33.0096C27.4764 33.3297 27.8097 33.6503 28.143 33.971C28.2603 34.0837 28.3776 34.1964 28.4985 34.3126C30.8143 36.538 33.1129 38.781 35.4054 41.0305C36.8632 42.4603 38.326 43.8842 39.8022 45.295C41.0935 46.5291 42.374 47.7733 43.6431 49.0303C44.3135 49.6937 44.9879 50.3513 45.6755 50.997C50.3382 55.3861 50.3382 55.3861 50.5253 58.1347C50.6083 61.1498 50.6083 61.1498 49.9694 62.1748C49.5434 62.4301 49.19 62.4018 48.696 62.4012C48.595 62.4017 48.494 62.4022 48.39 62.4027C48.0509 62.4039 47.712 62.4016 47.373 62.3994C47.1302 62.3996 46.8874 62.3999 46.6447 62.4004C45.9848 62.4012 45.325 62.3991 44.6651 62.3964C43.9755 62.3941 43.2858 62.3943 42.5961 62.3941C41.4379 62.3936 40.2798 62.3912 39.1217 62.3877C37.6338 62.3832 36.1459 62.3816 34.6579 62.3809C33.3804 62.3802 32.1028 62.3783 30.8252 62.3761C30.4137 62.3755 30.0022 62.375 29.5907 62.3746C28.945 62.3738 28.2993 62.3722 27.6536 62.37C27.4161 62.3693 27.1786 62.3688 26.9411 62.3687C26.618 62.3684 26.2948 62.3672 25.9717 62.3657C25.7905 62.3652 25.6093 62.3648 25.4227 62.3643C25 62.3437 25 62.3438 24.6875 62.1875C24.6875 51.8234 24.6875 41.4594 24.6875 30.7812Z" fill="#D9E5F0"/>
<path d="M39.9325 2.60738C40.0617 2.60772 40.1909 2.60806 40.324 2.6084C48.7536 2.64347 57.1093 5.47763 63.5946 10.9375C63.6849 11.0121 63.7752 11.0868 63.8682 11.1637C65.7931 12.7555 67.5155 14.4415 69.0633 16.4062C69.2165 16.5905 69.2165 16.5905 69.3728 16.7785C70.9861 18.7299 72.2632 20.8889 73.4383 23.125C73.4926 23.2266 73.547 23.3283 73.603 23.433C76.246 28.4381 77.4192 34.2307 77.3934 39.8535C77.3931 39.9864 77.3927 40.1193 77.3924 40.2562C77.3599 48.2665 74.8923 56.3513 69.8446 62.6562C69.7443 62.7863 69.644 62.9164 69.5406 63.0505C68.7092 64.1175 67.8067 65.1139 66.8758 66.0937C66.7966 66.1774 66.7174 66.2611 66.6358 66.3473C65.4006 67.6434 64.0954 68.7789 62.6571 69.8437C62.5674 69.9108 62.4778 69.9778 62.3855 70.0469C57.698 73.54 52.3149 75.8427 46.5633 76.875C46.4204 76.9008 46.2774 76.9266 46.1301 76.9532C41.9989 77.6622 37.5599 77.616 33.4383 76.875C33.2914 76.849 33.1445 76.823 32.9931 76.7962C24.2207 75.1907 15.8967 70.2565 10.4696 63.125C10.3573 62.9786 10.3573 62.9786 10.2427 62.8293C6.61297 58.0669 4.2101 52.6098 3.12581 46.7187C3.08744 46.5127 3.08744 46.5127 3.0483 46.3025C1.37659 36.837 3.63536 26.6788 9.09558 18.7901C9.4847 18.2422 9.89434 17.7127 10.3133 17.1875C10.4253 17.0455 10.5373 16.9035 10.6527 16.7572C11.5343 15.6582 12.4726 14.6185 13.4383 13.5937C13.5461 13.4793 13.6538 13.3649 13.7648 13.247C14.5851 12.4016 15.4876 11.6717 16.4071 10.9375C16.5307 10.8345 16.6544 10.7316 16.7818 10.6256C18.7336 9.01422 20.8905 7.7372 23.1258 6.56246C23.2275 6.50813 23.3291 6.4538 23.4339 6.39782C28.4567 3.7454 34.2885 2.58068 39.9325 2.60738ZM34.0633 4.68746C33.9349 4.70755 33.8066 4.72764 33.6743 4.74834C26.2944 5.91477 19.88 9.78306 14.5321 14.8437C14.4257 14.9434 14.3194 15.0431 14.2098 15.1458C7.78808 21.3446 4.33589 30.7177 4.17504 39.508C4.15918 41.4978 4.30794 43.4251 4.6256 45.3885C4.68214 45.7425 4.73216 46.0967 4.77986 46.452C5.7906 53.4991 9.54613 59.9052 14.3758 65C14.4497 65.0784 14.5237 65.1568 14.5998 65.2375C15.7861 66.4873 17.0596 67.5625 18.4383 68.5937C18.6607 68.7626 18.6607 68.7626 18.8875 68.9349C19.9458 69.724 21.0461 70.4325 22.1883 71.0937C22.3301 71.1762 22.3301 71.1762 22.4747 71.2603C26.3247 73.4692 30.485 74.7583 34.8446 75.4687C34.9588 75.4875 35.073 75.5062 35.1906 75.5255C44.0273 76.9058 53.6175 74.4078 60.8152 69.1604C62.345 68.0214 63.7729 66.7785 65.1571 65.4687C65.3023 65.3319 65.4475 65.1952 65.5971 65.0543C66.7144 63.9719 67.6639 62.8056 68.5946 61.5625C68.6596 61.4774 68.7246 61.3923 68.7916 61.3046C74.5628 53.7347 76.6917 44.0472 75.4537 34.7003C74.9595 31.2549 73.9486 27.7613 72.3395 24.6666C72.167 24.3338 72.0006 23.9983 71.8337 23.6627C70.9852 21.9797 70.0282 20.4206 68.9071 18.9062C68.8384 18.8131 68.7698 18.7199 68.6991 18.6239C64.2729 12.672 58.1164 8.30707 51.0946 5.93746C50.9799 5.89866 50.8653 5.85986 50.7471 5.81989C45.3959 4.04802 39.6001 3.74796 34.0633 4.68746Z" fill="#2B5582"/>
<path d="M15.6446 20.4003C15.7868 20.3908 15.929 20.3813 16.0755 20.3716C17.469 20.6492 18.5654 22.1148 19.5257 23.0796C19.6965 23.2501 19.8674 23.4205 20.0384 23.5908C20.5057 24.0568 20.972 24.5238 21.4381 24.9909C21.9419 25.4953 22.4466 25.9989 22.9511 26.5026C23.9383 27.4884 24.9247 28.4751 25.9107 29.462C26.712 30.264 27.5136 31.0657 28.3154 31.8672C28.4296 31.9813 28.5437 32.0954 28.6614 32.213C28.8933 32.4449 29.1253 32.6767 29.3573 32.9086C31.531 35.0815 33.7038 37.2553 35.8763 39.4294C37.7408 41.2953 39.6061 43.1603 41.4719 45.0248C43.6391 47.1903 45.8058 49.3563 47.9717 51.5231C48.2025 51.7541 48.4334 51.985 48.6642 52.216C48.7778 52.3296 48.8914 52.4433 49.0084 52.5603C49.8093 53.3615 50.6105 54.1622 51.4119 54.9628C52.3879 55.938 53.3634 56.9138 54.3382 57.8902C54.8357 58.3885 55.3334 58.8865 55.8317 59.3839C56.2878 59.839 56.7431 60.2948 57.1978 60.7512C57.3626 60.9163 57.5276 61.0812 57.693 61.2457C57.9174 61.4692 58.1408 61.6938 58.3641 61.9184C58.4886 62.0429 58.613 62.1674 58.7413 62.2957C59.3088 62.9324 59.5984 63.4277 59.5996 64.287C59.6027 64.4286 59.6057 64.5702 59.6088 64.7161C59.4716 65.4952 59.0687 65.9589 58.4699 66.4556C58.2948 66.5751 58.1178 66.6919 57.9395 66.8065C57.8403 66.8712 57.741 66.9359 57.6388 67.0026C50.477 71.5436 41.9192 73.4241 33.5585 71.6092C27.7299 70.2499 22.2237 67.549 17.9028 63.3634C17.729 63.1952 17.5542 63.0282 17.3787 62.862C11.4886 57.277 8.00239 49.2608 7.7808 41.1516C7.69192 34.4593 9.31479 28.2345 12.8711 22.5487C12.9473 22.4263 13.0235 22.3039 13.1019 22.1777C13.7569 21.164 14.3894 20.458 15.6446 20.4003ZM15.177 22.2661C11.1731 26.9521 9.49744 33.8701 9.49223 39.8827C9.49212 39.9927 9.49202 40.1026 9.49191 40.216C9.50431 48.4089 12.7534 55.8585 18.4766 61.6698C20.3589 63.5403 22.4027 65.109 24.7183 66.4041C24.9926 66.5582 25.264 66.7174 25.5353 66.8767C32.1751 70.6903 40.4912 71.547 47.8385 69.5976C50.7975 68.7725 53.6015 67.5142 56.211 65.8983C56.3153 65.8339 56.4196 65.7695 56.5271 65.7032C57.3216 65.2024 57.3216 65.2024 57.9688 64.5311C57.913 63.9595 57.65 63.6857 57.2522 63.2901C57.1339 63.1713 57.0155 63.0525 56.8936 62.93C56.7007 62.7401 56.7007 62.7401 56.5039 62.5463C56.3727 62.4154 56.2416 62.2845 56.1064 62.1496C55.829 61.8732 55.551 61.5975 55.2726 61.3222C54.8444 60.8989 54.4179 60.474 53.9917 60.0487C53.7225 59.7809 53.4531 59.5131 53.1836 59.2455C53.0551 59.1176 52.9265 58.9896 52.794 58.8579C52.6756 58.741 52.5573 58.6241 52.4353 58.5038C52.3307 58.4002 52.226 58.2966 52.1182 58.1898C51.9106 57.9511 51.9106 57.9511 51.7188 57.9686C51.7165 58.0962 51.7142 58.2239 51.7119 58.3554C51.7002 58.9362 51.6851 59.5168 51.67 60.0975C51.6664 60.2983 51.6629 60.4992 51.6593 60.7061C51.6537 60.9004 51.6482 61.0948 51.6425 61.295C51.6384 61.4734 51.6343 61.6518 51.6301 61.8356C51.552 62.4228 51.4224 62.7875 51.0938 63.2811C50.4029 63.7057 49.8819 63.8086 49.077 63.8094C48.9723 63.8101 48.8675 63.8109 48.7595 63.8116C48.4105 63.8135 48.0615 63.812 47.7124 63.8105C47.4614 63.8112 47.2103 63.812 46.9592 63.813C46.2787 63.8152 45.5982 63.8143 44.9177 63.8128C44.2049 63.8117 43.4922 63.8128 42.7794 63.8135C41.5826 63.8143 40.3857 63.8132 39.1889 63.811C37.8059 63.8084 36.4229 63.8093 35.0399 63.8118C33.8517 63.814 32.6635 63.8143 31.4753 63.813C30.766 63.8123 30.0567 63.8122 29.3474 63.8138C28.6805 63.8151 28.0136 63.8142 27.3467 63.8115C27.1022 63.8108 26.8577 63.811 26.6132 63.8121C26.2789 63.8133 25.9448 63.8117 25.6105 63.8094C25.4237 63.8092 25.2368 63.809 25.0442 63.8089C24.4494 63.7405 24.0912 63.6153 23.5938 63.2811C23.0796 62.5504 23.0708 61.8775 23.1101 61.0147C23.114 60.883 23.1179 60.7512 23.1219 60.6155C23.1308 60.3274 23.1407 60.0394 23.1517 59.7513C23.1757 59.1176 23.1943 58.4837 23.2132 57.8498C23.2235 57.508 23.2341 57.1662 23.2449 56.8245C23.3141 54.6153 23.3463 52.4055 23.3806 50.1956C23.4142 48.0496 23.4589 45.9054 23.5402 43.7606C24.3705 34.2807 24.3705 34.2807 20.921 25.8892C19.5249 24.3867 17.7925 22.9145 15.9375 22.0311C15.4672 21.9821 15.4672 21.9821 15.177 22.2661ZM24.6875 30.7811C24.6875 41.1452 24.6875 51.5093 24.6875 62.1874C25.1241 62.4057 25.483 62.3643 25.9717 62.3656C26.0724 62.366 26.1732 62.3665 26.277 62.367C26.6161 62.3683 26.9552 62.3686 27.2943 62.3688C27.5368 62.3695 27.7793 62.3703 28.0218 62.3712C28.6817 62.3732 29.3416 62.3742 30.0014 62.3749C30.4133 62.3754 30.8253 62.376 31.2372 62.3767C32.525 62.3788 33.8129 62.3803 35.1008 62.381C36.5892 62.3817 38.0777 62.3844 39.5661 62.3889C40.7156 62.3923 41.865 62.3939 43.0144 62.3941C43.7014 62.3942 44.3885 62.3952 45.0755 62.398C45.7215 62.4005 46.3675 62.4009 47.0135 62.3995C47.2509 62.3994 47.4883 62.4001 47.7257 62.4016C48.0492 62.4036 48.3725 62.4027 48.696 62.401C48.9679 62.4014 48.9679 62.4014 49.2452 62.4017C49.6781 62.3749 49.6781 62.3749 49.9689 62.1742C50.8132 60.826 50.6535 58.4229 50.3946 56.9121C49.7579 54.2678 46.9412 52.1768 45.0501 50.3961C44.3307 49.7127 43.628 49.0126 42.9233 48.3142C41.7413 47.1474 40.5499 45.9913 39.3502 44.8428C38.1165 43.6617 36.8894 42.4743 35.6702 41.2782C35.5947 41.2041 35.5192 41.13 35.4414 41.0537C35.0624 40.6819 34.6836 40.3099 34.3048 39.9379C31.9425 37.6183 29.5708 35.3086 27.1851 33.013C27.065 32.8971 26.9448 32.7813 26.821 32.6619C26.4889 32.3419 26.1563 32.0224 25.8235 31.7032C25.7255 31.6086 25.6275 31.5141 25.5265 31.4167C25.1616 30.9831 25.1616 30.9831 24.6875 30.7811Z" fill="#2B5582"/>
<path d="M30.9375 17.5C36.7125 17.5 42.4875 17.5 48.4375 17.5C48.4891 19.6656 48.5406 21.8313 48.5938 24.0625C49.1146 24.974 49.1146 24.974 49.6875 25.3125C51.9047 25.3641 54.1219 25.4156 56.4062 25.4688C56.4062 33.7187 56.4062 41.9687 56.4062 50.4688C56.0453 50.1594 55.6844 49.85 55.3125 49.5312C55.0191 49.3252 54.7242 49.1212 54.4278 48.9196C52.9394 47.789 51.7344 46.6442 51.4704 44.7179C51.2917 42.7789 51.3783 40.8245 51.4633 38.8826C51.5189 37.5276 51.5418 36.1716 51.5657 34.8157C51.5769 34.3455 51.5967 33.8762 51.6181 33.4064C51.7458 31.7888 51.7458 31.7888 51.1168 30.3695C50.9051 30.1891 50.6886 30.0142 50.4688 29.8438C50.2113 29.5846 49.9566 29.3228 49.7041 29.0589C49.4148 28.7685 49.125 28.4786 48.8348 28.1891C48.6795 28.0336 48.5242 27.8781 48.3688 27.7226C48.0459 27.3995 47.7227 27.0766 47.3993 26.754C46.9846 26.3401 46.5706 25.9256 46.1568 25.5109C45.8374 25.1909 45.5176 24.8713 45.1977 24.5518C45.0448 24.399 44.892 24.246 44.7393 24.093C44.5269 23.8802 44.314 23.668 44.1011 23.4558C43.9802 23.3351 43.8592 23.2143 43.7347 23.0898C43.1855 22.5773 42.686 22.6299 41.9707 22.6242C41.8518 22.6226 41.7329 22.6211 41.6104 22.6195C41.2164 22.6145 40.8224 22.6107 40.4285 22.6068C40.1557 22.6036 39.8829 22.6003 39.6101 22.597C38.8913 22.5883 38.1726 22.5806 37.4539 22.5731C36.7208 22.5652 35.9876 22.5565 35.2545 22.5479C33.8155 22.5311 32.3765 22.5153 30.9375 22.5C30.9375 20.85 30.9375 19.2 30.9375 17.5Z" fill="#F0C44A"/>
<path d="M30 24.0625C34.0219 24.0625 38.0437 24.0625 42.1875 24.0625C42.2266 27.2852 42.2266 27.2852 42.234 28.2975C42.2386 28.5643 42.2434 28.8311 42.2485 29.0979C42.2488 29.3033 42.2488 29.3033 42.2491 29.5127C42.2691 30.3733 42.3887 30.884 42.9688 31.5625C43.4501 31.8834 43.5617 31.9152 44.1075 31.9248C44.2438 31.928 44.3802 31.9311 44.5207 31.9343C44.7347 31.937 44.7347 31.937 44.953 31.9397C45.0846 31.9425 45.2162 31.9452 45.3518 31.9481C45.8432 31.9579 46.3347 31.9651 46.8262 31.9727C48.4746 32.0017 48.4746 32.0017 50.1562 32.0312C50.1562 36.0531 50.1562 40.075 50.1562 44.2188C49.4752 43.635 48.837 43.0753 48.2073 42.4459C48.1285 42.3673 48.0497 42.2888 47.9686 42.2079C47.7082 41.9481 47.4483 41.6878 47.1885 41.4274C47.0005 41.2397 46.8126 41.052 46.6246 40.8644C46.1168 40.3573 45.6095 39.8497 45.1023 39.3421C44.5712 38.8106 44.0397 38.2794 43.5083 37.7483C42.6171 36.8574 41.7263 35.9661 40.8356 35.0747C39.8046 34.0429 38.7731 33.0116 37.7412 31.9807C36.8552 31.0953 35.9694 30.2097 35.084 29.3238C34.5551 28.7947 34.0261 28.2656 33.4969 27.7369C33.0003 27.2408 32.5041 26.7443 32.0083 26.2476C31.8257 26.0648 31.6431 25.8822 31.4602 25.6997C31.2119 25.4518 30.9641 25.2034 30.7163 24.9549C30.5772 24.8157 30.438 24.6765 30.2947 24.5331C30 24.2188 30 24.2188 30 24.0625Z" fill="#D4DFEA"/>
<path d="M12.033 70.4688C12.3357 70.625 12.3357 70.625 12.5017 70.9375C12.5386 71.3623 12.5228 71.7593 12.5017 72.1875C12.6983 72.1779 12.8949 72.1682 13.0974 72.1582C13.4982 72.1611 13.7072 72.1638 14.0642 72.3535C14.3118 72.8332 14.2771 73.2214 14.2205 73.75C14.0642 74.0528 14.0642 74.0528 13.7517 74.2188C13.3269 74.2556 12.9299 74.2398 12.5017 74.2188C12.5114 74.4154 12.5211 74.6119 12.531 74.8145C12.5282 75.2152 12.5254 75.4242 12.3357 75.7813C11.8561 76.0288 11.4679 75.9942 10.9392 75.9375C10.6365 75.7813 10.6365 75.7813 10.4705 75.4688C10.4336 75.044 10.4494 74.647 10.4705 74.2188C10.2739 74.2284 10.0773 74.2381 9.87479 74.2481C9.47407 74.2452 9.26508 74.2425 8.90799 74.0528C8.66044 73.5731 8.6951 73.1849 8.75174 72.6563C8.90799 72.3535 8.90799 72.3535 9.22049 72.1875C9.64531 72.1507 10.0423 72.1665 10.4705 72.1875C10.4608 71.9909 10.4512 71.7944 10.4412 71.5918C10.444 71.1911 10.4468 70.9821 10.6365 70.625C11.1161 70.3775 11.5044 70.4121 12.033 70.4688Z" fill="#87D047"/>
<path d="M43.7482 25.3125C44.4761 25.9212 45.1679 26.5527 45.8374 27.2247C45.9261 27.3132 46.0147 27.4017 46.106 27.4928C46.2909 27.6776 46.4756 27.8626 46.6602 28.0478C46.9441 28.3326 47.2289 28.6166 47.5138 28.9005C47.694 29.0808 47.8741 29.2611 48.0542 29.4415C48.1397 29.5266 48.2251 29.6118 48.3131 29.6995C48.9045 30.2945 48.9045 30.2945 48.9045 30.4688C48.1952 30.4726 47.486 30.4754 46.7768 30.4773C46.5354 30.4781 46.2939 30.4792 46.0525 30.4805C45.7061 30.4824 45.3598 30.4833 45.0135 30.484C44.8506 30.4852 44.8506 30.4852 44.6845 30.4865C44.4244 30.4865 44.1644 30.4784 43.9045 30.4688C43.7482 30.3125 43.7482 30.3125 43.7305 29.8358C43.7305 29.625 43.7314 29.4142 43.7329 29.2035C43.7332 29.0927 43.7334 28.982 43.7336 28.8679C43.7345 28.5128 43.7365 28.1578 43.7384 27.8027C43.7392 27.5626 43.7399 27.3224 43.7406 27.0822C43.7423 26.4923 43.745 25.9024 43.7482 25.3125Z" fill="#E8EFF7"/>
<path d="M49.9982 18.75C50.7261 19.3587 51.4179 19.9902 52.0874 20.6622C52.1761 20.7507 52.2647 20.8392 52.356 20.9303C52.5409 21.1151 52.7256 21.3001 52.9102 21.4853C53.1941 21.7701 53.4789 22.0541 53.7638 22.338C53.944 22.5183 54.1241 22.6986 54.3042 22.879C54.3897 22.9641 54.4751 23.0493 54.5631 23.137C55.1545 23.732 55.1545 23.732 55.1545 23.9062C54.4452 23.9101 53.736 23.9129 53.0268 23.9148C52.7854 23.9156 52.5439 23.9167 52.3025 23.918C51.9561 23.9199 51.6098 23.9208 51.2635 23.9215C51.1006 23.9227 51.1006 23.9227 50.9345 23.924C50.6744 23.924 50.4144 23.9159 50.1545 23.9062C49.9982 23.75 49.9982 23.75 49.9805 23.2733C49.9805 23.0625 49.9814 22.8517 49.9829 22.641C49.9832 22.5302 49.9834 22.4195 49.9836 22.3054C49.9845 21.9503 49.9865 21.5953 49.9884 21.2402C49.9892 21.0001 49.9899 20.7599 49.9906 20.5197C49.9923 19.9298 49.995 19.3399 49.9982 18.75Z" fill="#F7D883"/>
<path d="M69.375 4.375C69.4781 4.375 69.5812 4.375 69.6875 4.375C69.7487 4.56514 69.81 4.75527 69.873 4.95117C70.3581 6.21489 71.3274 6.65243 72.5 7.1875C72.5 7.29063 72.5 7.39375 72.5 7.5C72.3963 7.53424 72.2925 7.56848 72.1857 7.60376C71.117 7.98754 70.5232 8.32122 70.0061 9.36584C69.8916 9.62582 69.7884 9.89071 69.6875 10.1562C69.2188 10 69.2188 10 69.0747 9.74426C69.032 9.63852 68.9893 9.53278 68.9453 9.42383C68.5155 8.51006 67.8963 7.971 66.9629 7.59766C66.7647 7.54932 66.7647 7.54932 66.5625 7.5C66.5625 7.39687 66.5625 7.29375 66.5625 7.1875C66.6644 7.14561 66.7663 7.10371 66.8713 7.06055C68.0785 6.51928 68.727 5.8883 69.2773 4.6875C69.3257 4.53281 69.3257 4.53281 69.375 4.375Z" fill="#6FD6F9"/>
<path d="M72.3438 66.875C72.4469 66.875 72.55 66.875 72.6562 66.875C72.8137 67.1265 72.8137 67.1265 72.9883 67.4609C73.4285 68.2065 73.8967 68.4283 74.6875 68.75C74.5312 69.0625 74.5312 69.0625 74.0918 69.2773C73.3014 69.6803 72.9363 70.0973 72.6562 70.9375C72.5531 70.9375 72.45 70.9375 72.3438 70.9375C72.3131 70.8545 72.2825 70.7715 72.251 70.686C71.8971 69.8501 71.5561 69.5092 70.7202 69.1553C70.6372 69.1247 70.5542 69.094 70.4688 69.0625C70.4688 68.9594 70.4688 68.8563 70.4688 68.75C70.7257 68.5706 70.7257 68.5706 71.0645 68.3789C71.746 67.9695 72.0889 67.6395 72.3438 66.875Z" fill="#F5C84B"/>
<path d="M19.8418 77.8126C20.2668 78.0675 20.3047 78.2601 20.4375 78.7403C20.468 79.2381 20.4375 79.4413 20.1543 79.8438C19.6552 80.0933 19.1336 80.0787 18.5918 80.0001C18.1711 79.6583 18.1325 79.44 18.0547 78.9063C18.123 78.4376 18.123 78.4376 18.3672 78.0665C18.8886 77.7189 19.2276 77.7344 19.8418 77.8126Z" fill="#6FD7F9"/>
<path d="M59.552 -0.050063C59.8444 -1.41785e-05 59.8444 -1.41785e-05 60.1471 0.185533C60.366 0.558867 60.4487 0.815098 60.4694 1.24999C60.291 1.60673 60.1272 1.90469 59.8444 2.18749C59.2416 2.24435 58.8819 2.275 58.3698 1.93358C58.0539 1.4534 58.0432 1.19022 58.1256 0.624986C58.4226 -0.0802936 58.8534 -0.088518 59.552 -0.050063Z" fill="#F5C84C"/>
</g>
<defs>
<clipPath id="clip0_7017_5715">
<rect width="80" height="80" fill="white"/>
</clipPath>
</defs>
</svg>
