<svg id="Layer_1" data-name="Layer 1" xmlns="http://www.w3.org/2000/svg" viewBox="0 0 300 87"><defs><style>.cls-1,.cls-2{fill:#fff;}.cls-1{opacity:0;}</style></defs><rect class="cls-1" width="300" height="87"/><path id="nykaa-seeklogo.com" class="cls-2" d="M107.87,14.26c2.14-4.1-4.81-3-4.81-3-2.55,0-3.6,3-4.11,3.88L91.43,30c-1.4,2.55-6.09,12.92-7.64,15.29V37.07c.3-4.46.61-7.87,1.09-11.93a34,34,0,0,0,.39-9.91c-.33-2-1-2.17-3.8-2.45s-5,4-6,5.89c-3.6,7.65-7.62,14.86-10.86,22.5-.94,2.22-2.09,4.46-3.08,6.65-1.15,2.55-2.22,5.28-3.47,7.88s-5.5,11.77-6.65,14.6S49.89,75.88,55,75.73a5.59,5.59,0,0,0,4.84-2.22A16.48,16.48,0,0,0,63,67.24C66.71,58,69.34,52,73.37,42.68c.38-.92,1.3-3.52,2.19-5.53,0,2.85-.51,6.29-.74,8.56C74.13,54,73.6,62,72.93,70.3a7,7,0,0,0,0,3.47,3.47,3.47,0,0,0,2.83,1.42c4.13.51,4.56-1.55,5.86-4.38s1.84-4.59,2.86-7.16C87.66,55.7,91,47.85,94.67,40.13c.94-2,1.89-3.88,2.91-5.84,1.88-3.57,3.44-6.9,5.5-10.85,1.53-2.83,3-6,4.66-9.18ZM249.21,36.51c-.46-4.74-7-2.35-10.88-1.63L227.17,37c-.23-5.35-.13-4.28-.18-7.64,0-4.72-.38-8.41-.64-12.59-.18-2.55-.56-6.25-5.28-5.56-5.5.77-6.39,3.52-7.84,6.81-3.83,8.64-3.7,8.66-8,18.27-.36.74-1.94,4.59-2.19,5.38l-.95.25-6.14,1.58v-.23c.56-4.36,1.25-8.74,1.84-13.12.56-4,1.17-10.5,1.63-14.5s-4.54-4.18-4.54-4.18a6,6,0,0,0-6.12,3.21c-3.31,4.28-7.31,8.92-10.83,13.63-6.39,8.54-11.06,15-16.84,23.55-1.68,2.55-4.26,6.27-6.47,9.23-1.51-3-2.81-6.22-4.06-9.23-1.78-4.28-3.13-7-4-9.79s.15-2.82,2-4.23c5.33-4,11.32-6.83,16.77-10.67,3.87-2.76,8.49-5.81,12.26-8.64A12.77,12.77,0,0,0,181,15.61c1.5-2-2.73-4.2-2.73-4.2a8.11,8.11,0,0,0-5.43.94,30.57,30.57,0,0,0-5.4,3.77c-3.21,2.55-7.29,5.43-10.45,7.93a90,90,0,0,1-10.86,7.36L157,15.1c3.56-4.59-5.89-5.86-9.48-1-3.34,4.36-5.64,8.18-8.24,12.24A267.24,267.24,0,0,0,122.6,55.93c-2,4-3.9,8-5.71,12.13-.86,2-3.39,6.52,0,7,7.42.94,8.62-2.55,10.2-6.83,2.72-7,3.64-8.28,5.4-12.62a96.24,96.24,0,0,1,4.89-10.19l.59-.94c.36.73,2.55,8.28,2.93,9.14,1.53,4.08,4.23,13.59,5.79,17.84,1.12,3.62,1.42,4.64,6.26,4.51,2.4,0,3.42-1,5.1-4s8.44-15.8,8.44-15.8l6.95-1.2,2.2-.43a11.37,11.37,0,0,0,1.81-.36h0l6.9-1.38c-.48,2.35-1.94,7.65-2.24,8.87,0,0-3.16,12.36.94,13a9.49,9.49,0,0,0,3.9,0c4.82-.56,4.89-7,4.89-7l2.55-16.75c1.89-.4,3.77-.79,5.61-1.12l-5.66,19.12c-.81,2.7-1.4,6.19,3.44,6.19,3.95.2,4.21-2.27,4.21-2.27,0-.41,3.21-10.47,4-14.07.54-2.32,2.37-8.28,3.11-10.68l4.69-1,4.72-.79v5.76c.48,6.77,0,13.81,1.37,20.38.23,1.07.66,2.55,2,2.55s2.09-.3,3.85-.3c5.1-.44,4.08-5.46,3.77-8.62s-.68-6.5-1.17-10a95.18,95.18,0,0,1-.66-11.19h0l18.22-3.08c2.07-.57,3.77-.41,3.34-5.1Zm-63.71,9h0l-14.07,3.14c3-5.1,16.23-23.3,18.22-25.49-1.14,5.89-2.93,16.39-4.13,22.45Zm32.92-7.21v.3l-7.21,1.51c2.55-6.78,5.35-15.09,7-19.29-.26,3.13.38,14.5.25,17.58Zm-80-20.11c.87-1.58,2.78-4.64.39-5.91a5.7,5.7,0,0,0-4.77-.38,7.19,7.19,0,0,0-2.7,3l-9.18,14.47c-1.5,2-2.9,4.62-6,5.1-2,.21-3.47-.66-3.41-2.55a15.3,15.3,0,0,1,1.91-5.88c2.42-4.54,2.7-6.09,5.09-10.61s-5.09-5.3-6.85-2.19c-1.3,2.25-3.77,6.45-4.33,7.88-1,2.55-8.74,14.83-5.41,19.67,4.29,5.48,15.7-3.16,9.87,6.83-4.72,8-7.65,12.74-11.8,20A15.22,15.22,0,0,0,99,72.8c-.44,2.68,3.23,2.55,4.81,2.55a5.64,5.64,0,0,0,5.23-4c.61-1.33,1.43-3,2-4.29a288.7,288.7,0,0,1,18.2-33.53C132.62,28.07,135.62,23.46,138.45,18.21Z"/></svg>