<svg width="80" height="80" viewBox="0 0 80 80" fill="none" xmlns="http://www.w3.org/2000/svg">
<g clip-path="url(#clip0_6649_5108)">
<mask id="mask0_6649_5108" style="mask-type:luminance" maskUnits="userSpaceOnUse" x="0" y="0" width="80" height="80">
<path d="M80 0H0V80H80V0Z" fill="white"/>
</mask>
<g mask="url(#mask0_6649_5108)">
<path d="M33.1717 -0.0317082C33.3734 -0.0333627 33.3734 -0.0333627 33.579 -0.0350509C39.2039 -0.070734 39.2039 -0.070734 41.7196 0.468781C41.8654 0.498993 42.0112 0.529204 42.1614 0.560332C47.9834 1.80054 53.3106 4.39201 57.8134 8.28127C57.9556 8.40313 58.0979 8.52499 58.2443 8.65054C58.6292 8.98896 59.004 9.33494 59.3759 9.68752C59.4534 9.76073 59.5309 9.83391 59.6106 9.90932C60.9146 11.1503 62.0528 12.4627 63.1259 13.9063C63.1921 13.9934 63.2584 14.0806 63.3267 14.1703C64.4607 15.6639 65.3881 17.2427 66.2509 18.9063C66.312 19.0233 66.3731 19.1403 66.4359 19.2608C67.7787 21.8669 68.7034 24.6202 69.3759 27.4708C69.4084 27.6058 69.4409 27.7408 69.4743 27.8799C69.7804 29.2661 69.9384 30.7511 69.2196 32.0313C68.6701 32.8667 68.011 33.486 67.0321 33.75C65.6334 33.9269 64.4318 33.8278 63.2821 32.9688C62.2528 32.0842 62.0653 30.8064 61.7907 29.5419C60.6721 24.4521 58.3442 19.8267 54.6884 16.0938C54.5375 15.935 54.3865 15.7761 54.2356 15.6171C49.9193 11.1228 43.4665 8.04541 37.2023 7.78735C36.99 7.7843 36.7776 7.78215 36.5653 7.78079C36.3926 7.77913 36.3926 7.77913 36.2165 7.77744C32.6909 7.73552 32.6909 7.73552 29.2196 8.28127C29.091 8.31232 28.9623 8.34337 28.8296 8.37535C23.8115 9.61802 19.4965 12.0473 15.7821 15.625C15.6646 15.7328 15.547 15.8405 15.4258 15.9516C11.734 19.436 9.44148 24.343 8.2822 29.2188C8.2544 29.3316 8.22661 29.4442 8.19797 29.5605C7.38384 33.0181 7.42994 37.3378 8.2822 40.7813C8.31325 40.91 8.34429 41.0388 8.37628 41.1714C9.57094 45.9956 11.8672 50.3147 15.3135 53.9063C15.4506 54.0533 15.5878 54.2003 15.7292 54.3519C19.5021 58.3227 24.7048 60.8764 30.0498 61.8849C31.2815 62.1217 32.2707 62.4155 33.0637 63.4522C33.822 64.6214 33.8709 65.6591 33.7509 67.0313C33.4215 68.1272 32.6878 68.8072 31.7196 69.375C30.4215 69.996 28.9081 69.68 27.5595 69.375C27.4045 69.34 27.2493 69.3052 27.0895 69.2691C21.5514 67.9711 16.4895 65.4353 12.1885 61.7188C12.0444 61.5952 11.9004 61.4714 11.752 61.3441C10.1459 59.9294 8.6445 58.4216 7.3447 56.7188C7.22959 56.5683 7.22959 56.5683 7.11215 56.4149C5.82687 54.7227 4.71717 52.9863 3.75095 51.0938C3.66673 50.9299 3.66673 50.9299 3.58081 50.7625C1.42934 46.5241 -0.00469995 41.5991 -0.0307867 36.8238C-0.0318897 36.6889 -0.0329928 36.5541 -0.0341294 36.4152C-0.0690724 30.8922 -0.0690724 30.8922 0.469701 28.4375C0.500745 28.2867 0.531789 28.1358 0.563772 27.9805C1.95269 21.3042 5.16339 15.289 9.91573 10.4051C10.1231 10.1914 10.3275 9.97482 10.5313 9.75773C11.5123 8.73305 12.6192 7.88085 13.751 7.03127C13.8398 6.96416 13.9287 6.89704 14.0203 6.82788C19.431 2.76741 26.345 0.00573329 33.1717 -0.0317082Z" fill="#003C7C"/>
<path d="M57.4637 34.9512C57.5809 34.9514 57.6982 34.9517 57.819 34.952C59.5263 34.9591 61.1585 35.0183 62.8152 35.4687C62.9201 35.4972 63.0249 35.5258 63.1329 35.555C67.244 36.697 70.7343 38.7264 73.7527 41.7187C73.8874 41.8516 74.0223 41.9842 74.161 42.1209C78.0935 46.2166 80.0374 51.7952 80.0418 57.4023C80.042 57.522 80.042 57.6417 80.0421 57.765C80.0396 59.4952 79.9774 61.1311 79.534 62.8125C79.4857 63.0194 79.4376 63.2262 79.3893 63.4333C78.7045 66.1805 77.3701 68.868 75.6277 71.0937C75.5176 71.2381 75.4074 71.3827 75.2938 71.5314C71.5876 76.2358 66.2681 79.2533 60.3152 80C59.9067 80.0192 59.502 80.0326 59.0934 80.0372C58.9788 80.0387 58.8643 80.0403 58.7465 80.0419C56.2493 80.0684 53.8287 80.0756 51.409 79.375C51.2352 79.3248 51.2352 79.3248 51.0579 79.2736C45.2099 77.5137 40.3518 73.4487 37.4246 68.1212C34.6668 62.885 34.1001 56.6016 35.784 50.9375C37.654 44.9997 41.6949 40.2231 47.1902 37.3437C47.3693 37.2491 47.5484 37.1544 47.7329 37.0569C48.8504 36.4895 49.9907 36.0811 51.1942 35.7325C51.3245 35.6945 51.4548 35.6567 51.5891 35.6177C53.5357 35.082 55.4552 34.9411 57.4637 34.9512ZM47.659 46.25C47.547 46.3506 47.547 46.3506 47.4326 46.4531C44.3618 49.2486 42.766 53.0053 42.4734 57.132C42.374 60.8812 43.7765 64.3053 46.0965 67.1875C46.219 67.3519 46.3413 67.5162 46.4676 67.6856C49.1284 70.5364 52.8332 72.2875 56.7215 72.5C56.8335 72.5083 56.9454 72.5166 57.0609 72.525C61.049 72.6831 64.8699 71.0011 67.7756 68.36C70.2817 65.9652 72.1515 62.6145 72.3742 59.0941C72.4721 54.4925 71.5723 50.6967 68.3365 47.2455C65.532 44.3987 62.024 42.6781 58.0096 42.5903C54.1546 42.5725 50.5795 43.6225 47.659 46.25Z" fill="#F1BD22"/>
<path d="M36.7889 11.4844C37.7139 12.0434 38.4072 12.8872 38.7517 13.9063C38.7919 14.3454 38.7919 14.3454 38.7934 14.8341C38.7948 15.0201 38.7961 15.2061 38.7975 15.3976C38.7973 15.6004 38.7972 15.803 38.7972 16.0119C38.7981 16.2286 38.7991 16.4452 38.8003 16.6619C38.8031 17.2496 38.8038 17.8371 38.8041 18.4247C38.8042 18.7921 38.8048 19.1596 38.8058 19.5271C38.8086 20.81 38.8098 22.093 38.8097 23.3761C38.8094 24.5703 38.8127 25.7646 38.8177 26.9586C38.8217 27.9853 38.8234 29.0121 38.8233 30.0388C38.8231 30.6514 38.8241 31.2639 38.8273 31.8764C38.8303 32.453 38.8305 33.0294 38.8281 33.606C38.8277 33.9169 38.8303 34.2278 38.833 34.5389C38.8203 36.3424 38.3294 37.2381 37.0691 38.4822C36.9641 38.5885 36.8591 38.6946 36.7509 38.8038C36.4059 39.1514 36.0589 39.4967 35.7116 39.8419C35.4697 40.0842 35.2281 40.3264 34.9864 40.5689C34.4808 41.0753 33.9742 41.5808 33.4667 42.0853C32.8172 42.7313 32.1706 43.3799 31.5248 44.0294C31.0267 44.5297 30.527 45.0288 30.0269 45.5272C29.788 45.7658 29.5494 46.0049 29.3114 46.2444C28.9783 46.5791 28.6431 46.9117 28.3075 47.2439C28.2102 47.3425 28.1128 47.4411 28.0125 47.5427C27.1139 48.4241 26.3016 48.8169 25.0114 48.8185C23.8797 48.7885 23.1727 48.6152 22.3509 47.8327C21.5308 46.9455 21.2066 46.2546 21.1931 45.0294C21.1887 44.8478 21.1842 44.6664 21.1797 44.4794C21.2984 43.5341 21.5473 42.9225 22.2891 42.323C22.6408 42.0816 22.9934 41.8435 23.3489 41.6078C26.6503 39.4172 30.5242 36.3949 31.3598 32.3224C32.1802 27.2607 31.7822 21.878 31.3923 16.7902C31.3725 16.5121 31.3725 16.5121 31.352 16.2283C31.3267 15.8849 31.2984 15.5417 31.2666 15.1988C31.1927 14.1889 31.2953 13.4992 31.8767 12.6563C32.1837 12.3059 32.1838 12.3059 32.492 12.0508C32.5933 11.9642 32.6945 11.8776 32.7989 11.7884C33.9028 11.0278 35.5633 10.9413 36.7889 11.4844Z" fill="#003C7C"/>
<path d="M66.7987 50.1075C67.6648 50.6235 68.3578 51.3617 68.7812 52.2755C69.0727 53.5088 69.0233 54.4816 68.4428 55.6117C67.7159 56.721 66.7087 57.6196 65.7703 58.5486C65.5361 58.783 65.302 59.0175 65.068 59.2521C64.5789 59.7416 64.0886 60.2297 63.5972 60.7169C62.9691 61.3396 62.3441 61.9655 61.72 62.5924C61.2377 63.0764 60.7539 63.5589 60.2695 64.041C60.0384 64.2711 59.808 64.5017 59.5778 64.7328C59.2556 65.0558 58.9316 65.3767 58.6067 65.6974C58.5131 65.7919 58.4195 65.8866 58.323 65.9841C57.3767 66.9096 56.4484 67.4328 55.0995 67.4414C54.9114 67.4467 54.7233 67.4519 54.5295 67.4574C53.1584 67.3174 52.0155 66.1705 51.0925 65.2363C50.9822 65.1264 50.8719 65.0167 50.7581 64.9036C50.5272 64.6731 50.297 64.4419 50.0677 64.2099C49.7189 63.8577 49.367 63.5091 49.0147 63.1608C48.7891 62.9349 48.5638 62.7086 48.3386 62.4824C48.1828 62.3285 48.1828 62.3285 48.0239 62.1714C46.9909 61.1178 46.3038 60.0435 46.2305 58.548C46.283 57.5094 46.6778 56.5755 47.3456 55.7813C48.5537 54.8789 49.5967 54.7075 51.0956 54.8438C52.7297 55.2217 53.8989 56.798 55.0019 57.9688C55.8962 57.2272 56.7119 56.4285 57.5256 55.6C57.8013 55.3217 58.0767 55.0435 58.3523 54.7653C58.7825 54.3305 59.2122 53.8952 59.6411 53.4591C60.058 53.0355 60.4762 52.6136 60.8948 52.1917C61.0217 52.0621 61.1484 51.9324 61.2792 51.7986C62.7667 50.3044 64.6336 49.0808 66.7987 50.1075Z" fill="#F1BD22"/>
</g>
</g>
<defs>
<clipPath id="clip0_6649_5108">
<rect width="80" height="80" fill="white"/>
</clipPath>
</defs>
</svg>
