<?xml version="1.0" encoding="utf-8"?>
<!-- Generator: Adobe Illustrator 26.2.1, SVG Export Plug-In . SVG Version: 6.00 Build 0)  -->
<svg version="1.1" id="Layer_1" xmlns="http://www.w3.org/2000/svg" xmlns:xlink="http://www.w3.org/1999/xlink" x="0px" y="0px"
	 viewBox="0 0 300 87" style="enable-background:new 0 0 300 87;" xml:space="preserve">
<style type="text/css">
	.st0{fill:#FFFFFF;}
	.st1{opacity:0.5;fill:#EDEDED;enable-background:new    ;}
	.st2{fill:none;}
</style>
<g id="PayPal" transform="translate(-347 -557)">
	<g id="Layer_1_00000088845214361245112100000001169571345354294719_" transform="translate(349.042 570.574)">
		<g id="Group_10694" transform="translate(32.361 6.312)">
			<g id="Group_10693">
				<g id="Group_10692">
					<g id="Group_10691">
						<path id="Path_14211" class="st0" d="M175.7,4h-14.2c-1,0-1.8,0.7-2,1.7l-5.8,36.5c-0.1,0.6,0.3,1.3,1,1.4c0.1,0,0.1,0,0.2,0
							h7.3c0.7,0,1.3-0.5,1.4-1.2l1.6-10.3c0.2-1,1-1.7,2-1.7h4.5c9.4,0,14.8-4.5,16.2-13.5c0.8-3.2,0.1-6.5-1.8-9.2
							C184.1,5.2,180.5,4,175.7,4z M177.4,17.3c-0.8,5.1-4.7,5.1-8.4,5.1h-2.1l1.5-9.5c0.1-0.6,0.6-1,1.2-1h1c2.6,0,5,0,6.2,1.5
							C177.5,14.5,177.8,15.9,177.4,17.3L177.4,17.3z"/>
						<path id="Path_14212" class="st0" d="M74.3,4H60.1c-1,0-1.8,0.7-2,1.7l-5.8,36.5c-0.1,0.6,0.3,1.3,1,1.4c0.1,0,0.1,0,0.2,0
							h6.8c1,0,1.8-0.7,2-1.7l1.6-9.8c0.2-1,1-1.7,2-1.7h4.5c9.4,0,14.8-4.5,16.2-13.5c0.8-3.2,0.1-6.5-1.8-9.2
							C82.6,5.2,79,4,74.3,4z M75.9,17.3c-0.8,5.1-4.7,5.1-8.4,5.1h-2.1l1.5-9.5c0.1-0.6,0.6-1,1.2-1h1c2.6,0,5,0,6.2,1.5
							C76,14.5,76.3,15.9,75.9,17.3L75.9,17.3z"/>
						<path id="Path_14213" class="st0" d="M116.8,17.1H110c-0.6,0-1.1,0.4-1.2,1l-0.3,1.9l-0.5-0.7c-1.5-2.1-4.8-2.9-8-2.9
							c-7.8,0.2-14.2,6-15.2,13.7c-0.7,3.7,0.2,7.5,2.5,10.5c2.2,2.4,5.3,3.7,8.6,3.5c3.5,0,6.9-1.4,9.4-3.9l-0.3,1.9
							c-0.1,0.6,0.3,1.3,1,1.4c0.1,0,0.1,0,0.2,0h6.1c1,0,1.8-0.7,2-1.7l3.7-23.3c0.1-0.6-0.3-1.3-1-1.4
							C116.9,17.2,116.9,17.1,116.8,17.1z M107.3,30.4c-0.6,3.8-3.8,6.6-7.7,6.5c-2.9,0.3-5.5-1.8-5.8-4.7c-0.1-0.6,0-1.3,0.2-1.9
							c0.5-3.8,3.8-6.6,7.6-6.6c1.7-0.1,3.4,0.6,4.5,1.9C107.2,26.9,107.7,28.7,107.3,30.4z"/>
						<path id="Path_14214" class="st0" d="M218.2,17.1h-6.8c-0.6,0-1.1,0.4-1.2,1l-0.3,1.9l-0.5-0.7c-1.5-2.1-4.8-2.9-8-2.9
							c-7.8,0.2-14.2,6-15.2,13.7c-0.7,3.7,0.2,7.5,2.5,10.5c2.2,2.4,5.3,3.7,8.6,3.5c3.5,0,6.9-1.4,9.4-3.9l-0.3,1.9
							c-0.1,0.6,0.3,1.3,1,1.4c0.1,0,0.1,0,0.2,0h6.1c1,0,1.8-0.7,2-1.7l3.7-23.3c0.1-0.6-0.3-1.3-1-1.4
							C218.4,17.2,218.3,17.1,218.2,17.1z M208.8,30.4c-0.5,3.8-3.8,6.6-7.7,6.5c-2.9,0.3-5.5-1.8-5.8-4.7c-0.1-0.6,0-1.3,0.2-1.9
							c0.5-3.8,3.8-6.6,7.6-6.6c1.7-0.1,3.4,0.6,4.5,1.9C208.7,26.9,209.1,28.7,208.8,30.4L208.8,30.4z"/>
						<path id="Path_14215" class="st0" d="M153.1,17.1h-6.8c-0.7,0-1.3,0.3-1.6,0.9l-9.4,13.9l-4-13.4c-0.3-0.8-1-1.4-1.9-1.4h-6.7
							c-0.7,0-1.2,0.5-1.2,1.2c0,0.1,0,0.3,0.1,0.4l7.5,22.1l-7.1,10c-0.4,0.5-0.3,1.3,0.3,1.7c0.2,0.1,0.4,0.2,0.7,0.2h6.8
							c0.6,0,1.3-0.3,1.6-0.8L154.1,19c0.4-0.5,0.2-1.3-0.3-1.6C153.6,17.2,153.3,17.1,153.1,17.1z"/>
						<path id="Path_14216" class="st0" d="M226.3,5l-5.8,37.1c-0.1,0.6,0.3,1.3,1,1.4c0.1,0,0.1,0,0.2,0h5.9c1,0,1.8-0.7,2-1.7
							l5.8-36.5c0.1-0.6-0.3-1.3-1-1.4c-0.1,0-0.1,0-0.2,0h-6.6C226.9,4,226.4,4.4,226.3,5z"/>
					</g>
				</g>
			</g>
		</g>
		<g id="Group_10695" transform="translate(2.958 1.426)">
			<path id="Path_14217" class="st1" d="M72.6,14.2c0.8-4.5,0-7.6-2.6-10.4c-2.9-3.1-8.2-4.4-14.9-4.4H35.6c-1.3,0-2.5,0.9-2.8,2.2
				l-8.1,47.8c-0.1,0.9,0.5,1.7,1.4,1.8c0.1,0,0.2,0,0.3,0h12L37.6,56c-0.1,0.8,0.4,1.5,1.2,1.6c0.1,0,0.2,0,0.2,0h10.1
				c1.2,0,2.2-0.8,2.4-1.9l0.1-0.5L53.6,44l0.1-0.6c0.2-1.1,1.3-1.9,2.4-1.9h1.5c9.8,0,17.5-3.7,19.8-14.4c0.9-4.5,0.5-8.2-2-10.8
				C74.6,15.3,73.7,14.7,72.6,14.2L72.6,14.2"/>
			<path id="Path_14218" class="st0" d="M72.6,14c0.8-4.5,0-7.5-2.6-10.3c-2.9-3-8.2-4.3-14.9-4.3H35.6c-1.3,0-2.5,0.9-2.8,2.2
				l-8.1,47.3c-0.1,0.9,0.5,1.7,1.4,1.8c0.1,0,0.2,0,0.3,0h12l3-17.6l-0.1,0.6c0.3-1.3,1.4-2.2,2.7-2.2h5.7c11.2,0,20-4.2,22.6-16.3
				C72.5,14.7,72.6,14.4,72.6,14"/>
			<path id="Path_14219" class="st0" d="M44.7,14.1c0.1-0.8,0.7-1.4,1.4-1.7c0.3-0.1,0.7-0.2,1.1-0.2h15.3c1.7,0,3.4,0.1,5,0.3
				c0.4,0.1,0.9,0.1,1.3,0.2c0.4,0.1,0.8,0.2,1.2,0.3c0.2,0.1,0.4,0.1,0.6,0.2c0.7,0.2,1.4,0.5,2.1,0.8c0.8-4.5,0-7.5-2.6-10.3
				c-2.9-3-8.2-4.3-14.9-4.3H35.6c-1.3,0-2.5,0.9-2.8,2.2l-8.1,47.3c-0.1,0.9,0.5,1.7,1.4,1.8c0.1,0,0.2,0,0.3,0h12l3-17.6
				L44.7,14.1z"/>
		</g>
	</g>
	<rect id="Rectangle_3593" x="367" y="542.3" class="st2" width="260" height="116.4"/>
</g>
</svg>
