<svg width="282" height="173" viewBox="0 0 282 173" fill="none" xmlns="http://www.w3.org/2000/svg">
<path d="M176 1L229.444 22.3042C234.006 24.1231 237 28.5391 237 33.4511V101.572C237 117.829 229.096 133.072 215.808 142.439L176 170.5M176 1L123.384 21.8273C118.907 23.5993 115.923 27.8755 115.804 32.6887L115.5 45M176 1V43.8164M176 1L243.101 22.1079C248.1 23.6804 251.5 28.3146 251.5 33.5549V98.4361C251.5 116.405 241.859 132.991 226.245 141.884L176 170.5M176 170.5L148.5 151" stroke="#4B61B8" stroke-width="1.5"/>
<path d="M115.954 103.744V76.3023C115.954 60.1191 102.834 47 86.6512 47V47C70.468 47 57.3489 60.1191 57.3489 76.3023V103.744M73.1628 103.744V78.1628C73.1628 71.2271 78.7853 65.6047 85.721 65.6047V65.6047C92.6566 65.6047 98.2791 71.2271 98.2791 78.1628V103.744" stroke="#4B61B8" stroke-width="1.5"/>
<path d="M107.988 109.395L129.165 105.985C132.811 105.398 132.381 100.023 128.688 100.023H115.488M107.988 109.395H42.7212C39.2586 109.395 38.5499 104.501 41.8703 103.518L49.7321 101.193C52.3559 100.417 55.0778 100.023 57.814 100.023V100.023M107.988 109.395V147.5M131.5 102.5V143.03C131.5 150.675 127.143 157.65 120.273 161.003L112.141 164.973C109.408 166.307 106.408 167 103.367 167H60.4025C49.436 167 40.5149 158.169 40.4035 147.203L40 107.5M98.2791 100.023H73.6279" stroke="#4B61B8" stroke-width="1.5" stroke-linecap="round" stroke-linejoin="round"/>
<path d="M172 2L225.444 23.3042C230.006 25.1231 233 29.5391 233 34.4511V102.572C233 118.829 225.096 134.072 211.808 143.439L172 171.5M172 2L119.384 22.8273C114.907 24.5993 111.923 28.8755 111.804 33.6887L111.5 46M172 2L239.101 23.1079C244.1 24.6804 247.5 29.3146 247.5 34.5549V99.4361C247.5 117.405 237.859 133.991 222.245 142.884L172 171.5M172 171.5L144.5 152" stroke="white" stroke-width="1.5"/>
<path d="M203 154H264.5" stroke="white" stroke-width="1.5" stroke-linecap="round"/>
<path d="M14 154L37 154" stroke="white" stroke-width="1.5" stroke-linecap="round"/>
<path d="M1 154L7 154" stroke="white" stroke-width="1.5" stroke-linecap="round"/>
<path d="M273 154H281" stroke="white" stroke-width="1.5" stroke-linecap="round"/>
<path d="M111.954 104.744V77.3023C111.954 61.1191 98.8344 48 82.6512 48V48C66.468 48 53.3489 61.1191 53.3489 77.3023V104.744M69.1628 104.744V79.1628C69.1628 72.2271 74.7853 66.6047 81.721 66.6047V66.6047C88.6566 66.6047 94.2791 72.2271 94.2791 79.1628V104.744" stroke="white" stroke-width="1.5"/>
<path d="M103.988 110.395L125.165 106.985C128.811 106.398 128.381 101.023 124.688 101.023H111.488M103.988 110.395H38.7212C35.2586 110.395 34.5499 105.501 37.8703 104.518L45.7321 102.193C48.3559 101.417 51.0778 101.023 53.814 101.023V101.023M103.988 110.395V148.5M127.5 103.5V144.03C127.5 151.675 123.143 158.65 116.273 162.003L108.141 165.973C105.408 167.307 102.408 168 99.3674 168H56.4025C45.436 168 36.5149 159.169 36.4035 148.203L36 108.5M94.2791 101.023H69.6279" stroke="white" stroke-width="1.5" stroke-linecap="round" stroke-linejoin="round"/>
<path d="M66.8474 145.5V145.151L66.5808 144.927C65.4732 143.993 64.75 142.534 64.75 140.88C64.75 137.999 66.9231 135.75 69.5 135.75C72.0769 135.75 74.25 137.999 74.25 140.88C74.25 142.534 73.5268 143.993 72.4192 144.927L72.1526 145.151V145.5V152.597C72.1526 154.062 70.965 155.25 69.5 155.25C68.035 155.25 66.8474 154.062 66.8474 152.597V145.5Z" stroke="white" stroke-width="1.5" stroke-linecap="round"/>
<path d="M138.376 70H135.74L139.757 58.3636H142.928L146.939 70H144.303L141.388 61.0227H141.297L138.376 70ZM138.212 65.4261H144.439V67.3466H138.212V65.4261ZM154.386 61.7102C154.341 61.2519 154.146 60.8958 153.801 60.642C153.456 60.3883 152.989 60.2614 152.398 60.2614C151.996 60.2614 151.657 60.3182 151.381 60.4318C151.104 60.5417 150.892 60.6951 150.744 60.892C150.6 61.089 150.528 61.3125 150.528 61.5625C150.521 61.7708 150.564 61.9527 150.659 62.108C150.758 62.2633 150.892 62.3977 151.062 62.5114C151.233 62.6212 151.43 62.7178 151.653 62.8011C151.877 62.8807 152.116 62.9489 152.369 63.0057L153.415 63.2557C153.922 63.3693 154.388 63.5208 154.812 63.7102C155.237 63.8996 155.604 64.1326 155.915 64.4091C156.225 64.6856 156.466 65.0114 156.636 65.3864C156.811 65.7614 156.9 66.1913 156.903 66.6761C156.9 67.3883 156.718 68.0057 156.358 68.5284C156.002 69.0473 155.487 69.4508 154.812 69.7386C154.142 70.0227 153.333 70.1648 152.386 70.1648C151.447 70.1648 150.629 70.0208 149.932 69.733C149.239 69.4451 148.697 69.0189 148.307 68.4545C147.92 67.8864 147.718 67.1837 147.699 66.3466H150.08C150.106 66.7367 150.218 67.0625 150.415 67.3239C150.616 67.5814 150.883 67.7765 151.216 67.9091C151.553 68.0379 151.934 68.1023 152.358 68.1023C152.775 68.1023 153.136 68.0417 153.443 67.9205C153.754 67.7992 153.994 67.6307 154.165 67.4148C154.335 67.1989 154.42 66.9508 154.42 66.6705C154.42 66.4091 154.343 66.1894 154.188 66.0114C154.036 65.8333 153.813 65.6818 153.517 65.5568C153.225 65.4318 152.867 65.3182 152.443 65.2159L151.176 64.8977C150.195 64.6591 149.42 64.286 148.852 63.7784C148.284 63.2708 148.002 62.5871 148.006 61.7273C148.002 61.0227 148.189 60.4072 148.568 59.8807C148.951 59.3542 149.475 58.9432 150.142 58.6477C150.809 58.3523 151.566 58.2045 152.415 58.2045C153.278 58.2045 154.032 58.3523 154.676 58.6477C155.324 58.9432 155.828 59.3542 156.188 59.8807C156.547 60.4072 156.733 61.017 156.744 61.7102H154.386ZM164.871 61.7102C164.825 61.2519 164.63 60.8958 164.286 60.642C163.941 60.3883 163.473 60.2614 162.882 60.2614C162.481 60.2614 162.142 60.3182 161.865 60.4318C161.589 60.5417 161.376 60.6951 161.229 60.892C161.085 61.089 161.013 61.3125 161.013 61.5625C161.005 61.7708 161.049 61.9527 161.143 62.108C161.242 62.2633 161.376 62.3977 161.547 62.5114C161.717 62.6212 161.914 62.7178 162.138 62.8011C162.361 62.8807 162.6 62.9489 162.854 63.0057L163.899 63.2557C164.407 63.3693 164.873 63.5208 165.297 63.7102C165.721 63.8996 166.089 64.1326 166.399 64.4091C166.71 64.6856 166.95 65.0114 167.121 65.3864C167.295 65.7614 167.384 66.1913 167.388 66.6761C167.384 67.3883 167.202 68.0057 166.842 68.5284C166.486 69.0473 165.971 69.4508 165.297 69.7386C164.626 70.0227 163.818 70.1648 162.871 70.1648C161.931 70.1648 161.113 70.0208 160.416 69.733C159.723 69.4451 159.181 69.0189 158.791 68.4545C158.405 67.8864 158.202 67.1837 158.183 66.3466H160.564C160.59 66.7367 160.702 67.0625 160.899 67.3239C161.1 67.5814 161.367 67.7765 161.7 67.9091C162.037 68.0379 162.418 68.1023 162.842 68.1023C163.259 68.1023 163.621 68.0417 163.928 67.9205C164.238 67.7992 164.479 67.6307 164.649 67.4148C164.82 67.1989 164.905 66.9508 164.905 66.6705C164.905 66.4091 164.827 66.1894 164.672 66.0114C164.52 65.8333 164.297 65.6818 164.001 65.5568C163.71 65.4318 163.352 65.3182 162.928 65.2159L161.661 64.8977C160.679 64.6591 159.905 64.286 159.337 63.7784C158.768 63.2708 158.486 62.5871 158.49 61.7273C158.486 61.0227 158.674 60.4072 159.053 59.8807C159.435 59.3542 159.96 58.9432 160.626 58.6477C161.293 58.3523 162.051 58.2045 162.899 58.2045C163.763 58.2045 164.517 58.3523 165.161 58.6477C165.808 58.9432 166.312 59.3542 166.672 59.8807C167.032 60.4072 167.217 61.017 167.229 61.7102H164.871ZM176.23 58.3636H178.69V65.9205C178.69 66.7689 178.488 67.5114 178.082 68.1477C177.681 68.7841 177.118 69.2803 176.395 69.6364C175.671 69.9886 174.829 70.1648 173.866 70.1648C172.901 70.1648 172.056 69.9886 171.332 69.6364C170.609 69.2803 170.046 68.7841 169.645 68.1477C169.243 67.5114 169.043 66.7689 169.043 65.9205V58.3636H171.503V65.7102C171.503 66.1534 171.599 66.5473 171.793 66.892C171.99 67.2367 172.266 67.5076 172.622 67.7045C172.978 67.9015 173.393 68 173.866 68C174.344 68 174.759 67.9015 175.111 67.7045C175.467 67.5076 175.741 67.2367 175.935 66.892C176.132 66.5473 176.23 66.1534 176.23 65.7102V58.3636ZM180.714 70V58.3636H185.305C186.184 58.3636 186.934 58.5208 187.555 58.8352C188.18 59.1458 188.656 59.5871 188.982 60.1591C189.311 60.7273 189.476 61.3958 189.476 62.1648C189.476 62.9375 189.309 63.6023 188.976 64.1591C188.643 64.7121 188.16 65.1364 187.527 65.4318C186.898 65.7273 186.137 65.875 185.243 65.875H182.169V63.8977H184.845C185.315 63.8977 185.705 63.8333 186.016 63.7045C186.326 63.5758 186.557 63.3826 186.709 63.125C186.864 62.8674 186.942 62.5473 186.942 62.1648C186.942 61.7784 186.864 61.4527 186.709 61.1875C186.557 60.9223 186.324 60.7216 186.01 60.5852C185.699 60.4451 185.307 60.375 184.834 60.375H183.175V70H180.714ZM186.999 64.7045L189.891 70H187.175L184.345 64.7045H186.999ZM191.214 70V58.3636H199.055V60.392H193.675V63.1648H198.652V65.1932H193.675V67.9716H199.078V70H191.214ZM205.136 70H201.011V58.3636H205.17C206.341 58.3636 207.348 58.5966 208.193 59.0625C209.038 59.5246 209.688 60.1894 210.142 61.0568C210.6 61.9242 210.83 62.9621 210.83 64.1705C210.83 65.3826 210.6 66.4242 210.142 67.2955C209.688 68.1667 209.034 68.8352 208.182 69.3011C207.333 69.767 206.318 70 205.136 70ZM203.472 67.892H205.034C205.761 67.892 206.373 67.7633 206.869 67.5057C207.369 67.2443 207.744 66.8409 207.994 66.2955C208.248 65.7462 208.375 65.0379 208.375 64.1705C208.375 63.3106 208.248 62.608 207.994 62.0625C207.744 61.517 207.371 61.1155 206.875 60.858C206.379 60.6004 205.767 60.4716 205.04 60.4716H203.472V67.892Z" fill="#FFE03E"/>
<path d="M141.381 88V77.0909H145.269C146.118 77.0909 146.821 77.2454 147.379 77.5543C147.936 77.8633 148.353 78.2859 148.63 78.8221C148.907 79.3548 149.046 79.9549 149.046 80.6225C149.046 81.2937 148.905 81.8974 148.625 82.4336C148.348 82.9663 147.929 83.3888 147.368 83.7013C146.81 84.0103 146.109 84.1648 145.264 84.1648H142.59V82.7692H145.115C145.651 82.7692 146.086 82.6768 146.42 82.4922C146.754 82.304 146.999 82.0483 147.155 81.7251C147.311 81.402 147.389 81.0344 147.389 80.6225C147.389 80.2106 147.311 79.8448 147.155 79.5252C146.999 79.2056 146.752 78.9553 146.414 78.7741C146.081 78.593 145.64 78.5025 145.093 78.5025H143.027V88H141.381ZM150.848 88V79.8182H152.387V81.1179H152.472C152.621 80.6776 152.884 80.3313 153.261 80.0792C153.64 79.8235 154.07 79.6957 154.55 79.6957C154.649 79.6957 154.766 79.6992 154.901 79.7063C155.04 79.7134 155.148 79.7223 155.226 79.733V81.2564C155.162 81.2386 155.049 81.2191 154.885 81.1978C154.722 81.1729 154.558 81.1605 154.395 81.1605C154.019 81.1605 153.683 81.2404 153.388 81.4002C153.097 81.5565 152.866 81.7749 152.696 82.0554C152.525 82.3324 152.44 82.6484 152.44 83.0036V88H150.848ZM156.604 88V79.8182H158.197V88H156.604ZM157.409 78.5558C157.132 78.5558 156.894 78.4634 156.695 78.2788C156.5 78.0906 156.402 77.8668 156.402 77.6076C156.402 77.3448 156.5 77.1211 156.695 76.9364C156.894 76.7482 157.132 76.6541 157.409 76.6541C157.686 76.6541 157.922 76.7482 158.117 76.9364C158.316 77.1211 158.415 77.3448 158.415 77.6076C158.415 77.8668 158.316 78.0906 158.117 78.2788C157.922 78.4634 157.686 78.5558 157.409 78.5558ZM167.339 79.8182L164.372 88H162.667L159.695 79.8182H161.405L163.477 86.1143H163.562L165.629 79.8182H167.339ZM170.982 88.1811C170.464 88.1811 169.995 88.0852 169.576 87.8935C169.157 87.6982 168.825 87.4158 168.58 87.0465C168.339 86.6772 168.218 86.2244 168.218 85.6882C168.218 85.2266 168.307 84.8466 168.484 84.5483C168.662 84.25 168.902 84.0138 169.203 83.8398C169.505 83.6658 169.843 83.5344 170.215 83.4457C170.588 83.3569 170.968 83.2894 171.355 83.2433C171.845 83.1864 172.243 83.1403 172.549 83.1048C172.854 83.0657 173.076 83.0036 173.214 82.9183C173.353 82.8331 173.422 82.6946 173.422 82.5028V82.4656C173.422 82.0004 173.291 81.6399 173.028 81.3842C172.769 81.1286 172.382 81.0007 171.867 81.0007C171.33 81.0007 170.908 81.1197 170.599 81.3576C170.294 81.592 170.082 81.853 169.965 82.1406L168.468 81.7997C168.646 81.3026 168.905 80.9013 169.246 80.5959C169.59 80.2869 169.986 80.0632 170.434 79.9247C170.881 79.7827 171.352 79.7116 171.845 79.7116C172.172 79.7116 172.518 79.7507 172.884 79.8288C173.253 79.9034 173.598 80.0419 173.917 80.2443C174.241 80.4467 174.505 80.7362 174.711 81.1126C174.917 81.4854 175.02 81.9702 175.02 82.5668V88H173.465V86.8814H173.401C173.298 87.0874 173.143 87.2898 172.937 87.4886C172.731 87.6875 172.467 87.8526 172.144 87.984C171.821 88.1154 171.433 88.1811 170.982 88.1811ZM171.329 86.9027C171.769 86.9027 172.145 86.8157 172.458 86.6417C172.774 86.4677 173.014 86.2404 173.177 85.9599C173.344 85.6758 173.427 85.3722 173.427 85.049V83.9943C173.371 84.0511 173.261 84.1044 173.097 84.1541C172.937 84.2003 172.754 84.2411 172.549 84.2766C172.343 84.3086 172.142 84.3388 171.947 84.3672C171.751 84.392 171.588 84.4134 171.457 84.4311C171.148 84.4702 170.865 84.5359 170.61 84.6282C170.357 84.7205 170.155 84.8537 170.002 85.0277C169.853 85.1982 169.779 85.4254 169.779 85.7095C169.779 86.1037 169.924 86.402 170.215 86.6044C170.507 86.8033 170.878 86.9027 171.329 86.9027ZM180.588 88.1651C179.796 88.1651 179.114 87.9858 178.542 87.6271C177.974 87.2649 177.537 86.766 177.232 86.1303C176.927 85.4947 176.774 84.7667 176.774 83.9464C176.774 83.1154 176.93 82.3821 177.243 81.7464C177.555 81.1072 177.996 80.6083 178.564 80.2496C179.132 79.891 179.801 79.7116 180.572 79.7116C181.193 79.7116 181.747 79.8271 182.234 80.0579C182.72 80.2852 183.113 80.6048 183.411 81.0167C183.713 81.4286 183.892 81.9098 183.949 82.4602H182.399C182.314 82.0767 182.118 81.7464 181.813 81.4695C181.511 81.1925 181.106 81.054 180.598 81.054C180.155 81.054 179.766 81.1712 179.432 81.4055C179.102 81.6364 178.844 81.9666 178.66 82.3963C178.475 82.8224 178.383 83.3267 178.383 83.9091C178.383 84.5057 178.473 85.0206 178.654 85.4538C178.835 85.8871 179.091 86.2227 179.421 86.4606C179.755 86.6985 180.148 86.8175 180.598 86.8175C180.9 86.8175 181.174 86.7624 181.419 86.6523C181.667 86.5387 181.875 86.3771 182.042 86.1676C182.212 85.9581 182.331 85.706 182.399 85.4112H183.949C183.892 85.9403 183.72 86.4126 183.432 86.8281C183.145 87.2436 182.759 87.5703 182.276 87.8082C181.797 88.0462 181.234 88.1651 180.588 88.1651ZM186.659 91.0682C186.421 91.0682 186.204 91.0487 186.009 91.0096C185.814 90.9741 185.668 90.935 185.572 90.8924L185.956 89.5874C186.247 89.6655 186.506 89.6992 186.734 89.6886C186.961 89.6779 187.161 89.5927 187.335 89.4329C187.513 89.2731 187.669 89.0121 187.804 88.6499L188.001 88.1065L185.008 79.8182H186.712L188.784 86.1676H188.87L190.942 79.8182H192.652L189.28 89.092C189.123 89.5181 188.925 89.8786 188.683 90.1733C188.442 90.4716 188.154 90.6953 187.82 90.8445C187.486 90.9936 187.099 91.0682 186.659 91.0682ZM201.293 88.1545C200.561 88.1545 199.931 88.0213 199.402 87.755C198.876 87.4886 198.471 87.1264 198.187 86.6683C197.903 86.2067 197.761 85.6847 197.761 85.1023C197.761 84.6584 197.853 84.2642 198.038 83.9197C198.223 83.5717 198.48 83.2504 198.811 82.9556C199.141 82.6609 199.523 82.3643 199.956 82.0661L201.714 80.8249C202.012 80.6296 202.244 80.4237 202.411 80.207C202.578 79.9869 202.662 79.7152 202.662 79.392C202.662 79.1364 202.552 78.8913 202.331 78.657C202.111 78.4226 201.817 78.3054 201.447 78.3054C201.192 78.3054 200.966 78.3675 200.771 78.4918C200.579 78.6161 200.428 78.7759 200.318 78.9712C200.211 79.163 200.158 79.3654 200.158 79.5785C200.158 79.8271 200.226 80.0774 200.361 80.3295C200.499 80.5817 200.677 80.8427 200.893 81.1126C201.11 81.3789 201.337 81.6559 201.575 81.9435L206.641 88H204.84L200.648 83.0728C200.297 82.6573 199.97 82.2667 199.668 81.9009C199.366 81.5316 199.121 81.1587 198.933 80.7823C198.748 80.4023 198.656 79.9922 198.656 79.5518C198.656 79.0511 198.77 78.6072 198.997 78.2202C199.228 77.8295 199.549 77.5241 199.961 77.304C200.373 77.0838 200.856 76.9737 201.41 76.9737C201.971 76.9737 202.452 77.0838 202.853 77.304C203.258 77.5206 203.569 77.81 203.786 78.1722C204.006 78.5309 204.116 78.9233 204.116 79.3494C204.116 79.8679 203.986 80.326 203.727 80.7237C203.471 81.1179 203.118 81.4801 202.667 81.8104L200.478 83.4244C200.052 83.7369 199.755 84.0458 199.588 84.3512C199.425 84.6531 199.343 84.8892 199.343 85.0597C199.343 85.3722 199.423 85.6616 199.583 85.9279C199.746 86.1942 199.973 86.4073 200.265 86.5671C200.559 86.7269 200.904 86.8068 201.298 86.8068C201.703 86.8068 202.097 86.7198 202.481 86.5458C202.868 86.3683 203.217 86.1143 203.53 85.7841C203.846 85.4538 204.096 85.0579 204.281 84.5962C204.466 84.1346 204.558 83.6179 204.558 83.0462H205.996C205.996 83.7493 205.916 84.3441 205.757 84.8306C205.597 85.3136 205.403 85.7077 205.176 86.0131C204.952 86.315 204.741 86.5511 204.542 86.7216C204.478 86.7784 204.418 86.8352 204.361 86.892C204.304 86.9489 204.244 87.0057 204.18 87.0625C203.811 87.4354 203.363 87.7106 202.837 87.8881C202.315 88.0657 201.801 88.1545 201.293 88.1545ZM137.587 106V95.0909H141.475C142.324 95.0909 143.027 95.2454 143.585 95.5543C144.142 95.8633 144.559 96.2859 144.836 96.8221C145.113 97.3548 145.252 97.9549 145.252 98.6225C145.252 99.2937 145.112 99.8974 144.831 100.434C144.554 100.966 144.135 101.389 143.574 101.701C143.016 102.01 142.315 102.165 141.47 102.165H138.796V100.769H141.321C141.857 100.769 142.292 100.677 142.626 100.492C142.96 100.304 143.205 100.048 143.361 99.7251C143.517 99.402 143.595 99.0344 143.595 98.6225C143.595 98.2106 143.517 97.8448 143.361 97.5252C143.205 97.2056 142.958 96.9553 142.62 96.7741C142.287 96.593 141.846 96.5025 141.299 96.5025H139.233V106H137.587ZM147.054 106V97.8182H148.593V99.1179H148.678C148.827 98.6776 149.09 98.3313 149.467 98.0792C149.847 97.8235 150.276 97.6957 150.756 97.6957C150.855 97.6957 150.972 97.6992 151.107 97.7063C151.246 97.7134 151.354 97.7223 151.432 97.733V99.2564C151.368 99.2386 151.255 99.2191 151.091 99.1978C150.928 99.1729 150.765 99.1605 150.601 99.1605C150.225 99.1605 149.889 99.2404 149.594 99.4002C149.303 99.5565 149.072 99.7749 148.902 100.055C148.731 100.332 148.646 100.648 148.646 101.004V106H147.054ZM155.964 106.165C155.197 106.165 154.527 105.989 153.956 105.638C153.384 105.286 152.94 104.794 152.624 104.162C152.308 103.53 152.15 102.792 152.15 101.946C152.15 101.098 152.308 100.355 152.624 99.7198C152.94 99.0842 153.384 98.5906 153.956 98.239C154.527 97.8874 155.197 97.7116 155.964 97.7116C156.731 97.7116 157.4 97.8874 157.972 98.239C158.544 98.5906 158.988 99.0842 159.304 99.7198C159.62 100.355 159.778 101.098 159.778 101.946C159.778 102.792 159.62 103.53 159.304 104.162C158.988 104.794 158.544 105.286 157.972 105.638C157.4 105.989 156.731 106.165 155.964 106.165ZM155.969 104.828C156.466 104.828 156.878 104.697 157.205 104.434C157.532 104.171 157.773 103.821 157.929 103.385C158.089 102.948 158.169 102.467 158.169 101.941C158.169 101.419 158.089 100.94 157.929 100.503C157.773 100.062 157.532 99.7092 157.205 99.4428C156.878 99.1765 156.466 99.0433 155.969 99.0433C155.468 99.0433 155.053 99.1765 154.723 99.4428C154.396 99.7092 154.153 100.062 153.993 100.503C153.837 100.94 153.759 101.419 153.759 101.941C153.759 102.467 153.837 102.948 153.993 103.385C154.153 103.821 154.396 104.171 154.723 104.434C155.053 104.697 155.468 104.828 155.969 104.828ZM165.375 97.8182V99.0966H160.906V97.8182H165.375ZM162.104 95.858H163.697V103.598C163.697 103.907 163.743 104.139 163.835 104.295C163.928 104.448 164.047 104.553 164.192 104.61C164.341 104.663 164.503 104.69 164.677 104.69C164.805 104.69 164.917 104.681 165.013 104.663C165.108 104.645 165.183 104.631 165.236 104.62L165.524 105.936C165.432 105.972 165.3 106.007 165.13 106.043C164.959 106.082 164.746 106.103 164.491 106.107C164.072 106.114 163.681 106.039 163.319 105.883C162.956 105.727 162.663 105.485 162.44 105.158C162.216 104.832 162.104 104.422 162.104 103.928V95.858ZM170.575 106.165C169.769 106.165 169.075 105.993 168.492 105.648C167.913 105.3 167.466 104.812 167.15 104.184C166.837 103.551 166.681 102.811 166.681 101.962C166.681 101.124 166.837 100.386 167.15 99.7464C167.466 99.1072 167.906 98.6083 168.471 98.2496C169.039 97.891 169.703 97.7116 170.463 97.7116C170.925 97.7116 171.372 97.788 171.805 97.9407C172.239 98.0934 172.628 98.3331 172.972 98.6598C173.316 98.9865 173.588 99.4109 173.787 99.9329C173.986 100.451 174.085 101.082 174.085 101.824V102.388H167.581V101.195H172.525C172.525 100.776 172.439 100.405 172.269 100.082C172.098 99.7553 171.859 99.4979 171.55 99.3097C171.244 99.1214 170.886 99.0273 170.474 99.0273C170.026 99.0273 169.636 99.1374 169.302 99.3576C168.972 99.5742 168.716 99.8583 168.535 100.21C168.357 100.558 168.269 100.936 168.269 101.344V102.277C168.269 102.824 168.364 103.289 168.556 103.672C168.751 104.056 169.023 104.349 169.371 104.551C169.719 104.75 170.126 104.849 170.591 104.849C170.893 104.849 171.168 104.807 171.417 104.722C171.665 104.633 171.88 104.501 172.061 104.327C172.242 104.153 172.381 103.939 172.477 103.683L173.984 103.955C173.863 104.398 173.647 104.787 173.334 105.121C173.025 105.451 172.636 105.709 172.168 105.893C171.702 106.075 171.172 106.165 170.575 106.165ZM179.299 106.165C178.507 106.165 177.825 105.986 177.253 105.627C176.685 105.265 176.248 104.766 175.943 104.13C175.638 103.495 175.485 102.767 175.485 101.946C175.485 101.115 175.641 100.382 175.954 99.7464C176.266 99.1072 176.706 98.6083 177.275 98.2496C177.843 97.891 178.512 97.7116 179.283 97.7116C179.904 97.7116 180.458 97.8271 180.945 98.0579C181.431 98.2852 181.824 98.6048 182.122 99.0167C182.424 99.4286 182.603 99.9098 182.66 100.46H181.11C181.025 100.077 180.829 99.7464 180.524 99.4695C180.222 99.1925 179.817 99.054 179.309 99.054C178.866 99.054 178.477 99.1712 178.143 99.4055C177.813 99.6364 177.555 99.9666 177.371 100.396C177.186 100.822 177.094 101.327 177.094 101.909C177.094 102.506 177.184 103.021 177.365 103.454C177.546 103.887 177.802 104.223 178.132 104.461C178.466 104.699 178.858 104.817 179.309 104.817C179.611 104.817 179.885 104.762 180.13 104.652C180.378 104.539 180.586 104.377 180.753 104.168C180.923 103.958 181.042 103.706 181.11 103.411H182.66C182.603 103.94 182.431 104.413 182.143 104.828C181.856 105.244 181.47 105.57 180.987 105.808C180.508 106.046 179.945 106.165 179.299 106.165ZM188.182 97.8182V99.0966H183.713V97.8182H188.182ZM184.912 95.858H186.504V103.598C186.504 103.907 186.551 104.139 186.643 104.295C186.735 104.448 186.854 104.553 187 104.61C187.149 104.663 187.311 104.69 187.485 104.69C187.612 104.69 187.724 104.681 187.82 104.663C187.916 104.645 187.991 104.631 188.044 104.62L188.332 105.936C188.239 105.972 188.108 106.007 187.937 106.043C187.767 106.082 187.554 106.103 187.298 106.107C186.879 106.114 186.489 106.039 186.126 105.883C185.764 105.727 185.471 105.485 185.247 105.158C185.024 104.832 184.912 104.422 184.912 103.928V95.858ZM189.944 106V97.8182H191.537V106H189.944ZM190.749 96.5558C190.472 96.5558 190.234 96.4634 190.035 96.2788C189.839 96.0906 189.742 95.8668 189.742 95.6076C189.742 95.3448 189.839 95.1211 190.035 94.9364C190.234 94.7482 190.472 94.6541 190.749 94.6541C191.026 94.6541 191.262 94.7482 191.457 94.9364C191.656 95.1211 191.755 95.3448 191.755 95.6076C191.755 95.8668 191.656 96.0906 191.457 96.2788C191.262 96.4634 191.026 96.5558 190.749 96.5558ZM197.126 106.165C196.359 106.165 195.689 105.989 195.118 105.638C194.546 105.286 194.102 104.794 193.786 104.162C193.47 103.53 193.312 102.792 193.312 101.946C193.312 101.098 193.47 100.355 193.786 99.7198C194.102 99.0842 194.546 98.5906 195.118 98.239C195.689 97.8874 196.359 97.7116 197.126 97.7116C197.893 97.7116 198.562 97.8874 199.134 98.239C199.706 98.5906 200.15 99.0842 200.466 99.7198C200.782 100.355 200.94 101.098 200.94 101.946C200.94 102.792 200.782 103.53 200.466 104.162C200.15 104.794 199.706 105.286 199.134 105.638C198.562 105.989 197.893 106.165 197.126 106.165ZM197.131 104.828C197.628 104.828 198.04 104.697 198.367 104.434C198.694 104.171 198.935 103.821 199.091 103.385C199.251 102.948 199.331 102.467 199.331 101.941C199.331 101.419 199.251 100.94 199.091 100.503C198.935 100.062 198.694 99.7092 198.367 99.4428C198.04 99.1765 197.628 99.0433 197.131 99.0433C196.631 99.0433 196.215 99.1765 195.885 99.4428C195.558 99.7092 195.315 100.062 195.155 100.503C194.999 100.94 194.921 101.419 194.921 101.941C194.921 102.467 194.999 102.948 195.155 103.385C195.315 103.821 195.558 104.171 195.885 104.434C196.215 104.697 196.631 104.828 197.131 104.828ZM204.31 101.142V106H202.718V97.8182H204.246V99.1499H204.348C204.536 98.7166 204.831 98.3686 205.232 98.1058C205.637 97.843 206.146 97.7116 206.761 97.7116C207.318 97.7116 207.806 97.8288 208.225 98.0632C208.644 98.294 208.969 98.6385 209.2 99.0966C209.431 99.5547 209.546 100.121 209.546 100.796V106H207.954V100.988C207.954 100.395 207.799 99.9311 207.49 99.5973C207.181 99.2599 206.757 99.0913 206.217 99.0913C205.848 99.0913 205.519 99.1712 205.232 99.331C204.948 99.4908 204.722 99.7251 204.555 100.034C204.392 100.339 204.31 100.709 204.31 101.142Z" fill="white"/>
</svg>
