<svg width="100" height="100" viewBox="0 0 100 100" fill="none" xmlns="http://www.w3.org/2000/svg">
<path d="M87.1097 7.0313C87.2761 7.12571 87.4425 7.22012 87.614 7.3174C91.5252 9.74871 94.0166 13.7544 95.1175 18.1641C96.1927 22.8346 95.0652 27.4311 92.6257 31.4209C90.0493 35.2556 86.3156 37.7871 81.8363 38.8672C77.1844 39.7381 72.8167 38.8471 68.7503 36.5235C68.7503 37.6836 68.7503 38.8438 68.7503 40.0391C69.137 40.1036 69.5238 40.168 69.9222 40.2344C70.3179 40.828 70.3622 40.9474 70.369 41.6144C70.3715 41.7756 70.374 41.9369 70.3766 42.103C70.3773 42.2792 70.3781 42.4555 70.3789 42.6371C70.3811 42.8232 70.3834 43.0094 70.3857 43.2012C70.3924 43.8183 70.396 44.4353 70.399 45.0524C70.4004 45.2632 70.4017 45.4741 70.4031 45.6913C70.4101 46.8075 70.4147 47.9237 70.4174 49.0399C70.4206 50.1917 70.432 51.3433 70.4453 52.495C70.4541 53.3816 70.4567 54.2681 70.4577 55.1547C70.4593 55.5792 70.4631 56.0036 70.4693 56.4281C70.4774 57.0233 70.4768 57.618 70.4742 58.2132C70.4785 58.3875 70.4828 58.5618 70.4873 58.7413C70.4694 59.9404 70.14 60.5299 69.3014 61.3805C69.184 61.4921 69.0666 61.6038 68.9456 61.7188C68.787 61.8856 68.6284 62.0524 68.465 62.2242C68.32 62.3694 68.175 62.5145 68.0257 62.664C67.8589 62.8314 67.6921 62.9988 67.5203 63.1713C67.2571 63.4338 67.2571 63.4338 66.9887 63.7017C66.8033 63.8872 66.6178 64.0728 66.4325 64.2585C66.0472 64.644 65.6616 65.0292 65.2757 65.4141C64.781 65.9078 64.2871 66.4023 63.7935 66.8971C63.4123 67.279 63.0307 67.6604 62.649 68.0416C62.378 68.3124 62.1074 68.5835 61.8369 68.8547C61.6732 69.0178 61.5095 69.1809 61.3408 69.3489C61.1245 69.565 61.1245 69.565 60.9038 69.7854C60.1485 70.4882 59.3269 70.3442 58.3496 70.3471C58.1622 70.3484 57.9748 70.3497 57.7818 70.351C57.1599 70.3549 56.538 70.3571 55.9161 70.3591C55.7042 70.3599 55.4922 70.3607 55.2737 70.3615C54.1521 70.3656 53.0305 70.3684 51.9088 70.3702C50.7485 70.3724 49.5882 70.3791 48.4278 70.3868C47.5371 70.3919 46.6464 70.3936 45.7557 70.3943C45.3279 70.3952 44.9 70.3975 44.4722 70.4011C43.8741 70.4059 43.2762 70.4057 42.6781 70.4043C42.5007 70.4068 42.3233 70.4093 42.1406 70.4119C40.9511 70.402 40.9511 70.402 40.3139 69.965C40.0394 69.5313 40.0394 69.5313 40.0394 68.75C38.8792 68.75 37.7191 68.75 36.5238 68.75C36.7655 69.2133 37.0072 69.6766 37.2562 70.1539C39.2776 74.1241 39.8598 78.9711 38.5539 83.281C36.6325 88.2432 33.3993 91.9865 28.5094 94.1748C24.7116 95.7686 20.0961 95.8919 16.2113 94.5313C16.0088 94.4628 15.8064 94.3943 15.5978 94.3238C11.0378 92.6048 7.81003 89.1388 5.8287 84.7631C4.22226 80.9694 4.0459 76.1486 5.46907 72.2657C5.69547 71.7583 5.931 71.3625 6.25032 70.8985C6.66307 70.7551 6.66307 70.7551 7.0926 70.752C7.77102 70.6564 7.9679 70.5531 8.43309 70.0295C8.79117 69.4805 9.11886 68.9629 9.37532 68.3594C9.31086 68.1661 9.24641 67.9727 9.18 67.7735C9.08553 66.9232 9.0847 66.542 9.58283 65.8326C10.2923 65.3344 10.6735 65.3353 11.5238 65.4297C11.7171 65.4942 11.9105 65.5586 12.1097 65.625C12.9122 65.284 13.6066 64.8366 14.2581 64.2579C14.4454 63.7821 14.5017 63.422 14.5053 62.9128C14.7078 62.33 15.0993 62.163 15.6301 61.891C18.979 60.3965 23.5423 60.4099 27.0183 61.4418C28.3504 61.9568 29.6069 62.5986 30.8597 63.2813C30.9886 63.3457 31.1175 63.4102 31.2503 63.4766C31.2503 62.3165 31.2503 61.1563 31.2503 59.961C30.8636 59.8965 30.4769 59.8321 30.0784 59.7657C29.626 59.0871 29.6381 58.8255 29.6356 58.0246C29.6339 57.7833 29.6323 57.542 29.6305 57.2935C29.6307 57.0257 29.6309 56.7579 29.6311 56.49C29.6299 56.2084 29.6286 55.9267 29.6271 55.645C29.6236 54.8795 29.6227 54.114 29.6225 53.3485C29.6221 52.7097 29.6207 52.071 29.6193 51.4322C29.6161 49.9254 29.6152 48.4186 29.6154 46.9118C29.6157 45.3567 29.6115 43.8016 29.6054 42.2465C29.6003 40.9119 29.5982 39.5773 29.5984 38.2427C29.5985 37.4453 29.5974 36.648 29.5933 35.8506C29.5895 35.1008 29.5895 34.3511 29.5923 33.6013C29.5927 33.3261 29.5918 33.0508 29.5894 32.7756C29.5864 32.4 29.5887 32.0244 29.5912 31.6488C29.591 31.4385 29.5908 31.2283 29.5906 31.0117C29.7148 30.3179 29.8955 30.0919 30.4691 29.6875C31.0114 29.5892 31.0114 29.5892 31.6477 29.5883C32.01 29.585 32.01 29.585 32.3796 29.5817C32.6467 29.5832 32.9138 29.5848 33.1809 29.5865C33.4626 29.5854 33.7444 29.584 34.0261 29.5823C34.7908 29.5787 35.5554 29.5801 36.3201 29.5826C37.1203 29.5846 37.9204 29.5827 38.7206 29.5815C40.0643 29.5801 41.408 29.582 42.7517 29.5857C44.3054 29.5899 45.859 29.5886 47.4127 29.5843C48.7465 29.5807 50.0803 29.5802 51.4141 29.5823C52.2108 29.5835 53.0074 29.5836 53.8041 29.5811C54.5531 29.5788 55.302 29.5804 56.051 29.5849C56.326 29.5859 56.6009 29.5856 56.8759 29.5839C57.251 29.5818 57.6262 29.5849 58.0013 29.5883C58.2113 29.5886 58.4213 29.5889 58.6377 29.5892C59.3193 29.7128 59.5554 29.914 59.9613 30.4688C59.9613 30.7266 59.9613 30.9844 59.9613 31.25C61.1214 31.25 62.2816 31.25 63.4769 31.25C63.2352 30.7868 62.9935 30.3235 62.7445 29.8462C60.7225 25.875 60.1428 21.0312 61.4459 16.7199C61.9617 15.39 62.5781 14.1307 63.2816 12.8907C63.376 12.7243 63.4704 12.5578 63.5677 12.3864C65.999 8.47513 70.0047 5.98372 74.4144 4.88286C78.8454 3.86279 83.2463 4.83947 87.1097 7.0313Z" fill="#F1F1F1"/>
<path d="M30.8597 63.2812C31.0531 63.3779 31.0531 63.3779 31.2503 63.4765C31.2503 63.6055 31.2503 63.7344 31.2503 63.8672C31.4535 63.9302 31.4535 63.9302 31.6608 63.9946C32.3788 64.3284 32.903 64.8063 33.472 65.3442C33.5833 65.4483 33.6947 65.5524 33.8094 65.6596C34.6729 66.4815 35.5043 67.3396 36.1331 68.3594C36.1331 68.4883 36.1331 68.6172 36.1331 68.75C36.262 68.75 36.3909 68.75 36.5238 68.75C38.9085 73.259 40.0841 78.2308 38.5539 83.2809C36.6325 88.2432 33.3993 91.9864 28.5094 94.1747C24.7116 95.7686 20.0961 95.8918 16.2113 94.5312C16.0088 94.4627 15.8064 94.3943 15.5978 94.3237C11.0378 92.6047 7.81003 89.1388 5.8287 84.763C4.22226 80.9693 4.0459 76.1486 5.46907 72.2656C5.69547 71.7582 5.931 71.3625 6.25032 70.8984C6.66307 70.755 6.66307 70.755 7.0926 70.7519C7.77102 70.6563 7.9679 70.5531 8.43309 70.0294C8.79117 69.4805 9.11886 68.9628 9.37532 68.3594C9.31086 68.166 9.24641 67.9726 9.18 67.7734C9.08553 66.9231 9.0847 66.542 9.58283 65.8325C10.2923 65.3344 10.6735 65.3352 11.5238 65.4297C11.7171 65.4941 11.9105 65.5586 12.1097 65.625C12.9122 65.2839 13.6066 64.8366 14.2581 64.2578C14.4454 63.782 14.5017 63.4219 14.5053 62.9127C14.7078 62.3299 15.0993 62.1629 15.6301 61.8909C20.5859 59.6794 26.3026 60.7981 30.8597 63.2812Z" fill="#FDC742"/>
<path d="M26.4261 74.9489L25.929 76.7031H16.6179L17.1151 74.9489H26.4261ZM21.8949 86L16.8097 79.8281L16.7955 78.4432H19.3168C19.9465 78.4432 20.4792 78.3461 20.9148 78.152C21.3504 77.9579 21.6818 77.6761 21.9091 77.3068C22.1364 76.9328 22.25 76.4782 22.25 75.9432C22.25 75.1477 22.0133 74.5156 21.5398 74.0469C21.0663 73.5781 20.3253 73.3438 19.3168 73.3438H16.6179L17.1364 71.4545H19.3168C20.491 71.4545 21.4593 71.6416 22.2216 72.0156C22.9839 72.3897 23.5521 72.9081 23.9261 73.571C24.3002 74.2339 24.4872 74.9986 24.4872 75.8651C24.4872 76.6368 24.3333 77.3352 24.0256 77.9602C23.7178 78.5852 23.2277 79.0942 22.5554 79.4872C21.883 79.8802 21 80.1098 19.9062 80.1761L19.8423 80.1903L24.4872 85.8793V86H21.8949ZM26.4332 71.4545L25.929 73.223L18.4858 73.1804L18.9901 71.4545H26.4332Z" fill="black"/>
<path d="M86.28 10.3027C88.698 12.1809 90.5621 14.4734 91.6023 17.3828C91.6604 17.5426 91.7186 17.7025 91.7785 17.8672C92.9195 21.5952 92.188 25.5028 90.4006 28.8764C89.8942 29.7406 89.3399 30.5041 88.6726 31.2499C88.5447 31.396 88.4168 31.542 88.285 31.6924C86.4473 33.6643 84.2011 34.7869 81.6413 35.5468C81.4057 35.6189 81.4057 35.6189 81.1653 35.6925C77.446 36.6288 73.7441 35.6939 70.5085 33.789C69.8149 33.3096 69.1811 32.7909 68.5554 32.2265C68.4194 32.1087 68.2835 31.9908 68.1434 31.8694C66.241 30.1145 65.1805 27.8384 64.4538 25.3906C64.4057 25.2335 64.3577 25.0764 64.3081 24.9145C63.3769 21.2155 64.2991 17.4685 66.1713 14.2348C66.8293 13.2082 67.6819 12.3658 68.5554 11.5234C68.679 11.3937 68.8026 11.2641 68.93 11.1305C73.4796 6.66125 81.2684 6.81356 86.28 10.3027Z" fill="#13B440"/>
<path d="M87.1076 7.0313C87.2741 7.12571 87.4405 7.22012 87.6119 7.3174C91.5232 9.74871 94.0146 13.7544 95.1155 18.1641C96.1907 22.8346 95.0631 27.4311 92.6237 31.4209C90.0473 35.2556 86.3135 37.7871 81.8342 38.8672C77.2893 39.718 72.6869 38.9404 68.7483 36.5235C68.7483 36.3946 68.7483 36.2657 68.7483 36.1329C68.5451 36.0698 68.5451 36.0698 68.3378 36.0055C67.6198 35.6716 67.0956 35.1938 66.5266 34.6558C66.4153 34.5517 66.3039 34.4477 66.1892 34.3404C65.3257 33.5186 64.4943 32.6605 63.8655 31.6407C63.8655 31.5118 63.8655 31.3829 63.8655 31.25C63.7366 31.25 63.6076 31.25 63.4748 31.25C61.0895 26.7398 59.917 21.7716 61.4439 16.7199C61.9597 15.39 62.576 14.1307 63.2795 12.8907C63.3739 12.7243 63.4683 12.5578 63.5656 12.3864C65.9969 8.47513 70.0027 5.98372 74.4123 4.88286C78.8433 3.86279 83.2443 4.83947 87.1076 7.0313ZM67.7717 12.3047C67.642 12.4284 67.5124 12.552 67.3788 12.6793C65.1613 14.9367 64.0004 18.4909 63.9753 21.5821C64.032 25.6061 65.4484 29.0165 68.1867 31.9581C69.6981 33.4145 71.6464 34.6646 73.6311 35.3516C73.8773 35.4385 73.8773 35.4385 74.1285 35.5271C77.7941 36.6308 81.8148 35.9145 85.1545 34.1797C88.9204 31.8787 91.0796 28.5015 92.1082 24.2532C92.7904 20.5139 91.7722 16.8862 89.707 13.7574C89.3788 13.3187 89.0354 12.9083 88.6701 12.5C88.4783 12.281 88.4783 12.281 88.2826 12.0575C86.4448 10.0857 84.1987 8.96311 81.6389 8.20317C81.4818 8.15508 81.3247 8.10699 81.1628 8.05745C76.1985 6.80775 71.2191 8.73025 67.7717 12.3047Z" fill="#2B5582"/>
<path d="M30.8597 63.2813C31.0531 63.3779 31.0531 63.3779 31.2503 63.4766C31.2503 63.6055 31.2503 63.7344 31.2503 63.8672C31.4535 63.9303 31.4535 63.9303 31.6608 63.9946C32.3788 64.3284 32.903 64.8063 33.472 65.3442C33.5833 65.4483 33.6947 65.5524 33.8094 65.6596C34.6729 66.4815 35.5043 67.3396 36.1331 68.3594C36.1331 68.4883 36.1331 68.6172 36.1331 68.75C36.262 68.75 36.3909 68.75 36.5238 68.75C38.9085 73.259 40.0841 78.2308 38.5539 83.2809C36.6325 88.2432 33.3993 91.9864 28.5094 94.1748C24.7116 95.7686 20.0961 95.8918 16.2113 94.5312C16.0088 94.4628 15.8064 94.3943 15.5978 94.3237C11.0378 92.6048 7.81003 89.1388 5.8287 84.7631C4.22226 80.9693 4.0459 76.1486 5.46907 72.2656C6.10213 70.9725 6.10213 70.9725 6.64094 70.7031C7.28791 70.6177 7.28791 70.6177 8.00813 70.7031C8.59407 71.2036 8.59407 71.2036 8.98469 71.875C8.91716 72.7893 8.68751 73.5777 8.38655 74.4385C7.32068 78.1046 8.03993 81.8073 9.79417 85.125C10.3005 85.9873 10.8607 86.7528 11.5238 87.5C11.6207 87.6151 11.7176 87.7301 11.8175 87.8487C13.8402 90.0741 17.1708 91.7527 20.155 92.0323C20.6072 92.0514 21.0565 92.0565 21.5091 92.0532C21.7524 92.0516 21.7524 92.0516 22.0006 92.0499C25.8731 91.9745 29.1563 90.4762 31.9705 87.854C34.8129 84.8846 35.8812 81.0101 35.8028 77.0058C35.6721 73.9685 34.2336 71.0016 32.2269 68.75C32.1133 68.6183 31.9998 68.4866 31.8828 68.351C30.1223 66.4428 27.847 65.3776 25.3909 64.6484C25.2338 64.6004 25.0767 64.5523 24.9149 64.5027C22.5322 63.9029 19.899 64.057 17.5937 64.8491C16.93 65.0588 16.3198 65.183 15.6253 65.2344C14.9539 64.8438 14.9539 64.8438 14.4534 64.2578C14.3314 63.562 14.3314 63.562 14.4534 62.8906C14.9789 62.2541 15.4617 61.9629 16.2357 61.6943C16.4902 61.6029 16.4902 61.6029 16.7499 61.5097C21.7022 60.0896 26.4213 60.8628 30.8597 63.2813Z" fill="#2B5582"/>
<path d="M31.6455 29.5883C31.8871 29.5861 32.1286 29.5838 32.3774 29.5816C32.6445 29.5831 32.9116 29.5847 33.1787 29.5864C33.4605 29.5853 33.7422 29.5839 34.0239 29.5822C34.7886 29.5787 35.5532 29.58 36.3179 29.5825C37.1181 29.5845 37.9182 29.5827 38.7184 29.5814C40.0621 29.58 41.4058 29.5819 42.7495 29.5856C44.3032 29.5899 45.8569 29.5885 47.4106 29.5842C48.7443 29.5806 50.0781 29.5801 51.4119 29.5822C52.2086 29.5834 53.0053 29.5836 53.8019 29.581C54.551 29.5787 55.2999 29.5803 56.0489 29.5848C56.3238 29.5858 56.5987 29.5855 56.8737 29.5838C57.2488 29.5817 57.624 29.5848 57.9991 29.5883C58.2091 29.5885 58.4191 29.5888 58.6355 29.5891C59.3152 29.7124 59.5464 29.923 59.9591 30.4687C60.0567 31.1523 60.0567 31.1523 59.9591 31.8359C59.5944 32.2978 59.3105 32.5508 58.7872 32.8125C58.4432 32.8307 58.0985 32.8363 57.754 32.8359C57.5349 32.8362 57.3158 32.8365 57.0901 32.8368C56.8486 32.8361 56.6071 32.8354 56.3583 32.8346C56.1049 32.8347 55.8514 32.8347 55.5903 32.8347C54.8943 32.8348 54.1982 32.8336 53.5022 32.8323C52.7752 32.831 52.0482 32.8309 51.3211 32.8307C49.9439 32.8301 48.5667 32.8285 47.1896 32.8265C45.6219 32.8243 44.0542 32.8233 42.4865 32.8223C39.2612 32.8202 36.0359 32.8168 32.8106 32.8125C32.8106 33.8437 32.8106 34.875 32.8106 35.9375C33.1906 35.9366 33.5706 35.9357 33.9621 35.9348C37.5374 35.9269 41.1127 35.921 44.688 35.9172C46.5263 35.9152 48.3645 35.9125 50.2028 35.908C51.8048 35.9041 53.4068 35.9016 55.0088 35.9007C55.8572 35.9002 56.7056 35.899 57.5541 35.8962C58.3524 35.8935 59.1507 35.8927 59.9491 35.8933C60.2423 35.8932 60.5355 35.8924 60.8287 35.8909C61.2287 35.889 61.6287 35.8897 62.0287 35.8905C62.2527 35.8901 62.4767 35.8898 62.7074 35.8894C63.2709 35.9367 63.5936 36.0162 64.0606 36.3281C64.3707 36.9483 64.3362 37.6058 64.2559 38.2812C63.9545 38.706 63.741 38.8317 63.2794 39.0625C62.8785 39.0808 62.477 39.0863 62.0757 39.0859C61.6903 39.0863 61.6903 39.0863 61.2972 39.0868C61.0108 39.0861 60.7245 39.0854 60.4381 39.0846C60.1379 39.0846 59.8376 39.0846 59.5374 39.0847C58.7207 39.0848 57.904 39.0836 57.0872 39.0823C56.2343 39.081 55.3814 39.0809 54.5285 39.0807C52.9127 39.0801 51.2968 39.0785 49.681 39.0765C47.8417 39.0743 46.0025 39.0733 44.1632 39.0723C40.379 39.0702 36.5948 39.0668 32.8106 39.0625C32.8115 39.3079 32.8124 39.5533 32.8133 39.8061C32.8212 42.1167 32.827 44.4274 32.8309 46.7381C32.8329 47.926 32.8357 49.114 32.8401 50.302C32.8443 51.4481 32.8467 52.5941 32.8477 53.7402C32.8484 54.1779 32.8498 54.6155 32.8519 55.0531C32.8548 55.6653 32.8552 56.2774 32.855 56.8895C32.8571 57.162 32.8571 57.162 32.8592 57.4399C32.8587 57.607 32.8582 57.7741 32.8576 57.9462C32.858 58.0909 32.8583 58.2357 32.8587 58.3848C32.8019 58.8621 32.6765 59.1645 32.42 59.5703C31.6933 60.0547 31.3267 60.0514 30.4669 59.9609C29.9196 59.5497 29.7106 59.3172 29.5873 58.6373C29.587 58.4273 29.5867 58.2173 29.5864 58.001C29.5842 57.7595 29.582 57.5179 29.5797 57.2691C29.5813 57.002 29.5829 56.7349 29.5845 56.4678C29.5835 56.1861 29.5821 55.9044 29.5804 55.6226C29.5768 54.8579 29.5782 54.0933 29.5807 53.3286C29.5827 52.5284 29.5808 51.7283 29.5796 50.9281C29.5782 49.5844 29.5801 48.2407 29.5838 46.897C29.588 45.3433 29.5867 43.7897 29.5823 42.236C29.5788 40.9022 29.5783 39.5684 29.5803 38.2346C29.5816 37.4379 29.5817 36.6413 29.5791 35.8446C29.5769 35.0956 29.5785 34.3467 29.583 33.5977C29.584 33.3227 29.5837 33.0478 29.582 32.7728C29.5799 32.3977 29.583 32.0225 29.5864 31.6474C29.5867 31.4374 29.587 31.2274 29.5873 31.011C29.8047 29.8121 30.5237 29.5898 31.6455 29.5883Z" fill="#2B5582"/>
<path d="M88.0859 44.9219C88.644 45.3625 89.0207 45.7512 89.1088 46.473C89.7222 56.3337 87.2789 66.2153 81.0547 74.0234C80.9303 74.1876 80.8059 74.3517 80.6778 74.5209C76.8438 79.4438 71.83 83.1173 66.2109 85.7422C65.9909 85.8464 65.7708 85.9507 65.5441 86.058C61.385 87.9379 56.6428 89.1108 52.0683 89.0816C51.9017 89.0813 51.7352 89.081 51.5635 89.0807C51.0383 89.0797 50.513 89.0772 49.9878 89.0747C49.6288 89.0737 49.2699 89.0728 48.9109 89.072C48.037 89.0699 47.163 89.0665 46.2891 89.0625C46.418 89.2559 46.5469 89.4492 46.6797 89.6484C46.7911 90.5082 46.7788 90.8786 46.2646 91.5894C45.7031 91.9922 45.7031 91.9922 45.1538 92.1387C43.6223 91.7783 42.7152 90.3569 41.8091 89.1602C41.7144 89.0374 41.6197 88.9147 41.5221 88.7882C40.9346 87.9836 40.6411 87.3551 40.625 86.3281C41.6453 84.7376 43.6469 83.2827 45.3125 82.4219C46.0709 82.4352 46.5228 82.5126 47.1558 82.9346C47.5815 83.5816 47.5559 84.0059 47.4609 84.7656C47.1626 85.199 47.1626 85.199 46.875 85.5469C52.1816 85.6798 52.1816 85.6798 57.4219 84.9609C57.5907 84.9232 57.7594 84.8854 57.9333 84.8465C60.6943 84.2081 63.2634 83.246 65.8203 82.0313C65.9554 81.9673 66.0905 81.9034 66.2297 81.8376C69.1159 80.4468 71.6992 78.5631 74.0234 76.3672C74.2831 76.1466 74.5435 75.9268 74.8047 75.708C81.4987 69.8323 85.0963 60.6651 85.6689 51.9409C85.7292 50.9793 85.7436 50.0273 85.7193 49.0639C85.7134 48.7744 85.7134 48.7744 85.7074 48.4791C85.6982 48.1004 85.6847 47.7218 85.6664 47.3434C85.6446 46.4418 85.6396 46.0373 86.19 45.2919C86.8804 44.8087 87.26 44.7867 88.0859 44.9219Z" fill="#2B5582"/>
<path d="M54.8474 7.86133C56.3788 8.22167 57.286 9.64314 58.1921 10.8398C58.2868 10.9626 58.3815 11.0854 58.4791 11.2118C59.0666 12.0164 59.3601 12.6449 59.3762 13.6719C58.3558 15.2624 56.3543 16.7173 54.6887 17.5781C53.9302 17.5648 53.4783 17.4874 52.8454 17.0654C52.4197 16.4184 52.4453 15.9941 52.5402 15.2344C52.8385 14.801 52.8385 14.801 53.1262 14.4531C47.8195 14.3202 47.8195 14.3202 42.5793 15.0391C42.4105 15.0768 42.2417 15.1146 42.0678 15.1535C39.3069 15.7919 36.7377 16.754 34.1809 17.9688C34.0458 18.0327 33.9106 18.0966 33.7714 18.1624C30.8853 19.5532 28.302 21.4369 25.9777 23.6328C25.7181 23.8534 25.4577 24.0732 25.1965 24.292C18.6129 30.0708 14.9418 39.1354 14.3589 47.7328C14.2901 48.8585 14.2523 49.9731 14.2819 51.1009C14.2858 51.2854 14.2897 51.47 14.2938 51.6601C14.3029 52.0188 14.3164 52.3776 14.3348 52.736C14.3572 53.6124 14.3516 53.9775 13.8111 54.7012C13.1214 55.1929 12.7451 55.2139 11.9152 55.0781C11.3571 54.6375 10.9805 54.2488 10.8924 53.527C10.279 43.6663 12.7223 33.7847 18.9465 25.9766C19.133 25.7303 19.133 25.7303 19.3234 25.4791C24.9353 18.2731 33.2821 13.3537 42.1887 11.5234C42.4114 11.4755 42.4114 11.4755 42.6386 11.4265C46.2701 10.6744 50.0243 10.8819 53.7121 10.9375C53.5187 10.6475 53.5187 10.6475 53.3215 10.3516C53.21 9.49183 53.2224 9.12141 53.7365 8.41064C54.298 8.00781 54.298 8.00781 54.8474 7.86133Z" fill="#2B5582"/>
<path d="M68.8592 39.9292C69.5306 40.0391 69.5306 40.0391 69.9563 40.3216C70.4917 41.0725 70.4257 41.7575 70.4223 42.6592C70.4257 42.9385 70.4257 42.9385 70.4293 43.2234C70.4357 43.8395 70.4363 44.4553 70.4362 45.0714C70.4382 45.5001 70.4404 45.9287 70.4427 46.3574C70.4465 47.2565 70.4472 48.1555 70.4459 49.0546C70.4447 50.2049 70.4534 51.3549 70.4646 52.5051C70.4719 53.3908 70.4728 54.2765 70.472 55.1622C70.4726 55.5862 70.4753 56.0101 70.4803 56.434C70.4866 57.0283 70.4841 57.622 70.4795 58.2163C70.4832 58.3902 70.4869 58.5642 70.4907 58.7434C70.4687 59.9405 70.1372 60.5309 69.3002 61.3803C69.1829 61.492 69.0656 61.6037 68.9447 61.7188C68.7861 61.8855 68.6275 62.0523 68.4641 62.2242C68.3191 62.3693 68.1741 62.5144 68.0247 62.664C67.8579 62.8314 67.6912 62.9988 67.5193 63.1712C67.3439 63.3463 67.1685 63.5213 66.9877 63.7016C66.8023 63.8872 66.6169 64.0728 66.4315 64.2584C66.0463 64.644 65.6607 65.0292 65.2748 65.4141C64.78 65.9077 64.2862 66.4023 63.7925 66.897C63.4114 67.2789 63.0298 67.6603 62.648 68.0416C62.377 68.3123 62.1065 68.5835 61.8359 68.8547C61.5904 69.0993 61.5904 69.0993 61.3398 69.3489C61.1956 69.4929 61.0514 69.637 60.9029 69.7854C60.1476 70.4881 59.3259 70.3442 58.3487 70.3471C58.1613 70.3484 57.9739 70.3496 57.7808 70.351C57.1589 70.3548 56.5371 70.3571 55.9152 70.359C55.7032 70.3598 55.4912 70.3606 55.2728 70.3615C54.1512 70.3655 53.0295 70.3683 51.9079 70.3701C50.7475 70.3723 49.5872 70.379 48.4269 70.3868C47.5362 70.3919 46.6455 70.3935 45.7548 70.3942C45.3269 70.3952 44.8991 70.3975 44.4713 70.4011C43.8732 70.4058 43.2753 70.4057 42.6771 70.4043C42.4998 70.4068 42.3224 70.4093 42.1396 70.4119C40.9458 70.402 40.9458 70.402 40.3198 69.9581C39.8996 69.3206 39.9206 68.9103 40.0384 68.1641C40.5796 67.4392 40.8663 67.2106 41.7701 67.0701C42.0693 67.0672 42.3686 67.0698 42.6678 67.0766C42.9137 67.0764 42.9137 67.0764 43.1646 67.0762C43.7048 67.0769 44.2446 67.0845 44.7847 67.0921C45.1599 67.094 45.5351 67.0953 45.9103 67.0963C46.8964 67.1 47.8824 67.1096 48.8684 67.1204C49.8752 67.1304 50.882 67.1349 51.8888 67.1398C53.8632 67.1503 55.8375 67.1669 57.8119 67.1875C57.8068 66.9382 57.8016 66.6889 57.7964 66.432C57.7787 65.5057 57.7675 64.5794 57.7582 63.6529C57.7533 63.2522 57.7467 62.8516 57.7382 62.4509C57.7263 61.8744 57.7208 61.2982 57.7165 60.7216C57.7089 60.4536 57.7089 60.4536 57.7012 60.1802C57.7009 59.3514 57.7414 58.9028 58.1853 58.186C59.0408 57.6562 59.7338 57.6893 60.721 57.7171C60.9985 57.7192 60.9985 57.7192 61.2817 57.7213C61.8708 57.7268 62.4596 57.739 63.0487 57.7515C63.4488 57.7564 63.849 57.7608 64.2492 57.7648C65.2285 57.7756 66.2076 57.7924 67.1869 57.8125C67.1847 57.6042 67.1825 57.396 67.1803 57.1814C67.1605 55.2186 67.1459 53.2558 67.1363 51.293C67.1312 50.2838 67.1243 49.2748 67.1132 48.2657C67.1026 47.2918 67.0967 46.3181 67.0942 45.3441C67.0924 44.9726 67.0889 44.6011 67.0836 44.2296C67.0765 43.7091 67.0756 43.1889 67.076 42.6684C67.0707 42.4381 67.0707 42.4381 67.0654 42.2031C67.0727 41.4213 67.155 41.0569 67.6386 40.4309C68.1634 40.0391 68.1634 40.0391 68.8592 39.9292Z" fill="#2B5582"/>
<path d="M59.9609 31.25C63.4094 30.8978 63.4094 30.8978 64.4264 31.6803C64.8056 32.2366 65.1188 32.8018 65.4297 33.3984C66.2568 34.4163 67.2444 35.0902 68.3708 35.7483C68.75 36.1328 68.75 36.1328 68.75 37.5C67.332 37.5 65.9141 37.5 64.4531 37.5C64.3887 37.6289 64.3242 37.7578 64.2578 37.8906C64.1934 37.375 64.1289 36.8594 64.0625 36.3281C63.3784 36.1185 62.7439 36.1059 62.0306 36.1019C61.7731 36.1 61.5157 36.0981 61.2505 36.0961C60.9655 36.095 60.6806 36.0938 60.3956 36.0927C60.0953 36.0908 59.795 36.0889 59.4947 36.0869C58.6797 36.0816 57.8646 36.0775 57.0495 36.0736C56.1976 36.0693 55.3458 36.064 54.4939 36.0587C52.8809 36.049 51.2678 36.0402 49.6547 36.0318C47.8183 36.0221 45.9819 36.0114 44.1454 36.0006C40.3678 35.9783 36.5901 35.9575 32.8125 35.9375C32.8125 34.9063 32.8125 33.875 32.8125 32.8125C33.1362 32.8105 33.4599 32.8085 33.7934 32.8064C36.8399 32.7873 39.8863 32.7673 42.9328 32.7462C44.4991 32.7354 46.0654 32.725 47.6317 32.7154C48.9968 32.707 50.3619 32.698 51.727 32.6881C52.4499 32.6829 53.1728 32.6781 53.8957 32.674C54.7024 32.6695 55.5091 32.6634 56.3158 32.6573C56.6759 32.6556 56.6759 32.6556 57.0434 32.6539C57.263 32.652 57.4826 32.6501 57.7089 32.6481C57.8998 32.6468 58.0906 32.6456 58.2872 32.6443C58.7536 32.6191 59.1355 32.5929 59.5703 32.4219C59.8251 31.8367 59.8251 31.8367 59.9609 31.25Z" fill="#B3E7F2"/>
<path d="M84.96 15.625C85.5872 16.0886 85.881 16.3934 86.083 17.1509C85.695 18.8 83.7311 20.2027 82.5697 21.3615C82.3799 21.5515 82.1901 21.7414 82.0003 21.9314C81.6059 22.3262 81.2111 22.7206 80.816 23.1147C80.3094 23.6202 79.8037 24.1265 79.2983 24.6331C78.9081 25.024 78.5174 25.4145 78.1266 25.8048C77.8491 26.0821 77.5721 26.3597 77.295 26.6374C77.1274 26.8044 76.9598 26.9714 76.7871 27.1434C76.5656 27.3647 76.5656 27.3647 76.3396 27.5904C75.9024 27.9979 75.6604 28.1106 75.0723 28.2226C74.0548 28.0719 73.5641 27.4665 72.8506 26.7578C72.6459 26.5581 72.4412 26.3585 72.2364 26.1589C70.3488 24.3032 70.3488 24.3032 70.2383 23.4741C70.3115 22.8515 70.3115 22.8515 70.7266 22.29C71.2881 21.875 71.2881 21.875 71.8374 21.7285C72.7896 21.9525 73.3415 22.5655 74.0225 23.2422C74.2642 23.4778 74.2642 23.4778 74.5107 23.7182C74.6074 23.819 74.7041 23.9197 74.8037 24.0234C75.4584 23.7392 75.8842 23.3802 76.3846 22.8744C76.6173 22.6408 76.6173 22.6408 76.8546 22.4024C77.103 22.15 77.103 22.15 77.3565 21.8925C77.5279 21.7201 77.6993 21.5478 77.8758 21.3701C78.3304 20.9127 78.7841 20.4545 79.2374 19.9958C79.8773 19.3485 80.5182 18.7022 81.1596 18.0565C81.501 17.7127 81.8418 17.3684 82.1821 17.0235C82.336 16.8684 82.4898 16.7133 82.6483 16.5534C82.8517 16.3477 82.8517 16.3477 83.0592 16.1377C83.6701 15.5645 84.1356 15.528 84.96 15.625Z" fill="white"/>
<path d="M11.5217 65.4296C11.9325 65.7309 12.0765 65.9533 12.3029 66.4062C12.3723 67.1554 12.4098 67.6066 11.9977 68.2495C11.3466 68.6669 10.9148 68.6361 10.1545 68.5546C9.61513 68.3559 9.43556 68.2887 9.17791 67.7734C9.0821 66.927 9.08466 66.539 9.58074 65.8325C10.2934 65.3321 10.6677 65.3031 11.5217 65.4296Z" fill="#2B5582"/>
<path d="M60.9375 60.9375C62.2266 60.9375 63.5156 60.9375 64.8438 60.9375C63.5231 62.4783 63.5231 62.4783 63.0089 62.9936C62.844 63.1588 62.844 63.1588 62.6759 63.3274C62.5655 63.4371 62.4551 63.5467 62.3413 63.6597C62.2271 63.7746 62.113 63.8895 61.9953 64.0079C61.1576 64.8438 61.1576 64.8438 60.9375 64.8438C60.9375 63.5547 60.9375 62.2656 60.9375 60.9375Z" fill="#2B5582"/>
<path d="M50.0017 57.6904C50.7975 57.8562 51.0845 58.1401 51.5642 58.7891C51.6863 59.375 51.6863 59.375 51.5642 59.9609C51.0845 60.6099 50.7975 60.8938 50.0017 61.0596C49.2059 60.8938 48.9189 60.6099 48.4392 59.9609C48.3171 59.375 48.3171 59.375 48.4392 58.7891C48.9189 58.1401 49.2059 57.8562 50.0017 57.6904Z" fill="#0B0B0B"/>
<path d="M43.7517 57.6904C44.5475 57.8562 44.8345 58.1401 45.3142 58.7891C45.4363 59.375 45.4363 59.375 45.3142 59.9609C44.8345 60.6099 44.5475 60.8938 43.7517 61.0596C42.9559 60.8938 42.6689 60.6099 42.1892 59.9609C42.0671 59.375 42.0671 59.375 42.1892 58.7891C42.6689 58.1401 42.9559 57.8562 43.7517 57.6904Z" fill="#0B0B0B"/>
<path d="M37.5017 57.6904C38.2975 57.8562 38.5845 58.1401 39.0642 58.7891C39.1863 59.375 39.1863 59.375 39.0642 59.9609C38.5845 60.6099 38.2975 60.8938 37.5017 61.0596C36.7059 60.8938 36.4189 60.6099 35.9392 59.9609C35.8171 59.375 35.8171 59.375 35.9392 58.7891C36.4189 58.1401 36.7059 57.8562 37.5017 57.6904Z" fill="#0B0B0B"/>
<path d="M62.5017 51.4404C63.2975 51.6062 63.5845 51.8901 64.0642 52.5391C64.1863 53.125 64.1863 53.125 64.0642 53.7109C63.5845 54.3599 63.2975 54.6438 62.5017 54.8096C61.7059 54.6438 61.4189 54.3599 60.9392 53.7109C60.8171 53.125 60.8171 53.125 60.9392 52.5391C61.4189 51.8901 61.7059 51.6062 62.5017 51.4404Z" fill="#0B0B0B"/>
<path d="M56.2517 51.4404C57.0475 51.6062 57.3345 51.8901 57.8142 52.5391C57.9363 53.125 57.9363 53.125 57.8142 53.7109C57.3345 54.3599 57.0475 54.6438 56.2517 54.8096C55.4559 54.6438 55.1689 54.3599 54.6892 53.7109C54.5671 53.125 54.5671 53.125 54.6892 52.5391C55.1689 51.8901 55.4559 51.6062 56.2517 51.4404Z" fill="#0B0B0B"/>
<path d="M50.0017 51.4404C50.7975 51.6062 51.0845 51.8901 51.5642 52.5391C51.6863 53.125 51.6863 53.125 51.5642 53.7109C51.0845 54.3599 50.7975 54.6438 50.0017 54.8096C49.2059 54.6438 48.9189 54.3599 48.4392 53.7109C48.3171 53.125 48.3171 53.125 48.4392 52.5391C48.9189 51.8901 49.2059 51.6062 50.0017 51.4404Z" fill="#0B0B0B"/>
<path d="M43.7517 51.4404C44.5475 51.6062 44.8345 51.8901 45.3142 52.5391C45.4363 53.125 45.4363 53.125 45.3142 53.7109C44.8345 54.3599 44.5475 54.6438 43.7517 54.8096C42.9559 54.6438 42.6689 54.3599 42.1892 53.7109C42.0671 53.125 42.0671 53.125 42.1892 52.5391C42.6689 51.8901 42.9559 51.6062 43.7517 51.4404Z" fill="#0B0B0B"/>
<path d="M37.5017 51.4404C38.2975 51.6062 38.5845 51.8901 39.0642 52.5391C39.1863 53.125 39.1863 53.125 39.0642 53.7109C38.5845 54.3599 38.2975 54.6438 37.5017 54.8096C36.7059 54.6438 36.4189 54.3599 35.9392 53.7109C35.8171 53.125 35.8171 53.125 35.9392 52.5391C36.4189 51.8901 36.7059 51.6062 37.5017 51.4404Z" fill="#0B0B0B"/>
<path d="M62.5017 45.1904C63.2975 45.3562 63.5845 45.6401 64.0642 46.2891C64.1863 46.875 64.1863 46.875 64.0642 47.4609C63.5845 48.1099 63.2975 48.3938 62.5017 48.5596C61.7059 48.3938 61.4189 48.1099 60.9392 47.4609C60.8171 46.875 60.8171 46.875 60.9392 46.2891C61.4189 45.6401 61.7059 45.3562 62.5017 45.1904Z" fill="#0B0B0B"/>
<path d="M56.2517 45.1904C57.0475 45.3562 57.3345 45.6401 57.8142 46.2891C57.9363 46.875 57.9363 46.875 57.8142 47.4609C57.3345 48.1099 57.0475 48.3938 56.2517 48.5596C55.4559 48.3938 55.1689 48.1099 54.6892 47.4609C54.5671 46.875 54.5671 46.875 54.6892 46.2891C55.1689 45.6401 55.4559 45.3562 56.2517 45.1904Z" fill="#0B0B0B"/>
<path d="M50.0017 45.1904C50.7975 45.3562 51.0845 45.6401 51.5642 46.2891C51.6863 46.875 51.6863 46.875 51.5642 47.4609C51.0845 48.1099 50.7975 48.3938 50.0017 48.5596C49.2059 48.3938 48.9189 48.1099 48.4392 47.4609C48.3171 46.875 48.3171 46.875 48.4392 46.2891C48.9189 45.6401 49.2059 45.3562 50.0017 45.1904Z" fill="#0B0B0B"/>
<path d="M43.7517 45.1904C44.5475 45.3562 44.8345 45.6401 45.3142 46.2891C45.4363 46.875 45.4363 46.875 45.3142 47.4609C44.8345 48.1099 44.5475 48.3938 43.7517 48.5596C42.9559 48.3938 42.6689 48.1099 42.1892 47.4609C42.0671 46.875 42.0671 46.875 42.1892 46.2891C42.6689 45.6401 42.9559 45.3562 43.7517 45.1904Z" fill="#0B0B0B"/>
<path d="M37.5017 45.1904C38.2975 45.3562 38.5845 45.6401 39.0642 46.2891C39.1863 46.875 39.1863 46.875 39.0642 47.4609C38.5845 48.1099 38.2975 48.3938 37.5017 48.5596C36.7059 48.3938 36.4189 48.1099 35.9392 47.4609C35.8171 46.875 35.8171 46.875 35.9392 46.2891C36.4189 45.6401 36.7059 45.3562 37.5017 45.1904Z" fill="#0B0B0B"/>
</svg>
