<svg width="24" height="24" viewBox="0 0 24 24" fill="none" xmlns="http://www.w3.org/2000/svg">
<mask id="mask0_7378_6327" style="mask-type:alpha" maskUnits="userSpaceOnUse" x="0" y="0" width="24" height="24">
<rect width="24" height="24" fill="#D9D9D9"/>
</mask>
<g mask="url(#mask0_7378_6327)">
<path d="M12 16.7115C12.2288 16.7115 12.4207 16.6341 12.5755 16.4793C12.7303 16.3244 12.8077 16.1326 12.8077 15.9038C12.8077 15.6749 12.7303 15.4831 12.5755 15.3282C12.4207 15.1736 12.2288 15.0963 12 15.0963C11.7712 15.0963 11.5793 15.1736 11.4245 15.3282C11.2697 15.4831 11.1923 15.6749 11.1923 15.9038C11.1923 16.1326 11.2697 16.3244 11.4245 16.4793C11.5793 16.6341 11.7712 16.7115 12 16.7115ZM11.25 13.2308H12.75V7.19225H11.25V13.2308ZM8.4615 20.5L3.5 15.543V8.4615L8.457 3.5H15.5385L20.5 8.457V15.5385L15.543 20.5H8.4615ZM9.1 19H14.9L19 14.9V9.1L14.9 5H9.1L5 9.1V14.9L9.1 19Z" fill="#DC2626"/>
</g>
</svg>
