<svg width="80" height="80" viewBox="0 0 80 80" fill="none" xmlns="http://www.w3.org/2000/svg">
<path d="M71.9739 48.1446C74.8619 51.1409 76.0223 54.7848 76.0047 58.8887C75.9203 62.8773 74.2604 66.2965 71.4075 69.0626C69.6587 70.6526 67.8465 71.6068 65.6262 72.3438C65.4713 72.3976 65.3164 72.4514 65.1569 72.5068C61.7576 73.4919 57.7686 72.9038 54.6887 71.2501C54.5318 71.1699 54.3749 71.0898 54.2133 71.0072C52.9431 70.3203 51.9526 69.45 50.9387 68.4376C50.7674 68.269 50.7674 68.269 50.5927 68.097C48.0748 65.4545 46.8303 61.7362 46.8762 58.1251C47.0615 53.8731 48.7502 50.2438 51.8402 47.3164C57.6952 42.0345 66.4855 42.9633 71.9739 48.1446Z" fill="#2B5582"/>
<path d="M67.9901 50.2636C69.9194 51.881 71.4025 54.188 71.7206 56.7187C71.96 59.6011 71.5186 62.3072 69.6734 64.6325C69.3264 65.0296 68.9675 65.4073 68.5956 65.7812C68.5031 65.8791 68.4107 65.9769 68.3154 66.0778C66.3751 67.9709 63.611 68.6785 60.9763 68.6707C58.244 68.5828 55.8537 67.3138 53.9639 65.3836C51.8765 63.1453 51.1104 60.4873 51.1981 57.4859C51.3396 54.8625 52.6941 52.4026 54.5703 50.6017C58.4449 47.2915 63.9511 47.2297 67.9901 50.2636Z" fill="#FEB22A"/>
<path d="M64.2983 56.2642L63.9503 57.4922H57.4325L57.7805 56.2642H64.2983ZM61.1264 64L57.5668 59.6797L57.5568 58.7102H59.3217C59.7625 58.7102 60.1354 58.6423 60.4403 58.5064C60.7453 58.3705 60.9773 58.1733 61.1364 57.9148C61.2955 57.6529 61.375 57.3348 61.375 56.9602C61.375 56.4034 61.2093 55.9609 60.8778 55.6328C60.5464 55.3047 60.0277 55.1406 59.3217 55.1406H57.4325L57.7955 53.8182H59.3217C60.1437 53.8182 60.8215 53.9491 61.3551 54.2109C61.8887 54.4728 62.2865 54.8357 62.5483 55.2997C62.8101 55.7637 62.9411 56.299 62.9411 56.9055C62.9411 57.4458 62.8333 57.9347 62.6179 58.3722C62.4025 58.8097 62.0594 59.166 61.5888 59.4411C61.1181 59.7161 60.5 59.8769 59.7344 59.9233L59.6896 59.9332L62.9411 63.9155V64H61.1264ZM64.3033 53.8182L63.9503 55.0561L58.7401 55.0263L59.093 53.8182H64.3033Z" fill="white"/>
<path d="M70.3125 24.6874C70.2188 24.7487 70.1252 24.8099 70.0287 24.873C68.7504 25.7167 67.4942 26.5909 66.238 27.4671C65.2587 28.1498 64.2769 28.8286 63.291 29.5019C63.1086 29.6265 63.1086 29.6265 62.9225 29.7536C62.6854 29.9155 62.4482 30.0773 62.2111 30.2392C60.5144 31.3978 58.8264 32.5686 57.1407 33.7431C56.0774 34.4832 55.0099 35.217 53.9395 35.9467C53.2612 36.4097 52.5853 36.8759 51.9116 37.3455C51.7574 37.4529 51.6033 37.5603 51.4444 37.6709C51.135 37.8872 50.8262 38.1044 50.5182 38.3226C49.8491 38.794 49.1853 39.2492 48.4698 39.6477C47.8735 39.9848 47.3595 40.2914 46.875 40.7812C46.7385 41.3626 46.7643 41.8161 46.8298 42.4084C46.9557 43.9693 46.1222 45.5374 45.1562 46.7187C43.4908 48.3325 41.743 48.9878 39.4415 48.9581C38.4406 48.861 37.512 48.5172 36.5738 48.1696C36.1301 48.1084 35.9891 48.2432 35.6354 48.5088C35.5211 48.5925 35.4068 48.6762 35.289 48.7624C35.1711 48.8518 35.0531 48.9411 34.9316 49.0331C34.698 49.2074 34.4639 49.381 34.2291 49.5538C34.0743 49.6706 34.0743 49.6706 33.9164 49.7898C33.5622 50.0205 33.2086 50.1675 32.8125 50.3124C30.2723 45.9137 30.2723 45.9137 29.2188 44.0624C29.5681 43.6754 29.9013 43.4617 30.3717 43.2403C30.5027 43.1783 30.6337 43.1164 30.7687 43.0526C30.905 42.9895 31.0413 42.9263 31.1816 42.8613C31.3869 42.7638 31.3869 42.7638 31.5964 42.6644C32.6138 42.1874 32.6138 42.1874 32.9688 42.1874C32.971 42.0738 32.9732 41.9602 32.9755 41.8432C33.0757 39.7307 33.8977 38.0589 35.4199 36.6113C36.924 35.3683 38.7163 34.9604 40.6458 35.0134C41.8092 35.153 42.7126 35.6185 43.7146 36.1932C44.317 36.4477 44.5284 36.4034 45.1562 36.2499C45.5441 36.0849 45.9148 35.9142 46.2903 35.725C46.3984 35.6718 46.5065 35.6186 46.6179 35.5638C46.8501 35.4495 47.082 35.3346 47.3137 35.2192C47.9308 34.912 48.5498 34.6089 49.1687 34.3053C49.2931 34.2442 49.4176 34.183 49.5458 34.12C50.6404 33.5832 51.7436 33.0673 52.8516 32.5585C54.3839 31.8534 55.9053 31.1287 57.4219 30.3905C59.1264 29.5609 60.8391 28.7521 62.5611 27.959C64.2159 27.1944 65.8562 26.4009 67.4942 25.6011C67.6427 25.5288 67.6427 25.5288 67.7942 25.4549C68.0625 25.3242 68.3305 25.1932 68.5986 25.0621C69.775 24.5083 69.775 24.5083 70.3125 24.6874ZM37.9199 40.5663C37.4025 41.2945 37.4043 41.9361 37.5 42.8124C37.8657 43.572 38.3168 43.9877 39.0625 44.3749C39.7677 44.6017 40.3007 44.5863 40.9766 44.2773C41.7281 43.844 42.1456 43.3507 42.4023 42.5195C42.5784 41.6849 42.3677 41.0643 41.9141 40.3515C41.3155 39.7529 40.7616 39.5052 39.9219 39.4628C39.0145 39.4964 38.5106 39.8959 37.9199 40.5663Z" fill="#FFB128"/>
<path d="M13.75 42.6562C14.3102 42.7963 14.6634 42.9504 15.1587 43.2294C15.3136 43.3163 15.4684 43.4032 15.628 43.4927C15.8779 43.6346 15.8779 43.6346 16.1328 43.7793C16.3067 43.8774 16.4807 43.9755 16.6599 44.0766C18.1367 44.9121 19.6031 45.7653 21.0669 46.6235C22.2979 47.3449 23.5347 48.0563 24.7714 48.768C24.9328 48.8609 25.0943 48.9539 25.2606 49.0497C25.4029 49.1315 25.5451 49.2133 25.6916 49.2976C26.0883 49.5281 26.4822 49.763 26.875 50C26.6834 50.5747 26.5314 50.6255 26.0199 50.9247C25.8794 51.0078 25.7389 51.0909 25.5942 51.1765C25.4464 51.262 25.2987 51.3475 25.1465 51.4355C24.9981 51.5229 24.8498 51.6102 24.697 51.7001C24.3299 51.9159 23.9622 52.1304 23.5938 52.3438C24.8349 54.2679 26.1725 56.0434 27.7429 57.71C28.125 58.125 28.125 58.125 28.4546 58.5394C28.8045 58.9739 29.1871 59.3082 29.6112 59.668C29.8955 59.9108 30.1753 60.159 30.4523 60.4102C34.116 63.7064 38.5371 65.9809 43.1924 67.521C43.7485 67.7084 44.2958 67.9151 44.8438 68.125C44.8438 68.1766 44.8438 68.2281 44.8438 68.2812C36.0107 68.4403 26.6829 64.7445 20.1984 58.7628C19.8718 58.4633 19.5377 58.1765 19.1992 57.8906C18.5156 57.2977 17.9299 56.625 17.3438 55.9375C17.1985 56.0205 17.0533 56.1035 16.9037 56.189C15.7416 56.853 15.7416 56.853 15.4504 57.0187C15.2496 57.1339 15.0497 57.2506 14.8505 57.3685C14.0954 57.8125 14.0954 57.8125 13.75 57.8125C13.75 52.8109 13.75 47.8094 13.75 42.6562Z" fill="#80B817"/>
<path d="M48.75 8.90625C50.5538 9.49559 52.2355 10.1943 53.9062 11.0938C54.0875 11.19 54.2688 11.2863 54.4556 11.3855C57.9908 13.3307 62.4721 16.425 64.5312 20C64.3053 20.6777 63.794 20.8272 63.1934 21.1426C62.9348 21.2822 62.6764 21.4221 62.4182 21.5625C62.2795 21.6378 62.1408 21.7132 61.9978 21.7908C61.2358 22.2117 60.4868 22.6547 59.7363 23.0957C59.4192 23.2807 59.102 23.4657 58.7848 23.6505C58.2905 23.9388 57.7968 24.228 57.3046 24.5199C56.8111 24.8124 56.3159 25.1017 55.8203 25.3906C55.6687 25.4816 55.5171 25.5726 55.3609 25.6664C55.1496 25.7885 55.1496 25.7885 54.9341 25.9131C54.8107 25.9859 54.6872 26.0587 54.5601 26.1337C54.2188 26.25 54.2188 26.25 53.8872 26.1414C53.4306 25.8242 53.088 25.4062 52.7246 24.9902C51.8859 24.0576 50.9962 23.2646 50 22.5C49.7586 22.3072 49.7586 22.3072 49.5123 22.1106C48.3726 21.2058 47.1933 20.4233 45.9375 19.6875C46.1614 18.4662 46.4638 17.2731 46.7877 16.0748C46.8645 15.7885 46.8645 15.7885 46.9429 15.4964C47.0505 15.0957 47.1582 14.695 47.2663 14.2945C47.4048 13.7815 47.5427 13.2683 47.6803 12.7551C47.8123 12.2633 47.9445 11.7716 48.0768 11.2799C48.151 11.0038 48.151 11.0038 48.2267 10.7221C48.2726 10.552 48.3185 10.3819 48.3658 10.2066C48.4062 10.057 48.4465 9.90726 48.4881 9.75304C48.5676 9.46849 48.6566 9.18654 48.75 8.90625Z" fill="#FFB228"/>
<path d="M37.7441 7.13858C37.949 7.13862 37.949 7.13862 38.158 7.13866C40.2609 7.14135 42.3053 7.25741 44.375 7.65616C44.1706 8.89406 43.8909 10.0981 43.5645 11.3091C43.5171 11.4863 43.4697 11.6635 43.4209 11.846C43.3215 12.217 43.2216 12.5879 43.1215 12.9588C42.968 13.5282 42.8163 14.0982 42.6648 14.6682C42.5677 15.0296 42.4704 15.3911 42.373 15.7525C42.3278 15.9232 42.2825 16.0939 42.2359 16.2698C42.1718 16.5055 42.1718 16.5055 42.1063 16.7459C42.0505 16.9536 42.0505 16.9536 41.9935 17.1654C41.875 17.4999 41.875 17.4999 41.5625 17.8124C41.2666 17.7717 41.2666 17.7717 40.8997 17.6598C40.6914 17.5996 40.6914 17.5996 40.4789 17.5381C40.3273 17.4933 40.1757 17.4485 40.0195 17.4023C37.9067 16.809 35.7682 16.5181 33.5938 16.2499C33.2102 15.2829 32.9269 14.3128 32.6691 13.3056C32.6076 13.0689 32.6076 13.0689 32.545 12.8275C32.4154 12.3278 32.2868 11.8279 32.1582 11.328C32.0701 10.9874 31.9819 10.6469 31.8936 10.3063C31.6784 9.47519 31.4639 8.64388 31.25 7.81241C33.3821 7.16806 35.5342 7.13024 37.7441 7.13858Z" fill="#FFB228"/>
<path d="M27.0312 9.06259C27.14 9.34516 27.14 9.34516 27.2388 9.71834C27.2764 9.85758 27.3139 9.99683 27.3525 10.1403C27.3919 10.2918 27.4313 10.4433 27.4719 10.5995C27.5131 10.7542 27.5543 10.9089 27.5967 11.0683C27.6837 11.3963 27.7701 11.7244 27.8559 12.0527C27.9875 12.5558 28.1211 13.0584 28.255 13.5609C28.3391 13.879 28.4232 14.1972 28.5071 14.5155C28.5471 14.6664 28.5871 14.8173 28.6284 14.9727C28.6649 15.1129 28.7015 15.2532 28.7391 15.3977C28.7715 15.5211 28.8038 15.6445 28.8372 15.7716C28.9062 16.0938 28.9062 16.0938 28.9062 16.5626C28.8121 16.5813 28.718 16.6001 28.621 16.6194C25.8439 17.1797 23.216 17.83 20.6998 19.162C19.9249 19.5568 19.9249 19.5568 19.5502 19.4393C19.1055 19.1435 18.7434 18.782 18.3716 18.4022C18.2927 18.3229 18.2138 18.2435 18.1325 18.1618C17.8819 17.9094 17.6323 17.6559 17.3828 17.4024C17.2126 17.2306 17.0423 17.0589 16.8719 16.8873C16.4555 16.4674 16.04 16.0465 15.625 15.6251C15.929 14.9388 16.4089 14.5857 17.002 14.1505C17.1669 14.0288 17.1669 14.0288 17.3351 13.9046C25.241 8.16746 25.241 8.16746 27.0312 9.06259Z" fill="#FFB228"/>
<path d="M12.1859 18.75C12.7275 18.9823 13.075 19.2902 13.4871 19.7083C13.612 19.8341 13.7369 19.96 13.8656 20.0897C13.9945 20.2212 14.1234 20.3528 14.2562 20.4883C14.3875 20.621 14.5188 20.7537 14.6541 20.8905C14.9779 21.218 15.301 21.5462 15.6234 21.875C15.3256 22.5419 14.8622 22.908 14.305 23.3594C9.16707 27.6657 5.88319 34.3247 5.18564 40.9714C4.84087 45.8054 5.41072 50.3255 7.29146 54.8126C7.55084 55.4393 7.76298 56.0723 7.96712 56.7188C7.58309 56.3733 7.38185 56.0583 7.17794 55.5853C7.09221 55.3873 7.09221 55.3873 7.00475 55.1853C6.91555 54.9727 6.91555 54.9727 6.82454 54.7559C6.76246 54.6085 6.70037 54.4611 6.6364 54.3093C4.86676 50.0486 3.99234 45.687 4.01204 41.0742C4.01238 40.9324 4.01272 40.7907 4.01306 40.6446C4.02096 38.5738 4.07671 36.5596 4.52962 34.5312C4.5615 34.3836 4.59337 34.2359 4.62621 34.0838C5.817 28.6767 8.09947 23.8503 11.5609 19.5312C11.6787 19.3838 11.7965 19.2364 11.9179 19.0845C12.0064 18.9741 12.0948 18.8637 12.1859 18.75Z" fill="#FFB228"/>
</svg>
