<svg width="80" height="80" viewBox="0 0 80 80" fill="none" xmlns="http://www.w3.org/2000/svg">
<path d="M50.4539 23.6168C50.8313 23.9659 51.1968 24.3255 51.562 24.6874C51.7378 24.8518 51.7378 24.8518 51.9172 25.0194C54.5887 27.5579 55.8803 31.1164 56.4057 34.6874C56.4057 34.8421 56.4057 34.9968 56.4057 35.1562C56.5592 35.1548 56.7127 35.1534 56.8708 35.152C58.3213 35.1392 59.7717 35.1299 61.2222 35.1238C61.9679 35.1205 62.7135 35.1161 63.4591 35.109C64.1794 35.1022 64.8997 35.0985 65.62 35.0969C65.894 35.0957 66.1681 35.0935 66.4421 35.0901C68.3863 35.067 69.8112 35.2007 71.2824 36.5752C72.4508 37.8278 72.7038 39.198 72.6965 40.8612C72.697 41.006 72.6976 41.1508 72.6983 41.3C72.6999 41.7827 72.6993 42.2653 72.6986 42.7479C72.6993 43.095 72.7001 43.4421 72.701 43.7892C72.7031 44.7303 72.7032 45.6713 72.7028 46.6124C72.7027 47.3987 72.7034 48.1849 72.7042 48.9712C72.706 50.9326 72.7059 52.8939 72.7049 54.8553C72.7041 56.5562 72.7058 58.2571 72.7088 59.9579C72.7118 61.707 72.7131 63.4561 72.7125 65.2052C72.7122 66.1861 72.7127 67.1671 72.7148 68.148C72.7168 69.0706 72.7165 69.9932 72.7145 70.9159C72.7141 71.2539 72.7145 71.5918 72.7158 71.9298C72.7174 72.3925 72.7162 72.855 72.7142 73.3176C72.7153 73.4502 72.7165 73.5828 72.7177 73.7195C72.7042 75.2246 72.3177 76.5655 71.2531 77.6617C69.7904 79.0465 68.5213 79.1317 66.5701 79.123C66.3315 79.1236 66.093 79.1245 65.8544 79.1255C65.2008 79.1278 64.5472 79.1271 63.8936 79.126C63.188 79.1252 62.4823 79.1272 61.7767 79.1288C60.395 79.1315 59.0134 79.1316 57.6317 79.1308C56.5087 79.1302 55.3856 79.1304 54.2626 79.1312C54.0228 79.1314 54.0228 79.1314 53.7781 79.1316C53.4533 79.1318 53.1286 79.1321 52.8038 79.1323C49.7584 79.1344 46.7131 79.1336 43.6678 79.1318C40.8822 79.1302 38.0966 79.1323 35.3109 79.136C32.45 79.1398 29.5891 79.1413 26.7282 79.1403C25.1222 79.1397 23.5163 79.1401 21.9103 79.1428C20.5433 79.1451 19.1763 79.1452 17.8092 79.1425C17.1119 79.1412 16.4146 79.1408 15.7173 79.1432C15.0786 79.1454 14.4399 79.1446 13.8012 79.1416C13.5705 79.141 13.3398 79.1415 13.1091 79.1431C11.3001 79.155 10.0534 78.8923 8.71651 77.6433C7.54809 76.3907 7.29511 75.0206 7.30248 73.3573C7.30188 73.2125 7.30129 73.0677 7.30067 72.9185C7.29907 72.4359 7.29968 71.9533 7.3003 71.4706C7.29962 71.1235 7.29881 70.7764 7.29788 70.4294C7.29579 69.4883 7.2957 68.5473 7.29609 67.6062C7.29626 66.8199 7.2955 66.0336 7.29475 65.2473C7.29292 63.286 7.29305 61.3246 7.29405 59.3633C7.29486 57.6624 7.2931 55.9615 7.29013 54.2606C7.2871 52.5115 7.28586 50.7624 7.2864 49.0133C7.28668 48.0324 7.28627 47.0515 7.2841 46.0706C7.28213 45.1479 7.28244 44.2253 7.28448 43.3027C7.28485 42.9647 7.28442 42.6267 7.28313 42.2887C7.28149 41.8261 7.28276 41.3636 7.28474 40.9009C7.28301 40.702 7.28301 40.702 7.28125 40.4991C7.29471 38.994 7.68121 37.6531 8.7458 36.5569C9.85184 35.5098 10.8749 35.0803 12.3826 35.1029C12.5047 35.1029 12.6268 35.1028 12.7526 35.1027C13.1517 35.1031 13.5506 35.1067 13.9497 35.1104C14.2281 35.1113 14.5066 35.1119 14.7851 35.1124C15.5146 35.1142 16.2441 35.1188 16.9736 35.124C17.7193 35.1288 18.4651 35.1309 19.2109 35.1333C20.6717 35.1383 22.1324 35.1463 23.5932 35.1562C23.6033 35.0166 23.6134 34.877 23.6238 34.7331C23.6374 34.5501 23.6509 34.367 23.6649 34.1784C23.6782 33.997 23.6916 33.8155 23.7053 33.6285C23.9414 30.9373 25.3094 28.1439 27.0307 26.0937C27.1415 25.9613 27.2523 25.829 27.3664 25.6927C30.3975 22.2096 34.3597 20.2525 38.9423 19.8833C43.0135 19.627 47.3721 20.8758 50.4539 23.6168Z" fill="#161A3F"/>
<path d="M9.84375 60C29.7469 60 49.65 60 70.1562 60C70.1562 74.5312 70.1562 74.5312 69.5312 75.7812C68.8379 76.425 68.4448 76.5819 67.5119 76.5848C67.2141 76.5863 67.2141 76.5863 66.9103 76.5878C66.6879 76.5881 66.4656 76.5884 66.2432 76.5886C66.0086 76.5895 65.774 76.5904 65.5393 76.5914C64.8922 76.5939 64.2451 76.5954 63.598 76.5967C63.0435 76.5979 62.489 76.5997 61.9345 76.6016C59.9481 76.6081 57.9617 76.6124 55.9753 76.6162C55.8186 76.6165 55.6619 76.6168 55.5004 76.6171C52.3899 76.6233 49.2793 76.6285 46.1687 76.632C45.4846 76.6328 44.8004 76.6336 44.1162 76.6344C43.9462 76.6346 43.7761 76.6348 43.6009 76.635C40.8459 76.6383 38.0909 76.646 35.3359 76.6553C32.5088 76.6649 29.6816 76.6703 26.8544 76.6718C25.2665 76.6727 23.6787 76.6755 22.0908 76.6829C20.7385 76.6893 19.3862 76.6919 18.0339 76.6897C17.3438 76.6887 16.6539 76.6894 15.9639 76.695C15.3319 76.7 14.7002 76.7 14.0682 76.696C13.8398 76.6954 13.6114 76.6967 13.383 76.7C11.4686 76.7262 11.4686 76.7262 10.6562 76.0659C10.14 75.5614 10.0951 75.2852 9.84375 74.5312C9.84375 69.7359 9.84375 64.9406 9.84375 60Z" fill="#FDFDFD"/>
<path d="M44.533 23.1251C44.6964 23.1835 44.8597 23.2419 45.028 23.3021C48.5497 24.6501 51.2708 27.3918 52.8392 30.7848C54.3588 34.3617 54.2634 38.1736 52.8767 41.775C51.5064 45.1602 48.7821 47.7791 45.4685 49.2491C42.0046 50.6551 38.1766 50.7932 34.6893 49.4071C31.055 47.8544 28.3924 45.0099 26.8768 41.4064C25.7887 38.4568 25.5405 34.6789 26.7205 31.7189C26.7625 31.6131 26.8044 31.5074 26.8476 31.3984C28.3382 27.7339 31.0713 24.9113 34.7259 23.3607C34.9217 23.2815 35.1179 23.2029 35.3143 23.1251C35.4826 23.057 35.651 22.9889 35.8245 22.9188C38.4699 22.039 41.9389 22.1165 44.533 23.1251Z" fill="#FDFDFD"/>
<path d="M10 48.2812C14.6621 48.2247 14.6621 48.2247 16.9705 48.2105C18.2173 48.2027 19.464 48.1928 20.7108 48.1751C21.6981 48.161 22.6854 48.152 23.6728 48.1489C24.1953 48.147 24.7173 48.142 25.2397 48.1325C25.8244 48.1222 26.4085 48.1209 26.9933 48.1215C27.2501 48.1139 27.2501 48.1139 27.512 48.1062C28.5097 48.1182 29.0194 48.2916 29.7675 48.9682C29.8879 49.0924 30.0083 49.2166 30.1323 49.3446C30.5991 49.8202 31.1144 50.1208 31.6992 50.4296C31.8061 50.4876 31.913 50.5457 32.0232 50.6055C33.5382 51.4146 35.0411 51.9749 36.7188 52.3437C36.9 52.392 36.9 52.392 37.085 52.4413C39.0265 52.92 41.1881 52.7432 43.125 52.3437C43.2728 52.3151 43.4207 52.2865 43.573 52.257C45.8607 51.7548 48.5838 50.7269 50.2253 48.9788C50.7622 48.4225 51.1671 48.2165 51.943 48.1684C52.2798 48.1657 52.6167 48.1682 52.9535 48.1747C53.138 48.1746 53.3226 48.1745 53.5127 48.1743C54.016 48.1749 54.5191 48.1795 55.0224 48.1861C55.5493 48.192 56.0763 48.1925 56.6033 48.1936C57.5999 48.1965 58.5964 48.2042 59.593 48.2136C60.8396 48.2252 62.0862 48.2303 63.3328 48.2354C65.5553 48.2445 67.7775 48.2633 70 48.2812C70 51.3749 70 54.4687 70 57.6562C50.2 57.6562 30.4 57.6562 10 57.6562C10 54.5624 10 51.4687 10 48.2812Z" fill="#FBAA00"/>
<path d="M40.6243 28.4376C41.3277 29.1424 41.7134 30.0838 42.1478 30.9669C42.2269 31.1247 42.3061 31.2825 42.3876 31.4451C42.9681 32.6146 42.9681 32.6146 42.9681 32.9688C43.0857 32.9765 43.2033 32.9841 43.3245 32.992C43.8833 33.0313 44.4412 33.0774 44.9993 33.1251C45.1071 33.1335 45.2148 33.1419 45.3258 33.1505C45.6569 33.1775 45.9872 33.2093 46.3177 33.2422C46.5205 33.2608 46.7233 33.2793 46.9323 33.2984C47.6455 33.4734 47.9234 33.7015 48.4368 34.2188C48.5638 34.6583 48.5638 34.6583 48.4368 35.1563C47.9926 35.8362 47.3862 36.3715 46.7779 36.9013C45.653 37.8442 45.653 37.8442 45.0384 39.1205C45.0788 39.6466 45.1756 40.1157 45.3118 40.6251C45.37 40.9534 45.4254 41.2821 45.4779 41.6114C45.504 41.7641 45.5302 41.9167 45.5572 42.074C45.784 43.513 45.784 43.513 45.3021 44.2286C44.8175 44.5482 44.6469 44.579 44.0904 44.4805C43.1523 44.1906 42.2996 43.6245 41.4483 43.1452C41.2936 43.0608 41.1389 42.9764 40.9796 42.8895C40.8401 42.8111 40.7005 42.7327 40.5568 42.652C39.9587 42.4255 39.5918 42.5596 39.023 42.8125C38.9067 42.8752 38.7904 42.9378 38.6706 43.0024C38.542 43.071 38.4134 43.1395 38.2809 43.2102C38.1487 43.282 38.0164 43.3538 37.8802 43.4278C37.6163 43.5692 37.3525 43.7106 37.0886 43.852C36.9724 43.9148 36.8563 43.9776 36.7367 44.0424C35.5994 44.6484 35.5994 44.6484 34.9993 44.5313C34.6013 44.2025 34.4207 44.048 34.2181 43.5938C34.1895 42.7861 34.3769 41.9879 34.5745 41.2092C34.9726 39.6933 34.9726 39.6933 34.6472 38.2179C34.0423 37.4366 33.2905 36.8335 32.4993 36.2501C31.7347 35.6583 31.7347 35.6583 31.5618 35.3126C31.5087 34.7383 31.4776 34.3604 31.7767 33.8575C32.5909 33.3341 33.5235 33.2696 34.475 33.3015C35.3389 33.2969 36.1227 33.2762 36.8743 32.8126C37.7278 31.7485 38.2217 30.4352 38.6978 29.1688C39.1496 28.2585 39.6738 28.166 40.6243 28.4376Z" fill="#171C3F"/>
<path d="M56.25 37.6561C57.8228 37.6416 59.3957 37.6305 60.9686 37.6237C61.699 37.6205 62.4293 37.6161 63.1597 37.609C63.8648 37.6022 64.5699 37.5985 65.2751 37.5968C65.5438 37.5957 65.8126 37.5934 66.0813 37.5901C66.4584 37.5855 66.8352 37.5849 67.2123 37.5852C67.3782 37.5818 67.3782 37.5818 67.5474 37.5784C68.3324 37.5849 68.7682 37.7938 69.375 38.2811C71.2904 40.4036 70.1562 42.6735 70.1562 45.9374C64.5875 45.9374 59.0188 45.9374 53.2812 45.9374C53.4768 45.5463 53.6814 45.1595 53.8989 44.7802C54.5844 43.5709 55.1402 42.3796 55.5371 41.0448C55.5737 40.9219 55.6103 40.7991 55.648 40.6725C55.8455 39.9689 55.9881 39.2667 56.1054 38.5453C56.1327 38.3783 56.16 38.2112 56.1882 38.0391C56.2086 37.9127 56.229 37.7863 56.25 37.6561Z" fill="#FBFBFC"/>
<path d="M14.2133 37.5647C14.4884 37.5665 14.7636 37.5678 15.0388 37.5688C15.7604 37.5723 16.4819 37.5815 17.2034 37.5919C17.9408 37.6015 18.6782 37.6058 19.4156 37.6105C20.8605 37.6206 22.3052 37.6365 23.75 37.6563C23.7704 37.8168 23.7908 37.9773 23.8118 38.1426C23.8394 38.3555 23.867 38.5684 23.8946 38.7813C23.9146 38.9395 23.9146 38.9395 23.9351 39.1009C24.0388 39.8952 24.1976 40.6325 24.4629 41.3868C24.502 41.5018 24.5411 41.6168 24.5814 41.7353C24.9832 42.8613 25.533 43.8999 26.1163 44.9408C26.4062 45.4688 26.4062 45.4688 26.5625 45.9376C21.0453 45.9376 15.5281 45.9376 9.84375 45.9376C9.84375 38.9977 9.84375 38.9977 10.7132 38.0722C11.657 37.3188 13.0701 37.5434 14.2133 37.5647Z" fill="#FBFBFC"/>
<path d="M39.8438 32.3438C40.4575 32.9204 40.7593 33.641 41.1377 34.3854C41.38 34.8756 41.38 34.8756 41.875 35.1562C42.2085 35.2189 42.5443 35.2697 42.8809 35.3125C43.4967 35.391 43.993 35.4638 44.5312 35.7812C43.125 37.1875 43.125 37.1875 42.7698 37.5177C42.4564 37.8033 42.4564 37.8033 42.4414 38.2715C42.4924 39.1658 42.6639 40.0553 42.8125 40.9375C42.1981 40.7476 41.6624 40.5212 41.1035 40.2051C40.3894 39.848 40.0025 39.7387 39.2188 40C38.7596 40.2328 38.3122 40.4776 37.868 40.7379C37.5 40.9375 37.5 40.9375 37.1875 40.9375C37.2021 40.8479 37.2166 40.7583 37.2316 40.666C37.5337 38.9559 37.5337 38.9559 37.1671 37.3168C36.6871 36.7004 36.1032 36.2313 35.4688 35.7812C35.5203 35.6781 35.5719 35.575 35.625 35.4688C36.0085 35.4021 36.3812 35.3515 36.7676 35.3125C37.724 35.2236 37.724 35.2236 38.5938 34.8438C38.7894 34.5802 38.7894 34.5802 38.9282 34.2664C38.9826 34.1546 39.037 34.0428 39.093 33.9276C39.1474 33.811 39.2018 33.6944 39.2578 33.5742C39.3146 33.4564 39.3714 33.3386 39.4299 33.2172C39.5696 32.9268 39.7069 32.6354 39.8438 32.3438Z" fill="#F7CA0E"/>
<path d="M19.5303 6.56252C19.9711 7.05371 20.3053 7.57184 20.6234 8.14821C20.7097 8.30358 20.796 8.45894 20.8849 8.61902C21.0217 8.86755 21.0217 8.86755 21.1611 9.12111C21.3562 9.47271 21.5513 9.82428 21.7465 10.1758C21.8453 10.3543 21.9442 10.5327 22.0461 10.7166C22.5849 11.6854 23.1329 12.649 23.6803 13.6129C23.8346 13.8851 23.9883 14.1576 24.1416 14.4304C24.3064 14.7235 24.4726 15.0158 24.6397 15.3075C24.7255 15.4596 24.8112 15.6117 24.8995 15.7684C24.9777 15.9059 25.056 16.0433 25.1365 16.1848C25.3115 16.5625 25.3115 16.5625 25.3408 17.1778C25.1114 17.7694 24.9377 17.9872 24.374 18.2813C23.8271 18.3008 23.8271 18.3008 23.2803 18.125C22.4197 17.2704 21.9074 16.1649 21.3369 15.1074C21.1718 14.8041 21.0063 14.501 20.8408 14.1979C20.7281 13.9915 20.6155 13.785 20.5031 13.5784C19.8433 12.3673 19.1665 11.1659 18.49 9.96412C18.3626 9.73747 18.3626 9.73747 18.2327 9.50624C18.1586 9.3747 18.0845 9.24317 18.0081 9.10764C17.9433 8.98963 17.8784 8.87161 17.8115 8.75002C17.7507 8.64277 17.6898 8.53553 17.6271 8.42504C17.4171 7.93306 17.5352 7.53906 17.6553 7.03127C18.1554 6.34925 18.7571 6.34161 19.5303 6.56252Z" fill="#13183D"/>
<path d="M61.4154 6.19686C61.7188 6.24996 61.7188 6.24996 62.1094 6.48434C62.443 7.04035 62.4567 7.50194 62.3438 8.12496C62.0647 8.79961 61.7089 9.42493 61.3477 10.0586C61.1963 10.3314 61.0449 10.6042 60.8935 10.877C60.6497 11.3149 60.4025 11.7509 60.1562 12.1875C60.008 12.455 59.86 12.7227 59.7125 12.9907C59.403 13.5529 59.0904 14.1133 58.7764 14.673C58.5835 15.0183 58.3926 15.3646 58.2019 15.711C58.0754 15.9395 57.9488 16.168 57.8223 16.3964C57.7651 16.501 57.7079 16.6056 57.649 16.7133C57.1067 17.6874 57.1067 17.6874 56.7188 17.9687C56.0858 18.029 55.6683 18.0557 55.0879 17.8027C54.7119 17.3365 54.7046 17.0045 54.6875 16.4062C54.869 15.8782 55.1359 15.4069 55.4102 14.9218C55.4875 14.7799 55.5648 14.6379 55.6445 14.4917C55.8951 14.0342 56.1501 13.5794 56.4062 13.125C56.4908 12.9738 56.5754 12.8227 56.6625 12.667C57.0864 11.9098 57.5135 11.1545 57.9437 10.401C58.2664 9.83508 58.5843 9.26704 58.8971 8.69564C58.9682 8.56597 59.0393 8.43629 59.1125 8.30269C59.2445 8.06117 59.3759 7.81931 59.5066 7.57706C60.2908 6.14509 60.2908 6.14509 61.4154 6.19686Z" fill="#13183D"/>
<path d="M40.156 0.859375C40.2591 0.857764 40.3622 0.856152 40.4685 0.854492C40.9346 0.97829 41.1086 1.1849 41.406 1.5625C41.4854 2.07834 41.4854 2.07834 41.4869 2.69928C41.488 2.81267 41.4891 2.92605 41.4902 3.04288C41.4929 3.41699 41.4911 3.79092 41.489 4.16504C41.4894 4.42539 41.49 4.68573 41.4908 4.94608C41.4917 5.49145 41.4904 6.03675 41.4875 6.58211C41.4839 7.28096 41.486 7.97965 41.4897 8.67849C41.492 9.21602 41.4912 9.75351 41.4896 10.291C41.4892 10.5487 41.4897 10.8064 41.4912 11.064C41.4928 11.4242 41.4903 11.7842 41.4869 12.1445C41.4861 12.4518 41.4861 12.4518 41.4854 12.7654C41.3935 13.3626 41.257 13.5472 40.781 13.9062C40.4685 13.9893 40.4685 13.9893 40.156 13.9844C40.0529 13.986 39.9497 13.9876 39.8435 13.9893C39.3774 13.8655 39.2034 13.6589 38.906 13.2812C38.8266 12.7654 38.8266 12.7654 38.8251 12.1445C38.824 12.0311 38.8229 11.9177 38.8218 11.8009C38.8191 11.4268 38.8209 11.0528 38.823 10.6787C38.8226 10.4184 38.822 10.158 38.8212 9.89767C38.8203 9.3523 38.8216 8.807 38.8245 8.26164C38.8281 7.56279 38.826 6.8641 38.8223 6.16526C38.82 5.62773 38.8207 5.09024 38.8224 4.55272C38.8228 4.29506 38.8223 4.0374 38.8208 3.77974C38.8192 3.4195 38.8216 3.0595 38.8251 2.69928C38.8256 2.49437 38.8261 2.28946 38.8266 2.07834C38.9464 1.30013 39.3465 0.846727 40.156 0.859375Z" fill="#13183E"/>
<path d="M15.6815 68.0441C15.8828 68.0421 16.0841 68.0401 16.2915 68.0381C16.5106 68.0392 16.7298 68.0405 16.9489 68.0419C17.1743 68.0415 17.3996 68.0409 17.6249 68.0401C18.0967 68.0392 18.5684 68.0405 19.0402 68.0434C19.6445 68.047 20.2486 68.045 20.8529 68.0412C21.318 68.039 21.7831 68.0397 22.2483 68.0413C22.471 68.0417 22.6938 68.0412 22.9166 68.0397C23.2281 68.0382 23.5396 68.041 23.8511 68.0441C24.0283 68.0446 24.2054 68.0451 24.3879 68.0456C24.9475 68.1428 25.1326 68.2992 25.4694 68.7499C25.5559 69.355 25.5862 69.6875 25.2141 70.1853C24.7335 70.5537 24.4531 70.5479 23.8511 70.5495C23.6498 70.5515 23.4486 70.5535 23.2412 70.5555C23.022 70.5544 22.8029 70.5531 22.5837 70.5517C22.3584 70.5521 22.1331 70.5527 21.9078 70.5535C21.436 70.5544 20.9642 70.5531 20.4924 70.5502C19.8881 70.5466 19.284 70.5486 18.6798 70.5524C18.2146 70.5547 17.7495 70.5539 17.2844 70.5523C17.0616 70.5519 16.8388 70.5524 16.6161 70.5539C16.3046 70.5555 15.993 70.5526 15.6815 70.5495C15.5044 70.5491 15.3272 70.5486 15.1447 70.548C14.5851 70.4508 14.4 70.2944 14.0632 69.8437C13.9768 69.2386 13.9464 68.9062 14.3185 68.4083C14.7991 68.0399 15.0795 68.0457 15.6815 68.0441Z" fill="#14193E"/>
</svg>
