<svg width="32" height="32" viewBox="0 0 32 32" fill="none" xmlns="http://www.w3.org/2000/svg">
<path d="M10.6666 18.6667H13.3333V16C13.3333 15.6222 13.461 15.3056 13.7166 15.05C13.9721 14.7944 14.2888 14.6667 14.6666 14.6667H17.3333V17.3333L21.3333 13.3333L17.3333 9.33333V12H14.6666C13.5555 12 12.611 12.3889 11.8333 13.1667C11.0555 13.9444 10.6666 14.8889 10.6666 16V18.6667ZM5.33325 24C4.59992 24 3.97214 23.7389 3.44992 23.2167C2.9277 22.6944 2.66659 22.0667 2.66659 21.3333V6.66667C2.66659 5.93333 2.9277 5.30556 3.44992 4.78333C3.97214 4.26111 4.59992 4 5.33325 4H26.6666C27.3999 4 28.0277 4.26111 28.5499 4.78333C29.0721 5.30556 29.3333 5.93333 29.3333 6.66667V21.3333C29.3333 22.0667 29.0721 22.6944 28.5499 23.2167C28.0277 23.7389 27.3999 24 26.6666 24H5.33325ZM5.33325 21.3333H26.6666V6.66667H5.33325V21.3333ZM1.33325 28V25.3333H30.6666V28H1.33325Z" fill="#0A3254"/>
</svg>
