<?xml version="1.0" encoding="utf-8"?>
<!-- Generator: Adobe Illustrator 27.2.0, SVG Export Plug-In . SVG Version: 6.00 Build 0)  -->
<svg version="1.1" id="Layer_1" xmlns="http://www.w3.org/2000/svg" xmlns:xlink="http://www.w3.org/1999/xlink" x="0px" y="0px"
	 viewBox="0 0 566.93 246.3" style="enable-background:new 0 0 566.93 246.3;" xml:space="preserve">
<style type="text/css">
	.st0{fill:#C3D600;}
	.st1{fill:#004831;}
	.st2{fill:#7B6A54;}
	.st3{fill:#398765;}
	.st4{fill-rule:evenodd;clip-rule:evenodd;fill:#C3D600;}
	.st5{fill-rule:evenodd;clip-rule:evenodd;fill:#004831;}
	.st6{fill-rule:evenodd;clip-rule:evenodd;fill:#00A54E;}
	.st7{fill-rule:evenodd;clip-rule:evenodd;fill:#D50057;}
	.st8{fill-rule:evenodd;clip-rule:evenodd;fill:#E6262B;}
	.st9{fill-rule:evenodd;clip-rule:evenodd;fill:#FFCA07;}
	.st10{fill-rule:evenodd;clip-rule:evenodd;fill:#F48020;}
	.st11{fill-rule:evenodd;clip-rule:evenodd;fill:#231F20;}
	.st12{fill-rule:evenodd;clip-rule:evenodd;fill:#9592C7;}
	.st13{fill-rule:evenodd;clip-rule:evenodd;fill:#28A6DE;}
	.st14{fill:#FFCA07;}
	.st15{fill-rule:evenodd;clip-rule:evenodd;fill:#BD272D;}
	.st16{fill-rule:evenodd;clip-rule:evenodd;fill:#9FCB3A;}
	.st17{fill-rule:evenodd;clip-rule:evenodd;fill:#853275;}
	.st18{fill:#00A54E;}
	.st19{fill:none;}
	.st20{fill:#28A6DE;}
	.st21{fill:#231F20;}
	.st22{fill:#9FCB3A;}
	.st23{fill:#BD272D;}
	.st24{fill:#D50057;}
	.st25{fill:#E6262B;}
	.st26{fill:#9592C7;}
</style>
<g>
	<g>
		<polygon class="st0" points="0,106.82 0,213.49 43.66,194.97 43.66,88.23 		"/>
		<polygon class="st0" points="98.65,18.54 98.65,125.3 142.35,106.82 142.35,0 		"/>
		<polygon class="st0" points="49.32,85.86 49.32,192.55 93,127.72 93,20.9 		"/>
	</g>
	<g>
		<g>
			<path class="st1" d="M222.7,54.31c0,8.42,2.78,16.26,16.32,27.34l5.55,4.58c10.77,8.91,13.76,13.49,13.76,21.39
				c0,7.63-5.73,15.39-16.67,15.39c-4.52,0-15.14-1.11-17.28-11.77c-0.32-1.64-0.32-3.28-0.32-4.37c0-0.67,0-2.25-1.8-2.25
				c-1.7,0-1.79,1.88-1.87,2.82l-0.12,1.46c-0.21,2.52-0.5,6.65-0.5,11.6c0,3.35,0.07,4.37,2.29,5.5l0,0
				c4.75,2.27,10.3,3.4,16.91,3.4c7.45,0,14.07-1.84,19.04-5.33c8-5.68,10.84-14.59,10.84-21.11c0-9.63-2.99-17.54-18.26-29.58
				l-3.44-2.72c-11.73-9.62-14.65-13.53-14.65-19.88c0-7.98,5.73-13.37,14.19-13.37c10.18,0,13.59,4.23,14.57,6.03
				c0.65,1.21,1.38,4.39,1.51,5.79c0.05,0.94,0.26,2.46,1.89,2.46c1.77,0,1.77-2.46,1.77-3.74c0-6.56,0.27-10.45,0.39-12.09
				l0.08-0.99c0-1.16-0.71-1.76-2.12-1.76c-0.85,0-1.74-0.04-4.09-0.59c-3.56-0.83-7.25-1.21-11.64-1.21
				C233.26,31.32,222.7,40.55,222.7,54.31z"/>
			<path class="st1" d="M372.67,33.84c0.03,0.1-32.5,74.9-32.68,75.25c-0.2-0.23-33.98-75.39-33.98-75.39
				c-0.47-1.13-1.11-2.36-2.51-2.36c-1.64,0-2.01,2.04-2.19,2.94c0,0.04-8.24,80.59-8.24,80.59c-0.4,4.3-0.77,8.34-3.74,8.97
				c-1.64,0.33-2.16,0.33-3.25,0.33c-1.16,0-2.04,0.63-2.04,1.47c0,0.75,0.36,1.96,2.79,1.96c2.01,0,5.61-0.17,7.05-0.23
				c1.5-0.07,1.93-0.07,1.93-0.07s1.48,0,2.84,0c1.37,0,5.46,0.23,8.38,0.3c0.98,0.05,2.9,0,2.9-1.96c0-0.84-0.83-1.5-1.84-1.5
				c-1.16,0-2.21-0.07-4.06-0.55c-1.34-0.27-2.29-1.52-2.29-2.96c0-2.11,0-4.26,0.12-6.19c0,0,4.2-54.22,4.31-54.22
				c-0.29,0,27.6,61.51,27.6,61.51c2.31,4.67,2.79,5.65,4.1,5.65c1.48,0,1.92-0.99,3.74-5.22c0.06-0.03,27.59-63.1,27.59-63.1
				l5.23,60.55c0.05,0.75,0.05,1.36,0.12,1.9c0.03,0.99,0.03,2.14-0.2,2.23c-0.99,0.37-1.17,1.04-1.17,1.63
				c0,1.56,1.75,1.94,3.94,2.08c4.44,0.25,16.67,0.16,19.13,0.16c3.02,0,3.26-1.51,3.26-1.96c0-0.45-0.15-1.47-1.77-1.47
				c-1.11,0-3.95,0-7.12-1.04c-4.41-1.58-5.12-8.26-5.55-12.28l-7.65-75.4c-0.12-1.73-0.37-4.11-2.27-4.11
				C373.68,31.34,373.03,32.91,372.67,33.84z"/>
			<path class="st1" d="M564.27,79.65c-2.43,0.05-6.67,0.23-9.21,0.3c-1.3,0.03-2.53,0.05-3.33,0.02c-2.42-0.1-6.57-0.18-10.4-0.18
				c-0.66,0-2.66,0-2.66,1.83c0,0.91,0.76,1.59,1.76,1.59c0.97,0,1.93-0.01,2.71,0.2c3.92,1.17,4.48,1.99,4.48,11.83v20.87
				c0,1.72-0.57,2.82-1.87,3.58c-2.68,1.68-8.32,2.45-12.42,2.45c-11.17,0-20.92-4.33-28.99-12.87
				c-4.06-4.29-11.74-16.8-11.74-33.43c0-13.25,4.07-24.67,10.89-30.54c8.09-6.94,16.14-7.9,23.63-7.9
				c13.77,0,23.03,4.94,25.81,9.52c1.88,3.26,2.21,7.02,2.27,7.76c0.1,1.04,0.25,2.61,1.63,2.61c1.87,0,1.87-2.07,1.87-3.43
				c0-8.89,0.42-13.14,0.64-15.42c0.09-0.9,0.15-1.53,0.15-2.02c0-0.64-0.27-1.75-2.17-1.95c-2.97-0.13-6.83-0.64-9-1.21
				c-3.18-0.73-10.91-2.11-17.48-2.11c-8.79,0-20.2,0.9-30.53,7.89c-12.05,8.23-19.25,23.59-19.25,41.09
				c0,16.73,7.39,29.64,13.71,35.61c9.35,8.87,22.05,13.38,37.75,13.38c7.06,0,17.18-1.48,24.41-5.66c1.8-1.14,1.87-1.88,1.87-7.35
				v-13.75c0-5.11,0-8.81,0.22-12.73c0.22-4.21,1.07-5.72,3.48-6.2c1.31-0.24,1.95-0.27,2.68-0.35c0.92-0.11,1.75-0.68,1.75-1.59
				C566.93,79.65,565.39,79.63,564.27,79.65z"/>
			<path class="st1" d="M419.22,117.81c-0.52,3.76-1.12,5.74-2.97,6.11c-1.34,0.3-2.65,0.47-3.51,0.47c-1.2,0-1.73,0.75-1.73,1.49
				c0,1.73,1.97,1.73,2.71,1.73c2.63,0,7.23-0.18,9.99-0.29c1.09-0.04,2.68-0.05,3.47-0.02c2.74,0.1,8.44,0.32,13.63,0.32
				c2.37,0,2.72-1.09,2.72-1.73c0-0.74-0.54-1.49-1.74-1.49c-1.04,0-3.66-0.24-5.41-0.49c-3-0.4-3.74-2.36-4.13-6.08
				c-0.61-5.1-0.61-15.02-0.61-26.51c0,0,0.03-9.76,0.11-10.77c4.63,0,15.69,0.04,18.41,0.36c3.37,0.43,5.18,2.31,5.75,3.9
				c0.4,1.21,0.54,2.65,0.66,3.79l0.04,0.37c0,1.13,0.63,1.86,1.61,1.86c1.61,0,1.61-1.93,1.61-3.08c0-0.84,0.25-5.75,0.49-8.15
				c0.23-2.5,0.55-4.23,0.76-5.37c0.14-0.76,0.22-1.21,0.22-1.56c0-1.51-0.86-1.73-1.37-1.73c-0.78,0-1.24,0.61-1.69,1.2l-0.27,0.35
				c-0.92,1.34-2.25,1.65-5.07,1.88c-1.69,0.12-21.22,0.32-21.22,0.32c-0.01-0.02-0.04-34.26-0.04-34.26c0-0.59,0.08-0.59,0.33-0.59
				l18.87,0.37c4.5,0.12,7.05,2.15,7.67,3.48c0.7,1.54,1.03,3.5,1.03,4.34c0,2.07,1.23,2.23,1.61,2.23c0.61,0,1.4-0.34,1.72-1.98
				c0.17-0.98,0.32-3.55,0.45-5.62c0.07-1.12,0.13-2.09,0.17-2.52c0.21-1.99,0.51-3.28,0.72-4.23c0.15-0.69,0.27-1.18,0.27-1.61
				c0-1.28-0.75-1.86-1.49-1.86c-0.47,0-0.86,0.22-1.24,0.43c-0.21,0.12-0.44,0.25-0.71,0.34c-0.78,0.26-2.18,0.32-3.81,0.39
				l-1.38,0.06c-2.23,0.1-18.41,0.04-26.19,0.01l-8.92-0.13c-2.71-0.13-5.98-0.13-8.86-0.13c-0.74,0-2.71,0-2.71,1.73
				c0,0.86,0.73,1.49,1.73,1.49c1.06,0,3.09,0.12,4.01,0.35c3.42,0.73,4.43,2.08,4.68,6.3c0.24,3.9,0.24,7.34,0.24,26.43v21.57
				C419.82,102.8,419.82,112.72,419.22,117.81z"/>
		</g>
		<g>
			<path class="st1" d="M237.03,190.04c-0.49,0-1.75-0.12-2.58-0.23c-1.39-0.19-1.74-1.1-1.92-2.85c-0.29-2.44-0.29-7.19-0.29-12.69
				v-10.33c0-9.14,0-10.79,0.12-12.66c0.11-2.02,0.54-2.71,1.86-2.95c0.66-0.11,0.98-0.16,1.35-0.16c0.51,0,0.9-0.33,0.9-0.79
				c0-0.9-1.03-0.9-1.37-0.9c-1.26,0-3.47,0.09-4.78,0.14c-0.52,0.02-0.89,0.04-0.97,0.04c-0.08,0-0.42-0.02-0.92-0.03
				c-1.26-0.05-3.61-0.14-5.01-0.14c-0.34,0-1.38,0-1.38,0.9c0,0.45,0.4,0.79,0.91,0.79c0.33,0,1.06,0.05,1.72,0.23
				c0.78,0.17,1.53,0.65,1.66,2.89c0.12,1.86,0.12,3.51,0.12,12.66v10.33c0,5.5,0,10.25-0.3,12.68c-0.24,1.77-0.51,2.69-1.37,2.87
				c-0.63,0.14-1.25,0.23-1.66,0.23c-0.62,0-0.91,0.39-0.91,0.78c0,0.9,1.04,0.9,1.38,0.9c1.26,0,3.47-0.09,4.78-0.14
				c0.51-0.02,0.88-0.04,0.97-0.04c0.06,0,0.31,0.01,0.69,0.02c1.31,0.05,4.05,0.15,6.53,0.15c1.24,0,1.38-0.63,1.38-0.9
				C237.93,190.44,237.65,190.04,237.03,190.04z"/>
			<path class="st1" d="M365.31,167.01c0.07,2.29-0.07,13.25-0.07,15.74c0,3.16,0,5.98,2.69,5.98c0.67,0,1.38-0.11,1.8-0.51
				c0.22-0.21,0.54-0.5,0.78-0.46c0.21,0.03,0.32,0.15,0.28,0.36c-0.24,1.19-3.55,3.91-6.44,4.02c-2.64,0.1-3.14-1.41-3.47-3
				c-0.11-0.55-0.34-1.08-0.94-1.08c-0.4,0-1.01,0.47-1.62,0.94c-2.62,2.02-5.92,3.16-8.87,3.16c-4.04,0-8.54-2.15-8.54-7.13
				c0-8,11.3-11.43,15.2-12.57c4.03-1.21,4.51-2.02,4.44-4.84c-0.16-5.78-3.22-8.07-6.31-8.07c-4.44,0-5.52,3.8-5.72,4.74
				c-0.47,2.02-0.94,4.44-3.56,4.44c-1.75,0-3.16-1.41-3.16-3.3c0-3.97,6.86-7.56,12.5-7.56
				C359.59,157.86,365.17,160.28,365.31,167.01z M360.06,185.03c0.34-0.81,0.47-1.08,0.47-9.01c0-1.35,0-2.49-1.41-2.49
				c-2.42,0-12.51,4.51-12.51,10.83c0,1.81,1.14,4.91,5.78,4.91C354.68,189.27,359.12,187.25,360.06,185.03z"/>
			<path class="st1" d="M262.03,190.74c0.03-0.26,0.24-0.66,0.96-0.71c0.46-0.03,1.66-0.15,2.31-0.26c0.65-0.11,1.04-0.48,1.29-1.11
				c0.58-1.46,0.55-2.79,0.55-13.7c0-6.43,0-8.94-1.42-11.11c-1.49-2.3-3.66-2.51-4.47-2.51c-2.17,0-5.01,1.15-6.91,3.05
				c-2.03,2.1-2.03,3.12-2.03,10.9c0,1.76-0.06,10.37,0.04,11.6c0.2,2.35,0.93,2.73,2.59,2.93c0.84,0.1,2.67-0.09,2.72,0.92
				c0.03,0.53-0.4,0.95-1.03,0.95c-0.63-0.01-4.81-0.15-6.38-0.14c-1.57,0-4.65,0.08-6.55,0.14c-1.35,0-1.29-0.85-1.29-0.92
				c0.02-0.92,1.37-0.79,2.39-0.86c2.35-0.16,2.11-1.43,2.45-2.38c0.54-1.56,0.51-10.61,0.51-12.98c0-10.97-0.07-12.67-3.05-12.67
				c-0.27,0-1.37,0.22-1.64,0.22c-0.27,0-0.68-0.07-0.68-0.61c0-0.54,0.43-0.7,2.39-1.1c1.08-0.27,6.77-1.96,6.98-1.96
				c0.68,0,0.68,0.27,0.68,2.98c0,0.95,0,1.49,0.47,1.49c0.47,0,0.34-0.34,2.78-2.03c2.43-1.69,5.08-2.44,7.58-2.44
				c4.88,0,6.91,2.64,7.59,4.54c0.95,2.64,0.95,3.79,0.95,14.29c0,2.03,0.01,8.17,0.36,9.99c0.24,1.63,1.6,2.66,3.38,2.74
				c1.26,0.06,1.67,0.22,1.68,0.84c0,1.01-1.23,0.93-2.18,0.86c-2.91-0.23-6.96-0.1-11.83,0C262.16,191.71,262,191.01,262.03,190.74
				z"/>
			<path class="st1" d="M457.48,173.89c-0.88,0-2.16,0-2.16,2.16c0,8.22,5.59,13.88,11.18,13.88c3.1,0,6.07-1.82,8.15-3.77
				c0.4-0.34,2-2.34,2.62-2.44c0.33-0.05,0.61,0.15,0.61,0.69c0,1.48-4.72,8.42-13.61,8.42c-9.43,0-14.76-7.48-14.76-17.25
				c0-11.19,6.94-17.12,14.29-17.12c10.45,0,13.41,11.05,13.41,13.88c0,1.21-0.68,1.55-2.02,1.55H457.48z M469.87,171.52
				c1.48,0,2.22-0.34,2.22-1.95c0-2.56-2.43-9.29-8.09-9.29c-6.27,0-8.22,8.28-8.22,9.76c0,1.48,1.14,1.48,1.75,1.48H469.87z"/>
			<g>
				<g>
					<path class="st1" d="M322.07,148.65c0-1.92,1.62-4.01,4.7-4.01c2.69,0,3.99,2.08,3.99,3.77c0,2-1.38,4.23-4.46,4.23
						C324.6,152.65,322.07,151.11,322.07,148.65z"/>
				</g>
				<path class="st1" d="M330.13,178.89c0,1.76-0.06,6.86,0.04,8.09c0.2,2.35,0.93,2.73,2.59,2.93c0.84,0.1,2.67-0.09,2.72,0.92
					c0.03,0.53-0.4,0.95-1.03,0.95c-0.64-0.01-4.81-0.15-6.38-0.14c-1.57,0-5.37,0.08-7.27,0.14c-1.36,0-1.29-0.85-1.29-0.92
					c0.02-0.92,1.37-0.79,2.39-0.86c2.35-0.16,2.39-1.4,2.6-2.45c0.32-1.62,0.37-10.07,0.37-12.44c0-10.97-0.07-13.1-3.05-13.1
					c-0.27,0-1.37,0.22-1.64,0.22c-0.27,0-0.68-0.07-0.68-0.61c0-0.54,0.43-0.7,2.39-1.1c1.08-0.27,7.49-1.96,7.7-1.96
					c0.68,0,0.68,0.27,0.68,2.98L330.13,178.89z"/>
			</g>
			<g>
				<g>
					<path class="st1" d="M523.39,148.65c0-1.92,1.62-4.01,4.7-4.01c2.69,0,3.99,2.08,3.99,3.77c0,2-1.38,4.23-4.46,4.23
						C525.92,152.65,523.39,151.11,523.39,148.65z"/>
				</g>
				<path class="st1" d="M531.45,178.89c0,1.76-0.06,6.86,0.04,8.09c0.2,2.35,0.93,2.73,2.59,2.93c0.84,0.1,2.67-0.09,2.72,0.92
					c0.03,0.53-0.4,0.95-1.03,0.95c-0.64-0.01-4.81-0.15-6.38-0.14c-1.57,0-5.37,0.08-7.27,0.14c-1.36,0-1.29-0.85-1.29-0.92
					c0.02-0.92,1.37-0.79,2.39-0.86c2.35-0.16,2.39-1.4,2.6-2.45c0.32-1.62,0.37-10.07,0.37-12.44c0-10.97-0.07-13.1-3.05-13.1
					c-0.27,0-1.37,0.22-1.64,0.22c-0.27,0-0.68-0.07-0.68-0.61c0-0.54,0.43-0.7,2.39-1.1c1.08-0.27,7.49-1.96,7.7-1.96
					c0.68,0,0.68,0.27,0.68,2.98L531.45,178.89z"/>
			</g>
			<path class="st1" d="M541.4,161.88c-1.06,0.04-1.79-0.29-1.83-1.17c-0.04-0.87,0.59-1.17,2.53-1.41c3.04-0.38,6.02-4.6,6.3-10.07
				c0.03-0.6,0.28-1.66,1.15-1.66c1.07,0,1.34,0.89,1.27,1.52c-0.28,2.87,0,8.63,0,8.63c0,0.6,0.31,1.51,1.67,1.67
				c1.9,0.22,7.29,0,7.29,0c0.67,0,1.67,0.3,1.67,1.24c0,0.62-0.43,1.36-1.47,1.28c-1.97-0.15-7.49,0-7.49,0
				c-0.2,0-1.27,0.07-1.59,1.33c-0.19,0.76-0.22,7.38-0.22,8.72c0,2,0,12.7,0.2,13.64c0.87,3.74,3.94,3.74,4.61,3.74
				c1.4,0,2.91-0.7,4.38-1.84c0.4-0.27,1.88-1.88,2.5-1.64c0.25,0.1,0.4,0.27,0.4,0.53c0,1.2-4.14,5.82-9.76,5.82
				c-7.02,0-7.38-5.28-7.38-12.03c0-0.2,0.13-14.09,0-16.37c0-0.33,0.09-1.47-1.52-1.88C544.13,161.94,543.05,161.83,541.4,161.88z"
				/>
			<path class="st1" d="M384.23,152.63c-4.43,5.08-5.89,11.84-5.74,16.51c0.19,7.43,2.61,13.33,7.2,17.52
				c4.67,4.29,10.53,6.16,18.47,5.96c3.27-0.08,7.59-0.58,9.95-1.66c1.09-0.56,1.27-0.78,1.62-2c0.49-2.07,0.99-7.23,0.98-7.66
				c-0.03-1.19-0.59-1.3-0.85-1.3c-0.74,0.01-0.8,0.77-0.93,1.26c-0.24,1.13-0.74,3.55-1.78,4.79c-2.02,2.38-5.09,2.94-9.08,3.04
				c-5.37,0.14-10.35-1.99-14.08-6c-3.51-3.84-5.6-9.15-5.75-14.58c-0.14-5.01,0.27-10.73,4.38-15.2c2.59-2.89,6.55-4.36,12.12-4.49
				c4.88-0.13,8.98,1.43,10.7,2.94c1.33,1.15,2.08,3.17,2.33,5.63c0.05,0.7,0.05,1.65,0.88,1.63c0.84-0.02,0.87-1,0.87-1.66v-2.06
				c0-1.27,0-2.86,0-3.99c0.04-1.29,0.11-2.05,0.15-2.55l0.05-0.78c-0.01-0.64-0.37-0.97-1.14-1.03c-1.65-0.06-3.35-0.36-5.3-0.69
				l-0.22-0.04c-3.27-0.55-6.7-0.54-8.01-0.49C393.62,145.94,388.14,148.19,384.23,152.63z"/>
			<path class="st1" d="M426.56,165.49c-0.28-3.31-1.19-3.3-2.32-3.22c-1.61,0.12-2.51,0.56-2.98,0.56c-0.41,0-0.68-0.34-0.68-0.68
				c0-0.55,0.15-0.7,3.17-1.47c2.04-0.5,7.03-2.28,7.37-2.28c0.2,0,0.27,0.07,0.34,0.21v3c0,3.61-0.11,3.9,0.57,3.9
				c0.34,0,0.48-0.14,1.43-1.36c0.55-0.75,4.75-5.74,9.72-5.74c2.52,0,4.02,1.57,4.02,3.88c0,2.25-1.77,3.61-3.4,3.61
				c-1.43,0-2.11-0.75-2.66-1.43c-0.41-0.41-1.02-1.16-1.97-1.16c-1.7,0-4.49,2.04-5.79,4.42c-1.63,2.93-2.04,4.53-2.04,14.61
				c0,0.73,0.03,4.08,0.21,5.13c0.18,1.05,0.39,2.05,1.86,2.32c1.47,0.27,1.63-0.03,2.71,0.32c1.08,0.36,0.63,1.26,0.27,1.47
				c-0.51,0.3-1.53,0.2-2.73,0.13c-1.21-0.07-3.74-0.06-5.39-0.07c-1.65-0.02-4.82,0.12-5.3,0.12c-0.48,0-1.39-0.02-1.49-0.8
				c-0.11-0.78,0.85-0.92,1.58-0.95c1.13-0.06,2.17,0.08,2.78-0.87c0.78-1.19,0.8-5.25,0.82-5.75
				C426.84,178.96,426.78,168.96,426.56,165.49z"/>
			<path class="st1" d="M512,188.97c0.74,0.4,1.66,0.76,3.04,0.93c1.1,0.14,1.21,0.48,1.19,0.87c-0.02,0.38-0.33,0.85-1.32,0.83
				c-0.99-0.02-3.66-0.16-4.6-0.19c-0.93-0.03-2.09,0.1-3.12,0.17c-0.68,0.07-1.2-0.2-1.26-0.93c-0.13-0.87-0.12-1.28-0.51-1.28
				c-0.4,0-1.95,1.48-2.34,1.68c-2.53,1.6-5.05,1.8-6.45,1.8c-9.58,0-13.04-8.98-13.04-17.03c0-12.7,8.25-16.89,13.83-16.89
				c0.73,0,2.06,0.15,3.51,0.58c1.8,0.53,3.34,1.82,4.07,1.82c0.8,0,0.87-1,0.87-1.6c0-0.8,0.07-4.99,0.07-5.92
				c0-2.93,0-5.89-4.19-5.89c-0.33,0-1.79,0.2-1.93,0.2c-0.26,0-0.66-0.2-0.66-0.53c0-0.6,0.33-0.67,3.06-1.53
				c0.87-0.27,7.38-2.33,7.78-2.33c0.13,0,0.33,0,0.53,0.33c0.2,0.27,0.2,4.46,0.2,5.19c0,4.92-0.13,28.61-0.13,34.07
				C510.48,187.51,511.06,188.47,512,188.97z M505.61,184.2c0.26-1.46,0.26-8.45,0.26-12.64c0-3.72,0-5.25-1.53-7.18
				c-1.06-1.4-2.73-2.59-5.25-2.59c-5.19,0-9.91,5.39-9.91,14.7c0,6.92,2.79,13.5,8.91,13.5
				C500.36,189.98,504.81,188.79,505.61,184.2z"/>
			<path class="st1" d="M310.68,188.97c0.74,0.4,1.66,0.76,3.04,0.93c1.1,0.14,1.21,0.48,1.19,0.87s-0.33,0.85-1.32,0.83
				s-3.66-0.16-4.6-0.19c-0.93-0.03-2.09,0.1-3.12,0.17c-0.68,0.07-1.2-0.2-1.26-0.93c-0.13-0.87-0.12-1.28-0.52-1.28
				s-1.95,1.48-2.34,1.68c-2.53,1.6-5.05,1.8-6.45,1.8c-9.58,0-13.04-8.98-13.04-17.03c0-12.7,8.25-16.89,13.83-16.89
				c0.73,0,2.06,0.15,3.51,0.58c1.8,0.53,3.34,1.82,4.07,1.82c0.8,0,0.87-1,0.87-1.6c0-0.8,0.07-4.99,0.07-5.92
				c0-2.93,0-5.89-4.19-5.89c-0.33,0-1.79,0.2-1.93,0.2c-0.26,0-0.66-0.2-0.66-0.53c0-0.6,0.33-0.67,3.06-1.53
				c0.87-0.27,7.38-2.33,7.78-2.33c0.13,0,0.33,0,0.53,0.33c0.2,0.27,0.2,4.46,0.2,5.19c0,4.92-0.13,28.61-0.13,34.07
				C309.16,187.51,309.73,188.47,310.68,188.97z M304.29,184.2c0.26-1.46,0.26-8.45,0.26-12.64c0-3.72,0-5.25-1.53-7.18
				c-1.06-1.4-2.73-2.59-5.25-2.59c-5.19,0-9.91,5.39-9.91,14.7c0,6.92,2.79,13.5,8.91,13.5
				C299.03,189.98,303.49,188.79,304.29,184.2z"/>
		</g>
	</g>
	<g>
		<path class="st2" d="M224.27,219.23h9.28c1.49,0,2.71,0.22,3.65,0.65c0.94,0.43,1.67,0.97,2.18,1.62
			c0.51,0.65,0.86,1.36,1.05,2.12c0.19,0.77,0.28,1.47,0.28,2.12c0,0.65-0.09,1.35-0.28,2.11c-0.19,0.76-0.54,1.46-1.05,2.11
			c-0.51,0.65-1.24,1.18-2.18,1.61c-0.94,0.42-2.16,0.63-3.65,0.63h-5.6v8.07h-3.68V219.23z M227.95,229.19h5.39
			c0.41,0,0.83-0.06,1.27-0.18c0.43-0.12,0.83-0.31,1.19-0.57c0.36-0.27,0.66-0.62,0.88-1.06c0.23-0.44,0.34-1,0.34-1.67
			c0-0.69-0.1-1.26-0.29-1.71c-0.2-0.45-0.46-0.81-0.79-1.08c-0.33-0.26-0.72-0.45-1.15-0.54c-0.43-0.1-0.89-0.15-1.38-0.15h-5.45
			V229.19z"/>
		<path class="st2" d="M243.45,225.03h3.15v2.95h0.06c0.1-0.41,0.29-0.81,0.57-1.21c0.28-0.39,0.63-0.75,1.03-1.08
			c0.4-0.32,0.85-0.58,1.34-0.78c0.49-0.2,0.99-0.29,1.5-0.29c0.39,0,0.66,0.01,0.81,0.03s0.3,0.04,0.46,0.06v3.24
			c-0.24-0.04-0.48-0.07-0.72-0.1c-0.25-0.03-0.49-0.04-0.72-0.04c-0.57,0-1.1,0.11-1.6,0.34c-0.5,0.23-0.94,0.56-1.31,1
			c-0.37,0.44-0.67,0.99-0.88,1.64c-0.22,0.65-0.32,1.39-0.32,2.24v7.25h-3.36V225.03z"/>
		<path class="st2" d="M266.57,236.88c0,0.41,0.05,0.71,0.16,0.88c0.11,0.18,0.32,0.27,0.63,0.27c0.1,0,0.22,0,0.35,0
			c0.14,0,0.29-0.02,0.47-0.06v2.33c-0.12,0.04-0.27,0.08-0.46,0.13c-0.19,0.05-0.38,0.09-0.57,0.13c-0.2,0.04-0.39,0.07-0.59,0.09
			c-0.2,0.02-0.36,0.03-0.5,0.03c-0.69,0-1.26-0.14-1.71-0.41c-0.45-0.27-0.75-0.76-0.88-1.44c-0.67,0.65-1.49,1.12-2.46,1.41
			c-0.97,0.29-1.91,0.44-2.81,0.44c-0.69,0-1.34-0.09-1.97-0.28c-0.63-0.19-1.18-0.46-1.66-0.83s-0.86-0.82-1.15-1.38
			c-0.29-0.56-0.43-1.21-0.43-1.96c0-0.94,0.17-1.71,0.52-2.3s0.8-1.05,1.36-1.38c0.56-0.33,1.19-0.57,1.88-0.72s1.4-0.26,2.11-0.34
			c0.61-0.12,1.19-0.2,1.74-0.25c0.55-0.05,1.04-0.13,1.46-0.25c0.42-0.12,0.75-0.3,1-0.54c0.25-0.25,0.37-0.61,0.37-1.1
			c0-0.43-0.1-0.79-0.31-1.06c-0.21-0.28-0.46-0.49-0.77-0.63s-0.64-0.25-1.02-0.29c-0.37-0.05-0.73-0.07-1.06-0.07
			c-0.94,0-1.72,0.2-2.33,0.59c-0.61,0.39-0.95,1-1.03,1.83h-3.36c0.06-0.98,0.29-1.8,0.71-2.44c0.41-0.65,0.94-1.17,1.58-1.56
			c0.64-0.39,1.36-0.67,2.17-0.82c0.8-0.16,1.63-0.24,2.47-0.24c0.75,0,1.48,0.08,2.21,0.24s1.38,0.41,1.96,0.77s1.05,0.81,1.4,1.37
			c0.35,0.56,0.53,1.24,0.53,2.05V236.88z M263.21,232.63c-0.51,0.33-1.14,0.54-1.88,0.6c-0.75,0.07-1.49,0.17-2.24,0.31
			c-0.35,0.06-0.7,0.14-1.03,0.25c-0.33,0.11-0.63,0.26-0.88,0.44c-0.26,0.19-0.46,0.43-0.6,0.74s-0.22,0.67-0.22,1.1
			c0,0.37,0.11,0.69,0.32,0.94c0.22,0.26,0.48,0.46,0.78,0.6c0.3,0.15,0.64,0.25,1,0.31c0.36,0.06,0.69,0.09,0.99,0.09
			c0.37,0,0.78-0.05,1.21-0.15c0.43-0.1,0.84-0.27,1.22-0.5c0.38-0.24,0.7-0.54,0.96-0.9c0.25-0.36,0.38-0.81,0.38-1.34V232.63z"/>
		<path class="st2" d="M284.27,239.47c0,2.3-0.64,4.01-1.93,5.14c-1.29,1.13-3.14,1.69-5.55,1.69c-0.77,0-1.54-0.08-2.31-0.24
			s-1.48-0.42-2.12-0.79c-0.64-0.37-1.17-0.86-1.61-1.47c-0.43-0.61-0.69-1.36-0.77-2.24h3.36c0.1,0.47,0.26,0.85,0.5,1.15
			c0.24,0.29,0.52,0.52,0.84,0.69c0.32,0.17,0.68,0.28,1.08,0.32s0.81,0.07,1.24,0.07c1.36,0,2.35-0.33,2.98-1
			c0.63-0.67,0.94-1.63,0.94-2.89v-2.33h-0.06c-0.47,0.84-1.12,1.5-1.93,1.97c-0.82,0.47-1.69,0.71-2.64,0.71
			c-1.22,0-2.25-0.21-3.11-0.63c-0.85-0.42-1.56-1-2.12-1.74s-0.97-1.59-1.22-2.55c-0.26-0.96-0.38-1.99-0.38-3.09
			c0-1.02,0.16-1.99,0.47-2.92c0.31-0.92,0.77-1.73,1.36-2.43c0.59-0.7,1.31-1.25,2.17-1.66c0.85-0.41,1.82-0.62,2.9-0.62
			c0.96,0,1.84,0.2,2.65,0.6s1.42,1.04,1.86,1.9h0.06v-2.09h3.36V239.47z M276.82,237.61c0.75,0,1.38-0.15,1.9-0.46
			c0.52-0.3,0.94-0.71,1.27-1.21s0.56-1.07,0.71-1.71c0.15-0.64,0.22-1.28,0.22-1.93s-0.08-1.28-0.24-1.88
			c-0.16-0.61-0.4-1.15-0.72-1.62c-0.32-0.47-0.75-0.84-1.27-1.12c-0.52-0.27-1.14-0.41-1.87-0.41c-0.75,0-1.38,0.16-1.88,0.47
			c-0.51,0.31-0.92,0.72-1.24,1.22c-0.31,0.5-0.54,1.07-0.68,1.71c-0.14,0.64-0.21,1.27-0.21,1.9c0,0.63,0.08,1.24,0.24,1.84
			c0.16,0.6,0.4,1.13,0.72,1.61c0.32,0.47,0.74,0.85,1.24,1.15S276.11,237.61,276.82,237.61z"/>
		<path class="st2" d="M300.41,236.88c0,0.41,0.05,0.71,0.16,0.88c0.11,0.18,0.32,0.27,0.63,0.27c0.1,0,0.22,0,0.35,0
			c0.14,0,0.29-0.02,0.47-0.06v2.33c-0.12,0.04-0.27,0.08-0.46,0.13c-0.19,0.05-0.38,0.09-0.57,0.13c-0.2,0.04-0.39,0.07-0.59,0.09
			c-0.2,0.02-0.36,0.03-0.5,0.03c-0.69,0-1.26-0.14-1.71-0.41c-0.45-0.27-0.75-0.76-0.88-1.44c-0.67,0.65-1.49,1.12-2.46,1.41
			c-0.97,0.29-1.91,0.44-2.81,0.44c-0.69,0-1.34-0.09-1.97-0.28c-0.63-0.19-1.18-0.46-1.66-0.83s-0.86-0.82-1.15-1.38
			c-0.29-0.56-0.43-1.21-0.43-1.96c0-0.94,0.17-1.71,0.52-2.3s0.8-1.05,1.36-1.38c0.56-0.33,1.19-0.57,1.88-0.72s1.4-0.26,2.11-0.34
			c0.61-0.12,1.19-0.2,1.74-0.25c0.55-0.05,1.04-0.13,1.46-0.25c0.42-0.12,0.75-0.3,1-0.54c0.25-0.25,0.37-0.61,0.37-1.1
			c0-0.43-0.1-0.79-0.31-1.06c-0.21-0.28-0.46-0.49-0.77-0.63s-0.64-0.25-1.02-0.29c-0.37-0.05-0.73-0.07-1.06-0.07
			c-0.94,0-1.72,0.2-2.33,0.59c-0.61,0.39-0.95,1-1.03,1.83h-3.36c0.06-0.98,0.29-1.8,0.71-2.44c0.41-0.65,0.94-1.17,1.58-1.56
			c0.64-0.39,1.36-0.67,2.17-0.82c0.8-0.16,1.63-0.24,2.47-0.24c0.75,0,1.48,0.08,2.21,0.24s1.38,0.41,1.96,0.77s1.05,0.81,1.4,1.37
			c0.35,0.56,0.53,1.24,0.53,2.05V236.88z M297.05,232.63c-0.51,0.33-1.14,0.54-1.88,0.6c-0.75,0.07-1.49,0.17-2.24,0.31
			c-0.35,0.06-0.7,0.14-1.03,0.25c-0.33,0.11-0.63,0.26-0.88,0.44c-0.26,0.19-0.46,0.43-0.6,0.74s-0.22,0.67-0.22,1.1
			c0,0.37,0.11,0.69,0.32,0.94c0.22,0.26,0.48,0.46,0.78,0.6c0.3,0.15,0.64,0.25,1,0.31c0.36,0.06,0.69,0.09,0.99,0.09
			c0.37,0,0.78-0.05,1.21-0.15c0.43-0.1,0.84-0.27,1.22-0.5c0.38-0.24,0.7-0.54,0.96-0.9c0.25-0.36,0.38-0.81,0.38-1.34V232.63z"/>
		<path class="st2" d="M302.5,225.03h2.53v-4.57h3.36v4.57h3.04v2.5h-3.04v8.13c0,0.35,0.02,0.66,0.04,0.91s0.1,0.47,0.21,0.65
			c0.11,0.18,0.27,0.31,0.49,0.4c0.22,0.09,0.51,0.13,0.88,0.13c0.23,0,0.47,0,0.71-0.01c0.23-0.01,0.47-0.04,0.71-0.1v2.59
			c-0.38,0.04-0.74,0.08-1.09,0.12c-0.35,0.04-0.72,0.06-1.09,0.06c-0.88,0-1.6-0.08-2.14-0.25c-0.54-0.17-0.96-0.41-1.27-0.74
			c-0.3-0.32-0.51-0.73-0.62-1.22c-0.11-0.49-0.17-1.05-0.19-1.68v-8.98h-2.53V225.03z"/>
		<path class="st2" d="M313.93,219.23h3.36v3.18h-3.36V219.23z M313.93,225.03h3.36v15.23h-3.36V225.03z"/>
		<path class="st2" d="M329.6,219.23h3.68v9.57l9.37-9.57h4.54l-8.4,8.39l8.98,12.64h-4.59l-6.89-10.04l-3,2.98v7.07h-3.68V219.23z"
			/>
		<path class="st2" d="M349.4,219.23h3.36v3.18h-3.36V219.23z M349.4,225.03h3.36v15.23h-3.36V225.03z"/>
		<path class="st2" d="M364.92,219.23h3.89l9.6,15.49h0.06v-15.49h3.5v21.03h-3.89l-9.57-15.46h-0.09v15.46h-3.5V219.23z"/>
		<path class="st2" d="M398.62,236.88c0,0.41,0.05,0.71,0.16,0.88s0.32,0.27,0.63,0.27c0.1,0,0.22,0,0.35,0
			c0.14,0,0.29-0.02,0.47-0.06v2.33c-0.12,0.04-0.27,0.08-0.46,0.13c-0.19,0.05-0.38,0.09-0.57,0.13c-0.2,0.04-0.39,0.07-0.59,0.09
			s-0.36,0.03-0.5,0.03c-0.69,0-1.26-0.14-1.71-0.41c-0.45-0.27-0.75-0.76-0.88-1.44c-0.67,0.65-1.49,1.12-2.46,1.41
			c-0.97,0.29-1.91,0.44-2.81,0.44c-0.69,0-1.35-0.09-1.97-0.28c-0.63-0.19-1.18-0.46-1.66-0.83c-0.48-0.36-0.86-0.82-1.15-1.38
			c-0.29-0.56-0.43-1.21-0.43-1.96c0-0.94,0.17-1.71,0.52-2.3s0.79-1.05,1.36-1.38c0.56-0.33,1.19-0.57,1.88-0.72
			s1.4-0.26,2.11-0.34c0.61-0.12,1.19-0.2,1.74-0.25s1.04-0.13,1.46-0.25c0.42-0.12,0.76-0.3,1-0.54c0.25-0.25,0.37-0.61,0.37-1.1
			c0-0.43-0.1-0.79-0.31-1.06c-0.21-0.28-0.46-0.49-0.77-0.63c-0.3-0.15-0.64-0.25-1.02-0.29s-0.73-0.07-1.06-0.07
			c-0.94,0-1.72,0.2-2.33,0.59c-0.61,0.39-0.95,1-1.03,1.83h-3.36c0.06-0.98,0.29-1.8,0.71-2.44c0.41-0.65,0.94-1.17,1.58-1.56
			c0.64-0.39,1.36-0.67,2.17-0.82c0.8-0.16,1.63-0.24,2.47-0.24c0.75,0,1.48,0.08,2.21,0.24s1.38,0.41,1.96,0.77
			c0.58,0.35,1.04,0.81,1.4,1.37c0.35,0.56,0.53,1.24,0.53,2.05V236.88z M395.26,232.63c-0.51,0.33-1.14,0.54-1.89,0.6
			c-0.75,0.07-1.49,0.17-2.24,0.31c-0.35,0.06-0.7,0.14-1.03,0.25c-0.33,0.11-0.63,0.26-0.88,0.44s-0.46,0.43-0.6,0.74
			s-0.22,0.67-0.22,1.1c0,0.37,0.11,0.69,0.32,0.94c0.22,0.26,0.48,0.46,0.78,0.6c0.3,0.15,0.64,0.25,1,0.31s0.69,0.09,0.99,0.09
			c0.37,0,0.78-0.05,1.21-0.15c0.43-0.1,0.84-0.27,1.22-0.5s0.7-0.54,0.96-0.9c0.25-0.36,0.38-0.81,0.38-1.34V232.63z"/>
		<path class="st2" d="M400.56,225.03h3.68l3.98,11.37h0.06l3.86-11.37h3.5l-5.92,16.05c-0.28,0.69-0.54,1.34-0.81,1.97
			c-0.27,0.63-0.59,1.18-0.97,1.67c-0.38,0.48-0.86,0.86-1.43,1.15c-0.57,0.28-1.3,0.43-2.18,0.43c-0.79,0-1.56-0.06-2.33-0.18
			v-2.83c0.28,0.04,0.54,0.08,0.8,0.13c0.25,0.05,0.52,0.07,0.79,0.07c0.39,0,0.72-0.05,0.97-0.15c0.25-0.1,0.47-0.24,0.63-0.43
			c0.17-0.19,0.31-0.41,0.43-0.66c0.12-0.25,0.22-0.55,0.32-0.88l0.38-1.18L400.56,225.03z"/>
		<path class="st2" d="M417.62,219.23h3.36v3.18h-3.36V219.23z M417.62,225.03h3.36v15.23h-3.36V225.03z"/>
		<path class="st2" d="M433.29,219.23h9.28c1.49,0,2.71,0.22,3.65,0.65c0.94,0.43,1.67,0.97,2.18,1.62
			c0.51,0.65,0.86,1.36,1.05,2.12c0.19,0.77,0.28,1.47,0.28,2.12c0,0.65-0.09,1.35-0.28,2.11c-0.19,0.76-0.54,1.46-1.05,2.11
			s-1.24,1.18-2.18,1.61s-2.16,0.63-3.65,0.63h-5.6v8.07h-3.68V219.23z M436.97,229.19h5.39c0.41,0,0.83-0.06,1.27-0.18
			c0.43-0.12,0.83-0.31,1.19-0.57c0.36-0.27,0.66-0.62,0.88-1.06c0.23-0.44,0.34-1,0.34-1.67c0-0.69-0.1-1.26-0.29-1.71
			c-0.2-0.45-0.46-0.81-0.79-1.08c-0.33-0.26-0.72-0.45-1.15-0.54c-0.43-0.1-0.89-0.15-1.38-0.15h-5.45V229.19z"/>
		<path class="st2" d="M455.08,233.52c0,0.59,0.08,1.16,0.25,1.71c0.17,0.55,0.42,1.03,0.75,1.44s0.76,0.74,1.27,0.99
			c0.51,0.25,1.12,0.37,1.83,0.37c0.98,0,1.77-0.21,2.37-0.63c0.6-0.42,1.05-1.06,1.34-1.9h3.18c-0.18,0.82-0.48,1.56-0.91,2.21
			c-0.43,0.65-0.95,1.19-1.56,1.63c-0.61,0.44-1.29,0.78-2.05,1s-1.55,0.34-2.37,0.34c-1.2,0-2.26-0.2-3.18-0.59
			s-1.7-0.94-2.34-1.65c-0.64-0.71-1.12-1.55-1.44-2.53c-0.32-0.98-0.49-2.06-0.49-3.24c0-1.08,0.17-2.11,0.52-3.08
			c0.34-0.97,0.83-1.83,1.47-2.56c0.64-0.74,1.41-1.32,2.31-1.75c0.9-0.43,1.92-0.65,3.06-0.65c1.2,0,2.27,0.25,3.23,0.75
			c0.95,0.5,1.74,1.16,2.37,1.99c0.63,0.82,1.08,1.77,1.37,2.84c0.28,1.07,0.36,2.18,0.22,3.31H455.08z M462.92,231.31
			c-0.04-0.53-0.15-1.04-0.34-1.53c-0.19-0.49-0.44-0.92-0.77-1.28c-0.32-0.36-0.72-0.66-1.18-0.88c-0.46-0.23-0.98-0.34-1.55-0.34
			c-0.59,0-1.12,0.1-1.6,0.31c-0.48,0.21-0.89,0.49-1.24,0.85c-0.34,0.36-0.62,0.79-0.83,1.28s-0.32,1.02-0.34,1.59H462.92z"/>
		<path class="st2" d="M468.84,219.23h3.36v7.81h0.06c0.41-0.69,1.03-1.26,1.84-1.72c0.81-0.46,1.72-0.69,2.72-0.69
			c1.67,0,2.98,0.43,3.95,1.3c0.96,0.86,1.44,2.16,1.44,3.89v10.46h-3.36v-9.57c-0.04-1.2-0.29-2.07-0.77-2.61s-1.21-0.81-2.21-0.81
			c-0.57,0-1.08,0.1-1.53,0.31s-0.83,0.49-1.15,0.85c-0.31,0.36-0.56,0.79-0.74,1.28s-0.27,1.01-0.27,1.56v8.98h-3.36V219.23z"/>
		<path class="st2" d="M496.03,230.13c-0.14-0.94-0.52-1.65-1.13-2.14c-0.62-0.48-1.4-0.72-2.34-0.72c-0.43,0-0.89,0.07-1.38,0.22
			c-0.49,0.15-0.94,0.42-1.36,0.83c-0.41,0.4-0.76,0.96-1.03,1.68c-0.28,0.72-0.41,1.66-0.41,2.81c0,0.63,0.07,1.26,0.22,1.88
			c0.15,0.63,0.38,1.19,0.71,1.68c0.32,0.49,0.74,0.89,1.25,1.19c0.51,0.3,1.13,0.46,1.86,0.46c0.98,0,1.79-0.3,2.43-0.91
			c0.64-0.61,1.04-1.46,1.19-2.56h3.36c-0.31,1.98-1.07,3.5-2.25,4.55c-1.19,1.05-2.76,1.58-4.73,1.58c-1.2,0-2.25-0.2-3.17-0.6
			s-1.68-0.95-2.31-1.65c-0.63-0.7-1.1-1.53-1.43-2.49c-0.32-0.96-0.49-2-0.49-3.12c0-1.14,0.16-2.21,0.47-3.21s0.79-1.87,1.41-2.61
			c0.63-0.74,1.41-1.32,2.34-1.74c0.93-0.42,2.03-0.63,3.28-0.63c0.88,0,1.72,0.11,2.52,0.34c0.8,0.23,1.5,0.57,2.12,1.02
			c0.62,0.45,1.12,1.02,1.52,1.71c0.39,0.69,0.63,1.5,0.71,2.45H496.03z"/>
		<path class="st2" d="M502.13,219.23h3.36v7.81h0.06c0.41-0.69,1.03-1.26,1.84-1.72c0.81-0.46,1.72-0.69,2.72-0.69
			c1.67,0,2.98,0.43,3.95,1.3c0.96,0.86,1.44,2.16,1.44,3.89v10.46h-3.36v-9.57c-0.04-1.2-0.29-2.07-0.77-2.61s-1.21-0.81-2.21-0.81
			c-0.57,0-1.08,0.1-1.53,0.31s-0.83,0.49-1.15,0.85c-0.31,0.36-0.56,0.79-0.74,1.28s-0.27,1.01-0.27,1.56v8.98h-3.36V219.23z"/>
		<path class="st2" d="M531.79,236.88c0,0.41,0.05,0.71,0.16,0.88s0.32,0.27,0.63,0.27c0.1,0,0.22,0,0.35,0
			c0.14,0,0.29-0.02,0.47-0.06v2.33c-0.12,0.04-0.27,0.08-0.46,0.13c-0.19,0.05-0.38,0.09-0.57,0.13c-0.2,0.04-0.39,0.07-0.59,0.09
			s-0.36,0.03-0.5,0.03c-0.69,0-1.26-0.14-1.71-0.41c-0.45-0.27-0.75-0.76-0.88-1.44c-0.67,0.65-1.49,1.12-2.46,1.41
			c-0.97,0.29-1.91,0.44-2.81,0.44c-0.69,0-1.35-0.09-1.97-0.28c-0.63-0.19-1.18-0.46-1.66-0.83c-0.48-0.36-0.86-0.82-1.15-1.38
			c-0.29-0.56-0.43-1.21-0.43-1.96c0-0.94,0.17-1.71,0.52-2.3s0.79-1.05,1.36-1.38c0.56-0.33,1.19-0.57,1.88-0.72
			s1.4-0.26,2.11-0.34c0.61-0.12,1.19-0.2,1.74-0.25s1.04-0.13,1.46-0.25c0.42-0.12,0.76-0.3,1-0.54c0.25-0.25,0.37-0.61,0.37-1.1
			c0-0.43-0.1-0.79-0.31-1.06c-0.21-0.28-0.46-0.49-0.77-0.63c-0.3-0.15-0.64-0.25-1.02-0.29s-0.73-0.07-1.06-0.07
			c-0.94,0-1.72,0.2-2.33,0.59c-0.61,0.39-0.95,1-1.03,1.83h-3.36c0.06-0.98,0.29-1.8,0.71-2.44c0.41-0.65,0.94-1.17,1.58-1.56
			c0.64-0.39,1.36-0.67,2.17-0.82c0.8-0.16,1.63-0.24,2.47-0.24c0.75,0,1.48,0.08,2.21,0.24s1.38,0.41,1.96,0.77
			c0.58,0.35,1.04,0.81,1.4,1.37c0.35,0.56,0.53,1.24,0.53,2.05V236.88z M528.43,232.63c-0.51,0.33-1.14,0.54-1.89,0.6
			c-0.75,0.07-1.49,0.17-2.24,0.31c-0.35,0.06-0.7,0.14-1.03,0.25c-0.33,0.11-0.63,0.26-0.88,0.44s-0.46,0.43-0.6,0.74
			s-0.22,0.67-0.22,1.1c0,0.37,0.11,0.69,0.32,0.94c0.22,0.26,0.48,0.46,0.78,0.6c0.3,0.15,0.64,0.25,1,0.31s0.69,0.09,0.99,0.09
			c0.37,0,0.78-0.05,1.21-0.15c0.43-0.1,0.84-0.27,1.22-0.5s0.7-0.54,0.96-0.9c0.25-0.36,0.38-0.81,0.38-1.34V232.63z"/>
		<path class="st2" d="M548.17,236.88c0,0.41,0.05,0.71,0.16,0.88s0.32,0.27,0.63,0.27c0.1,0,0.22,0,0.35,0
			c0.14,0,0.29-0.02,0.47-0.06v2.33c-0.12,0.04-0.27,0.08-0.46,0.13c-0.19,0.05-0.38,0.09-0.57,0.13c-0.2,0.04-0.39,0.07-0.59,0.09
			s-0.36,0.03-0.5,0.03c-0.69,0-1.26-0.14-1.71-0.41c-0.45-0.27-0.75-0.76-0.88-1.44c-0.67,0.65-1.49,1.12-2.46,1.41
			c-0.97,0.29-1.91,0.44-2.81,0.44c-0.69,0-1.35-0.09-1.97-0.28c-0.63-0.19-1.18-0.46-1.66-0.83c-0.48-0.36-0.86-0.82-1.15-1.38
			c-0.29-0.56-0.43-1.21-0.43-1.96c0-0.94,0.17-1.71,0.52-2.3s0.79-1.05,1.36-1.38c0.56-0.33,1.19-0.57,1.88-0.72
			s1.4-0.26,2.11-0.34c0.61-0.12,1.19-0.2,1.74-0.25s1.04-0.13,1.46-0.25c0.42-0.12,0.76-0.3,1-0.54c0.25-0.25,0.37-0.61,0.37-1.1
			c0-0.43-0.1-0.79-0.31-1.06c-0.21-0.28-0.46-0.49-0.77-0.63c-0.3-0.15-0.64-0.25-1.02-0.29s-0.73-0.07-1.06-0.07
			c-0.94,0-1.72,0.2-2.33,0.59c-0.61,0.39-0.95,1-1.03,1.83h-3.36c0.06-0.98,0.29-1.8,0.71-2.44c0.41-0.65,0.94-1.17,1.58-1.56
			c0.64-0.39,1.36-0.67,2.17-0.82c0.8-0.16,1.63-0.24,2.47-0.24c0.75,0,1.48,0.08,2.21,0.24s1.38,0.41,1.96,0.77
			c0.58,0.35,1.04,0.81,1.4,1.37c0.35,0.56,0.53,1.24,0.53,2.05V236.88z M544.81,232.63c-0.51,0.33-1.14,0.54-1.89,0.6
			c-0.75,0.07-1.49,0.17-2.24,0.31c-0.35,0.06-0.7,0.14-1.03,0.25c-0.33,0.11-0.63,0.26-0.88,0.44s-0.46,0.43-0.6,0.74
			s-0.22,0.67-0.22,1.1c0,0.37,0.11,0.69,0.32,0.94c0.22,0.26,0.48,0.46,0.78,0.6c0.3,0.15,0.64,0.25,1,0.31s0.69,0.09,0.99,0.09
			c0.37,0,0.78-0.05,1.21-0.15c0.43-0.1,0.84-0.27,1.22-0.5s0.7-0.54,0.96-0.9c0.25-0.36,0.38-0.81,0.38-1.34V232.63z"/>
		<path class="st2" d="M551.79,225.03h3.18v2.24l0.06,0.06c0.51-0.84,1.18-1.51,2-1.99c0.82-0.48,1.74-0.72,2.74-0.72
			c1.67,0,2.98,0.43,3.95,1.3c0.96,0.86,1.44,2.16,1.44,3.89v10.46h-3.36v-9.57c-0.04-1.2-0.29-2.07-0.77-2.61s-1.21-0.81-2.21-0.81
			c-0.57,0-1.08,0.1-1.53,0.31s-0.83,0.49-1.15,0.85c-0.31,0.36-0.56,0.79-0.74,1.28s-0.27,1.01-0.27,1.56v8.98h-3.36V225.03z"/>
	</g>
</g>
</svg>
