<svg width="80" height="80" viewBox="0 0 80 80" fill="none" xmlns="http://www.w3.org/2000/svg">
<g clip-path="url(#clip0_7047_10842)">
<path d="M80 40C80 17.9086 62.0914 0 40 0C17.9086 0 0 17.9086 0 40C0 62.0914 17.9086 80 40 80C62.0914 80 80 62.0914 80 40Z" fill="#F5F5F5"/>
<mask id="mask0_7047_10842" style="mask-type:luminance" maskUnits="userSpaceOnUse" x="10" y="11" width="60" height="58">
<path d="M70 11H10V68.1429H70V11Z" fill="white"/>
</mask>
<g mask="url(#mask0_7047_10842)">
<path d="M40.6023 12.098C40.6955 12.0975 40.7886 12.0969 40.8846 12.0964C41.1932 12.0947 41.5017 12.094 41.8103 12.0933C42.0252 12.0927 42.24 12.0921 42.4548 12.0914C42.9057 12.0902 43.3566 12.0896 43.8075 12.0892C44.3835 12.0886 44.9596 12.0859 45.5356 12.0827C45.9797 12.0807 46.4237 12.0801 46.8679 12.0799C47.0801 12.0796 47.2923 12.0787 47.5045 12.0772C47.8026 12.0753 48.1006 12.0755 48.3987 12.0762C48.4853 12.0752 48.572 12.0742 48.6613 12.0731C49.8164 12.0818 50.6575 12.5187 51.4848 13.2984C52.2604 14.1225 52.4794 15.0333 52.4649 16.1447C52.4195 17.1846 52.0204 18.0657 51.2961 18.8125C50.732 19.2773 50.3582 19.471 49.622 19.5937C49.6588 20.5145 49.6956 21.4352 49.7336 22.3839C50.3102 22.5393 50.3102 22.5393 50.8985 22.6978C54.3963 23.6937 57.5575 25.4985 60.1712 28.0282C60.3428 28.1937 60.5165 28.3569 60.6903 28.5201C64.3661 32.0266 67.0091 37.4922 67.164 42.6034C67.1668 42.769 67.1691 42.9345 67.1708 43.1001C67.172 43.1901 67.1731 43.28 67.1743 43.3727C67.2188 47.9835 66.5278 53.4615 63.3496 57.0937C63.0916 57.2472 63.0916 57.2472 62.7916 57.3169C62.6703 57.2857 62.5491 57.2545 62.4241 57.2223C62.0319 57.1657 62.0319 57.1657 61.8301 57.3246C61.6517 57.5061 61.496 57.6944 61.3407 57.8959C61.2568 57.9948 61.2568 57.9948 61.1711 58.0958C60.99 58.3117 60.99 58.3117 60.7827 58.6562C60.8162 58.8873 60.8162 58.8873 60.8943 59.1026C60.9372 59.445 60.9503 59.7658 60.8943 60.1071C60.6508 60.4146 60.4621 60.6022 60.1131 60.7767C59.6255 60.8038 59.3104 60.7904 58.8853 60.5536C58.818 60.6141 58.7507 60.6746 58.6813 60.737C58.5921 60.8169 58.5029 60.8968 58.411 60.979C58.323 61.058 58.2349 61.137 58.1442 61.2184C57.8809 61.4464 57.8809 61.4464 57.6245 61.609C57.4071 61.7677 57.4071 61.7677 57.4065 62.0384C57.4251 62.2291 57.4437 62.4197 57.4624 62.6104C57.4219 63.0266 57.2876 63.162 56.988 63.4553C56.6447 63.6946 56.286 63.9002 55.9208 64.104C55.8167 64.1626 55.7125 64.2211 55.6052 64.2815C53.6339 65.3694 51.522 66.1341 49.322 66.6082C49.244 66.6251 49.1661 66.642 49.0857 66.6593C47.6242 66.9542 46.1647 67.0728 44.6764 67.0686C44.5951 67.0685 44.5137 67.0685 44.43 67.0684C38.2629 67.0475 32.5913 64.5036 28.2559 60.1696C26.6596 58.5415 23.5059 54.9513 23.5059 52.5178C23.3525 52.5189 23.3525 52.5189 23.1961 52.5201C22.2322 52.5268 21.2683 52.5319 20.3043 52.5351C19.8088 52.5369 19.3132 52.5393 18.8177 52.5431C18.3393 52.5467 17.861 52.5487 17.3827 52.5495C17.2003 52.5502 17.0179 52.5514 16.8355 52.5532C16.5798 52.5557 16.3241 52.556 16.0685 52.5558C15.923 52.5566 15.7775 52.5573 15.6276 52.5581C15.218 52.5147 15.013 52.4323 14.6889 52.183C14.3899 51.7345 14.388 51.3709 14.4657 50.8437C14.6659 50.5234 14.7986 50.3424 15.1354 50.1741C15.3758 50.1638 15.6167 50.1609 15.8573 50.1614C15.9684 50.1614 15.9684 50.1614 16.0818 50.1613C16.3269 50.1614 16.5721 50.1623 16.8173 50.1631C16.9872 50.1634 17.157 50.1635 17.3268 50.1636C17.7741 50.1641 18.2215 50.1651 18.6688 50.1664C19.1251 50.1675 19.5815 50.1681 20.0378 50.1686C20.9334 50.1698 21.829 50.1717 22.7247 50.1741C22.7017 50.0846 22.6788 49.9951 22.6551 49.903C22.625 49.7843 22.5949 49.6657 22.5639 49.5434C22.534 49.4263 22.5041 49.3093 22.4734 49.1886C22.3504 48.6677 22.2727 48.1442 22.2015 47.6141C22.187 47.513 22.1725 47.4119 22.1577 47.3078C22.0932 46.8439 22.0521 46.4018 22.055 45.933C21.9877 45.9342 21.9204 45.9354 21.8511 45.9367C21.1505 45.9491 20.4499 45.9575 19.7492 45.9637C19.4877 45.9665 19.2263 45.9702 18.9648 45.9751C18.5889 45.9818 18.2131 45.985 17.8371 45.9875C17.6619 45.9918 17.6619 45.9918 17.4833 45.9962C16.6708 45.9965 16.6708 45.9965 16.2337 45.668C16.0117 45.3514 15.9525 45.1995 15.9585 44.8169C15.957 44.7249 15.9556 44.6327 15.9541 44.5379C16.0673 44.1117 16.2327 43.9665 16.5863 43.7009C17.0036 43.6231 17.4137 43.6359 17.8371 43.6463C18.0179 43.6475 18.0179 43.6475 18.2025 43.6487C18.5869 43.6518 18.9711 43.6589 19.3555 43.6659C19.6164 43.6687 19.8773 43.6713 20.1383 43.6736C20.7772 43.6797 21.4161 43.6891 22.055 43.7009C22.0542 43.6114 22.0534 43.5219 22.0525 43.4298C22.0519 43.3111 22.0513 43.1925 22.0507 43.0702C22.0499 42.9531 22.0491 42.8361 22.0483 42.7154C22.0584 42.183 22.1326 41.6662 22.2155 41.1409C22.238 40.9893 22.238 40.9893 22.261 40.8346C22.3304 40.3735 22.4092 39.9168 22.5014 39.4598C22.3544 39.4607 22.2075 39.4618 22.0561 39.4627C20.6717 39.4718 19.2873 39.4785 17.9029 39.4829C17.1911 39.4852 16.4794 39.4884 15.7676 39.4934C15.0809 39.4983 14.3942 39.501 13.7074 39.5021C13.4453 39.503 13.1831 39.5046 12.921 39.507C12.5541 39.5102 12.1873 39.5106 11.8204 39.5105C11.7118 39.5121 11.6032 39.5137 11.4913 39.5153C11.0096 39.5123 10.7446 39.5052 10.3272 39.2473C9.96823 38.8551 9.958 38.5542 9.96132 38.0381C10.0249 37.6378 10.2472 37.4655 10.5595 37.2276C10.8256 37.0946 10.9871 37.1023 11.2841 37.1026C11.3896 37.1025 11.495 37.1023 11.6037 37.1021C11.7778 37.1027 11.7778 37.1027 11.9555 37.1034C12.0774 37.1033 12.1994 37.1033 12.325 37.1033C12.7296 37.1034 13.1342 37.1042 13.5389 37.1051C13.8188 37.1053 14.0987 37.1055 14.3787 37.1056C15.0411 37.106 15.7036 37.1069 16.366 37.108C17.1941 37.1094 18.0221 37.1099 18.8502 37.1106C20.3277 37.1118 21.8052 37.1137 23.2827 37.116C23.3077 36.9576 23.3077 36.9576 23.3333 36.7961C23.3856 36.496 23.4502 36.2679 23.5731 35.9925C23.6095 35.9106 23.6459 35.8287 23.6833 35.7442C23.7215 35.6606 23.7596 35.5769 23.7989 35.4907C23.8344 35.4101 23.8699 35.3295 23.9065 35.2464C24.2544 34.4722 24.6605 33.7303 25.0684 32.9866C24.9493 32.9877 24.9493 32.9877 24.8279 32.9888C24.0776 32.9955 23.3272 33.0006 22.5769 33.0039C22.1912 33.0057 21.8055 33.008 21.4197 33.0118C20.9757 33.0162 20.5316 33.0178 20.0875 33.0193C19.8812 33.0218 19.8812 33.0218 19.6707 33.0245C18.9697 33.0246 18.4231 33.0163 17.8139 32.6517C17.5149 32.2032 17.513 31.8396 17.5907 31.3125C17.7909 30.9921 17.9236 30.8112 18.2604 30.6428C18.5229 30.6356 18.7857 30.6358 19.0484 30.6394C19.2167 30.6411 19.3849 30.6429 19.5531 30.6446C19.6425 30.6457 19.732 30.6467 19.8241 30.6478C20.3975 30.6536 20.971 30.653 21.5444 30.6536C22.048 30.6545 22.5515 30.6576 23.055 30.6654C23.5424 30.6727 24.0295 30.6741 24.5168 30.6715C24.702 30.6715 24.8872 30.6738 25.0723 30.6782C26.1391 30.7203 26.1391 30.7204 27.0696 30.2664C27.3234 29.9568 27.5339 29.6418 27.7469 29.3035C30.8543 25.7849 34.9576 23.5473 39.4657 22.3839C39.4657 21.4999 39.4657 20.616 39.4657 19.7053C39.2632 19.6155 39.0606 19.5258 38.8519 19.4333C37.8347 18.921 37.2528 18.2446 36.8643 17.1785C36.5646 16.1558 36.6229 15.164 37.0801 14.1947C37.8464 12.8165 39.0227 12.1003 40.6023 12.098Z" fill="#E9F3FF"/>
<path d="M50.7326 30.6429C50.8036 30.6744 50.8746 30.7059 50.9479 30.7384C54.5647 32.3734 57.3309 35.4483 58.7683 39.125C59.8226 42.0612 60.0725 45.2528 59.2147 48.2768C59.1788 48.4052 59.1788 48.4052 59.1422 48.5362C58.0101 52.4715 55.3553 55.7981 51.7828 57.7983C50.3743 58.4952 48.9212 59.0061 47.3843 59.3259C47.227 59.3635 47.227 59.3635 47.0665 59.4018C43.5212 60.1466 39.4531 59.1504 36.4469 57.2054C35.5694 56.6007 34.7665 55.9266 33.9915 55.1964C33.9174 55.1295 33.8433 55.0627 33.767 54.9938C31.1478 52.5339 29.6397 48.752 29.4775 45.208C29.4374 43.5848 29.5239 42.0284 29.9736 40.4643C29.9963 40.3841 30.0191 40.3039 30.0425 40.2212C31.1742 36.3756 33.8405 33.1162 37.3401 31.1894C41.5012 28.97 46.4119 28.7156 50.7326 30.6429Z" fill="#FDFDFD"/>
<path d="M40.6023 12.098C40.6955 12.0975 40.7886 12.0969 40.8846 12.0964C41.1932 12.0947 41.5017 12.094 41.8103 12.0933C42.0252 12.0927 42.24 12.0921 42.4548 12.0914C42.9057 12.0902 43.3566 12.0896 43.8075 12.0892C44.3835 12.0886 44.9596 12.0859 45.5356 12.0827C45.9797 12.0807 46.4237 12.0801 46.8679 12.0799C47.0801 12.0796 47.2923 12.0787 47.5045 12.0772C47.8026 12.0753 48.1006 12.0755 48.3987 12.0762C48.4853 12.0752 48.572 12.0742 48.6613 12.0731C49.8164 12.0818 50.6575 12.5187 51.4848 13.2984C52.2604 14.1225 52.4794 15.0333 52.4649 16.1447C52.4195 17.1846 52.0204 18.0657 51.2961 18.8125C50.732 19.2773 50.3582 19.471 49.622 19.5937C49.6588 20.5145 49.6956 21.4352 49.7336 22.3839C50.3102 22.5393 50.3102 22.5393 50.8985 22.6978C54.3963 23.6937 57.5575 25.4985 60.1712 28.0282C60.3428 28.1937 60.5165 28.3569 60.6903 28.5201C64.3661 32.0266 67.0091 37.4922 67.164 42.6034C67.1668 42.769 67.1691 42.9345 67.1708 43.1001C67.172 43.1901 67.1731 43.28 67.1743 43.3727C67.2188 47.9835 66.5278 53.4615 63.3496 57.0937C63.0024 57.3002 62.8012 57.3171 62.394 57.31C61.9359 57.185 61.8141 57.0418 61.5639 56.6473C61.3976 56.3146 61.4086 56.1286 61.4523 55.7544C61.6283 55.379 61.8481 55.0324 62.0661 54.6802C64.7486 50.1606 65.5175 44.6151 64.2481 39.517C63.3419 36.1221 61.7056 33.1168 59.3318 30.5312C59.2793 30.4737 59.2269 30.4162 59.1729 30.357C55.8457 26.7533 50.7672 24.4514 45.8861 24.2443C42.057 24.1121 38.3824 24.7485 35.0014 26.6249C34.8652 26.6981 34.7288 26.7712 34.5925 26.8442C30.0261 29.3308 26.6095 33.7721 25.1377 38.7334C23.6988 43.9225 24.2496 49.5922 26.8795 54.327C27.6633 55.6806 28.5843 56.9292 29.6456 58.0785C29.8236 58.2734 29.9902 58.4701 30.1535 58.6771C30.5093 59.0877 30.8999 59.4268 31.3184 59.7723C31.4287 59.8645 31.5391 59.9567 31.6528 60.0517C33.9212 61.9124 36.5361 63.2166 39.3541 64.0133C39.4531 64.0422 39.5521 64.071 39.6541 64.1007C42.7188 64.9566 46.4365 64.9027 49.5104 64.125C49.5914 64.1046 49.6724 64.0843 49.7559 64.0634C50.2798 63.9264 50.7885 63.7555 51.2961 63.5669C51.3829 63.5353 51.4697 63.5036 51.5592 63.471C52.9967 62.9413 54.325 62.2986 55.6182 61.476C55.9855 61.2716 56.2395 61.2839 56.6532 61.3347C57.2713 61.6782 57.2713 61.6782 57.4345 62.0044C57.4988 62.7888 57.4988 62.7888 57.2757 63.165C56.8729 63.5714 56.4183 63.8264 55.9208 64.104C55.8167 64.1626 55.7125 64.2211 55.6052 64.2815C53.6339 65.3694 51.522 66.1341 49.322 66.6082C49.244 66.6251 49.1661 66.642 49.0857 66.6593C47.6242 66.9542 46.1647 67.0728 44.6764 67.0686C44.5951 67.0685 44.5137 67.0685 44.43 67.0684C38.2629 67.0475 32.5913 64.5036 28.2559 60.1696C26.6596 58.5415 23.5059 54.9513 23.5059 52.5178C23.3525 52.5189 23.3525 52.5189 23.1961 52.5201C22.2322 52.5268 21.2683 52.5319 20.3043 52.5351C19.8088 52.5369 19.3132 52.5393 18.8177 52.5431C18.3393 52.5467 17.861 52.5487 17.3827 52.5495C17.2003 52.5502 17.0179 52.5514 16.8355 52.5532C16.5798 52.5557 16.3241 52.556 16.0685 52.5558C15.923 52.5566 15.7775 52.5573 15.6276 52.5581C15.218 52.5147 15.013 52.4323 14.6889 52.183C14.3899 51.7345 14.388 51.3709 14.4657 50.8437C14.6659 50.5234 14.7986 50.3424 15.1354 50.1741C15.3758 50.1638 15.6167 50.1609 15.8573 50.1614C15.9684 50.1614 15.9684 50.1614 16.0818 50.1613C16.3269 50.1614 16.5721 50.1623 16.8173 50.1631C16.9872 50.1634 17.157 50.1635 17.3268 50.1636C17.7741 50.1641 18.2215 50.1651 18.6688 50.1664C19.1251 50.1675 19.5815 50.1681 20.0378 50.1686C20.9334 50.1698 21.829 50.1717 22.7247 50.1741C22.7017 50.0846 22.6788 49.9951 22.6551 49.903C22.625 49.7843 22.5949 49.6657 22.5639 49.5434C22.534 49.4263 22.5041 49.3093 22.4734 49.1886C22.3504 48.6677 22.2727 48.1442 22.2015 47.6141C22.187 47.513 22.1725 47.4119 22.1577 47.3078C22.0932 46.8439 22.0521 46.4018 22.055 45.933C21.9877 45.9342 21.9204 45.9354 21.8511 45.9367C21.1505 45.9491 20.4499 45.9575 19.7492 45.9637C19.4877 45.9665 19.2263 45.9702 18.9648 45.9751C18.5889 45.9818 18.2131 45.985 17.8371 45.9875C17.6619 45.9918 17.6619 45.9918 17.4833 45.9962C16.6708 45.9965 16.6708 45.9965 16.2337 45.668C16.0117 45.3514 15.9525 45.1995 15.9585 44.8169C15.957 44.7249 15.9556 44.6327 15.9541 44.5379C16.0673 44.1117 16.2327 43.9665 16.5863 43.7009C17.0036 43.6231 17.4137 43.6359 17.8371 43.6463C18.0179 43.6475 18.0179 43.6475 18.2025 43.6487C18.5869 43.6518 18.9711 43.6589 19.3555 43.6659C19.6164 43.6687 19.8773 43.6713 20.1383 43.6736C20.7772 43.6797 21.4161 43.6891 22.055 43.7009C22.0542 43.6114 22.0534 43.5219 22.0525 43.4298C22.0519 43.3111 22.0513 43.1925 22.0507 43.0702C22.0499 42.9531 22.0491 42.8361 22.0483 42.7154C22.0584 42.183 22.1326 41.6662 22.2155 41.1409C22.238 40.9893 22.238 40.9893 22.261 40.8346C22.3304 40.3735 22.4092 39.9168 22.5014 39.4598C22.3544 39.4607 22.2075 39.4618 22.0561 39.4627C20.6717 39.4718 19.2873 39.4785 17.9029 39.4829C17.1911 39.4852 16.4794 39.4884 15.7676 39.4934C15.0809 39.4983 14.3942 39.501 13.7074 39.5021C13.4453 39.503 13.1831 39.5046 12.921 39.507C12.5541 39.5102 12.1873 39.5106 11.8204 39.5105C11.7118 39.5121 11.6032 39.5137 11.4913 39.5153C11.0096 39.5123 10.7446 39.5052 10.3272 39.2473C9.96823 38.8551 9.958 38.5542 9.96132 38.0381C10.0249 37.6378 10.2472 37.4655 10.5595 37.2276C10.8256 37.0946 10.9871 37.1023 11.2841 37.1026C11.3896 37.1025 11.495 37.1023 11.6037 37.1021C11.7778 37.1027 11.7778 37.1027 11.9555 37.1034C12.0774 37.1033 12.1994 37.1033 12.325 37.1033C12.7296 37.1034 13.1342 37.1042 13.5389 37.1051C13.8188 37.1053 14.0987 37.1055 14.3787 37.1056C15.0411 37.106 15.7036 37.1069 16.366 37.108C17.1941 37.1094 18.0221 37.1099 18.8502 37.1106C20.3277 37.1118 21.8052 37.1137 23.2827 37.116C23.3077 36.9576 23.3077 36.9576 23.3333 36.7961C23.3856 36.496 23.4502 36.2679 23.5731 35.9925C23.6095 35.9106 23.6459 35.8287 23.6833 35.7442C23.7215 35.6606 23.7596 35.5769 23.7989 35.4907C23.8344 35.4101 23.8699 35.3295 23.9065 35.2464C24.2544 34.4722 24.6605 33.7303 25.0684 32.9866C24.9493 32.9877 24.9493 32.9877 24.8279 32.9888C24.0776 32.9955 23.3272 33.0006 22.5769 33.0039C22.1912 33.0057 21.8055 33.008 21.4197 33.0118C20.9757 33.0162 20.5316 33.0178 20.0875 33.0193C19.8812 33.0218 19.8812 33.0218 19.6707 33.0245C18.9697 33.0246 18.4231 33.0163 17.8139 32.6517C17.5149 32.2032 17.513 31.8396 17.5907 31.3125C17.7909 30.9921 17.9236 30.8112 18.2604 30.6428C18.5229 30.6356 18.7857 30.6358 19.0484 30.6394C19.2167 30.6411 19.3849 30.6429 19.5531 30.6446C19.6425 30.6457 19.732 30.6467 19.8241 30.6478C20.3975 30.6536 20.971 30.653 21.5444 30.6536C22.048 30.6545 22.5515 30.6576 23.055 30.6654C23.5424 30.6727 24.0295 30.6741 24.5168 30.6715C24.702 30.6715 24.8872 30.6738 25.0723 30.6782C26.1391 30.7203 26.1391 30.7204 27.0696 30.2664C27.3234 29.9568 27.5339 29.6418 27.7469 29.3035C30.8543 25.7849 34.9576 23.5473 39.4657 22.3839C39.4657 21.4999 39.4657 20.616 39.4657 19.7053C39.2632 19.6155 39.0606 19.5258 38.8519 19.4333C37.8347 18.921 37.2528 18.2446 36.8643 17.1785C36.5646 16.1558 36.6229 15.164 37.0801 14.1947C37.8464 12.8165 39.0227 12.1003 40.6023 12.098Z" fill="#2B5582"/>
<path d="M43.3753 27.1565C43.4599 27.1554 43.5444 27.1543 43.6315 27.1532C45.4111 27.1349 47.1133 27.1282 48.8357 27.6295C48.9635 27.6636 48.9635 27.6636 49.0937 27.6984C52.1204 28.5083 54.5914 30.0878 56.8715 32.2054C56.9389 32.2668 57.0064 32.3282 57.076 32.3916C59.1383 34.3476 60.5419 37.0977 61.3357 39.7946C61.3689 39.9066 61.402 40.0185 61.436 40.1338C62.302 43.3146 62.1396 46.9742 61.0009 50.0625C60.9269 50.268 60.9269 50.268 60.8514 50.4776C59.9175 52.9405 58.5351 55.0321 56.6483 56.8705C56.5912 56.9327 56.534 56.9949 56.4752 57.0589C54.1845 59.4918 50.8256 60.9069 47.6081 61.5581C47.4983 61.5812 47.3885 61.6044 47.2755 61.6282C45.2014 61.9967 42.9628 61.9083 40.9117 61.4465C40.8285 61.4279 40.7453 61.4093 40.6597 61.3902C37.3594 60.6247 34.4468 58.8381 32.0947 56.4241C32.0312 56.3657 31.9678 56.3073 31.9024 56.2471C28.9875 53.5002 27.3905 49.0706 27.2607 45.1474C27.1803 40.312 28.7728 35.935 32.1135 32.4177C34.9988 29.4388 39.1529 27.2016 43.3753 27.1565ZM34.7733 32.9866C34.6831 33.0618 34.5929 33.1371 34.4999 33.2146C32.183 35.2114 30.6334 37.9701 29.8625 40.9108C29.8269 41.0398 29.7912 41.1688 29.7544 41.3018C28.9011 44.9643 29.7052 49.0841 31.6413 52.2794C32.3052 53.289 33.0525 54.206 33.8804 55.0848C33.9473 55.1589 34.0142 55.233 34.0831 55.3094C34.781 56.0524 35.6126 56.6276 36.4474 57.2054C36.5403 57.27 36.6332 57.3346 36.729 57.4011C38.117 58.2948 39.8449 58.9392 41.4557 59.2841C41.5775 59.3108 41.6992 59.3376 41.8246 59.3652C45.7851 60.0374 49.9177 59.2185 53.2164 56.8915C53.9661 56.3455 54.6416 55.7272 55.309 55.0848C55.3795 55.0214 55.45 54.958 55.5226 54.8926C57.9383 52.6544 59.4965 48.9545 59.6814 45.6967C59.7652 41.1464 58.5455 37.1972 55.3832 33.8293C53.7511 32.157 51.7995 30.9937 49.617 30.1965C49.5047 30.154 49.3923 30.1116 49.2765 30.0678C47.7685 29.527 46.3456 29.3838 44.7551 29.3803C44.6112 29.3797 44.4673 29.3791 44.3191 29.3785C40.7216 29.4049 37.5015 30.6566 34.7733 32.9866Z" fill="#2B5582"/>
<path d="M52.9725 35.5536C53.3143 35.7769 53.3143 35.7769 53.5306 36.1117C53.6052 36.4911 53.6334 36.6493 53.5306 37.0045C53.0083 37.7646 52.2534 38.3893 51.591 39.0235C51.3683 39.2394 51.1462 39.4559 50.9242 39.6724C50.5767 40.0111 50.2286 40.3489 49.8769 40.6833C49.5904 40.9559 49.307 41.2314 49.0254 41.5091C48.8663 41.6645 48.7041 41.8165 48.542 41.9685C48.0224 42.4477 48.0224 42.4477 47.8243 43.091C47.8808 43.3477 47.9604 43.5707 48.0618 43.8126C48.178 44.815 47.9969 45.7167 47.4183 46.5526C46.957 47.1074 46.501 47.4602 45.8296 47.7188C45.7419 47.7583 45.6542 47.7979 45.5638 47.8387C44.7536 48.1253 43.8508 48.0033 43.0822 47.6499C42.1134 47.0877 41.5175 46.335 41.1854 45.2665C41.1335 44.9946 41.1232 44.7381 41.1212 44.4613C41.1196 44.363 41.1181 44.2647 41.1164 44.1635C41.1422 43.8126 41.1422 43.8126 41.2377 43.5932C41.3535 43.3008 41.3987 43.123 41.3654 42.8081C41.008 42.3141 40.5589 41.926 40.1028 41.5246C38.7331 40.3075 38.7331 40.3075 38.6484 39.6796C38.6911 39.187 38.7719 39.009 39.1332 38.6786C39.5022 38.4942 39.8535 38.4827 40.2493 38.567C40.457 38.7083 40.457 38.7083 40.6635 38.8988C40.7407 38.9697 40.8178 39.0405 40.8973 39.1135C41.3198 39.5185 41.7352 39.9297 42.1466 40.3458C42.2331 40.4327 42.3196 40.5197 42.4087 40.6093C42.6192 40.8211 42.8295 41.0333 43.0395 41.2456C43.1795 41.1912 43.1795 41.1912 43.3224 41.1357C43.7464 41.0114 44.0982 40.9927 44.5392 40.9945C44.7496 40.9936 44.7496 40.9936 44.9643 40.9927C45.3931 41.0231 45.7542 41.122 46.1645 41.2456C46.2339 41.1759 46.3033 41.1062 46.3748 41.0345C47.0282 40.3789 47.6817 39.7236 48.3357 39.0686C48.6719 38.7318 49.008 38.395 49.3438 38.0578C49.6678 37.7327 49.992 37.4078 50.3164 37.0831C50.4403 36.959 50.5641 36.8348 50.6878 36.7105C50.8607 36.5368 51.0339 36.3634 51.2072 36.1902C51.3059 36.0913 51.4045 35.9924 51.5062 35.8905C51.9464 35.475 52.3886 35.467 52.9725 35.5536Z" fill="#2B5582"/>
<path d="M41.0038 14.2887C41.0885 14.2877 41.1732 14.2868 41.2604 14.2858C41.5388 14.2833 41.817 14.284 42.0954 14.285C42.29 14.2844 42.4845 14.2837 42.6791 14.2829C43.0865 14.2818 43.4938 14.2823 43.9012 14.2839C44.4216 14.2858 44.9418 14.2832 45.4622 14.2793C45.864 14.2768 46.2657 14.277 46.6675 14.2779C46.8593 14.278 47.051 14.2772 47.2428 14.2756C49.0481 14.2624 49.0481 14.2624 49.6954 14.7553C50.0577 15.1272 50.1628 15.4599 50.2261 15.9665C50.1534 16.5477 49.8459 16.99 49.396 17.3616C48.9932 17.4959 48.6235 17.4914 48.204 17.493C48.0733 17.4941 48.0733 17.4941 47.9399 17.4952C47.6514 17.4974 47.363 17.4987 47.0745 17.4998C46.9266 17.5005 46.9266 17.5005 46.7757 17.5012C46.254 17.5036 45.7322 17.5052 45.2104 17.5062C44.6718 17.5074 44.1333 17.5113 43.5948 17.5157C43.1803 17.5186 42.7658 17.5196 42.3513 17.52C42.1528 17.5205 41.9543 17.5218 41.7558 17.5238C41.4777 17.5266 41.1997 17.5265 40.9216 17.5257C40.7992 17.5278 40.7992 17.5278 40.6744 17.53C40.1074 17.5243 39.7873 17.3842 39.3514 17.0268C39.0104 16.5267 38.9114 16.0554 39.0166 15.4643C39.447 14.6035 40.0649 14.28 41.0038 14.2887Z" fill="#FB727E"/>
<path d="M41.9219 19.7053C43.6897 19.7053 45.4576 19.7053 47.279 19.7053C47.279 20.4788 47.279 21.2522 47.279 22.049C45.5111 22.049 43.7433 22.049 41.9219 22.049C41.9219 21.2756 41.9219 20.5022 41.9219 19.7053Z" fill="#D1F0F6"/>
<path d="M55.9607 43.3382C56.0402 43.3359 56.1197 43.3336 56.2016 43.3312C56.7097 43.3274 57.0284 43.389 57.4325 43.7009C57.6924 44.0598 57.7165 44.3829 57.6557 44.817C57.4249 45.1996 57.1957 45.454 56.7629 45.5982C56.4889 45.6174 56.2143 45.628 55.9397 45.6331C55.7209 45.6394 55.7209 45.6394 55.4977 45.6458C55.0315 45.5916 54.857 45.4812 54.5307 45.1518C54.3521 44.7945 54.3634 44.4235 54.4191 44.0357C54.8496 43.3614 55.2052 43.3436 55.9607 43.3382Z" fill="#2B5582"/>
<path d="M33.1295 43.3243C33.2134 43.3201 33.2973 43.3159 33.3837 43.3116C33.8364 43.3045 34.1337 43.3377 34.4985 43.6194C34.7758 43.9241 34.7758 43.9241 34.849 44.1583C34.7848 44.9647 34.7848 44.9647 34.5526 45.2635C33.884 45.7605 33.1113 45.6877 32.3204 45.5983C31.9436 45.4645 31.8903 45.3853 31.6508 45.0402C31.5386 44.6957 31.498 44.3964 31.5391 44.0357C31.9592 43.3406 32.3694 43.3383 33.1295 43.3243Z" fill="#2B5582"/>
<path d="M44.9407 31.4241C45.3356 31.6084 45.4776 31.7272 45.7219 32.0937C45.7467 32.3919 45.7582 32.6747 45.7568 32.9726C45.7586 33.0516 45.7604 33.1306 45.7623 33.212C45.7627 33.7167 45.6952 34.0355 45.3871 34.4375C45.0052 34.7239 44.6228 34.7176 44.1594 34.6607C43.8659 34.4182 43.6602 34.2202 43.4898 33.8794C43.473 33.6057 43.464 33.3372 43.4619 33.0633C43.459 32.9164 43.4561 32.7695 43.4531 32.6182C43.4914 32.1868 43.5611 31.9852 43.8246 31.6473C44.2404 31.3701 44.4482 31.3816 44.9407 31.4241Z" fill="#2B5582"/>
<path d="M44.8069 54.2513C45.1606 54.3282 45.3607 54.4898 45.6057 54.75C45.7723 55.0834 45.7423 55.424 45.7451 55.7894C45.748 55.9362 45.7509 56.0832 45.7539 56.2345C45.7157 56.6647 45.6407 56.8657 45.3824 57.2054C45.0387 57.4918 44.8782 57.5412 44.4268 57.5332C44.0106 57.4197 43.8557 57.3208 43.5967 56.9822C43.3739 56.314 43.3415 55.3893 43.5745 54.7143C43.8934 54.2605 44.2943 54.2171 44.8069 54.2513Z" fill="#2B5582"/>
<path d="M45.0492 43.2545C45.3868 43.4483 45.6539 43.6826 45.8304 44.0358C45.8759 44.5083 45.859 44.763 45.6351 45.1867C45.3017 45.585 45.126 45.6853 44.6167 45.7518C44.1707 45.6982 43.9438 45.5461 43.5983 45.2635C43.3091 44.8823 43.319 44.5008 43.3751 44.0358C43.7834 43.3559 44.2633 43.1204 45.0492 43.2545Z" fill="#F9808A"/>
<path d="M11.7865 50.2857C12.0987 50.5294 12.205 50.6959 12.2782 51.0844C12.3112 51.5787 12.2832 51.7847 11.9678 52.183C11.5026 52.5376 11.26 52.5431 10.6926 52.4682C10.4472 52.4062 10.4472 52.4062 10.1612 52.183C9.94209 51.7258 9.90959 51.342 10.0007 50.8438C10.4458 50.1071 11.0066 50.0858 11.7865 50.2857Z" fill="#2B5582"/>
<path d="M59.9809 58.4997C60.3043 58.56 60.525 58.6726 60.7796 58.8794C60.9734 59.267 60.9584 59.6843 60.8912 60.1071C60.6477 60.4147 60.4591 60.6022 60.1099 60.7768C59.7403 60.8186 59.7403 60.8186 59.3287 60.7768C58.8995 60.4222 58.6811 60.1868 58.6172 59.6328C58.7035 58.7694 59.1608 58.4437 59.9809 58.4997Z" fill="#2B5582"/>
</g>
</g>
<defs>
<clipPath id="clip0_7047_10842">
<rect width="80" height="80" fill="white"/>
</clipPath>
</defs>
</svg>
