<svg width="80" height="80" viewBox="0 0 80 80" fill="none" xmlns="http://www.w3.org/2000/svg">
<g clip-path="url(#clip0_7017_5753)">
<path d="M38.436 6.84333C38.551 6.84223 38.6661 6.84113 38.7847 6.83999C45.1696 6.79268 51.1909 8.2335 56.2503 12.3438C56.3312 12.4091 56.4121 12.4743 56.4954 12.5416C56.9898 12.9406 57.4808 13.3435 57.969 13.7501C57.7891 14.1357 57.6491 14.3825 57.344 14.6876C57.3768 15.1012 57.4671 15.2779 57.7548 15.5787C57.8545 15.6584 57.9542 15.7382 58.0569 15.8204C58.157 15.9018 58.2571 15.9831 58.3603 16.067C58.476 16.1576 58.476 16.1576 58.594 16.2501C59.288 16.0018 59.6512 15.4671 60.0979 14.9122C60.9003 13.9251 60.9003 13.9251 61.2503 13.7501C62.1385 13.6627 62.1385 13.6627 62.5003 13.7501C62.8805 14.0894 62.8805 14.0894 63.2815 14.5313C63.4145 14.6719 63.5474 14.8125 63.6844 14.9573C64.5067 15.8494 65.2945 16.7553 66.0556 17.7009C66.4203 18.1417 66.8003 18.5635 67.1878 18.9844C67.3163 19.1258 67.4448 19.2672 67.5772 19.4129C67.843 19.7052 68.1108 19.9957 68.3804 20.2845C69.0633 21.053 69.5366 21.6043 69.501 22.6606C69.3052 23.1407 69.0271 23.3149 68.594 23.5938C68.1626 23.6385 67.8001 23.6541 67.3733 23.6329C67.2651 23.6301 67.1568 23.6272 67.0453 23.6243C66.7802 23.617 66.5152 23.6058 66.2503 23.5938C66.2518 23.8159 66.2518 23.8159 66.2534 24.0425C66.263 25.4511 66.27 26.8597 66.2746 28.2683C66.277 28.9921 66.2803 29.716 66.2856 30.4398C66.2908 31.1409 66.2936 31.8419 66.2948 32.543C66.2956 32.8079 66.2973 33.0728 66.2998 33.3377C66.3213 35.6457 66.2947 38.4886 65.3128 40.6251C64.9092 40.7596 64.6297 40.81 64.2135 40.8375C59.4508 41.1991 55.2047 43.0484 51.9779 46.6399C50.3961 48.4866 49.188 50.6588 48.4378 52.9688C48.3686 53.1776 48.3686 53.1776 48.298 53.3906C47.8394 54.9744 47.7782 56.6443 47.6565 58.2813C46.8511 58.6003 46.0887 58.8407 45.2347 59.004C45.0429 59.0414 44.8512 59.0789 44.6536 59.1175C43.6188 59.295 42.6145 59.4001 41.5646 59.4068C41.3919 59.4084 41.3919 59.4084 41.2157 59.4101C40.8464 59.4128 40.4771 59.4138 40.1077 59.4141C39.9819 59.4143 39.856 59.4146 39.7264 59.4148C33.4752 59.4125 33.4752 59.4125 32.344 58.2813C32.316 58.0671 32.2972 57.8517 32.2824 57.6362C32.0045 54.0017 31.1292 50.7662 28.9065 47.8126C28.7974 47.6669 28.6882 47.5213 28.5757 47.3713C25.9695 44.0463 22.0719 41.6358 17.8595 41.0335C17.0586 40.9389 16.2567 40.8685 15.452 40.8153C15.1565 40.7813 15.1565 40.7813 14.6878 40.6251C14.5542 40.2428 14.4539 39.8853 14.3655 39.4923C14.3404 39.3907 14.3154 39.2892 14.2895 39.1846C14.2059 38.8327 14.1328 38.48 14.0628 38.1251C14.0343 37.9807 14.0058 37.8364 13.9764 37.6877C13.7138 36.1958 13.6882 34.723 13.6917 33.213C13.6917 33.0821 13.6918 32.9513 13.6918 32.8164C13.697 30.7265 13.8447 28.7484 14.3753 26.7188C14.4037 26.6026 14.4321 26.4864 14.4614 26.3667C15.5982 21.7657 18.147 17.76 21.4065 14.3751C21.4968 14.2768 21.587 14.1785 21.68 14.0772C25.7815 9.72965 32.4776 6.88156 38.436 6.84333Z" fill="#B3E7F2"/>
<path d="M74.2189 46.0937C77.2525 48.5672 79.5399 51.9812 80.0002 55.9375C80.3126 60.3553 79.5675 64.4018 76.614 67.8375C74.0495 70.7367 70.6236 72.882 66.6849 73.1605C62.1431 73.3624 58.2575 72.4285 54.8146 69.3261C52.7745 67.4204 51.3206 65.1613 50.4689 62.5C50.419 62.3483 50.369 62.1966 50.3176 62.0404C49.3048 58.294 49.9261 54.1748 51.7189 50.7812C53.7955 47.1832 57.0605 44.6523 61.0337 43.4629C65.5618 42.2512 70.5193 43.2649 74.2189 46.0937Z" fill="#FEDA7F"/>
<path d="M24.2189 46.0937C27.2525 48.5672 29.5399 51.9812 30.0002 55.9375C30.3126 60.3553 29.5675 64.4018 26.614 67.8375C24.0495 70.7367 20.6236 72.882 16.6849 73.1605C12.1431 73.3624 8.25753 72.4285 4.81463 69.3261C2.77452 67.4204 1.32058 65.1613 0.468931 62.5C0.41898 62.3483 0.369028 62.1966 0.317564 62.0404C-0.695209 58.294 -0.0738982 54.1748 1.71893 50.7812C3.79549 47.1832 7.06055 44.6523 11.0337 43.4629C15.5618 42.2512 20.5193 43.2649 24.2189 46.0937Z" fill="#FEDA7F"/>
<path d="M35.1563 14.5312C35.3271 14.6086 35.4979 14.6859 35.6739 14.7656C36.5315 15.1144 37.4483 15.3264 38.3515 15.0311C38.7202 14.8491 39.0813 14.6688 39.3751 14.375C40.1287 14.2808 40.5208 14.3708 41.172 14.7656C41.8208 15.1483 42.2016 15.2732 42.9688 15.1562C43.712 14.9417 44.4629 14.7217 45.1563 14.375C45.7896 14.2905 46.0215 14.3215 46.5431 14.707C46.9495 15.2569 46.9402 15.4214 46.8751 16.0937C46.74 16.5834 46.5642 17.0552 46.3856 17.5305C46.2844 17.8094 46.1833 18.0883 46.0822 18.3673C45.9218 18.8044 45.7607 19.2412 45.5986 19.6778C45.4422 20.1006 45.2888 20.5244 45.1356 20.9484C45.0861 21.079 45.0367 21.2095 44.9857 21.344C44.9419 21.4661 44.8981 21.5881 44.8529 21.7139C44.8134 21.8207 44.7738 21.9275 44.7331 22.0376C44.6721 22.4479 44.7786 22.6236 45.0001 22.9687C45.3041 23.283 45.6111 23.5858 45.9278 23.8867C46.9776 24.9114 47.8822 26.0067 48.7501 27.1875C48.8722 27.353 48.9942 27.5186 49.12 27.6892C51.8872 31.5672 53.7571 36.0284 53.0665 40.8804C52.6203 43.2659 51.5979 45.5125 50.0001 47.3437C49.8792 47.4952 49.7584 47.6466 49.6339 47.8027C47.6103 50.2267 44.309 51.5176 41.2501 51.875C37.5266 52.1508 34.2639 51.1837 31.4063 48.75C31.1695 48.5711 31.1695 48.5711 30.9278 48.3886C28.667 46.3202 27.1014 43.1252 26.8405 40.0629C26.7548 38.0339 26.8802 36.1549 27.5001 34.2187C27.5319 34.1164 27.5637 34.0141 27.5965 33.9086C28.3767 31.4622 29.664 29.2 31.2501 27.1875C31.3474 27.0604 31.4447 26.9333 31.5449 26.8023C32.6939 25.3271 33.9764 23.9627 35.3126 22.6562C35.0651 21.656 34.7642 20.6834 34.4166 19.7143C34.3785 19.6075 34.3404 19.5006 34.3012 19.3905C34.1428 18.9471 33.9841 18.5038 33.8219 18.0618C33.7022 17.7345 33.5855 17.4062 33.4693 17.0776C33.3995 16.8848 33.3296 16.692 33.2577 16.4933C33.1106 15.8768 33.1388 15.458 33.2813 14.8437C33.7842 14.2 34.4354 14.3482 35.1563 14.5312Z" fill="#FCAB00"/>
<path d="M35.1563 14.5312C35.3271 14.6086 35.4979 14.6859 35.6739 14.7656C36.5315 15.1144 37.4483 15.3264 38.3515 15.0311C38.7202 14.8491 39.0813 14.6688 39.3751 14.375C40.1287 14.2808 40.5208 14.3708 41.172 14.7656C41.8208 15.1483 42.2016 15.2732 42.9688 15.1562C43.712 14.9417 44.4629 14.7217 45.1563 14.375C45.7896 14.2905 46.0215 14.3215 46.5431 14.707C46.9495 15.2569 46.9402 15.4214 46.8751 16.0937C46.74 16.5834 46.5642 17.0552 46.3856 17.5305C46.2844 17.8094 46.1833 18.0883 46.0822 18.3673C45.9218 18.8044 45.7607 19.2412 45.5986 19.6778C45.4422 20.1006 45.2888 20.5244 45.1356 20.9484C45.0861 21.079 45.0367 21.2095 44.9857 21.344C44.9419 21.4661 44.8981 21.5881 44.8529 21.7139C44.8134 21.8207 44.7738 21.9275 44.7331 22.0376C44.6721 22.4479 44.7786 22.6236 45.0001 22.9687C45.3041 23.283 45.6111 23.5858 45.9278 23.8867C46.9776 24.9114 47.8822 26.0067 48.7501 27.1875C48.8722 27.353 48.9942 27.5186 49.12 27.6892C51.8872 31.5672 53.7571 36.0284 53.0665 40.8804C52.6203 43.2659 51.5979 45.5125 50.0001 47.3437C49.8792 47.4952 49.7584 47.6466 49.6339 47.8027C47.6103 50.2267 44.309 51.5176 41.2501 51.875C37.5266 52.1508 34.2639 51.1837 31.4063 48.75C31.1695 48.5711 31.1695 48.5711 30.9278 48.3886C28.667 46.3202 27.1014 43.1252 26.8405 40.0629C26.7548 38.0339 26.8802 36.1549 27.5001 34.2187C27.5319 34.1164 27.5637 34.0141 27.5965 33.9086C28.3767 31.4622 29.664 29.2 31.2501 27.1875C31.3474 27.0604 31.4447 26.9333 31.5449 26.8023C32.6939 25.3271 33.9764 23.9627 35.3126 22.6562C35.0651 21.656 34.7642 20.6834 34.4166 19.7143C34.3785 19.6075 34.3404 19.5006 34.3012 19.3905C34.1428 18.9471 33.9841 18.5038 33.8219 18.0618C33.7022 17.7345 33.5855 17.4062 33.4693 17.0776C33.3995 16.8848 33.3296 16.692 33.2577 16.4933C33.1106 15.8768 33.1388 15.458 33.2813 14.8437C33.7842 14.2 34.4354 14.3482 35.1563 14.5312ZM35.6251 25.7812C35.3979 26.0195 35.1701 26.2572 34.9415 26.4941C32.7319 29.0233 30.9296 31.8072 29.8438 35C29.7909 35.1552 29.7379 35.3105 29.6833 35.4705C28.8537 38.3954 29.2255 41.4752 30.6642 44.1211C31.232 45.0289 31.9026 45.8048 32.6563 46.5625C32.7486 46.6601 32.8408 46.7578 32.9359 46.8585C33.5875 47.4943 34.3227 47.9093 35.127 48.3203C35.227 48.3718 35.3269 48.4232 35.4298 48.4763C36.8825 49.185 38.3024 49.4574 39.9122 49.4336C40.1492 49.4308 40.1492 49.4308 40.3911 49.4281C43.1595 49.3674 45.6151 48.3331 47.5709 46.361C49.8783 43.905 50.7674 41.2296 50.6788 37.8869C50.4239 32.6241 46.6676 28.0934 43.1251 24.5312C42.3829 24.1601 41.295 24.2999 40.4716 24.2859C40.2115 24.2802 39.9515 24.2717 39.6916 24.2603C37.8744 24.1816 36.8452 24.2952 35.6251 25.7812Z" fill="#2E4457"/>
<path d="M74.2189 46.0937C77.2525 48.5672 79.5399 51.9812 80.0002 55.9375C80.3126 60.3553 79.5675 64.4018 76.614 67.8375C74.0495 70.7367 70.6236 72.882 66.6849 73.1605C62.1431 73.3624 58.2575 72.4285 54.8146 69.3261C52.7745 67.4204 51.3206 65.1613 50.4689 62.5C50.419 62.3483 50.369 62.1966 50.3176 62.0404C49.3048 58.294 49.9261 54.1748 51.7189 50.7812C53.7955 47.1832 57.0605 44.6523 61.0337 43.4629C65.5618 42.2512 70.5193 43.2649 74.2189 46.0937ZM55.7418 49.5172C53.2206 52.5347 52.1944 55.9374 52.5002 59.8437C52.9776 63.2162 54.7947 66.2161 57.5002 68.2812C60.5242 70.2673 63.9167 71.1689 67.5197 70.4937C70.6138 69.8006 73.5442 68.0419 75.3281 65.3676C77.2458 62.3117 78.0055 58.9593 77.3146 55.3906C76.4853 52.0966 74.6094 49.3356 71.7617 47.489C66.5698 44.4284 59.973 45.0424 55.7418 49.5172Z" fill="#2B5582"/>
<path d="M24.2189 46.0937C27.2525 48.5672 29.5399 51.9812 30.0002 55.9375C30.3126 60.3553 29.5675 64.4018 26.614 67.8375C24.0495 70.7367 20.6236 72.882 16.6849 73.1605C12.1431 73.3624 8.25753 72.4285 4.81463 69.3261C2.77452 67.4204 1.32058 65.1613 0.468931 62.5C0.41898 62.3483 0.369028 62.1966 0.317564 62.0404C-0.695209 58.294 -0.0738982 54.1748 1.71893 50.7812C3.79549 47.1832 7.06055 44.6523 11.0337 43.4629C15.5618 42.2512 20.5193 43.2649 24.2189 46.0937ZM5.74176 49.5172C3.22057 52.5347 2.19442 55.9374 2.50018 59.8437C2.9776 63.2162 4.79472 66.2161 7.50018 68.2812C10.5242 70.2673 13.9167 71.1689 17.5197 70.4937C20.6138 69.8006 23.5442 68.0419 25.3281 65.3676C27.2458 62.3117 28.0055 58.9593 27.3146 55.3906C26.4853 52.0966 24.6094 49.3356 21.7617 47.489C16.5698 44.4284 9.97303 45.0424 5.74176 49.5172Z" fill="#2B5582"/>
<path d="M38.436 6.84333C38.551 6.84223 38.6661 6.84113 38.7847 6.83999C45.1696 6.79268 51.1909 8.2335 56.2503 12.3438C56.3312 12.4091 56.4121 12.4743 56.4954 12.5416C56.9898 12.9406 57.4808 13.3435 57.969 13.7501C57.6972 14.3413 57.3415 14.7015 56.8753 15.1563C56.7146 15.3613 56.5564 15.5684 56.4065 15.7813C55.8383 15.5368 55.4409 15.1851 54.9808 14.7755C50.052 10.5599 43.5585 9.0918 37.214 9.56428C32.4355 10.0481 27.9956 12.212 24.3753 15.3126C24.2341 15.4328 24.0929 15.5531 23.9474 15.677C19.8253 19.2974 16.9638 24.9233 16.4307 30.393C16.3793 31.2185 16.3843 32.0444 16.387 32.8712C16.3864 33.0516 16.3858 33.2321 16.3852 33.418C16.387 35.0151 16.4765 36.5439 16.8655 38.0958C16.892 38.2069 16.9185 38.3179 16.9458 38.4324C17.0659 38.9271 17.1975 39.403 17.3642 39.8847C17.5003 40.3126 17.5003 40.3126 17.5003 40.9376C17.1194 40.9155 16.7385 40.8926 16.3577 40.8692C16.2498 40.8631 16.142 40.8569 16.0309 40.8506C15.5516 40.8205 15.1456 40.7777 14.6878 40.6251C14.5542 40.2428 14.4539 39.8853 14.3655 39.4923C14.3404 39.3907 14.3154 39.2892 14.2895 39.1846C14.2059 38.8327 14.1328 38.48 14.0628 38.1251C14.0343 37.9807 14.0058 37.8364 13.9764 37.6877C13.7138 36.1958 13.6882 34.723 13.6917 33.213C13.6917 33.0821 13.6918 32.9513 13.6918 32.8164C13.697 30.7265 13.8447 28.7484 14.3753 26.7188C14.4037 26.6026 14.4321 26.4864 14.4614 26.3667C15.5982 21.7657 18.147 17.76 21.4065 14.3751C21.4968 14.2768 21.587 14.1785 21.68 14.0772C25.7815 9.72965 32.4776 6.88156 38.436 6.84333Z" fill="#2B5582"/>
<path d="M62.5001 13.7501C62.8804 14.0894 62.8804 14.0894 63.2814 14.5313C63.4143 14.6719 63.5473 14.8125 63.6842 14.9573C64.5066 15.8494 65.2943 16.7553 66.0554 17.7009C66.4202 18.1417 66.8001 18.5635 67.1876 18.9844C67.3161 19.1258 67.4447 19.2672 67.577 19.4129C67.8429 19.7052 68.1107 19.9957 68.3803 20.2845C69.0631 21.053 69.5364 21.6043 69.5009 22.6606C69.305 23.1407 69.027 23.3149 68.5939 23.5938C68.1624 23.6385 67.7999 23.6541 67.3732 23.6329C67.2649 23.6301 67.1567 23.6272 67.0451 23.6243C66.78 23.617 66.5151 23.6058 66.2501 23.5938C66.2517 23.8159 66.2517 23.8159 66.2533 24.0425C66.2629 25.4511 66.2699 26.8597 66.2744 28.2683C66.2769 28.9921 66.2801 29.716 66.2855 30.4398C66.2907 31.1409 66.2934 31.8419 66.2946 32.543C66.2955 32.8079 66.2971 33.0728 66.2997 33.3377C66.3212 35.6457 66.2945 38.4886 65.3126 40.6251C64.7563 40.8105 64.2231 40.8362 63.6427 40.8692C63.4782 40.8793 63.4782 40.8793 63.3104 40.8897C63.0403 40.9062 62.7702 40.922 62.5001 40.9376C62.6211 39.9672 62.8586 39.0546 63.1197 38.1116C63.5852 36.1141 63.6384 34.0651 63.6368 32.0241C63.6366 31.6016 63.6387 31.1793 63.6413 30.7568C63.6484 29.5582 63.6524 28.3596 63.6534 27.1609C63.6542 26.4223 63.658 25.6838 63.6636 24.9452C63.6651 24.6653 63.6655 24.3854 63.6647 24.1055C63.6636 23.7163 63.6663 23.3273 63.6698 22.9381C63.6685 22.8233 63.6673 22.7084 63.6659 22.5901C63.6746 22.0575 63.7154 21.7658 64.0359 21.3326C64.48 21.02 64.7817 21.0456 65.3126 21.0938C64.5685 20.1408 63.7994 19.2224 62.9811 18.332C62.6496 17.9612 62.3387 17.5786 62.0314 17.1876C61.3359 17.4382 60.9558 17.9745 60.4982 18.5255C60.4158 18.6232 60.3333 18.7209 60.2484 18.8216C59.6254 19.5639 59.0198 20.3189 58.4376 21.0938C58.5794 21.0809 58.7212 21.068 58.8673 21.0548C59.3751 21.0938 59.3751 21.0938 59.7145 21.3212C60.1348 21.9062 60.0871 22.4159 60.0777 23.1196C60.0779 23.2556 60.0781 23.3916 60.0783 23.5317C60.0781 23.8189 60.0763 24.1061 60.073 24.3933C60.0685 24.832 60.0698 25.2703 60.0719 25.709C60.0709 25.9884 60.0696 26.2679 60.0679 26.5473C60.0684 26.678 60.0688 26.8087 60.0693 26.9434C60.0576 27.6713 60.0046 28.1595 59.5314 28.7501C59.0426 28.9945 58.6633 28.962 58.1251 28.9063C57.6751 28.4807 57.5136 28.2238 57.4292 27.6061C57.4325 27.4138 57.4357 27.2215 57.4391 27.0234C57.44 26.9204 57.4409 26.8175 57.4418 26.7114C57.4453 26.385 57.4531 26.0588 57.4611 25.7325C57.4642 25.5102 57.4671 25.288 57.4696 25.0657C57.4765 24.5229 57.4873 23.9803 57.5001 23.4376C57.2403 23.4512 57.2403 23.4512 56.9752 23.465C56.7466 23.4724 56.5179 23.4795 56.2892 23.4864C56.1752 23.4929 56.0612 23.4995 55.9437 23.5062C55.3523 23.5197 55.0633 23.4914 54.6071 23.1025C54.3257 22.5613 54.2579 22.3201 54.3751 21.7188C54.6306 21.3125 54.9458 20.9742 55.2736 20.6251C55.4602 20.4182 55.6468 20.2113 55.8333 20.0043C55.9287 19.9 56.0241 19.7956 56.1224 19.6881C56.5614 19.2042 56.9874 18.7094 57.4123 18.213C57.4911 18.1211 57.57 18.0293 57.6513 17.9347C58.1117 17.3959 58.5463 16.8465 58.9632 16.2733C59.3331 15.7876 59.7244 15.3208 60.1173 14.8536C60.1931 14.7628 60.2688 14.6721 60.3469 14.5786C60.969 13.8437 61.5112 13.5113 62.5001 13.7501Z" fill="#2B5582"/>
<path d="M69.3409 55.1591L68.9432 56.5625H61.4943L61.892 55.1591H69.3409ZM65.7159 64L61.6477 59.0625L61.6364 57.9545H63.6534C64.1572 57.9545 64.5833 57.8769 64.9318 57.7216C65.2803 57.5663 65.5455 57.3409 65.7273 57.0455C65.9091 56.7462 66 56.3826 66 55.9545C66 55.3182 65.8106 54.8125 65.4318 54.4375C65.053 54.0625 64.4602 53.875 63.6534 53.875H61.4943L61.9091 52.3636H63.6534C64.5928 52.3636 65.3674 52.5133 65.9773 52.8125C66.5871 53.1117 67.0417 53.5265 67.3409 54.0568C67.6402 54.5871 67.7898 55.1989 67.7898 55.892C67.7898 56.5095 67.6667 57.0682 67.4205 57.5682C67.1742 58.0682 66.7822 58.4754 66.2443 58.7898C65.7064 59.1042 65 59.2879 64.125 59.3409L64.0739 59.3523L67.7898 63.9034V64H65.7159ZM69.3466 52.3636L68.9432 53.7784L62.9886 53.7443L63.392 52.3636H69.3466Z" fill="#2F4455"/>
<path d="M18.3409 55.1591L17.9432 56.5625H10.4943L10.892 55.1591H18.3409ZM14.7159 64L10.6477 59.0625L10.6364 57.9545H12.6534C13.1572 57.9545 13.5833 57.8769 13.9318 57.7216C14.2803 57.5663 14.5455 57.3409 14.7273 57.0455C14.9091 56.7462 15 56.3826 15 55.9545C15 55.3182 14.8106 54.8125 14.4318 54.4375C14.053 54.0625 13.4602 53.875 12.6534 53.875H10.4943L10.9091 52.3636H12.6534C13.5928 52.3636 14.3674 52.5133 14.9773 52.8125C15.5871 53.1117 16.0417 53.5265 16.3409 54.0568C16.6402 54.5871 16.7898 55.1989 16.7898 55.892C16.7898 56.5095 16.6667 57.0682 16.4205 57.5682C16.1742 58.0682 15.7822 58.4754 15.2443 58.7898C14.7064 59.1042 14 59.2879 13.125 59.3409L13.0739 59.3523L16.7898 63.9034V64H14.7159ZM18.3466 52.3636L17.9432 53.7784L11.9886 53.7443L12.392 52.3636H18.3466Z" fill="#2F4455"/>
<path d="M43.3409 34.1591L42.9432 35.5625H35.4943L35.892 34.1591H43.3409ZM39.7159 43L35.6477 38.0625L35.6364 36.9545H37.6534C38.1572 36.9545 38.5833 36.8769 38.9318 36.7216C39.2803 36.5663 39.5455 36.3409 39.7273 36.0455C39.9091 35.7462 40 35.3826 40 34.9545C40 34.3182 39.8106 33.8125 39.4318 33.4375C39.053 33.0625 38.4602 32.875 37.6534 32.875H35.4943L35.9091 31.3636H37.6534C38.5928 31.3636 39.3674 31.5133 39.9773 31.8125C40.5871 32.1117 41.0417 32.5265 41.3409 33.0568C41.6402 33.5871 41.7898 34.1989 41.7898 34.892C41.7898 35.5095 41.6667 36.0682 41.4205 36.5682C41.1742 37.0682 40.7822 37.4754 40.2443 37.7898C39.7064 38.1042 39 38.2879 38.125 38.3409L38.0739 38.3523L41.7898 42.9034V43H39.7159ZM43.3466 31.3636L42.9432 32.7784L36.9886 32.7443L37.392 31.3636H43.3466Z" fill="#2F4455"/>
<path d="M39.873 9.32621C40.1694 9.32753 40.1694 9.32753 40.4718 9.32888C46.0244 9.40033 51.4509 11.4782 55.625 15.1563C55.8405 15.4108 56.0518 15.6694 56.25 15.9375C56.0547 16.1817 56.0547 16.1817 55.7812 16.4063C55.2062 16.3474 54.8912 16.0625 54.4629 15.6934C49.837 11.9049 43.5916 10.3156 37.6951 10.8179C36.8397 10.9178 35.9986 11.0727 35.1562 11.25C35.0512 11.271 34.9461 11.2919 34.8378 11.3134C30.5339 12.1867 26.7622 14.3442 23.5938 17.3438C23.4556 17.4719 23.3174 17.6 23.175 17.732C20.3758 20.4123 18.3677 23.9255 17.3438 27.6563C17.2406 27.6047 17.1375 27.5532 17.0312 27.5C17.1071 26.4344 17.3336 25.5729 17.7441 24.5899C17.8001 24.4539 17.856 24.3179 17.9136 24.1778C20.4391 18.1523 25.0926 13.5089 31.1243 10.9668C33.9274 9.84204 36.8539 9.31192 39.873 9.32621Z" fill="#A6E2E9"/>
<path d="M32.3439 55.625C32.5847 55.6872 32.5847 55.6872 32.8304 55.7507C34.8023 56.2558 36.7084 56.637 38.7502 56.7188C38.8682 56.7241 38.9862 56.7294 39.1078 56.7348C41.7217 56.8383 44.4255 56.6299 46.8961 55.7155C47.1877 55.625 47.1877 55.625 47.6564 55.625C47.6564 56.5016 47.6564 57.3781 47.6564 58.2812C45.7605 59.0938 43.6185 59.3936 41.5645 59.4067C41.3918 59.4084 41.3918 59.4084 41.2156 59.41C40.8462 59.4127 40.4769 59.4137 40.1076 59.4141C39.9817 59.4143 39.8559 59.4145 39.7262 59.4147C33.4751 59.4124 33.4751 59.4124 32.3439 58.2812C32.3325 57.834 32.3295 57.3905 32.3341 56.9434C32.3348 56.8174 32.3356 56.6914 32.3363 56.5616C32.3381 56.2494 32.3409 55.9372 32.3439 55.625Z" fill="#2B5582"/>
<path d="M72.5093 47.9944C75.0805 50.01 76.9427 52.8523 77.4586 56.1163C77.5365 56.9417 77.5244 57.7659 77.5007 58.5938C77.4492 58.5938 77.3976 58.5938 77.3445 58.5938C77.3233 58.4085 77.3022 58.2232 77.2804 58.0322C76.9521 55.4575 76.1837 53.4342 74.532 51.4063C74.4223 51.2585 74.4223 51.2585 74.3104 51.1078C72.5569 48.8503 69.4995 47.4773 66.7195 47.0313C63.1787 46.6621 59.8174 47.6008 57.032 49.8438C56.9331 49.9171 56.8342 49.9904 56.7323 50.0659C54.4527 51.8395 53.1127 54.8665 52.7522 57.6605C52.7135 58.0237 52.6808 58.3857 52.657 58.75C52.6054 58.75 52.5538 58.75 52.5007 58.75C52.3603 55.3271 53.4082 52.1456 55.7234 49.5801C60.1699 44.8438 67.2816 44.2909 72.5093 47.9944Z" fill="#F8E0A6"/>
<path d="M22.5093 47.9944C25.0805 50.01 26.9427 52.8523 27.4586 56.1163C27.5365 56.9417 27.5244 57.7659 27.5007 58.5938C27.4492 58.5938 27.3976 58.5938 27.3445 58.5938C27.3233 58.4085 27.3022 58.2232 27.2804 58.0322C26.9521 55.4575 26.1837 53.4342 24.532 51.4063C24.4223 51.2585 24.4223 51.2585 24.3104 51.1078C22.5569 48.8503 19.4995 47.4773 16.7195 47.0313C13.1787 46.6621 9.81738 47.6008 7.03196 49.8438C6.93307 49.9171 6.83417 49.9904 6.73228 50.0659C4.45268 51.8395 3.1127 54.8665 2.75218 57.6605C2.71347 58.0237 2.68082 58.3857 2.65696 58.75C2.6054 58.75 2.55384 58.75 2.50071 58.75C2.36026 55.3271 3.40824 52.1456 5.72337 49.5801C10.1699 44.8438 17.2816 44.2909 22.5093 47.9944Z" fill="#F8E0A6"/>
<path d="M77.3439 58.5938C77.3955 58.5938 77.447 58.5938 77.5001 58.5938C77.4364 61.9774 76.0313 64.8229 73.7025 67.2504C72.3177 68.5785 70.5757 69.5685 68.7502 70.1562C68.6094 70.2028 68.4686 70.2493 68.3235 70.2972C65.0965 71.2031 61.764 70.6568 58.86 69.0851C55.9726 67.4507 53.8644 64.9024 52.9292 61.6986C52.6602 60.7051 52.4652 59.7905 52.5002 58.75C52.9223 59.1721 52.9432 59.5364 53.0763 60.1172C53.5373 61.9677 54.3868 63.5467 55.6252 65C55.7379 65.1547 55.8507 65.3094 55.9669 65.4688C58.0339 67.8825 61.2195 68.9506 64.2741 69.2554C67.5247 69.5046 70.6578 68.3524 73.1251 66.25C73.2798 66.1372 73.4345 66.0244 73.5939 65.9082C75.6671 64.1394 76.8884 61.209 77.3439 58.5938Z" fill="#D7B86E"/>
<path d="M27.3439 58.5938C27.3955 58.5938 27.447 58.5938 27.5001 58.5938C27.4364 61.9774 26.0313 64.8229 23.7025 67.2504C22.3177 68.5785 20.5757 69.5685 18.7502 70.1562C18.6094 70.2028 18.4686 70.2493 18.3235 70.2972C15.0965 71.2031 11.764 70.6568 8.86001 69.0851C5.97257 67.4507 3.86437 64.9024 2.92923 61.6986C2.66017 60.7051 2.4652 59.7905 2.50015 58.75C2.92229 59.1721 2.94317 59.5364 3.07632 60.1172C3.53727 61.9677 4.38682 63.5467 5.62515 65C5.73794 65.1547 5.85074 65.3094 5.96695 65.4688C8.03393 67.8825 11.2195 68.9506 14.2741 69.2554C17.5247 69.5046 20.6578 68.3524 23.1251 66.25C23.2798 66.1372 23.4345 66.0244 23.5939 65.9082C25.6671 64.1394 26.8884 61.209 27.3439 58.5938Z" fill="#D7B86E"/>
<path d="M38.4342 24.2909C38.5552 24.2889 38.6762 24.287 38.8009 24.285C39.0567 24.282 39.3126 24.2802 39.5684 24.2796C39.9569 24.2775 40.3445 24.2669 40.7328 24.2561C42.8123 24.2271 42.8123 24.2271 43.5636 24.875C43.7357 25.0677 43.9024 25.2654 44.0617 25.4688C44.2756 25.6812 44.2756 25.6812 44.4938 25.8979C47.5139 29.1697 50.7966 33.6538 50.6407 38.3235C50.6352 38.4127 50.6298 38.5019 50.6242 38.5938C50.3064 38.0446 50.2049 37.5032 50.0773 36.8849C49.2802 33.465 47.197 30.3368 44.8095 27.8057C44.5914 27.5668 44.3862 27.316 44.1866 27.0614C43.4862 26.2399 42.9415 25.7111 41.8454 25.5588C41.241 25.5109 40.6439 25.5106 40.0382 25.5274C39.9124 25.5288 39.7867 25.5302 39.6571 25.5317C38.337 25.5551 37.0963 25.5783 36.0595 26.4886C35.6918 26.8963 35.3729 27.3184 35.073 27.7782C34.8343 28.138 34.5749 28.4671 34.3009 28.8008C31.9214 31.7229 30.2835 34.8913 29.5304 38.5938C29.4789 38.5938 29.4273 38.5938 29.3742 38.5938C29.0388 34.7189 31.5355 30.6343 33.9088 27.7762C36.8528 24.3047 36.8528 24.3047 38.4342 24.2909Z" fill="#D49B73"/>
<path d="M29.375 38.9062C29.6695 39.4321 29.805 39.9542 29.9512 40.5371C30.6686 43.0637 32.127 45.162 34.4165 46.4911C34.628 46.6038 34.628 46.6038 34.8438 46.7188C34.9783 46.7923 35.1129 46.8658 35.2515 46.9415C37.7163 48.1776 40.6183 48.3073 43.2404 47.5293C45.8296 46.6504 47.9453 45.1144 49.2188 42.6562C49.8067 41.4451 50.1824 40.2196 50.4688 38.9062C50.5203 38.9062 50.5719 38.9062 50.625 38.9062C50.7705 41.3415 49.879 43.7762 48.2842 45.6227C47.9326 46.0048 47.5653 46.3623 47.1875 46.7188C47.0657 46.8358 46.9438 46.9528 46.8183 47.0734C44.4856 49.1238 41.5624 49.5489 38.5659 49.4129C37.5185 49.3228 36.5862 49.0044 35.625 48.5938C35.4703 48.5277 35.3157 48.4616 35.1563 48.3936C32.501 47.0961 30.6846 44.593 29.6711 41.8817C29.367 40.8838 29.3208 39.9445 29.375 38.9062Z" fill="#AB6F46"/>
<path d="M41.25 17.5C41.651 17.5355 42.0495 17.565 42.4512 17.5879C42.5608 17.5946 42.6705 17.6013 42.7835 17.6083C43.0536 17.6248 43.3236 17.6406 43.5938 17.6562C43.336 18.6643 43.0421 19.657 42.7148 20.6445C42.6808 20.7481 42.6467 20.8518 42.6116 20.9586C42.3631 21.6994 42.3631 21.6994 42.1875 21.875C41.8637 21.8887 41.5393 21.8917 41.2152 21.8902C41.0183 21.8897 40.8214 21.8892 40.6186 21.8887C40.4091 21.8874 40.1997 21.8861 39.9902 21.8847C39.7802 21.8839 39.5701 21.8832 39.36 21.8826C38.8442 21.8807 38.3283 21.8782 37.8125 21.875C37.4331 20.9458 37.0717 20.0159 36.7578 19.0625C36.7061 18.9093 36.7061 18.9093 36.6534 18.753C36.4062 18.0084 36.4062 18.0084 36.4062 17.6562C36.5646 17.6486 36.7229 17.6409 36.886 17.633C37.0972 17.6213 37.3084 17.6095 37.5195 17.5976C37.6235 17.5928 37.7274 17.588 37.8345 17.583C40.9493 17.3997 40.9493 17.3997 41.25 17.5Z" fill="#FCD980"/>
<path d="M32.0312 54.2188C32.3503 54.3203 32.3503 54.3203 32.6758 54.4238C35.0606 55.1369 37.5015 55.5307 39.9902 55.5273C40.2845 55.527 40.2845 55.527 40.5847 55.5266C42.9006 55.4966 45.1626 55.1502 47.3364 54.3335C47.6562 54.2188 47.6562 54.2188 47.9688 54.2188C47.9172 54.7859 47.8656 55.3531 47.8125 55.9375C47.7352 55.7828 47.7352 55.7828 47.6562 55.625C47.512 55.676 47.3678 55.7269 47.2192 55.7794C44.4286 56.7295 41.6847 56.9739 38.75 56.875C38.5558 56.8702 38.3617 56.8653 38.1616 56.8604C36.1792 56.7681 34.1869 56.3597 32.3438 55.625C32.2922 55.7281 32.2406 55.8312 32.1875 55.9375C32.1359 55.3703 32.0844 54.8031 32.0312 54.2188Z" fill="#5EAAB0"/>
<path d="M41.25 17.5C41.651 17.5355 42.0495 17.565 42.4512 17.5879C42.5608 17.5946 42.6705 17.6013 42.7835 17.6083C43.0536 17.6248 43.3236 17.6406 43.5938 17.6562C43.4391 18.1203 43.2844 18.5843 43.125 19.0625C41.6183 19.1252 41.6183 19.1252 40.8984 18.8183C40.1688 18.5077 39.6679 18.6393 38.9355 18.916C38.2907 19.1056 37.6982 19.0891 37.0312 19.0625C36.9797 19.1656 36.9281 19.2687 36.875 19.375C36.7203 18.8078 36.5656 18.2406 36.4062 17.6562C36.5646 17.6486 36.7229 17.6409 36.886 17.633C37.0972 17.6213 37.3084 17.6095 37.5195 17.5976C37.6235 17.5928 37.7274 17.588 37.8345 17.583C40.9493 17.3997 40.9493 17.3997 41.25 17.5Z" fill="#F4DFA6"/>
<path d="M61.7188 17.0312C63.1251 17.6159 64.2686 19.4342 65.1562 20.625C65.2336 20.857 65.2336 20.857 65.3125 21.0938C64.8538 21.1623 64.5161 21.1973 64.1294 20.9134C63.8758 20.6573 63.6407 20.3925 63.4082 20.1172C63.3269 20.0255 63.2457 19.9339 63.1619 19.8395C62.7639 19.3871 62.3837 18.9268 62.0312 18.4375C61.4083 18.6782 61.1092 19.0711 60.7031 19.5898C59.8285 20.7011 59.8285 20.7011 59.375 21.0938C58.8672 21.1328 58.8672 21.1328 58.4375 21.0938C58.7075 20.4326 59.174 19.9444 59.6387 19.4141C59.7225 19.3174 59.8064 19.2207 59.8927 19.121C60.1362 18.8405 60.3805 18.5608 60.625 18.2812C60.7461 18.1423 60.8671 18.0033 60.9918 17.8601C61.2335 17.5832 61.4757 17.3069 61.7188 17.0312Z" fill="#A4E0E7"/>
<path d="M52.8108 54.8438C52.9139 54.9469 53.017 55.05 53.1233 55.1562C53.09 55.581 53.0331 55.9859 52.967 56.4062C52.911 56.8228 52.8557 57.2395 52.801 57.6562C52.7732 57.8646 52.7453 58.0729 52.7174 58.2812C52.6863 58.5133 52.6863 58.5133 52.6545 58.75C52.603 58.75 52.5514 58.75 52.4983 58.75C52.463 57.4069 52.5108 56.156 52.8108 54.8438Z" fill="#EDD598"/>
<path d="M2.81077 54.8438C2.9139 54.9469 3.01702 55.05 3.12327 55.1562C3.08996 55.581 3.03314 55.9859 2.96702 56.4062C2.911 56.8228 2.85568 57.2395 2.80101 57.6562C2.7732 57.8646 2.74534 58.0729 2.71739 58.2812C2.68627 58.5133 2.68627 58.5133 2.65452 58.75C2.60296 58.75 2.5514 58.75 2.49827 58.75C2.46298 57.4069 2.51084 56.156 2.81077 54.8438Z" fill="#EDD598"/>
<path d="M29.3734 38.9062C29.6805 39.4456 29.8069 39.982 29.9398 40.5859C29.9805 40.7688 30.0212 40.9517 30.0631 41.1401C30.0933 41.2795 30.1235 41.4189 30.1547 41.5625C30 41.5625 29.8453 41.5625 29.6859 41.5625C29.3046 40.6806 29.3433 39.8473 29.3734 38.9062Z" fill="#A8744F"/>
<path d="M29.689 35.625C29.7921 35.6766 29.8953 35.7281 30.0015 35.7812C29.9101 36.7409 29.7608 37.6573 29.5328 38.5938C29.4812 38.5938 29.4296 38.5938 29.3765 38.5938C29.3375 37.5546 29.4172 36.6297 29.689 35.625Z" fill="#C49674"/>
<path d="M16.8749 27.1875C16.9781 27.2906 17.0812 27.3937 17.1874 27.5C17.1606 27.9187 17.1606 27.9187 17.0703 28.418C17.0421 28.5819 17.0139 28.7459 16.9848 28.9148C16.8873 29.3232 16.7692 29.6374 16.5624 30C16.3256 29.379 16.4845 28.8742 16.6308 28.2422C16.6757 28.0448 16.7206 27.8474 16.7669 27.644C16.8026 27.4934 16.8382 27.3427 16.8749 27.1875Z" fill="#8FC7D0"/>
<path d="M50 35.9375C50.1031 35.9375 50.2062 35.9375 50.3125 35.9375C50.6268 36.8412 50.6595 37.641 50.625 38.5938C50.3045 38.0497 50.2237 37.5355 50.1367 36.9141C50.1105 36.7312 50.0844 36.5483 50.0574 36.3599C50.0384 36.2205 50.0195 36.0811 50 35.9375Z" fill="#C49673"/>
<path d="M50.4683 38.9062C50.5199 38.9062 50.5715 38.9062 50.6246 38.9062C50.7111 40.556 50.7111 40.556 50.1558 41.25C49.9622 40.6691 50.0667 40.4002 50.2242 39.8145C50.2916 39.5598 50.2916 39.5598 50.3603 39.2999C50.396 39.17 50.4316 39.0401 50.4683 38.9062Z" fill="#AD764E"/>
<path d="M17.1875 26.0938C17.2391 26.1969 17.2906 26.3 17.3438 26.4062C17.4469 26.4578 17.55 26.5094 17.6562 26.5625C17.5531 26.9234 17.45 27.2844 17.3438 27.6562C17.2406 27.6047 17.1375 27.5531 17.0312 27.5C17.0828 27.0359 17.1344 26.5719 17.1875 26.0938Z" fill="#9CDAE2"/>
<path d="M16.875 27.1875C16.9781 27.2906 17.0812 27.3937 17.1875 27.5C17.1824 27.9264 17.0994 28.3276 17.0312 28.75C16.9281 28.6469 16.825 28.5438 16.7188 28.4375C16.7239 28.0111 16.8069 27.6099 16.875 27.1875Z" fill="#94CED7"/>
</g>
<defs>
<clipPath id="clip0_7017_5753">
<rect width="80" height="80" fill="white"/>
</clipPath>
</defs>
</svg>
