<svg width="80" height="80" viewBox="0 0 80 80" fill="none" xmlns="http://www.w3.org/2000/svg">
<path d="M69.6862 5.62523C69.8193 5.70076 69.9525 5.77629 70.0896 5.85411C73.2186 7.79916 75.2117 11.0037 76.0924 14.5315C76.9526 18.2679 76.0506 21.9451 74.099 25.137C72.0379 28.2047 69.0509 30.2299 65.4674 31.094C61.7459 31.7906 58.2518 31.0779 54.9987 29.219C54.9987 30.1471 54.9987 31.0752 54.9987 32.0315C55.3081 32.083 55.6174 32.1346 55.9362 32.1877C56.2527 32.6626 56.2882 32.7581 56.2936 33.2917C56.2956 33.4207 56.2977 33.5497 56.2997 33.6826C56.3003 33.8236 56.3009 33.9646 56.3015 34.1098C56.3033 34.2588 56.3051 34.4077 56.307 34.5612C56.3124 35.0548 56.3152 35.5484 56.3177 36.0421C56.3187 36.2108 56.3198 36.3794 56.3209 36.5532C56.3265 37.4462 56.3302 38.3392 56.3323 39.2321C56.3349 40.1536 56.3441 41.0748 56.3547 41.9962C56.3617 42.7055 56.3638 43.4147 56.3646 44.1239C56.3659 44.4635 56.3689 44.8031 56.3739 45.1426C56.3804 45.6188 56.3799 46.0946 56.3778 46.5708C56.3813 46.7102 56.3847 46.8496 56.3882 46.9932C56.374 47.9525 56.1105 48.4241 55.4396 49.1046C55.3456 49.1939 55.2517 49.2832 55.1549 49.3752C55.0281 49.5087 54.9012 49.6421 54.7704 49.7796C54.6545 49.8957 54.5385 50.0118 54.419 50.1314C54.2855 50.2653 54.1521 50.3993 54.0147 50.5372C53.8041 50.7473 53.8041 50.7473 53.5894 50.9615C53.441 51.11 53.2927 51.2585 53.1444 51.407C52.8362 51.7154 52.5277 52.0236 52.219 52.3315C51.8232 52.7264 51.4281 53.122 51.0332 53.5179C50.7283 53.8234 50.423 54.1285 50.1176 54.4335C49.9008 54.6501 49.6844 54.867 49.4679 55.084C49.337 55.2144 49.206 55.3449 49.0711 55.4793C48.898 55.6522 48.898 55.6522 48.7215 55.8285C48.1172 56.3907 47.4599 56.2756 46.6781 56.2779C46.5282 56.2789 46.3783 56.2799 46.2239 56.281C45.7264 56.2841 45.2289 56.2859 44.7314 56.2875C44.5618 56.2881 44.3922 56.2887 44.2174 56.2894C43.3201 56.2927 42.4228 56.2949 41.5255 56.2964C40.5972 56.2981 39.669 56.3035 38.7407 56.3097C38.0281 56.3137 37.3156 56.3151 36.603 56.3156C36.2607 56.3164 35.9185 56.3182 35.5762 56.3211C35.0977 56.3249 34.6194 56.3248 34.1409 56.3237C33.999 56.3257 33.8571 56.3277 33.7109 56.3297C32.7593 56.3218 32.7593 56.3218 32.2496 55.9722C32.0299 55.6252 32.0299 55.6252 32.0299 55.0002C31.1018 55.0002 30.1737 55.0002 29.2174 55.0002C29.4108 55.3708 29.6042 55.7414 29.8034 56.1233C31.4205 59.2995 31.8863 63.177 30.8416 66.625C29.3045 70.5948 26.7179 73.5894 22.8059 75.34C19.7677 76.6151 16.0753 76.7137 12.9674 75.6252C12.8055 75.5704 12.6436 75.5157 12.4767 75.4592C8.82866 74.084 6.24646 71.3113 4.66139 67.8107C3.37625 64.7757 3.23516 60.9191 4.37369 57.8127C4.55481 57.4068 4.74324 57.0902 4.99869 56.719C5.32889 56.6042 5.32889 56.6042 5.67252 56.6018C6.21526 56.5253 6.37276 56.4427 6.74491 56.0238C7.03137 55.5846 7.29352 55.1705 7.49869 54.6877C7.44713 54.533 7.39556 54.3784 7.34244 54.219C7.26686 53.5388 7.2662 53.2338 7.66471 52.6662C8.23227 52.2677 8.53722 52.2684 9.21744 52.344C9.37213 52.3955 9.52682 52.4471 9.68619 52.5002C10.3282 52.2274 10.8837 51.8695 11.4049 51.4065C11.5548 51.0258 11.5998 50.7378 11.6027 50.3304C11.7647 49.8642 12.0779 49.7306 12.5025 49.513C15.1817 48.3174 18.8323 48.3281 21.6131 49.1537C22.6788 49.5657 23.6839 50.0791 24.6862 50.6252C24.7893 50.6768 24.8924 50.7284 24.9987 50.7815C24.9987 49.8534 24.9987 48.9252 24.9987 47.969C24.6893 47.9174 24.3799 47.8659 24.0612 47.8127C23.6993 47.2699 23.7089 47.0606 23.7069 46.4198C23.7056 46.2268 23.7042 46.0338 23.7029 45.835C23.703 45.6207 23.7031 45.4065 23.7033 45.1922C23.7024 44.9669 23.7013 44.7415 23.7001 44.5162C23.6974 43.9038 23.6966 43.2914 23.6964 42.679C23.6961 42.168 23.695 41.657 23.6939 41.1459C23.6913 39.9405 23.6906 38.7351 23.6908 37.5296C23.691 36.2855 23.6877 35.0415 23.6827 33.7974C23.6787 32.7297 23.677 31.662 23.6772 30.5943C23.6773 29.9564 23.6764 29.3186 23.6731 28.6807C23.67 28.0809 23.67 27.4811 23.6723 26.8813C23.6726 26.6611 23.6719 26.4408 23.67 26.2206C23.6676 25.9202 23.6694 25.6197 23.6714 25.3192C23.6713 25.151 23.6711 24.9828 23.6709 24.8095C23.7703 24.2545 23.9148 24.0737 24.3737 23.7502C24.8076 23.6716 24.8076 23.6716 25.3166 23.6709C25.6065 23.6682 25.6065 23.6682 25.9021 23.6655C26.1158 23.6667 26.3295 23.668 26.5432 23.6694C26.7686 23.6685 26.9939 23.6674 27.2193 23.666C27.8311 23.6632 28.4428 23.6643 29.0545 23.6663C29.6947 23.6679 30.3348 23.6664 30.9749 23.6654C32.0499 23.6643 33.1248 23.6658 34.1998 23.6688C35.4428 23.6722 36.6857 23.671 37.9286 23.6676C38.9957 23.6648 40.0627 23.6644 41.1297 23.666C41.7671 23.667 42.4044 23.6671 43.0417 23.665C43.641 23.6632 44.2401 23.6645 44.8393 23.6681C45.0592 23.6689 45.2792 23.6687 45.4991 23.6673C45.7993 23.6656 46.0994 23.6681 46.3995 23.6709C46.5675 23.6711 46.7355 23.6713 46.9086 23.6716C47.4538 23.7704 47.6427 23.9314 47.9674 24.3752C47.9674 24.5815 47.9674 24.7877 47.9674 25.0002C48.8956 25.0002 49.8237 25.0002 50.7799 25.0002C50.5866 24.6296 50.3932 24.259 50.194 23.8772C48.5765 20.7002 48.1127 16.8251 49.1552 13.3761C49.5678 12.3122 50.0609 11.3048 50.6237 10.3127C50.6992 10.1796 50.7748 10.0465 50.8526 9.90929C52.7976 6.7803 56.0022 4.78717 59.5299 3.90648C63.0747 3.09042 66.5955 3.87177 69.6862 5.62523Z" fill="#F1F1F1"/>
<path d="M24.6862 50.6251C24.8409 50.7024 24.8409 50.7024 24.9987 50.7813C24.9987 50.8845 24.9987 50.9876 24.9987 51.0938C25.1612 51.1443 25.1612 51.1443 25.3271 51.1958C25.9015 51.4628 26.3208 51.8451 26.776 52.2755C26.8651 52.3587 26.9542 52.442 27.0459 52.5278C27.7368 53.1853 28.4019 53.8717 28.9049 54.6876C28.9049 54.7907 28.9049 54.8938 28.9049 55.0001C29.0081 55.0001 29.1112 55.0001 29.2174 55.0001C31.1252 58.6073 32.0657 62.5847 30.8416 66.6248C29.3045 70.5946 26.7179 73.5892 22.8059 75.3399C19.7677 76.6149 16.0753 76.7135 12.9674 75.6251C12.8055 75.5703 12.6436 75.5155 12.4767 75.4591C8.82866 74.0839 6.24646 71.3111 4.66139 67.8105C3.37625 64.7756 3.23516 60.9189 4.37369 57.8126C4.55481 57.4067 4.74324 57.0901 4.99869 56.7188C5.32889 56.6041 5.32889 56.6041 5.67252 56.6016C6.21526 56.5251 6.37276 56.4426 6.74491 56.0236C7.03137 55.5845 7.29352 55.1704 7.49869 54.6876C7.44713 54.5329 7.39556 54.3782 7.34244 54.2188C7.26686 53.5386 7.2662 53.2337 7.66471 52.6661C8.23227 52.2676 8.53722 52.2683 9.21744 52.3438C9.37213 52.3954 9.52682 52.447 9.68619 52.5001C10.3282 52.2272 10.8837 51.8693 11.4049 51.4063C11.5548 51.0257 11.5998 50.7376 11.6027 50.3303C11.7647 49.864 12.0779 49.7304 12.5025 49.5128C16.4671 47.7436 21.0405 48.6386 24.6862 50.6251Z" fill="#FDC742"/>
<path d="M21.3409 59.1591L20.9432 60.5625H13.4943L13.892 59.1591H21.3409ZM17.7159 68L13.6477 63.0625L13.6364 61.9545H15.6534C16.1572 61.9545 16.5833 61.8769 16.9318 61.7216C17.2803 61.5663 17.5455 61.3409 17.7273 61.0455C17.9091 60.7462 18 60.3826 18 59.9545C18 59.3182 17.8106 58.8125 17.4318 58.4375C17.053 58.0625 16.4602 57.875 15.6534 57.875H13.4943L13.9091 56.3636H15.6534C16.5928 56.3636 17.3674 56.5133 17.9773 56.8125C18.5871 57.1117 19.0417 57.5265 19.3409 58.0568C19.6402 58.5871 19.7898 59.1989 19.7898 59.892C19.7898 60.5095 19.6667 61.0682 19.4205 61.5682C19.1742 62.0682 18.7822 62.4754 18.2443 62.7898C17.7064 63.1042 17 63.2879 16.125 63.3409L16.0739 63.3523L19.7898 67.9034V68H17.7159ZM21.3466 56.3636L20.9432 57.7784L14.9886 57.7443L15.392 56.3636H21.3466Z" fill="black"/>
<path d="M69.0232 8.24233C70.9576 9.74495 72.4489 11.5789 73.281 13.9064C73.3276 14.0343 73.3741 14.1622 73.422 14.294C74.3348 17.2763 73.7496 20.4025 72.3197 23.1013C71.9145 23.7926 71.4711 24.4035 70.9373 25.0001C70.835 25.117 70.7326 25.2338 70.6272 25.3541C69.157 26.9316 67.3601 27.8297 65.3123 28.4376C65.1238 28.4954 65.1238 28.4954 64.9314 28.5542C61.956 29.3032 58.9945 28.5553 56.406 27.0314C55.8512 26.6479 55.3441 26.2329 54.8435 25.7814C54.7348 25.6871 54.626 25.5929 54.5139 25.4958C52.992 24.0918 52.1437 22.2709 51.5623 20.3126C51.5238 20.187 51.4853 20.0613 51.4457 19.9318C50.7008 16.9726 51.4385 13.975 52.9363 11.388C53.4627 10.5667 54.1448 9.89283 54.8435 9.2189C54.9424 9.11517 55.0413 9.01144 55.1432 8.90457C58.7829 5.32919 65.0139 5.45104 69.0232 8.24233Z" fill="#13B440"/>
<path d="M69.6892 5.62523C69.8224 5.70076 69.9555 5.77629 70.0927 5.85411C73.2217 7.79916 75.2148 11.0037 76.0955 14.5315C76.9557 18.2679 76.0536 21.9451 74.1021 25.137C72.0409 28.2047 69.0539 30.2299 65.4705 31.094C61.8346 31.7746 58.1527 31.1525 55.0017 29.219C55.0017 29.1159 55.0017 29.0127 55.0017 28.9065C54.8392 28.856 54.8392 28.856 54.6734 28.8046C54.099 28.5375 53.6796 28.1552 53.2244 27.7248C53.1353 27.6416 53.0463 27.5583 52.9545 27.4725C52.2636 26.815 51.5985 26.1286 51.0955 25.3127C51.0955 25.2096 51.0955 25.1065 51.0955 25.0002C50.9924 25.0002 50.8892 25.0002 50.783 25.0002C48.8747 21.3921 47.9367 17.4175 49.1582 13.3761C49.5709 12.3122 50.0639 11.3048 50.6267 10.3127C50.7023 10.1796 50.7778 10.0465 50.8556 9.90929C52.8007 6.7803 56.0052 4.78717 59.533 3.90648C63.0778 3.09042 66.5985 3.87177 69.6892 5.62523ZM54.2205 9.84398C54.1168 9.94288 54.013 10.0418 53.9062 10.1437C52.1322 11.9495 51.2035 14.7929 51.1834 17.2659C51.2287 20.4851 52.3618 23.2134 54.5525 25.5666C55.7616 26.7318 57.3203 27.7319 58.908 28.2815C59.105 28.351 59.105 28.351 59.3059 28.4219C62.2384 29.3048 65.455 28.7318 68.1267 27.344C71.1394 25.5031 72.8668 22.8014 73.6897 19.4027C74.2354 16.4113 73.4209 13.5091 71.7687 11.0061C71.5061 10.6552 71.2314 10.3268 70.9392 10.0002C70.7858 9.825 70.7858 9.825 70.6292 9.64623C69.159 8.06873 67.3621 7.17068 65.3142 6.56273C65.1886 6.52426 65.0629 6.48579 64.9334 6.44615C60.9619 5.44639 56.9784 6.9844 54.2205 9.84398Z" fill="#2B5582"/>
<path d="M24.6862 50.6249C24.8409 50.7022 24.8409 50.7022 24.9987 50.7812C24.9987 50.8843 24.9987 50.9874 24.9987 51.0937C25.1612 51.1441 25.1612 51.1441 25.3271 51.1956C25.9015 51.4627 26.3208 51.8449 26.776 52.2753C26.8651 52.3586 26.9542 52.4418 27.0459 52.5276C27.7368 53.1851 28.4019 53.8716 28.9049 54.6874C28.9049 54.7905 28.9049 54.8937 28.9049 54.9999C29.0081 54.9999 29.1112 54.9999 29.2174 54.9999C31.1252 58.6071 32.0657 62.5846 30.8416 66.6247C29.3045 70.5945 26.7179 73.5891 22.8059 75.3397C19.7677 76.6148 16.0753 76.7134 12.9674 75.6249C12.8055 75.5701 12.6436 75.5153 12.4767 75.4589C8.82866 74.0837 6.24646 71.3109 4.66139 67.8103C3.37625 64.7754 3.23516 60.9188 4.37369 57.8124C4.88014 56.7779 4.88014 56.7779 5.31119 56.5624C5.82877 56.494 5.82877 56.494 6.40494 56.5624C6.87369 56.9628 6.87369 56.9628 7.18619 57.4999C7.13217 58.2314 6.94844 58.862 6.70767 59.5507C5.85498 62.4836 6.43038 65.4457 7.83377 68.0999C8.23884 68.7898 8.687 69.4021 9.21744 69.9999C9.29499 70.0919 9.37253 70.184 9.45243 70.2788C11.0706 72.0592 13.7351 73.4021 16.1224 73.6257C16.4842 73.6411 16.8436 73.6451 17.2057 73.6425C17.4003 73.6412 17.4003 73.6412 17.5989 73.6398C20.6969 73.5795 23.3234 72.3808 25.5749 70.2831C27.8487 67.9076 28.7034 64.808 28.6407 61.6045C28.5361 59.1747 27.3853 56.8012 25.7799 54.9999C25.6891 54.8946 25.5983 54.7892 25.5047 54.6807C24.0962 53.1542 22.276 52.302 20.3112 51.7187C20.1855 51.6802 20.0598 51.6417 19.9303 51.6021C18.0242 51.1222 15.9177 51.2455 14.0734 51.8792C13.5424 52.047 13.0543 52.1463 12.4987 52.1874C11.9616 51.8749 11.9616 51.8749 11.5612 51.4062C11.4635 50.8495 11.4635 50.8495 11.5612 50.3124C11.9816 49.8032 12.3678 49.5702 12.987 49.3554C13.1906 49.2823 13.1906 49.2823 13.3983 49.2077C17.3602 48.0716 21.1355 48.6901 24.6862 50.6249Z" fill="#2B5582"/>
<path d="M25.318 23.6707C25.5112 23.6689 25.7044 23.6672 25.9035 23.6654C26.1172 23.6666 26.3309 23.6679 26.5446 23.6692C26.7699 23.6683 26.9953 23.6672 27.2207 23.6659C27.8324 23.663 28.4441 23.6641 29.0559 23.6661C29.696 23.6677 30.3361 23.6662 30.9763 23.6652C32.0513 23.6641 33.1262 23.6656 34.2012 23.6686C35.4442 23.672 36.687 23.6709 37.93 23.6674C38.997 23.6646 40.064 23.6642 41.1311 23.6658C41.7684 23.6668 42.4058 23.6669 43.0431 23.6649C43.6423 23.6631 44.2415 23.6643 44.8406 23.6679C45.0606 23.6688 45.2806 23.6685 45.5005 23.6672C45.8006 23.6654 46.1008 23.668 46.4009 23.6707C46.5689 23.6709 46.7369 23.6712 46.9099 23.6714C47.4537 23.77 47.6386 23.9385 47.9688 24.3751C48.0469 24.9219 48.0469 24.9219 47.9688 25.4688C47.6771 25.8383 47.45 26.0407 47.0313 26.2501C46.7561 26.2646 46.4804 26.2691 46.2048 26.2689C46.0295 26.2691 45.8542 26.2693 45.6736 26.2695C45.4804 26.2689 45.2872 26.2684 45.0882 26.2678C44.8854 26.2678 44.6827 26.2678 44.4738 26.2679C43.917 26.2679 43.3601 26.267 42.8033 26.2659C42.2217 26.2649 41.6401 26.2648 41.0585 26.2647C39.9567 26.2642 38.855 26.2629 37.7532 26.2613C36.4991 26.2596 35.2449 26.2587 33.9908 26.2579C31.4105 26.2563 28.8303 26.2535 26.2501 26.2501C26.2501 27.0751 26.2501 27.9001 26.2501 28.7501C26.554 28.7494 26.858 28.7487 27.1712 28.748C30.0315 28.7416 32.8917 28.7369 35.752 28.7339C37.2226 28.7323 38.6932 28.7301 40.1638 28.7265C41.4454 28.7234 42.727 28.7214 44.0086 28.7207C44.6873 28.7203 45.3661 28.7193 46.0448 28.717C46.6835 28.7149 47.3222 28.7142 47.9608 28.7147C48.1954 28.7146 48.43 28.714 48.6645 28.7128C48.9845 28.7113 49.3045 28.7118 49.6245 28.7125C49.8037 28.7122 49.9829 28.7119 50.1675 28.7116C50.6183 28.7495 50.8765 28.8131 51.2501 29.0626C51.4981 29.5587 51.4705 30.0847 51.4063 30.6251C51.1652 30.9649 50.9943 31.0654 50.6251 31.2501C50.3044 31.2648 49.9832 31.2691 49.6621 31.2689C49.3538 31.2692 49.3538 31.2692 49.0393 31.2695C48.8102 31.269 48.5811 31.2684 48.352 31.2678C48.1118 31.2678 47.8717 31.2678 47.6315 31.2679C46.9781 31.2679 46.3247 31.267 45.6714 31.2659C44.989 31.2649 44.3067 31.2648 43.6244 31.2647C42.3317 31.2642 41.039 31.2629 39.7464 31.2613C38.2749 31.2596 36.8035 31.2587 35.3321 31.2579C32.3048 31.2563 29.2774 31.2535 26.2501 31.2501C26.2508 31.4464 26.2515 31.6427 26.2522 31.845C26.2585 33.6935 26.2632 35.542 26.2663 37.3905C26.2679 38.3409 26.2701 39.2913 26.2736 40.2417C26.277 41.1586 26.2789 42.0754 26.2797 42.9923C26.2803 43.3424 26.2814 43.6925 26.2831 44.0426C26.2854 44.5323 26.2857 45.022 26.2855 45.5117C26.2872 45.7297 26.2872 45.7297 26.2889 45.9521C26.2885 46.0857 26.2881 46.2193 26.2876 46.357C26.2879 46.4728 26.2882 46.5886 26.2885 46.7079C26.2431 47.0898 26.1427 47.3317 25.9376 47.6563C25.3562 48.0439 25.0629 48.0412 24.3751 47.9688C23.9372 47.6398 23.77 47.4539 23.6714 46.9099C23.6712 46.742 23.6709 46.574 23.6707 46.4009C23.6689 46.2077 23.6672 46.0144 23.6654 45.8154C23.6666 45.6017 23.6679 45.388 23.6692 45.1743C23.6683 44.949 23.6672 44.7236 23.6659 44.4982C23.663 43.8864 23.6641 43.2747 23.6661 42.663C23.6677 42.0228 23.6662 41.3827 23.6652 40.7426C23.6641 39.6676 23.6656 38.5927 23.6686 37.5177C23.672 36.2747 23.6709 35.0318 23.6674 33.7889C23.6646 32.7218 23.6642 31.6548 23.6658 30.5878C23.6668 29.9504 23.6669 29.3131 23.6649 28.6758C23.6631 28.0766 23.6643 27.4774 23.6679 26.8782C23.6688 26.6583 23.6685 26.4383 23.6672 26.2184C23.6654 25.9183 23.668 25.6181 23.6707 25.318C23.6709 25.15 23.6712 24.982 23.6714 24.8089C23.8453 23.8498 24.4206 23.672 25.318 23.6707Z" fill="#2B5582"/>
<path d="M70.4687 35.9376C70.9152 36.2901 71.2165 36.6011 71.287 37.1785C71.7777 45.067 69.8231 52.9724 64.8437 59.2189C64.7442 59.3502 64.6447 59.4815 64.5422 59.6168C61.4751 63.5552 57.464 66.4939 52.9687 68.5939C52.7927 68.6772 52.6167 68.7606 52.4353 68.8465C49.108 70.3504 45.3142 71.2888 41.6547 71.2654C41.5214 71.2651 41.3881 71.2649 41.2508 71.2647C40.8306 71.2638 40.4104 71.2619 39.9902 71.2599C39.7031 71.2591 39.4159 71.2584 39.1287 71.2577C38.4296 71.256 37.7304 71.2533 37.0312 71.2501C37.1344 71.4048 37.2375 71.5595 37.3437 71.7189C37.4329 72.4066 37.4231 72.703 37.0117 73.2716C36.5625 73.5939 36.5625 73.5939 36.123 73.711C34.8979 73.4228 34.1721 72.2856 33.4473 71.3282C33.3715 71.23 33.2957 71.1318 33.2177 71.0306C32.7477 70.387 32.5129 69.8842 32.5 69.0626C33.3163 67.7902 34.9175 66.6263 36.25 65.9376C36.8567 65.9482 37.2183 66.0102 37.7246 66.3478C38.0652 66.8654 38.0447 67.2048 37.9687 67.8126C37.7301 68.1593 37.7301 68.1593 37.5 68.4376C41.7453 68.5439 41.7453 68.5439 45.9375 67.9689C46.0725 67.9386 46.2075 67.9084 46.3467 67.8773C48.5555 67.3666 50.6108 66.5969 52.6562 65.6251C52.7643 65.574 52.8724 65.5228 52.9838 65.4702C55.2927 64.3575 57.3593 62.8505 59.2187 61.0939C59.4265 60.9173 59.6348 60.7415 59.8437 60.5665C65.1989 55.866 68.077 48.5322 68.5352 41.5528C68.5834 40.7835 68.5949 40.0219 68.5754 39.2512C68.5707 39.0196 68.5707 39.0196 68.5659 38.7834C68.5586 38.4804 68.5478 38.1775 68.5331 37.8748C68.5157 37.1535 68.5117 36.83 68.952 36.2336C69.5043 35.8471 69.808 35.8295 70.4687 35.9376Z" fill="#2B5582"/>
<path d="M43.8779 6.28906C45.1031 6.57734 45.8288 7.71451 46.5537 8.67188C46.6294 8.77008 46.7052 8.86828 46.7833 8.96946C47.2533 9.61311 47.488 10.1159 47.5009 10.9375C46.6847 12.2099 45.0834 13.3738 43.7509 14.0625C43.1442 14.0519 42.7827 13.9899 42.2763 13.6523C41.9358 13.1347 41.9562 12.7953 42.0322 12.1875C42.2708 11.8408 42.2708 11.8408 42.5009 11.5625C38.2556 11.4562 38.2556 11.4562 34.0634 12.0312C33.9284 12.0615 33.7934 12.0917 33.6543 12.1228C31.4455 12.6335 29.3902 13.4032 27.3447 14.375C27.2366 14.4261 27.1285 14.4773 27.0172 14.53C24.7082 15.6426 22.6416 17.1496 20.7822 18.9062C20.5745 19.0828 20.3661 19.2586 20.1572 19.4336C14.8903 24.0566 11.9534 31.3083 11.4871 38.1863C11.4321 39.0868 11.4019 39.9784 11.4255 40.8807C11.4286 41.0284 11.4318 41.176 11.435 41.328C11.4424 41.6151 11.4531 41.902 11.4678 42.1888C11.4857 42.8899 11.4813 43.182 11.0489 43.761C10.4971 44.1543 10.1961 44.1711 9.53219 44.0625C9.0857 43.71 8.78439 43.399 8.7139 42.8216C8.22321 34.9331 10.1778 27.0277 15.1572 20.7812C15.3064 20.5843 15.3064 20.5843 15.4587 20.3833C19.9482 14.6185 26.6257 10.683 33.7509 9.21875C33.9291 9.18038 33.9291 9.18038 34.1109 9.14124C37.0161 8.53956 40.0194 8.70548 42.9697 8.75C42.815 8.51797 42.815 8.51797 42.6572 8.28125C42.568 7.59346 42.5779 7.29713 42.9892 6.72852C43.4384 6.40625 43.4384 6.40625 43.8779 6.28906Z" fill="#2B5582"/>
<path d="M55.0882 31.9434C55.6253 32.0312 55.6253 32.0312 55.9658 32.2573C56.3941 32.858 56.3413 33.406 56.3386 34.1273C56.3414 34.3508 56.3414 34.3508 56.3442 34.5787C56.3493 35.0716 56.3498 35.5643 56.3498 36.0571C56.3514 36.4001 56.3531 36.743 56.3549 37.0859C56.358 37.8052 56.3585 38.5244 56.3575 39.2437C56.3566 40.1639 56.3635 41.0839 56.3725 42.0041C56.3783 42.7127 56.379 43.4212 56.3784 44.1298C56.3788 44.4689 56.381 44.8081 56.385 45.1472C56.39 45.6226 56.3881 46.0976 56.3844 46.573C56.3873 46.7122 56.3903 46.8514 56.3933 46.9948C56.3757 47.9524 56.1105 48.4247 55.441 49.1043C55.3471 49.1936 55.2532 49.283 55.1565 49.375C55.0296 49.5084 54.9028 49.6419 54.772 49.7793C54.656 49.8954 54.5401 50.0116 54.4206 50.1312C54.2871 50.2651 54.1537 50.399 54.0162 50.537C53.8759 50.677 53.7356 50.817 53.591 50.9613C53.4426 51.1098 53.2943 51.2582 53.146 51.4067C52.8378 51.7152 52.5293 52.0233 52.2206 52.3313C51.8248 52.7262 51.4297 53.1218 51.0348 53.5176C50.7299 53.8231 50.4246 54.1282 50.1192 54.4333C49.9024 54.6499 49.686 54.8668 49.4695 55.0837C49.2731 55.2794 49.2731 55.2794 49.0727 55.4791C48.9573 55.5943 48.8419 55.7096 48.7231 55.8283C48.1188 56.3905 47.4615 56.2754 46.6797 56.2777C46.5298 56.2787 46.3799 56.2797 46.2254 56.2808C45.7279 56.2839 45.2304 56.2857 44.7329 56.2872C44.5633 56.2879 44.3938 56.2885 44.219 56.2892C43.3217 56.2924 42.4244 56.2947 41.5271 56.2961C40.5988 56.2979 39.6706 56.3032 38.7423 56.3094C38.0297 56.3135 37.3172 56.3148 36.6046 56.3154C36.2623 56.3161 35.9201 56.318 35.5778 56.3209C35.0993 56.3246 34.621 56.3245 34.1425 56.3234C34.0006 56.3254 33.8587 56.3274 33.7125 56.3295C32.7575 56.3216 32.7575 56.3216 32.2566 55.9665C31.9204 55.4565 31.9373 55.1282 32.0315 54.5312C32.4645 53.9513 32.6938 53.7685 33.4169 53.6561C33.6562 53.6538 33.8957 53.6558 34.135 53.6613C34.3318 53.6611 34.3318 53.6611 34.5325 53.661C34.9646 53.6615 35.3965 53.6676 35.8285 53.6737C36.1287 53.6752 36.4288 53.6763 36.729 53.6771C37.5179 53.68 38.3067 53.6877 39.0955 53.6964C39.9009 53.7044 40.7064 53.7079 41.5118 53.7119C43.0913 53.7202 44.6708 53.7336 46.2503 53.75C46.2462 53.5506 46.2421 53.3511 46.2379 53.1456C46.2237 52.4046 46.2148 51.6635 46.2074 50.9224C46.2034 50.6018 46.1981 50.2813 46.1913 49.9607C46.1818 49.4996 46.1774 49.0385 46.174 48.5773C46.1679 48.3629 46.1679 48.3629 46.1618 48.1441C46.1615 47.4811 46.1939 47.1223 46.549 46.5488C47.2335 46.125 47.7878 46.1514 48.5775 46.1737C48.7996 46.1754 48.7996 46.1754 49.0261 46.1771C49.4974 46.1814 49.9685 46.1912 50.4397 46.2012C50.7599 46.2051 51.08 46.2087 51.4001 46.2119C52.1836 46.2205 52.9669 46.2339 53.7503 46.25C53.7485 46.0834 53.7468 45.9168 53.745 45.7451C53.7292 44.1749 53.7175 42.6047 53.7098 41.0344C53.7057 40.2271 53.7002 39.4198 53.6913 38.6126C53.6828 37.8335 53.6782 37.0544 53.6762 36.2753C53.6747 35.9781 53.6719 35.6809 53.6677 35.3837C53.662 34.9673 53.6612 34.5511 53.6616 34.1347C53.6574 33.9504 53.6574 33.9504 53.6531 33.7625C53.659 33.137 53.7248 32.8455 54.1117 32.3447C54.5315 32.0312 54.5315 32.0312 55.0882 31.9434Z" fill="#2B5582"/>
<path d="M47.9688 25.0002C50.7275 24.7184 50.7275 24.7184 51.5411 25.3444C51.8445 25.7895 52.0951 26.2416 52.3438 26.7189C53.0054 27.5332 53.7955 28.0724 54.6967 28.5988C55 28.9064 55 28.9064 55 30.0002C53.8656 30.0002 52.7313 30.0002 51.5625 30.0002C51.5109 30.1033 51.4594 30.2064 51.4062 30.3127C51.3547 29.9002 51.3031 29.4877 51.25 29.0627C50.7027 28.895 50.1952 28.8849 49.6245 28.8817C49.4185 28.8802 49.2126 28.8787 49.0004 28.8771C48.7724 28.8762 48.5445 28.8753 48.3165 28.8744C48.0763 28.8729 47.836 28.8713 47.5958 28.8697C46.9437 28.8655 46.2917 28.8622 45.6396 28.8591C44.9581 28.8556 44.2766 28.8514 43.5951 28.8472C42.3047 28.8394 41.0142 28.8323 39.7238 28.8256C38.2546 28.8179 36.7855 28.8093 35.3163 28.8007C32.2942 28.7829 29.2721 28.7662 26.25 28.7502C26.25 27.9252 26.25 27.1002 26.25 26.2502C26.509 26.2486 26.7679 26.247 27.0347 26.2453C29.4719 26.2301 31.9091 26.214 34.3462 26.1972C35.5993 26.1885 36.8523 26.1802 38.1054 26.1725C39.1975 26.1658 40.2895 26.1586 41.3816 26.1507C41.9599 26.1465 42.5382 26.1426 43.1166 26.1394C43.7619 26.1358 44.4073 26.131 45.0526 26.126C45.3408 26.1247 45.3408 26.1247 45.6347 26.1233C45.8104 26.1218 45.9861 26.1202 46.1672 26.1187C46.3198 26.1177 46.4725 26.1167 46.6298 26.1156C47.0029 26.0955 47.3084 26.0745 47.6562 25.9377C47.8601 25.4695 47.8601 25.4695 47.9688 25.0002Z" fill="#B3E7F2"/>
<path d="M67.9688 12.5C68.4705 12.8709 68.7056 13.1147 68.8672 13.7207C68.5568 15.04 66.9857 16.1621 66.0565 17.0892C65.9047 17.2412 65.7528 17.3932 65.601 17.5452C65.2855 17.8609 64.9696 18.1765 64.6536 18.4918C64.2483 18.8961 63.8438 19.3012 63.4394 19.7065C63.1272 20.0192 62.8147 20.3316 62.5021 20.6438C62.2801 20.8656 62.0584 21.0878 61.8368 21.3099C61.7027 21.4435 61.5686 21.5771 61.4305 21.7147C61.2533 21.8918 61.2533 21.8918 61.0725 22.0724C60.7227 22.3983 60.5291 22.4885 60.0586 22.5781C59.2446 22.4575 58.852 21.9732 58.2812 21.4062C58.1175 21.2465 57.9537 21.0868 57.7899 20.9271C56.2798 19.4425 56.2798 19.4425 56.1914 18.7793C56.25 18.2812 56.25 18.2812 56.582 17.832C57.0312 17.5 57.0312 17.5 57.4707 17.3828C58.2324 17.562 58.674 18.0524 59.2188 18.5937C59.4121 18.7823 59.4121 18.7823 59.6094 18.9746C59.6867 19.0552 59.7641 19.1357 59.8438 19.2187C60.3675 18.9913 60.7081 18.7042 61.1085 18.2995C61.2946 18.1126 61.2946 18.1126 61.4845 17.9219C61.6832 17.72 61.6832 17.72 61.886 17.514C62.0231 17.3761 62.1602 17.2382 62.3014 17.0961C62.6651 16.7302 63.0281 16.3636 63.3907 15.9966C63.9026 15.4788 64.4153 14.9618 64.9285 14.4452C65.2016 14.1701 65.4742 13.8947 65.7465 13.6188C65.8696 13.4947 65.9926 13.3706 66.1195 13.2427C66.2821 13.0781 66.2821 13.0781 66.4481 12.9102C66.9368 12.4516 67.3093 12.4224 67.9688 12.5Z" fill="white"/>
<path d="M9.21889 52.3437C9.54758 52.5847 9.66273 52.7626 9.84389 53.125C9.89939 53.7244 9.9294 54.0853 9.59975 54.5996C9.07884 54.9335 8.73338 54.9089 8.12514 54.8437C7.69367 54.6847 7.55001 54.6309 7.34389 54.2187C7.26724 53.5416 7.26929 53.2312 7.66616 52.666C8.23632 52.2657 8.53571 52.2425 9.21889 52.3437Z" fill="#2B5582"/>
<path d="M48.75 48.75C49.7812 48.75 50.8125 48.75 51.875 48.75C50.8185 49.9826 50.8185 49.9826 50.4071 50.3949C50.2752 50.5271 50.2752 50.5271 50.1407 50.6619C50.0524 50.7496 49.964 50.8374 49.873 50.9277C49.7817 51.0197 49.6904 51.1116 49.5963 51.2064C48.9261 51.875 48.9261 51.875 48.75 51.875C48.75 50.8438 48.75 49.8125 48.75 48.75Z" fill="#2B5582"/>
<path d="M39.999 46.1523C40.6356 46.285 40.8653 46.5121 41.249 47.0312C41.3467 47.5 41.3467 47.5 41.249 47.9688C40.8653 48.4879 40.6356 48.715 39.999 48.8477C39.3624 48.715 39.1328 48.4879 38.749 47.9688C38.6514 47.5 38.6514 47.5 38.749 47.0312C39.1328 46.5121 39.3624 46.285 39.999 46.1523Z" fill="#0B0B0B"/>
<path d="M34.999 46.1523C35.6356 46.285 35.8653 46.5121 36.249 47.0312C36.3467 47.5 36.3467 47.5 36.249 47.9688C35.8653 48.4879 35.6356 48.715 34.999 48.8477C34.3624 48.715 34.1328 48.4879 33.749 47.9688C33.6514 47.5 33.6514 47.5 33.749 47.0312C34.1328 46.5121 34.3624 46.285 34.999 46.1523Z" fill="#0B0B0B"/>
<path d="M29.999 46.1523C30.6356 46.285 30.8653 46.5121 31.249 47.0312C31.3467 47.5 31.3467 47.5 31.249 47.9688C30.8653 48.4879 30.6356 48.715 29.999 48.8477C29.3624 48.715 29.1328 48.4879 28.749 47.9688C28.6514 47.5 28.6514 47.5 28.749 47.0312C29.1328 46.5121 29.3624 46.285 29.999 46.1523Z" fill="#0B0B0B"/>
<path d="M49.999 41.1523C50.6356 41.285 50.8653 41.5121 51.249 42.0312C51.3467 42.5 51.3467 42.5 51.249 42.9688C50.8653 43.4879 50.6356 43.715 49.999 43.8477C49.3624 43.715 49.1328 43.4879 48.749 42.9688C48.6514 42.5 48.6514 42.5 48.749 42.0312C49.1328 41.5121 49.3624 41.285 49.999 41.1523Z" fill="#0B0B0B"/>
<path d="M44.999 41.1523C45.6356 41.285 45.8653 41.5121 46.249 42.0312C46.3467 42.5 46.3467 42.5 46.249 42.9688C45.8653 43.4879 45.6356 43.715 44.999 43.8477C44.3624 43.715 44.1328 43.4879 43.749 42.9688C43.6514 42.5 43.6514 42.5 43.749 42.0312C44.1328 41.5121 44.3624 41.285 44.999 41.1523Z" fill="#0B0B0B"/>
<path d="M39.999 41.1523C40.6356 41.285 40.8653 41.5121 41.249 42.0312C41.3467 42.5 41.3467 42.5 41.249 42.9688C40.8653 43.4879 40.6356 43.715 39.999 43.8477C39.3624 43.715 39.1328 43.4879 38.749 42.9688C38.6514 42.5 38.6514 42.5 38.749 42.0312C39.1328 41.5121 39.3624 41.285 39.999 41.1523Z" fill="#0B0B0B"/>
<path d="M34.999 41.1523C35.6356 41.285 35.8653 41.5121 36.249 42.0312C36.3467 42.5 36.3467 42.5 36.249 42.9688C35.8653 43.4879 35.6356 43.715 34.999 43.8477C34.3624 43.715 34.1328 43.4879 33.749 42.9688C33.6514 42.5 33.6514 42.5 33.749 42.0312C34.1328 41.5121 34.3624 41.285 34.999 41.1523Z" fill="#0B0B0B"/>
<path d="M29.999 41.1523C30.6356 41.285 30.8653 41.5121 31.249 42.0312C31.3467 42.5 31.3467 42.5 31.249 42.9688C30.8653 43.4879 30.6356 43.715 29.999 43.8477C29.3624 43.715 29.1328 43.4879 28.749 42.9688C28.6514 42.5 28.6514 42.5 28.749 42.0312C29.1328 41.5121 29.3624 41.285 29.999 41.1523Z" fill="#0B0B0B"/>
<path d="M49.999 36.1523C50.6356 36.285 50.8653 36.5121 51.249 37.0312C51.3467 37.5 51.3467 37.5 51.249 37.9688C50.8653 38.4879 50.6356 38.715 49.999 38.8477C49.3624 38.715 49.1328 38.4879 48.749 37.9688C48.6514 37.5 48.6514 37.5 48.749 37.0312C49.1328 36.5121 49.3624 36.285 49.999 36.1523Z" fill="#0B0B0B"/>
<path d="M44.999 36.1523C45.6356 36.285 45.8653 36.5121 46.249 37.0312C46.3467 37.5 46.3467 37.5 46.249 37.9688C45.8653 38.4879 45.6356 38.715 44.999 38.8477C44.3624 38.715 44.1328 38.4879 43.749 37.9688C43.6514 37.5 43.6514 37.5 43.749 37.0312C44.1328 36.5121 44.3624 36.285 44.999 36.1523Z" fill="#0B0B0B"/>
<path d="M39.999 36.1523C40.6356 36.285 40.8653 36.5121 41.249 37.0312C41.3467 37.5 41.3467 37.5 41.249 37.9688C40.8653 38.4879 40.6356 38.715 39.999 38.8477C39.3624 38.715 39.1328 38.4879 38.749 37.9688C38.6514 37.5 38.6514 37.5 38.749 37.0312C39.1328 36.5121 39.3624 36.285 39.999 36.1523Z" fill="#0B0B0B"/>
<path d="M34.999 36.1523C35.6356 36.285 35.8653 36.5121 36.249 37.0312C36.3467 37.5 36.3467 37.5 36.249 37.9688C35.8653 38.4879 35.6356 38.715 34.999 38.8477C34.3624 38.715 34.1328 38.4879 33.749 37.9688C33.6514 37.5 33.6514 37.5 33.749 37.0312C34.1328 36.5121 34.3624 36.285 34.999 36.1523Z" fill="#0B0B0B"/>
<path d="M29.999 36.1523C30.6356 36.285 30.8653 36.5121 31.249 37.0312C31.3467 37.5 31.3467 37.5 31.249 37.9688C30.8653 38.4879 30.6356 38.715 29.999 38.8477C29.3624 38.715 29.1328 38.4879 28.749 37.9688C28.6514 37.5 28.6514 37.5 28.749 37.0312C29.1328 36.5121 29.3624 36.285 29.999 36.1523Z" fill="#0B0B0B"/>
</svg>
