<svg width="36" height="36" viewBox="0 0 36 36" fill="none" xmlns="http://www.w3.org/2000/svg">
<g clip-path="url(#clip0_3702_204)">
<path d="M19.0032 17.4877L25.7543 27.1442H22.9836L17.4746 19.2644V19.264L16.6658 18.1072L10.2303 8.90186H13.001L18.1944 16.3309L19.0032 17.4877Z" fill="white"/>
<path d="M29.7584 3H6.24156C4.45134 3 3 4.45134 3 6.24156V29.7584C3 31.5487 4.45134 33 6.24156 33H29.7584C31.5487 33 33 31.5487 33 29.7584V6.24156C33 4.45134 31.5487 3 29.7584 3ZM22.135 28.4406L16.5601 20.3271L9.58044 28.4406H7.77653L15.7592 19.1619L7.77653 7.54401H13.865L19.144 15.2269L25.7533 7.54401H27.5572L19.9452 16.3924H19.9447L28.2235 28.4406H22.135Z" fill="white"/>
</g>
<defs>
<clipPath id="clip0_3702_204">
<rect width="30" height="30" fill="white" transform="translate(3 3)"/>
</clipPath>
</defs>
</svg>
