<svg width="32" height="32" viewBox="0 0 32 32" fill="none" xmlns="http://www.w3.org/2000/svg">
<path d="M4 26.6663V22.933C4 22.1552 4.19444 21.4552 4.58333 20.833C4.97222 20.2108 5.48889 19.733 6.13333 19.3997C7.51111 18.7108 8.91111 18.1941 10.3333 17.8497C11.7556 17.5052 13.2 17.333 14.6667 17.333C15.6 17.333 16.5278 17.4052 17.45 17.5497C18.3722 17.6941 19.3 17.9108 20.2333 18.1997C19.7889 18.4663 19.3889 18.7886 19.0333 19.1663C18.6778 19.5441 18.3667 19.9552 18.1 20.3997C17.5222 20.2663 16.95 20.1663 16.3833 20.0997C15.8167 20.033 15.2444 19.9997 14.6667 19.9997C13.4 19.9997 12.1556 20.1552 10.9333 20.4663C9.71111 20.7775 8.51111 21.2219 7.33333 21.7997C7.13333 21.9108 6.97222 22.0663 6.85 22.2663C6.72778 22.4663 6.66667 22.6886 6.66667 22.933V23.9997H17.3667C17.4111 24.4441 17.5167 24.8886 17.6833 25.333C17.85 25.7775 18.0778 26.2219 18.3667 26.6663H4ZM14.6667 15.9997C13.2 15.9997 11.9444 15.4775 10.9 14.433C9.85556 13.3886 9.33333 12.133 9.33333 10.6663C9.33333 9.19967 9.85556 7.94412 10.9 6.89967C11.9444 5.85523 13.2 5.33301 14.6667 5.33301C16.1333 5.33301 17.3889 5.85523 18.4333 6.89967C19.4778 7.94412 20 9.19967 20 10.6663C20 12.133 19.4778 13.3886 18.4333 14.433C17.3889 15.4775 16.1333 15.9997 14.6667 15.9997ZM14.6667 13.333C15.4 13.333 16.0278 13.0719 16.55 12.5497C17.0722 12.0275 17.3333 11.3997 17.3333 10.6663C17.3333 9.93301 17.0722 9.30523 16.55 8.78301C16.0278 8.26079 15.4 7.99967 14.6667 7.99967C13.9333 7.99967 13.3056 8.26079 12.7833 8.78301C12.2611 9.30523 12 9.93301 12 10.6663C12 11.3997 12.2611 12.0275 12.7833 12.5497C13.3056 13.0719 13.9333 13.333 14.6667 13.333Z" fill="#0A3254"/>
<path d="M20 25.3333H22.6667V22.6667C22.6667 22.2889 22.7944 21.9722 23.05 21.7167C23.3056 21.4611 23.6222 21.3333 24 21.3333H26.6667V24L30.6667 20L26.6667 16V18.6667H24C22.8889 18.6667 21.9444 19.0556 21.1667 19.8333C20.3889 20.6111 20 21.5556 20 22.6667V25.3333Z" fill="#0A3254"/>
</svg>
