<svg width="24" height="24" viewBox="0 0 24 24" fill="none" xmlns="http://www.w3.org/2000/svg">
<mask id="mask0_7378_6738" style="mask-type:alpha" maskUnits="userSpaceOnUse" x="0" y="0" width="24" height="24">
<rect width="24" height="24" fill="#D9D9D9"/>
</mask>
<g mask="url(#mask0_7378_6738)">
<path d="M19.5406 20.577L13.2598 14.296C12.7598 14.7088 12.1848 15.0319 11.5348 15.2653C10.8848 15.4986 10.2124 15.6153 9.51759 15.6153C7.80843 15.6153 6.36193 15.0235 5.17809 13.84C3.99426 12.6565 3.40234 11.2103 3.40234 9.5015C3.40234 7.79283 3.99409 6.34617 5.17759 5.1615C6.36109 3.977 7.80726 3.38475 9.51609 3.38475C11.2248 3.38475 12.6714 3.97667 13.8561 5.1605C15.0406 6.34433 15.6328 7.79083 15.6328 9.5C15.6328 10.2142 15.513 10.8963 15.2733 11.5463C15.0335 12.1963 14.7136 12.7616 14.3136 13.2423L20.5943 19.523L19.5406 20.577ZM9.51759 14.1155C10.8061 14.1155 11.8974 13.6683 12.7916 12.774C13.6859 11.8798 14.1331 10.7885 14.1331 9.5C14.1331 8.2115 13.6859 7.12017 12.7916 6.226C11.8974 5.33167 10.8061 4.8845 9.51759 4.8845C8.22909 4.8845 7.13776 5.33167 6.24359 6.226C5.34926 7.12017 4.90209 8.2115 4.90209 9.5C4.90209 10.7885 5.34926 11.8798 6.24359 12.774C7.13776 13.6683 8.22909 14.1155 9.51759 14.1155Z" fill="#004B5A"/>
</g>
</svg>
