<svg width="69" height="16" viewBox="0 0 69 16" fill="none" xmlns="http://www.w3.org/2000/svg">
<path d="M1.11721 11.551C0.253643 10.088 -0.0924268 8.37703 0.134728 6.69349C0.366346 5.00519 1.15576 3.44279 2.37743 2.25472C3.61849 1.05328 5.21471 0.285264 6.92797 0.0652462C8.64123 -0.154771 10.3797 0.184999 11.8841 1.03387C13.3777 1.87489 14.5507 3.18681 15.2201 4.76481C15.8802 6.3269 15.9948 8.06581 15.5456 9.70104C15.0905 11.3474 14.1006 12.7956 12.7318 13.8175C11.3478 14.8522 9.66561 15.4104 7.93756 15.4083C6.62541 15.4104 5.33284 15.0901 4.17346 14.4756L0 15.5431L1.11721 11.551ZM4.6077 13.2154C5.62048 13.8008 6.76982 14.1086 7.93964 14.1077C9.3866 14.1094 10.7945 13.6385 11.9494 12.7666C13.0911 11.9057 13.9113 10.687 14.2791 9.30515C14.6419 7.93072 14.5272 6.47382 13.9537 5.17314C13.3729 3.86164 12.372 2.78085 11.1089 2.10133C9.83371 1.41289 8.36912 1.15825 6.93643 1.37587C5.5097 1.59109 4.1929 2.26824 3.18788 3.30352C2.19253 4.32292 1.57236 5.64978 1.42873 7.06727C1.2851 8.48476 1.62649 9.90905 2.39713 11.1074L2.55258 11.3489L1.89138 13.7118L4.36934 13.0765L4.6077 13.2154ZM62.7699 13.4154V6.10587H64.2156V6.79713H64.2363C64.4043 6.5194 64.65 6.29707 64.9431 6.15769C65.2383 6.02293 65.5597 5.95499 65.8842 5.9587C66.2728 5.94811 66.6583 6.03055 67.0086 6.19914C67.3131 6.35159 67.58 6.56962 67.7901 6.83755C68.0023 7.1135 68.1586 7.42822 68.2502 7.76406C68.3515 8.12423 68.4021 8.49677 68.4005 8.87091C68.4016 9.22528 68.351 9.57791 68.2502 9.91764C68.1567 10.2407 68.0023 10.5429 67.7952 10.8079C67.5911 11.0688 67.3317 11.2812 67.0356 11.4297C66.7038 11.5891 66.3392 11.668 65.9712 11.6598C65.644 11.6622 65.3203 11.5914 65.024 11.4525C64.7373 11.3187 64.4915 11.1108 64.312 10.8504H64.2902V13.4164L62.7699 13.4154ZM64.9266 7.23137C64.7623 7.32873 64.6229 7.46282 64.5193 7.62312C64.4122 7.79306 64.3377 7.98143 64.2996 8.17861C64.2564 8.3925 64.2348 8.61021 64.2353 8.82842C64.2351 9.04311 64.2584 9.25718 64.3047 9.46682C64.3457 9.66204 64.422 9.84817 64.5296 10.0161C64.7142 10.2666 64.9827 10.4424 65.2862 10.5115C65.591 10.5819 65.9108 10.5418 66.1889 10.3985C66.3527 10.3047 66.4922 10.1737 66.5962 10.0161C66.7037 9.84877 66.7779 9.66227 66.8148 9.46682C66.8577 9.25673 66.8793 9.04284 66.8791 8.82842C66.8795 8.61336 66.8563 8.39891 66.8096 8.18897C66.7678 7.98962 66.6898 7.7996 66.5796 7.6283C66.4738 7.46554 66.332 7.32935 66.165 7.23033C65.9781 7.12403 65.7654 7.07132 65.5505 7.07799C65.3331 7.07137 65.118 7.12441 64.9286 7.23137H64.9266ZM56.7102 13.4154V6.10587H58.1559V6.79713H58.1777C58.3457 6.5194 58.5914 6.29707 58.8845 6.15769C59.18 6.02275 59.5017 5.9548 59.8266 5.9587C60.2149 5.94816 60.6 6.03059 60.95 6.19914C61.2544 6.35159 61.5213 6.56962 61.7314 6.83755C61.9433 7.11368 62.0996 7.42835 62.1916 7.76406C62.2921 8.12368 62.3427 8.49543 62.3418 8.86883C62.3424 9.22316 62.2918 9.57572 62.1916 9.91557C62.0977 10.2385 61.9434 10.5406 61.7366 10.8058C61.5325 11.0667 61.273 11.2791 60.9769 11.4276C60.645 11.5873 60.2799 11.6662 59.9116 11.6577C59.5843 11.6602 59.2606 11.5894 58.9643 11.4504C58.6776 11.3167 58.4318 11.1089 58.2523 10.8483H58.2306V13.4144L56.7102 13.4154ZM58.8659 7.2324C58.7019 7.32968 58.5628 7.4638 58.4596 7.62415C58.3534 7.79597 58.2803 7.98613 58.244 8.18483C58.2007 8.3987 58.1792 8.61642 58.1798 8.83463C58.1795 9.04934 58.2028 9.26342 58.2492 9.47304C58.2899 9.66836 58.3661 9.85454 58.4741 10.0223C58.5795 10.1813 58.7217 10.3125 58.8887 10.4047C59.1628 10.5622 59.4865 10.6099 59.7944 10.5384C60.1011 10.468 60.3689 10.2825 60.5427 10.0202C60.6501 9.85274 60.7247 9.66633 60.7624 9.47097C60.8049 9.26083 60.8261 9.04695 60.8256 8.83256C60.8253 8.61458 60.8006 8.39732 60.7521 8.18483C60.7098 7.9856 60.6318 7.79565 60.522 7.62415C60.4163 7.46344 60.2752 7.32907 60.1095 7.23137C59.9222 7.12494 59.7092 7.07222 59.4939 7.07902C59.2765 7.07235 59.0614 7.1254 58.8721 7.2324H58.8659ZM45.5578 11.5624C45.2686 11.5072 44.9911 11.402 44.7381 11.2515C44.4996 11.1057 44.2981 10.9067 44.1494 10.67C43.9862 10.396 43.8993 10.0832 43.8976 9.76426H45.3423C45.3388 9.90925 45.3746 10.0525 45.4459 10.1788C45.5111 10.2915 45.6007 10.3882 45.7081 10.4617C45.8204 10.5375 45.9454 10.5926 46.077 10.6244C46.2187 10.6598 46.3642 10.6776 46.5102 10.6773C46.6238 10.6765 46.7371 10.664 46.8481 10.64C46.9603 10.6178 47.0686 10.5791 47.1694 10.525C47.2638 10.4745 47.346 10.4037 47.4098 10.3177C47.4769 10.2212 47.5108 10.1055 47.5062 9.98812C47.5062 9.76426 47.3545 9.59671 47.0512 9.48547C46.637 9.34341 46.213 9.2312 45.7827 9.14969C45.562 9.10098 45.3454 9.04605 45.135 8.97662C44.9362 8.91613 44.7468 8.82823 44.5722 8.71545C44.4116 8.61069 44.2767 8.47113 44.1774 8.30712C44.0722 8.12427 44.0198 7.91583 44.0261 7.70499C44.0133 7.40517 44.0851 7.1078 44.2333 6.84688C44.3692 6.62671 44.559 6.4448 44.7847 6.31833C45.0247 6.18507 45.2853 6.09294 45.5558 6.04576C45.8454 5.99351 46.1392 5.9675 46.4336 5.96803C46.7261 5.96733 47.0181 5.99545 47.3051 6.05198C47.5711 6.10185 47.8264 6.19759 48.0596 6.33491C48.2808 6.46735 48.4693 6.64803 48.611 6.86346C48.7667 7.11339 48.8569 7.39854 48.8732 7.69255H47.4305C47.4334 7.57463 47.4041 7.45816 47.3456 7.35569C47.2872 7.25323 47.2019 7.16868 47.0989 7.11115C46.8786 7.00562 46.6363 6.95377 46.3921 6.95984C46.2993 6.96031 46.2066 6.9655 46.1144 6.97538C46.0206 6.98478 45.9288 7.00782 45.8418 7.04379C45.762 7.07817 45.6911 7.13027 45.6345 7.19613C45.5743 7.2718 45.5441 7.36698 45.5495 7.46352C45.5475 7.52529 45.56 7.58667 45.5858 7.64281C45.6119 7.69917 45.6505 7.74881 45.6988 7.7879C45.8141 7.88139 45.9464 7.95176 46.0884 7.99517C46.2686 8.04911 46.4517 8.09305 46.6367 8.12679C46.844 8.16894 47.0543 8.21454 47.2678 8.26359C47.4813 8.31265 47.6972 8.37172 47.9156 8.44081C48.1152 8.50581 48.3044 8.59937 48.4773 8.71856C48.639 8.8314 48.7741 8.97818 48.8732 9.14865C48.9786 9.34262 49.0301 9.56126 49.0224 9.78188C49.0333 10.0948 48.9576 10.4046 48.8037 10.6773C48.6617 10.914 48.4652 11.1133 48.2306 11.2587C47.9825 11.411 47.7085 11.5164 47.4223 11.5696C47.117 11.6289 46.8067 11.6588 46.4957 11.6587C46.1806 11.6583 45.8664 11.626 45.5578 11.5624ZM35.6988 11.5624C35.4818 11.5049 35.2783 11.4052 35.0998 11.2691C34.928 11.1359 34.7905 10.9635 34.6987 10.7664C34.5969 10.5385 34.5477 10.2905 34.5547 10.041C34.5447 9.77779 34.6018 9.5164 34.7205 9.28131C34.8236 9.0909 34.9703 8.92755 35.1485 8.80458C35.332 8.68244 35.5349 8.59238 35.7486 8.53823C35.9725 8.47925 36.1995 8.4322 36.4284 8.39728C36.6564 8.36274 36.881 8.33476 37.1021 8.31334C37.3004 8.29655 37.4971 8.26503 37.6907 8.21903C37.8383 8.18854 37.9774 8.12591 38.098 8.03559C38.1484 7.99288 38.1876 7.93843 38.212 7.87703C38.2362 7.81584 38.2448 7.74959 38.2369 7.68426C38.2433 7.55207 38.2159 7.42043 38.1571 7.30184C38.1069 7.2108 38.0332 7.13492 37.9436 7.08213C37.8476 7.02788 37.742 6.99269 37.6327 6.97849C37.5067 6.96061 37.3796 6.95195 37.2523 6.95258C37.0027 6.93844 36.755 7.00454 36.5455 7.1412C36.4534 7.21825 36.3788 7.3142 36.327 7.42255C36.2751 7.53091 36.2472 7.64914 36.245 7.76924H34.7257C34.7339 7.46046 34.8264 7.1598 34.9931 6.89973C35.1475 6.67108 35.3525 6.48102 35.5921 6.34423C35.847 6.20017 36.124 6.09932 36.4118 6.04576C36.7133 5.98646 37.0198 5.95661 37.327 5.95663C37.6098 5.95707 37.8924 5.97646 38.1726 6.01467C38.4432 6.04871 38.7068 6.12458 38.9541 6.23956C39.1819 6.34528 39.3801 6.50545 39.5313 6.70593C39.6915 6.93748 39.7706 7.2155 39.7562 7.49668V10.3146C39.7556 10.5491 39.7702 10.7835 39.7997 11.0162C39.8135 11.1925 39.8648 11.3639 39.95 11.5188H38.4079C38.3794 11.4351 38.3562 11.3496 38.3385 11.2629C38.3205 11.1746 38.3081 11.0853 38.3012 10.9955C38.0642 11.2383 37.7692 11.4167 37.4441 11.5137C37.1178 11.6107 36.7792 11.6599 36.4388 11.6598C36.1894 11.6616 35.9408 11.6299 35.6999 11.5655L35.6988 11.5624ZM37.9954 9.00149C37.8936 9.0343 37.7897 9.06061 37.6845 9.08025C37.5747 9.10098 37.4586 9.1186 37.3363 9.13207C37.214 9.14555 37.0938 9.1642 36.9725 9.18493C36.8583 9.20583 36.7454 9.23386 36.6347 9.26887C36.5313 9.30042 36.4337 9.34836 36.3455 9.41086C36.2637 9.47027 36.1961 9.54708 36.1476 9.63575C36.094 9.74304 36.0684 9.86208 36.073 9.9819C36.0692 10.098 36.0949 10.2131 36.1476 10.3166C36.1963 10.4054 36.2678 10.4794 36.3548 10.5312C36.447 10.586 36.5486 10.6233 36.6544 10.641C36.7709 10.6627 36.8892 10.6734 37.0078 10.6732C37.2488 10.6866 37.4892 10.6358 37.7042 10.526C37.8537 10.4422 37.979 10.3212 38.068 10.1747C38.1433 10.0475 38.1923 9.90655 38.212 9.76011C38.228 9.64885 38.237 9.53671 38.239 9.42433V8.87091C38.1685 8.93023 38.0867 8.97465 37.9985 9.00149H37.9954ZM42.1482 11.5251C41.9529 11.4987 41.7643 11.4365 41.5916 11.3416C41.431 11.2507 41.2991 11.1164 41.2113 10.954C41.1103 10.7491 41.0625 10.5221 41.0724 10.2938V7.10079H40.1521V6.10587H41.0724V4.48291H42.5948V6.10587H43.7079V7.10079H42.5948V9.78188C42.5734 9.95959 42.6193 10.1389 42.7233 10.2845C42.875 10.3881 43.0592 10.433 43.2415 10.411C43.3272 10.411 43.4091 10.4072 43.4872 10.3996C43.5627 10.3935 43.6377 10.3832 43.712 10.3685V11.5199C43.5703 11.5425 43.4274 11.5567 43.284 11.5624C43.1265 11.5686 42.9731 11.5727 42.8239 11.5727C42.6002 11.5737 42.3768 11.5581 42.1554 11.5261L42.1482 11.5251ZM54.7307 11.5199L54.1535 9.85442H51.2952L50.6961 11.5199H49.0048L51.8952 4.03935H53.6187L56.476 11.5168L54.7307 11.5199ZM51.7336 8.62943H53.7141L52.7513 5.88512H52.7305L51.7336 8.62943ZM32.3814 11.5199V8.46154C32.4048 8.1148 32.3308 7.76841 32.1679 7.46144C32.0808 7.34518 31.965 7.25358 31.8318 7.19561C31.6986 7.13765 31.5527 7.11533 31.4083 7.13084C31.2405 7.11538 31.0714 7.14001 30.915 7.20272C30.7586 7.26543 30.6193 7.3644 30.5087 7.4915C30.2928 7.84843 30.1952 8.26449 30.2299 8.68021V11.5178H28.7075V4.03935H30.2278V6.86035H30.262C30.4349 6.56389 30.6917 6.32519 30.9999 6.17427C31.2726 6.03759 31.5727 5.96426 31.8777 5.95974C32.2187 5.94866 32.5587 6.00355 32.8789 6.12142C33.1195 6.21562 33.3313 6.37102 33.4934 6.57224C33.6484 6.77983 33.7547 7.01962 33.8043 7.27386C33.8675 7.57509 33.8981 7.88224 33.8955 8.19001V11.5199H32.3814ZM24.6428 11.5199L23.3474 6.43025H23.3256L22.0519 11.5199H20.3502L18.3272 4.03935H20.0082L21.2176 9.12896H21.2394L22.5659 4.03935H24.1391L25.445 9.19115H25.4657L26.7197 4.03935H28.3675L26.3124 11.5157L24.6428 11.5199ZM9.2237 11.2939C8.8428 11.1784 8.46817 11.0431 8.10131 10.8887C6.74886 10.2254 5.59183 9.2223 4.74347 7.97756C4.2845 7.40872 4.00429 6.71668 3.93821 5.98876C3.93365 5.68775 3.99268 5.38916 4.11144 5.11252C4.23021 4.83589 4.40602 4.58744 4.6274 4.38342C4.69347 4.30989 4.77388 4.25064 4.86369 4.20931C4.9549 4.16769 5.05364 4.14512 5.15387 4.14298C5.28445 4.14298 5.41607 4.14298 5.53111 4.15024H5.57464C5.68968 4.15024 5.83269 4.15024 5.97364 4.4798C6.13739 4.86533 6.53121 5.81258 6.58095 5.90896C6.61202 5.9591 6.62984 6.01631 6.63274 6.07523C6.63564 6.13414 6.62353 6.19283 6.59754 6.24578C6.54773 6.3618 6.4814 6.47001 6.40063 6.56705C6.30217 6.67898 6.19335 6.81786 6.10526 6.90388C6.01717 6.98989 5.9042 7.1039 6.01924 7.29666C6.31578 7.79315 6.68463 8.24268 7.11365 8.63047C7.58239 9.03747 8.11773 9.3607 8.69619 9.586C8.8931 9.68238 9.0071 9.6658 9.12214 9.53729C9.23717 9.40878 9.61441 8.97558 9.74396 8.78282C9.8735 8.59005 10.0062 8.62218 10.1865 8.68643C10.3668 8.75069 11.3348 9.21602 11.5338 9.30826C11.7328 9.40049 11.8623 9.45231 11.911 9.53315C11.9648 9.84283 11.9247 10.1615 11.796 10.4483C11.6489 10.6836 11.4552 10.8863 11.2266 11.0437C10.9981 11.2011 10.7396 11.3099 10.4673 11.3634C10.3092 11.3875 10.1495 11.3999 9.98958 11.4007C9.73034 11.4043 9.47208 11.3683 9.2237 11.2939Z" fill="#67C94E"/>
</svg>
